<?xml version="1.0" encoding="UTF-8" standalone="no"?>
<!-- Created with Inkscape (http://www.inkscape.org/) -->

<svg
   width="68.010399mm"
   height="77.960831mm"
   viewBox="0 0 68.010401 77.960831"
   version="1.1"
   id="svg1"
   xml:space="preserve"
   inkscape:version="1.3 (0e150ed, 2023-07-21)"
   sodipodi:docname="think.svg"
   xmlns:inkscape="http://www.inkscape.org/namespaces/inkscape"
   xmlns:sodipodi="http://sodipodi.sourceforge.net/DTD/sodipodi-0.dtd"
   xmlns="http://www.w3.org/2000/svg"
   xmlns:svg="http://www.w3.org/2000/svg"><sodipodi:namedview
     id="namedview1"
     pagecolor="#ffffff"
     bordercolor="#000000"
     borderopacity="0.25"
     inkscape:showpageshadow="2"
     inkscape:pageopacity="0.0"
     inkscape:pagecheckerboard="true"
     inkscape:deskcolor="#d1d1d1"
     inkscape:document-units="mm"
     inkscape:zoom="0.92240536"
     inkscape:cx="131.17877"
     inkscape:cy="149.06678"
     inkscape:window-width="1312"
     inkscape:window-height="576"
     inkscape:window-x="0"
     inkscape:window-y="25"
     inkscape:window-maximized="0"
     inkscape:current-layer="layer1" /><defs
     id="defs1" /><g
     inkscape:label="Layer 1"
     inkscape:groupmode="layer"
     id="layer1"
     transform="translate(-69.557484,-113.12898)"><path
       style="fill:#000000"
       d="m 103.67017,191.0132 c -0.29104,-0.0332 -1.24354,-0.15346 -2.11667,-0.26729 -0.87312,-0.11384 -2.897187,-0.21681 -4.497916,-0.22883 l -2.910416,-0.0218 -2.427515,-0.831 c -1.335133,-0.45705 -3.200445,-0.95376 -4.145139,-1.10381 -2.873317,-0.45637 -3.565273,-0.87993 -6.7046,-4.10408 -2.920505,-2.99942 -3.766379,-4.19673 -4.208577,-5.95713 -0.240126,-0.95595 -0.3378,-1.1243 -0.603383,-1.04001 -0.233851,0.0742 -0.33191,-0.005 -0.374249,-0.30397 -0.04145,-0.29227 -0.192006,-0.42004 -0.54244,-0.46037 l -0.485069,-0.0558 v 1.26114 c 0,0.93003 -0.05789,1.24208 -0.220486,1.18855 -0.123229,-0.0406 -0.244201,-0.43608 -0.274248,-0.89664 -0.08251,-1.26469 -0.916377,-1.0194 -0.916377,0.26955 0,0.86365 -0.217609,0.85121 -0.617361,-0.0353 -0.353946,-0.78491 -0.531026,-0.87836 -0.66847,-0.35278 -0.136616,0.52243 -0.728097,0.44044 -0.95441,-0.13229 l -0.191675,-0.48507 -0.02147,0.61736 c -0.01181,0.33955 -0.09963,0.73643 -0.195154,0.88195 -0.427621,0.65141 -0.596617,-0.44301 -0.531127,-3.43958 0.01272,-0.58209 -0.09977,-1.8124 -0.249978,-2.73403 -0.324023,-1.98809 -0.321605,-1.94028 -0.09814,-1.94028 0.09701,0 0.176389,0.12375 0.176389,0.27499 0,0.15125 0.07937,0.22594 0.176389,0.16598 0.09701,-0.06 0.176389,-0.30745 0.176389,-0.54998 0,-0.26533 0.07437,-0.39501 0.186715,-0.32558 0.109629,0.0677 0.138253,0.33605 0.06933,0.64984 -0.08126,0.36998 -0.0573,0.49731 0.07787,0.41377 0.242649,-0.14997 0.250434,-1.04064 0.01646,-1.88295 -0.208902,-0.75205 -0.503513,-4.02857 -0.390811,-4.34642 0.043,-0.12126 0.14627,-0.22048 0.229491,-0.22048 0.289998,0 0.533303,0.72127 0.759534,2.25162 0.177881,1.20329 0.251406,1.42484 0.335703,1.01157 0.312677,-1.53292 0.319171,-2.05967 0.03734,-3.02913 -0.368411,-1.26729 -0.640265,-3.79432 -0.431503,-4.01105 0.220674,-0.2291 0.459399,0.4951 0.716214,2.17273 0.120915,0.78987 0.275386,1.37473 0.343268,1.2997 0.188253,-0.20807 1.366833,-7.67878 1.503318,-9.52912 0.06619,-0.89738 0.189487,-1.6316 0.273988,-1.6316 0.0845,0 0.153637,0.11906 0.153637,0.26458 0,0.14552 0.08012,0.26459 0.178054,0.26459 0.09793,0 0.174066,-0.33735 0.169191,-0.74966 -0.0139,-1.17616 0.210165,-3.56256 0.34366,-3.66007 0.184993,-0.13511 0.543817,-1.88291 0.543817,-2.64888 0,-0.75776 0.242337,-1.04492 0.49732,-0.58929 0.151719,0.27111 0.174629,0.26758 0.262539,-0.0404 0.05297,-0.18557 0.14698,-0.66411 0.208904,-1.06341 0.08033,-0.518 0.234301,-0.79115 0.537385,-0.95335 0.564625,-0.30218 0.754513,-0.96989 0.875027,-3.07687 0.134926,-2.35894 0.207841,-2.61642 0.705559,-2.4915 0.37968,0.0953 0.400767,0.0399 0.514894,-1.35354 0.169956,-2.07505 0.283559,-2.59943 0.563142,-2.59943 0.134724,0 0.244952,-0.12568 0.244952,-0.27928 0,-0.42304 0.417182,-0.1951 0.531834,0.29058 0.06827,0.28917 0.144033,0.35583 0.235762,0.20741 0.208586,-0.3375 0.434657,-0.2599 0.519032,0.17816 0.09176,0.4764 0.195352,-0.72943 0.13636,-1.58724 -0.04454,-0.64768 0.289563,-1.80824 0.52056,-1.80824 0.283997,0 0.408348,0.41145 0.388443,1.28528 -0.01091,0.4791 0.0127,0.83855 0.05247,0.79877 0.03977,-0.0398 0.399025,-0.86229 0.798342,-1.82783 0.399318,-0.96554 0.838732,-1.87176 0.976476,-2.01381 0.217717,-0.22454 0.250444,-0.17131 0.250444,0.40728 0,0.40791 -0.06972,0.62248 -0.180086,0.55427 -0.149093,-0.0921 -0.701859,0.88652 -0.701859,1.24263 0,0.0578 0.297656,-0.0627 0.661458,-0.26793 0.392142,-0.22118 1.021631,-0.88727 1.546061,-1.63596 0.926727,-1.32302 1.185973,-1.47931 3.762768,-2.26849 0.324735,-0.0995 0.840672,-0.33342 1.146528,-0.51992 0.305856,-0.1865 0.722733,-0.33938 0.926394,-0.33975 0.203661,-3.6e-4 0.889377,-0.27612 1.523813,-0.6128 0.634437,-0.33668 1.49968,-0.66344 1.922763,-0.72613 0.423084,-0.0627 1.404243,-0.41461 2.180354,-0.78203 0.776111,-0.36742 1.768298,-0.72303 2.204861,-0.79025 0.974769,-0.15007 1.900559,-0.6461 3.308289,-1.77256 l 1.07744,-0.86217 -0.56127,-0.2357 c -1.47614,-0.61989 -2.10805,-1.94899 -1.62655,-3.4211 0.15588,-0.47659 0.24017,-0.93651 0.18731,-1.02205 -0.0529,-0.0855 -0.17352,-0.56367 -0.26813,-1.06252 -0.13033,-0.68721 -0.11398,-1.04316 0.0674,-1.46885 0.50863,-1.19347 1.65176,-1.74629 2.36333,-1.14292 0.16656,0.14124 0.68587,0.47553 1.15403,0.74287 0.77045,0.43996 0.87951,0.46045 1.1497,0.21593 0.45291,-0.40988 1.82377,-0.98837 2.32063,-0.97928 l 0.44097,0.008 -0.44097,0.18858 c -2.13202,0.91176 -2.29267,1.02598 -2.24794,1.59819 0.0389,0.49777 -0.0273,0.57748 -0.68556,0.82538 -0.40076,0.15091 -1.16063,0.57205 -1.68861,0.93585 -0.52797,0.3638 -1.16937,0.66146 -1.42532,0.66146 -0.3949,0 -0.49459,0.10855 -0.65844,0.71703 -0.25487,0.94653 0.01,1.74333 0.81375,2.44915 0.70259,0.61688 0.88862,0.65113 1.33622,0.24606 0.26613,-0.24084 0.32257,-0.24701 0.32257,-0.0353 0,0.14116 -0.0992,0.36358 -0.22049,0.49428 -0.18136,0.19546 -0.15788,0.21331 0.1323,0.10063 0.19402,-0.0753 1.15898,-0.27621 2.14435,-0.44638 0.98536,-0.17016 1.88009,-0.3641 1.98829,-0.43097 0.1082,-0.0669 1.1673,-0.23838 2.35356,-0.38115 1.18627,-0.14277 2.51404,-0.30311 2.9506,-0.35631 0.51598,-0.0629 1.07152,0.004 1.5875,0.19246 1.94066,0.70706 4.4562,1.50742 4.73785,1.50742 0.38431,0 3.11602,1.30949 3.27781,1.57127 0.0655,0.10594 0.24471,0.19262 0.3983,0.19262 0.15359,0 0.68469,0.34561 1.18022,0.76802 0.49553,0.42241 1.47269,1.13387 2.17146,1.58101 1.42486,0.91177 1.66112,1.20502 2.08649,2.58986 0.60359,1.96507 1.00577,2.93901 1.71168,4.14514 0.39746,0.67909 0.86976,1.51253 1.04956,1.85208 0.17979,0.33955 0.42456,0.61736 0.54392,0.61736 0.20411,0 0.3202,0.30545 0.82605,2.17336 0.17154,0.63344 0.24929,0.72666 0.46015,0.55166 0.14089,-0.11692 0.25373,-0.51476 0.25373,-0.89453 0,-0.55265 -0.0639,-0.68396 -0.33275,-0.68396 -0.26213,0 -0.35881,-0.1778 -0.45555,-0.83785 -0.18624,-1.27071 -0.68122,-2.23004 -1.60957,-3.11956 -0.86799,-0.83168 -0.87826,-1.04391 -0.0232,-0.48011 0.74021,0.48808 1.4993,1.62692 1.73195,2.59837 0.31633,1.32085 0.40471,1.45873 0.47221,0.73672 0.034,-0.3638 0.13066,-0.66146 0.21478,-0.66146 0.48093,0 1.33787,1.91809 1.686,3.77378 0.0656,0.34977 0.18984,0.63594 0.27606,0.63594 0.0862,0 0.15676,0.9525 0.15676,2.11667 0,1.29352 -0.0686,2.11667 -0.17639,2.11667 -0.10389,0 -0.17779,-0.63433 -0.17979,-1.54341 -0.002,-0.84887 -0.11415,-1.94027 -0.24951,-2.42534 l -0.24611,-0.88195 0.0769,1.32292 c 0.21283,3.66304 0.21646,3.56847 -0.14078,3.66189 -0.51632,0.13502 -0.27633,0.45507 0.39782,0.53053 0.33335,0.0373 0.63251,0.14103 0.66479,0.23047 0.0323,0.0894 0.2398,0.11716 0.46116,0.0616 0.40717,-0.10219 0.7413,0.30261 0.53084,0.64314 -0.0533,0.0863 0.0243,0.514 0.17245,0.95045 0.26742,0.78767 0.26552,2.75258 -0.004,4.11539 -0.0863,0.43643 -0.0559,0.56761 0.1226,0.52917 0.49056,-0.10564 0.32382,0.72695 -0.45859,2.28989 l -0.80823,1.61451 0.3594,0.3594 c 0.22271,0.22271 0.35939,0.59084 0.35939,0.96799 0,0.39347 0.10784,0.66894 0.30508,0.77932 0.27746,0.15528 0.30169,0.54828 0.26769,4.3421 -0.0206,2.29425 -0.084,4.24673 -0.14087,4.33883 -0.0569,0.0921 -0.18634,0.11626 -0.2876,0.0537 -0.12065,-0.0746 -0.15063,-0.88119 -0.087,-2.34003 l 0.0971,-2.22625 -0.31615,2.11667 c -0.46065,3.08409 -0.91136,5.02708 -1.16614,5.02708 -0.28777,0 -0.43066,-0.57639 -0.43362,-1.74919 -0.003,-1.31453 -0.17611,-1.02423 -0.37659,0.63271 -0.0919,0.75958 -0.31749,2.2145 -0.50129,3.23315 -0.18379,1.01864 -0.42727,2.43294 -0.54106,3.14288 -0.14308,0.89272 -0.2742,1.26497 -0.42517,1.20704 -0.21059,-0.0808 -0.32707,0.58267 -0.73044,4.16084 -0.0779,0.6914 -0.19209,1.01424 -0.3586,1.01424 -0.14295,0 -0.24426,0.18289 -0.24426,0.44097 0,0.46702 -0.30169,0.60293 -0.45449,0.20475 -0.0499,-0.12992 -0.23385,-1.06257 -0.40888,-2.07257 -0.34829,-2.00983 -0.39228,-1.98847 -0.79212,0.38455 -0.16363,0.97111 -0.29625,1.32124 -0.51654,1.36367 -0.18974,0.0365 -0.36831,-0.12208 -0.49629,-0.44083 l -0.1999,-0.4979 -0.16842,0.61736 c -0.0926,0.33955 -0.28071,0.74267 -0.41797,0.89583 -0.13725,0.15316 -0.24955,0.40644 -0.24955,0.56285 0,0.67531 -0.34176,0.41486 -0.463,-0.35284 -0.17232,-1.09111 -0.18055,-5.22264 -0.0122,-6.13293 l 0.13047,-0.70555 -0.35057,0.40873 c -0.19281,0.2248 -0.92009,1.53115 -1.61618,2.90299 -2.23106,4.39697 -3.22427,5.70342 -6.06697,7.98036 -0.87313,0.69935 -2.43251,2.06982 -3.4653,3.04549 -1.03279,0.97566 -2.10435,1.89026 -2.38125,2.03243 -0.61931,0.31797 -2.01822,0.59529 -3.76665,0.74669 -0.7276,0.063 -2.07698,0.22565 -2.99861,0.36143 -1.61414,0.23781 -2.3052,0.26509 -3.43958,0.13578 z m 3.35139,-0.76958 c 0.58208,-0.0963 1.97114,-0.25803 3.0868,-0.35931 3.08497,-0.28008 3.4105,-0.42934 5.70238,-2.61474 1.08379,-1.03344 2.44679,-2.2705 3.02887,-2.74901 1.55592,-1.27906 3.20611,-2.89771 3.8752,-3.80112 0.32332,-0.43657 1.30172,-2.10344 2.17421,-3.70417 0.87248,-1.60073 2.10382,-3.76266 2.7363,-4.8043 1.2669,-2.08644 1.75688,-3.38707 2.07745,-5.51445 0.11696,-0.77611 0.36747,-1.72062 0.55669,-2.0989 0.24852,-0.49682 0.3413,-1.03557 0.33414,-1.94028 -0.0141,-1.78452 0.3262,-6.42006 0.52995,-7.21865 0.14534,-0.56961 0.21289,-0.64065 0.4344,-0.45681 0.14426,0.11973 0.21646,0.33715 0.16043,0.48315 -0.056,0.146 -0.21335,1.58188 -0.3496,3.19084 -0.21773,2.57106 -0.51361,4.74489 -1.16643,8.56982 -0.22885,1.34083 -0.62508,2.59272 -1.15657,3.6542 -0.36526,0.72948 -0.41442,1.06633 -0.399,2.73403 0.0178,1.92783 0.18899,3.03578 0.38924,2.51941 0.23041,-0.59416 0.85337,-4.2095 1.03827,-6.0256 0.10875,-1.06811 0.29621,-2.04052 0.4166,-2.1609 0.36158,-0.36158 0.78414,-2.3422 0.78414,-3.67545 0,-1.44251 0.3113,-3.4908 0.5697,-3.74847 0.11819,-0.11786 0.15095,0.0138 0.0987,0.39687 -0.043,0.3153 -0.0163,0.57327 0.0594,0.57327 0.16882,0 0.50957,-1.18178 0.42339,-1.46837 -0.0343,-0.11403 -0.10691,-0.46529 -0.16139,-0.78059 -0.1618,-0.93643 0.19071,-0.65112 0.43587,0.35278 0.19885,0.81427 0.24143,0.87281 0.35279,0.48507 0.1651,-0.5749 0.19428,-1.84901 0.0457,-1.99755 -0.0638,-0.0638 -0.22407,-0.0264 -0.35608,0.0831 -0.183,0.15188 -0.32306,0.12406 -0.5895,-0.11706 -0.41635,-0.3768 -0.45992,-1.37355 -0.11105,-2.54037 0.24074,-0.80514 0.33599,-0.79992 0.53418,0.0293 0.1037,0.43391 0.15292,0.46156 0.47088,0.26459 0.1953,-0.12098 0.4171,-0.45781 0.49289,-0.74851 0.0932,-0.35743 0.24844,-0.52874 0.47953,-0.52917 0.26858,-4.9e-4 0.36313,-0.16106 0.44178,-0.75027 0.055,-0.41231 0.0717,-0.74966 0.037,-0.74966 -0.0347,0 -0.29785,0.17356 -0.58476,0.38569 -0.4156,0.30726 -0.74589,0.38152 -1.62446,0.36524 -1.20437,-0.0223 -2.62573,-0.38086 -2.72817,-0.6882 -0.0393,-0.11797 0.40881,-0.0547 1.14249,0.1614 1.71632,0.50544 2.62416,0.34577 3.58038,-0.62972 0.39778,-0.4058 0.69701,-0.62937 0.66495,-0.49684 -0.12451,0.5149 0.32171,0.34688 0.52431,-0.19742 0.11789,-0.31671 0.3718,-0.77428 0.56424,-1.01681 0.29811,-0.37571 0.37698,-0.40182 0.53293,-0.17639 0.13958,0.20175 0.15779,0.15535 0.0767,-0.19544 -0.0601,-0.26 0.0142,-0.7487 0.17103,-1.12397 0.34294,-0.82076 0.34498,-0.98962 0.007,-0.54216 -0.52978,0.7005 -0.99357,-0.71433 -0.83891,-2.55914 0.0722,-0.8613 0.0428,-1.22374 -0.0994,-1.22374 -0.11108,0 -0.20197,0.20099 -0.20197,0.44664 0,0.566 -0.45469,1.67003 -0.68779,1.67003 -0.0971,0 -0.25849,-0.13891 -0.35855,-0.30868 -0.14943,-0.25354 -0.21049,-0.26526 -0.34182,-0.0656 -0.18161,0.27609 -0.55212,0.11978 -0.55212,-0.23292 0,-0.24663 -0.66469,-0.49721 -0.91255,-0.34402 -0.0802,0.0495 -0.14578,0.2679 -0.14578,0.48522 0,0.29014 0.16121,0.45342 0.60669,0.61451 0.33368,0.12066 1.00837,0.58053 1.49931,1.02192 0.98472,0.88536 1.10049,1.32626 0.62522,2.38119 l -0.26739,0.59352 0.10744,-0.98312 0.10743,-0.98311 -0.89252,-0.80246 c -0.96084,-0.86387 -2.07831,-1.27393 -2.98014,-1.09356 -0.38,0.076 -0.54812,0.0284 -0.6272,-0.17772 -0.0594,-0.15486 -0.20976,-0.28479 -0.33407,-0.28873 -0.12431,-0.004 -0.50084,-0.24207 -0.83672,-0.52916 -0.33588,-0.2871 -0.69181,-0.522 -0.79095,-0.522 -0.0991,0 -0.57839,-0.19443 -1.065,-0.43207 -0.48661,-0.23764 -1.24507,-0.52109 -1.68548,-0.6299 -0.56399,-0.13933 -0.90297,-0.35184 -1.14653,-0.71876 -0.19018,-0.28651 -0.64344,-0.65333 -1.00724,-0.81516 -0.45241,-0.20124 -0.66232,-0.40893 -0.66416,-0.65716 -0.002,-0.29895 -0.0328,-0.31628 -0.17369,-0.0983 -0.094,0.14552 -0.1722,0.78675 -0.17369,1.42497 -0.002,0.99971 -0.0783,1.27455 -0.54887,1.98494 -0.61212,0.92414 -1.29705,1.52898 -1.73143,1.52898 -0.15935,0 -0.45145,0.11326 -0.6491,0.2517 -0.19764,0.13844 -0.84853,0.4165 -1.44641,0.61791 -0.98048,0.3303 -1.26471,0.34986 -2.89899,0.19958 -0.99656,-0.0916 -2.08922,-0.25064 -2.42812,-0.35333 -0.33891,-0.10268 -1.01584,-0.1867 -1.50429,-0.1867 -0.6488,0 -1.22876,-0.16326 -2.15252,-0.60596 -1.35166,-0.64777 -1.76515,-1.12343 -2.64254,-3.0399 -0.48157,-1.0519 -0.7438,-2.70414 -0.42917,-2.70414 0.11053,0 0.20355,0.25797 0.20672,0.57327 0.008,0.82688 0.5248,2.18451 1.27257,3.34502 0.54986,0.85335 0.82502,1.08997 1.79486,1.5434 0.74066,0.34629 1.42466,0.53554 1.93559,0.53554 0.43459,0 1.29118,0.11454 1.90354,0.25454 2.21498,0.50638 4.80783,0.30371 5.96407,-0.46619 0.24254,-0.1615 0.64905,-0.34474 0.90336,-0.4072 0.25431,-0.0625 0.7598,-0.41815 1.12332,-0.79043 0.72288,-0.7403 0.95109,-1.49778 0.96425,-3.20065 0.007,-0.86117 0.0666,-1.03254 0.44865,-1.28288 0.3697,-0.24223 0.44098,-0.24763 0.44098,-0.0334 0,0.42835 2.94128,2.92757 3.4454,2.92757 0.24319,0 0.75651,0.19844 1.14071,0.44098 0.3842,0.24253 0.80827,0.44097 0.94238,0.44097 0.13411,0 0.54347,0.23812 0.9097,0.52917 0.36623,0.29104 0.80902,0.52916 0.98398,0.52916 0.17497,0 0.36717,0.0794 0.42713,0.17639 0.17247,0.27906 0.92137,0.20512 1.03946,-0.10262 0.18656,-0.48615 0.11621,-0.96328 -0.15751,-1.06831 -0.14552,-0.0558 -0.26459,-0.17242 -0.26459,-0.25905 0,-0.0866 0.11907,-0.15752 0.26459,-0.15752 0.30511,0 0.33143,-0.83708 0.0804,-2.55764 -0.0849,-0.58208 -0.31464,-2.45758 -0.51049,-4.16778 -0.19584,-1.71019 -0.44203,-3.3355 -0.54707,-3.61179 -0.10505,-0.27629 -0.59595,-1.1627 -1.0909,-1.96979 -0.56919,-0.92816 -1.16482,-2.25855 -1.62078,-3.62015 l -0.72089,-2.15271 -1.61485,-1.05908 c -0.88817,-0.5825 -2.10244,-1.49531 -2.69838,-2.02848 -1.05771,-0.94629 -3.13114,-2.11591 -3.75094,-2.11591 -0.37763,0 -3.40276,-0.94134 -4.68448,-1.45769 -0.85467,-0.34431 -1.01882,-0.35668 -2.01166,-0.15161 -0.59458,0.12281 -1.64424,0.26702 -2.33259,0.32047 -0.68835,0.0534 -2.04529,0.28582 -3.01543,0.51639 -0.97014,0.23056 -1.98472,0.41931 -2.25462,0.41943 -0.77355,3.6e-4 -1.58381,0.41744 -3.18622,1.64012 -1.25416,0.95694 -1.68353,1.17951 -2.732366,1.41637 -0.68441,0.15456 -1.787756,0.55466 -2.451879,0.8891 -0.664123,0.33445 -1.601103,0.66321 -2.082177,0.73057 -0.481074,0.0674 -1.179071,0.31842 -1.551103,0.5579 -0.372033,0.23949 -1.20547,0.6195 -1.852083,0.84448 -0.646614,0.22498 -2.009098,0.72623 -3.027744,1.1139 l -1.852084,0.70484 -0.881944,1.24784 c -0.579186,0.81947 -1.124151,1.37388 -1.5875,1.61501 -1.240563,0.64562 -1.446002,0.92027 -2.281661,3.05039 -0.958335,2.44283 -1.516587,4.4464 -1.951405,7.0036 -0.173207,1.01865 -0.431237,1.97115 -0.5734,2.11667 -0.2288,0.2342 -0.246915,0.22407 -0.15777,-0.0882 0.05539,-0.19403 0.186658,-0.9021 0.291708,-1.5735 0.105049,-0.6714 0.230849,-1.28521 0.279555,-1.36402 0.04871,-0.0788 0.03177,-0.44229 -0.03763,-0.80774 l -0.126191,-0.66446 -0.263867,0.61736 c -0.145127,0.33955 -0.246174,0.82406 -0.224549,1.0767 0.02163,0.25263 -0.124198,0.92456 -0.324053,1.49319 -0.199854,0.56862 -0.363372,1.22421 -0.363372,1.45686 0,0.37027 -0.06639,0.41327 -0.532514,0.34486 -0.315118,-0.0462 -0.611976,0.0176 -0.727154,0.15637 -0.107051,0.12898 -0.29406,0.23452 -0.415575,0.23452 -0.20218,0 -0.441423,0.73589 -0.441423,1.35777 0,0.19694 0.103133,0.17421 0.450952,-0.0994 0.248024,-0.1951 0.86318,-0.48861 1.367014,-0.65226 0.503834,-0.16364 1.082199,-0.44848 1.285255,-0.63296 0.203057,-0.18449 0.79837,-0.40607 1.322917,-0.49241 0.524547,-0.0863 1.337334,-0.32234 1.806193,-0.52443 0.468859,-0.20209 1.028916,-0.36744 1.24457,-0.36744 0.215655,0 0.883761,-0.16604 1.484682,-0.36897 0.828561,-0.27981 1.092583,-0.45031 1.092583,-0.70556 0,-0.36051 0.280888,-0.46406 0.387909,-0.143 0.0366,0.1098 0.520106,-0.10815 1.117129,-0.50358 1.438923,-0.95304 2.004473,-1.22694 2.822585,-1.36702 0.384703,-0.0659 1.098332,-0.26332 1.585842,-0.43878 0.722995,-0.26021 1.169231,-0.29702 2.420867,-0.1997 0.901921,0.0701 1.627225,0.21608 1.759452,0.35405 0.185791,0.19385 0.132817,0.21742 -0.304201,0.13537 -1.72721,-0.3243 -2.836718,-0.3153 -3.792361,0.0308 -0.533576,0.19322 -1.287639,0.40546 -1.675694,0.47165 -0.827949,0.14122 -3.171709,1.54922 -3.556565,2.13659 -0.242418,0.36997 -0.231943,0.49993 0.115158,1.42863 0.590301,1.5794 1.411107,3.01196 2.044276,3.56788 0.690273,0.60607 1.827369,0.88515 4.131158,1.0139 1.453455,0.0812 1.814874,0.0409 2.725106,-0.30387 1.735474,-0.65742 3.610706,-2.7883 4.144128,-4.70911 0.23867,-0.85941 0.23932,-2.46234 0.001,-2.60959 -0.10189,-0.063 -0.558293,-0.17433 -1.014231,-0.24745 -0.628975,-0.10088 -0.750907,-0.16681 -0.505386,-0.27329 0.181502,-0.0787 0.743039,-0.0397 1.278817,0.0888 0.9017,0.21632 0.95506,0.2597 0.95217,0.77425 -0.007,1.18165 -0.52564,2.95219 -1.20773,4.12008 -1.812376,3.10322 -4.294948,4.08466 -8.3631,3.3062 -1.472357,-0.28174 -2.162161,-0.56736 -2.623803,-1.08639 -0.503721,-0.56635 -1.302154,-2.04349 -1.821269,-3.36945 -0.275364,-0.70335 -0.56233,-1.27882 -0.637701,-1.27882 -0.07537,0 -0.348714,0.0805 -0.607428,0.17884 -0.258715,0.0984 -0.958413,0.28721 -1.554886,0.41965 -0.596473,0.13245 -1.53892,0.40916 -2.094326,0.61491 -0.555406,0.20576 -1.235087,0.3741 -1.510402,0.3741 -0.327101,0 -0.678118,0.18532 -1.012902,0.53476 -0.38873,0.40574 -0.6201,0.51227 -0.959042,0.44154 -0.622655,-0.12993 -1.745175,0.55671 -2.148142,1.314 -0.452154,0.84973 -0.409786,1.53667 0.139167,2.25638 0.451459,0.5919 0.494711,0.60775 1.367014,0.50117 0.495442,-0.0605 1.079397,-0.15877 1.297678,-0.21828 0.219732,-0.0599 0.396875,-0.0292 0.396875,0.0687 0,0.18612 -0.621314,0.3511 -1.934927,0.5138 -0.728774,0.0903 -0.825032,0.0538 -1.272771,-0.48256 -0.524259,-0.62797 -0.512314,-0.63755 -0.850307,0.68184 -0.107177,0.41838 -0.23865,0.87478 -0.292163,1.01424 -0.05837,0.1521 0.01023,0.25355 0.171459,0.25355 0.147816,0 0.304191,-0.0992 0.347501,-0.22049 0.158646,-0.44421 0.292911,-0.005 0.151783,0.49675 -0.160186,0.56927 0.197896,4.0397 0.371895,3.60429 0.295316,-0.73898 0.480198,-1.62634 0.588013,-2.82222 0.136874,-1.51822 0.284695,-1.90654 0.436448,-1.14653 l 0.105659,0.52917 0.192411,-0.44097 c 0.105826,-0.24254 0.234971,-0.57703 0.286991,-0.74333 0.08553,-0.27341 0.141771,-0.27772 0.587614,-0.0451 0.34408,0.17956 0.753201,0.22314 1.354185,0.14425 0.671111,-0.0881 0.844023,-0.0617 0.783537,0.1198 -0.05597,0.16792 -0.406735,0.22091 -1.258026,0.19005 -1.235249,-0.0448 -1.265504,-0.0241 -1.224643,0.8383 0.01896,0.40022 -0.456793,3.16883 -0.913638,5.31683 -0.237283,1.11566 -0.482152,2.38566 -0.544153,2.82222 -0.062,0.43656 -0.274539,1.5875 -0.472307,2.55764 -0.831883,4.08077 -0.920594,6.67826 -0.331328,9.70139 0.976464,5.00957 1.218804,5.93079 1.832862,6.96736 0.201146,0.33955 1.591944,1.90747 3.090662,3.48427 2.346989,2.46927 2.89594,2.95246 3.957792,3.48368 0.678067,0.33923 1.444058,0.61677 1.702201,0.61677 0.904409,0 3.942674,0.73897 5.629712,1.36926 1.68459,0.62937 1.735933,0.63676 4.789649,0.68966 1.697743,0.0294 3.801176,0.1648 4.674306,0.30087 1.93876,0.30213 3.88224,0.34211 5.29167,0.10884 z m -6.00335,-2.28367 c -0.1974,-0.08 -0.46508,-0.27344 -0.59486,-0.42981 -0.12978,-0.15637 -0.444524,-0.2868 -0.699433,-0.28983 -0.423244,-0.005 -0.883144,-0.20294 -2.664305,-1.1465 -0.337333,-0.1787 -1.02818,-0.35931 -1.535217,-0.40136 -0.955314,-0.0792 -1.328361,-0.33209 -1.546639,-1.04836 -0.179836,-0.59013 0.178172,-0.48049 0.431995,0.13229 0.184711,0.44593 0.316645,0.52917 0.838782,0.52917 0.849054,0 1.965687,0.3371 2.600801,0.78516 0.718204,0.50667 1.431274,0.80234 1.935044,0.80234 0.230522,0 0.658922,0.20176 0.951982,0.44835 0.47898,0.40304 0.62744,0.43586 1.46874,0.32474 0.51474,-0.068 1.19132,-0.23006 1.5035,-0.36016 0.31218,-0.1301 0.76692,-0.23654 1.01053,-0.23654 0.93282,0 2.82625,-0.7635 3.5773,-1.4425 0.4586,-0.4146 0.92103,-0.67417 1.20104,-0.67417 0.25863,0 0.40823,0.0762 0.34631,0.17639 -0.06,0.097 -0.24751,0.17639 -0.41678,0.17639 -0.16927,0 -0.57228,0.2729 -0.89556,0.60645 -0.6025,0.62162 -2.81288,1.51021 -3.75667,1.51021 -0.24429,0 -0.71182,0.10882 -1.03896,0.24182 -0.78139,0.31768 -2.26533,0.47926 -2.7176,0.29592 z m 1.06446,-17.03647 c -0.29104,-0.13326 -0.98558,-0.24588 -1.54341,-0.25025 -0.557825,-0.004 -1.014231,-0.0873 -1.014231,-0.18435 0,-0.40244 2.938091,0.0453 3.412901,0.52012 0.26254,0.26254 -0.19506,0.21679 -0.85526,-0.0855 z m 5.11043,-0.48405 c -0.19137,-0.12421 -1.02262,-0.48725 -1.84724,-0.80676 -0.82462,-0.3195 -1.88692,-0.73381 -2.36067,-0.92068 -0.47376,-0.18688 -1.08504,-0.33977 -1.35841,-0.33977 -0.45422,0 -0.88289,-0.10182 -3.361507,-0.7984 -0.45033,-0.12656 -1.154778,-0.4735 -1.565438,-0.77098 -0.41066,-0.29748 -0.816114,-0.49795 -0.901009,-0.44548 -0.08489,0.0525 -0.154353,0.0113 -0.154353,-0.0914 0,-0.35634 0.660478,-0.18407 1.327932,0.34635 0.368987,0.29324 0.875995,0.58093 1.126685,0.63931 0.25069,0.0584 1.119523,0.29472 1.93074,0.52519 0.81122,0.23046 1.70526,0.41902 1.98677,0.41902 0.2815,0 0.64966,0.0754 0.81811,0.16747 0.16846,0.0921 1.06035,0.44494 1.98199,0.78405 2.61356,0.96166 2.80712,1.04777 2.90016,1.29023 0.11102,0.28931 -0.0799,0.28998 -0.52376,0.002 z m -10.631405,-9.33444 c -0.116416,-0.11641 -0.211666,-0.39423 -0.211666,-0.61736 0,-0.44485 -0.0784,-0.46034 -1.217427,-0.2404 -0.69819,0.13481 -0.820926,0.10545 -1.217671,-0.2913 -0.24267,-0.24267 -0.765951,-0.53524 -1.162848,-0.65015 -0.444971,-0.12883 -0.744837,-0.32944 -0.782164,-0.52326 -0.05329,-0.27672 0.03266,-0.30036 0.718256,-0.19755 0.705866,0.10585 0.806796,0.074 1.077861,-0.33965 0.332353,-0.50723 1.098892,-0.61579 1.69953,-0.24069 0.299015,0.18674 0.424352,0.1393 0.932045,-0.35277 0.70773,-0.68596 1.217878,-0.72115 1.693267,-0.11679 0.342995,0.43605 0.370943,0.44153 0.804209,0.15764 0.304961,-0.19982 0.689951,-0.2698 1.200863,-0.21829 0.68195,0.0687 0.80499,0.0171 1.32102,-0.55451 l 0.56903,-0.63033 0.31292,0.38789 c 0.21775,0.26993 0.59574,0.42452 1.24291,0.50832 0.51151,0.0662 0.97457,0.19253 1.02903,0.28065 0.0545,0.0881 0.55657,0.10846 1.1161,0.0452 0.85951,-0.0972 1.03482,-0.0688 1.1316,0.18335 0.0868,0.22629 0.23897,0.27108 0.62945,0.18532 1.00219,-0.22012 1.89376,-0.12967 2.67161,0.27103 0.44686,0.23019 1.038,0.38722 1.37819,0.36608 0.32763,-0.0204 0.72465,0.0797 0.88227,0.22233 0.15761,0.14264 0.51048,0.34447 0.78415,0.44852 0.5414,0.20584 0.58587,0.64041 0.097,0.94822 -0.21136,0.13309 -0.4871,0.0814 -1.04957,-0.19694 -0.67568,-0.3343 -0.79574,-0.34773 -1.05013,-0.11751 -0.39223,0.35496 -0.9374,0.32618 -1.75875,-0.0928 -0.91166,-0.46509 -1.20679,-0.44555 -1.79601,0.11896 -0.53482,0.51239 -0.71103,0.52944 -2.93029,0.2835 -0.78172,-0.0866 -1.34669,-0.23965 -1.43954,-0.38989 -0.12013,-0.19436 -0.28335,-0.10891 -0.76259,0.39924 -0.75493,0.80046 -1.24485,0.82482 -2.3604,0.11736 -0.458923,-0.29104 -0.908079,-0.52917 -0.998122,-0.52917 -0.09004,0 -0.478124,0.35719 -0.862402,0.79375 -0.709409,0.80593 -1.273743,1.0001 -1.691761,0.58208 z m 5.046005,-8.25629 c -0.85092,-0.7014 -1.02463,-1.52386 -0.80535,-3.81316 0.17469,-1.82383 0.83728,-4.8564 1.37297,-6.28381 0.35028,-0.93339 0.29581,-1.01572 -0.30107,-0.45498 -0.22416,0.21058 -0.4674,0.3212 -0.54054,0.24582 -0.0731,-0.0754 0.27274,-0.50564 0.76864,-0.95614 0.49589,-0.45049 1.03474,-1.10413 1.19743,-1.45253 0.37153,-0.79561 1.51692,-1.94922 1.51692,-1.52782 0,0.15906 -0.14793,0.39291 -0.32872,0.51968 -0.31055,0.21775 -1.08031,1.33832 -1.08174,1.57472 -3.6e-4,0.0602 0.63434,0.16491 1.41046,0.23261 0.77611,0.0677 1.41111,0.19748 1.41111,0.28839 0,0.0989 -0.60189,0.11903 -1.49757,0.0502 l -1.49756,-0.11511 -0.4532,1.02476 c -0.9581,2.16644 -1.78351,6.53174 -1.68376,8.90479 0.0328,0.78091 0.4809,1.41169 1.28829,1.81357 0.58016,0.28878 0.69365,0.29257 1.39973,0.0467 0.4226,-0.14718 0.94867,-0.26876 1.16903,-0.27017 0.57651,-0.004 1.7414,-0.82921 1.95065,-1.38236 0.28528,-0.75413 0.41127,-2.29422 0.21733,-2.65659 -0.3092,-0.57775 -0.71534,-0.58377 -1.56173,-0.0232 -0.80106,0.5306 -1.44788,0.68936 -1.44788,0.35537 0,-0.097 0.11379,-0.17639 0.25286,-0.17639 0.13908,0 0.64121,-0.24141 1.11585,-0.53646 1.01335,-0.62994 1.61226,-0.53421 1.96353,0.31385 0.25535,0.61647 -0.0133,2.66124 -0.43409,3.30338 -0.48015,0.7328 -2.58181,1.50534 -4.09521,1.50534 -0.47659,0 -0.84366,-0.14905 -1.30638,-0.53046 z m -22.499685,-3.2126 c -0.218281,-0.10527 -0.396875,-0.25865 -0.396875,-0.34084 0,-0.18905 0.054,-0.18723 0.599634,0.0202 0.560341,0.21304 0.683716,0.0225 0.439332,-0.67856 -0.142698,-0.40934 -0.299566,-0.54943 -0.615249,-0.54943 -0.233044,0 -0.423717,-0.0844 -0.423717,-0.18756 0,-0.10536 0.251256,-0.16334 0.573264,-0.13229 0.503555,0.0486 0.602272,0.14694 0.811819,0.80918 0.18881,0.59669 0.193502,0.80819 0.0225,1.01423 -0.250136,0.3014 -0.459802,0.31074 -1.010707,0.0451 z m 13.361724,-1.56622 c -0.902519,-0.17669 -1.559656,-0.60552 -1.931354,-1.26034 -0.227122,-0.40012 -0.220251,-0.53491 0.06206,-1.21758 0.559416,-1.35274 0.480226,-1.29683 1.836569,-1.29683 1.182861,0 1.280619,0.0316 1.872771,0.60575 0.34362,0.33317 0.756474,0.95063 0.917453,1.37215 0.287419,0.7526 0.285312,0.77425 -0.117011,1.2025 -0.33973,0.36163 -1.427983,0.83685 -1.758814,0.76804 -0.04851,-0.0101 -0.445263,-0.0883 -0.881679,-0.17369 z m 1.855613,-0.43698 c 0.748991,-0.35542 0.860368,-0.66662 0.505912,-1.41358 -0.3273,-0.68974 -0.367216,-0.70509 -0.804499,-0.30935 -0.302638,0.27388 -0.32257,0.26934 -0.32257,-0.0735 0,-0.20098 0.09922,-0.40662 0.220486,-0.45698 0.151303,-0.0628 0.08982,-0.20581 -0.195929,-0.45567 -0.588837,-0.51488 -2.220545,-0.52229 -2.494001,-0.0113 -0.103841,0.19403 -0.144491,0.35278 -0.09033,0.35278 0.05416,0 -0.02901,0.19455 -0.184811,0.43234 -0.661531,1.00962 0.520384,2.02999 2.541543,2.19417 0.130859,0.0106 0.501751,-0.10587 0.824203,-0.25888 z m 20.986478,-0.93876 c -0.85935,-0.38835 -2.38125,-1.97978 -2.38125,-2.49006 0,-0.2039 0.0794,-0.32168 0.17639,-0.26173 0.097,0.06 0.17639,0.19019 0.17639,0.28941 0,0.35217 1.25946,1.71061 1.84247,1.98726 1.06091,0.50344 2.58887,0.26259 3.52546,-0.55571 0.51717,-0.45185 0.56807,-0.89841 0.1865,-1.63629 -0.36832,-0.71224 -1.14471,-1.13563 -1.14471,-0.62424 0,0.38818 -0.34027,0.51281 -0.47087,0.17247 -0.0717,-0.18672 1.4e-4,-0.38591 0.18882,-0.52387 0.27372,-0.20016 0.2497,-0.23463 -0.23815,-0.34178 -0.29842,-0.0655 -0.99266,-0.12321 -1.54276,-0.12816 -1.02819,-0.009 -1.17405,0.0766 -1.75281,1.03132 -0.10989,0.18128 -0.26797,0.26411 -0.35131,0.18407 -0.0833,-0.08 -0.0133,-0.22288 0.15571,-0.31744 0.16896,-0.0946 0.30721,-0.32394 0.30721,-0.50973 0,-0.55749 0.63377,-0.75101 2.19172,-0.66923 1.80372,0.0947 2.42305,0.42938 2.91637,1.57612 0.19798,0.46022 0.35996,0.99242 0.35996,1.18266 0,0.47543 -1.08856,1.39052 -1.89386,1.59206 -1.40582,0.35183 -1.56103,0.35479 -2.25128,0.0429 z m 6.11768,-5.9111 c -1.15608,-1.17721 -2.88845,-1.72663 -3.99128,-1.26584 -0.7961,0.33263 -1.32029,0.35073 -2.23356,0.0771 -0.87184,-0.2612 -2.96784,0.1602 -5.05428,1.01617 -1.40331,0.57572 -2.65293,0.79306 -2.42328,0.42147 0.06,-0.097 0.30786,-0.17639 0.55088,-0.17639 0.24303,0 0.8587,-0.19066 1.36816,-0.4237 1.06579,-0.4875 1.79627,-0.70782 3.61291,-1.08967 1.08345,-0.22774 1.44114,-0.23644 2.15878,-0.0525 0.73677,0.18883 0.99552,0.17779 1.80369,-0.077 1.15273,-0.36336 1.53296,-0.37098 2.17705,-0.0436 0.27465,0.1396 0.74488,0.34251 1.04495,0.45091 0.62426,0.22552 2.39863,1.94181 2.00542,1.93979 -0.14187,-7.3e-4 -0.60062,-0.35026 -1.01944,-0.77674 z m -23.525054,0.48118 c 0.12733,-0.051 0.279466,-0.0447 0.338078,0.0139 0.05861,0.0586 -0.04557,0.1003 -0.23151,0.0926 -0.205483,-0.008 -0.24728,-0.0503 -0.106568,-0.10657 z m -0.772319,-2.30755 c -0.103416,-0.0713 -0.452668,-0.52647 -0.776115,-1.01154 -0.865433,-1.29788 -1.221819,-1.64299 -1.928112,-1.86713 -0.349536,-0.11093 -1.010267,-0.43754 -1.468291,-0.72581 -0.962802,-0.60596 -1.309001,-0.58101 -2.915267,0.21009 -1.209707,0.59579 -2.996085,1.00095 -3.258089,0.73895 -0.305586,-0.30559 0.0092,-0.52947 1.05601,-0.75107 0.556175,-0.11774 1.447791,-0.44541 1.981367,-0.72816 0.533576,-0.28275 1.34351,-0.55962 1.799854,-0.61527 0.723245,-0.0882 0.940253,-0.0302 1.691136,0.4516 0.473782,0.30403 0.91487,0.55278 0.980194,0.55278 0.06532,0 0.470669,0.16541 0.900766,0.36758 0.579236,0.27227 0.956049,0.63775 1.453286,1.40956 0.396832,0.61597 0.797496,1.04262 0.979972,1.04353 0.316732,0.002 0.390708,0.2881 0.201614,0.78087 -0.11432,0.29791 -0.391951,0.35517 -0.698325,0.14402 z m 11.096093,-0.66824 c -0.15471,-0.40317 0.47035,-1.66033 0.98951,-1.99018 0.24731,-0.15713 1.06026,-0.81876 1.80656,-1.47028 1.57288,-1.37313 1.92993,-1.4831 4.27097,-1.31551 2.37113,0.16976 3.70329,0.47988 3.77961,0.87988 0.07,0.36685 0.10957,0.36765 -3.23604,-0.0658 -0.97132,-0.12584 -2.05839,-0.17395 -2.41569,-0.10692 -0.90934,0.17059 -4.28857,3.08224 -4.43668,3.82278 -0.11194,0.55971 -0.57963,0.71144 -0.75824,0.246 z m -5.52813,-6.63731 c -1.5e-4,-0.25028 0.78468,-0.35319 1.83539,-0.24067 1.38424,0.14824 3.07875,-0.19515 5.10789,-1.03511 0.84989,-0.35181 1.82896,-0.63229 2.20715,-0.63229 0.73618,0 1.60922,0.54178 1.60922,0.99862 0,0.19803 -0.14088,0.14891 -0.5427,-0.18919 -0.73302,-0.6168 -1.42862,-0.58654 -3.2035,0.13934 -0.8015,0.32779 -1.77477,0.69772 -2.16283,0.82206 -0.7316,0.23441 -4.8505,0.35095 -4.85062,0.13724 z m 6.34993,-4.38525 c -0.43656,-0.077 -1.72641,-0.19802 -2.86632,-0.26897 -1.13991,-0.0709 -2.07257,-0.18982 -2.07257,-0.26415 0,-0.19383 4.19548,-0.021 4.58785,0.18901 0.18031,0.0965 0.65056,0.17546 1.045,0.17546 0.39443,0 0.71715,0.0794 0.71715,0.17639 0,0.1973 -0.2563,0.1959 -1.41111,-0.008 z m 19.73797,50.32266 c 0.01,-0.12126 -0.0618,-0.22048 -0.15881,-0.22048 -0.097,0 -0.16847,0.29765 -0.1588,0.66146 0.0157,0.59032 0.0328,0.61403 0.1588,0.22048 0.0777,-0.24253 0.14914,-0.54019 0.15881,-0.66146 z m 3.80428,-3.83645 c 0.34891,-2.65553 0.3679,-6.36298 0.0332,-6.4914 -0.14866,-0.0571 -0.29727,-0.48939 -0.37097,-1.07932 -0.16573,-1.32648 -0.53619,-1.31262 -0.80411,0.0301 -0.11131,0.55783 -0.27718,1.30607 -0.3686,1.66276 -0.13033,0.50849 -0.0988,0.79414 0.14578,1.32292 0.17159,0.37091 0.43105,0.76724 0.57657,0.88072 0.30708,0.23947 0.3968,3.32393 0.18386,6.32006 -0.15107,2.12544 0.0233,2.69967 0.21418,0.70556 0.0743,-0.77612 0.24983,-2.28424 0.39005,-3.35139 z m -4.48859,0.81984 c -0.0696,-0.13175 -0.17759,0.25483 -0.24124,0.86372 -0.15266,1.46066 -0.14581,2.54827 0.0171,2.71269 0.17301,0.17463 0.3886,-3.26522 0.22415,-3.57641 z m -56.274417,2.48745 c 0.0032,-0.67252 -0.184146,-0.73832 -0.452539,-0.15896 -0.238517,0.51487 0.01949,1.41276 0.285208,0.99256 0.09055,-0.14319 0.165845,-0.51831 0.167331,-0.8336 z m 57.837387,-0.53958 c 0.0296,-0.82886 -0.28839,-0.53252 -0.42806,0.39887 -0.13842,0.92302 0.11284,1.53731 0.29203,0.71397 0.0633,-0.29104 0.12455,-0.79182 0.13603,-1.11284 z m -56.861094,-0.87106 c -0.0592,-0.31556 -0.175419,-0.57374 -0.258268,-0.57374 -0.276941,0 -0.285387,1.59484 -0.01197,2.2607 l 0.266788,0.64972 0.05554,-0.88147 c 0.03055,-0.48481 0.0071,-1.13966 -0.05209,-1.45521 z m 0.649185,0.62571 c -0.164629,-0.16463 -0.211666,-0.1176 -0.211666,0.21166 0,0.32926 0.04704,0.3763 0.211666,0.21167 0.16463,-0.16463 0.16463,-0.2587 0,-0.42333 z m 57.739889,-2.22057 c -0.22713,-0.22714 -0.26461,0.16738 -0.14032,1.47701 l 0.13251,1.3962 0.0519,-1.38861 c 0.0285,-0.76373 0.009,-1.4318 -0.0441,-1.4846 z m -55.467414,-0.11042 c -0.282803,-1.43096 -0.547022,-2.63458 -0.587155,-2.67471 -0.194048,-0.19405 -0.787942,3.24829 -0.685223,3.97169 0.10139,0.71405 0.16538,0.7966 0.728514,0.93985 0.339549,0.0864 0.691445,0.22889 0.781991,0.31669 0.09055,0.0878 0.189701,0.13457 0.220344,0.10393 0.03064,-0.0306 -0.175669,-1.2265 -0.458471,-2.65745 z m -3.025705,0.2937 c -0.0068,-0.16978 -0.08061,-0.46743 -0.163992,-0.66146 -0.121606,-0.283 -0.154046,-0.22193 -0.163991,0.30868 -0.0068,0.3638 0.06698,0.66146 0.163991,0.66146 0.09701,0 0.17081,-0.13891 0.163992,-0.30868 z m 59.085089,-1.95069 c 0.0112,-0.81871 -0.0468,-1.24944 -0.1588,-1.18022 -0.0991,0.0612 -0.16869,0.81958 -0.15881,1.7302 0.0209,1.92622 0.2902,1.45987 0.31761,-0.54998 z m -60.305473,-0.0778 c 0.0011,-0.50932 0.05109,-1.24354 0.111167,-1.63159 0.0835,-0.5394 0.06,-0.65966 -0.09981,-0.51067 -0.247859,0.23107 -0.584379,2.40105 -0.433379,2.79455 0.215271,0.56099 0.420146,0.24433 0.422025,-0.65229 z m 3.033724,-1.70654 c -0.02198,-1.01136 -0.07899,-1.87787 -0.126699,-1.92558 -0.337766,-0.33776 -0.508172,1.05994 -0.354354,2.9065 0.104765,1.25769 0.164526,1.47849 0.324702,1.19965 0.117744,-0.20497 0.180316,-1.07765 0.156351,-2.18057 z m 56.622099,0.7618 c 0.0938,-1.13122 -0.007,-1.87366 -0.23488,-1.73272 -0.20297,0.12544 -0.20457,2.72156 -0.002,2.72156 0.085,0 0.19145,-0.44498 0.23655,-0.98884 z m -58.260511,-3.50908 c -0.0079,-0.49112 -0.01993,-0.50075 -0.167417,-0.13394 -0.0874,0.21738 -0.202718,0.81269 -0.256256,1.32292 l -0.09734,0.92769 0.264759,-0.79375 c 0.145616,-0.43656 0.260931,-1.03187 0.256255,-1.32292 z m 0.880704,0.26459 c 0.0086,-0.23519 -0.0093,-0.23519 -0.16129,0 -0.09404,0.14552 -0.166624,0.42333 -0.161291,0.61736 l 0.0097,0.35278 0.151594,-0.35278 c 0.08338,-0.19403 0.155957,-0.47184 0.16129,-0.61736 z m -2.863019,0.3197 c -0.05631,-0.14071 -0.0981,-0.0989 -0.106568,0.10657 -0.0077,0.18594 0.03403,0.29012 0.09264,0.23151 0.05861,-0.0586 0.06488,-0.21075 0.01393,-0.33808 z M 70.71407,167.0934 c -0.04893,-0.12127 -0.08897,-0.0221 -0.08897,0.22048 0,0.24254 0.04004,0.34176 0.08897,0.22049 0.04893,-0.12127 0.04893,-0.31971 0,-0.44097 z m 2.172824,-1.96752 c 0.376958,-1.86223 0.387559,-2.78206 0.01564,-1.35695 -0.455379,1.74491 -0.528724,2.09924 -0.624253,3.01579 -0.148317,1.42301 0.148588,0.61376 0.608614,-1.65884 z m 1.590913,1.10885 c 0,-0.42546 -0.07003,-0.66228 -0.176389,-0.59654 -0.09701,0.06 -0.176389,0.42651 -0.176389,0.81457 0,0.42545 0.07003,0.66227 0.176389,0.59654 0.09701,-0.06 0.176389,-0.42652 0.176389,-0.81457 z m -0.729126,-0.94932 c -0.01465,-0.85316 -0.04427,-0.95575 -0.152818,-0.52917 -0.207932,0.81716 -0.207932,2.17384 0,1.85209 0.09404,-0.14552 0.162811,-0.74084 0.152818,-1.32292 z m 58.916279,-0.74965 c -0.0202,-1.306 -0.0291,-1.33416 -0.19858,-0.63099 -0.15889,0.65924 -0.0654,1.998 0.13956,1.998 0.0441,0 0.0707,-0.61516 0.059,-1.36701 z m 0.60141,-0.22066 c -0.12692,-0.48535 -0.22745,-0.44169 -0.22745,0.0988 0,0.24826 0.0719,0.40693 0.15983,0.3526 0.0879,-0.0543 0.11833,-0.25745 0.0676,-0.45138 z m 2.88699,-1.87671 c -0.0481,-0.30467 -0.0304,-0.82061 0.0393,-1.14652 0.0697,-0.32592 0.0771,-0.8307 0.0165,-1.12174 -0.1088,-0.52284 -0.11266,-0.51968 -0.32329,0.26459 -0.11724,0.43656 -0.30322,0.99218 -0.41329,1.23472 -0.24727,0.54488 -0.18626,1.10065 0.14135,1.28758 0.13596,0.0776 0.25224,0.31571 0.25839,0.52917 0.0106,0.36833 0.0203,0.36564 0.1898,-0.0529 0.0982,-0.24254 0.1393,-0.69026 0.0912,-0.99494 z m -60.082956,-0.79791 c 0.12136,-0.5495 0.15872,-1.14482 0.08302,-1.32292 -0.102575,-0.24134 -0.196755,-0.0542 -0.369762,0.73452 -0.271866,1.23948 -0.318904,2.26011 -0.08536,1.85208 0.08329,-0.14552 0.250736,-0.71418 0.372095,-1.26368 z m 58.267306,0.20535 c 0.13029,0 0.32889,-0.69642 0.51896,-1.81981 0.27978,-1.65369 0.28311,-1.8791 0.0365,-2.46944 -0.30187,-0.72249 -0.79045,-0.87582 -0.80538,-0.25277 -0.005,0.21828 -0.0773,1.03188 -0.16006,1.80799 -0.13808,1.29419 -0.0455,3.46754 0.12576,2.95364 0.0403,-0.12079 0.16819,-0.21961 0.28427,-0.21961 z m -60.783813,-0.39688 c 0.09769,-0.12127 0.232778,-0.47845 0.300196,-0.79375 0.09762,-0.45653 0.06585,-0.57326 -0.156021,-0.57326 -0.153229,0 -0.280492,0.0595 -0.282806,0.13229 -0.0023,0.0728 -0.07333,0.42995 -0.157814,0.79375 -0.154712,0.66622 -0.03203,0.84872 0.296445,0.44097 z m 2.234387,-2.24896 c 0.08198,-0.56347 0.06402,-0.71207 -0.06191,-0.51221 -0.09756,0.15485 -0.224995,0.6311 -0.283182,1.05834 -0.07123,0.52298 -0.051,0.69034 0.06191,0.51221 0.09224,-0.14552 0.219669,-0.62177 0.283182,-1.05834 z m -0.289052,-1.05719 c 0.31353,-1.00359 0.364949,-1.47527 0.275798,-2.52993 -0.108539,-1.28401 -0.113528,-1.29452 -0.523857,-1.10357 -0.544102,0.25319 -0.577633,0.36559 -0.709543,2.37845 -0.107227,1.63619 0.04239,2.48863 0.436795,2.48863 0.07448,0 0.308849,-0.55511 0.520807,-1.23358 z m 60.567648,0.34642 c 0.0324,-0.14838 -0.0205,-0.28976 -0.11755,-0.31416 -0.097,-0.0244 -0.20234,0.17638 -0.23406,0.44619 -0.0599,0.50943 0.23594,0.39835 0.35161,-0.13203 z m -3.73622,-1.44999 c -0.002,-0.30986 -0.0382,-0.34071 -0.16475,-0.14071 -0.0891,0.14088 -0.12291,0.31948 -0.0751,0.39687 0.15299,0.24755 0.24261,0.15183 0.23983,-0.25616 z m 3.24291,-0.35278 c 0.0585,-0.21828 0.10492,-0.47625 0.10316,-0.57326 -0.005,-0.26245 -0.52115,0.47007 -0.52115,0.73927 0,0.381 0.30373,0.26038 0.41799,-0.16601 z m 0.10101,-1.80798 c 0.001,-0.097 -0.14845,0.0198 -0.33273,0.25965 -0.18429,0.23982 -0.29027,0.50851 -0.23553,0.59709 0.10115,0.16366 0.564,-0.53417 0.56826,-0.85674 z m -58.129423,-0.35278 c 0.08644,-0.38646 0.07008,-0.45781 -0.06068,-0.26459 -0.09847,0.14553 -0.180261,0.41672 -0.181747,0.60267 -0.0036,0.45128 0.09735,0.31049 0.242427,-0.33808 z m -2.12478,-1.00654 c 0.116728,-0.44636 0.04444,-0.57852 -0.225279,-0.41183 -0.226373,0.13991 -0.253038,0.80101 -0.03231,0.80101 0.0857,0 0.201613,-0.17513 0.257587,-0.38918 z m 0.388751,-4.47598 c 0.101894,-0.62264 0.134408,-1.13207 0.07225,-1.13207 -0.174483,0 -0.521629,1.2951 -0.521629,1.94605 0,0.89012 0.242333,0.45118 0.449377,-0.81398 z m 61.252782,-2.16001 c 0.0631,-0.85665 -0.22312,-0.99401 -0.38497,-0.18473 -0.16371,0.81852 -0.13535,1.07394 0.11024,0.99318 0.12127,-0.0399 0.24489,-0.40368 0.27473,-0.80845 z m -2.67275,-2.94841 c 0.14284,-0.37224 -0.0956,-0.57321 -0.2988,-0.25187 -0.21594,0.34145 -0.21161,0.52406 0.0124,0.52406 0.10005,0 0.22892,-0.12249 0.28637,-0.27219 z m -0.90609,-1.49522 c -0.0521,-0.90483 -0.16901,-1.36244 -0.43412,-1.69948 -0.22407,-0.28486 -0.36814,-0.73882 -0.37674,-1.18711 -0.008,-0.39922 -0.0594,-0.6103 -0.115,-0.46906 -0.19333,0.49121 0.32683,4.13795 0.62381,4.37341 0.15295,0.12126 0.29954,0.22048 0.32573,0.22048 0.0262,0 0.0155,-0.55721 -0.0237,-1.23824 z m 0.96696,0.19032 c 0,-0.1883 -0.0794,-0.39143 -0.17639,-0.45138 -0.10004,-0.0618 -0.17639,0.0864 -0.17639,0.34236 0,0.24826 0.0794,0.45139 0.17639,0.45139 0.097,0 0.17639,-0.15407 0.17639,-0.34237 z m -0.88195,-2.92083 c 0,-0.24253 -0.0794,-0.44097 -0.17639,-0.44097 -0.097,0 -0.17638,0.19844 -0.17638,0.44097 0,0.24254 0.0794,0.44097 0.17638,0.44097 0.097,0 0.17639,-0.19843 0.17639,-0.44097 z M 79.9343,137.85694 c 0.226758,-1.40315 0.230427,-1.5875 0.03159,-1.5875 -0.086,0 -0.207185,0.37703 -0.269304,0.83785 -0.06212,0.46081 -0.158676,1.15534 -0.214571,1.5434 -0.07028,0.48796 -0.04479,0.65116 0.08269,0.52917 0.101372,-0.097 0.267691,-0.69233 0.369599,-1.32292 z m 54.6104,0.41348 c -0.0646,-0.34426 -0.15987,-0.58347 -0.21175,-0.53159 -0.0519,0.0519 -0.035,0.43703 0.0374,0.85588 0.0725,0.41884 0.16776,0.65806 0.21176,0.53158 0.044,-0.12647 0.0272,-0.51161 -0.0374,-0.85587 z m 0.15731,-1.7238 c -0.0649,-0.2585 -0.15198,-0.43598 -0.19356,-0.3944 -0.0416,0.0416 -0.0225,0.28709 0.0424,0.54559 0.0649,0.2585 0.15198,0.43598 0.19356,0.39441 0.0416,-0.0416 0.0225,-0.2871 -0.0424,-0.5456 z m -31.29643,-19.95164 c 0.24254,-0.12605 0.78848,-0.58626 1.21321,-1.02267 l 0.77223,-0.79349 -0.89204,-0.45203 c -0.49062,-0.24862 -0.94203,-0.53292 -1.00313,-0.63177 -0.21601,-0.34953 -0.91279,-0.17288 -1.42428,0.36108 -0.53944,0.56314 -0.65449,1.36243 -0.36318,2.5231 0.11145,0.44405 0.17484,0.4778 0.68948,0.367 0.31171,-0.0671 0.76518,-0.22516 1.00771,-0.35122 z m 2.37372,-1.12724 c 0.17673,-0.28596 -0.20731,-0.37286 -0.43505,-0.0984 -0.17723,0.21355 -0.16643,0.26264 0.0578,0.26264 0.15167,0 0.32144,-0.0739 0.37725,-0.1642 z m 30.64283,26.75482 c 0.031,-0.21828 0.13574,-0.39687 0.23276,-0.39687 0.097,0 0.20175,0.17859 0.23275,0.39687 0.0388,0.27308 -0.0338,0.39688 -0.23275,0.39688 -0.19894,0 -0.27154,-0.1238 -0.23276,-0.39688 z m -39.778709,-18.4449 c -0.413168,-0.45654 -0.64617,-1.90779 -0.64617,-4.02466 0,-1.22837 0.06461,-1.82801 0.196961,-1.82801 0.112673,0 0.155885,0.15708 0.100975,0.36706 -0.107524,0.41117 0.136397,4.04752 0.320606,4.77956 0.06537,0.25976 0.250361,0.52277 0.411096,0.58445 0.382456,0.14676 1.087028,-0.66248 1.087028,-1.24852 0,-0.60796 0.450756,-0.72022 1.39908,-0.34845 0.44318,0.17374 0.984373,0.31523 1.202653,0.31442 0.21828,-8.1e-4 0.39688,0.072 0.39688,0.16179 0,0.33554 -0.48714,0.33001 -1.245751,-0.0141 -1.130241,-0.51274 -1.363489,-0.47269 -1.500497,0.25762 -0.113024,0.60247 -0.775552,1.31983 -1.218953,1.31983 -0.117402,0 -0.34416,-0.14443 -0.503908,-0.32095 z m 9.475009,-3.47898 c -0.23928,-0.3652 -0.27266,-0.69964 -0.17965,-1.79997 0.0628,-0.74328 0.18482,-1.42201 0.27109,-1.50828 0.0915,-0.0915 0.51072,-3.2e-4 1.00673,0.21909 1.20429,0.53271 2.58768,0.54415 3.13927,0.026 0.34509,-0.32419 0.49166,-0.36324 0.7814,-0.20818 0.543,0.29061 0.78547,0.10568 1.52985,-1.16683 0.86776,-1.48341 1.03926,-1.14442 0.18964,0.37484 -0.69165,1.23678 -0.8146,1.32902 -1.61005,1.20786 -0.3567,-0.0543 -0.61599,0.0129 -0.77125,0.19999 -0.31603,0.38079 -2.61595,0.39769 -3.11151,0.0229 -0.55855,-0.42246 -0.90414,-0.32779 -1.0259,0.28102 -0.19594,0.97969 -0.12387,2.04012 0.15434,2.27101 0.14552,0.12077 0.26458,0.28924 0.26458,0.37438 0,0.30687 -0.35071,0.14553 -0.63854,-0.29375 z"
       id="path2" /><path
       style="fill:#000000"
       d="m 103.67017,191.0132 c -0.29104,-0.0332 -1.24354,-0.15346 -2.11667,-0.26729 -0.87312,-0.11384 -2.897187,-0.21681 -4.497916,-0.22883 l -2.910416,-0.0218 -2.427515,-0.831 c -1.335133,-0.45705 -3.200445,-0.95376 -4.145139,-1.10381 -2.873317,-0.45637 -3.565273,-0.87993 -6.7046,-4.10408 -2.920505,-2.99942 -3.766379,-4.19673 -4.208577,-5.95713 -0.240126,-0.95595 -0.3378,-1.1243 -0.603383,-1.04001 -0.233851,0.0742 -0.33191,-0.005 -0.374249,-0.30397 -0.04145,-0.29227 -0.192006,-0.42004 -0.54244,-0.46037 l -0.485069,-0.0558 v 1.26114 c 0,0.93003 -0.05789,1.24208 -0.220486,1.18855 -0.123229,-0.0406 -0.244201,-0.43608 -0.274248,-0.89664 -0.08251,-1.26469 -0.916377,-1.0194 -0.916377,0.26955 0,0.86365 -0.217609,0.85121 -0.617361,-0.0353 -0.353946,-0.78491 -0.531026,-0.87836 -0.66847,-0.35278 -0.136616,0.52243 -0.728097,0.44044 -0.95441,-0.13229 l -0.191675,-0.48507 -0.02147,0.61736 c -0.01181,0.33955 -0.09963,0.73643 -0.195154,0.88195 -0.427621,0.65141 -0.596617,-0.44301 -0.531127,-3.43958 0.01272,-0.58209 -0.09977,-1.8124 -0.249978,-2.73403 -0.324023,-1.98809 -0.321605,-1.94028 -0.09814,-1.94028 0.09701,0 0.176389,0.12375 0.176389,0.27499 0,0.15125 0.07937,0.22594 0.176389,0.16598 0.09701,-0.06 0.176389,-0.30745 0.176389,-0.54998 0,-0.26533 0.07437,-0.39501 0.186715,-0.32558 0.109629,0.0677 0.138253,0.33605 0.06933,0.64984 -0.08126,0.36998 -0.0573,0.49731 0.07787,0.41377 0.242649,-0.14997 0.250434,-1.04064 0.01646,-1.88295 -0.208902,-0.75205 -0.503513,-4.02857 -0.390811,-4.34642 0.043,-0.12126 0.14627,-0.22048 0.229491,-0.22048 0.289998,0 0.533303,0.72127 0.759534,2.25162 0.177881,1.20329 0.251406,1.42484 0.335703,1.01157 0.312677,-1.53292 0.319171,-2.05967 0.03734,-3.02913 -0.368411,-1.26729 -0.640265,-3.79432 -0.431503,-4.01105 0.220674,-0.2291 0.459399,0.4951 0.716214,2.17273 0.120915,0.78987 0.275386,1.37473 0.343268,1.2997 0.188253,-0.20807 1.366833,-7.67878 1.503318,-9.52912 0.06619,-0.89738 0.189487,-1.6316 0.273988,-1.6316 0.0845,0 0.153637,0.11906 0.153637,0.26458 0,0.14552 0.08012,0.26459 0.178054,0.26459 0.09793,0 0.174066,-0.33735 0.169191,-0.74966 -0.0139,-1.17616 0.210165,-3.56256 0.34366,-3.66007 0.184993,-0.13511 0.543817,-1.88291 0.543817,-2.64888 0,-0.75776 0.242337,-1.04492 0.49732,-0.58929 0.151719,0.27111 0.174629,0.26758 0.262539,-0.0404 0.05297,-0.18557 0.14698,-0.66411 0.208904,-1.06341 0.08033,-0.518 0.234301,-0.79115 0.537385,-0.95335 0.564625,-0.30218 0.754513,-0.96989 0.875027,-3.07687 0.134926,-2.35894 0.207841,-2.61642 0.705559,-2.4915 0.37968,0.0953 0.400767,0.0399 0.514894,-1.35354 0.169956,-2.07505 0.283559,-2.59943 0.563142,-2.59943 0.134724,0 0.244952,-0.12568 0.244952,-0.27928 0,-0.42304 0.417182,-0.1951 0.531834,0.29058 0.06827,0.28917 0.144033,0.35583 0.235762,0.20741 0.208586,-0.3375 0.434657,-0.2599 0.519032,0.17816 0.09176,0.4764 0.195352,-0.72943 0.13636,-1.58724 -0.04454,-0.64768 0.289563,-1.80824 0.52056,-1.80824 0.283997,0 0.408348,0.41145 0.388443,1.28528 -0.01091,0.4791 0.0127,0.83855 0.05247,0.79877 0.03977,-0.0398 0.399025,-0.86229 0.798342,-1.82783 0.399318,-0.96554 0.838732,-1.87176 0.976476,-2.01381 0.217717,-0.22454 0.250444,-0.17131 0.250444,0.40728 0,0.40791 -0.06972,0.62248 -0.180086,0.55427 -0.149093,-0.0921 -0.701859,0.88652 -0.701859,1.24263 0,0.0578 0.297656,-0.0627 0.661458,-0.26793 0.392142,-0.22118 1.021631,-0.88727 1.546061,-1.63596 0.926727,-1.32302 1.185973,-1.47931 3.762768,-2.26849 0.324735,-0.0995 0.840672,-0.33342 1.146528,-0.51992 0.305856,-0.1865 0.722733,-0.33938 0.926394,-0.33975 0.203661,-3.6e-4 0.889377,-0.27612 1.523813,-0.6128 0.634437,-0.33668 1.49968,-0.66344 1.922763,-0.72613 0.423084,-0.0627 1.404243,-0.41461 2.180354,-0.78203 0.776111,-0.36742 1.768298,-0.72303 2.204861,-0.79025 0.974767,-0.15007 1.900557,-0.6461 3.308287,-1.77256 l 1.07744,-0.86217 -0.56127,-0.2357 c -1.47614,-0.61989 -2.10805,-1.94899 -1.62655,-3.4211 0.15588,-0.47659 0.24017,-0.93651 0.18731,-1.02205 -0.0529,-0.0855 -0.17352,-0.56367 -0.26813,-1.06252 -0.13033,-0.68721 -0.11398,-1.04316 0.0674,-1.46885 0.50863,-1.19347 1.65176,-1.74629 2.36333,-1.14292 0.16656,0.14124 0.68587,0.47553 1.15403,0.74287 0.77045,0.43996 0.87951,0.46045 1.1497,0.21593 0.45291,-0.40988 1.82377,-0.98837 2.32063,-0.97928 l 0.44097,0.008 -0.44097,0.18858 c -2.13202,0.91176 -2.29267,1.02598 -2.24794,1.59819 0.0389,0.49777 -0.0273,0.57748 -0.68556,0.82538 -0.40076,0.15091 -1.16063,0.57205 -1.68861,0.93585 -0.52797,0.3638 -1.16937,0.66146 -1.42532,0.66146 -0.3949,0 -0.49459,0.10855 -0.65844,0.71703 -0.25487,0.94653 0.01,1.74333 0.81375,2.44915 0.70259,0.61688 0.88862,0.65113 1.33622,0.24606 0.26613,-0.24084 0.32257,-0.24701 0.32257,-0.0353 0,0.14116 -0.0992,0.36358 -0.22049,0.49428 -0.18136,0.19546 -0.15788,0.21331 0.1323,0.10063 0.19402,-0.0753 1.15898,-0.27621 2.14435,-0.44638 0.98536,-0.17016 1.88009,-0.3641 1.98829,-0.43097 0.1082,-0.0669 1.1673,-0.23838 2.35356,-0.38115 1.18627,-0.14277 2.51404,-0.30311 2.9506,-0.35631 0.51598,-0.0629 1.07152,0.004 1.5875,0.19246 1.94066,0.70706 4.4562,1.50742 4.73785,1.50742 0.38431,0 3.11602,1.30949 3.27781,1.57127 0.0655,0.10594 0.24471,0.19262 0.3983,0.19262 0.15359,0 0.68469,0.34561 1.18022,0.76802 0.49553,0.42241 1.47269,1.13387 2.17146,1.58101 1.42486,0.91177 1.66112,1.20502 2.08649,2.58986 0.60359,1.96507 1.00577,2.93901 1.71168,4.14514 0.39746,0.67909 0.86976,1.51253 1.04956,1.85208 0.17979,0.33955 0.42456,0.61736 0.54392,0.61736 0.20411,0 0.3202,0.30545 0.82605,2.17336 0.17154,0.63344 0.24929,0.72666 0.46015,0.55166 0.14089,-0.11692 0.25373,-0.51476 0.25373,-0.89453 0,-0.55265 -0.0639,-0.68396 -0.33275,-0.68396 -0.26213,0 -0.35881,-0.1778 -0.45555,-0.83785 -0.18624,-1.27071 -0.68122,-2.23004 -1.60957,-3.11956 -0.86799,-0.83168 -0.87826,-1.04391 -0.0232,-0.48011 0.74021,0.48808 1.4993,1.62692 1.73195,2.59837 0.31633,1.32085 0.40471,1.45873 0.47221,0.73672 0.034,-0.3638 0.13066,-0.66146 0.21478,-0.66146 0.48093,0 1.33787,1.91809 1.686,3.77378 0.0656,0.34977 0.18984,0.63594 0.27606,0.63594 0.0862,0 0.15676,0.9525 0.15676,2.11667 0,1.29352 -0.0686,2.11667 -0.17639,2.11667 -0.10389,0 -0.17779,-0.63433 -0.17979,-1.54341 -0.002,-0.84887 -0.11415,-1.94027 -0.24951,-2.42534 l -0.24611,-0.88195 0.0769,1.32292 c 0.21283,3.66304 0.21646,3.56847 -0.14078,3.66189 -0.51632,0.13502 -0.27633,0.45507 0.39782,0.53053 0.33335,0.0373 0.63251,0.14103 0.66479,0.23047 0.0323,0.0894 0.2398,0.11716 0.46116,0.0616 0.40717,-0.10219 0.7413,0.30261 0.53084,0.64314 -0.0533,0.0863 0.0243,0.514 0.17245,0.95045 0.26742,0.78767 0.26552,2.75258 -0.004,4.11539 -0.0863,0.43643 -0.0559,0.56761 0.1226,0.52917 0.49056,-0.10564 0.32382,0.72695 -0.45859,2.28989 l -0.80823,1.61451 0.3594,0.3594 c 0.22271,0.22271 0.35939,0.59084 0.35939,0.96799 0,0.39347 0.10784,0.66894 0.30508,0.77932 0.27746,0.15528 0.30169,0.54828 0.26769,4.3421 -0.0206,2.29425 -0.084,4.24673 -0.14087,4.33883 -0.0569,0.0921 -0.18634,0.11626 -0.2876,0.0537 -0.12065,-0.0746 -0.15063,-0.88119 -0.087,-2.34003 l 0.0971,-2.22625 -0.31615,2.11667 c -0.46065,3.08409 -0.91136,5.02708 -1.16614,5.02708 -0.28777,0 -0.43066,-0.57639 -0.43362,-1.74919 -0.003,-1.31453 -0.17611,-1.02423 -0.37659,0.63271 -0.0919,0.75958 -0.31749,2.2145 -0.50129,3.23315 -0.18379,1.01864 -0.42727,2.43294 -0.54106,3.14288 -0.14308,0.89272 -0.2742,1.26497 -0.42517,1.20704 -0.21059,-0.0808 -0.32707,0.58267 -0.73044,4.16084 -0.0779,0.6914 -0.19209,1.01424 -0.3586,1.01424 -0.14295,0 -0.24426,0.18289 -0.24426,0.44097 0,0.46702 -0.30169,0.60293 -0.45449,0.20475 -0.0499,-0.12992 -0.23385,-1.06257 -0.40888,-2.07257 -0.34829,-2.00983 -0.39228,-1.98847 -0.79212,0.38455 -0.16363,0.97111 -0.29625,1.32124 -0.51654,1.36367 -0.18974,0.0365 -0.36831,-0.12208 -0.49629,-0.44083 l -0.1999,-0.4979 -0.16842,0.61736 c -0.0926,0.33955 -0.28071,0.74267 -0.41797,0.89583 -0.13725,0.15316 -0.24955,0.40644 -0.24955,0.56285 0,0.67531 -0.34176,0.41486 -0.463,-0.35284 -0.17232,-1.09111 -0.18055,-5.22264 -0.0122,-6.13293 l 0.13047,-0.70555 -0.35057,0.40873 c -0.19281,0.2248 -0.92009,1.53115 -1.61618,2.90299 -2.23106,4.39697 -3.22427,5.70342 -6.06697,7.98036 -0.87313,0.69935 -2.43251,2.06982 -3.4653,3.04549 -1.03279,0.97566 -2.10435,1.89026 -2.38125,2.03243 -0.61931,0.31797 -2.01822,0.59529 -3.76665,0.74669 -0.7276,0.063 -2.07698,0.22565 -2.99861,0.36143 -1.61414,0.23781 -2.3052,0.26509 -3.43958,0.13578 z m 3.35139,-0.76958 c 0.58208,-0.0963 1.97114,-0.25803 3.0868,-0.35931 3.08497,-0.28008 3.4105,-0.42934 5.70238,-2.61474 1.08379,-1.03344 2.44679,-2.2705 3.02887,-2.74901 1.55592,-1.27906 3.20611,-2.89771 3.8752,-3.80112 0.32332,-0.43657 1.30172,-2.10344 2.17421,-3.70417 0.87248,-1.60073 2.10382,-3.76266 2.7363,-4.8043 1.2669,-2.08644 1.75688,-3.38707 2.07745,-5.51445 0.11696,-0.77611 0.36747,-1.72062 0.55669,-2.0989 0.24852,-0.49682 0.3413,-1.03557 0.33414,-1.94028 -0.0141,-1.78452 0.3262,-6.42006 0.52995,-7.21865 0.14534,-0.56961 0.21289,-0.64065 0.4344,-0.45681 0.14426,0.11973 0.21646,0.33715 0.16043,0.48315 -0.056,0.146 -0.21335,1.58188 -0.3496,3.19084 -0.21773,2.57106 -0.51361,4.74489 -1.16643,8.56982 -0.22885,1.34083 -0.62508,2.59272 -1.15657,3.6542 -0.36526,0.72948 -0.41442,1.06633 -0.399,2.73403 0.0178,1.92783 0.18899,3.03578 0.38924,2.51941 0.23041,-0.59416 0.85337,-4.2095 1.03827,-6.0256 0.10875,-1.06811 0.29621,-2.04052 0.4166,-2.1609 0.36158,-0.36158 0.78414,-2.3422 0.78414,-3.67545 0,-1.44251 0.3113,-3.4908 0.5697,-3.74847 0.11819,-0.11786 0.15095,0.0138 0.0987,0.39687 -0.043,0.3153 -0.0163,0.57327 0.0594,0.57327 0.16882,0 0.50957,-1.18178 0.42339,-1.46837 -0.0343,-0.11403 -0.10691,-0.46529 -0.16139,-0.78059 -0.1618,-0.93643 0.19071,-0.65112 0.43587,0.35278 0.19885,0.81427 0.24143,0.87281 0.35279,0.48507 0.1651,-0.5749 0.19428,-1.84901 0.0457,-1.99755 -0.0638,-0.0638 -0.22407,-0.0264 -0.35608,0.0831 -0.183,0.15188 -0.32306,0.12406 -0.5895,-0.11706 -0.41635,-0.3768 -0.45992,-1.37355 -0.11105,-2.54037 0.24074,-0.80514 0.33599,-0.79992 0.53418,0.0293 0.1037,0.43391 0.15292,0.46156 0.47088,0.26459 0.1953,-0.12098 0.4171,-0.45781 0.49289,-0.74851 0.0932,-0.35743 0.24844,-0.52874 0.47953,-0.52917 0.26858,-4.9e-4 0.36313,-0.16106 0.44178,-0.75027 0.055,-0.41231 0.0717,-0.74966 0.037,-0.74966 -0.0347,0 -0.29785,0.17356 -0.58476,0.38569 -0.4156,0.30726 -0.74589,0.38152 -1.62446,0.36524 -1.20437,-0.0223 -2.62573,-0.38086 -2.72817,-0.6882 -0.0393,-0.11797 0.40881,-0.0547 1.14249,0.1614 1.71632,0.50544 2.62416,0.34577 3.58038,-0.62972 0.39778,-0.4058 0.69701,-0.62937 0.66495,-0.49684 -0.12451,0.5149 0.32171,0.34688 0.52431,-0.19742 0.11789,-0.31671 0.3718,-0.77428 0.56424,-1.01681 0.29811,-0.37571 0.37698,-0.40182 0.53293,-0.17639 0.13958,0.20175 0.15779,0.15535 0.0767,-0.19544 -0.0601,-0.26 0.0142,-0.7487 0.17103,-1.12397 0.34294,-0.82076 0.34498,-0.98962 0.007,-0.54216 -0.52978,0.7005 -0.99357,-0.71433 -0.83891,-2.55914 0.0722,-0.8613 0.0428,-1.22374 -0.0994,-1.22374 -0.11108,0 -0.20197,0.20099 -0.20197,0.44664 0,0.566 -0.45469,1.67003 -0.68779,1.67003 -0.0971,0 -0.25849,-0.13891 -0.35855,-0.30868 -0.14943,-0.25354 -0.21049,-0.26526 -0.34182,-0.0656 -0.18161,0.27609 -0.55212,0.11978 -0.55212,-0.23292 0,-0.24663 -0.66469,-0.49721 -0.91255,-0.34402 -0.0802,0.0495 -0.14578,0.2679 -0.14578,0.48522 0,0.29014 0.16121,0.45342 0.60669,0.61451 0.33368,0.12066 1.00837,0.58053 1.49931,1.02192 0.98472,0.88536 1.10049,1.32626 0.62522,2.38119 l -0.26739,0.59352 0.10744,-0.98312 0.10743,-0.98311 -0.89252,-0.80246 c -0.96084,-0.86387 -2.07831,-1.27393 -2.98014,-1.09356 -0.38,0.076 -0.54812,0.0284 -0.6272,-0.17772 -0.0594,-0.15486 -0.20976,-0.28479 -0.33407,-0.28873 -0.12431,-0.004 -0.50084,-0.24207 -0.83672,-0.52916 -0.33588,-0.2871 -0.69181,-0.522 -0.79095,-0.522 -0.0991,0 -0.57839,-0.19443 -1.065,-0.43207 -0.48661,-0.23764 -1.24507,-0.52109 -1.68548,-0.6299 -0.56399,-0.13933 -0.90297,-0.35184 -1.14653,-0.71876 -0.19018,-0.28651 -0.64344,-0.65333 -1.00724,-0.81516 -0.45241,-0.20124 -0.66232,-0.40893 -0.66416,-0.65716 -0.002,-0.29895 -0.0328,-0.31628 -0.17369,-0.0983 -0.094,0.14552 -0.1722,0.78675 -0.17369,1.42497 -0.002,0.99971 -0.0783,1.27455 -0.54887,1.98494 -0.61212,0.92414 -1.29705,1.52898 -1.73143,1.52898 -0.15935,0 -0.45145,0.11326 -0.6491,0.2517 -0.19764,0.13844 -0.84853,0.4165 -1.44641,0.61791 -0.98048,0.3303 -1.26471,0.34986 -2.89899,0.19958 -0.99656,-0.0916 -2.08922,-0.25064 -2.42812,-0.35333 -0.33891,-0.10268 -1.01584,-0.1867 -1.50429,-0.1867 -0.6488,0 -1.22876,-0.16326 -2.15252,-0.60596 -1.35166,-0.64777 -1.76515,-1.12343 -2.64254,-3.0399 -0.48157,-1.0519 -0.7438,-2.70414 -0.42917,-2.70414 0.11053,0 0.20355,0.25797 0.20672,0.57327 0.008,0.82688 0.5248,2.18451 1.27257,3.34502 0.54986,0.85335 0.82502,1.08997 1.79486,1.5434 0.74066,0.34629 1.42466,0.53554 1.93559,0.53554 0.43459,0 1.29118,0.11454 1.90354,0.25454 2.21498,0.50638 4.80783,0.30371 5.96407,-0.46619 0.24254,-0.1615 0.64905,-0.34474 0.90336,-0.4072 0.25431,-0.0625 0.7598,-0.41815 1.12332,-0.79043 0.72288,-0.7403 0.95109,-1.49778 0.96425,-3.20065 0.007,-0.86117 0.0666,-1.03254 0.44865,-1.28288 0.3697,-0.24223 0.44098,-0.24763 0.44098,-0.0334 0,0.42835 2.94128,2.92757 3.4454,2.92757 0.24319,0 0.75651,0.19844 1.14071,0.44098 0.3842,0.24253 0.80827,0.44097 0.94238,0.44097 0.13411,0 0.54347,0.23812 0.9097,0.52917 0.36623,0.29104 0.80902,0.52916 0.98398,0.52916 0.17497,0 0.36717,0.0794 0.42713,0.17639 0.17247,0.27906 0.92137,0.20512 1.03946,-0.10262 0.18656,-0.48615 0.11621,-0.96328 -0.15751,-1.06831 -0.14552,-0.0558 -0.26459,-0.17242 -0.26459,-0.25905 0,-0.0866 0.11907,-0.15752 0.26459,-0.15752 0.30511,0 0.33143,-0.83708 0.0804,-2.55764 -0.0849,-0.58208 -0.31464,-2.45758 -0.51049,-4.16778 -0.19584,-1.71019 -0.44203,-3.3355 -0.54707,-3.61179 -0.10505,-0.27629 -0.59595,-1.1627 -1.0909,-1.96979 -0.56919,-0.92816 -1.16482,-2.25855 -1.62078,-3.62015 l -0.72089,-2.15271 -1.61485,-1.05908 c -0.88817,-0.5825 -2.10244,-1.49531 -2.69838,-2.02848 -1.05771,-0.94629 -3.13114,-2.11591 -3.75094,-2.11591 -0.37763,0 -3.40276,-0.94134 -4.68448,-1.45769 -0.85467,-0.34431 -1.01882,-0.35668 -2.01166,-0.15161 -0.59458,0.12281 -1.64424,0.26702 -2.33259,0.32047 -0.68835,0.0534 -2.04529,0.28582 -3.01543,0.51639 -0.97014,0.23056 -1.98472,0.41931 -2.25462,0.41943 -0.77355,3.6e-4 -1.58381,0.41744 -3.18622,1.64012 -1.25416,0.95694 -1.68353,1.17951 -2.732366,1.41637 -0.68441,0.15456 -1.787756,0.55466 -2.451879,0.8891 -0.664123,0.33445 -1.601103,0.66321 -2.082177,0.73057 -0.481074,0.0674 -1.179071,0.31842 -1.551103,0.5579 -0.372033,0.23949 -1.20547,0.6195 -1.852083,0.84448 -0.646614,0.22498 -2.009098,0.72623 -3.027744,1.1139 l -1.852084,0.70484 -0.881944,1.24784 c -0.579186,0.81947 -1.124151,1.37388 -1.5875,1.61501 -1.240563,0.64562 -1.446002,0.92027 -2.281661,3.05039 -0.958335,2.44283 -1.516587,4.4464 -1.951405,7.0036 -0.173207,1.01865 -0.431237,1.97115 -0.5734,2.11667 -0.2288,0.2342 -0.246915,0.22407 -0.15777,-0.0882 0.05539,-0.19403 0.186658,-0.9021 0.291708,-1.5735 0.105049,-0.6714 0.230849,-1.28521 0.279555,-1.36402 0.04871,-0.0788 0.03177,-0.44229 -0.03763,-0.80774 l -0.126191,-0.66446 -0.263867,0.61736 c -0.145127,0.33955 -0.246174,0.82406 -0.224549,1.0767 0.02163,0.25263 -0.124198,0.92456 -0.324053,1.49319 -0.199854,0.56862 -0.363372,1.22421 -0.363372,1.45686 0,0.37027 -0.06639,0.41327 -0.532514,0.34486 -0.315118,-0.0462 -0.611976,0.0176 -0.727154,0.15637 -0.107051,0.12898 -0.29406,0.23452 -0.415575,0.23452 -0.20218,0 -0.441423,0.73589 -0.441423,1.35777 0,0.19694 0.103133,0.17421 0.450952,-0.0994 0.248024,-0.1951 0.86318,-0.48861 1.367014,-0.65226 0.503834,-0.16364 1.082199,-0.44848 1.285255,-0.63296 0.203057,-0.18449 0.79837,-0.40607 1.322917,-0.49241 0.524547,-0.0863 1.337334,-0.32234 1.806193,-0.52443 0.468859,-0.20209 1.028916,-0.36744 1.24457,-0.36744 0.215655,0 0.883761,-0.16604 1.484682,-0.36897 0.828561,-0.27981 1.092583,-0.45031 1.092583,-0.70556 0,-0.36051 0.280888,-0.46406 0.387909,-0.143 0.0366,0.1098 0.520106,-0.10815 1.117129,-0.50358 1.438923,-0.95304 2.004473,-1.22694 2.822585,-1.36702 0.384703,-0.0659 1.098332,-0.26332 1.585842,-0.43878 0.722995,-0.26021 1.169231,-0.29702 2.420867,-0.1997 0.901921,0.0701 1.627225,0.21608 1.759452,0.35405 0.185791,0.19385 0.132817,0.21742 -0.304201,0.13537 -1.72721,-0.3243 -2.836718,-0.3153 -3.792361,0.0308 -0.533576,0.19322 -1.287639,0.40546 -1.675694,0.47165 -0.827949,0.14122 -3.171709,1.54922 -3.556565,2.13659 -0.242418,0.36997 -0.231943,0.49993 0.115158,1.42863 0.590301,1.5794 1.411107,3.01196 2.044276,3.56788 0.690273,0.60607 1.827369,0.88515 4.131158,1.0139 1.453455,0.0812 1.814874,0.0409 2.725106,-0.30387 1.735474,-0.65742 3.610706,-2.7883 4.144124,-4.70911 0.23867,-0.85941 0.23932,-2.46234 0.001,-2.60959 -0.10189,-0.063 -0.558289,-0.17433 -1.014227,-0.24745 -0.628975,-0.10088 -0.750907,-0.16681 -0.505386,-0.27329 0.181502,-0.0787 0.743039,-0.0397 1.278813,0.0888 0.9017,0.21632 0.95506,0.2597 0.95217,0.77425 -0.007,1.18165 -0.52564,2.95219 -1.207726,4.12008 -1.812376,3.10322 -4.294948,4.08466 -8.3631,3.3062 -1.472357,-0.28174 -2.162161,-0.56736 -2.623803,-1.08639 -0.503721,-0.56635 -1.302154,-2.04349 -1.821269,-3.36945 -0.275364,-0.70335 -0.56233,-1.27882 -0.637701,-1.27882 -0.07537,0 -0.348714,0.0805 -0.607428,0.17884 -0.258715,0.0984 -0.958413,0.28721 -1.554886,0.41965 -0.596473,0.13245 -1.53892,0.40916 -2.094326,0.61491 -0.555406,0.20576 -1.235087,0.3741 -1.510402,0.3741 -0.327101,0 -0.678118,0.18532 -1.012902,0.53476 -0.38873,0.40574 -0.6201,0.51227 -0.959042,0.44154 -0.622655,-0.12993 -1.745175,0.55671 -2.148142,1.314 -0.452154,0.84973 -0.409786,1.53667 0.139167,2.25638 0.451459,0.5919 0.494711,0.60775 1.367014,0.50117 0.495442,-0.0605 1.079397,-0.15877 1.297678,-0.21828 0.219732,-0.0599 0.396875,-0.0292 0.396875,0.0687 0,0.18612 -0.621314,0.3511 -1.934927,0.5138 -0.728774,0.0903 -0.825032,0.0538 -1.272771,-0.48256 -0.524259,-0.62797 -0.512314,-0.63755 -0.850307,0.68184 -0.107177,0.41838 -0.23865,0.87478 -0.292163,1.01424 -0.05837,0.1521 0.01023,0.25355 0.171459,0.25355 0.147816,0 0.304191,-0.0992 0.347501,-0.22049 0.158646,-0.44421 0.292911,-0.005 0.151783,0.49675 -0.160186,0.56927 0.197896,4.0397 0.371895,3.60429 0.295316,-0.73898 0.480198,-1.62634 0.588013,-2.82222 0.136874,-1.51822 0.284695,-1.90654 0.436448,-1.14653 l 0.105659,0.52917 0.192411,-0.44097 c 0.105826,-0.24254 0.234971,-0.57703 0.286991,-0.74333 0.08553,-0.27341 0.141771,-0.27772 0.587614,-0.0451 0.34408,0.17956 0.753201,0.22314 1.354185,0.14425 0.671111,-0.0881 0.844023,-0.0617 0.783537,0.1198 -0.05597,0.16792 -0.406735,0.22091 -1.258026,0.19005 -1.235249,-0.0448 -1.265504,-0.0241 -1.224643,0.8383 0.01896,0.40022 -0.456793,3.16883 -0.913638,5.31683 -0.237283,1.11566 -0.482152,2.38566 -0.544153,2.82222 -0.062,0.43656 -0.274539,1.5875 -0.472307,2.55764 -0.831883,4.08077 -0.920594,6.67826 -0.331328,9.70139 0.976464,5.00957 1.218804,5.93079 1.832862,6.96736 0.201146,0.33955 1.591944,1.90747 3.090662,3.48427 2.346989,2.46927 2.89594,2.95246 3.957792,3.48368 0.678067,0.33923 1.444058,0.61677 1.702201,0.61677 0.904409,0 3.942674,0.73897 5.629712,1.36926 1.68459,0.62937 1.735933,0.63676 4.789649,0.68966 1.697743,0.0294 3.801172,0.1648 4.674302,0.30087 1.93876,0.30213 3.88224,0.34211 5.29167,0.10884 z m -6.00335,-2.28367 c -0.1974,-0.08 -0.46508,-0.27344 -0.59486,-0.42981 -0.12978,-0.15637 -0.444524,-0.2868 -0.699433,-0.28983 -0.423244,-0.005 -0.883144,-0.20294 -2.664305,-1.1465 -0.337333,-0.1787 -1.02818,-0.35931 -1.535217,-0.40136 -0.955314,-0.0792 -1.328361,-0.33209 -1.546639,-1.04836 -0.179836,-0.59013 0.178172,-0.48049 0.431995,0.13229 0.184711,0.44593 0.316645,0.52917 0.838782,0.52917 0.849054,0 1.965687,0.3371 2.600801,0.78516 0.718204,0.50667 1.431274,0.80234 1.935044,0.80234 0.230522,0 0.658922,0.20176 0.951982,0.44835 0.47898,0.40304 0.62744,0.43586 1.46874,0.32474 0.51474,-0.068 1.19132,-0.23006 1.5035,-0.36016 0.31218,-0.1301 0.76692,-0.23654 1.01053,-0.23654 0.93282,0 2.82625,-0.7635 3.5773,-1.4425 0.4586,-0.4146 0.92103,-0.67417 1.20104,-0.67417 0.25863,0 0.40823,0.0762 0.34631,0.17639 -0.06,0.097 -0.24751,0.17639 -0.41678,0.17639 -0.16927,0 -0.57228,0.2729 -0.89556,0.60645 -0.6025,0.62162 -2.81288,1.51021 -3.75667,1.51021 -0.24429,0 -0.71182,0.10882 -1.03896,0.24182 -0.78139,0.31768 -2.26533,0.47926 -2.7176,0.29592 z m 1.06446,-17.03647 c -0.29104,-0.13326 -0.98558,-0.24588 -1.54341,-0.25025 -0.557825,-0.004 -1.014231,-0.0873 -1.014231,-0.18435 0,-0.40244 2.938091,0.0453 3.412901,0.52012 0.26254,0.26254 -0.19506,0.21679 -0.85526,-0.0855 z m 5.11043,-0.48405 c -0.19137,-0.12421 -1.02262,-0.48725 -1.84724,-0.80676 -0.82462,-0.3195 -1.88692,-0.73381 -2.36067,-0.92068 -0.47376,-0.18688 -1.08504,-0.33977 -1.35841,-0.33977 -0.45422,0 -0.88289,-0.10182 -3.361507,-0.7984 -0.45033,-0.12656 -1.154778,-0.4735 -1.565438,-0.77098 -0.41066,-0.29748 -0.816114,-0.49795 -0.901009,-0.44548 -0.08489,0.0525 -0.154353,0.0113 -0.154353,-0.0914 0,-0.35634 0.660478,-0.18407 1.327932,0.34635 0.368987,0.29324 0.875995,0.58093 1.126685,0.63931 0.25069,0.0584 1.119523,0.29472 1.93074,0.52519 0.81122,0.23046 1.70526,0.41902 1.98677,0.41902 0.2815,0 0.64966,0.0754 0.81811,0.16747 0.16846,0.0921 1.06035,0.44494 1.98199,0.78405 2.61356,0.96166 2.80712,1.04777 2.90016,1.29023 0.11102,0.28931 -0.0799,0.28998 -0.52376,0.002 z m -10.631405,-9.33444 c -0.116416,-0.11641 -0.211666,-0.39423 -0.211666,-0.61736 0,-0.44485 -0.0784,-0.46034 -1.217427,-0.2404 -0.69819,0.13481 -0.820926,0.10545 -1.217671,-0.2913 -0.24267,-0.24267 -0.765951,-0.53524 -1.162848,-0.65015 -0.444971,-0.12883 -0.744837,-0.32944 -0.782164,-0.52326 -0.05329,-0.27672 0.03266,-0.30036 0.718256,-0.19755 0.705866,0.10585 0.806796,0.074 1.077861,-0.33965 0.332353,-0.50723 1.098892,-0.61579 1.69953,-0.24069 0.299015,0.18674 0.424352,0.1393 0.932045,-0.35277 0.70773,-0.68596 1.217878,-0.72115 1.693267,-0.11679 0.342995,0.43605 0.370943,0.44153 0.804209,0.15764 0.304961,-0.19982 0.689951,-0.2698 1.200863,-0.21829 0.68195,0.0687 0.80499,0.0171 1.32102,-0.55451 l 0.56903,-0.63033 0.31292,0.38789 c 0.21775,0.26993 0.59574,0.42452 1.24291,0.50832 0.51151,0.0662 0.97457,0.19253 1.02903,0.28065 0.0545,0.0881 0.55657,0.10846 1.1161,0.0452 0.85951,-0.0972 1.03482,-0.0688 1.1316,0.18335 0.0868,0.22629 0.23897,0.27108 0.62945,0.18532 1.00219,-0.22012 1.89376,-0.12967 2.67161,0.27103 0.44686,0.23019 1.038,0.38722 1.37819,0.36608 0.32763,-0.0204 0.72465,0.0797 0.88227,0.22233 0.15761,0.14264 0.51048,0.34447 0.78415,0.44852 0.5414,0.20584 0.58587,0.64041 0.097,0.94822 -0.21136,0.13309 -0.4871,0.0814 -1.04957,-0.19694 -0.67568,-0.3343 -0.79574,-0.34773 -1.05013,-0.11751 -0.39223,0.35496 -0.9374,0.32618 -1.75875,-0.0928 -0.91166,-0.46509 -1.20679,-0.44555 -1.79601,0.11896 -0.53482,0.51239 -0.71103,0.52944 -2.93029,0.2835 -0.78172,-0.0866 -1.34669,-0.23965 -1.43954,-0.38989 -0.12013,-0.19436 -0.28335,-0.10891 -0.76259,0.39924 -0.75493,0.80046 -1.24485,0.82482 -2.3604,0.11736 -0.458923,-0.29104 -0.908079,-0.52917 -0.998122,-0.52917 -0.09004,0 -0.478124,0.35719 -0.862402,0.79375 -0.709409,0.80593 -1.273743,1.0001 -1.691761,0.58208 z m 5.046005,-8.25629 c -0.85092,-0.7014 -1.02463,-1.52386 -0.80535,-3.81316 0.17469,-1.82383 0.83728,-4.8564 1.37297,-6.28381 0.35028,-0.93339 0.29581,-1.01572 -0.30107,-0.45498 -0.22416,0.21058 -0.4674,0.3212 -0.54054,0.24582 -0.0731,-0.0754 0.27274,-0.50564 0.76864,-0.95614 0.49589,-0.45049 1.03474,-1.10413 1.19743,-1.45253 0.37153,-0.79561 1.51692,-1.94922 1.51692,-1.52782 0,0.15906 -0.14793,0.39291 -0.32872,0.51968 -0.31055,0.21775 -1.08031,1.33832 -1.08174,1.57472 -3.6e-4,0.0602 0.63434,0.16491 1.41046,0.23261 0.77611,0.0677 1.41111,0.19748 1.41111,0.28839 0,0.0989 -0.60189,0.11903 -1.49757,0.0502 l -1.49756,-0.11511 -0.4532,1.02476 c -0.9581,2.16644 -1.78351,6.53174 -1.68376,8.90479 0.0328,0.78091 0.4809,1.41169 1.28829,1.81357 0.58016,0.28878 0.69365,0.29257 1.39973,0.0467 0.4226,-0.14718 0.94867,-0.26876 1.16903,-0.27017 0.57651,-0.004 1.7414,-0.82921 1.95065,-1.38236 0.28528,-0.75413 0.41127,-2.29422 0.21733,-2.65659 -0.3092,-0.57775 -0.71534,-0.58377 -1.56173,-0.0232 -0.80106,0.5306 -1.44788,0.68936 -1.44788,0.35537 0,-0.097 0.11379,-0.17639 0.25286,-0.17639 0.13908,0 0.64121,-0.24141 1.11585,-0.53646 1.01335,-0.62994 1.61226,-0.53421 1.96353,0.31385 0.25535,0.61647 -0.0133,2.66124 -0.43409,3.30338 -0.48015,0.7328 -2.58181,1.50534 -4.09521,1.50534 -0.47659,0 -0.84366,-0.14905 -1.30638,-0.53046 z m -22.499685,-3.2126 c -0.218281,-0.10527 -0.396875,-0.25865 -0.396875,-0.34084 0,-0.18905 0.054,-0.18723 0.599634,0.0202 0.560341,0.21304 0.683716,0.0225 0.439332,-0.67856 -0.142698,-0.40934 -0.299566,-0.54943 -0.615249,-0.54943 -0.233044,0 -0.423717,-0.0844 -0.423717,-0.18756 0,-0.10536 0.251256,-0.16334 0.573264,-0.13229 0.503555,0.0486 0.602272,0.14694 0.811819,0.80918 0.18881,0.59669 0.193502,0.80819 0.0225,1.01423 -0.250136,0.3014 -0.459802,0.31074 -1.010707,0.0451 z m 13.361724,-1.56622 c -0.902519,-0.17669 -1.559656,-0.60552 -1.931354,-1.26034 -0.227122,-0.40012 -0.220251,-0.53491 0.06206,-1.21758 0.559416,-1.35274 0.480226,-1.29683 1.836569,-1.29683 1.182861,0 1.280619,0.0316 1.872771,0.60575 0.34362,0.33317 0.756474,0.95063 0.917453,1.37215 0.287419,0.7526 0.285312,0.77425 -0.117011,1.2025 -0.33973,0.36163 -1.427983,0.83685 -1.758814,0.76804 -0.04851,-0.0101 -0.445263,-0.0883 -0.881679,-0.17369 z m 1.855613,-0.43698 c 0.748991,-0.35542 0.860368,-0.66662 0.505912,-1.41358 -0.3273,-0.68974 -0.367216,-0.70509 -0.804499,-0.30935 -0.302638,0.27388 -0.32257,0.26934 -0.32257,-0.0735 0,-0.20098 0.09922,-0.40662 0.220486,-0.45698 0.151303,-0.0628 0.08982,-0.20581 -0.195929,-0.45567 -0.588837,-0.51488 -2.220545,-0.52229 -2.494001,-0.0113 -0.103841,0.19403 -0.144491,0.35278 -0.09033,0.35278 0.05416,0 -0.02901,0.19455 -0.184811,0.43234 -0.661531,1.00962 0.520384,2.02999 2.541543,2.19417 0.130859,0.0106 0.501751,-0.10587 0.824203,-0.25888 z m 20.986478,-0.93876 c -0.85935,-0.38835 -2.38125,-1.97978 -2.38125,-2.49006 0,-0.2039 0.0794,-0.32168 0.17639,-0.26173 0.097,0.06 0.17639,0.19019 0.17639,0.28941 0,0.35217 1.25946,1.71061 1.84247,1.98726 1.06091,0.50344 2.58887,0.26259 3.52546,-0.55571 0.51717,-0.45185 0.56807,-0.89841 0.1865,-1.63629 -0.36832,-0.71224 -1.14471,-1.13563 -1.14471,-0.62424 0,0.38818 -0.34027,0.51281 -0.47087,0.17247 -0.0717,-0.18672 1.4e-4,-0.38591 0.18882,-0.52387 0.27372,-0.20016 0.2497,-0.23463 -0.23815,-0.34178 -0.29842,-0.0655 -0.99266,-0.12321 -1.54276,-0.12816 -1.02819,-0.009 -1.17405,0.0766 -1.75281,1.03132 -0.10989,0.18128 -0.26797,0.26411 -0.35131,0.18407 -0.0833,-0.08 -0.0133,-0.22288 0.15571,-0.31744 0.16896,-0.0946 0.30721,-0.32394 0.30721,-0.50973 0,-0.55749 0.63377,-0.75101 2.19172,-0.66923 1.80372,0.0947 2.42305,0.42938 2.91637,1.57612 0.19798,0.46022 0.35996,0.99242 0.35996,1.18266 0,0.47543 -1.08856,1.39052 -1.89386,1.59206 -1.40582,0.35183 -1.56103,0.35479 -2.25128,0.0429 z m 6.11768,-5.9111 c -1.15608,-1.17721 -2.88845,-1.72663 -3.99128,-1.26584 -0.7961,0.33263 -1.32029,0.35073 -2.23356,0.0771 -0.87184,-0.2612 -2.96784,0.1602 -5.05428,1.01617 -1.40331,0.57572 -2.65293,0.79306 -2.42328,0.42147 0.06,-0.097 0.30786,-0.17639 0.55088,-0.17639 0.24303,0 0.8587,-0.19066 1.36816,-0.4237 1.06579,-0.4875 1.79627,-0.70782 3.61291,-1.08967 1.08345,-0.22774 1.44114,-0.23644 2.15878,-0.0525 0.73677,0.18883 0.99552,0.17779 1.80369,-0.077 1.15273,-0.36336 1.53296,-0.37098 2.17705,-0.0436 0.27465,0.1396 0.74488,0.34251 1.04495,0.45091 0.62426,0.22552 2.39863,1.94181 2.00542,1.93979 -0.14187,-7.3e-4 -0.60062,-0.35026 -1.01944,-0.77674 z m -23.525054,0.48118 c 0.12733,-0.051 0.279466,-0.0447 0.338078,0.0139 0.05861,0.0586 -0.04557,0.1003 -0.23151,0.0926 -0.205483,-0.008 -0.24728,-0.0503 -0.106568,-0.10657 z m -0.772319,-2.30755 c -0.103416,-0.0713 -0.452668,-0.52647 -0.776115,-1.01154 -0.865433,-1.29788 -1.221819,-1.64299 -1.928112,-1.86713 -0.349536,-0.11093 -1.010267,-0.43754 -1.468291,-0.72581 -0.962802,-0.60596 -1.309001,-0.58101 -2.915267,0.21009 -1.209707,0.59579 -2.996085,1.00095 -3.258089,0.73895 -0.305586,-0.30559 0.0092,-0.52947 1.05601,-0.75107 0.556175,-0.11774 1.447791,-0.44541 1.981367,-0.72816 0.533576,-0.28275 1.34351,-0.55962 1.799854,-0.61527 0.723245,-0.0882 0.940253,-0.0302 1.691136,0.4516 0.473782,0.30403 0.91487,0.55278 0.980194,0.55278 0.06532,0 0.470669,0.16541 0.900766,0.36758 0.579236,0.27227 0.956049,0.63775 1.453286,1.40956 0.396832,0.61597 0.797496,1.04262 0.979972,1.04353 0.316732,0.002 0.390708,0.2881 0.201614,0.78087 -0.11432,0.29791 -0.391951,0.35517 -0.698325,0.14402 z m 11.096093,-0.66824 c -0.15471,-0.40317 0.47035,-1.66033 0.98951,-1.99018 0.24731,-0.15713 1.06026,-0.81876 1.80656,-1.47028 1.57288,-1.37313 1.92993,-1.4831 4.27097,-1.31551 2.37113,0.16976 3.70329,0.47988 3.77961,0.87988 0.07,0.36685 0.10957,0.36765 -3.23604,-0.0658 -0.97132,-0.12584 -2.05839,-0.17395 -2.41569,-0.10692 -0.90934,0.17059 -4.28857,3.08224 -4.43668,3.82278 -0.11194,0.55971 -0.57963,0.71144 -0.75824,0.246 z m -5.52813,-6.63731 c -1.5e-4,-0.25028 0.78468,-0.35319 1.83539,-0.24067 1.38424,0.14824 3.07875,-0.19515 5.10789,-1.03511 0.84989,-0.35181 1.82896,-0.63229 2.20715,-0.63229 0.73618,0 1.60922,0.54178 1.60922,0.99862 0,0.19803 -0.14088,0.14891 -0.5427,-0.18919 -0.73302,-0.6168 -1.42862,-0.58654 -3.2035,0.13934 -0.8015,0.32779 -1.77477,0.69772 -2.16283,0.82206 -0.7316,0.23441 -4.8505,0.35095 -4.85062,0.13724 z m 6.34993,-4.38525 c -0.43656,-0.077 -1.72641,-0.19802 -2.86632,-0.26897 -1.13991,-0.0709 -2.07257,-0.18982 -2.07257,-0.26415 0,-0.19383 4.19548,-0.021 4.58785,0.18901 0.18031,0.0965 0.65056,0.17546 1.045,0.17546 0.39443,0 0.71715,0.0794 0.71715,0.17639 0,0.1973 -0.2563,0.1959 -1.41111,-0.008 z m 19.73797,50.32266 c 0.01,-0.12126 -0.0618,-0.22048 -0.15881,-0.22048 -0.097,0 -0.16847,0.29765 -0.1588,0.66146 0.0157,0.59032 0.0328,0.61403 0.1588,0.22048 0.0777,-0.24253 0.14914,-0.54019 0.15881,-0.66146 z m 3.80428,-3.83645 c 0.34891,-2.65553 0.3679,-6.36298 0.0332,-6.4914 -0.14866,-0.0571 -0.29727,-0.48939 -0.37097,-1.07932 -0.16573,-1.32648 -0.53619,-1.31262 -0.80411,0.0301 -0.11131,0.55783 -0.27718,1.30607 -0.3686,1.66276 -0.13033,0.50849 -0.0988,0.79414 0.14578,1.32292 0.17159,0.37091 0.43105,0.76724 0.57657,0.88072 0.30708,0.23947 0.3968,3.32393 0.18386,6.32006 -0.15107,2.12544 0.0233,2.69967 0.21418,0.70556 0.0743,-0.77612 0.24983,-2.28424 0.39005,-3.35139 z m -4.48859,0.81984 c -0.0696,-0.13175 -0.17759,0.25483 -0.24124,0.86372 -0.15266,1.46066 -0.14581,2.54827 0.0171,2.71269 0.17301,0.17463 0.3886,-3.26522 0.22415,-3.57641 z m -56.274417,2.48745 c 0.0032,-0.67252 -0.184146,-0.73832 -0.452539,-0.15896 -0.238517,0.51487 0.01949,1.41276 0.285208,0.99256 0.09055,-0.14319 0.165845,-0.51831 0.167331,-0.8336 z m 57.837387,-0.53958 c 0.0296,-0.82886 -0.28839,-0.53252 -0.42806,0.39887 -0.13842,0.92302 0.11284,1.53731 0.29203,0.71397 0.0633,-0.29104 0.12455,-0.79182 0.13603,-1.11284 z m -56.861094,-0.87106 c -0.0592,-0.31556 -0.175419,-0.57374 -0.258268,-0.57374 -0.276941,0 -0.285387,1.59484 -0.01197,2.2607 l 0.266788,0.64972 0.05554,-0.88147 c 0.03055,-0.48481 0.0071,-1.13966 -0.05209,-1.45521 z m 0.649185,0.62571 c -0.164629,-0.16463 -0.211666,-0.1176 -0.211666,0.21166 0,0.32926 0.04704,0.3763 0.211666,0.21167 0.16463,-0.16463 0.16463,-0.2587 0,-0.42333 z m 57.739889,-2.22057 c -0.22713,-0.22714 -0.26461,0.16738 -0.14032,1.47701 l 0.13251,1.3962 0.0519,-1.38861 c 0.0285,-0.76373 0.009,-1.4318 -0.0441,-1.4846 z m -55.467414,-0.11042 c -0.282803,-1.43096 -0.547022,-2.63458 -0.587155,-2.67471 -0.194048,-0.19405 -0.787942,3.24829 -0.685223,3.97169 0.10139,0.71405 0.16538,0.7966 0.728514,0.93985 0.339549,0.0864 0.691445,0.22889 0.781991,0.31669 0.09055,0.0878 0.189701,0.13457 0.220344,0.10393 0.03064,-0.0306 -0.175669,-1.2265 -0.458471,-2.65745 z m -3.025705,0.2937 c -0.0068,-0.16978 -0.08061,-0.46743 -0.163992,-0.66146 -0.121606,-0.283 -0.154046,-0.22193 -0.163991,0.30868 -0.0068,0.3638 0.06698,0.66146 0.163991,0.66146 0.09701,0 0.17081,-0.13891 0.163992,-0.30868 z m 59.085089,-1.95069 c 0.0112,-0.81871 -0.0468,-1.24944 -0.1588,-1.18022 -0.0991,0.0612 -0.16869,0.81958 -0.15881,1.7302 0.0209,1.92622 0.2902,1.45987 0.31761,-0.54998 z m -60.305473,-0.0778 c 0.0011,-0.50932 0.05109,-1.24354 0.111167,-1.63159 0.0835,-0.5394 0.06,-0.65966 -0.09981,-0.51067 -0.247859,0.23107 -0.584379,2.40105 -0.433379,2.79455 0.215271,0.56099 0.420146,0.24433 0.422025,-0.65229 z m 3.033724,-1.70654 c -0.02198,-1.01136 -0.07899,-1.87787 -0.126699,-1.92558 -0.337766,-0.33776 -0.508172,1.05994 -0.354354,2.9065 0.104765,1.25769 0.164526,1.47849 0.324702,1.19965 0.117744,-0.20497 0.180316,-1.07765 0.156351,-2.18057 z m 56.622099,0.7618 c 0.0938,-1.13122 -0.007,-1.87366 -0.23488,-1.73272 -0.20297,0.12544 -0.20457,2.72156 -0.002,2.72156 0.085,0 0.19145,-0.44498 0.23655,-0.98884 z m -58.260511,-3.50908 c -0.0079,-0.49112 -0.01993,-0.50075 -0.167417,-0.13394 -0.0874,0.21738 -0.202718,0.81269 -0.256256,1.32292 l -0.09734,0.92769 0.264759,-0.79375 c 0.145616,-0.43656 0.260931,-1.03187 0.256254,-1.32292 z m 0.880704,0.26459 c 0.0086,-0.23519 -0.0093,-0.23519 -0.16129,0 -0.09404,0.14552 -0.166624,0.42333 -0.161291,0.61736 l 0.0097,0.35278 0.151594,-0.35278 c 0.08338,-0.19403 0.155957,-0.47184 0.16129,-0.61736 z m -2.863019,0.3197 c -0.05631,-0.14071 -0.0981,-0.0989 -0.106568,0.10657 -0.0077,0.18594 0.03403,0.29012 0.09264,0.23151 0.05861,-0.0586 0.06488,-0.21075 0.01393,-0.33808 z M 70.71407,167.0934 c -0.04893,-0.12127 -0.08897,-0.0221 -0.08897,0.22048 0,0.24254 0.04004,0.34176 0.08897,0.22049 0.04893,-0.12127 0.04893,-0.31971 0,-0.44097 z m 2.172824,-1.96752 c 0.376958,-1.86223 0.387559,-2.78206 0.01564,-1.35695 -0.455379,1.74491 -0.528724,2.09924 -0.624253,3.01579 -0.148317,1.42301 0.148588,0.61376 0.608614,-1.65884 z m 1.590913,1.10885 c 0,-0.42546 -0.07003,-0.66228 -0.176389,-0.59654 -0.09701,0.06 -0.176389,0.42651 -0.176389,0.81457 0,0.42545 0.07003,0.66227 0.176389,0.59654 0.09701,-0.06 0.176389,-0.42652 0.176389,-0.81457 z m -0.729126,-0.94932 c -0.01465,-0.85316 -0.04427,-0.95575 -0.152818,-0.52917 -0.207932,0.81716 -0.207932,2.17384 0,1.85209 0.09404,-0.14552 0.162811,-0.74084 0.152818,-1.32292 z m 58.916279,-0.74965 c -0.0202,-1.306 -0.0291,-1.33416 -0.19858,-0.63099 -0.15889,0.65924 -0.0654,1.998 0.13956,1.998 0.0441,0 0.0707,-0.61516 0.059,-1.36701 z m 0.60141,-0.22066 c -0.12692,-0.48535 -0.22745,-0.44169 -0.22745,0.0988 0,0.24826 0.0719,0.40693 0.15983,0.3526 0.0879,-0.0543 0.11833,-0.25745 0.0676,-0.45138 z m 2.88699,-1.87671 c -0.0481,-0.30467 -0.0304,-0.82061 0.0393,-1.14652 0.0697,-0.32592 0.0771,-0.8307 0.0165,-1.12174 -0.1088,-0.52284 -0.11266,-0.51968 -0.32329,0.26459 -0.11724,0.43656 -0.30322,0.99218 -0.41329,1.23472 -0.24727,0.54488 -0.18626,1.10065 0.14135,1.28758 0.13596,0.0776 0.25224,0.31571 0.25839,0.52917 0.0106,0.36833 0.0203,0.36564 0.1898,-0.0529 0.0982,-0.24254 0.1393,-0.69026 0.0912,-0.99494 z m -60.082956,-0.79791 c 0.12136,-0.5495 0.15872,-1.14482 0.08302,-1.32292 -0.102575,-0.24134 -0.196755,-0.0542 -0.369762,0.73452 -0.271866,1.23948 -0.318904,2.26011 -0.08536,1.85208 0.08329,-0.14552 0.250736,-0.71418 0.372095,-1.26368 z m 58.267306,0.20535 c 0.13029,0 0.32889,-0.69642 0.51896,-1.81981 0.27978,-1.65369 0.28311,-1.8791 0.0365,-2.46944 -0.30187,-0.72249 -0.79045,-0.87582 -0.80538,-0.25277 -0.005,0.21828 -0.0773,1.03188 -0.16006,1.80799 -0.13808,1.29419 -0.0455,3.46754 0.12576,2.95364 0.0403,-0.12079 0.16819,-0.21961 0.28427,-0.21961 z m -60.783813,-0.39688 c 0.09769,-0.12127 0.232778,-0.47845 0.300196,-0.79375 0.09762,-0.45653 0.06585,-0.57326 -0.156021,-0.57326 -0.153229,0 -0.280492,0.0595 -0.282806,0.13229 -0.0023,0.0728 -0.07333,0.42995 -0.157814,0.79375 -0.154712,0.66622 -0.03203,0.84872 0.296445,0.44097 z m 2.234387,-2.24896 c 0.08198,-0.56347 0.06402,-0.71207 -0.06191,-0.51221 -0.09756,0.15485 -0.224995,0.6311 -0.283182,1.05834 -0.07123,0.52298 -0.051,0.69034 0.06191,0.51221 0.09224,-0.14552 0.219669,-0.62177 0.283182,-1.05834 z m -0.289052,-1.05719 c 0.31353,-1.00359 0.364949,-1.47527 0.275798,-2.52993 -0.108539,-1.28401 -0.113528,-1.29452 -0.523857,-1.10357 -0.544102,0.25319 -0.577633,0.36559 -0.709543,2.37845 -0.107227,1.63619 0.04239,2.48863 0.436795,2.48863 0.07448,0 0.308849,-0.55511 0.520807,-1.23358 z m 60.567648,0.34642 c 0.0324,-0.14838 -0.0205,-0.28976 -0.11755,-0.31416 -0.097,-0.0244 -0.20234,0.17638 -0.23406,0.44619 -0.0599,0.50943 0.23594,0.39835 0.35161,-0.13203 z m -3.73622,-1.44999 c -0.002,-0.30986 -0.0382,-0.34071 -0.16475,-0.14071 -0.0891,0.14088 -0.12291,0.31948 -0.0751,0.39687 0.15299,0.24755 0.24261,0.15183 0.23983,-0.25616 z m 3.24291,-0.35278 c 0.0585,-0.21828 0.10492,-0.47625 0.10316,-0.57326 -0.005,-0.26245 -0.52115,0.47007 -0.52115,0.73927 0,0.381 0.30373,0.26038 0.41799,-0.16601 z m 0.10101,-1.80798 c 0.001,-0.097 -0.14845,0.0198 -0.33273,0.25965 -0.18429,0.23982 -0.29027,0.50851 -0.23553,0.59709 0.10115,0.16366 0.564,-0.53417 0.56826,-0.85674 z m -58.129423,-0.35278 c 0.08644,-0.38646 0.07008,-0.45781 -0.06068,-0.26459 -0.09847,0.14553 -0.180261,0.41672 -0.181747,0.60267 -0.0036,0.45128 0.09735,0.31049 0.242427,-0.33808 z m -2.12478,-1.00654 c 0.116728,-0.44636 0.04444,-0.57852 -0.225279,-0.41183 -0.226373,0.13991 -0.253038,0.80101 -0.03231,0.80101 0.0857,0 0.201613,-0.17513 0.257587,-0.38918 z m 0.388751,-4.47598 c 0.101894,-0.62264 0.134408,-1.13207 0.07225,-1.13207 -0.174483,0 -0.521629,1.2951 -0.521629,1.94605 0,0.89012 0.242333,0.45118 0.449377,-0.81398 z m 61.252782,-2.16001 c 0.0631,-0.85665 -0.22312,-0.99401 -0.38497,-0.18473 -0.16371,0.81852 -0.13535,1.07394 0.11024,0.99318 0.12127,-0.0399 0.24489,-0.40368 0.27473,-0.80845 z m -2.67275,-2.94841 c 0.14284,-0.37224 -0.0956,-0.57321 -0.2988,-0.25187 -0.21594,0.34145 -0.21161,0.52406 0.0124,0.52406 0.10005,0 0.22892,-0.12249 0.28637,-0.27219 z m -0.90609,-1.49522 c -0.0521,-0.90483 -0.16901,-1.36244 -0.43412,-1.69948 -0.22407,-0.28486 -0.36814,-0.73882 -0.37674,-1.18711 -0.008,-0.39922 -0.0594,-0.6103 -0.115,-0.46906 -0.19333,0.49121 0.32683,4.13795 0.62381,4.37341 0.15295,0.12126 0.29954,0.22048 0.32573,0.22048 0.0262,0 0.0155,-0.55721 -0.0237,-1.23824 z m 0.96696,0.19032 c 0,-0.1883 -0.0794,-0.39143 -0.17639,-0.45138 -0.10004,-0.0618 -0.17639,0.0864 -0.17639,0.34236 0,0.24826 0.0794,0.45139 0.17639,0.45139 0.097,0 0.17639,-0.15407 0.17639,-0.34237 z m -0.88195,-2.92083 c 0,-0.24253 -0.0794,-0.44097 -0.17639,-0.44097 -0.097,0 -0.17638,0.19844 -0.17638,0.44097 0,0.24254 0.0794,0.44097 0.17638,0.44097 0.097,0 0.17639,-0.19843 0.17639,-0.44097 z M 79.9343,137.85694 c 0.226758,-1.40315 0.230427,-1.5875 0.03159,-1.5875 -0.086,0 -0.207185,0.37703 -0.269304,0.83785 -0.06212,0.46081 -0.158676,1.15534 -0.214571,1.5434 -0.07028,0.48796 -0.04479,0.65116 0.08269,0.52917 0.101372,-0.097 0.267691,-0.69233 0.369599,-1.32292 z m 54.6104,0.41348 c -0.0646,-0.34426 -0.15987,-0.58347 -0.21175,-0.53159 -0.0519,0.0519 -0.035,0.43703 0.0374,0.85588 0.0725,0.41884 0.16776,0.65806 0.21176,0.53158 0.044,-0.12647 0.0272,-0.51161 -0.0374,-0.85587 z m 0.15731,-1.7238 c -0.0649,-0.2585 -0.15198,-0.43598 -0.19356,-0.3944 -0.0416,0.0416 -0.0225,0.28709 0.0424,0.54559 0.0649,0.2585 0.15198,0.43598 0.19356,0.39441 0.0416,-0.0416 0.0225,-0.2871 -0.0424,-0.5456 z m -31.29643,-19.95164 c 0.24254,-0.12605 0.78848,-0.58626 1.21321,-1.02267 l 0.77223,-0.79349 -0.89204,-0.45203 c -0.49062,-0.24862 -0.94203,-0.53292 -1.00313,-0.63177 -0.21601,-0.34953 -0.91279,-0.17288 -1.42428,0.36108 -0.53944,0.56314 -0.65449,1.36243 -0.36318,2.5231 0.11145,0.44405 0.17484,0.4778 0.68948,0.367 0.31171,-0.0671 0.76518,-0.22516 1.00771,-0.35122 z m 2.37372,-1.12724 c 0.17673,-0.28596 -0.20731,-0.37286 -0.43505,-0.0984 -0.17723,0.21355 -0.16643,0.26264 0.0578,0.26264 0.15167,0 0.32144,-0.0739 0.37725,-0.1642 z m 30.64283,26.75482 c 0.031,-0.21828 0.13574,-0.39687 0.23276,-0.39687 0.097,0 0.20175,0.17859 0.23275,0.39687 0.0388,0.27308 -0.0338,0.39688 -0.23275,0.39688 -0.19894,0 -0.27154,-0.1238 -0.23276,-0.39688 z m -39.778709,-18.4449 c -0.413168,-0.45654 -0.64617,-1.90779 -0.64617,-4.02466 0,-1.22837 0.06461,-1.82801 0.196961,-1.82801 0.112673,0 0.155885,0.15708 0.100975,0.36706 -0.107524,0.41117 0.136397,4.04752 0.320606,4.77956 0.06537,0.25976 0.250361,0.52277 0.411096,0.58445 0.382456,0.14676 1.087028,-0.66248 1.087028,-1.24852 0,-0.60796 0.450756,-0.72022 1.39908,-0.34845 0.44318,0.17374 0.984373,0.31523 1.202653,0.31442 0.21828,-8.1e-4 0.39688,0.072 0.39688,0.16179 0,0.33554 -0.48714,0.33001 -1.245751,-0.0141 -1.130241,-0.51274 -1.363489,-0.47269 -1.500497,0.25762 -0.113024,0.60247 -0.775552,1.31983 -1.218953,1.31983 -0.117402,0 -0.34416,-0.14443 -0.503908,-0.32095 z m 9.475009,-3.47898 c -0.23928,-0.3652 -0.27266,-0.69964 -0.17965,-1.79997 0.0628,-0.74328 0.18482,-1.42201 0.27109,-1.50828 0.0915,-0.0915 0.51072,-3.2e-4 1.00673,0.21909 1.20429,0.53271 2.58768,0.54415 3.13927,0.026 0.34509,-0.32419 0.49166,-0.36324 0.7814,-0.20818 0.543,0.29061 0.78547,0.10568 1.52985,-1.16683 0.86776,-1.48341 1.03926,-1.14442 0.18964,0.37484 -0.69165,1.23678 -0.8146,1.32902 -1.61005,1.20786 -0.3567,-0.0543 -0.61599,0.0129 -0.77125,0.19999 -0.31603,0.38079 -2.61595,0.39769 -3.11151,0.0229 -0.55855,-0.42246 -0.90414,-0.32779 -1.0259,0.28102 -0.19594,0.97969 -0.12387,2.04012 0.15434,2.27101 0.14552,0.12077 0.26458,0.28924 0.26458,0.37438 0,0.30687 -0.35071,0.14553 -0.63854,-0.29375 z"
       id="path1" /></g></svg>
