<?xml version="1.0" encoding="UTF-8" standalone="no"?>
<svg
   version="1.0"
   width="521pt"
   height="573.29059pt"
   viewBox="0 0 521 573.29059"
   preserveAspectRatio="xMidYMid"
   id="svg47"
   sodipodi:docname="neutral.svg"
   inkscape:version="1.3 (0e150ed, 2023-07-21)"
   xmlns:inkscape="http://www.inkscape.org/namespaces/inkscape"
   xmlns:sodipodi="http://sodipodi.sourceforge.net/DTD/sodipodi-0.dtd"
   xmlns="http://www.w3.org/2000/svg"
   xmlns:svg="http://www.w3.org/2000/svg">
  <defs
     id="defs47" />
  <sodipodi:namedview
     id="namedview47"
     pagecolor="#ffffff"
     bordercolor="#000000"
     borderopacity="0.25"
     inkscape:showpageshadow="2"
     inkscape:pageopacity="0.0"
     inkscape:pagecheckerboard="0"
     inkscape:deskcolor="#d1d1d1"
     inkscape:document-units="pt"
     inkscape:zoom="1"
     inkscape:cx="289"
     inkscape:cy="497.5"
     inkscape:window-width="1680"
     inkscape:window-height="1194"
     inkscape:window-x="0"
     inkscape:window-y="25"
     inkscape:window-maximized="0"
     inkscape:current-layer="svg47" />
  <g
     transform="matrix(0.1,0,0,-0.1,-21,579.85932)"
     fill="#000000"
     stroke="none"
     id="g47">
    <path
       id="path1"
       d="m 3679.6289,5798.3735 c -36.875,0.875 -74.1289,-0.876 -94.6289,-5.376 -151.9992,-34 -314.0063,-123.9916 -441.0059,-245.9912 -22.9996,-21 -52.9951,-44.0059 -64.9951,-51.0059 -13,-6 -38.0049,-36.9941 -55.0049,-68.9941 l -30,-57.0117 -38.9941,40.0049 c -21,20.9996 -68,55.0039 -105,74.0039 -36,18.9996 -75.0049,44.997 -85.0049,56.997 -11,11 -31.9922,26.9955 -46.9922,34.9951 -34.9996,18 -125.0078,18.0036 -178.0078,-0.996 -58.9996,-21 -74.001,-19.0036 -146.001,15.996 -79.9996,40 -125.9945,36.0036 -233.9941,-15.996 -65.9996,-32 -81.0049,-35.9961 -130.0049,-30.9961 -30,3 -87.0023,1.9931 -127.0019,-2.0069 l -71.9971,-7.998 -82.9981,-85.0049 c -45.9996,-48 -98.0052,-92.9971 -115.0048,-101.9971 -30,-16 -31.9981,-15.997 -37.9981,3.003 -7,20.9996 -22.001,24.997 -41.001,11.997 -5,-4 -35.9873,-41.9945 -66.9873,-83.9941 -46.9996,-64 -67.0013,-82.0069 -116.0009,-107.0069 -33,-15.9996 -87.0004,-47.9902 -120,-69.9902 -33,-23 -70.002,-41.001 -82.002,-41.001 -14,0 -19.0107,-5.0039 -16.0107,-14.0039 3,-7 -9.9893,-28.0068 -28.9893,-47.0068 -18,-18 -41.0059,-52.9883 -51.0059,-77.9883 -23.9996,-63.9996 -80.99417,-151.0107 -98.99409,-151.0107 -8,0 -17.00977,-6.9893 -20.00977,-13.9893 -8.99996,-23 -111.98926,-97.001 -118.98926,-86.001 -18.99992,30 -120.00227,-2.0101 -202.00195,-65.0097 -38.99984,-30 -49.00586,-33.9951 -51.00586,-19.9951 -4.99996,22.9996 -25.99219,13.0035 -31.99219,-15.9961 -4.99996,-25 -55.99824,-94.0079 -97.99804,-133.0079 -128.99952,-117.9992 -168.01176,-173.9964 -177.01172,-255.996 -3,-30 -12.99125,-92.9952 -20.99121,-139.9952 -24.99992,-145.9992 -40.00094,-568.0092 -26.00098,-759.0088 5.99996,-90.9996 18.00098,-188.9912 26.00098,-215.9912 7.99996,-27.9996 15.99902,-98.0062 18.99902,-156.0058 3,-58 11.99512,-120.9955 19.99512,-139.9951 7.99996,-19 20.00101,-80.9991 26.00097,-138.9991 9.99996,-102.9996 28.002,-185.997 37.00196,-176.997 2.99996,2 -0.006,25.998 -6.00586,52.998 -6,27 -14.99512,93.9893 -19.99512,148.9893 -5,54.9996 -15.99418,114.0052 -23.99414,130.0048 -10.99996,21 -16.01074,58.0004 -16.01074,120 0,60 -6.99516,113.0053 -19.99512,160.0049 -17.99992,62 -20.00586,98.9963 -21.00586,334.9951 0,297.9992 1.0127,353.0075 8.0127,328.0079 1.99996,-10 10.99515,-18.003 19.99511,-18.003 11.99996,0 13.99801,5.9932 7.99805,27.9932 -4,15 -8.99707,61.0082 -11.99707,103.0078 -5,69.9996 -3.00871,80.9961 20.99121,120.9961 14.99996,26 26.00098,59.9951 26.00098,79.9951 0,45 33.00695,151.0059 62.00683,201.0059 18.99992,30.9996 37.00513,44.001 100.00489,71.001 64.99972,27.9996 91.99055,47.9906 174.99023,129.9902 56.99976,55.9996 106.00785,96.0059 118.00781,96.0059 13.99996,0 16.00192,2.998 7.00196,7.998 -9,6 2.99039,21.002 39.99023,52.002 32.99988,28.9996 49.00387,37.0048 44.00391,25.0048 -17.99996,-41.9996 -19.00676,-75 -2.00684,-75 8.99996,0 16.01074,6.9961 16.01074,15.9961 0,9 10.002,32.0059 22.00196,51.0059 l 20.99121,34.9951 18.99902,-48.0029 c 27.99988,-75 24.00171,-92.9975 -37.99805,-176.9971 -49.9998,-67.9996 -62.99242,-79.0039 -121.99218,-104.0039 -74.99972,-31 -132.00716,-84.0043 -212.00684,-194.0039 l -53.99414,-73.9893 41.99707,35.9912 c 22.99992,19 68.99332,65.0118 102.99316,102.0118 33.99988,36.9996 70.0059,71.9882 81.00586,77.9882 21.99992,12 21.00281,8.9987 -11.99707,-41.0009 -8.99996,-14 -21.00785,-36.9877 -28.00781,-51.9873 -9.99996,-25 -8.99797,-28.0078 7.00195,-28.0078 11.99996,0 21.00489,10.0009 25.00489,26.0009 3.99996,15 35.99719,56.0069 71.99707,92.0069 61.99972,61.9996 65.99332,63.9931 102.99316,57.9931 20.99992,-3 41.00391,-3.0039 44.00391,0.9961 10.99996,10 -13.99911,33.003 -33.99903,33.003 -15.99992,0 -11.99886,10.0023 26.00098,67.0019 49.9998,74.9996 56,113.001 30,176.001 -7.99996,20 -15,46.9961 -15,60.9961 0,29.9996 39.00204,76.9974 97.002,116.997 40.9996,29 44.997,30.0075 56.997,13.0079 12,-16 19.0053,-12.0098 85.0049,39.9902 39,32 105.9893,78.0078 148.9893,103.0078 154.9992,92.9996 394.0088,192.9932 459.0088,192.9932 71.9996,0 145.9941,-43.9887 158.9941,-92.9883 8,-36 28.9994,-51.0127 108.999,-83.0127 39,-15 83.0088,-35.9922 99.0088,-46.9922 l 27.9932,-19.9951 -87.9932,-32.0068 c -48.9996,-18 -108.0049,-41.9942 -130.0049,-53.9942 l -41.001,-22.0019 -93.999,20.9912 c -51.9996,11 -109.9941,26.999 -128.9941,33.999 -22,9 -87.0102,15.0068 -170.0098,17.0068 l -135,3.003 L 1350,4809.9995 c -87.9996,-60 -182.9932,-153.001 -177.9932,-176.001 5,-27 26.9877,-27.9961 36.9873,-0.9961 20,51.9996 211.0108,204.0006 241.0108,191.001 8,-4 70.9955,-10.0043 139.9951,-14.0039 84.9996,-5 155.9932,-15.9991 222.9932,-33.9991 119.9992,-31.9996 139.0013,-32.0068 191.0009,-2.0068 42,25 185.0069,76.0107 212.0069,76.0107 31.9996,0 23.0035,-30.0111 -30.9961,-106.0107 -64,-88.9996 -109.0108,-172.9893 -136.0108,-253.9893 -9,-29.9996 -23.9925,-72.999 -31.9921,-93.999 l -15,-40.0049 -148.0079,-3.0029 c -199.9992,-4 -342.0013,-17.9912 -371.0009,-35.9912 -6,-4 -12.9961,-1.0049 -15.9961,4.9951 -3,10 -9.001,10.9961 -26.001,0.9961 -11,-7 -27.9912,-12.9932 -35.9912,-12.9932 -8,0 -15,-4.0052 -15,-10.0048 0,-13 2.9951,-12.9932 34.9951,2.0068 21,10 27.9951,8.9928 34.9951,-2.0068 7,-12 12.0078,-10.9971 28.0078,3.0029 11,10 36.003,17.0029 63.003,18.0029 23.9996,0 90.9896,5.9932 148.9892,12.9932 83.9996,10 289.001,12.0029 296.001,3.0029 1,-1 4.0059,-26.0049 6.0059,-55.0049 l 4.9951,-52.998 -48.9991,-25.0049 c -27.9996,-14 -50.998,-23.9873 -52.998,-21.9873 -1,2 -8.0039,13.001 -14.0039,26.001 -14,26.9996 -30.9916,27.9918 -80.9912,1.9922 L 1770,4190.0043 v 20.9912 c 0,23 -14.9994,23.0075 -78.999,-1.9921 -27,-11 -34.9981,-10.9961 -37.9981,-0.9961 -6,16.9996 -21.0101,14.9869 -50.0097,-8.0127 -31,-24 -42.9932,-24.9951 -42.9932,-4.9951 0,16.9996 -9.0039,19.0058 -29.0039,6.0058 -10,-7 -18.9971,-3.998 -26.9971,7.002 -11,15.9996 -13.9922,14.9892 -31.9922,-1.0108 -16.9996,-15 -21.0068,-15.9922 -32.0068,-1.9922 -9,10 -17,11.9948 -30,4.9952 -17,-9 -19.0049,-3.9971 -25.0049,48.0029 -4,30.9996 -10.9961,71.0039 -15.9961,89.0039 -18,55.9996 -1.0029,128.9961 41.9971,180.9961 43.9996,52.9996 76.9971,70.9971 131.9971,71.9971 23.9996,0 53.014,9.997 79.0136,26.997 33,23 52.9975,28.0078 101.9971,28.0078 44,1 78.9916,8.9893 125.9912,28.9893 36,16 82.0082,31.0029 103.0078,33.0029 20,3 37.002,10 37.002,15 0,15 -55.0102,1.9971 -140.0098,-33.0029 -56.9996,-24 -88.9906,-31 -129.9902,-30 -46,1 -64.0082,-3.9893 -103.0078,-28.9893 -28,-17 -60.9955,-30 -79.9951,-30 -77,0 -134.9981,-40.0043 -172.9981,-119.0039 -14,-28.9996 -14.998,-48.0049 -7.998,-115.0049 4,-44.9996 6.9912,-126 5.9912,-180 -1,-94.9996 -2.9916,-101 -35.9912,-150 -36,-52.9996 -47.0131,-82.0004 -68.0127,-180 -15,-67.9996 -37.9981,-86.9882 -37.9981,-32.9882 0,18.9996 10.0059,55.9873 21.0059,81.9873 21,48.9996 21.999,75.0101 3.999,185.0097 -5,33 -3.0039,36.9971 45.9961,71.9971 42,30 49.0094,39.0039 35.0098,44.0039 -11,4 -33.0069,-5.0049 -62.0069,-25.0049 l -44.0039,-32.0068 v 24.0088 c 0,14 17.002,56.9912 37.002,95.9912 l 37.0019,72.0117 -12.9931,67.002 c -15,76.9996 -46.0092,155.9941 -69.0088,173.9941 -8,7 -13.001,9.0029 -11.001,3.0029 3,-5 15.001,-30.0052 26.001,-55.0048 12,-25 28.998,-77.0053 37.998,-115.0049 l 16.0108,-71.001 L 1245,4285.9955 c -19,-36.9996 -34.9951,-81.9941 -34.9951,-98.9941 0,-26 -9.0059,-41.0033 -51.0059,-78.0029 -65.9996,-58 -59.0019,-84.999 7.9981,-33.999 24.9996,18.9996 48.998,34.9951 52.998,34.9951 4,0 13.0098,-28.9955 20.0098,-64.9951 11,-58 9.9902,-71.002 -5.0098,-112.002 l -17.9883,-45.9961 -108.0029,6.0059 -108.999,6.9873 -6.00588,-26.001 c -5.99996,-22 -7.99812,-22.9863 -22.99804,-10.9863 -8.99996,8 -22.99614,15.999 -30.9961,18.999 -7.99996,3 -22.01078,18.999 -31.01074,33.999 -15.99992,27 -15.99699,31.9916 3.00293,80.9912 10.99996,32 27.00883,54.0078 39.00879,58.0078 9.99996,4 18.99902,15.001 18.99902,26.001 0,32 27.98946,88.9893 43.98922,88.9893 16,0 58.0092,81.0053 99.0088,190.0049 13,35.9996 27.9922,74.0048 31.9922,85.0048 6,15 5.001,16.9942 -3.999,8.9942 -7,-6 -26.9961,-51.9932 -45.9961,-102.9932 -41,-110.9996 -74.0072,-171.0058 -92.0068,-171.0058 -15.00008,0 -42.9932,-57.0014 -42.9932,-86.001 0,-9 -11.00496,-24.9912 -25.00488,-35.9912 -12.99996,-10 -29.99125,-37.0043 -35.99121,-59.0039 -11.99996,-37 -31.00395,-50 -44.00391,-30 -3,5 -20.00203,12.9961 -37.00195,15.9961 -17.99996,3.9996 -49.00497,24.9964 -70.00489,45.996 -29.99988,30 -37.99414,47.0108 -38.99414,76.0108 l -0.99609,37.998 -11.99707,-48.999 c -10.99996,-44.9996 -15.0002,-49.0062 -60,-66.0058 -53.9998,-21 -61.00215,-28.9975 -112.00195,-116.9971 -19.99992,-35 -40.00004,-63.0029 -45,-63.0029 -5,0 -9.00879,15.0029 -9.00879,33.0029 -1,27 -4.99032,20.998 -24.99024,-37.002 -30.99988,-86.9996 -30.99988,-98.9957 0,-60.9961 13.99996,17 24.99024,26.9942 24.99024,23.9942 0,-9 -45.99622,-120.9991 -75.9961,-183.9991 -27.99988,-57.9996 -29,-65.0004 -30,-225 -1,-90.9996 -6.9932,-203.0052 -12.99316,-250.0048 -20.99992,-156.9996 -12.00672,-540 12.99316,-540 8,0 10.00192,63.0017 7.00196,221.0009 -3,195.9992 9.00105,395.0069 26.00097,422.0069 2,4 16.00008,-15.0082 30,-43.0078 27.99992,-57 27.99992,-115.9903 0,-174.9903 -21.99988,-45.9996 -40.00777,-258.9984 -28.00781,-322.998 7.99996,-41 7.00094,-70.0098 -3.99902,-125.0098 -7.99996,-39.9996 -15.99903,-149.0033 -18.99903,-243.0029 -4.99996,-175.9992 -6.00117,-183.9926 -56.00097,-271.9922 l -17.98828,-33.0029 -18.00293,52.998 c -16.99996,49 -19.00196,50.9977 -22.00196,22.9981 -1.99996,-16 0.99809,-51.9952 7.99805,-79.9952 10.99996,-46.9996 9.99992,-53.0019 -15,-97.0019 -14.99996,-26 -31.00586,-49.9981 -36.00586,-52.9981 C 213.99418,1880.9998 210,1869.0063 210,1857.0063 v -22.002 l 12.99316,20.9912 c 6,12 25.00106,43.0092 41.00098,69.0088 27.99988,46 29.00102,46.9899 41.00098,24.9903 14.99992,-28 -5.99723,-88.9883 -41.99707,-122.9883 -11.99996,-12 -22.99805,-33.0069 -22.99805,-47.0069 0,-13.9996 -6.00391,-47.9964 -14.00391,-75.996 -10.99996,-43 -10.99605,-61.0004 -0.99609,-105 7.99996,-31 14.00391,-43.0036 14.00391,-29.004 1,30 43.99617,124.0004 60.99609,135 8.99996,6 10.99508,-6.9941 4.99512,-53.9941 -8.99996,-75.9996 1.9991,-184.0078 18.99902,-178.0078 5.99996,2 14.00293,33.0088 18.00293,69.0088 5.99996,62.9996 30.99621,134.9935 60.99609,177.9931 12.99996,19 16.00989,18.0049 50.00977,-34.9951 31.99988,-48.9996 33.99117,-57.0049 20.99121,-70.0049 -8.99996,-7.9996 -18.99415,-15 -23.99414,-15 -4,0 -16.00492,-32.9935 -25.00488,-72.9931 -9.99996,-39 -23.9961,-84.0088 -30.9961,-99.0088 -15.99992,-31 -17.00578,-37.9981 -6.00586,-37.9981 9,0 47.01176,103.9985 57.01172,157.9981 4,18 14.99418,35.9971 23.99414,41.9971 9.99996,5 27.99422,35.0023 38.99414,67.0019 11.99996,32 28.0059,67.0033 36.00586,78.0029 14.99996,19 14.9961,18.9981 15.9961,-7.0019 0,-18 9.00496,-33.0039 25.00488,-44.0039 34.99987,-23 52.0048,-7.9977 25.00488,22.0019 -15.99992,16 -21.0107,30.003 -16.01074,48.003 6.99996,29.9996 58.0011,60.0058 86.00098,51.0058 22.99988,-7 83.99996,-75.0088 75,-84.0088 -4,-3 -11.99903,2.0118 -18.99903,12.0118 -18.99992,24.9996 -25.99511,20.999 -19.99511,-11.001 4.99996,-25 -9.00541,-42.0008 -145.00489,-180 C 487.99645,1458.0067 420,1384.9946 420,1379.9946 c 0,-5 2.99805,-10.9932 7.99805,-12.9932 6.99996,-5 153.99551,132.9955 244.99511,229.9951 25.99992,28 49.0059,48 51.00586,45 2,-4 7.00098,-21.9902 11.00098,-39.9902 5.99996,-31 29.00102,-52.0088 41.00098,-39.0088 2.99996,2 -2.99711,27.9971 -11.99707,56.9971 -14.99996,44.9996 -15.0068,53.0058 -2.00684,66.0058 11.99996,12 21.00993,4.0065 65.00977,-57.9931 27.99988,-40 82.98844,-110.0059 122.98828,-156.0059 l 72.01168,-82.998 -28.00778,-30.9961 c -33.99984,-35 -74.99328,-58.0079 -102.99316,-58.0079 -9.99996,0 -47.00598,21.0069 -81.00586,47.0069 -68.99972,51.9996 -123.00712,63.9892 -197.00684,43.9892 -69.99972,-18.9996 -143.99406,-97.9886 -128.99414,-137.9882 4,-11 14.99813,-3.0065 37.99805,27.9931 47.9998,61 76.9993,79.0049 138.99902,85.0049 48.9998,5 58.00798,2.9922 103.00782,-28.0078 85.99964,-58.9996 104.9943,-66.9961 143.99414,-60.9961 44.9998,7 95.00685,35.0049 122.00685,70.0049 33.9996,43.9996 49.9951,24.9892 49.9951,-61.0108 0,-72.9996 12.9971,-105.9941 26.9971,-68.9941 4,10 7.998,45.9955 7.998,79.9951 0,35 1.0069,63.0029 2.0069,63.0029 2,0 13.9931,-21.9951 27.9931,-49.9951 30,-57.9996 61.0043,-90 89.0039,-90 31,0 78.0059,35.001 96.0059,71.001 l 16.9922,31.9922 32.0068,-48.0029 c 17,-25 39.9951,-62.9981 49.9951,-82.9981 11,-20 46.003,-65.9971 78.003,-101.9971 32.9996,-35.9996 65.0009,-78.9951 71.0009,-94.99507 33,-81.99968 185.0028,-165.99735 427.002,-236.99707 109.9996,-31.99988 334.9914,-28.01351 639.9902,10.98633 114.9996,14.99996 223.0053,51.01286 295.0049,98.0127 25,15.99992 35.9941,20.00093 38.9941,11.00097 7,-19.99992 103.003,-139.0039 108.003,-134.0039 3,1.99996 -12.9955,26.99035 -34.9951,54.99023 -57,70.99972 -50.9987,95.00915 41.0009,189.00879 40,39.99992 105.9932,97.99842 147.9932,127.99802 42,29 105.0098,87.9942 140.0098,128.9942 l 63.999,75 33.999,-37.9981 c 19,-20 49.9906,-54.9922 69.9902,-76.9922 76,-83.9996 138.0043,-162.0049 164.0039,-205.00485 29,-48.9998 96.004,-123.99703 104.004,-116.99707 2,3 -17.9965,29.99621 -45.9961,60.99609 -28,30.99988 -51.0059,62.00883 -51.0059,69.00883 0,12.9996 -62.0033,88.9867 -168.0029,205.9863 -37,40.9996 -72.9955,82.0029 -79.9951,93.0029 -15,20 -12.0006,23.0112 123.999,166.0108 17,17.9996 45.999,59.9951 63.999,94.9951 33,60.9996 90.0049,145.9974 100.0049,146.997 3,0 3.9922,-41.9925 1.9922,-91.9921 -2,-80 0,-96.0079 18.0029,-118.0079 19,-24.9996 19.9951,-25.0029 19.9951,-3.0029 0,12 -3.9902,25.0078 -9.9902,28.0078 -11,7 -12.999,128.002 -3.999,187.002 4,23 11.9951,37.998 19.9951,37.998 11,0 11.9922,3.9991 1.9922,18.9991 -9,14.9996 -5.9981,28.9925 22.0019,76.9921 18,33 34.0059,61.0069 36.0059,62.0069 5,7 95.001,-60.0039 101.001,-74.0039 3,-8 -2.9971,-25.9971 -11.9971,-41.9971 l -18.0029,-26.9971 26.997,23.9942 c 16,16 30.0059,21 36.0059,15 29,-29 59.0006,-242.0014 41.001,-296.001 -6,-18 -15.0059,-65.9922 -21.0059,-106.9922 -6,-40.9996 -17.0049,-94.0078 -25.0049,-118.0078 -18,-52 -18.9951,-63.0029 -4.9951,-63.0029 15,0 60,107.0062 60,141.0058 0,16 8.9951,70.0004 19.9951,120 11,50 19.0029,105.9955 18.0029,124.9951 -2,36 15.9965,64.9991 30.9961,48.9991 4,-6 4,-53.0004 0,-105 -11.9996,-142.9996 6.0043,-233.9936 59.0039,-297.9932 53,-62.9996 68.9961,-76.0029 75.9961,-63.0029 4,6 -14.9974,37.0013 -41.997,71.0009 -38,47 -50.9932,71.9981 -57.9932,112.9981 -12,73.9996 -7.0029,206.0072 11.9971,317.0068 9,57 14.9931,135.0004 12.9931,195 -2,55 1.0059,106.9903 6.0059,114.9903 6,9 8.0059,79.0004 6.0059,165 -4,180.9992 4.9902,271.0039 24.9902,254.0039 22,-18 35.999,-0.9912 18.999,24.0088 -8,12 -15,28.9941 -15,38.9941 0,18 38.001,90.9994 71.001,138.999 10,15 35.0049,56.9955 55.0049,94.9951 20,38 45.0049,78.0004 55.0049,90 24.9996,27 23.9941,33.9991 -6.0059,33.9991 -14,0 -25.0049,-3.9942 -25.0049,-8.9942 0,-5 -13,-13.999 -30,-18.999 l -30,-11.001 15,30 c 9,16 18.002,66.002 22.002,112.002 4,61.9996 15,106.9955 45,184.9951 21.9996,55.9996 43.0029,101.9971 48.0029,101.9971 5,0 14.9984,19.0078 22.998,43.0078 14,37.9996 14.9961,38.9931 15.9961,12.9931 1,-17.9996 13.0098,-39.9925 35.0098,-61.9921 l 33.999,-33.9991 -25.0049,-97.998 c -14.9996,-53 -32.997,-106.001 -41.997,-116.001 -12,-14 -13.0026,-19.998 -3.003,-22.998 19,-7 14.001,-36.0108 -18.999,-106.0108 -17,-36.9996 -33.0058,-90.999 -36.0058,-123.999 -4,-32 -12.9952,-63.9971 -19.9952,-71.9971 -8.9996,-9 -11.998,-23.0049 -7.998,-40.0049 4,-13.9996 10.0039,-69.999 14.0039,-123.999 l 7.9981,-97.998 45,-46.9922 c 24.9996,-26 59.999,-74.0069 78.999,-107.0069 28.9996,-51.9996 34.0019,-71.0052 37.0019,-145.0048 3,-64 -3e-4,-94.0004 -11.997,-120 -15,-33 -16.0108,-13.9977 -1.0108,22.0019 10,25 -20.9951,24.0039 -34.9951,-0.9961 -5,-11 -10.0049,-58 -10.0049,-105 0,-75.9996 3.001,-87.0049 26.001,-115.0049 22,-26.9996 26.001,-39.9961 26.001,-105.9961 1,-41.9996 4.0088,-77.9951 9.0088,-79.9951 4,-3 4.9921,-14.0049 1.9921,-25.0049 -5.9996,-21.9996 7.0092,-25.9941 24.0088,-8.9941 8,8 13.9873,4.9951 21.9873,-10.0049 9,-17 18.0092,-20 39.0088,-15 30,7 61.9922,32.0069 61.9922,47.0069 0,6 -10.0019,0.9951 -22.0019,-10.0049 -34,-32 -58.9922,-32.0065 -76.9922,-2.0069 -21,37 -9.0055,61.9991 23.9941,48.9991 60,-23 150.0014,3.0033 221.001,63.0029 18,15 34.0019,26.9971 37.0019,26.9971 4,0 23.0079,-10.9903 43.0079,-24.9903 52.9996,-35.9996 111.998,-31.0029 127.998,11.9971 6,14 1.9932,13.0049 -17.0068,-4.9951 -13,-12 -31.001,-22.002 -41.001,-22.002 -23,0 -68.9971,24.9961 -86.9971,45.9961 -12,16 -12.0006,17.001 3.999,11.001 73,-27 156.9965,-14.0006 210.9961,33.999 33,29 117.0049,174.0059 115.0049,201.0059 0,7 -16.998,-22.0098 -37.998,-65.0098 -62,-127.9996 -111.0004,-166.9922 -210,-166.9922 -66,0 -78.001,7.9916 -56.001,35.9912 23,30 16.9941,40.0049 -6.0059,10.0049 -10.9996,-14 -24.9961,-26.001 -30.9961,-26.001 -19.9996,0 -67.996,41.9981 -60.996,52.9981 8.9996,14 4.998,47.0068 -7.002,62.0068 -4,6 -2.9971,35.002 3.0029,67.002 9,50.9996 8.0026,59.999 -11.997,93.999 -12,20 -27.0069,61.9961 -32.0069,90.9961 -19,98.9996 -43.9945,142.9932 -128.9941,222.9932 l -80.0098,75 -24.9902,127.0019 c -28,143.9996 -30.0078,168.003 -13.0078,168.0029 9,0 8.9961,3.001 0.9961,11.001 -16,16 -32.9883,2.0026 -32.9883,-26.997 0,-32 27.9961,-183.0053 45.9961,-250.0049 12,-45 24.001,-61.0053 86.001,-115.0049 77.9996,-68.9996 109.998,-124.9942 127.998,-218.9942 5,-28.9996 19.9961,-67.997 30.9961,-86.997 21,-33 21.0088,-38.9965 9.0088,-105.9961 -7,-40 -14,-88.0069 -15,-107.0069 -3,-56.9996 -16.0039,-100.0048 -29.0039,-100.0048 -6,0 -32.001,20 -56.001,45 -24,23.9996 -47.0059,42.0088 -51.0059,39.0088 -5,-3 -12.999,-23.004 -18.999,-44.004 -10,-35.9996 -30,-55.9996 -30,-30 0,6 -8.9951,10.0049 -19.9951,10.0049 -11,0 -19.9951,6.9961 -19.9951,15.9961 0,8 -11.0049,30.003 -25.0049,48.003 -31,40.9996 -31.0039,59.9925 0.9961,151.9921 23,63 26.0019,86.0024 22.0019,157.002 -3.9996,72.9996 -8.9974,92.0033 -41.997,153.0029 -21,38 -56.003,87.9955 -78.003,109.9951 -33.9996,35 -37.0019,42.003 -22.0019,48.003 15,6 15.998,14.0088 7.998,69.0088 -4,33.9996 -7.998,113.9974 -7.998,176.997 0,106.9996 3.0072,120.0024 32.0068,187.002 18,38.9996 31.9922,81.9912 31.9922,95.9912 0,29 21.0069,48.9961 47.0069,45.9961 9.9996,-1 25.0029,0.014 33.0029,4.0137 8,3 26.9971,7.9863 41.9971,10.9863 l 26.0009,6.0058 L 4650,2950.9955 c -10,-31.9996 -19.9941,-63.9941 -23.9941,-68.9941 -10,-17 -38.0069,-192.9951 -32.0069,-199.9951 14,-13 24.9955,16.9883 34.9951,92.9883 13,89.9996 23.0088,108.0123 39.0088,68.0127 25,-61 29.9961,-111.0137 15.9961,-139.0137 -18,-33 -18,-43.9893 0,-43.9893 10,0 15.003,-23.0078 18.003,-88.0078 6.9996,-123.9996 31.9951,-175.9941 94.9951,-203.9941 26.9996,-12 75.0029,-48.002 108.0029,-82.002 52.9996,-52.9996 63.9932,-70.9945 87.9932,-143.9941 l 27.0117,-82.002 -20.0098,-33.0029 c -23,-38 -25.9912,-67.0019 -5.9912,-67.002 20,0 28.9889,16.9942 13.9893,23.9942 -7,4 -1.9883,4.0107 12.0117,1.0107 14,-2 34,-5.0097 45,-5.0097 13,-1 2.9918,-10.001 -28.0078,-26.001 -27,-14 -47.0039,-28 -44.0039,-30 3,-3 24.0029,4.0068 48.0029,17.0068 24,12 77.0078,25.9961 118.0078,30.9961 42,5 95,18.0039 120,29.0039 24,10 49.9932,18.9991 57.9932,18.999 7,0 18.0088,12.001 24.0088,26.001 5,15 20.999,40.001 33.999,56.001 14,16 24.9902,33.9941 24.9902,38.9941 0,16 -27.9971,10.0059 -41.9971,-8.9941 -17.9996,-25 -72.9964,-62.0068 -90.996,-62.0068 -47,0 -105.9981,131.0043 -127.9981,284.0039 -6,42.9996 -25.0078,118.9951 -43.0078,169.9951 -25,68.9996 -31.001,100.0127 -26.001,128.0127 4,20 3.0078,34.9922 -1.9922,31.9922 -4,-3 -7.998,-11.9955 -7.998,-19.9951 0,-8 -4.0088,-14.0039 -9.0088,-14.004 -20,0 -24.0016,90.003 -7.002,153.003 8,33.9996 25.002,102.9922 37.002,151.9922 31,127.9992 27.0078,119.0107 43.0078,106.0107 11,-9 15.9902,-5.0045 24.9902,19.9951 6,18 11.001,42.9971 11.001,56.9971 0,25 -1,25.0055 -15,6.0059 -18,-24 -18,-27.0071 0,91.9921 8,55 28,137.0069 45,182.0069 36,97.9996 39.0049,146.0039 10.0049,164.0039 -30,19 -24.9928,62.9906 17.0068,174.9902 20,54 36.9873,114.0082 36.9873,133.0078 1,33 -0.9886,34.9912 -32.9882,35.9912 -22,0 -36.0079,6.0098 -43.0079,20.0098 -5.9996,10 -19.9964,25.9951 -30.996,34.9951 -30,24 -25.0075,80.0063 16.9921,186.0059 20,50.9996 36.0059,98.9883 36.0059,107.9883 0,25.9996 -27.9971,28.0058 -86.9971,6.0058 -55.9996,-22 -71.0078,-18.9957 -73.0078,14.0039 -19,314.9988 -23.9994,335.9952 -108.999,394.9952 -46,31.9996 -58.9893,49.0039 -73.9893,89.0039 -9,26.9996 -33.0127,72.9935 -53.0127,102.9931 -48.9996,71.9996 -79.9886,133.9981 -92.9882,187.9981 -21,80.9996 -33.002,102.0013 -67.002,116.0009 -19,8 -45.0039,14.004 -59.0039,14.004 -39,0 -70.0059,39.0039 -96.0059,119.0039 -21.9996,69.9996 -36,89.9961 -90,135.9961 -12.9996,11.9996 -38.997,41.9941 -56.997,68.9941 l -33.003,49.0137 -92.9882,-7.002 -93.9991,-7.0019 -31.0107,39.9902 c -32,40 -60.9994,54.0059 -138.999,66.0059 -33,4.9996 -57.9971,20.0039 -101.9971,59.0039 -32,28.9996 -75.9984,57.999 -97.998,63.999 -19,6 -55.4981,9.4961 -92.3731,10.3711 z m -12.5098,-27.9932 c 44.875,1.875 83.377,-4.876 113.877,-20.376 21,-11 52.0023,-34.0058 67.0019,-51.0058 35,-40 63.9965,-54.9981 135.9961,-67.9981 48,-9 67.003,-18.9974 108.003,-56.997 l 48.999,-45 88.0078,5.9912 86.9971,7.0019 31.9922,-48.999 c 17.9996,-27 49.0013,-63.9912 71.0009,-80.9912 32,-26 44.0098,-46.0098 65.0098,-110.0098 31,-92.9996 54.9893,-119.001 118.9893,-131.001 61.9996,-10.9996 71.0068,-20.9994 92.0068,-93.999 9,-33.9996 30.999,-88.9922 48.999,-121.9922 17,-32.9996 31.999,-62.0097 33.999,-65.0097 3,-7 -125.0009,4.0049 -131.0009,10.0049 -2,2.9996 -37.9916,50 -80.9912,105 -87,110.9992 -121.0063,134 -201.0059,135 -28,0 -56.0029,4.997 -63.0029,11.997 -7,7 -11.9971,36.0098 -11.9971,65.0098 0,51.9996 -21.9951,92.9883 -49.9951,92.9883 -6,0 -28.9981,9.0097 -52.9981,20.0097 -54.9996,26 -226.0033,83.9893 -303.0029,103.9893 -34,9 -90.0098,16.0107 -125.0098,16.0107 -96.9996,0 -102.9951,3.9981 -124.9951,67.9981 -18,53.9996 -21.0049,57 -55.0049,60 -19.9996,2 -73.9945,-10.0039 -128.9941,-29.0039 -73.9996,-25 -117.0043,-33.002 -194.0039,-37.002 -116.9996,-5 -117.0006,-1.9937 -11.001,81.0059 93.9996,72.9996 162.0004,110.001 270,146.001 56,18.9996 107.2494,29.5019 152.124,31.3769 z M 2296.1279,5579.8774 c 37.375,1.875 69.377,-6.3731 98.877,-24.8731 45.9996,-27.9996 93.9955,-31.0048 154.9951,-10.0048 74.9996,25.9996 175.0049,13.998 175.0049,-22.002 0,-5 15.9912,-25.9961 35.9912,-45.9961 30,-31 43.0111,-37.0019 76.0107,-37.0019 36,0 45.9965,-5.9942 90.9961,-53.9942 l 50.9912,-54.0088 -16.9921,-45 c -10,-26 -21.0049,-48.998 -25.0049,-52.998 -4,-4 -7.002,-29.9971 -7.002,-56.9971 0,-44 2.0098,-49.0039 20.0098,-44.0039 13,3 19.9951,0.01 19.9951,-8.9941 0,-13 29.999,-33.9991 48.999,-33.9991 17,0 13.001,26.9991 -3.999,33.9991 -16,6 -21.0016,40.9951 -7.002,49.9951 5,3 10.001,26.998 11.001,52.998 3,87.9996 18.0004,122.0112 90,211.0108 l 33.999,41.997 h 100.0049 c 88.9996,0 111.9946,3.9916 203.9942,35.9912 121.9992,41 143.0097,41.0036 155.0097,-0.996 9,-35 0,-115.0049 -14.0039,-115.0049 -5,0 -21.0058,13.0039 -36.0058,29.0039 -15,15 -39.9971,31.9951 -56.9971,34.9951 -29,7 -29.0045,6.0107 19.9951,-43.9893 l 50.0098,-51.0058 90,3.0029 90.9961,3.0029 82.0019,-47.0068 c 65,-38 91.002,-48.0029 127.002,-48.0029 57.9996,0 105.9984,-19.9942 127.998,-53.9942 10,-14 26.9942,-26.0009 38.9942,-26.0009 56.9996,0 104.0049,-26.0024 175.0049,-97.002 44.9996,-46 79.999,-72.9932 93.999,-72.9932 20,0 20.9961,-4.0068 15.9961,-47.0068 -8,-57.9996 1.9984,-76.9971 67.998,-131.9971 C 4587.9947,4756.0008 4590,4752.9965 4590,4701.9965 c 0,-55.9996 4.9961,-63.9902 45.9961,-84.9902 33,-17 145.0059,-124.0082 171.0059,-163.0078 10.9996,-18 11.999,-29.9965 3.999,-60.9961 -15,-54 -14.001,-98.9971 3.999,-116.9971 19,-18 18.9961,-39.0039 0.9961,-74.0039 -25,-49.9996 -29.001,-71.9971 -11.001,-71.9971 8,0 20.0049,10.9942 25.0049,23.9942 5,13 13.0029,27 18.0029,30 20,12 145.002,-161.9942 157.002,-218.9942 9,-42.9996 52.9935,-142.0033 87.9931,-198.0029 24,-40 27.9981,-54 22.9981,-90 -4,-23 -10,-118.0072 -15,-212.0068 -5,-113.9996 -14.9932,-195.9903 -27.9932,-249.9903 C 5035.0033,3069.0051 5036,3079.9946 5070,3089.9946 c 27,8 30,6.0068 30,-12.9932 0,-21 -17,-89.9975 -60,-251.9971 -26,-96.9996 -17.999,-168.0049 26.001,-250.0049 14,-23.9996 50.0039,-137.9925 59.0039,-181.9921 l 5.9912,-32.0069 -33.999,32.0069 c -19,16.9996 -46,39.9951 -60,49.9951 -20,13 -26.9971,25.9951 -26.9971,49.9951 0,44 -27.001,196.0098 -41.001,230.0098 -8,18.9996 -21.001,29.999 -41.001,33.999 -15.9996,3 -37.0029,17.9883 -48.0029,32.9883 l -19.9951,28.0078 22.998,18.999 c 24,19 53.001,63.0029 41.001,63.0029 -3,0 -18.9951,-9.0058 -34.9951,-21.0058 -24,-16 -29.0039,-17.9951 -29.0039,-4.9951 0,31.9996 26.001,73.9964 86.001,135.996 65.9996,69 82.0058,102.003 51.0058,108.003 -14.9996,3 -18.0117,0 -12.0117,-18.003 5,-16.9996 -5.9896,-33.9974 -58.9892,-86.997 -36,-36 -66.002,-70.0069 -67.002,-77.0069 0,-6 -4.0088,-1.9912 -9.0088,9.0088 -15,36 -11.9941,130.9903 6.0059,144.9903 8,8 22.0039,27.0039 29.0039,44.0039 8,17 28,55.0049 45,85.0049 36.9996,65.9996 37.9912,102.9964 5.9912,195.996 -13,39 -28.9951,92.004 -34.9951,119.004 -10,42.9996 -9.9938,49.9925 6.0058,61.9921 10,7 25.9916,14.004 35.9912,14.0039 11,0 20.9981,8.003 22.9981,18.003 3,9 23.0039,27.0049 44.0039,40.0049 26,14.9996 36.999,26.9873 33.999,36.9873 -7,16 -22.9961,10.0029 -75.9961,-26.9971 -16,-11 -32.0019,-17.0039 -37.0019,-14.0039 -5,3 -14.0059,28.0049 -21.0059,55.0049 -6,26.9996 -21.9912,58.9974 -35.9912,71.997 -20,19 -24.0088,31.9991 -24.0088,78.9991 0,124.9992 -36.9994,231.0121 -108.999,312.0117 -22,25 -41.001,52.9922 -41.001,61.9922 0,9 21.0108,39.0062 46.0108,66.0058 60.9996,65 47.9931,85.9899 -17.0069,24.9903 -45.9996,-43 -83.9941,-64.9951 -113.9941,-64.9951 -7,0 -25.0088,26.0078 -39.0088,58.0078 -15,30.9996 -31.9945,67.9873 -38.9941,81.9873 -15,28.9996 -47.0069,40.0107 -47.0069,16.0107 0,-9 4.0088,-16.0107 9.0088,-16.0107 5,0 15.002,-16.9877 22.002,-36.9873 6,-21 15.9873,-44.0059 21.9873,-51.0059 18.9996,-24 -1.9942,-24.0068 -68.9942,-2.0068 -50.9996,17 -69.998,29.0019 -82.998,52.0019 -29,53 -35.0059,58.0059 -81.0059,66.0059 l -45,7.998 3.0029,44.0039 c 4,61 27.002,164.003 52.002,228.003 37,94.9996 25.0055,121.9922 -53.9941,121.9922 -53,0 -114.002,23.9951 -127.002,49.9951 -5,8 -22.0088,49 -39.0088,90 -17,40.9996 -44,87.0117 -60,102.0117 -33.9996,32 -94.9883,49.9967 -137.9883,41.9971 -38.9996,-8 -92.0023,9.0013 -172.0019,56.0009 -36,21 -84.9994,43.9952 -108.999,49.9952 -25,6.9996 -66.003,23.0019 -93.003,37.0019 -57.9996,30 -75.0088,27.0029 -159.0088,-26.9971 -46.9996,-29.9996 -65,-37.0039 -75,-29.0039 -27.9996,23 -93.9951,-30.0062 -79.9951,-66.0058 9,-25 34.9955,-16.9912 124.9951,39.0088 116.9996,73.9996 130.9991,79.0009 168.9991,56.0009 16.9996,-11 57.0039,-27.0058 89.0039,-36.0058 31.9996,-9 87.0029,-32.9942 123.0029,-53.9942 87.9996,-52.9996 111.0059,-60 186.0059,-60 105.9996,0 122.9906,-16.0004 189.9902,-180 27,-67.9996 78.0014,-100.0048 161.001,-100.0048 60.9996,0 63.0029,-3.0024 33.0029,-82.002 -45,-122.9996 -64.998,-278.9912 -37.998,-305.9912 6.9996,-7 22.9912,-12.0117 35.9912,-12.0117 26.9996,0 62.0068,-16.9893 62.0068,-28.9893 0,-5 -37.002,-12.0107 -82.002,-16.0107 -45.9996,-4 -128.0029,-12.9916 -183.0029,-20.9912 -192.9992,-26 -360.0027,-37.0098 -532.0019,-35.0098 -61,2 -136.9991,-1.9981 -168.9991,-7.9981 -36.9996,-6.9996 -60.9873,-7.9921 -66.9873,-1.9921 -6,6 -24.0013,6.999 -41.0009,3.999 -26,-5 -29.0098,-4.002 -20.0098,7.998 6,8 14.0029,31.0059 18.0029,51.0059 4,20 10.9961,37.9902 15.9961,39.9902 5,2 14.0059,23.9994 21.0059,48.999 11,40 10.0045,51.002 -4.9951,82.002 -9,20 -21.001,38.9971 -26.001,41.9971 -12,7 -50.0098,84.0049 -50.0098,100.0049 0,16.9996 -28.9971,74.998 -56.9971,112.998 -29.9996,40 -22.9921,41 28.0079,0 26.9996,-22 35.997,-33.9941 26.997,-38.9941 -9,-6 -8.0045,-11.9971 4.9951,-26.9971 11,-11 15.001,-26.002 11.001,-37.002 -5,-13 -2.0029,-16.0078 11.9971,-13.0078 12,2 20.0019,13.0108 22.0019,31.0108 3,26.9996 5.002,27.997 22.002,11.997 16,-15 26.9975,-15.0029 116.9971,-3.0029 123.9992,16 280.0068,12.9941 302.0068,-6.0059 24,-20.9996 90.9926,-53.0013 181.9922,-86.0009 44.9996,-16 93,-37 105,-45 29,-19 44.0039,-18.9961 44.0039,-0.9961 0,16 -73.9988,55.0023 -187.998,97.0019 -45,17 -95.0059,42.0049 -111.0059,55.0049 -27,22 -38.9985,24.9971 -142.9981,26.9971 -61.9996,1 -148.9974,-3.0049 -191.997,-10.0049 l -78.999,-11.001 -66.0059,45 c -78.9996,54 -110.9912,83.002 -110.9912,97.002 0,6 -9.0059,26 -21.0059,45 -30.9996,49.9996 -46.0029,25.9957 -18.0029,-29.0039 21,-39 21.0094,-42.9873 5.0098,-51.9873 -16,-9 -15.0127,-12.001 6.9873,-41.001 29.9996,-41 61.0019,-100.0053 82.0019,-160.0049 9,-26 28.0117,-61.0068 42.0117,-77.0068 35,-42 40.9893,-91.9916 13.9893,-125.9912 -11,-15 -20.9912,-39.0049 -20.9912,-55.0049 0,-15 -4.0088,-30.003 -9.0088,-33.003 -12,-7.9996 -28.9912,39.0112 -35.9912,106.0108 -4,38.9996 -12.0088,61.9902 -24.0088,69.9902 -10,7 -25.9951,39.0049 -34.9951,70.0049 -13,47 -22.9994,61.0039 -48.999,74.0039 -17,10 -62.0092,48.9971 -99.0088,86.9971 l -65.9912,70.0049 12.9931,45 c 15,48.9996 9.0094,77.9873 -24.9902,111.9873 -24,23.9996 -27.0029,14.0029 -3.0029,-11.9971 15.9996,-18 15.9996,-22.9984 0,-82.998 -9,-35 -17.0069,-71.9942 -17.0069,-83.9942 0,-32 -19.9912,-36.0006 -65.9912,-11.001 -32,18 -47.0078,33.9991 -58.0078,63.9991 -23,60.9996 -35.9893,171.9984 -28.9893,247.998 7,84.9996 13.9963,73.9959 -168.0029,274.9951 -17,19 -46.001,37.0039 -71.001,44.0039 -79.9996,21 -128.0068,40.9955 -122.0068,49.9951 3,5 -4,9.0088 -15,9.0088 -29,0 -37,-21.0019 -15,-37.0019 10,-8 56.0049,-25.0088 100.0049,-39.0088 80.9996,-24 82.001,-24.9975 161.001,-116.9971 43.9996,-50.9996 84.9964,-101.9941 90.996,-113.9941 16,-29 15,-82.0078 0,-88.0078 -18.9996,-8 -21.0029,-103.9873 -3.0029,-111.9873 9,-3 15,-19.0049 15,-40.0049 0,-43 -17.001,-35.0065 -26.001,12.9931 -4,25 -10.9912,34 -20.9912,30 -14,-6 -38.0078,38.0088 -28.0078,54.0088 2,4 -4,14.9903 -15,24.9903 -11,10 -19.9951,31.0068 -19.9951,47.0068 0,39 -21.0033,86.0059 -63.0029,141.0059 -19,24.9996 -39.9922,67.9873 -46.9922,96.9873 -14,58.9996 -36.0029,63.0097 -33.0029,5.0097 3,-36.9996 21.9964,-76.0033 75.996,-153.0029 26,-36 28.9991,-52.0023 33.9991,-142.0019 l 6.0058,-101.001 -37.0019,-52.9981 c -36,-51.9996 -100.9975,-106.9961 -161.9971,-135.9961 -32,-15 -86.0023,-71.9974 -97.0019,-101.997 -3,-9 -15.001,-22.0082 -26.001,-28.0078 -18,-9 -21.0059,-7.9948 -21.0059,10.0048 0,31 -16.9912,23.9893 -35.9912,-16.0107 -10,-21 -27.9971,-48.9883 -41.9971,-62.9883 -13,-14 -37.0088,-47.0078 -54.0088,-73.0078 -16.9996,-27 -32.9951,-48.0029 -34.9951,-48.0029 -19,0 61.0043,176.0101 119.0039,260.0097 67,97.9996 63.9926,94.9961 91.9922,75.9961 14,-9 29.9951,-15.9961 34.9951,-15.9961 13,0 32.9991,73.002 33.9991,127.002 0,25 5.0078,43.9922 13.0078,46.9922 8,3 10.998,12.0058 7.998,21.0058 -4,10 14.0049,34.9893 55.0049,73.9893 59.9996,56.9996 59.9951,58.0098 49.9951,95.0098 -12,44.9996 -56.9935,97.0029 -117.9931,138.0029 -25,17 -75.0059,61.9945 -111.0059,98.9941 -59.9996,63 -69,68.9942 -105,68.9942 -61.9996,0 -141.9936,-23.9942 -237.9932,-68.9942 -57.9996,-27.9996 -94.0029,-40.0058 -108.0029,-36.0058 -25,8 -89.0039,-1.9893 -89.0039,-13.9893 0,-14 56.999,-33.001 78.999,-26.001 17,5 21.0059,1.9961 21.0059,-14.0039 0,-12 7,-21.0058 15,-21.0058 9,0 15,9.0127 15,23.0127 0,18.9996 17.9935,30 117.9931,75 88,38.9996 129.004,51.9873 164.004,51.9873 44.9996,0 50,-2.9975 120,-71.9971 39.9996,-40 97.9941,-91.9945 128.9941,-113.9941 34,-26 60.0023,-53.9971 67.0019,-71.9971 10,-29 6.9987,-34.9994 -41.0009,-93.999 l -52.002,-63.003 -41.001,19.9952 c -53.9996,26.9996 -75.9935,43.998 -102.9931,82.998 -27,39 -91.9942,74.0049 -128.9942,70.0049 -14.9996,-1 -58.0062,7.9951 -96.0058,19.9951 -79.9996,26 -282.9959,46.001 -409.9951,41.001 l -84.0088,-3.999 41.0009,58.0078 c 38,53.9996 41.0079,55.9863 58.0079,40.9863 28.9996,-26 71.9935,-1.9918 177.9931,103.0078 l 94.9951,93.0029 55.0049,1.9922 c 31,1 83.001,1 116.001,0 49,-2 74.9955,4.0069 139.9951,32.0069 51,21.9996 93.7582,33.999 131.1328,35.874 z m 1358.877,-151.875 c 17,0 23.9883,-1.9951 17.9883,-4.9951 -7,-2 -21,-2 -30,0 -10,3 -3.9883,4.9951 12.0117,4.9951 z m 49.9951,-7.9981 79.9951,-3.999 c 63,-3 110.0004,-13.9984 225,-52.998 191.9992,-66 243.9981,-92.0108 247.9981,-121.0108 6,-43.9996 -2.9981,-52.9951 -37.9981,-34.9951 -17,8 -48.9902,16.9951 -69.9902,19.9951 -27,4 -41,12.0088 -45,24.0088 -9,28 -60.0092,49.9971 -129.0088,56.9971 -46,4 -74.9961,13.9971 -120.9961,41.9971 -33,19.9996 -80,43.998 -105,52.998 z m -2109.7559,-231.372 c 53.75,0.625 120.7579,-2.128 196.7579,-8.628 124.9992,-10 206.0039,-33 269.0039,-75 34.9996,-22.9996 58.9892,-20.0048 43.9892,4.9952 -9,13.9996 0.9994,13.0048 33.999,-4.9952 16,-8 37.9991,-29.999 48.9991,-48.999 13,-21 43.0107,-48.0023 76.0107,-67.0019 35,-19 52.999,-34.9971 48.999,-41.9971 -36.9996,-60 -52,-76.999 -60,-63.999 -12,18.9996 -99.0039,73.9886 -149.0039,92.9882 -24,9 -44.0039,22.004 -44.0039,29.004 0,16.9996 -123.9896,123.9951 -163.9892,139.9951 -53,21.9996 -126.0079,17.999 -208.0079,-11.001 -160.9992,-58 -401.9974,-184.9916 -491.997,-260.9912 -22,-18 -30.9971,-20.9971 -41.9971,-11.9971 -10,9 -21.999,5.9951 -48.999,-10.0049 -40,-23 -40.0098,-22.9996 -20.0098,15 8,16 15,37.0069 15,47.0069 0,34.9996 178.0108,183.999 256.0108,213.999 13.9996,5 13.9882,3 2.9882,-15 -9.9996,-15 -9.9882,-25.0072 -2.9882,-32.0068 8,-8 21.9886,3.0019 47.9882,37.0019 25,32 49.0043,52 74.0039,60 23,7 63.4965,11.0059 117.2461,11.6309 z m 1370.7569,-11.6309 c 3,-3 3.9961,-11.999 0.9961,-18.999 -3,-8 -5.9912,-5.0088 -5.9912,5.9912 -1,11 1.9951,17.0078 4.9951,13.0078 z M 4395,5099.9946 c 41,0 50.9994,-4.9991 78.999,-33.9991 17,-17.9996 50.9961,-59.9964 75.9961,-90.996 88.9996,-114.9996 82.0108,-109.0049 151.0108,-115.0049 66.9996,-5 66.999,-4.9946 93.999,-83.9942 12,-31.9996 26.9961,-53.9951 45.9961,-64.9951 18,-10 34,-33.0111 45,-61.0107 9,-25 34.0049,-73.9955 55.0049,-109.9951 52.9996,-90 68.9941,-141.0053 68.9941,-220.0049 0,-48 4,-70.9955 15,-79.9951 9,-8 15,-30.004 15,-59.004 1,-94.9996 18.9994,-189.9984 48.999,-247.998 32,-64.9996 66.9971,-179.9902 56.9971,-189.9902 -3,-3 -5.9912,-0.013 -5.9912,6.9873 0,8 -7.9994,22.999 -18.999,33.999 -22,25 -81.0059,157.0072 -81.0059,182.0068 0,27 -70.9945,140.9975 -128.9941,206.9971 -28,32 -51.0059,67.999 -51.0059,78.999 0,12 -6.9961,29.0088 -15.9961,39.0088 -14,16 -14.999,25.9942 -3.999,83.9942 10,55.9996 9.9967,68.0078 -3.0029,88.0078 -34,50.9996 -131.9981,148.998 -172.9981,172.998 -43,25 -44.0039,26.9965 -44.0039,75.9961 0,54.9996 -9.9949,67.9926 -128.9941,166.9922 l -53.0127,44.0039 4.0136,60 2.9883,60.9961 -43.9892,16.0107 c -62,21 -65.0055,39.9903 -6.0059,39.9903 z M 2614.9951,4989.9995 c 2,0 12.0059,-14.9926 21.0059,-31.9922 9,-18 25.0058,-43.0049 36.0058,-55.0049 18,-19 18.9932,-29.9975 12.9932,-101.9971 -5,-57.9996 -12.9971,-88.0111 -26.9971,-106.0107 -16,-21 -20.0097,-40.9985 -20.0097,-112.9981 1,-53.9996 -3.9932,-96.0019 -12.9932,-112.0019 -12,-22 -12.9951,-16.9899 -19.9951,65.0097 -4,50 -14.0059,101.9971 -21.0059,116.9971 -8,15 -14.0039,53.9932 -14.0039,87.9932 0,46.9996 -3,60 -15,60 -20,0 -20.9961,-109.9932 -0.9961,-147.9932 8,-15 17.0059,-74.0049 21.0059,-130.0049 5,-68.9996 11.9951,-104.999 19.9951,-108.999 7,-2 15.9951,-24.0033 19.9951,-48.0029 3,-25 10,-46.9955 15,-49.9951 6,-4 6.999,11.9941 3.999,38.9941 -5,33 -2.9941,46.0107 6.0059,46.0107 7,0 10.0059,7 6.0059,15 -3,8 0.9941,29.9991 8.9941,48.9991 8,19.9996 15,49.9941 15,68.9941 0,18 5.9932,38.9961 12.9932,45.9961 10,11 10,14.0029 0,18.0029 -18,7 -15.9971,63.0088 3.0029,84.0088 9,10 21.0078,53.9965 28.0078,105.9961 13,94.9996 9.9916,93.999 50.9912,18.999 17,-32.9996 93.001,-69.0029 131.001,-63.0029 19,3 36.0049,1.001 40.0049,-3.999 3,-5 13.9941,-6.999 23.9941,-3.999 13,3.9996 27.0098,-4.9991 50.0098,-33.9991 18,-22 46.9912,-47.0013 65.9912,-56.0009 31,-15 54.0088,-58.004 54.0088,-104.004 0,-6.9996 10.9902,-24.0019 24.9902,-37.0019 20,-18 25.0049,-32.9867 25.0049,-70.9863 0,-32 8.0049,-62.0004 25.0049,-90 l 23.9941,-43.0078 -26.997,-0.9961 c -15,-1 -46.9971,-3.0059 -71.9971,-6.0059 -25,-2 -73.0033,-4.0029 -108.0029,-3.0029 l -62.0069,1.0107 L 2940,4244.9946 c -11,-26 -19.9951,-55.9981 -19.9951,-67.9981 1,-12 9.9951,3.003 19.9951,33.003 11,29.9996 19.9951,56.0078 19.9951,58.0078 0,1 23.9981,2.9918 52.9981,1.9922 27.9996,0 90.0111,4.0048 136.0107,10.0048 82.9996,12 84.9932,11.0026 102.9932,-11.997 l 18.999,-23.0127 -5.9912,23.0127 c -5,18.9996 -2.001,21.9873 18.999,21.9873 14,0 27,-3.9981 30,-7.9981 3,-5 32.9981,-3.0006 67.9981,3.999 74.9996,16 169.999,17.9991 183.999,3.9991 6,-6 28.999,-5.9893 63.999,1.0107 30,5 105.0004,11.9893 165,13.9893 117.9996,5 134.0053,7.0039 295.0049,29.0039 138.9992,20 139.9951,20.0006 139.9951,-3.999 0,-24 5.9932,-24.9991 27.9932,-3.9991 11,12 27.0039,15.001 59.0039,11.001 50.9996,-5 47.997,-3.9945 56.997,-38.9941 5,-24 2,-28.0118 -60,-57.0118 -36.9996,-16.9996 -75.0009,-30.996 -86.0009,-30.996 -11,0 -28.9903,-5.001 -39.9903,-11.001 -15,-8 -22.0078,-8.0039 -28.0078,0.9961 -5,8 -17.9951,10.0058 -34.9951,6.0058 -18,-5 -31.0059,-3.0045 -36.0059,4.9951 -5,9 -16.9912,8.0088 -50.9912,-5.9912 -22.9996,-9 -48.997,-19.998 -56.997,-22.998 -9,-3 -12.002,-1.0088 -7.002,5.9912 10,16 -61.0098,13.001 -95.0098,-3.999 -14.9996,-7 -28.9921,-10.9981 -31.9921,-7.9981 -3,3 -27.9971,-6.0058 -56.9971,-21.0058 -49,-25 -51,-24.9912 -45,-5.9912 8,26.9996 -10.002,26.9957 -52.002,0.9961 -18,-11 -33.0029,-15.0049 -33.0029,-10.0049 0,16 -20.0072,12.0058 -47.0068,-8.9942 -13,-11 -29.9981,-18 -37.9981,-15 -8,3 -32.9935,-5.9951 -57.9931,-19.9951 -54,-32 -56.9971,-32.0107 -56.9971,-1.0107 0,28.9996 -17.0004,32.0045 -60,10.0049 -27,-14 -30,-14 -30,0 0,17.9996 -12.0078,19.0029 -28.0078,3.0029 -9,-9 -11.9971,-9 -11.9971,0 0,20 -17.0049,14.0006 -55.0049,-18.999 L 3240,4058.0073 v 25.9863 c 0,26 -13.0049,35.0107 -25.0049,16.0107 -11,-17.9996 -24.9902,-9.9996 -24.9902,15 0,25 -23.0098,35 -35.0098,15 -12,-19.9996 -24.999,-8.9996 -18.999,15 8,32 2.0094,31.9938 -39.9902,-6.0058 -29,-25 -38.001,-27.999 -56.001,-18.999 -11,5.9996 -20.0098,19.0039 -20.0098,29.0039 0,29.9996 -11.9922,31.9947 -46.9922,4.9951 -18,-14 -38.0078,-21.999 -43.0078,-18.999 -6,2.9996 -9.9902,1.0009 -9.9902,-3.9991 0,-18 35.9902,-12.0058 54.9902,8.9942 23,24.9996 35.0098,25.0107 35.0098,1.0107 0,-10 12.001,-26.0062 26.001,-36.0058 24.9996,-16 27.0013,-16.003 56.0009,11.997 30,27 29.9981,27.999 22.9981,3.999 -8,-24.9996 -1.0117,-25.9908 47.9883,-5.9912 14,6 17.0068,2.001 17.0068,-18.999 0,-26 13.0049,-35.0107 25.0049,-16.0107 13,19.9996 26.9912,9.9996 20.9912,-15 -9,-35 11.0098,-31.9938 50.0098,6.0058 29.9996,29 34.9961,30.9951 60.9961,19.9951 22.9996,-8.9996 35.9951,-8.997 64.9951,3.003 34.9996,15 35.997,15.0058 41.997,-8.9942 8,-29.9996 30.0043,-32.0097 74.0039,-5.0097 17,11 32.0069,15.0045 32.0069,10.0049 0,-17 16.9951,-10.9932 49.9951,17.0068 24,20 34.0049,22.9928 40.0049,12.9932 6,-10 14.9935,-8.0059 42.9931,8.9941 40,24 54.9981,27.0019 37.9981,7.0019 -21,-24.9996 4.001,-25.996 56.001,-0.996 27.9996,12.9996 54.0009,21.0029 56.0009,18.0029 3,-2 19.0059,3.001 36.0059,11.001 36,18.9996 77.9945,20.999 83.9941,3.999 3,-10 20.0004,-4.9961 60,14.0039 48,23 56.9971,24.9967 56.9971,11.9971 0,-16 11.0088,-16.0039 54.0088,0.9961 15,6.9996 17.001,5.0068 11.001,-12.9932 -8,-27 -4,-27.0068 45,-2.0068 22,10.9996 47.9896,19.9951 58.9892,19.9951 10,0 43.0079,11.0049 73.0079,25.0049 28.9996,13.9996 59.9941,25.0048 68.9941,25.0048 16,0 39.0088,-39.0101 39.0088,-65.0097 0,-9 6,-11.9942 15,-8.9942 19,8 18.9961,44.0049 0.9961,70.0049 -11,15 -12.0026,21.9883 -3.003,32.9883 10,12 9.0049,14.0127 -4.9951,8.0127 -12,-4 -18.0029,-2.002 -18.0029,7.998 0,11 17.0072,7.9961 77.0068,-14.0039 73,-25.9996 77.9864,-29.999 85.9864,-63.999 8,-31 4.0019,-46.0082 -22.9981,-103.0078 -28,-57 -31.9967,-72.9971 -26.9971,-116.9971 3,-29 15.0079,-76 28.0079,-105 11.9996,-29 19.9882,-54.001 17.9882,-56.001 -2,-2 -51.9912,-6.9902 -110.9912,-9.9902 -96.9996,-7 -108.0029,-6.0058 -108.0029,8.9942 0,9.9996 11.0049,26.0019 25.0049,37.0019 15,12 31.001,41 41.001,75 9,31 33.9902,92.9922 54.9902,136.9922 40,81.9996 45,101.0098 30,110.0098 -11,6.9996 -93.9906,-163.0043 -114.9902,-239.0039 -12,-40 -23.002,-58.9922 -37.002,-61.9922 -11,-3 -21.9971,-18.002 -26.9971,-37.002 -8,-31 -8.0127,-30.999 -83.0127,-33.999 -71.9996,-2 -170.9896,14.9873 -298.9892,51.9873 -30,9 -92.0098,16.0107 -140.0098,16.0107 -62.9996,0 -92.9902,5.003 -114.9902,18.003 -48,27.9996 -288.0063,19.9918 -411.0059,-13.0078 -106.9996,-29 -151.0029,-30.9942 -183.0029,-8.9942 l -23.9941,16.9922 23.9941,11.9971 c 22,12 19.0084,14.0097 -35.9912,20.0097 -32,4 -123.002,4.9961 -202.002,0.9961 -87.9996,-5 -149.0058,-3.9931 -156.0058,2.0069 -7,6 -20.9922,11.9892 -31.9922,13.9892 -12,3 1,7.9971 30,11.9971 28,4 61,12.0068 75,17.0068 20,7 17.9951,8.003 -10.0049,3.003 -52.9996,-10 -171.0068,-7.001 -182.0068,3.999 -5,5 -27.9952,6.999 -49.9952,3.999 -38.9996,-5 -39.9931,-4.0078 -27.9931,16.9922 16,32 4.9996,38.0068 -30,17.0068 -28,-16 -34.0069,-15.9961 -92.0069,-0.9961 -46.9996,12 -86.9935,13.9942 -177.9931,8.9942 -132.9996,-8 -170.0098,-1.9951 -170.0098,25.0049 0,22.9996 41.0069,61.0035 47.0069,44.0039 3,-7 10.999,-13.0078 18.999,-13.0078 10,0 14.0039,15 14.0039,60 0,32.9996 3.9941,60 8.9941,60 12,0 41.001,-29.001 41.001,-41.001 0,-5 18.0049,0 40.0049,11.001 46.9996,23.9996 49.9951,23.9947 49.9951,4.9951 0,-18 11,-18.9883 45,-2.9883 21,10 27.9951,8.9928 34.9951,-2.0068 7,-11 12.9994,-10.001 33.999,3.999 23,14 26.001,13.9961 26.001,0.9961 0,-18 5.0069,-18.9987 32.0069,-3.9991 13.9996,8 22.997,8.0108 26.997,1.0108 11,-18 71.001,35.999 71.001,63.999 0,14 7,37.9906 15,54.9902 15,28 14.9951,30.0088 -10.0049,39.0088 -15,6 -91.9984,11.001 -172.998,11.001 -80.9996,1 -160.001,3.9981 -176.001,7.9981 l -28.9893,5.9912 50.9912,60 c 42,47.9996 54.003,71.0078 63.003,118.0078 6,30.9996 14.9951,56.9971 19.9951,56.9971 5,0 16.0049,14.0068 25.0049,32.0068 19,35.9996 75.9961,97.998 90.9961,97.998 6,0 31.0013,15.9952 56.0009,34.9952 25,18.9996 50.0049,34.9951 55.0049,34.9951 5,0 20.003,16.0101 33.003,35.0097 12.9996,19 28.9951,32.9961 34.9951,30.9961 22,-8 33.999,18.0014 33.999,71.001 0,29 1.9951,52.9981 4.9951,52.9981 z m -303.8672,-100.503 c 1.625,1.25 3.3741,-1.5 5.8741,-7.5 3,-7 1.9931,-28.999 -2.0069,-48.999 -4,-24 -9.9922,-31.9902 -16.9922,-24.9902 -6,6 -7.0068,19.9886 -2.0068,32.9882 4,13 9.0049,27.0069 10.0049,32.0069 2,10 3.5019,15.2441 5.1269,16.4941 z m 2506.875,-53.4961 c 6,-3 16.9903,-26.0062 24.9903,-51.0058 16.9996,-48 7.0136,-63.9922 -10.9864,-16.9922 -19.9996,50.9996 -25.0039,74.998 -14.0039,67.998 z m 93.003,-156.0058 35.9912,-26.9971 c 20,-15 41.999,-40.9932 48.999,-57.9932 6,-16 14.999,-52.0101 18.999,-80.0097 l 7.002,-49.9951 -41.9971,70.0048 c -23,39 -48.001,87.003 -56.001,108.003 z m -4111.01078,-30 c 20.99992,0 9.00452,-14.9946 -79.99512,-98.9942 l -105,-98.9941 -11.99707,31.9922 c -16.99992,45.9996 -15.99687,48.0049 33.00293,85.0049 58.99976,43.9996 131.98938,79.9912 163.98926,80.9912 z m 1437.01168,-42.9932 c 2,-2 -1.0019,-27.001 -7.0019,-56.001 -5,-27.9996 -14.0098,-56.999 -20.0098,-63.999 -5,-6 -18.9896,-23.0023 -28.9892,-37.0019 l -20.0098,-25.0049 6.0059,25.0049 c 6.9996,30.9996 65.0048,162.0019 70.0048,157.0019 z M 558.75,4498.2514 c 6.74996,1.75 10.74906,-3.2529 15.24902,-14.2529 12.99996,-33 5.99992,-69.002 -15,-82.002 -17.99992,-11 -24.00496,-11.0006 -40.00488,3.999 -24.99988,23 -23.98718,33.0059 8.0127,66.0059 15.49992,16 24.9932,24.5 31.74316,26.25 z m 1576.2451,-28.2568 c 1,0 -2.0019,-18.001 -7.0019,-41.001 -10,-36 -30.9932,-58.9922 -42.9932,-46.9922 -4,4 42.9951,87.9932 49.9951,87.9932 z M 484.49707,4389.1205 c 7.74996,1.875 14.99711,-2.6214 19.49707,-14.121 3,-8 -2.9893,-19.0049 -13.98926,-25.0049 -31.99988,-17 -41.00777,-12 -28.00781,15 6.49996,14 14.75004,22.2509 22.5,24.1259 z m -68.11523,-30.1171 c 2.37496,0 -1.88872,-8.0088 -13.38868,-24.0088 -9.99996,-13 -21.99707,-24.9903 -26.99707,-24.9903 -4.99996,0 1.00395,10.9903 14.00391,24.9903 14.99996,16 24.00684,24.0088 26.38184,24.0088 z m 1800.51266,-16.0987 c 108.609,-1.5937 302.8506,-9.6474 308.1006,-14.8974 4,-3 -0.9941,-20.002 -8.9941,-37.002 -9,-16 -15.9961,-37 -15.9961,-45 0,-23 -26.9994,-45.0088 -48.999,-39.0088 -10,3 -22.001,0 -26.001,-7.0019 -5,-8 -10.0059,-7.9893 -21.0059,1.0107 -8,6 -20.9961,7.999 -30.9961,3.999 -10,-4 -30,-7.0058 -45,-6.0058 -15,1 -36.0068,-2.9942 -47.0068,-8.9942 -17,-9 -20.9912,-8.0048 -20.9912,4.9952 0,18.9996 -23.0043,18.9996 -59.0039,0 -26,-13 -29.9961,-13.0049 -45.9961,4.9951 -10,11 -25.0033,20.0097 -33.0029,20.0097 -10,0 -12.0088,6.9981 -9.0088,22.9981 3,12 9.0117,39.0039 12.0117,59.0039 4,21 14.0019,37.9902 22.0019,39.9902 7,1.25 33.6849,1.4395 69.8877,0.9082 z m -132.8027,-36.5039 c 1.2871,0.1 2.29,-0.6523 2.915,-2.4023 2,-5 -1.0097,-28.9942 -5.0097,-53.9942 -5,-31.9996 -13.001,-46.0029 -26.001,-48.0029 -16,-3 -17.001,1.0039 -11.001,29.0039 7,32.375 30.0869,74.6983 39.0967,75.3955 z m 3088.9014,-47.4023 c 4,1 7.0019,-2.9981 7.0019,-7.9981 0,-5 -13.9922,-44.9935 -31.9922,-87.9931 -43.9996,-105.9996 -43.9996,-157.0043 0,-209.0039 18,-21 37.9932,-45.002 42.9932,-52.002 7,-8 21.0098,-10.998 35.0098,-7.998 22.9996,6 23.9882,3.9941 17.9882,-21.0059 -11.9996,-49 -44.998,-132.9932 -52.998,-132.9932 -4,0 -11.999,25.9932 -18.999,57.9932 -6,31 -28.003,90.9971 -48.003,131.9971 -30.9996,64.9996 -37,89.9994 -45,183.999 -5,59.9996 -7.9912,110.0059 -5.9912,111.0059 4,3.9996 91.9903,32.999 99.9903,33.999 z M 331.81641,4237.436 c 2.06246,0.6875 4.18164,0.3144 6.18164,-1.4356 1.99996,-3 -1.00196,-12.998 -7.00196,-22.998 -7.99996,-15 -10.00097,-15.0065 -11.00097,-2.0069 0,12.75 5.63379,24.378 11.82129,26.4405 z m 4276.18649,-3.8086 c 5,-0.625 11.9955,-3.1319 19.9951,-7.6319 26,-12.9996 29.0049,-20.9984 40.0049,-112.998 7,-53.9996 18.9971,-123.0033 26.9971,-153.0029 8,-30 15,-71.9883 15,-92.9883 v -38.0127 l -47.0068,3.0029 c -48,3 -47.9965,4.0004 -75.9961,60 -42,87.9996 -45.001,133.0014 -11.001,206.001 15,34 32.0059,62.0068 36.0059,62.0068 3.9996,0 7.998,14 7.998,30 0,17 -4.0049,30 -10.0049,30 -5,0 -9.9902,4.9903 -9.9902,9.9903 0,3 2.998,4.2578 7.998,3.6328 z m -2860.122,-15.249 c 9.375,0.875 12.1152,-3.8848 8.1152,-14.3848 -12,-31 6.001,-32.9977 56.001,-7.9981 48.9996,25 52.0097,24.9981 65.0097,7.9981 7,-10 12.9932,-20.9863 12.9932,-25.9863 0,-14 29.0049,-9.0026 70.0049,11.997 l 38.9941,19.9952 6.0059,-33.003 c 10,-55.9996 9.0006,-70.9896 -3.999,-103.9892 -13,-33 -45.0127,-46.002 -53.0127,-22.002 -3,8 -12.9883,6.9971 -32.9883,-3.0029 -17,-9 -46.0098,-18.9981 -65.0098,-22.9981 -61.9996,-12 -139.9951,-38.0068 -139.9951,-47.0068 0,-4 -25.9932,-7.998 -57.9932,-7.998 -31.9996,0 -83.0052,-8.9952 -115.0048,-19.9952 -36,-13 -82.002,-20.0097 -127.002,-20.0097 -55.9996,0 -70.0049,-3 -70.0049,-15 0,-24 145.0004,-20.9899 210,5.0097 28,11 71.9981,19.9952 97.9981,19.9952 25.9996,0 85.0013,3.0019 131.0009,7.0019 68,5 85.0079,8.9945 88.0079,23.9941 5.9996,20 32.0039,29.004 89.0039,29.004 33.9996,0 44.9931,-5.0053 57.9931,-25.0049 19,-29 40.0026,-32.9912 33.003,-5.9912 -4,17.9996 3.9929,18.998 136.9921,22.998 77,3 148.0059,0.9971 156.0059,-3.0029 9,-5 -14.001,-8.9942 -56.001,-8.9942 -50.9996,0 -74.9941,-4 -83.9941,-15 -7,-8 -19.001,-15 -26.001,-15 -8,0 -14.0039,-4.0052 -14.0039,-10.0048 0,-5 15.9951,-10.0049 34.9951,-10.0049 45,0 48.0078,-13.993 43.0078,-166.9922 -4,-98.9996 -10.0023,-134.0024 -37.0019,-217.002 -18,-54.9996 -38.9961,-137.9951 -45.9961,-184.9951 -7,-46.9996 -27.0078,-117.0059 -43.0078,-156.0059 -28,-63.9996 -34.0004,-70.997 -75,-86.997 -24,-9 -88.9981,-24.003 -142.9981,-33.003 -53.9996,-8.9996 -111.9941,-21.0009 -128.9941,-26.0009 -48,-16 -194.0004,-32 -270,-30 -38,1 -107.0069,-3.0049 -152.0069,-10.0049 -74.9996,-11 -84.997,-9.9902 -101.997,5.0098 -10,8.9996 -47.0059,20.997 -81.0059,26.997 -34.9996,5 -65.9902,12.0039 -69.9902,14.0039 -4,2 -13.0098,22.0004 -20.0098,45 -13,38 -129.99616,169.9952 -150.99608,169.9951 -4.99996,0 -8.99414,11.0049 -8.99414,25.0049 0,16 6.00004,24.9903 15,24.9903 7.99996,0 15,3.0127 15,8.0127 0,4 3.99418,12.9951 8.99414,19.9951 6,11 15.99622,8.0029 45.9961,-11.9971 49.99968,-34 65.00778,-33.0078 28.00778,1.9922 -17,15 -38.00685,42 -47.00681,60 -15.99992,32 -15.98921,35 1.01075,60 13.99992,22 17.98828,46.9994 17.98828,123.999 0,90.9996 -6.002,120 -22.00196,105 -3.99996,-4 -8.98636,-46.9951 -10.98632,-94.9951 -5,-96.9996 -16.00008,-122.0006 -30,-71.001 -6,19 -11.00098,26 -11.00098,15 -1,-10 -15.00688,-58.999 -32.00684,-108.999 -20.99992,-61.9996 -26.99511,-92.002 -19.99511,-97.002 5.99996,-2.9996 11.99316,-29.0013 12.99316,-56.0009 2,-65 8.00415,-74.0004 74.00391,-120 38.99984,-27 62.99512,-52.9971 79.99512,-86.9971 26,-50.9996 52.0072,-67.0019 107.0068,-67.002 18,0 44.9961,-7 60.9961,-15 36,-18.9996 307.9969,-12.9986 465.9961,11.001 58,8 125,16.003 150,18.003 25,2 86.0004,15.9925 135,31.9921 50,15 96.0039,26.0049 104.0039,25.0049 8,-1 18.002,3.001 22.002,11.001 5,7 14.0058,12.9932 21.0058,12.9932 22,0 75.9932,144.0023 87.9932,232.0019 6,45 19.9961,108.0098 30.9961,140.0098 36,104.9996 59.0039,209.9961 59.0039,270.9961 0,35.9996 4.9932,64.0049 12.9932,70.0049 35.9996,29.9996 107.0127,19.9986 188.0127,-26.001 18.9996,-11 57.9974,-23.0117 86.997,-27.0117 44,-6 51.9961,-9.9942 45.9961,-23.9942 -3,-9 -11.999,-33.9974 -18.999,-56.997 -11,-35 -50,-119.004 -75,-164.004 -5,-7.9996 -21.002,-40.0052 -37.002,-70.0048 -14.9996,-30 -50.9951,-91.9887 -79.9951,-137.9883 -28.9996,-46 -66.0019,-109.0098 -82.0019,-140.0098 -21,-40.9996 -39.9981,-62.999 -67.9981,-78.999 -52.9996,-30 -67.0088,-48.0033 -114.0088,-138.0029 -30.9996,-62 -38.9941,-87.9971 -38.9941,-131.9971 0,-30 -6.0039,-66.9912 -14.0039,-80.9912 -8,-15 -16.999,-34.0078 -18.999,-43.0078 -4,-13 -14.9955,-15.9971 -49.9951,-11.9971 -25,3 -61.0059,0 -81.0059,-7.002 -43,-13.9996 -96.9922,-75.9951 -121.9922,-139.9951 -9,-24.9996 -24.0068,-50.997 -32.0068,-56.997 -9,-7 -15.9961,-27.0004 -15.9961,-45 -1,-67 25.0039,-223.0014 44.0039,-266.001 18,-39 18.9902,-55.0008 9.9902,-195 -8,-130.9996 -6.998,-155.0121 7.002,-177.0117 21.9996,-35 83.0029,-90.9903 93.0029,-84.9903 4,3 48.0059,4.9912 96.0059,5.9912 85.9996,1 91.9961,3.0004 165.9961,45 44.9996,26 90.0029,44.0039 108.0029,44.0039 17,0 52.9951,11.0049 79.9951,25.0049 l 34.5996,17.2998 c 4.1466,12.9233 15.9264,21.2856 31.084,20.7862 5.9626,-0.1965 12.4453,-1.7848 19.1894,-4.9805 0.072,0.9017 -0.032,2.1889 0.1319,2.8857 2.4221,10.7264 4.028,13.5173 5.8008,17.4756 3.3363,25.2989 16.9258,39.2247 31.5966,41.7627 1.3087,6.5027 6.6848,12.914 17.5928,24.7705 13,14 29.0059,24.9903 36.0059,24.9903 7,0 25.0049,22.0101 40.0049,50.0097 14.9996,27 30.9912,49.9952 35.9912,49.9951 4,0 7.998,6.004 7.998,14.004 0,7.9996 13,22.9925 30,31.9921 44,27 73.0033,101.0092 78.0029,204.0088 5,107.9996 -5,134.9942 -60,158.9942 -81.9996,34.9996 -191.0029,0.01 -243.0029,-76.9922 -25,-37 -33,-82.002 -15,-82.002 6,0 15.0059,11.9932 21.0059,27.9932 32.9996,87.9996 134.9926,133.0006 226.9922,101.001 36.9996,-13 48.0084,-48.9926 39.0088,-136.9922 -9,-91.9996 -27.004,-136.0098 -59.004,-140.0098 -13.9996,-2 -31.9941,-10.0029 -38.9941,-18.0029 -10,-12 -8.998,-12.9981 7.002,-7.9981 13.9996,4 14.9951,3.001 4.9951,-3.999 -7,-5 -22.0069,-6.9951 -32.0069,-4.9951 -14.9996,4 -22.9941,-4.9984 -38.9941,-37.998 -11,-24 -19.9951,-54.002 -19.9951,-67.002 0,-32 -89.0004,-113.9961 -165,-150.9961 -102.9996,-51.9996 -261.0121,-110.0107 -327.0117,-121.0107 -96.9996,-15 -122.9877,-12.9893 -156.9873,16.0107 l -31.0108,26.001 v 107.9883 c 0,153.9992 31.0043,327.0101 74.0039,410.0097 18,36 55.002,115.9897 82.002,178.9893 31.9996,76.9996 57,120.0078 75,133.0078 15,12 25.0019,26.999 22.0019,33.999 -3,8 1.001,14.0039 11.001,14.0039 9,0 15.9961,7 15.9961,15 0,9 8.9951,32.9903 19.9951,54.9903 26,49.9996 25.0039,57.999 -0.9961,33.999 l -22.0019,-18.999 6.0058,55.0048 c 6,58 52.0004,157.003 90,198.003 24,25 91.9903,61.9922 114.9903,61.9922 10,0 12.0127,7.0052 8.0127,25.0048 -7,28 20.9984,83.0008 112.998,225 31,47 66.9951,109.9952 79.9951,139.9952 64,143.9992 102.9981,218.0088 127.9981,249.0088 l 29.0039,33.0029 59.0039,-11.001 c 32.9996,-7 70.0019,-14.0107 82.0019,-16.0107 20,-5 20.9873,-9.9887 21.9873,-122.9883 1,-160.9996 28.0108,-290.9994 76.0108,-378.999 21,-37 46.9896,-85.0069 58.9892,-107.0069 25,-44.9996 92.0079,-105.9961 118.0079,-105.9961 29.9996,0 18.9947,22.9903 -25.0049,54.9903 -39,28.9996 -56.9975,55.0033 -131.9971,198.0029 -29,53.9996 -55.0049,182.0033 -55.0049,273.0029 0,55 6.0049,72.9994 55.0049,168.999 30,59 55.0049,114.003 55.0049,123.003 0,10 -25.0049,-34.002 -55.0049,-97.002 -31,-62.9996 -57.9961,-111.999 -60.9961,-108.999 -8,9 7.9922,108.0029 16.9922,108.0029 5,0 9.0088,7 9.0088,15 0,8 -4.0049,15 -10.0049,15 -5,0 -11.9961,15.9916 -15.9961,35.9912 -5,25 -10.9984,34.0069 -22.998,32.0069 -12,-3 -15.0079,-12.0059 -13.0079,-36.0059 3,-29 0.9948,-31.9922 -25.0048,-31.9922 -15,0 -46.9903,4.9903 -69.9903,9.9903 -22.9996,6 -83.0078,12.0039 -133.0078,14.0039 -66.9996,3 -100.9971,10.001 -131.9971,26.001 -72.9996,37.9996 -128.0052,51.9996 -175.0048,45 -32,-5 -42.9932,-2.9981 -42.9932,7.0019 0,9 26.0033,17.9971 78.0029,26.9971 127.9996,23 198.9981,25.0058 247.9981,6.0058 37.9996,-14 67.0043,-16.0048 209.0039,-10.0048 149.9992,6.9996 165,6.0058 165,-8.9942 0,-12 5.9941,-15.0049 23.9941,-10.0049 15,3 38.9994,-2 63.999,-15 52,-25.9996 108.0073,-26.9957 197.0069,-0.9961 38.9996,11 114.9912,22.9971 170.9912,26.9971 85.9996,5 106.0049,2.9961 145.0049,-14.0039 56.9996,-25 97.0058,-34.9971 111.0058,-26.9971 5,4 54.9952,5.9951 109.9952,4.9951 73.9996,-2 120.9974,-9.0009 176.997,-26.0009 102.9996,-32 264.0039,-59.9961 269.0039,-45.9961 2,6 17.003,11.0009 33.003,11.001 h 28.9892 v -93.003 c 0,-51.9996 7,-115.9971 15,-146.9971 31,-109.9992 30.0016,-122.9925 -7.998,-211.9921 -27,-66 -36.9922,-106.0034 -46.9922,-198.003 -17,-160.9992 -15.0049,-157.0097 -55.0049,-170.0097 -43,-14 -65.001,-51.993 -101.001,-181.9922 -26.9996,-92.9996 -48.9961,-143.9985 -105.9961,-247.9981 -28.9996,-53.9996 -30.0045,-57.0053 -25.0049,-160.0049 5,-101.9992 4.0036,-106.0048 -15.996,-115.0048 -19,-9 -23.0079,-20.9903 -28.0079,-84.9903 -4,-61.9996 -11.9925,-88.0072 -46.9921,-152.0068 -22,-43 -49.0004,-90 -60,-105 -11,-16 -34.002,-57.0033 -52.002,-93.0029 -18,-36 -51,-91.9952 -75,-124.9952 -23,-32.9996 -53.9984,-83.0019 -67.998,-112.0019 -15,-28 -69.9991,-97.9955 -123.9991,-154.9951 -53.9996,-57 -123.0029,-134.0059 -153.0029,-171.0059 -30,-36.9996 -78.0072,-82.9971 -107.0068,-101.9971 -47,-31.9996 -120.9887,-97.0062 -227.9883,-201.00581 -46,-43.99984 -205.0053,-125.99031 -280.0049,-144.99023 -184.9992,-44.99984 -602.9994,-64.00281 -723.999,-33.00293 -34,7.99996 -73.0082,22 -88.0078,30 -16,6.99996 -33.9864,14.0039 -40.9864,14.0039 -8,0 -50.014,15.9952 -94.0136,34.99512 -88.9996,38.99984 -191.9883,119.00207 -182.9883,142.00195 3,9 -20.0082,38.9922 -58.0078,76.9922 -67,65.9996 -190.9922,260.0039 -181.9922,284.0039 3,8 -4,25.0088 -15,39.0088 -11,14 -20.0098,29.9912 -20.0098,35.9912 0,6 -24.9971,75.0033 -56.9971,153.0029 -46.9996,119.9996 -64.9912,153.0053 -110.9912,205.0049 -66.9996,77.9996 -172.0019,235.9955 -172.0019,259.9951 0,10 -6.00787,22.001 -13.00783,26.001 -17.99992,11 -42.99821,81.0053 -82.99805,235.0049 -18.99992,72.9996 -37.9932,147.9961 -42.99316,165.9961 -5,17 -6.0068,31.9961 -2.00684,30.9961 16.99996,-2 67.00305,-76.9916 93.00293,-140.9912 15.99996,-40 34.99711,-79.0079 41.99707,-88.0079 6.99998,-7.9996 18.00098,-29.9925 26.00098,-46.9921 13,-33 30,-36.0098 30,-5.0098 0,9 -7,29.9961 -15,45.9961 -8,15 -15,43 -15,60 0,18 -12.001,55.0023 -26.00098,82.0019 -16.99992,33 -28.00293,75.0092 -33.00293,129.0088 -4.99996,48 -15.98933,96.9922 -28.98925,121.9922 -19.99992,39 -34.00208,88.0102 -67.00196,245.0098 -7.99996,36.9996 -31.00984,98.999 -50.00976,138.999 -33.99988,66.9996 -34.98824,71.9906 -17.98828,84.9902 9.99996,7 20.98636,14.004 25.98632,14.0039 8,0 47.00684,60.0079 47.00684,73.0079 0,15.9996 -27.00012,5.9869 -60,-23.0127 -18.99992,-16 -37.99707,-29 -41.99707,-30 -9.99996,0 -28.00781,59.999 -28.00781,93.999 0,119.9996 69.01196,394.0092 132.01172,519.0088 12.99992,26 16.99316,47.998 12.99316,67.998 l -7.00195,29.0039 41.99707,-26.997 c 37.99984,-25 41.00195,-31.0004 37.00195,-60 -5.99996,-33 0.99711,-73.0078 11.99707,-73.0079 3,0 19.00594,29.003 36.00586,63.003 l 30,61.9922 h 70.0049 c 37.9996,0 77.9935,4.0088 87.9931,9.0088 14,6.9996 17.0069,2.9947 17.0069,-25.0049 0,-19 -3.002,-50.9971 -7.002,-71.9971 -6,-36 -7.999,-39.0029 -33.999,-33.0029 -34,6 -37.998,-7.9942 -7.998,-23.9942 19.9996,-11 18.9957,-11.9984 -14.0039,-52.998 -67,-82.9996 -69.9961,-102.0125 -30.9961,-252.0117 13.9996,-55 29.999,-120.9971 33.999,-146.9971 11,-61.9996 54.9896,-125 103.9892,-150 49,-26 172.0018,-39.9977 311.001,-37.9981 158.9996,3 322.0053,57.9952 415.0049,139.9952 43,37.9996 44.0059,42.0023 51.0059,112.0019 4,40 7.998,104.002 7.998,142.002 1,37.9996 5.9932,96.9974 12.9932,131.997 12,69 5.0009,109.0014 -33.9991,191.001 -16.9996,37 -26.0013,45.0078 -71.0009,58.0078 -58,17 -138.9955,18.9948 -199.9951,4.9952 -91,-20 -396.003,-60.9932 -438.003,-57.9932 l -44.0039,2.9883 3.0029,38.0127 c 4,56.9996 73.0014,191.9951 116.001,229.9951 19,16 18.9951,18 4.9951,30 -25.9996,20 -21.998,72.9922 7.002,91.9922 21,13 28.0049,13.999 40.0049,3.999 13,-10 20.0062,-10 36.0058,0 16,10 21.9932,10.0107 27.9932,1.0107 4,-7 15.9932,-9.0058 27.9932,-6.0058 13,5 22.0009,0.9951 26.0009,-10.0049 6,-15 8.0108,-15 31.0108,0 19,12 25.001,13.0137 26.001,4.0137 0,-7 4.9902,-2.0137 9.9902,10.9863 9,22 10.9971,23.0127 26.9971,8.0127 16.9996,-15 21.0019,-15.0078 52.0019,1.9922 22.5,12 38.5108,18.5049 47.8858,19.3799 z m 308.2031,-28.9161 c 8.2969,2.5313 13.916,-6.4632 13.916,-24.4628 0,-16 -6,-25.0049 -15,-25.0049 -15,0 -20.998,31.0078 -7.998,43.0078 3.2496,3.5 6.3164,5.6162 9.082,6.4599 z m 2642.915,-4.4677 26.001,-30 c 14,-16 36.9951,-51.9955 49.9951,-79.9951 43,-87 49.0098,-165.9975 20.0098,-236.9971 -4,-10 -18.0108,-18.0029 -31.0108,-18.0029 -21.9996,0 -23.9941,4.0078 -23.9941,43.0078 0,22.9996 -7,68.9974 -15,101.997 -8,33 -16.9951,95.9952 -19.9951,139.9952 z M 713.9502,4010.9125 c 6.79683,0.1563 14.04984,-6.9101 21.0498,-22.9101 6.99996,-17 18.99715,-22.9981 41.99707,-22.9981 17.99992,-1 45.00008,-10.0058 60,-21.0058 47.9998,-36 44.00464,-88.993 -19.99512,-256.9922 -29.99988,-77.9996 -58.00687,-158.0121 -62.00683,-177.0117 -4,-19 -14.00196,-42.9873 -22.00196,-51.9873 -9.99996,-11 -18.99027,-56.0053 -24.99023,-130.0049 -12.99996,-149.9996 -34.00989,-227.0088 -65.00977,-234.0088 -12.99992,-4 -29.99027,-3 -39.99023,0 -13.99996,6 -14.0048,9.0117 4.99512,27.0117 11.99992,11 22.00586,29.9971 21.00586,41.9971 v 22.0019 l -9.00879,-21.0058 c -5,-12 -22.99028,-35.9942 -39.99024,-53.9942 -27.99988,-27.9996 -30.0107,-33.997 -16.01074,-41.997 13.99996,-8 15.0107,-12.0131 1.01074,-38.0127 -7.99996,-16 -15,-39.9903 -15,-54.9903 0,-14 -4.00879,-25.0048 -9.00879,-25.0049 -4.99996,0 -11,-68.9925 -15,-151.9921 -3.99996,-84 -11.99222,-165.0043 -16.99218,-179.0039 -8,-21 -7.00481,-33.9971 4.99511,-56.9971 18.99992,-36 21.99504,-178.002 4.99512,-232.002 -5.99996,-18.9996 -13.99906,-62.0101 -18.99902,-95.0097 -8.99996,-69 -40.99329,-159.0014 -72.99317,-206.001 -23.99988,-35 -82.99519,-75.999 -94.99511,-63.999 -4,4 -7.00196,28.0127 -7.00196,53.0127 0,33.9996 6.99422,55.9886 23.99414,77.9882 27.99992,38 40.00098,125.0096 41.00098,294.0088 0,68 6.00004,136.9955 15,169.9951 7.99996,30 15,89.0053 15,130.0049 0,52 3.00492,70 10.00488,60 7,-11 9.99024,-5.998 9.99024,22.002 0,20 -5.00102,39.9892 -11.00098,43.9892 -5.99996,3 -8.99121,15.0049 -5.99121,25.0049 3,10 0.99707,19.0059 -3.00293,21.0059 -4,2 -4.99999,29.9883 0,62.9883 l 7.00195,60 1.99219,-46.9922 c 2,-68 16.00684,-59.9951 17.00684,10.0049 1,85.9996 4.99621,110.9873 30.99609,186.9873 12.99996,37.9996 31.00883,101.0101 39.00879,140.0097 22.99992,111.9996 62.98836,231.9932 77.98828,237.9932 7.99996,3 27.00102,44.9994 41.00098,93.999 20.99992,67 29.0098,82.9981 35.00976,67.9981 4,-11 4.98828,-24.9961 2.98828,-30.9961 -1.99996,-7 0.006,-14.9991 6.00586,-18.9991 13.99996,-7.9996 14.99602,57.001 0.9961,71.001 -6,6 -6,23.9994 0,48.999 5.99996,22 6.99902,74.0014 3.99902,116.001 -6.74996,83.9996 9.56551,149.4434 29.95606,149.9121 z m -48.95508,-1.9189 c 5.99996,1 10.00879,-40.9887 9.00879,-107.9883 0,-85.9996 -4.00688,-112.0098 -17.00684,-125.0098 -7.99996,-8.9996 -19.00199,-24.9912 -22.00195,-35.9912 -3,-11 -11.99903,-20.0097 -18.99903,-20.0097 -20.99992,0 -45.00199,-34.001 -52.00195,-71.001 l -5.99121,-33.999 26.00098,35.0097 c 29.99988,39 51.99511,46 49.99511,15 -2.99996,-42.9996 -32.00394,-130.0048 -44.0039,-130.0049 -15.99996,0 -42.99032,-72.0023 -69.99024,-187.0019 -10.99996,-51 -27.00293,-112.9922 -33.00293,-136.9922 l -11.99707,-44.0039 -33.99902,78.0029 -33.99902,76.9922 13.98925,78.0029 c 9.99996,49 12.00192,86.001 7.00196,101.001 -6,14 -3.99707,43.0043 3.00293,74.0039 6.99996,27 13,61 15,75 2.99996,35 56.00406,169.9926 89.0039,226.9922 54.9998,94.9996 88.9904,129.9971 129.99024,131.9971 z M 1837.1191,3829.7553 c 29.625,-1 63.8799,-4.7519 86.8799,-10.7519 46,-11 51.0069,-17.9975 92.0069,-116.9971 13.9996,-34 14.9912,-49.0098 5.9912,-80.0098 -12,-42.9996 -18.9971,-96.9998 -26.9971,-243.999 l -7.002,-106.9922 -41.997,-39.0088 c -57,-52.9996 -78.0049,-63.0006 -115.0049,-56.001 -19,4 -43.9912,0.01 -65.9912,-9.9902 -19,-9 -49.002,-16 -67.002,-15 -38.9996,3 -78.0029,-8.0023 -78.0029,-22.0019 0,-12 17.0049,-11.0075 25.0049,1.9921 4,6 20.9941,8.9981 38.9941,7.9981 17,-1 55.0049,5.0039 85.0049,14.0039 65.9996,20 84.9912,21.0068 50.9912,2.0068 -61.9996,-32.9996 -152.9965,-47.0068 -315.9961,-47.0068 -137.9992,0 -167.0049,2.999 -205.0049,18.999 -50.9996,23 -96.9892,72.0059 -103.9892,111.0059 -3,15 -12.0059,55.9922 -21.0059,91.9922 -32.9996,132.9992 -46.0049,210.0019 -40.0049,232.0019 3,13 27.0131,50.002 53.0127,82.002 28,34.9996 46.9883,70.0049 47.9883,85.0049 0,25.9996 0.01,26.0029 110.0098,33.0029 110.9996,7 421.9935,50.9922 432.9931,61.9922 4.5,5 29.4965,6.7568 59.1211,5.7568 z m 2835.8789,-30.7617 c 15,1 26.9971,-2.9945 26.9971,-8.9941 0,-12 -7.9951,-12 -34.9951,0 -18,7.9996 -17.0016,8.9941 7.998,8.9941 z M 4500,3797.0014 c 41,1 40.0045,0 -19.9951,-11.9971 -36,-7 -82.0082,-20.0078 -103.0078,-28.0078 -37,-16 -37.002,-16.0019 -37.002,7.9981 0,21.9996 4.0082,24.0078 58.0078,28.0078 31,2 76.9971,3.999 101.9971,3.999 z m 254.0039,-7.0019 c 23,0 23.9893,-2.0004 13.9893,-30 -8,-25 -12.9942,-27.9991 -23.9942,-18.9991 -24,19 -16.9951,48.9991 10.0049,48.9991 z m 64.6436,-3.8233 c 5.8007,-1.916 11.8476,-14.4199 16.3476,-39.1699 4,-18 5.0029,-50.0121 3.0029,-72.0117 -3,-37 -3.9951,-37.9912 -19.9951,-20.9912 -12,10.9996 -18.0029,32.9964 -18.0029,60.996 0,48.125 8.9795,74.3702 18.6475,71.1768 z m -248.5254,-18.0469 c 15.375,0.875 19.8779,-1.6338 19.8779,-7.1338 0,-23.9996 -32.9951,-97.9912 -49.9951,-110.9912 -14,-11 -22,-37.0049 -30,-100.0049 -9,-73.9996 -71.0108,-264.0048 -91.0108,-280.0048 -29.9996,-25 -96.9892,-226.9897 -103.9892,-313.9893 -7,-92.9996 -15.0098,-111 -50.0098,-120 -15,-4 -24.9902,-13.0049 -24.9902,-25.0049 0,-10 -9.0098,-47.0023 -20.0098,-82.0019 -12,-35 -26.999,-101.001 -33.999,-146.001 -12,-75.9996 -17,-86.0043 -60,-134.0039 -26,-29 -58.9932,-71.9912 -72.9932,-95.9912 -13,-24 -29.0097,-43.0078 -35.0097,-43.0078 -6,0 -8.9912,37.0088 -5.9912,99.0088 3,92.9996 4.9912,100.9902 35.9912,144.9902 39.9996,54.9996 58.0117,97.0066 87.0117,201.0058 32.9996,119.9996 63.9971,184.9952 86.9971,184.9952 34.9996,0 67.998,45.0072 67.998,92.0068 1,89.9996 29.0039,233.9955 59.0039,304.9951 37,84.9996 37.001,96.0037 11.001,198.0029 -22,84 -26.0049,154.9952 -10.0049,154.9952 6,0 10.0049,7 10.0049,15 0,18.9996 34.9955,33.0097 124.9951,50.0097 43.5,8 69.7471,12.25 85.1221,13.125 z m 72.0117,-0.4248 c 5.7969,-1.1406 13.1162,-3.9554 22.8662,-7.705 30,-12 29.9961,-30.0001 0.9961,-105.0001 -8,-21.9996 -14.9961,-58.998 -15.9961,-82.998 0,-38 -3.0039,-43.9984 -29.0039,-52.998 -16,-6 -45.9912,-30.9971 -65.9912,-56.9971 -29,-38 -35.0108,-42.0016 -31.0108,-22.002 3,14 10.0108,58.9903 16.0108,99.9903 7,47.9996 18,82.0097 30,95.0097 10,11 26.9912,46.003 35.9912,78.003 15,46.4996 18.7471,58.1191 36.1377,54.6972 z m -3977.00685,-0.8789 c 0.73633,-0.2988 1.375,-1.2021 1.875,-2.8271 2,-6 -1.00586,-21.9955 -6.00586,-34.9951 -5.99996,-16 -9.99023,-18.002 -9.99023,-7.002 -0.875,19.25 8.96683,46.916 14.12109,44.8242 z m 4198.87205,-7.8222 c 2,-2 13.0049,-30.9991 25.0049,-63.9991 19,-55.9996 19.0029,-61.0078 3.0029,-73.0078 -14,-10 -18.0088,-9.9902 -24.0088,5.0098 -6.9996,19 -10.999,138.9967 -3.999,131.9971 z m -134.0039,-48.9991 c 4,0 12.0098,-11.0088 20.0098,-24.0088 9,-17.9996 10.9951,-48.9935 4.9951,-117.9931 -4,-51 -7.9941,-133.003 -8.9941,-183.003 -1,-48.9996 -7.0079,-105.9951 -13.0079,-124.9951 -5.9996,-18.9996 -15.998,-65.0078 -22.998,-103.0078 -14,-88.9996 -23.999,-113 -48.999,-120 -26,-6 -26,-1.9902 0,35.0098 32.9996,45.9996 15.0019,44.0006 -37.9981,-3.999 -25.9996,-25 -58.0049,-47.0059 -70.0049,-51.0059 -25.9996,-6 -25.998,-8.9967 7.002,108.0029 12,41 22.0029,60 33.0029,60 25,0 31.9932,13.9932 12.9932,27.9932 -17,13 -14.9967,22.0076 33.0029,167.0068 36,106.9996 51.0059,169.001 51.0059,206.001 0,49 23.9902,123.999 39.9902,123.999 z m 422.9297,-4.1601 c 2.5293,3.1347 4.3213,-18.975 8.0713,-75.8496 4,-53 3.0078,-120.9883 -1.9922,-152.9883 -20,-114.9996 -29.0088,-106.0012 -24.0088,22.998 2,69 8.0117,147.9903 12.0117,174.9903 2.625,17.9996 4.4004,28.9687 5.918,30.8496 z m -354.0674,-81.2256 c 2.7656,-0.4375 6.3975,-2.1143 11.1475,-4.6143 11,-6 24,-20.0107 30,-31.0107 8,-13 7.9961,-23.9922 0.9961,-31.9922 -5,-7 -8.0059,-66.0053 -6.0059,-145.0049 2,-72.9996 -0.9912,-158.9902 -5.9912,-189.9902 -6,-31 -13.0107,-76.0088 -16.0107,-99.0088 -5,-38 -10.0004,-42.9932 -45,-57.9932 -22,-9 -41.9893,-13.997 -43.9893,-11.997 -5,5 14.9922,125.9886 31.9922,182.9882 8,28 14.0039,89.0004 14.0039,135 0,46 4.0049,101.9991 10.0049,123.9991 5,21.9996 9.9902,62.0078 9.9902,88.0078 0,32.9996 0.5655,42.9287 8.8623,41.6162 z M 415.66406,3600.0971 c 3.7793,-4.5508 0.95699,-42.5977 -9.66797,-95.0977 -12.99992,-64.9996 -14,-66.997 -15,-26.997 0,24 5.00102,64 11.00098,90 6.74996,25.5 11.39942,34.8252 13.66699,32.0947 z m 4789.29204,-58.4473 c 0.6093,-0.2187 1.3007,-1.3974 2.0507,-3.6474 2,-10 2,-25.9951 0,-34.9951 -3,-10 -5.0097,-2.0075 -5.0097,16.9921 0,14.25 1.1308,22.3067 2.959,21.6504 z m -337.9541,-17.6513 c 3.9996,4 12.999,-20.002 18.999,-52.002 7,-32.9996 18.9931,-73 27.9931,-90 27,-50.9996 20.0098,-96.9896 -24.9902,-178.9892 -43.9996,-80 -57.0049,-88.001 -40.0049,-26.001 6,21 11.001,105.9945 11.001,188.9941 0,82.9996 3.002,153.9981 7.002,157.9981 z m -229.8194,-33.1787 c 2.5625,-1.8125 2.8242,-6.5743 -0.1758,-14.8243 -3,-6.9996 -22.0078,-65.9906 -43.0078,-129.9902 l -37.0019,-117.0117 -23.9942,22.0019 c -40.9996,39 -28.9957,92.0122 44.0039,192.0118 24,32.2496 52.4883,53.25 60.1758,47.8125 z M 740.44922,3446.9916 c 2.10937,1.5782 4.29785,1.2539 6.54785,-0.9961 3,-2 0.009,-28.0013 -5.99121,-56.0009 -5.99996,-28 -11.00098,-63.9952 -11.00098,-79.9952 0,-16.9996 -4.00492,-30 -10.00488,-30 -4.99999,0 -7.99508,12.0079 -4.99512,28.0079 2,14.9996 5.99418,49 8.99414,75 4.5,37.4996 10.12211,59.25 16.4502,63.9843 z m 196.55273,-30.9961 c 3,-2 -2.00101,-16.9886 -11.00097,-32.9882 -8,-15 -14.9961,-25.0059 -15.9961,-21.0059 0,12 22.99711,57.9941 26.99707,53.9941 z M 5124.9463,3225.4633 c 0.6094,-0.1562 1.3008,-0.9609 2.0508,-2.4609 2,-7 2,-19.0049 0,-25.0049 -3,-7 -4.9951,-2.0029 -4.9951,11.9971 0,10.5 1.1162,15.9375 2.9443,15.4687 z m -4412.82716,-9.7119 c 1.375,1.25 3.37406,0.7422 5.87402,-1.7578 4,-5 12.00685,-11.9961 17.00684,-15.9961 5.99996,-4 1.99801,-7.998 -7.00195,-7.9981 -9.99996,0 -18.00293,7.0069 -18.00293,17.0069 0,4.5 0.74902,7.4951 2.12402,8.7451 z M 5113.623,3172.7436 c 1.125,-1.25 2.3838,-5.2481 3.3838,-11.7481 3,-12.9996 -1.0127,-27.9951 -8.0127,-34.9951 -9,-8 -9.9951,-6.998 -4.9951,7.002 3,10 7.002,25.9951 7.002,34.9951 0.5,4.5 1.497,5.9961 2.622,4.7461 z M 752.27051,3119.6284 c 13.28117,-2.8321 30.85945,-25.8741 52.73437,-69.6241 18.99992,-38.9996 41.99516,-102.9984 49.99512,-142.998 32.99988,-157.9996 44.00594,-199.0004 66.00586,-240 13.99996,-27 25,-71.0098 30,-125.0098 4,-50.9996 12.99809,-90.001 22.99805,-101.001 13.99992,-14.9996 38.99219,-100.999 31.99219,-108.999 -2,-2 -14.98934,26.0069 -28.98926,62.0069 -13.99996,35.9996 -41.00008,84.0029 -60,108.0029 -48.99984,60.9996 -60.01274,84.9922 -68.0127,151.9922 -6.99996,60.9996 -23.99809,90.998 -37.99805,67.998 -4.99996,-8 -16.99812,1 -37.99804,30 -35.99988,51 -37.99325,58.0037 -57.99317,168.0029 -17.99992,105.9996 -19.00679,147.002 -2.00683,157.002 7.99996,4 15.99515,16.001 19.99511,26.001 4.875,12.75 11.30864,18.3252 19.27735,16.626 z m -97.45606,-60.6299 c 14.62496,-0.75 15.19043,-8.2416 15.19043,-35.9912 0,-67 39.00008,-237.0131 60,-263.0127 34.99988,-43 89.9961,-170.9893 90.9961,-208.9893 0,-20 3.99808,-58.0049 7.99804,-85.0049 10.99996,-64.9996 -21.00402,-133.0058 -44.0039,-96.0058 -12.99996,21.9996 -26.99719,7.0025 -56.99707,-56.9971 -96.99964,-214.9992 -102.99133,-224.9945 -125.99121,-233.9941 -25.99992,-10 -62.00204,-82.9965 -82.00196,-165.9961 -8.99996,-41 -16.01078,-53.0127 -31.01074,-53.0127 -11.99996,0 -27.99031,-13.9952 -39.99023,-34.9952 l -21.00586,-34.9951 -33.99903,52.002 c -42.9998,68.9996 -42.9998,89.9912 0,110.9912 39.99984,19 71.00115,67.0072 116.00098,182.0068 16.99992,44 44.00008,102.9971 60,131.9971 35.99984,63.9996 49.99699,132.9932 26.99707,132.9932 -9.99996,0 -17.00199,-12.9981 -22.00195,-37.9981 -3,-21 -18.99129,-57.9984 -35.99121,-82.998 -32.99988,-50 -35.00383,-48.9987 -14.00391,11.0009 7.99996,23 15,63.004 15,89.004 0,24.9996 3.00586,62.0019 6.00586,82.0019 l 5.99121,34.9951 56.99707,-3.0029 c 49.9998,-4 54.01262,-2.9951 38.0127,10.0049 -9,8 -36.0079,16.9912 -58.00782,20.9912 l -40.00488,6.0058 L 555,2708.0073 c 10.99996,340.9984 11.9954,345.9951 79.99512,349.9951 8.49996,0.75 14.94437,1.2461 19.81933,0.9961 z m 4150.18065,-14.0039 6.0059,-49.9952 c 3,-27.9996 10.9922,-59.997 16.9922,-71.997 13,-24 16.0097,-82.9981 5.0097,-82.9981 -20,-1 -52.0039,-36.0029 -44.0039,-48.0029 7,-12 12,-11.9961 30,-0.9961 19,12 23.9955,10.001 49.9951,-18.999 17,-17 39.0098,-32.0069 50.0098,-32.0069 11,0 24.9922,-9.0058 31.9922,-21.0058 13,-25 39.0088,-177.9916 39.0088,-230.9912 0,-29 5.9971,-41.0049 26.9971,-55.0049 13.9996,-10 43.9912,-35.001 65.9912,-56.001 38.9996,-36.9996 40.0136,-38.9922 34.0136,-91.9922 -6,-54.9996 -49.0117,-166.0101 -72.0117,-185.0097 -10,-8 -17,3e-4 -30,37.0019 -40.9996,119.9996 -107.9896,198.9981 -208.9892,247.9981 -64,30.9996 -80.0098,73.0056 -80.0098,220.0048 -1,108.9996 1.0068,119.9971 17.0068,116.9971 23,-4 21.9932,14 -2.0068,30 -11,8 -24.9922,35.0108 -31.9922,61.0108 -6,25.9996 -15.0098,49.998 -20.0098,52.998 -12.9996,7 -10.0009,72.9981 3.9991,112.9981 10,28.9996 20.0068,36.9951 62.0068,49.9951 z m -495.8642,-266.6162 c 7.375,-0.875 10.8691,-5.3741 10.8691,-13.3741 0,-27.9996 -87.002,-181.0058 -97.002,-171.0058 -2,2 4.0079,30.9951 13.0079,64.9951 12.9996,45.9996 21.9912,61.0107 35.9912,61.0107 22.9996,0 23.9957,25.9955 0.9961,34.9951 -17,7 -15.9932,8.0004 2.0068,15 15.5,6.5 26.7559,9.254 34.1309,8.379 z m -2326.128,-123.3838 c 23,0 43,-2.9981 45,-7.9981 1,-4 -3.997,-19.9951 -11.997,-34.9951 -7,-15 -35.0069,-78.0059 -62.0069,-141.0059 -26,-62.9996 -56.0019,-122.9892 -67.0019,-133.9892 -10,-10 -15.9932,-21.0088 -12.9932,-24.0088 3,-3 -1.0088,-18.0029 -9.0088,-33.0029 -8,-15 -16.9912,-49.9991 -20.9912,-78.9991 -6,-49.9996 -7.0023,-50.9996 -22.0019,-30 -19,27 -30.0075,159.0088 -13.0079,159.0088 8,0 9.003,4.9961 3.003,15.9961 -25,45 30.9994,209.9994 93.999,273.999 29,30 41.0072,35.9952 77.0068,34.9952 z m 2165.625,-230.6836 c 3.7852,1.3359 2.7422,-5.5635 -3.6328,-21.3135 -17,-42 -20.9912,-345.9926 -5.9912,-421.9922 17,-81.9996 14.999,-99.0078 -11.001,-103.0078 -17,-2 -24.0009,-11 -26.0009,-30 -3,-29 14.9941,-38.9928 23.9941,-12.9932 4,8 10,15 15,15 7,0 -22.002,-97.0068 -37.002,-122.0068 -10.9996,-18 -43.9892,33.0088 -43.9892,69.0088 0,23 -6.0098,32.998 -20.0098,37.998 -33.9996,11 -20.9918,46.0024 43.0078,112.002 32,34 38.0039,45.9902 29.0039,54.9902 -9,9 -23.0107,1.0094 -61.0107,-39.9902 l -48.0029,-51.0059 -26.9971,26.9971 c -20,22 -26.001,38 -26.001,75 0,39 5.9994,53.0088 33.999,84.0088 27,30 33.0039,43.9945 29.0039,68.9941 -5.9996,40 15.9991,92.0063 78.9991,186.0059 30.6246,44.9996 50.3222,70.0781 56.6308,72.3047 z M 777.99316,2354.9946 c 7,-3 18.00883,-4.9952 24.00879,-4.9952 6,0 9.00192,-36.0023 7.00196,-97.0019 -2,-99.9996 6.00203,-156.9971 22.00195,-146.9971 4.99996,3 8.99023,55.9975 9.99023,116.9971 0,85.9996 3.00489,105.9967 10.00489,86.9971 5.99996,-14 10.99707,-116.9956 11.99707,-229.9952 l 0.99609,-205.0048 -26.99707,-52.9981 c -14.99992,-29 -33.99711,-54.9931 -41.99707,-57.9931 -6.99996,-3 -32.00106,12.9912 -56.00098,35.9912 -39.99984,37.9996 -47.00504,42.0019 -85.00488,37.0019 l -41.00098,-3.999 48.00293,69.0088 c 32.99988,47.9996 51.99907,89.9883 63.99903,137.9883 8.99996,38.9996 26.00199,82.0058 37.00195,96.0058 10.99996,14 18,27 15,30 -10.99996,11 -45.99711,-48.9945 -56.99707,-98.9941 -14.99995,-64.9996 -54.00716,-137.0014 -137.00684,-251.001 -34.99984,-47.9996 -68.98929,-100.0088 -73.98925,-114.0088 L 498.99902,1674.9994 480,1700.0043 c -38.99984,50 -43.99797,76.002 -22.99805,112.002 10.99996,19 26.99422,32.9883 38.99414,32.9883 13.99996,0 22.00688,12 32.00684,45 34.99984,116.9996 54.99133,161.0052 80.99121,175.0048 25.99988,13 48.0013,53.0038 131.00098,243.003 15.99992,35.9996 27.99808,50.9922 37.99804,46.9922 z m 111.00586,-129.9903 23.99414,-60 c 12.99996,-32.9996 30.01274,-84.0088 38.0127,-114.0088 7.99996,-33.9996 19.99223,-56 31.99219,-60 9.99996,-4 37.00035,-35.9974 59.99995,-71.997 23,-35 68.0053,-96.0043 100.0049,-134.0039 45,-54 69.0043,-96.0004 104.0039,-180 74,-181.9996 82.9864,-217.9916 70.9864,-260.9912 -9,-36 -56.0004,-93.9991 -75,-93.9991 -21,0 -45.9877,29.9955 -81.9873,94.9951 -37,69 -38.0014,69.9961 -86.001,75.9961 -35,4 -54.0088,12.0108 -69.0088,31.0108 -89.99968,106.9996 -135.99915,166.9912 -168.99903,215.9912 -35.99984,54.9996 -37.00285,56.9971 -18.00293,71.9971 9.99996,8 34.00203,44.0101 52.00195,80.0097 31.99988,61 33.99903,70.9955 33.99903,169.9951 0,58 -3.99805,133.9952 -7.99805,169.9952 z M 5130,2196.7475 c 13,-2.75 30.4945,-29.7416 68.9941,-84.7412 l 52.002,-73.0078 -34.9951,-14.0039 c -20,-8 -59.0082,-15 -88.0078,-15 -47,0 -53.9952,3.0013 -64.9952,26.0009 -10.9996,23 -7.9947,35.0053 25.0049,100.0049 20.5,42 28.9971,63.4971 41.9971,60.7471 z m -974.1211,-68.3789 c 2.625,-1.875 4.1162,-15.3711 4.1162,-40.3711 0,-31 -3.001,-38.9961 -11.001,-30.9961 -7,7 -7.999,23.9971 -3.999,41.9971 4.5,21.5 8.2588,31.2451 10.8838,29.3701 z m -242.7539,-140.874 c 2.625,-1.25 4.877,-8.9922 8.877,-24.4922 4.9996,-18 16.9931,-37.0078 27.9931,-43.0078 11,-6 20.0098,-14.9952 20.0098,-19.9952 0,-5.9996 -18.0049,1.9965 -40.0049,15.9961 -45,30 -43.9928,28.0118 -27.9932,57.0118 5.5,10.5 8.4932,15.7373 11.1182,14.4873 z M 333.22266,1860.7856 c 11.23042,3.8965 21.77254,-12.6563 46.77246,-55.7813 l 27.01172,-46.0107 -33.00293,-61.9922 c -18.99992,-34 -37.00489,-84.0059 -40.00489,-111.0059 -10.99996,-78.9996 -23.00386,-29.9957 -14.0039,59.0039 3.99996,44 5.99902,82.0049 3.99902,85.0049 -9.99996,10 -39.98836,-19 -62.98828,-60 -29.99988,-52.9996 -38.00191,-38.0054 -22.00195,38.9942 17.99992,82.9996 21.00297,91.0078 33.00293,88.0078 6.99996,-1 22.98734,14.9912 36.9873,35.9912 10.49996,15.75 17.49024,25.4502 24.22852,27.7881 z M 4859.6191,1757.6313 c 6.125,2.125 13.3858,-4.1367 25.3858,-17.6367 17,-18 15.999,-19.9893 -11.001,-43.9893 -69.9996,-61.9996 -176.0023,-87.0117 -232.0019,-57.0117 -31,16 -27.0049,37.0058 4.9951,36.0058 24.9996,0 41.0013,17.0004 56.0009,60 2,6 22.9965,-6.9931 45.9961,-27.9931 49,-44 72.0069,-39.0117 92.0069,17.9883 7.5,19.9996 12.4931,30.5117 18.6181,32.6367 z m -2749.6142,-8.6279 c 10,0 7.9902,-3.0088 -5.0098,-9.0088 -27,-12 -42.9902,-12 -24.9902,0 8,5 22,9.0088 30,9.0088 z m 2023.9892,-1.128 c 1.5,-0.875 2.4991,-6.375 3.9991,-16.875 2,-13 -0.9873,-27.999 -6.9873,-33.999 -13,-13 -14.9991,11.0049 -3.9991,40.0049 3.5,8 5.4873,11.7441 6.9873,10.8691 z m -1697.2705,-33.5449 c -4.0661,-1.3455 -8.0877,-2.5768 -11.8506,-3.2959 -3.0208,-10.365 -1.9473,-17.9599 8.1299,-28.0371 2.2844,-2.2844 3.9151,-3.4891 5.7715,-5.1123 -4.626,9.0535 -5.9462,21.4842 -2.0508,36.4453 z m 1639.1895,-8.2764 c 1.2187,0.2657 2.5869,-0.055 4.0869,-1.0547 5,-2.9996 7.0029,-11.9951 3.0029,-19.9951 -7,-20.9996 -13.0078,-19.0084 -13.0078,5.9912 0,8.25 2.2617,14.2618 5.918,15.0586 z" />
    <path
       d="m 2258,5453 c 7,-3 16,-2 19,1 4,3 -2,6 -13,5 -11,0 -14,-3 -6,-6 z"
       id="path2" />
    <path
       d="m 3036,4905 c -5,-13 28,-45 46,-45 17,0 7,29 -16,43 -21,14 -25,14 -30,2 z"
       id="path3" />
    <path
       d="m 3475,4663 c -63,-10 -42,-20 66,-32 61,-6 114,-10 116,-7 3,2 -7,12 -22,22 -27,18 -105,26 -160,17 z"
       id="path4" />
    <path
       d="m 3835,4575 c -17,-13 -18,-16 -5,-24 16,-11 51,6 51,24 0,16 -25,17 -46,0 z"
       id="path5" />
    <path
       d="m 4651,4509 c -30,-49 -58,-213 -39,-225 15,-10 19,0 30,77 12,93 32,143 53,135 21,-8 19,8 -4,29 -19,17 -21,16 -40,-16 z"
       id="path6" />
    <path
       d="m 4910,4021 c 0,-91 14,-142 51,-177 39,-37 54,-26 23,17 -17,25 -28,58 -34,100 -4,35 -15,80 -24,99 l -15,35 z"
       id="path7" />
    <path
       d="m 2862,4251 c -1,-29 3,-71 8,-92 6,-22 15,-56 20,-78 7,-25 22,-48 45,-65 19,-15 35,-22 35,-17 0,6 -9,15 -20,21 -42,22 -64,84 -80,225 l -7,60 z"
       id="path8" />
    <path
       d="m 2157,4113 c -12,-12 -7,-22 8,-17 8,4 15,10 15,15 0,11 -14,12 -23,2 z"
       id="path9" />
    <path
       d="m 3022,3778 c 7,-20 68,-23 68,-4 0,12 -10,16 -36,16 -24,0 -34,-4 -32,-12 z"
       id="path10" />
    <path
       d="m 3375,3744 c -44,-14 -97,-26 -117,-27 -29,-1 -38,-5 -38,-19 0,-26 48,-23 150,7 145,43 286,28 446,-49 71,-34 96,-52 113,-80 33,-53 37,-104 14,-157 -26,-58 -104,-143 -162,-176 -25,-14 -54,-33 -63,-41 -10,-8 -18,-12 -18,-8 0,4 -7,1 -15,-8 -8,-8 -15,-19 -15,-24 0,-14 -27,-34 -48,-36 -9,-1 -37,-8 -62,-15 -65,-19 -129,-22 -166,-6 -18,7 -34,11 -36,9 -3,-2 -39,3 -81,11 -61,12 -92,25 -147,61 -82,54 -113,100 -98,149 4,17 15,60 22,96 8,36 37,112 66,168 28,57 50,110 48,119 -5,24 -33,21 -34,-3 -1,-11 -22,-61 -48,-110 -25,-50 -53,-119 -61,-155 -8,-36 -20,-84 -27,-107 -10,-36 -9,-47 7,-83 36,-79 149,-149 280,-174 110,-20 263,-29 304,-16 19,5 36,8 39,6 8,-9 -221,-77 -277,-82 -43,-5 -65,-2 -90,10 -39,20 -111,14 -111,-10 0,-23 48,-36 135,-37 128,-2 264,29 390,88 39,18 84,35 102,39 17,4 55,28 85,54 29,26 73,62 96,80 23,19 40,37 37,42 -3,4 2,13 10,20 18,15 18,16 0,-44 -19,-61 -19,-100 -1,-115 11,-9 14,-1 19,41 8,63 55,159 85,173 18,8 22,18 22,56 0,37 7,55 33,90 50,67 97,139 97,150 0,20 -41,7 -57,-18 -74,-118 -148,-213 -166,-213 -15,0 -18,-5 -14,-22 5,-17 -12,-39 -86,-111 -76,-75 -107,-97 -176,-129 -46,-22 -85,-37 -87,-35 -7,7 81,81 137,115 51,31 138,124 166,176 33,62 16,176 -34,228 -44,47 -176,106 -283,128 -124,26 -187,24 -285,-6 z"
       id="path11" />
    <path
       d="m 3414,3544 c -23,-8 -60,-31 -83,-50 -78,-67 -91,-127 -41,-196 17,-22 30,-48 30,-57 1,-20 25,-53 33,-44 4,3 7,2 7,-4 0,-24 60,-36 142,-28 86,7 131,23 141,50 4,8 13,15 22,15 12,0 15,15 15,85 0,116 -16,153 -88,201 -65,43 -116,51 -178,28 z m 131,-40 c 32,-21 31,-31 -2,-37 -16,-2 -57,-12 -91,-22 -60,-16 -65,-16 -83,1 -23,21 -17,31 35,55 51,23 109,24 141,3 z m -205,-89 c 5,3 11,1 15,-5 4,-6 -6,-10 -24,-10 -35,0 -36,2 -19,33 l 13,22 3,-23 c 2,-12 7,-20 12,-17 z m 299,-12 c 19,-68 14,-96 -22,-119 -17,-11 -44,-24 -58,-27 -14,-4 -39,-19 -55,-34 -38,-35 -78,-35 -131,3 -46,31 -83,93 -83,137 0,23 4,27 29,27 50,0 93,-12 98,-29 15,-44 29,-71 37,-71 6,0 23,12 38,27 19,19 28,37 28,59 0,24 5,34 20,39 11,3 24,3 30,0 5,-3 10,-1 10,5 0,7 7,10 15,6 8,-3 15,-1 15,4 0,25 20,6 29,-27 z m -219,-9 c 0,-2 -7,-4 -15,-4 -8,0 -15,4 -15,10 0,5 7,7 15,4 8,-4 15,-8 15,-10 z m 230,-129 c 0,-9 -11,-20 -25,-25 -14,-5 -25,-13 -25,-18 0,-4 -8,-8 -17,-8 -10,0 -30,-3 -45,-7 -46,-12 -31,8 30,41 65,35 82,38 82,17 z"
       id="path12" />
    <path
       d="m 2122,3405 c -15,-19 -19,-31 -12,-33 18,-6 42,23 38,44 -3,16 -6,14 -26,-11 z"
       id="path13" />
    <path
       d="m 3310,3172 c 0,-12 101,-43 152,-47 26,-3 58,-1 70,4 16,6 4,8 -42,7 -36,-2 -70,1 -77,6 -17,14 -103,38 -103,30 z"
       id="path14" />
    <path
       d="m 3784,2735 c -4,-9 -2,-21 4,-27 15,-15 44,-1 40,19 -4,23 -36,29 -44,8 z"
       id="path15" />
    <path
       d="m 3692,2516 c -53,-57 -72,-103 -83,-196 -5,-41 -11,-100 -15,-130 -4,-35 -15,-67 -31,-88 -28,-37 -22,-63 9,-35 39,36 44,55 66,258 9,80 35,135 86,184 20,19 36,39 36,43 0,21 -31,4 -68,-36 z"
       id="path16" />
    <path
       d="m 1283,2504 c -14,-37 25,-162 66,-214 19,-23 61,-197 61,-249 0,-21 14,-28 24,-12 6,10 -20,182 -35,229 -6,18 -22,46 -36,62 -25,31 -53,114 -53,162 0,32 -17,46 -27,22 z"
       id="path17" />
    <path
       d="m 2554,2220 c -33,-13 -66,-67 -72,-116 -6,-57 13,-58 22,-2 4,24 16,52 26,63 10,11 18,24 17,29 -1,5 16,15 38,22 31,9 34,12 15,12 -14,1 -35,-3 -46,-8 z"
       id="path18" />
    <path
       d="m 3370,1990 c 0,-12 35,-31 44,-23 8,9 -14,33 -30,33 -8,0 -14,-4 -14,-10 z"
       id="path19" />
    <path
       d="m 3530,1880 c 0,-5 7,-10 16,-10 8,0 12,5 9,10 -3,6 -10,10 -16,10 -5,0 -9,-4 -9,-10 z"
       id="path20" />
    <path
       d="m 3330,1786 c 0,-9 7,-16 16,-16 17,0 14,22 -4,28 -7,2 -12,-3 -12,-12 z"
       id="path21" />
    <path
       d="m 2000,1640 c -8,-5 -12,-12 -9,-15 4,-3 12,1 19,10 14,17 11,19 -10,5 z"
       id="path22" />
    <path
       d="m 2920,1611 c 0,-5 9,-13 20,-16 25,-8 26,-22 1,-30 -11,-3 -34,-23 -52,-43 -31,-35 -83,-77 -139,-113 -27,-17 -45,-11 -100,36 -46,40 -104,58 -159,51 -50,-7 -105,-25 -151,-51 -23,-12 -33,-11 -95,11 -89,32 -168,29 -245,-10 -63,-32 -109,-67 -109,-83 -1,-18 -7,-16 -52,9 -26,14 -38,27 -34,36 4,11 -1,13 -21,9 -14,-2 -38,2 -53,9 -14,8 -33,14 -43,14 -9,0 -28,14 -42,31 -14,17 -30,27 -36,24 -16,-10 39,-74 69,-82 14,-3 44,-21 65,-40 23,-19 42,-29 46,-23 4,6 21,2 45,-10 21,-11 41,-17 46,-15 8,6 24,-33 21,-52 -2,-6 8,-15 20,-18 13,-4 37,-20 53,-36 41,-39 104,-64 210,-84 101,-19 176,-12 248,24 22,11 45,17 52,15 7,-3 16,3 19,13 8,23 57,55 138,88 34,15 67,31 73,36 17,17 -20,10 -81,-15 -53,-22 -91,-43 -204,-114 -45,-28 -80,-29 -80,-2 0,11 -4,20 -10,20 -5,0 -10,-11 -10,-24 0,-30 -37,-39 -114,-26 -130,21 -175,40 -239,101 l -61,59 34,25 c 27,20 42,25 65,20 17,-3 71,-10 120,-15 90,-8 152,-21 175,-35 15,-9 238,15 265,28 11,6 61,14 111,17 80,5 96,10 123,33 24,20 28,27 15,27 -11,0 12,27 62,74 60,56 81,70 87,60 5,-8 13,-12 18,-8 12,7 2,43 -19,67 -16,18 -52,24 -52,8 z m -366,-137 c 9,-3 16,-13 16,-21 0,-10 6,-12 19,-8 13,4 35,-5 66,-30 l 47,-35 h -36 c -19,0 -47,-5 -63,-12 -29,-12 -196,-39 -248,-40 -16,-1 -57,7 -90,17 -33,9 -89,18 -125,19 -36,2 -89,11 -119,21 -49,17 -52,19 -35,32 26,19 111,43 151,43 18,0 56,-9 85,-20 29,-11 61,-20 70,-20 10,0 22,-9 28,-20 12,-23 30,-27 30,-6 0,9 9,12 28,9 25,-4 25,-3 10,10 -25,20 -23,22 25,40 70,26 112,32 141,21 z"
       id="path23" />
    <path
       d="m 2142,1585 c -6,-14 -10,-25 -8,-25 2,0 11,11 20,25 9,14 13,25 8,25 -5,0 -14,-11 -20,-25 z"
       id="path24" />
    <path
       d="m 2233,1598 c -17,-23 -25,-44 -9,-24 9,11 22,23 28,28 9,5 9,8 2,8 -6,0 -16,-6 -21,-12 z"
       id="path25" />
    <path
       d="m 3427,1604 c -4,-4 -7,-14 -7,-23 0,-11 3,-12 11,-4 6,6 10,16 7,23 -2,6 -7,8 -11,4 z"
       id="path26" />
    <path
       d="m 2644,1574 c -18,-14 -18,-15 4,-4 12,6 22,13 22,15 0,8 -5,6 -26,-11 z"
       id="path27" />
    <path
       d="m 1598,1550 c -24,-15 -61,-78 -54,-95 8,-22 26,-18 26,4 0,11 7,26 15,35 8,8 15,19 15,25 0,6 7,11 15,11 8,0 15,7 15,15 0,17 -8,18 -32,5 z"
       id="path28" />
    <path
       d="m 1447,1413 c -4,-3 -7,-13 -7,-22 1,-13 3,-13 11,2 11,19 8,33 -4,20 z"
       id="path29" />
    <path
       d="m 2021,886 c 40,-40 146,-86 174,-76 17,6 15,10 -20,25 -43,18 -145,55 -153,55 -3,0 -3,-2 -1,-4 z"
       id="path30" />
    <path
       d="m 1616,3635 c -33,-13 -72,-27 -87,-30 -33,-7 -95,-73 -115,-121 -15,-36 -19,-74 -6,-74 4,0 6,-19 4,-42 -1,-31 5,-58 25,-97 26,-50 32,-55 87,-73 70,-23 193,-17 261,12 11,5 33,11 48,15 38,8 107,79 136,140 41,88 13,195 -63,240 -44,26 -151,55 -201,55 -16,0 -57,-11 -89,-25 z m 210,-33 c 10,-6 34,-16 52,-23 41,-15 70,-55 53,-72 -8,-8 -11,-8 -11,1 0,7 -7,12 -16,12 -8,0 -12,-4 -9,-10 8,-13 -41,-13 -125,0 -60,10 -91,18 -145,40 -11,5 -28,11 -37,14 -29,9 -21,21 25,39 46,18 178,18 213,-1 z m -283,-39 c -22,-8 -14,-21 10,-16 18,4 19,3 7,-6 -21,-15 -73,-14 -68,2 5,15 50,38 58,30 3,-3 -1,-8 -7,-10 z m 57,-33 c 0,-5 -4,-10 -10,-10 -5,0 -10,5 -10,10 0,6 5,10 10,10 6,0 10,-4 10,-10 z m 44,-6 c 22,-9 10,-24 -19,-24 -18,0 -23,4 -19,15 7,16 14,18 38,9 z m -141,-16 c 3,-10 10,-10 30,1 24,13 29,12 45,-2 9,-9 37,-19 60,-23 39,-6 42,-9 42,-37 0,-38 25,-67 58,-67 23,0 24,2 20,44 l -5,44 69,4 c 38,2 73,-1 79,-7 6,-5 9,-5 9,3 0,7 9,12 20,12 17,0 20,-7 20,-41 0,-52 -35,-116 -74,-136 -72,-37 -171,-49 -282,-34 -85,12 -113,24 -137,57 -16,21 -16,28 -6,41 11,13 10,17 -4,28 -19,14 -15,63 9,103 16,24 40,29 47,10 z m 212,-8 c 17,-7 15,-9 -12,-9 -18,-1 -33,4 -33,9 0,12 17,12 45,0 z m 50,-10 c 3,-5 -1,-10 -9,-10 -9,0 -16,5 -16,10 0,6 4,10 9,10 6,0 13,-4 16,-10 z m 62,-6 c -3,-3 -12,-4 -19,-1 -8,3 -5,6 6,6 11,1 17,-2 13,-5 z m -353,-219 c 3,-9 0,-12 -9,-9 -7,3 -16,12 -19,19 -3,9 0,12 9,9 7,-3 16,-12 19,-19 z m 116,-7 c 36,-5 103,-8 150,-5 92,6 90,-10 -4,-25 -27,-4 -52,-12 -56,-18 -4,-6 -30,-10 -61,-9 -40,2 -59,8 -74,23 -11,12 -31,29 -45,39 l -25,18 25,-6 c 14,-4 54,-11 90,-17 z"
       id="path31" />
    <path
       d="m 4807,2686 c -21,-16 -22,-26 -3,-26 8,0 17,7 20,16 9,23 4,25 -17,10 z"
       id="path32" />
    <path
       d="m 1845,4400 c -3,-5 1,-10 9,-10 9,0 16,5 16,10 0,6 -4,10 -9,10 -6,0 -13,-4 -16,-10 z"
       id="path33" />
    <path
       d="m 482,4233 c -19,-43 -30,-243 -14,-243 16,0 22,27 22,103 1,40 7,90 15,112 18,48 19,65 4,65 -5,0 -18,-17 -27,-37 z"
       id="path34" />
    <path
       d="m 5206,2873 c -9,-51 0,-114 20,-140 13,-16 14,-10 8,57 -4,41 -10,86 -14,100 -6,22 -8,20 -14,-17 z"
       id="path35" />
    <path
       d="m 4288,2450 c -12,-16 -14,-28 -8,-34 15,-15 32,7 28,35 l -3,24 z"
       id="path36" />
    <path
       d="m 4289,2323 c -12,-43 -14,-45 -20,-23 -12,48 -18,-4 -23,-224 l -6,-220 32,-68 c 17,-37 35,-68 39,-68 15,0 10,20 -15,63 -37,62 -45,115 -34,210 5,45 12,89 15,97 3,8 5,30 4,47 -2,18 8,73 21,123 16,64 19,93 12,100 -8,8 -15,-2 -25,-37 z"
       id="path37" />
    <path
       d="m 4250,1705 c 0,-8 9,-15 20,-15 18,0 20,-7 20,-87 0,-94 21,-203 46,-241 9,-13 29,-28 45,-34 51,-18 78,-107 45,-151 -13,-17 -16,-17 -77,2 -69,23 -89,26 -89,12 0,-6 -20,-13 -45,-17 -25,-3 -48,-10 -51,-15 -10,-17 -34,-9 -34,11 0,27 -40,36 -78,16 -17,-9 -43,-16 -58,-16 -20,0 -25,-4 -20,-16 3,-9 6,-18 6,-20 0,-10 28,-2 64,17 47,25 66,19 66,-20 0,-39 19,-44 51,-14 40,36 136,49 207,27 l 55,-18 22,28 c 15,18 25,24 29,17 14,-22 28,1 21,35 -5,28 -3,34 12,34 10,0 31,16 47,36 16,20 43,42 60,50 43,20 68,36 88,58 23,25 23,45 1,23 -29,-28 -76,-62 -107,-77 -16,-8 -41,-30 -55,-47 -24,-31 -51,-44 -51,-25 0,15 67,163 79,175 15,15 14,27 -2,27 -22,0 -43,-31 -67,-97 -24,-67 -33,-75 -49,-44 -6,10 -28,26 -50,35 -35,14 -42,22 -57,68 -9,29 -18,103 -21,163 -3,61 -10,116 -15,123 -15,17 -58,15 -58,-3 z"
       id="path38" />
    <path
       d="m 4804,1569 c -36,-60 -58,-85 -84,-98 -25,-11 -35,-23 -37,-41 -1,-22 -1,-22 4,-2 2,12 10,22 18,22 25,0 75,52 116,121 23,38 39,72 37,75 -3,2 -27,-32 -54,-77 z"
       id="path39" />
    <path
       d="m 3626,1354 c -15,-31 -24,-59 -21,-62 2,-3 16,21 31,52 14,32 24,60 21,62 -3,3 -17,-20 -31,-52 z"
       id="path40" />
    <path
       d="m 3355,1199 c -4,-6 0,-18 9,-27 15,-15 16,-15 16,5 0,25 -15,38 -25,22 z"
       id="path41" />
    <path
       d="m 3961,875 c 3,-14 15,-18 59,-20 79,-4 256,-52 322,-87 85,-45 162,-127 262,-277 93,-140 159,-221 182,-221 25,0 15,25 -26,65 -23,22 -83,104 -135,181 -105,157 -183,238 -276,284 -70,36 -228,78 -323,87 -62,6 -68,4 -65,-12 z"
       id="path42" />
    <path
       d="m 3803,841 c -17,-20 -39,-52 -48,-71 -19,-39 -99,-83 -170,-95 -31,-5 -50,-18 -85,-56 -44,-48 -49,-51 -140,-70 -52,-10 -96,-24 -98,-29 -2,-6 -13,-10 -25,-10 h -22 l 21,18 c 21,17 44,53 44,69 0,4 -9,-6 -21,-24 -33,-51 -93,-61 -128,-20 -26,32 -51,92 -51,124 0,30 5,35 56,59 30,14 53,28 51,31 -3,2 -30,-7 -60,-21 -76,-34 -82,-55 -42,-140 26,-55 71,-96 105,-96 40,0 21,-29 -24,-35 -24,-4 -58,-15 -75,-26 -30,-18 -91,-93 -91,-112 0,-6 -8,-19 -17,-29 -15,-17 -16,-26 -4,-95 16,-94 19,-103 38,-103 13,0 14,9 7,58 -12,83 -7,131 19,181 28,56 62,81 123,92 27,5 56,17 65,28 15,18 16,17 40,-23 13,-22 33,-58 44,-79 26,-49 100,-121 115,-112 7,4 -2,21 -27,48 -21,23 -49,59 -62,80 -12,20 -26,37 -30,37 -8,0 -46,69 -40,74 2,2 47,13 99,26 114,26 122,30 150,76 25,40 31,37 53,-26 8,-25 18,-53 22,-62 5,-12 3,-18 -7,-18 -14,0 -58,-79 -58,-105 0,-29 26,-14 39,22 8,20 25,47 39,60 l 26,24 -22,62 c -30,85 -29,93 15,100 33,6 42,2 73,-27 45,-43 77,-60 120,-62 19,-1 58,-5 85,-9 85,-12 34,19 -70,44 -72,17 -95,26 -112,48 -29,36 -29,39 6,51 21,7 38,25 54,59 14,26 37,59 51,72 27,26 34,52 14,50 -7,0 -27,-17 -45,-38 z"
       id="path43" />
    <path
       d="m 4037,783 c -8,-14 25,-83 39,-83 18,0 18,9 -1,54 -15,34 -28,45 -38,29 z"
       id="path44" />
    <path
       d="m 3880,700 c 0,-6 11,-15 25,-20 14,-5 36,-17 50,-26 26,-17 26,-17 5,-31 -17,-12 -19,-18 -9,-30 7,-8 29,-49 48,-91 81,-174 117,-241 129,-242 21,0 13,27 -39,127 -71,138 -81,163 -65,163 7,0 47,-32 90,-71 60,-56 80,-69 89,-59 9,9 -1,24 -47,66 -50,46 -56,54 -36,54 19,0 21,4 16,23 -4,12 -8,29 -9,37 -1,8 -11,24 -22,35 -11,11 -30,33 -42,49 -12,15 -27,26 -32,24 -6,-1 5,-23 24,-47 34,-43 49,-84 23,-64 -109,84 -153,113 -174,113 -13,0 -24,-5 -24,-10 z m 130,-95 c 11,-13 10,-14 -4,-9 -9,3 -16,10 -16,15 0,13 6,11 20,-6 z"
       id="path45" />
    <path
       d="m 3476,361 c -19,-21 -38,-80 -30,-92 11,-18 34,-8 34,14 0,12 7,35 15,51 25,47 14,64 -19,27 z"
       id="path46" />
    <path
       d="m 3500,285 c 0,-40 87,-228 102,-219 15,10 8,36 -32,112 -21,43 -41,90 -43,106 -5,45 -27,45 -27,1 z"
       id="path47" />
  </g>
</svg>
