<?xml version="1.0" encoding="UTF-8" standalone="no"?>
<svg
   version="1.0"
   width="521pt"
   height="573.90057pt"
   viewBox="0 0 521 573.90057"
   preserveAspectRatio="xMidYMid"
   id="svg50"
   sodipodi:docname="laugh.svg"
   inkscape:version="1.3 (0e150ed, 2023-07-21)"
   xmlns:inkscape="http://www.inkscape.org/namespaces/inkscape"
   xmlns:sodipodi="http://sodipodi.sourceforge.net/DTD/sodipodi-0.dtd"
   xmlns="http://www.w3.org/2000/svg"
   xmlns:svg="http://www.w3.org/2000/svg">
  <defs
     id="defs50" />
  <sodipodi:namedview
     id="namedview50"
     pagecolor="#ffffff"
     bordercolor="#000000"
     borderopacity="0.25"
     inkscape:showpageshadow="2"
     inkscape:pageopacity="0.0"
     inkscape:pagecheckerboard="0"
     inkscape:deskcolor="#d1d1d1"
     inkscape:document-units="pt"
     inkscape:zoom="0.2979798"
     inkscape:cx="357.40678"
     inkscape:cy="379.22034"
     inkscape:window-width="1312"
     inkscape:window-height="449"
     inkscape:window-x="0"
     inkscape:window-y="25"
     inkscape:window-maximized="0"
     inkscape:current-layer="svg50" />
  <g
     transform="matrix(0.1,0,0,-0.1,-10,581.90056)"
     fill="#000000"
     stroke="none"
     id="g50">
    <path
       d="m 3440,5799 c -141,-38 -297,-127 -412,-236 -20,-20 -47,-40 -60,-47 -19,-9 -66,-80 -81,-120 -2,-5 -23,11 -48,35 -24,24 -66,55 -94,69 -27,14 -67,40 -88,58 -21,18 -49,37 -63,42 -41,16 -113,11 -180,-11 l -63,-21 -47,31 c -41,27 -56,31 -113,31 -55,0 -79,-6 -136,-33 -65,-31 -80,-34 -205,-41 l -135,-7 -64,-70 c -34,-38 -83,-83 -107,-100 l -45,-30 -18,23 -19,23 -25,-23 c -13,-13 -44,-52 -68,-88 -38,-56 -54,-71 -114,-101 -38,-20 -95,-52 -125,-72 -30,-20 -61,-36 -67,-36 -7,0 -13,-4 -12,-8 0,-5 -18,-28 -40,-52 -22,-24 -43,-56 -47,-72 -12,-45 -75,-153 -90,-153 -8,0 -32,-18 -53,-39 -59,-59 -88,-76 -105,-61 -23,18 -124,-15 -185,-61 -58,-44 -61,-45 -61,-23 0,14 -3,14 -15,4 -8,-7 -15,-22 -15,-34 0,-12 -9,-27 -19,-33 -11,-7 -32,-33 -46,-58 -15,-25 -33,-45 -40,-45 -18,0 -96,-79 -133,-135 -21,-32 -33,-65 -37,-103 -4,-31 -13,-95 -21,-142 -8,-47 -20,-201 -26,-343 -13,-278 -2,-534 26,-633 8,-27 16,-97 19,-156 4,-67 12,-118 21,-137 9,-16 16,-49 16,-73 0,-48 16,-153 31,-212 17,-64 20,-33 4,43 -8,40 -15,97 -15,127 0,30 -9,80 -20,111 -14,40 -20,83 -20,143 0,55 -7,109 -20,155 -18,62 -20,100 -21,335 0,372 -2,337 15,314 14,-18 15,-18 21,-2 4,10 2,32 -4,49 -20,57 -14,144 14,199 14,27 25,64 25,83 0,40 34,147 62,198 16,29 34,42 96,68 70,29 91,45 226,176 143,139 179,168 156,126 -15,-30 -13,-71 5,-71 8,0 15,7 15,15 0,9 10,35 21,57 l 21,42 19,-50 c 29,-74 25,-94 -33,-175 -48,-67 -61,-78 -129,-111 -84,-40 -135,-86 -206,-188 -54,-77 -33,-63 83,57 44,46 86,83 94,83 10,0 10,-4 -2,-17 -22,-26 -58,-99 -52,-106 4,-3 3,-28 -1,-55 -6,-49 -8,-50 -50,-61 -49,-12 -79,-43 -128,-132 -17,-32 -35,-59 -39,-59 -5,0 -8,15 -9,33 0,28 -3,24 -24,-33 -31,-82 -31,-93 1,-55 25,29 25,29 19,5 -4,-14 -28,-70 -53,-125 l -47,-100 -1,-175 c -1,-96 -7,-206 -13,-245 -11,-76 -13,-408 -3,-490 4,-27 11,-50 17,-50 6,0 9,79 6,220 -3,205 12,425 29,425 12,0 50,-91 50,-120 0,-17 -9,-56 -19,-87 -28,-83 -44,-256 -32,-335 8,-48 7,-79 -4,-133 -8,-38 -15,-117 -15,-175 0,-155 -15,-269 -39,-294 -11,-12 -24,-32 -29,-45 -8,-22 -10,-19 -30,30 l -21,54 v -37 c -1,-21 4,-58 11,-82 11,-43 11,-47 -25,-104 -20,-33 -37,-66 -37,-74 0,-7 19,18 42,55 l 41,68 12,-27 c 9,-24 8,-36 -11,-74 -12,-25 -29,-52 -38,-59 -9,-7 -16,-23 -16,-35 0,-11 -6,-44 -14,-72 -11,-41 -11,-61 0,-110 8,-40 13,-49 13,-28 1,30 47,134 60,134 4,0 7,-49 6,-109 0,-73 4,-114 12,-122 14,-14 18,2 27,91 5,53 51,162 71,167 6,1 24,-20 42,-47 l 32,-51 -29,-29 c -18,-18 -31,-45 -35,-72 -4,-24 -16,-63 -26,-87 -10,-24 -16,-48 -12,-54 8,-13 37,62 52,135 9,41 19,61 37,72 13,9 24,24 24,34 0,9 12,42 27,72 26,54 26,55 32,25 4,-18 17,-35 33,-44 36,-21 47,-7 19,23 -25,27 -23,53 7,78 37,33 60,32 97,-5 19,-19 35,-43 35,-52 0,-14 -4,-13 -20,6 l -20,24 6,-31 c 5,-29 0,-39 -57,-99 -35,-37 -104,-107 -154,-155 -65,-64 -87,-92 -79,-100 8,-8 49,28 151,130 78,77 144,140 147,140 3,0 6,-9 6,-21 0,-29 18,-59 36,-59 11,0 14,5 9,18 -20,49 -26,96 -12,109 11,12 21,3 60,-56 26,-39 81,-109 122,-155 41,-46 75,-86 75,-89 0,-7 -34,-42 -64,-65 -44,-34 -86,-29 -142,18 -27,22 -65,45 -84,50 -51,14 -145,-4 -184,-33 -41,-32 -75,-92 -59,-108 7,-7 16,-1 31,23 33,53 63,76 116,88 66,15 95,7 162,-46 47,-36 65,-44 99,-44 43,0 96,30 139,79 31,34 46,11 46,-70 0,-67 13,-97 28,-62 4,10 7,46 7,80 v 62 l 32,-57 c 18,-31 40,-62 50,-69 41,-31 106,-4 135,57 l 15,30 35,-52 c 20,-29 44,-69 53,-88 10,-19 44,-62 75,-95 32,-33 60,-72 63,-86 14,-57 202,-182 309,-204 18,-4 42,-13 53,-20 43,-27 140,-39 310,-37 185,1 451,24 483,41 12,6 31,11 44,11 13,0 63,20 112,45 49,25 90,44 91,42 1,-1 23,-30 48,-64 58,-76 83,-95 31,-24 -58,82 -54,101 47,200 46,46 115,105 153,132 38,27 96,80 128,119 61,73 72,80 85,56 5,-8 33,-41 63,-73 67,-70 162,-188 181,-224 18,-33 109,-135 109,-121 0,5 -20,32 -43,58 -24,27 -50,60 -57,73 -16,32 -122,161 -183,225 -91,95 -92,83 6,186 57,59 103,120 134,175 26,47 56,94 67,104 l 21,20 -3,-97 c -3,-88 -2,-99 17,-116 16,-15 21,-16 21,-5 0,8 -5,20 -11,26 -16,16 -8,215 9,221 15,5 16,32 1,32 -10,0 42,102 65,127 9,10 22,4 60,-30 46,-40 48,-44 36,-67 l -13,-25 22,19 c 26,24 33,17 54,-54 26,-92 30,-179 12,-272 -17,-88 -40,-188 -51,-225 -4,-16 -2,-23 7,-23 16,0 59,105 59,144 0,14 9,68 21,119 11,50 18,104 15,118 -6,31 17,69 32,54 7,-6 7,-44 1,-104 -13,-137 6,-235 57,-299 51,-63 61,-72 73,-72 16,0 13,26 -4,40 -101,84 -121,218 -75,495 6,33 9,107 8,165 -1,58 2,112 7,120 6,9 8,82 6,170 -1,85 0,176 4,202 7,44 9,47 31,42 27,-7 32,7 9,26 -8,7 -15,21 -15,32 0,20 31,87 60,128 10,14 37,61 60,105 24,44 51,90 62,101 18,20 18,22 2,28 -9,4 -24,0 -33,-7 -9,-8 -24,-17 -34,-20 -15,-6 -17,-3 -11,16 16,50 24,95 24,142 0,57 69,253 93,267 8,4 18,23 21,43 4,19 11,37 16,40 6,3 7,-1 4,-10 -10,-25 4,-60 35,-91 l 30,-29 -27,-101 c -15,-56 -33,-108 -40,-117 -9,-10 -10,-17 -2,-22 17,-10 12,-36 -20,-103 -17,-35 -33,-89 -37,-120 -3,-31 -13,-63 -21,-71 -9,-10 -12,-24 -7,-45 4,-17 10,-71 15,-121 9,-106 12,-115 49,-143 15,-11 47,-53 71,-93 41,-69 43,-77 48,-168 5,-91 4,-95 -13,-81 -30,25 -45,-11 -45,-109 0,-75 3,-89 26,-122 22,-32 26,-49 26,-109 1,-39 4,-73 8,-75 5,-3 6,-15 2,-27 -4,-18 -2,-20 16,-16 12,4 26,0 33,-8 17,-21 53,-17 77,9 12,13 22,27 22,33 0,5 -8,-1 -18,-12 -9,-12 -29,-24 -43,-28 -21,-4 -28,-1 -37,20 -23,49 -18,54 51,47 52,-4 72,-2 112,16 26,12 50,19 53,17 2,-3 -18,-40 -45,-83 -36,-57 -59,-83 -86,-96 -27,-12 -37,-23 -36,-40 0,-22 0,-22 9,-1 4,11 22,27 39,34 41,16 140,167 126,190 -3,5 12,21 32,37 21,15 39,31 41,35 2,3 17,2 35,-3 18,-5 52,-9 76,-9 43,0 44,0 26,-20 -23,-26 -65,-25 -99,1 -15,12 -29,19 -32,16 -7,-7 48,-45 77,-52 27,-7 79,26 79,50 0,8 9,16 19,20 34,10 101,94 132,162 41,91 30,91 -13,0 -60,-126 -134,-177 -235,-162 -42,6 -54,17 -33,30 5,3 15,16 21,28 9,17 3,14 -23,-10 l -34,-33 -34,30 c -19,16 -29,29 -22,30 13,0 6,50 -9,60 -5,3 -3,33 3,67 10,56 9,64 -11,98 -12,21 -26,61 -32,89 -18,97 -60,169 -133,226 -74,58 -79,69 -112,253 -15,84 -15,100 -4,107 19,12 6,24 -16,16 -19,-7 -18,-24 11,-181 21,-118 44,-160 116,-218 66,-54 95,-101 114,-191 7,-35 23,-81 36,-103 l 23,-40 -18,-92 c -9,-50 -15,-95 -12,-99 7,-11 -12,-79 -23,-86 -5,-3 -28,15 -52,39 -24,25 -49,45 -55,45 -6,0 -16,-18 -23,-41 -8,-25 -17,-38 -24,-35 -7,3 -20,9 -29,12 -10,4 -18,11 -18,17 0,6 -12,28 -26,49 -30,43 -29,69 6,163 19,50 21,74 17,146 -4,76 -9,94 -43,155 -21,38 -55,86 -77,107 -35,35 -37,40 -21,51 14,11 16,21 9,67 -5,30 -9,108 -8,174 0,112 2,125 32,192 17,40 31,83 31,97 0,27 23,45 56,45 10,0 36,4 57,9 34,9 38,8 32,-6 -4,-10 -11,-31 -15,-47 -4,-17 -12,-41 -19,-54 -7,-13 -17,-48 -21,-80 -5,-31 -12,-73 -16,-93 -5,-30 -3,-38 8,-38 12,0 18,21 26,86 7,48 14,90 18,93 11,11 33,-31 40,-75 6,-44 3,-73 -11,-106 -5,-13 -3,-18 9,-18 13,0 16,-12 16,-63 0,-74 24,-174 48,-200 9,-11 35,-28 57,-39 60,-31 141,-106 159,-146 15,-35 40,-104 53,-145 3,-10 -1,-25 -10,-35 -8,-9 -19,-29 -22,-44 -6,-24 -4,-28 15,-28 11,0 18,5 15,10 -4,6 7,10 24,10 42,0 39,-13 -10,-34 -22,-10 -38,-20 -36,-22 3,-3 30,7 62,21 36,16 76,25 109,25 28,1 69,8 91,16 22,9 55,21 73,27 17,7 32,18 32,26 0,7 14,30 30,51 17,21 30,43 30,49 0,19 -27,12 -43,-11 -8,-13 -33,-33 -55,-46 l -40,-22 -29,29 c -39,38 -70,123 -89,239 -8,52 -30,138 -48,191 -24,72 -31,105 -26,133 4,20 3,35 -2,32 -4,-3 -8,-12 -8,-20 0,-33 -19,-11 -25,30 -9,55 65,361 87,361 18,0 46,54 40,78 -5,19 -6,19 -19,2 -16,-23 -16,-30 2,96 8,60 27,137 45,182 36,94 40,156 10,164 -32,8 -25,66 20,187 22,58 40,115 40,125 0,25 -25,44 -47,37 -13,-4 -28,7 -52,35 -42,51 -43,88 -1,188 40,98 43,135 12,139 -13,2 -41,-4 -63,-12 -22,-9 -43,-16 -48,-16 -16,0 -23,34 -31,170 -9,159 -25,208 -78,242 -19,13 -45,29 -57,37 -13,9 -30,37 -39,67 -9,28 -28,69 -43,90 -58,85 -86,142 -105,209 -22,81 -49,115 -90,115 -67,0 -99,34 -133,140 -12,37 -31,68 -59,95 -23,22 -59,64 -81,94 l -38,53 -91,-7 -91,-6 -37,39 c -37,39 -48,43 -163,67 -11,3 -43,27 -72,54 -87,82 -177,99 -323,60 z m 211,-24 c 24,-9 64,-35 89,-59 56,-54 71,-62 140,-71 47,-6 60,-14 98,-53 l 44,-45 88,6 88,7 52,-66 c 28,-36 58,-68 66,-71 16,-6 54,-73 54,-96 0,-7 11,-36 25,-64 27,-54 69,-83 118,-83 36,0 54,-22 73,-88 9,-31 31,-87 50,-123 l 33,-66 -47,4 c -79,7 -87,11 -120,55 -78,104 -130,164 -153,175 -13,7 -48,13 -77,13 -78,0 -92,11 -92,71 0,28 -5,59 -11,70 -11,21 -133,81 -202,100 -22,6 -79,23 -127,39 -51,17 -122,31 -171,35 -124,9 -126,10 -139,52 -22,73 -30,83 -70,83 -21,0 -59,-10 -86,-22 -80,-35 -144,-48 -238,-48 -105,0 -105,1 19,93 95,71 193,120 295,146 92,24 144,26 201,6 z M 2291,5570 c 52,-35 68,-36 145,-9 87,30 193,15 177,-27 -3,-8 0,-14 6,-14 7,0 27,-16 45,-36 30,-32 38,-36 66,-30 30,6 38,1 87,-48 l 54,-54 -23,-53 c -29,-71 -36,-149 -14,-149 10,0 16,9 16,24 0,14 4,27 8,30 4,2 6,-11 4,-30 -2,-19 1,-41 8,-49 16,-19 50,-19 50,0 0,8 -7,15 -15,15 -16,0 -21,35 -7,44 5,3 10,27 11,53 2,77 20,124 69,188 56,73 59,75 93,68 46,-9 197,15 288,47 49,16 95,30 104,30 22,0 40,-62 32,-110 -8,-48 -22,-50 -59,-11 -15,16 -39,31 -52,34 -22,4 -21,1 13,-37 20,-23 41,-44 47,-49 6,-4 49,-6 96,-6 96,2 113,-4 203,-61 57,-36 71,-40 126,-40 64,0 70,-3 119,-64 7,-9 18,-14 23,-10 5,3 32,-2 59,-11 37,-12 68,-34 118,-85 37,-37 78,-71 90,-75 22,-6 23,-11 18,-49 -4,-24 -4,-50 -1,-59 4,-9 47,-50 96,-92 l 89,-75 v -55 c 0,-52 2,-56 33,-74 85,-50 204,-179 192,-210 -3,-8 -8,-40 -12,-70 -4,-45 -2,-59 11,-70 21,-18 20,-44 -5,-93 -28,-56 -9,-76 22,-23 l 22,38 29,-34 c 66,-79 128,-182 128,-214 0,-15 63,-151 96,-205 9,-16 13,-39 9,-65 -2,-22 -9,-119 -14,-215 -6,-120 -15,-199 -29,-250 -36,-133 -36,-130 -8,-130 13,0 26,6 29,13 2,6 7,10 9,7 6,-5 -25,-142 -61,-275 -25,-90 -22,-153 8,-214 22,-44 67,-173 77,-221 l 7,-35 -29,31 c -16,17 -44,39 -62,48 -27,14 -32,22 -32,54 0,59 -30,215 -46,240 -8,12 -28,25 -45,29 -19,4 -35,16 -44,34 -14,26 -14,29 5,39 19,10 57,70 44,70 -3,0 -17,-9 -31,-20 -66,-52 -35,30 41,109 72,75 93,108 78,123 -14,14 -33,1 -26,-17 4,-9 -22,-43 -64,-88 -77,-81 -82,-81 -82,5 0,32 7,59 18,76 10,15 37,61 60,103 48,88 54,138 22,206 -10,24 -23,67 -29,95 -5,29 -12,60 -16,69 -7,19 28,49 57,49 10,0 18,7 18,15 0,9 16,25 35,36 19,12 35,27 35,35 0,19 -7,18 -57,-12 -24,-14 -47,-23 -52,-20 -4,3 -14,27 -21,53 -7,27 -24,59 -36,74 -19,20 -24,36 -24,81 0,124 -37,229 -110,308 -22,24 -40,51 -40,61 0,10 16,33 36,51 42,38 58,64 48,79 -4,7 -25,-7 -53,-34 -44,-44 -85,-67 -117,-67 -13,0 -57,82 -78,143 -3,9 -15,17 -26,17 -23,0 -26,-10 -8,-28 6,-6 17,-26 23,-44 7,-18 16,-41 20,-52 9,-21 4,-20 -92,16 -41,15 -55,26 -70,56 -14,30 -27,40 -65,52 -26,8 -49,18 -52,21 -10,10 23,176 49,245 27,73 31,114 13,132 -7,7 -36,12 -65,12 -87,0 -116,18 -141,86 -60,162 -85,185 -209,194 -99,8 -118,14 -195,64 -31,19 -78,40 -104,47 -27,6 -63,20 -80,30 -50,30 -93,24 -163,-21 -48,-31 -66,-38 -76,-30 -24,20 -84,-24 -85,-62 0,-34 50,-19 144,42 95,62 127,70 161,44 11,-8 49,-23 85,-34 36,-11 85,-32 110,-47 75,-47 101,-56 192,-63 107,-8 117,-16 169,-130 22,-47 43,-92 47,-100 15,-27 75,-50 129,-50 28,0 55,-5 58,-10 4,-6 -5,-43 -18,-83 -34,-97 -49,-181 -45,-247 l 3,-55 49,-10 c 76,-16 68,-32 -21,-40 -43,-4 -125,-13 -183,-21 -273,-38 -323,-42 -344,-32 -12,7 -33,6 -60,-1 -81,-20 -107,-23 -121,-11 -10,9 -40,9 -117,1 -57,-5 -122,-7 -145,-4 -40,5 -42,7 -37,32 4,14 17,49 30,77 13,28 24,60 24,71 0,26 -28,93 -38,93 -9,0 -52,90 -52,108 0,7 -18,42 -40,78 l -39,65 39,-28 c 24,-17 38,-34 35,-42 -3,-8 2,-22 11,-32 9,-10 13,-23 9,-28 -3,-6 -3,-16 0,-21 11,-17 35,9 35,37 v 24 l 25,-19 c 20,-16 32,-18 72,-11 26,4 78,12 115,18 86,14 206,4 233,-19 27,-24 88,-53 155,-75 30,-10 78,-29 105,-44 28,-14 53,-27 58,-29 4,-2 7,4 7,12 0,9 -15,25 -32,36 -32,19 -46,25 -171,71 -32,12 -73,34 -91,50 -32,27 -38,29 -142,31 -60,2 -146,-3 -192,-9 -83,-12 -83,-12 -125,14 -83,53 -127,94 -146,138 -11,26 -27,45 -35,45 -21,0 -20,-9 8,-63 16,-29 20,-44 11,-41 -27,11 -23,-14 9,-59 19,-26 39,-62 46,-80 22,-60 64,-147 70,-147 12,0 30,-50 30,-81 0,-17 -6,-32 -15,-35 -8,-3 -17,-22 -21,-42 -4,-21 -9,-41 -12,-46 -8,-14 -31,36 -32,69 0,43 -19,103 -34,112 -7,5 -18,30 -26,56 -8,31 -22,54 -38,65 -14,9 -60,52 -103,95 -73,73 -77,80 -68,105 18,47 13,89 -15,123 -14,17 -26,26 -26,20 0,-5 7,-17 16,-26 16,-15 16,-22 -1,-98 -10,-45 -22,-86 -26,-91 -16,-18 -89,26 -109,63 -23,47 -41,186 -34,259 8,72 1,86 -104,207 -78,90 -79,90 -168,120 -54,18 -88,35 -86,43 2,14 -17,16 -37,3 -23,-15 3,-38 71,-62 35,-13 54,-25 47,-29 -20,-13 9,-105 48,-152 52,-62 55,-73 61,-187 l 5,-106 -37,-43 c -20,-24 -36,-47 -36,-50 0,-4 -30,-25 -67,-47 -67,-41 -153,-116 -153,-134 0,-6 -11,-20 -24,-33 -15,-14 -28,-44 -35,-76 -6,-29 -15,-58 -21,-65 -5,-7 -19,-23 -30,-37 l -20,-25 19,55 c 10,31 28,75 40,98 11,22 21,48 21,57 0,25 -27,17 -34,-10 -3,-13 -16,-35 -29,-49 -12,-14 -40,-50 -61,-80 -22,-30 -41,-54 -43,-52 -6,6 28,100 42,116 7,8 16,25 19,37 8,26 81,140 109,170 19,21 22,22 38,7 33,-29 53,-14 66,50 6,32 9,65 6,73 -3,8 -1,18 6,22 6,4 13,18 16,31 5,26 24,51 78,100 l 38,35 -16,45 c -19,54 -43,80 -117,131 -31,21 -75,61 -98,88 -23,27 -58,57 -78,67 -34,16 -40,16 -106,0 -39,-9 -113,-35 -164,-57 -71,-30 -102,-38 -124,-34 -16,4 -43,1 -60,-6 l -30,-12 24,-13 c 12,-7 38,-13 56,-14 22,0 32,-5 32,-15 0,-24 28,-17 32,7 5,34 202,120 277,122 54,0 55,0 110,-60 31,-33 86,-81 122,-107 42,-29 72,-59 83,-82 l 17,-36 -38,-46 c -21,-25 -45,-54 -53,-64 -14,-17 -17,-16 -70,10 -37,18 -64,41 -84,70 -31,46 -75,71 -127,71 -18,0 -65,11 -104,25 -83,28 -315,51 -428,42 -52,-5 -66,-3 -60,6 62,83 77,97 86,88 31,-31 111,17 217,131 l 55,59 130,6 c 119,6 135,9 200,39 95,45 164,46 226,4 z m 1357,-135 c 131,-9 468,-117 494,-158 8,-12 11,-67 4,-67 -2,0 -23,9 -47,20 -24,11 -56,20 -71,20 -17,0 -29,7 -32,18 -10,31 -60,52 -123,52 -51,0 -65,5 -118,40 -64,43 -138,70 -191,70 -18,0 -36,5 -40,11 -4,7 0,9 12,6 11,-3 61,-8 112,-12 z m -1174,-94 c 19,-25 44,-55 57,-66 66,-59 103,-156 66,-171 -20,-7 -21,-103 -1,-111 8,-3 14,-19 14,-41 0,-40 -10,-36 -26,11 -7,18 -17,31 -23,30 -14,-4 -34,35 -27,53 3,7 -2,17 -11,22 -9,6 -19,31 -24,62 -5,31 -20,69 -36,93 -50,70 -71,111 -78,149 l -7,38 31,-11 c 17,-6 45,-31 65,-58 z m -688,-160 c 89,-18 143,-39 176,-68 19,-17 42,-8 34,13 -7,18 -2,18 34,-1 16,-8 31,-24 35,-34 8,-26 70,-80 113,-98 32,-13 33,-15 19,-36 -7,-12 -19,-32 -26,-44 -11,-23 -12,-23 -70,20 -32,24 -79,51 -104,61 -26,10 -47,22 -47,28 0,15 -101,107 -142,128 -56,30 -157,27 -250,-6 -153,-55 -399,-191 -485,-267 -13,-12 -23,-15 -23,-9 0,17 -36,15 -65,-4 l -24,-15 20,52 c 26,68 46,92 122,150 66,49 171,112 150,89 -15,-16 -17,-50 -4,-50 5,0 25,21 46,46 21,25 47,49 59,54 42,17 335,11 432,-9 z m 15,-64 c 19,-12 42,-39 51,-60 21,-42 38,-55 128,-92 35,-15 75,-35 87,-45 23,-18 22,-18 -55,-45 -42,-15 -97,-38 -121,-51 -54,-30 -73,-30 -191,2 -59,16 -140,29 -215,34 -66,4 -130,11 -142,15 -29,9 -138,-64 -224,-148 -61,-61 -75,-97 -39,-97 13,0 20,7 20,18 0,22 77,97 155,150 l 60,40 140,-8 c 88,-5 168,-16 215,-29 137,-38 166,-38 250,2 166,78 249,81 189,7 -64,-79 -135,-207 -170,-305 -12,-33 -27,-76 -34,-95 l -13,-35 -119,-2 c -152,-2 -258,-10 -307,-22 -21,-5 -45,-7 -52,-4 -8,3 -21,0 -30,-7 -11,-10 -18,-10 -26,-2 -8,8 -18,7 -38,-3 -15,-8 -30,-11 -34,-8 -3,4 -6,1 -6,-5 0,-15 15,-15 42,-1 15,8 22,8 28,-1 6,-9 13,-9 31,1 13,7 28,12 32,11 5,-1 64,4 132,13 68,8 173,15 234,15 h 111 v -37 c 0,-21 3,-47 5,-58 4,-16 -5,-25 -49,-47 l -54,-27 -6,25 c -9,35 -28,39 -75,15 -50,-26 -51,-26 -51,-1 0,26 -24,26 -68,-2 -32,-20 -36,-20 -47,-5 -16,22 -28,21 -50,-3 -18,-20 -52,-29 -40,-11 9,16 -15,24 -31,10 -13,-11 -18,-10 -26,4 -8,16 -11,16 -30,2 -17,-11 -25,-12 -36,-3 -10,9 -18,9 -32,0 -17,-10 -19,-6 -25,56 -4,37 -12,75 -17,85 -5,9 -6,45 -2,78 11,101 88,176 182,178 18,1 53,12 77,26 33,20 55,25 97,24 42,-2 72,6 138,34 47,20 96,38 110,40 20,3 18,5 -8,6 -19,0 -69,-14 -115,-35 -67,-29 -89,-34 -123,-29 -33,5 -51,0 -98,-25 -32,-16 -73,-30 -91,-30 -53,0 -89,-18 -127,-63 -59,-71 -62,-81 -52,-176 14,-141 7,-271 -15,-301 -32,-44 -68,-123 -74,-165 -11,-63 -27,-115 -37,-115 -18,0 -10,80 11,122 22,42 22,74 3,179 -6,33 -3,37 45,74 41,31 48,41 36,48 -11,6 -27,-1 -54,-22 -21,-17 -42,-31 -45,-31 -21,0 16,107 56,162 26,37 -41,263 -82,276 -12,4 -11,1 2,-14 25,-29 45,-82 63,-167 l 15,-75 -31,-51 c -21,-33 -34,-69 -37,-100 -4,-44 -9,-52 -53,-86 -46,-35 -63,-65 -38,-65 6,0 30,16 53,35 24,19 46,35 49,35 3,0 11,-31 18,-70 11,-63 10,-74 -6,-111 l -19,-41 -106,3 c -99,4 -106,3 -114,-17 -10,-21 -10,-21 -42,-2 -55,32 -64,55 -46,112 9,27 26,54 39,63 13,8 23,20 23,27 0,34 23,86 40,91 11,4 29,24 40,45 29,56 100,243 95,248 -5,6 -42,-78 -52,-116 -13,-56 -67,-153 -94,-173 -20,-14 -31,-32 -35,-59 -4,-25 -15,-45 -29,-54 -13,-9 -29,-32 -35,-53 -7,-21 -14,-41 -16,-44 -6,-11 -113,47 -144,77 -23,23 -30,38 -30,72 0,23 3,42 8,42 4,0 18,20 31,45 25,48 100,117 139,129 14,5 29,3 38,-5 11,-9 18,-9 26,-1 15,15 -7,42 -33,42 -16,0 -11,11 26,66 49,71 58,125 30,174 -27,47 -19,82 28,131 24,24 58,52 75,62 28,16 32,16 32,3 0,-26 25,-18 72,20 111,94 353,228 511,284 77,27 175,26 218,-3 z m 2569,-37 c 14,-17 54,-68 91,-113 l 65,-82 61,-5 c 34,-3 65,-9 69,-13 5,-4 15,-31 24,-60 12,-38 24,-57 47,-72 22,-14 37,-35 48,-66 9,-26 34,-77 56,-113 54,-90 69,-136 69,-216 0,-48 4,-71 15,-80 9,-8 15,-30 15,-59 1,-89 20,-195 44,-241 25,-48 66,-171 66,-199 0,-30 -103,174 -113,225 -8,43 -67,137 -127,206 -28,32 -50,66 -50,79 0,12 -7,31 -16,40 -15,16 -15,26 -5,77 6,33 8,68 4,78 -12,34 -103,131 -164,175 -58,43 -59,44 -59,92 0,54 -4,58 -124,161 l -58,49 4,56 c 3,53 2,56 -27,69 -49,21 -59,28 -63,42 -4,10 7,12 49,8 46,-5 58,-10 79,-38 z M 2528,4972 c 10,-22 25,-47 35,-56 9,-10 17,-32 17,-49 0,-59 -19,-147 -35,-163 -8,-8 -15,-32 -15,-52 -2,-113 -6,-162 -17,-173 -8,-8 -13,11 -18,77 -4,49 -12,98 -19,109 -6,11 -13,48 -16,83 -3,34 -9,62 -15,62 -16,0 -17,-105 -1,-143 8,-20 18,-78 21,-129 4,-52 13,-100 20,-108 7,-8 16,-32 20,-53 10,-54 26,-57 19,-3 -5,33 -3,46 5,46 7,0 11,6 8,13 -2,6 2,29 9,51 8,21 14,52 14,69 0,17 8,35 18,43 16,12 16,13 0,19 -12,5 -18,18 -18,41 0,19 4,34 9,34 14,0 22,28 35,120 l 13,85 24,-48 c 18,-38 33,-52 68,-68 24,-11 58,-19 75,-19 69,0 85,-6 129,-50 25,-25 57,-55 71,-66 14,-13 28,-38 32,-60 4,-22 18,-49 30,-61 18,-17 24,-33 24,-66 0,-45 21,-110 40,-122 18,-11 11,-20 -17,-21 -16,0 -78,-4 -140,-9 l -111,-8 -16,-41 c -9,-23 -16,-51 -16,-61 1,-18 20,23 37,78 4,14 16,18 57,18 28,-1 78,2 111,5 93,10 108,8 128,-18 l 20,-23 -7,23 c -9,27 16,41 39,22 8,-7 23,-9 32,-5 34,13 207,24 220,14 8,-7 37,-7 88,1 43,6 87,9 98,7 21,-6 154,8 367,37 110,15 120,14 120,-10 0,-18 5,-18 35,2 36,23 93,11 105,-22 13,-34 12,-44 -4,-44 -7,0 -34,-11 -60,-25 -26,-14 -56,-25 -66,-25 -11,0 -31,-5 -45,-12 -21,-9 -28,-9 -35,1 -6,11 -15,11 -39,3 -26,-9 -31,-8 -31,4 0,17 -23,13 -74,-13 -16,-9 -31,-11 -35,-6 -3,5 -22,8 -41,7 -34,-2 -57,-9 -154,-45 -37,-15 -47,-16 -43,-5 10,24 -4,26 -44,5 -22,-11 -39,-15 -39,-9 0,17 -26,11 -45,-10 -11,-12 -25,-18 -36,-15 -11,4 -34,-4 -56,-19 -47,-33 -63,-33 -63,-1 0,29 -17,32 -60,10 -27,-14 -30,-14 -30,0 0,12 -4,14 -19,5 -14,-7 -21,-6 -24,3 -3,7 -20,-3 -46,-28 l -41,-39 v 32 c 0,36 -6,39 -32,15 -17,-15 -18,-15 -18,9 0,35 -10,41 -37,23 -23,-15 -23,-15 -17,10 8,34 -8,32 -45,-5 -27,-27 -33,-29 -51,-18 -11,7 -20,23 -20,35 0,29 -21,30 -46,2 -10,-11 -26,-18 -36,-16 -19,5 -25,-8 -8,-18 6,-4 26,5 45,20 31,23 35,24 35,7 0,-10 11,-28 25,-40 l 25,-22 22,25 c 26,30 42,32 33,5 -8,-24 4,-26 31,-5 28,21 34,18 34,-15 0,-35 6,-37 33,-12 19,17 20,16 13,-10 -9,-40 7,-41 44,-3 33,34 64,39 81,13 4,-6 24,-1 48,11 40,21 41,21 41,2 0,-10 7,-24 15,-31 12,-10 21,-8 50,9 19,11 42,18 50,15 8,-3 30,6 50,21 19,15 35,22 35,16 0,-17 19,-13 52,10 l 30,22 -7,-22 c -8,-27 4,-27 63,3 26,13 52,21 59,19 7,-2 22,1 33,7 35,19 78,21 82,5 2,-12 14,-10 56,10 63,29 62,29 62,10 0,-11 5,-12 26,-5 36,14 47,12 40,-5 -7,-20 2,-19 49,5 22,11 46,18 53,15 7,-3 40,9 72,25 33,17 66,30 73,30 14,0 37,-40 37,-65 0,-8 7,-15 15,-15 19,0 19,33 0,70 -11,22 -12,30 -2,33 7,3 5,6 -5,6 -10,1 -18,6 -18,11 0,14 5,13 85,-14 68,-22 70,-23 78,-64 7,-36 4,-49 -22,-99 -38,-72 -40,-122 -6,-205 14,-34 25,-65 25,-69 0,-8 -37,-14 -152,-24 -60,-6 -68,-5 -68,11 0,9 11,27 24,39 13,12 31,46 41,76 9,30 35,91 56,136 39,83 47,113 29,113 -12,0 -96,-174 -116,-240 -8,-27 -23,-54 -34,-60 -10,-5 -24,-25 -30,-44 l -11,-35 -79,4 c -113,5 -166,15 -239,42 -45,17 -98,26 -180,32 -64,5 -136,16 -160,25 -60,23 -241,13 -369,-20 -101,-26 -162,-30 -193,-14 -25,14 -24,26 4,35 45,15 -86,25 -235,19 -110,-5 -151,-4 -162,5 -8,7 -20,10 -25,7 -5,-4 -12,-2 -15,3 -3,5 22,12 57,16 34,4 69,12 77,17 10,6 6,7 -15,2 -42,-10 -195,-11 -195,-2 0,5 -21,8 -47,8 -37,0 -44,3 -35,12 7,7 12,18 12,25 0,16 -27,17 -32,1 -2,-6 -20,-11 -39,-10 -19,1 -117,5 -219,9 -157,7 -185,10 -188,24 -4,21 37,69 44,52 3,-7 12,-13 20,-13 10,0 14,14 14,55 0,60 16,73 43,35 14,-20 15,-20 51,-3 32,15 38,15 46,3 8,-12 15,-13 42,-2 25,9 34,9 40,-1 6,-9 12,-9 28,1 26,16 30,15 30,-4 0,-15 3,-14 27,1 16,11 28,14 30,8 7,-20 63,17 68,45 3,15 10,41 16,57 5,17 11,34 12,39 4,17 -59,25 -213,27 -86,0 -162,4 -169,8 -8,5 -5,13 10,27 38,34 80,106 92,157 6,28 20,60 32,72 11,12 33,41 49,63 16,22 43,46 60,53 36,15 84,50 133,99 19,19 39,34 45,32 18,-5 28,20 28,76 0,28 2,52 5,52 4,0 14,-17 23,-38 z m -323,-119 c -5,-27 -9,-33 -18,-24 -9,9 -9,16 1,31 6,11 12,28 13,37 0,12 2,13 6,5 3,-7 2,-29 -2,-49 z m 2531,-58 c 8,-19 10,-35 5,-35 -9,0 -41,72 -41,93 1,14 16,-10 36,-58 z m 112,-133 c 31,-26 62,-102 62,-156 0,-22 -61,74 -91,142 -21,49 -16,52 29,14 z m -4146,2 c 3,-3 -31,-40 -75,-82 -45,-42 -90,-86 -101,-96 -19,-19 -20,-19 -32,15 -7,19 -13,37 -13,41 -2,14 108,89 156,108 54,21 57,22 65,14 z M 466,4496 c 15,-62 -18,-105 -55,-72 -27,24 -26,28 5,65 31,37 42,39 50,7 z m 1553,-47 c -13,-39 -26,-56 -35,-46 -3,3 4,24 17,46 27,48 34,48 18,0 z M 394,4394 c 8,-22 9,-21 -24,-33 -34,-11 -37,-5 -14,27 18,26 30,28 38,6 z m -104,-45 c -12,-16 -25,-28 -28,-25 -5,6 36,56 45,56 3,0 -5,-14 -17,-31 z m 2128,-4 c 3,-3 -2,-19 -11,-34 -9,-16 -17,-36 -17,-44 0,-20 -29,-49 -41,-42 -5,3 -17,1 -27,-4 -13,-7 -22,-7 -29,0 -8,8 -17,8 -30,0 -11,-5 -29,-8 -40,-5 -12,3 -31,1 -43,-6 -18,-10 -24,-9 -34,5 -12,16 -14,16 -45,0 -29,-14 -35,-15 -49,-2 -10,8 -25,17 -35,20 -15,6 -17,13 -11,44 16,89 -1,83 215,78 105,-2 194,-7 197,-10 z m -444,-69 c -5,-32 -13,-50 -27,-57 -18,-10 -19,-9 -13,27 7,32 36,87 44,80 1,-2 -1,-24 -4,-50 z m 3096,-9 c 0,-7 -14,-45 -30,-84 -17,-39 -33,-91 -36,-116 -6,-39 -3,-48 23,-78 17,-19 35,-44 42,-56 7,-13 23,-23 40,-25 l 30,-3 -26,-78 c -14,-43 -29,-74 -33,-70 -3,4 -12,33 -19,63 -8,30 -29,88 -48,128 -30,62 -36,90 -44,184 -6,61 -9,111 -7,112 7,4 94,34 101,35 4,0 7,-5 7,-12 z M 227,4236 c -7,-14 -13,-23 -15,-21 -7,6 9,45 18,45 4,0 3,-11 -3,-24 z m 4304,4 c 12,-7 19,-21 19,-40 0,-38 26,-203 40,-250 13,-44 13,-97 1,-105 -6,-3 -28,-3 -50,1 -39,6 -41,9 -72,82 -38,92 -36,133 10,210 33,57 38,81 19,100 -16,16 5,17 33,2 z m -2886,-19 c -9,-30 12,-35 51,-12 48,28 72,27 80,-4 7,-29 24,-27 80,5 l 32,18 10,-49 c 7,-40 6,-57 -7,-85 -14,-31 -19,-35 -43,-30 -16,3 -38,2 -51,-3 -12,-5 -61,-19 -109,-32 -53,-14 -88,-29 -88,-36 0,-9 -20,-13 -69,-13 -38,0 -84,-7 -104,-15 -22,-9 -68,-15 -117,-15 -64,0 -80,-3 -80,-15 0,-32 110,-32 200,0 23,8 68,15 99,15 51,0 197,17 230,26 10,3 10,8 2,18 -9,11 -4,15 26,20 74,12 99,8 113,-19 13,-24 30,-32 43,-18 4,3 2,12 -4,20 -10,11 16,13 152,11 121,-1 144,-3 89,-7 -49,-4 -85,-13 -102,-25 -37,-25 -35,-36 6,-36 22,0 36,-6 40,-16 3,-9 6,-62 6,-119 0,-89 -5,-121 -36,-227 -19,-68 -41,-159 -49,-204 -7,-44 -26,-111 -42,-150 -25,-62 -33,-71 -73,-90 -25,-12 -86,-27 -140,-34 -52,-6 -108,-16 -125,-21 -47,-16 -190,-32 -295,-34 -52,0 -128,-5 -167,-10 -50,-5 -73,-5 -73,3 0,14 -55,32 -100,32 -42,0 -52,9 -71,65 -8,22 -17,42 -21,45 -40,30 -78,67 -78,75 0,5 -14,19 -30,30 -28,18 -44,69 -21,62 5,-1 16,7 24,17 14,19 15,19 49,-2 50,-31 55,-27 18,14 -46,53 -54,81 -33,113 14,20 18,47 18,123 0,91 -6,120 -22,105 -4,-4 -9,-47 -11,-95 -5,-96 -16,-123 -30,-71 l -8,34 -8,-44 c -4,-25 -18,-73 -32,-108 -19,-48 -23,-67 -15,-77 6,-7 13,-36 14,-64 4,-58 19,-79 81,-116 28,-16 51,-42 70,-75 32,-59 42,-66 115,-74 30,-4 62,-14 72,-23 16,-15 30,-16 96,-8 43,4 119,9 168,10 112,1 257,19 285,34 12,7 33,9 46,6 13,-4 64,5 116,20 51,14 104,27 116,28 13,2 27,7 30,12 4,5 16,14 26,19 28,16 74,140 87,232 5,43 26,128 46,188 23,71 37,136 40,185 2,41 10,86 16,99 10,21 17,23 62,19 27,-2 75,-16 105,-30 30,-14 79,-29 108,-33 44,-6 52,-10 46,-24 -3,-9 -12,-34 -19,-56 -23,-70 -139,-299 -191,-375 -17,-25 -49,-79 -72,-121 -32,-58 -53,-83 -91,-110 -72,-49 -131,-157 -140,-256 -4,-40 -12,-78 -19,-85 -6,-6 -12,-22 -12,-33 0,-20 -5,-21 -71,-21 l -70,1 -48,-50 c -26,-28 -56,-72 -66,-100 -11,-27 -27,-57 -37,-67 -18,-18 -24,-49 -12,-61 3,-3 8,-32 10,-64 5,-78 23,-163 40,-188 11,-16 12,-51 5,-175 -5,-85 -5,-163 -1,-175 4,-11 24,-36 44,-55 l 36,-34 106,2 c 94,2 110,5 152,29 26,14 54,32 63,40 8,7 38,16 65,20 27,3 64,15 82,25 18,10 36,18 40,18 15,0 32,-111 21,-132 -26,-48 21,-65 61,-23 34,36 41,152 14,203 l -18,34 29,24 c 16,12 32,21 36,19 3,-3 14,13 24,35 10,22 26,47 36,56 11,10 19,22 19,28 0,7 14,20 31,30 46,27 71,93 77,201 2,49 -1,102 -6,116 -24,61 -144,78 -224,31 -54,-31 -98,-85 -98,-119 0,-27 18,-31 27,-5 13,36 56,83 95,103 48,25 129,22 155,-4 32,-32 28,-158 -8,-249 -9,-22 -16,-27 -34,-22 -13,3 -26,0 -30,-6 -4,-6 -17,-15 -30,-20 -22,-8 -55,-81 -55,-121 0,-22 -120,-125 -174,-149 -237,-105 -397,-145 -455,-115 -45,22 -51,43 -51,157 0,140 32,327 66,387 14,25 48,99 75,165 58,138 73,162 101,169 14,4 19,11 14,22 -3,9 0,18 9,21 8,4 15,14 15,23 0,9 9,30 20,46 27,41 27,64 0,40 -20,-18 -20,-17 -20,22 0,58 74,201 119,230 18,13 37,20 42,18 4,-3 10,-1 14,5 3,5 15,10 26,10 20,0 26,24 9,35 -11,7 26,78 105,200 63,99 92,153 147,276 24,53 58,113 76,133 l 32,37 75,-16 c 41,-8 77,-15 80,-15 3,0 5,-53 5,-117 0,-159 26,-289 75,-379 20,-38 46,-85 56,-106 22,-43 95,-108 121,-108 29,0 21,15 -26,51 -25,19 -50,45 -57,59 -6,14 -18,36 -25,50 -74,131 -103,233 -104,362 0,49 8,73 57,172 31,64 54,118 51,121 -5,6 -98,-180 -98,-196 0,-5 -5,-9 -11,-9 -14,0 -1,102 14,112 7,4 7,11 -2,22 -7,8 -16,27 -20,43 -11,41 -37,37 -33,-6 l 4,-34 -49,7 c -26,3 -102,10 -168,15 -104,9 -128,14 -184,42 -51,26 -74,31 -122,30 -46,-1 -59,2 -59,14 0,10 10,15 33,15 17,1 61,7 97,15 85,19 138,19 191,-1 37,-13 72,-15 212,-9 151,6 167,5 167,-10 0,-13 6,-15 28,-11 18,4 37,0 57,-14 39,-26 118,-26 213,0 94,26 280,28 318,4 20,-13 55,-17 177,-18 128,-2 160,-5 202,-23 68,-28 265,-59 275,-43 4,6 18,10 31,8 23,-3 24,-6 30,-118 3,-67 13,-134 22,-160 23,-63 22,-81 -17,-179 -26,-65 -37,-113 -46,-201 -13,-126 -22,-160 -43,-160 -8,0 -26,-9 -41,-21 -20,-16 -36,-52 -72,-167 -32,-100 -59,-166 -85,-205 -47,-71 -54,-104 -45,-223 6,-88 5,-94 -13,-94 -24,0 -31,-19 -31,-83 0,-59 -27,-123 -109,-259 -28,-46 -57,-100 -65,-120 -8,-19 -31,-56 -51,-82 -20,-26 -50,-75 -68,-109 -19,-35 -76,-109 -137,-176 -58,-63 -131,-145 -163,-182 -32,-38 -81,-82 -109,-99 -28,-17 -94,-73 -147,-124 -53,-50 -114,-103 -136,-117 -152,-97 -363,-140 -695,-142 -192,-1 -255,7 -327,44 -20,10 -42,19 -48,19 -6,0 -49,16 -95,36 -87,36 -183,113 -174,138 3,7 -27,45 -66,84 -38,40 -81,94 -96,120 -14,26 -38,70 -54,97 -16,28 -28,55 -27,61 1,6 -6,26 -15,45 -9,19 -40,93 -69,164 -66,166 -68,171 -125,234 -57,64 -152,206 -161,241 -4,14 -12,30 -18,35 -17,15 -44,93 -82,239 -18,72 -37,147 -42,166 l -10,35 40,-45 c 21,-25 44,-61 51,-80 6,-19 30,-73 54,-120 34,-66 44,-80 50,-66 4,11 2,33 -5,50 -7,17 -17,55 -21,83 -5,29 -18,68 -30,88 -14,22 -24,62 -30,117 -6,55 -18,99 -35,132 -14,27 -25,62 -25,76 0,15 -6,46 -14,68 -8,22 -18,62 -22,89 -7,49 -55,165 -80,194 -13,14 -10,19 26,43 40,26 70,70 56,83 -3,4 -27,-8 -52,-25 -25,-18 -49,-30 -54,-27 -20,12 -22,99 -5,213 17,111 81,325 119,397 11,20 14,41 9,65 l -6,34 32,-27 c 18,-15 37,-27 43,-27 7,0 8,-14 5,-36 -6,-37 11,-102 20,-74 2,8 16,39 31,67 l 27,53 h 68 c 38,0 77,5 88,10 17,10 19,7 19,-22 0,-18 -3,-50 -6,-70 -6,-34 -10,-38 -38,-38 l -31,-1 23,-19 24,-20 -41,-46 c -24,-27 -43,-61 -47,-82 -8,-39 5,-117 36,-222 11,-36 22,-81 25,-101 8,-50 56,-114 106,-140 57,-29 209,-41 355,-29 86,7 130,16 192,40 74,28 179,94 209,131 6,8 16,85 22,179 6,91 14,185 16,210 7,59 -30,165 -66,192 -14,11 -55,24 -91,30 -55,10 -79,9 -145,-5 -113,-25 -273,-47 -391,-54 l -103,-6 6,39 c 8,43 65,174 76,174 3,0 12,14 19,30 7,17 19,30 26,30 19,0 18,26 -1,34 -9,3 -15,18 -15,39 0,25 6,36 28,49 22,13 31,15 41,5 9,-9 16,-8 33,2 16,10 22,10 28,0 5,-6 17,-9 28,-7 13,4 23,0 26,-9 4,-10 12,-13 24,-8 9,4 23,8 30,8 6,0 12,6 12,14 0,16 5,16 29,1 15,-9 26,-7 57,10 49,26 57,27 49,3 z m 315,-36 c 0,-16 -6,-25 -15,-25 -28,0 -18,40 13,49 1,1 2,-10 2,-24 z m 2703,-88 c 40,-79 51,-149 32,-215 -12,-41 -20,-52 -31,-48 -9,3 -20,6 -25,6 -5,0 -9,17 -9,38 0,20 -9,80 -20,132 -11,52 -20,115 -20,139 v 44 l 24,-22 c 13,-12 35,-45 49,-74 z M 564,3920 c -2,-86 -5,-113 -18,-125 -9,-9 -19,-27 -22,-41 -4,-15 -13,-24 -25,-24 -19,0 -49,-46 -49,-77 0,-13 6,-9 23,14 26,39 63,46 53,11 -4,-13 -12,-45 -18,-72 -8,-31 -18,-51 -29,-53 -18,-5 -71,-167 -88,-269 -5,-27 -13,-60 -19,-74 l -10,-25 -11,28 c -6,16 -21,51 -33,79 -21,48 -21,53 -6,129 9,51 11,84 5,95 -6,11 -5,36 3,72 7,30 13,64 15,76 6,43 64,184 107,256 31,53 54,80 78,92 19,10 37,18 40,18 3,0 4,-49 4,-110 z m 56,97 c 0,-7 6,-22 14,-33 11,-14 17,-16 27,-7 13,13 49,1 82,-25 31,-27 22,-101 -28,-226 -24,-62 -52,-142 -61,-177 -10,-35 -23,-71 -31,-80 -16,-19 -21,-47 -33,-169 -4,-52 -14,-116 -21,-142 -10,-40 -16,-47 -42,-52 -39,-8 -56,13 -27,33 12,8 19,24 19,40 -2,23 -2,24 -6,3 -2,-12 -13,-27 -24,-32 -10,-6 -19,-17 -19,-24 0,-8 -7,-16 -15,-20 -20,-7 -19,-26 0,-26 14,0 14,-3 0,-30 -8,-16 -15,-40 -15,-54 0,-14 -4,-27 -9,-30 -5,-3 -12,-72 -15,-153 -4,-82 -12,-160 -17,-174 -8,-21 -7,-34 5,-57 21,-40 21,-181 1,-248 -8,-27 -15,-64 -15,-83 0,-39 -42,-160 -72,-209 -25,-41 -86,-71 -100,-50 -15,23 -2,97 22,123 26,28 38,115 40,290 0,61 7,137 15,170 8,33 15,94 15,135 0,52 3,70 10,60 7,-11 10,-6 10,22 0,20 -5,40 -11,43 -6,4 -8,13 -5,20 3,8 1,15 -3,17 -5,2 -5,32 -1,68 l 7,65 2,-54 c 2,-74 11,-58 16,25 4,81 9,117 19,132 8,13 25,75 66,243 31,124 48,170 66,181 7,5 24,46 39,93 15,47 30,84 32,81 2,-2 5,-18 5,-35 1,-17 5,-31 11,-31 5,0 7,16 3,38 -4,20 -6,46 -6,57 1,11 1,67 1,125 -1,111 11,170 35,170 8,0 14,-6 14,-13 z m 1220,-195 c 30,-15 38,-27 58,-87 20,-59 22,-75 13,-105 -7,-19 -16,-105 -22,-190 l -10,-155 -37,-33 c -34,-29 -103,-72 -117,-72 -3,0 -3,5 1,11 8,13 -45,9 -63,-4 -7,-5 -39,-13 -70,-18 -32,-4 -76,-13 -98,-18 l -40,-10 45,5 c 25,3 61,6 80,7 19,1 40,5 45,9 6,3 28,9 50,13 39,6 39,6 15,-9 -100,-57 -443,-63 -531,-8 -39,23 -79,87 -79,123 0,13 -9,52 -19,87 -11,34 -25,93 -32,131 -12,67 -11,71 14,113 14,23 38,56 54,73 18,19 28,40 28,60 v 30 l 115,6 c 63,4 142,12 175,17 33,6 87,14 120,17 33,4 85,13 115,20 64,16 140,11 190,-13 z m 2550,-12 c -8,-5 -24,-10 -35,-10 -11,0 -44,-9 -72,-19 l -53,-18 v 23 c 0,22 4,23 78,27 42,1 82,4 87,5 6,1 3,-3 -5,-8 z m 195,0 c 8,-13 -5,-13 -25,0 -13,8 -13,10 2,10 9,0 20,-4 23,-10 z m 75,-14 c 0,-8 -3,-22 -6,-30 -5,-13 -9,-14 -20,-5 -21,18 -17,49 6,49 11,0 20,-6 20,-14 z m 64,-18 c 9,-35 7,-118 -3,-118 -16,0 -29,25 -32,60 -3,39 8,80 21,80 4,0 10,-10 14,-22 z M 551,3749 c -6,-16 -10,-18 -10,-7 -1,22 12,55 16,42 2,-6 -1,-22 -6,-35 z m 3929,34 c 0,-29 -26,-89 -45,-107 -19,-18 -26,-39 -35,-112 -11,-82 -70,-259 -92,-275 -5,-3 -28,-57 -52,-120 -31,-82 -45,-136 -50,-192 -9,-96 -19,-125 -47,-129 -18,-2 -26,-19 -50,-103 -16,-55 -32,-127 -35,-160 -6,-52 -13,-67 -54,-115 -26,-30 -62,-77 -81,-105 l -34,-50 -3,85 c -4,104 -1,115 43,178 33,49 50,92 90,226 32,110 51,144 89,160 45,19 52,35 66,176 9,89 20,135 47,204 38,96 39,117 8,226 -17,62 -20,140 -5,140 6,0 10,6 10,14 0,17 78,45 154,56 73,11 76,11 76,3 z m 93,-10 c 12,-7 8,-42 -8,-74 -9,-16 -19,-59 -22,-94 -5,-53 -9,-65 -24,-65 -9,0 -38,-24 -64,-52 -27,-30 -45,-44 -42,-33 3,11 11,55 17,99 7,57 16,86 34,107 13,15 30,51 37,78 12,47 14,50 38,44 14,-3 29,-8 34,-10 z m 206,-66 c 15,-48 16,-59 4,-68 -21,-18 -28,-3 -29,67 -1,35 0,63 2,61 2,-2 12,-29 23,-60 z m 270,-210 c -20,-115 -29,-106 -24,23 2,69 8,148 12,175 7,48 8,46 14,-45 4,-53 3,-121 -2,-153 z m -404,93 c -4,-52 -8,-140 -9,-195 -1,-55 -7,-109 -13,-120 -6,-11 -14,-45 -18,-75 -9,-74 -24,-122 -43,-137 -29,-23 -34,-13 -12,23 12,19 20,37 17,40 -2,3 -25,-15 -50,-39 -50,-49 -102,-71 -93,-40 46,162 46,161 66,156 25,-7 26,12 3,26 -17,9 -14,22 35,164 36,107 52,171 52,206 0,28 8,69 17,92 l 16,42 20,-24 c 17,-21 18,-34 12,-119 z m 90,11 c 3,-7 1,-19 -4,-25 -5,-6 -7,-69 -5,-141 1,-71 -2,-159 -8,-195 -6,-36 -14,-83 -17,-105 -5,-34 -11,-41 -44,-54 -20,-7 -40,-12 -42,-9 -5,5 10,93 31,183 8,33 14,96 14,140 0,44 4,98 10,120 5,22 10,62 10,88 v 48 l 25,-18 c 13,-10 27,-24 30,-32 z M 296,3525 c -13,-65 -14,-67 -15,-27 0,24 5,64 11,90 18,68 21,21 4,-63 z m 4801,-2 c -3,-10 -5,-2 -5,17 0,19 2,27 5,18 2,-10 2,-26 0,-35 z m -293,-125 c 25,-58 20,-104 -15,-161 -17,-27 -35,-61 -40,-75 -16,-41 -22,-16 -9,35 7,29 12,104 11,186 0,77 2,144 6,150 4,6 12,-14 19,-44 7,-29 20,-71 28,-91 z m -274,105 c 0,-5 -18,-63 -41,-131 l -41,-123 -24,22 c -29,27 -30,60 -5,115 28,62 111,149 111,117 z M 631,3409 c -6,-24 -11,-59 -11,-76 0,-18 -4,-33 -8,-33 -10,0 -3,106 10,139 14,38 20,18 9,-30 z m 187,-4 c -6,-14 -13,-23 -15,-21 -5,5 15,46 22,46 3,0 -1,-11 -7,-25 z M 624,3218 c 14,-9 1,-22 -13,-13 -6,3 -11,16 -10,28 0,15 2,17 6,7 3,-8 11,-18 17,-22 z m 4393,-10 c -3,-7 -5,-2 -5,12 0,14 2,19 5,13 2,-7 2,-19 0,-25 z m -11,-66 c -11,-10 -15,4 -8,28 l 7,25 3,-23 c 2,-13 1,-26 -2,-30 z M 701,3058 c 16,-32 36,-89 43,-126 33,-159 48,-217 68,-256 12,-23 24,-73 29,-116 4,-44 15,-90 27,-110 18,-32 37,-100 27,-100 -2,0 -13,26 -25,58 -12,31 -39,80 -60,107 -47,63 -70,107 -70,138 0,46 -12,87 -26,87 -8,0 -14,-5 -14,-11 0,-12 -39,37 -63,81 -15,26 -47,198 -47,250 0,15 7,30 15,34 8,3 15,12 15,20 0,19 21,26 38,13 8,-6 27,-37 43,-69 z m -141,-19 c 0,-22 4,-59 9,-82 5,-23 14,-67 21,-98 6,-31 23,-74 38,-95 49,-69 80,-154 90,-249 6,-53 6,-91 1,-93 -5,-2 -9,-13 -9,-23 0,-17 -6,-20 -32,-17 -37,3 -32,10 -112,-165 -27,-57 -59,-110 -79,-130 -32,-30 -77,-126 -77,-165 0,-26 -17,-47 -37,-47 -10,0 -24,-14 -33,-32 -8,-18 -18,-33 -21,-33 -10,0 -78,122 -73,134 2,6 17,17 33,22 41,16 75,68 116,174 20,52 46,111 59,130 27,42 46,94 46,127 0,37 -21,22 -35,-24 -13,-43 -54,-117 -61,-110 -2,2 2,22 10,43 11,32 24,131 26,193 0,10 12,12 58,7 l 57,-7 -24,21 c -13,11 -33,20 -45,20 -46,0 -47,6 -41,186 8,242 13,301 25,323 9,17 24,23 78,30 8,0 12,-13 12,-40 z m 4143,-35 c 3,-31 11,-62 16,-67 6,-6 11,-25 11,-42 0,-23 -8,-37 -30,-53 -18,-13 -27,-28 -24,-37 5,-12 9,-12 31,2 24,16 26,16 39,-3 25,-36 35,-44 53,-44 37,0 53,-35 68,-152 9,-62 17,-122 19,-133 2,-11 22,-30 44,-43 90,-51 101,-131 36,-261 -20,-39 -38,-71 -40,-71 -3,0 -17,37 -31,81 -24,71 -35,89 -84,135 -31,30 -79,65 -107,78 -42,20 -54,32 -69,68 -22,52 -33,245 -17,274 6,11 12,13 12,7 0,-15 20,-18 20,-3 0,6 -8,18 -18,28 -45,45 -72,198 -44,248 9,16 64,40 98,43 6,1 14,-23 17,-55 z m -493,-219 c 0,-20 -39,-100 -73,-149 -32,-46 -32,-45 -11,39 13,51 20,65 35,65 11,0 19,7 19,15 0,8 -7,15 -15,15 -8,0 -15,4 -15,9 0,8 10,12 53,20 4,0 7,-6 7,-14 z M 1855,2670 c 5,-8 11,-8 19,-1 7,6 22,8 34,4 21,-5 22,-7 7,-29 -8,-13 -38,-79 -65,-146 -28,-68 -60,-131 -71,-140 -11,-10 -18,-21 -16,-25 3,-4 0,-19 -6,-33 -6,-14 -16,-50 -22,-80 -10,-52 -11,-54 -24,-32 -15,29 -26,124 -17,149 4,10 8,47 10,83 2,78 36,157 91,219 39,43 49,48 60,31 z m 2180,-250 c -16,-27 -21,-344 -6,-419 17,-85 15,-109 -11,-113 -27,-4 -40,-48 -15,-48 9,0 18,6 20,13 4,7 6,6 6,-5 1,-9 -8,-38 -20,-65 l -20,-48 -19,25 c -11,14 -20,39 -20,57 0,23 -6,33 -20,38 -11,3 -20,12 -20,20 0,13 71,108 90,120 14,9 13,25 -3,25 -15,0 -44,-25 -76,-66 l -21,-27 -30,28 c -25,24 -30,37 -30,76 0,39 5,53 31,80 26,28 32,43 34,87 2,52 35,119 103,210 23,30 44,39 27,12 z M 699,2270 c -1,-52 2,-107 6,-122 15,-58 25,-24 26,90 1,198 19,93 23,-133 l 3,-203 -28,-60 c -16,-33 -36,-62 -43,-65 -9,-4 -33,13 -60,40 -41,41 -49,45 -81,40 -19,-3 -35,-4 -35,-3 0,2 20,33 44,70 24,36 49,88 55,114 7,26 22,67 34,92 31,65 32,67 7,44 -12,-12 -31,-55 -44,-101 -17,-59 -39,-104 -86,-174 -34,-52 -70,-103 -80,-114 -10,-11 -26,-37 -37,-58 l -19,-38 -27,50 c -26,48 -27,52 -13,85 10,24 22,36 34,36 26,0 37,16 51,75 20,80 50,141 76,153 27,12 49,52 95,168 43,108 46,112 76,110 l 25,-1 z m 138,-188 c 10,-40 23,-68 35,-75 11,-7 42,-44 68,-83 27,-39 73,-99 102,-132 31,-36 61,-83 72,-114 10,-29 37,-96 59,-148 45,-106 51,-159 22,-207 -24,-40 -60,-61 -83,-47 -9,6 -30,36 -47,66 -45,83 -63,100 -104,96 -32,-3 -39,2 -103,77 -37,44 -90,112 -118,152 l -50,72 25,26 c 15,14 38,51 53,83 22,49 26,71 27,157 0,55 -4,132 -8,170 l -8,70 21,-50 c 11,-27 28,-78 37,-113 z m 4228,81 c 21,-32 46,-68 57,-80 l 20,-22 -41,-20 c -23,-12 -59,-21 -85,-21 -40,0 -47,4 -60,29 -15,27 -14,32 21,100 20,39 40,71 43,71 4,0 24,-26 45,-57 z m -2536,13 c -2,-2 -15,-9 -29,-16 -23,-12 -24,-12 -11,3 7,10 20,17 29,17 8,0 13,-2 11,-4 z m 1521,-68 c 0,-31 -3,-39 -11,-31 -7,7 -8,24 -4,42 9,43 15,39 15,-11 z m 890,-68 c 0,-5 -5,-10 -11,-10 -5,0 -7,5 -4,10 3,6 8,10 11,10 2,0 4,-4 4,-10 z m 210,0 c -8,-5 -19,-10 -25,-10 -5,0 -3,5 5,10 8,5 20,10 25,10 6,0 3,-5 -5,-10 z m -699,-61 c -9,-22 -10,-22 -10,-3 -1,11 2,24 6,27 12,12 14,0 4,-24 z m -612,-39 c 6,0 15,-10 22,-21 9,-18 3,-16 -34,11 -40,29 -45,35 -35,53 10,19 11,19 24,-11 7,-18 18,-32 23,-32 z M 2376,1837 c -3,-23 -6,-55 -6,-72 -1,-22 -5,-15 -16,30 -8,33 -12,75 -9,94 6,33 7,33 22,12 10,-15 13,-35 9,-64 z m -2111,-7 36,-60 -20,-26 c -25,-32 -61,-126 -61,-162 -1,-20 -3,-23 -9,-12 -5,8 -5,49 -1,90 4,41 5,78 3,83 -9,15 -44,-15 -65,-56 -17,-32 -23,-38 -26,-23 -2,10 1,37 6,60 6,22 13,53 17,68 3,18 10,25 19,22 10,-4 22,8 36,35 11,23 22,41 24,41 3,0 21,-27 41,-60 z m 4511,-71 c 19,-21 19,-21 -11,-46 -47,-39 -126,-73 -170,-73 -44,0 -85,22 -85,47 0,13 3,13 15,3 13,-10 19,-10 34,4 11,10 22,29 25,42 l 7,25 43,-36 c 24,-19 48,-35 53,-35 16,0 41,32 48,63 9,33 16,34 41,6 z m -2766,1 c -20,-13 -33,-13 -25,0 3,6 14,10 23,10 15,0 15,-2 2,-10 z m 2015,-37 c -9,-37 -18,-20 -9,19 4,18 9,27 11,20 3,-7 2,-24 -2,-39 z m -54,-30 c -9,-16 -10,-14 -11,12 0,21 3,26 11,18 8,-8 8,-16 0,-30 z"
       id="path1" />
    <path
       d="m 2145,5470 c 3,-5 10,-10 16,-10 5,0 9,5 9,10 0,6 -7,10 -16,10 -8,0 -12,-4 -9,-10 z"
       id="path2" />
    <path
       d="m 2930,4917 c 0,-7 5,-18 12,-25 7,-7 18,-12 25,-12 20,0 15,28 -6,40 -26,13 -31,13 -31,-3 z"
       id="path3" />
    <path
       d="m 3345,4670 c -16,-4 -25,-8 -18,-9 7,0 58,-6 113,-12 56,-6 104,-8 107,-5 3,3 -10,13 -30,21 -38,16 -120,18 -172,5 z"
       id="path4" />
    <path
       d="m 3733,4598 c -25,-12 -29,-23 -12,-34 14,-8 61,16 56,30 -5,15 -19,16 -44,4 z"
       id="path5" />
    <path
       d="m 4530,4508 c -22,-50 -41,-196 -27,-205 15,-9 24,15 30,82 8,80 31,139 52,131 13,-4 14,-2 5,14 -17,32 -40,23 -60,-22 z"
       id="path6" />
    <path
       d="m 4801,4028 c -1,-91 18,-149 59,-178 40,-28 44,-12 9,39 -21,33 -29,56 -29,90 0,25 -9,64 -19,86 l -19,40 z"
       id="path7" />
    <path
       d="m 1745,4420 c -3,-5 -1,-10 4,-10 6,0 11,5 11,10 0,6 -2,10 -4,10 -3,0 -8,-4 -11,-10 z"
       id="path8" />
    <path
       d="m 2750,4270 c 0,-50 12,-115 34,-179 6,-19 27,-45 46,-58 l 35,-25 -31,28 c -17,16 -36,45 -41,64 -24,82 -35,151 -30,184 3,20 2,36 -4,36 -5,0 -9,-22 -9,-50 z"
       id="path9" />
    <path
       d="m 2035,4120 c -3,-5 1,-10 9,-10 8,0 18,5 21,10 3,6 -1,10 -9,10 -8,0 -18,-4 -21,-10 z"
       id="path10" />
    <path
       d="m 2912,3798 c 3,-7 19,-14 37,-16 24,-3 32,0 29,10 -3,7 -19,14 -37,16 -24,3 -32,0 -29,-10 z"
       id="path11" />
    <path
       d="m 3325,3781 c -16,-5 -61,-19 -100,-30 -38,-12 -80,-21 -92,-21 -26,0 -31,-25 -8,-34 8,-3 59,6 113,21 129,35 172,38 278,18 225,-42 347,-136 331,-255 -10,-74 -106,-183 -216,-245 -44,-25 -71,-46 -71,-57 0,-19 -27,-37 -50,-35 -8,1 -41,-7 -73,-17 -79,-24 -105,-26 -147,-11 -19,7 -68,18 -109,24 -48,7 -93,22 -128,42 -110,63 -149,114 -132,173 5,17 16,61 23,97 8,37 37,110 65,165 51,100 59,128 42,139 -10,6 -24,-11 -27,-32 -1,-7 -23,-54 -49,-104 -25,-50 -52,-118 -59,-152 -8,-34 -19,-81 -26,-105 -12,-39 -11,-47 9,-91 23,-47 82,-96 176,-144 37,-18 144,-35 290,-45 l 110,-7 -88,-28 c -115,-38 -195,-45 -242,-23 -43,21 -108,13 -103,-13 7,-36 132,-52 252,-30 90,16 190,46 283,85 45,19 88,34 97,34 8,0 51,31 96,70 44,38 87,73 96,78 8,5 16,17 18,27 2,10 8,21 14,23 15,5 15,6 -3,-43 -18,-51 -19,-99 -1,-114 11,-9 15,-2 20,41 8,63 52,149 84,163 18,8 22,18 22,58 0,43 6,58 55,125 30,43 60,83 66,90 14,16 4,42 -15,42 -9,0 -21,-10 -27,-22 -33,-64 -156,-227 -169,-225 -9,1 -15,-6 -15,-20 0,-14 -30,-51 -88,-108 -69,-67 -108,-96 -179,-131 -50,-25 -92,-43 -94,-41 -8,7 82,81 143,118 118,71 203,205 187,295 -16,94 -52,135 -162,185 -134,60 -317,93 -397,70 z"
       id="path12" />
    <path
       d="m 3270,3544 c -55,-31 -88,-61 -106,-96 -17,-32 -19,-94 -3,-103 6,-4 24,-35 40,-69 18,-38 41,-69 58,-79 59,-35 219,-17 276,30 33,28 34,29 34,112 1,112 -19,154 -92,199 -69,42 -140,44 -207,6 z m 153,-15 c 12,-7 33,-21 47,-32 21,-16 21,-18 5,-14 -11,4 -38,2 -60,-4 -99,-26 -136,-30 -151,-18 -17,14 -44,5 -44,-16 0,-9 5,-13 10,-10 6,3 10,1 10,-4 0,-6 -11,-11 -25,-11 -36,0 -31,13 22,59 63,56 137,76 186,50 z m 108,-109 c 4,-14 7,-41 8,-60 1,-29 -5,-39 -34,-57 -19,-13 -41,-23 -49,-23 -7,0 -19,-7 -26,-15 -7,-8 -18,-15 -26,-15 -7,0 -18,-9 -24,-20 -17,-32 -64,-26 -118,16 -54,41 -81,85 -82,132 0,30 2,32 34,32 19,0 37,-4 40,-9 3,-5 15,-7 26,-4 13,4 22,-1 26,-13 19,-59 28,-74 44,-74 27,0 60,48 60,86 0,25 5,34 18,36 9,0 22,2 29,2 6,1 14,4 18,7 15,16 49,3 56,-21 z m -221,-6 c 0,-2 -7,-4 -15,-4 -8,0 -15,4 -15,10 0,5 7,7 15,4 8,-4 15,-8 15,-10 z m 230,-134 c 0,-13 -7,-20 -20,-20 -10,0 -23,-6 -27,-14 -10,-17 -93,-32 -93,-17 0,6 7,11 15,11 8,0 15,5 15,10 0,6 8,10 18,10 9,0 31,9 47,20 38,25 45,25 45,0 z"
       id="path13" />
    <path
       d="m 2007,3415 c -20,-25 -24,-35 -13,-35 21,0 46,28 46,51 0,10 -1,19 -2,19 -2,0 -16,-16 -31,-35 z"
       id="path14" />
    <path
       d="m 3220,3181 c 14,-5 40,-15 57,-24 34,-18 128,-23 152,-8 8,5 -11,7 -48,6 -44,-3 -71,2 -100,16 -22,10 -50,19 -63,18 -22,-1 -22,-1 2,-8 z"
       id="path15" />
    <path
       d="m 3674,2755 c -4,-9 -2,-21 4,-27 15,-15 44,-1 40,19 -4,23 -36,29 -44,8 z"
       id="path16" />
    <path
       d="m 3585,2539 c -49,-55 -76,-119 -86,-204 -19,-167 -25,-195 -47,-218 -23,-24 -29,-47 -13,-47 14,0 60,59 65,83 7,33 16,104 25,188 9,84 35,141 90,193 28,26 33,46 12,46 -5,0 -25,-19 -46,-41 z"
       id="path17" />
    <path
       d="m 1170,2501 c 0,-36 37,-158 50,-166 28,-18 56,-109 77,-252 3,-27 11,-43 19,-43 17,0 18,-7 -5,127 -20,115 -30,143 -62,179 -22,24 -49,106 -49,152 0,22 -5,32 -15,32 -10,0 -15,-10 -15,-29 z"
       id="path18" />
    <path
       d="m 2443,2235 c -38,-16 -73,-78 -73,-130 0,-48 16,-44 23,6 7,53 48,111 90,126 21,8 25,12 12,12 -11,0 -34,-6 -52,-14 z"
       id="path19" />
    <path
       d="m 3270,2130 c 0,-5 5,-10 10,-10 6,0 10,5 10,10 0,6 -4,10 -10,10 -5,0 -10,-4 -10,-10 z"
       id="path20" />
    <path
       d="m 3510,1925 c 0,-8 5,-15 10,-15 6,0 10,7 10,15 0,8 -4,15 -10,15 -5,0 -10,-7 -10,-15 z"
       id="path21" />
    <path
       d="m 2828,1869 c -31,-23 -71,-86 -58,-94 5,-3 19,9 31,27 45,64 51,63 81,-3 15,-32 32,-59 39,-59 7,0 8,7 4,18 -4,9 -16,43 -27,75 -11,31 -25,57 -31,57 -7,0 -24,-10 -39,-21 z"
       id="path22" />
    <path
       d="m 3355,1789 c -4,-6 -5,-13 -2,-16 7,-7 27,6 27,18 0,12 -17,12 -25,-2 z"
       id="path23" />
    <path
       d="m 2841,1751 c -6,-10 -15,-38 -20,-63 -10,-45 -74,-169 -115,-223 -13,-17 -34,-31 -46,-32 -13,-1 -27,-7 -31,-14 -8,-13 -62,16 -94,51 -10,11 -26,20 -36,20 -10,0 -20,4 -23,9 -19,30 -165,11 -235,-30 l -34,-20 -80,27 c -61,20 -91,25 -128,21 -59,-7 -127,-36 -177,-75 -46,-36 -91,-46 -114,-25 -9,8 -14,22 -11,30 5,13 1,15 -19,10 -28,-7 -49,1 -120,51 -50,34 -58,37 -58,22 0,-11 47,-60 58,-60 4,0 24,-13 43,-29 21,-18 44,-28 55,-25 25,5 79,-42 67,-59 -5,-7 -10,-55 -12,-108 -2,-89 -1,-98 20,-118 13,-12 25,-21 28,-21 45,1 49,96 8,184 -22,49 -24,57 -9,51 9,-4 58,-8 107,-10 81,-3 181,-15 259,-31 28,-6 29,-5 13,10 -9,10 -28,16 -44,14 -22,-2 -29,2 -31,18 -2,16 4,23 23,28 14,4 30,4 35,1 5,-3 11,-1 15,5 16,25 165,-1 165,-29 0,-16 154,1 238,26 30,8 71,13 92,10 32,-4 43,-1 61,19 13,14 24,31 25,40 1,9 9,23 17,32 26,31 105,186 112,222 4,19 13,45 21,57 18,28 18,33 -1,33 -8,0 -19,-8 -24,-19 z m -395,-261 c 8,0 14,-9 14,-20 0,-18 3,-19 20,-8 16,11 23,9 47,-13 15,-14 39,-33 53,-42 22,-16 23,-17 4,-17 -11,0 -25,5 -31,11 -7,7 -47,8 -114,5 -164,-9 -180,-9 -193,4 -8,10 -6,12 11,7 31,-7 40,11 11,22 -22,9 -21,10 16,26 46,19 115,34 134,29 8,-2 20,-4 28,-4 z m -318,-37 c 129,-43 120,-47 -111,-48 -95,0 -150,-4 -155,-11 -4,-6 -17,-13 -29,-16 -69,-18 35,62 113,85 69,22 89,21 182,-10 z m -103,-73 c 3,-6 -5,-10 -19,-10 -14,0 -28,5 -31,10 -3,6 5,10 19,10 14,0 28,-4 31,-10 z m -265,-179 c 11,-40 5,-75 -11,-65 -9,5 -13,104 -4,104 2,0 9,-18 15,-39 z"
       id="path24" />
    <path
       d="m 2747,1723 c -4,-3 -7,-11 -7,-17 0,-6 5,-5 12,2 6,6 9,14 7,17 -3,3 -9,2 -12,-2 z"
       id="path25" />
    <path
       d="m 1885,1650 c -3,-6 1,-7 9,-4 18,7 21,14 7,14 -6,0 -13,-4 -16,-10 z"
       id="path26" />
    <path
       d="m 2120,1610 c -11,-11 -20,-26 -20,-32 0,-7 6,-4 12,7 6,11 19,25 27,32 9,7 13,13 9,13 -5,0 -17,-9 -28,-20 z"
       id="path27" />
    <path
       d="m 3310,1611 c -7,-15 -7,-21 0,-21 12,0 25,28 17,36 -3,3 -10,-4 -17,-15 z"
       id="path28" />
    <path
       d="m 2030,1599 c -7,-11 -9,-23 -6,-27 3,-3 6,0 6,6 0,6 7,18 16,26 8,9 11,16 5,16 -6,0 -15,-9 -21,-21 z"
       id="path29" />
    <path
       d="m 1435,1576 c -17,-26 -17,-95 0,-86 6,3 9,17 7,32 -2,20 4,31 22,44 31,20 33,34 6,34 -11,0 -27,-11 -35,-24 z"
       id="path30" />
    <path
       d="m 2525,1590 c -3,-6 1,-7 9,-4 18,7 21,14 7,14 -6,0 -13,-4 -16,-10 z"
       id="path31" />
    <path
       d="m 1337,1433 c -4,-3 -7,-13 -7,-22 1,-13 3,-13 11,2 11,19 8,33 -4,20 z"
       id="path32" />
    <path
       d="m 2565,1329 c -11,-5 -45,-20 -75,-34 -59,-27 -93,-46 -155,-87 -22,-15 -52,-30 -67,-33 -25,-6 -28,-4 -28,19 0,14 -4,26 -10,26 -5,0 -10,-13 -10,-30 0,-30 -1,-30 -52,-30 -58,0 -191,31 -235,54 -16,8 -41,28 -57,45 -29,30 -86,44 -86,21 0,-5 10,-10 23,-10 13,0 34,-12 48,-26 40,-42 81,-63 175,-85 113,-27 210,-21 284,16 33,17 50,21 50,13 0,-7 13,4 30,24 21,26 55,46 120,74 49,21 90,42 90,46 0,10 -20,9 -45,-3 z"
       id="path33" />
    <path
       d="m 2197,1304 c -39,-21 -28,-28 22,-13 28,8 38,15 29,21 -17,10 -18,10 -51,-8 z"
       id="path34" />
    <path
       d="m 1920,895 c 0,-11 130,-75 153,-75 50,0 35,16 -46,48 -77,30 -107,38 -107,27 z"
       id="path35" />
    <path
       d="m 1525,3661 c -148,-55 -147,-55 -189,-110 -40,-54 -41,-55 -39,-130 3,-68 10,-96 45,-168 7,-15 24,-25 47,-29 20,-4 42,-11 49,-17 8,-6 50,-8 112,-4 89,6 108,10 176,44 67,33 81,45 111,95 40,65 51,127 33,184 -23,72 -78,112 -192,139 -80,19 -92,18 -153,-4 z m 151,-32 c 24,-6 44,-16 44,-21 0,-5 6,-8 13,-5 16,6 57,-16 81,-42 15,-17 17,-24 8,-33 -9,-9 -12,-9 -12,0 0,7 -7,12 -16,12 -9,0 -12,-5 -8,-11 7,-12 -109,-8 -171,5 -34,8 -144,44 -158,53 -16,10 95,52 136,53 21,0 58,-5 83,-11 z m -247,-55 c -12,-15 -11,-16 11,-10 19,6 21,5 10,-3 -8,-6 -28,-11 -44,-11 -28,0 -29,0 -11,20 23,25 55,29 34,4 z m 61,-24 c 0,-5 -4,-10 -10,-10 -5,0 -10,5 -10,10 0,6 5,10 10,10 6,0 10,-4 10,-10 z m 44,-6 c 23,-9 9,-24 -21,-24 -21,0 -24,2 -13,15 14,17 13,17 34,9 z m -144,-14 c 0,-14 33,-13 47,1 9,9 19,6 39,-10 15,-12 41,-21 60,-21 32,0 34,-2 34,-35 0,-30 30,-75 49,-75 22,1 33,21 29,56 l -3,39 h 78 c 42,-1 77,3 77,7 0,4 9,8 20,8 47,0 13,-138 -44,-175 -47,-31 -136,-47 -232,-41 -105,6 -184,25 -184,43 0,6 -8,16 -17,22 -15,8 -16,13 -5,31 13,22 8,45 -9,34 -14,-8 1,77 19,104 14,22 42,30 42,12 z m 238,-14 c 45,-5 53,-16 11,-16 -44,0 -79,10 -79,22 0,5 8,7 18,4 9,-3 32,-8 50,-10 z m 89,-12 c -3,-3 -12,-4 -19,-1 -8,3 -5,6 6,6 11,1 17,-2 13,-5 z m -363,-210 c 9,-8 16,-20 16,-26 0,-6 -9,-1 -20,12 -29,33 -25,44 4,14 z m 53,-5 c 52,-20 219,-26 286,-10 20,5 37,7 37,4 0,-9 -91,-44 -100,-38 -5,3 -23,-1 -40,-10 -17,-9 -53,-17 -79,-18 -40,-1 -54,4 -77,26 -16,15 -38,33 -49,41 -24,18 -16,20 22,5 z"
       id="path36" />
    <path
       d="m 4685,2690 c -10,-11 -15,-20 -11,-20 14,0 46,21 46,30 0,16 -16,11 -35,-10 z"
       id="path37" />
    <path
       d="m 373,4253 c -22,-51 -32,-248 -12,-241 10,3 16,32 20,99 3,52 11,107 17,122 7,16 12,35 12,43 0,27 -21,14 -37,-23 z"
       id="path38" />
    <path
       d="m 5095,2891 c -9,-40 1,-108 21,-141 13,-23 14,-18 8,60 -8,99 -18,129 -29,81 z"
       id="path39" />
    <path
       d="m 4177,2465 c -11,-16 -13,-26 -6,-31 15,-9 31,10 27,34 -3,19 -4,19 -21,-3 z"
       id="path40" />
    <path
       d="m 4177,2337 c -8,-28 -16,-42 -16,-29 -1,12 -5,22 -11,22 -6,0 -10,-33 -10,-77 0,-43 -3,-143 -5,-222 -6,-155 -1,-184 43,-260 37,-63 39,-33 3,41 -16,35 -31,79 -33,98 -3,51 13,200 22,200 4,0 6,17 3,38 -3,21 4,70 16,116 23,87 26,112 12,120 -5,3 -15,-18 -24,-47 z"
       id="path41" />
    <path
       d="m 4147,1733 c -13,-12 -7,-23 13,-23 18,0 20,-7 20,-87 0,-86 17,-184 41,-236 7,-15 27,-32 48,-41 21,-8 42,-25 49,-41 16,-34 15,-87 -1,-109 -13,-17 -16,-17 -82,3 -61,19 -70,20 -85,6 -9,-8 -30,-15 -46,-15 -16,0 -40,-7 -52,-16 -21,-14 -23,-14 -32,11 -13,35 -36,41 -78,19 -21,-10 -44,-18 -54,-19 -24,0 -32,-13 -18,-29 10,-14 18,-12 60,9 51,26 70,20 70,-21 0,-35 19,-39 48,-11 18,17 43,27 77,31 81,10 88,10 137,-4 45,-13 49,-13 71,8 16,15 30,20 42,16 16,-7 17,-3 11,34 -6,37 -4,42 14,42 10,0 30,14 42,31 13,17 40,41 62,52 21,12 49,28 62,35 24,13 50,50 41,58 -2,3 -12,-7 -21,-21 -9,-14 -20,-25 -25,-25 -17,0 -110,-67 -131,-93 -12,-15 -28,-27 -36,-27 -18,0 -18,-5 10,66 34,87 48,114 58,114 4,0 8,7 8,16 0,9 -7,14 -17,12 -17,-3 -54,-66 -81,-138 l -13,-35 -13,24 c -7,13 -33,33 -57,45 -39,19 -46,27 -57,71 -8,28 -16,100 -19,160 -3,61 -10,116 -15,123 -11,13 -40,16 -51,5 z"
       id="path42" />
    <path
       d="m 3526,1391 c -25,-47 -36,-81 -28,-81 9,0 54,101 48,108 -3,2 -12,-10 -20,-27 z"
       id="path43" />
    <path
       d="m 3242,1203 c 5,-25 28,-28 28,-4 0,12 -6,21 -16,21 -9,0 -14,-7 -12,-17 z"
       id="path44" />
    <path
       d="m 3850,894 c 0,-17 8,-20 53,-21 72,-1 247,-48 320,-85 89,-45 168,-126 265,-273 80,-121 174,-235 193,-235 19,0 8,28 -22,56 -17,16 -74,94 -127,174 -117,175 -191,252 -290,304 -78,40 -224,82 -327,92 -60,6 -65,5 -65,-12 z"
       id="path45" />
    <path
       d="m 3696,860 c -19,-22 -42,-55 -50,-74 -8,-20 -24,-37 -38,-41 -12,-4 -34,-16 -47,-26 -13,-11 -34,-19 -47,-19 -45,0 -102,-31 -130,-71 -18,-27 -38,-42 -63,-48 -20,-5 -65,-16 -101,-25 -36,-9 -66,-20 -68,-25 -2,-6 -10,-7 -17,-4 -12,4 -9,12 10,37 14,18 25,39 25,47 0,8 -10,-3 -22,-23 -43,-74 -111,-59 -160,35 -23,46 -22,112 3,112 9,0 23,6 31,12 8,7 25,17 39,22 16,6 18,10 7,10 -9,1 -37,-8 -62,-19 -56,-24 -66,-51 -41,-116 25,-66 70,-114 106,-114 50,0 35,-27 -23,-39 -68,-15 -112,-50 -144,-114 -15,-29 -31,-55 -37,-58 -21,-14 14,-189 38,-189 17,0 19,27 5,87 -25,108 59,243 151,243 15,0 38,9 52,20 l 26,21 24,-38 c 13,-21 27,-48 31,-60 16,-49 106,-140 127,-127 7,4 -4,22 -29,48 -21,22 -48,56 -58,73 -10,18 -21,33 -25,33 -3,0 -18,18 -32,39 -31,46 -37,41 87,66 95,19 108,25 142,70 14,19 29,35 33,35 4,0 16,-29 28,-65 15,-46 18,-65 9,-65 -13,0 -56,-81 -56,-105 0,-28 26,-15 38,19 7,19 24,45 38,59 l 26,26 -22,66 c -27,81 -23,95 28,95 28,0 45,-7 63,-26 32,-34 86,-67 99,-59 5,3 37,-2 70,-11 45,-13 64,-14 72,-6 15,15 -33,35 -121,53 -62,12 -121,47 -121,72 0,7 15,19 33,27 17,8 39,29 47,46 9,17 30,48 48,70 56,68 37,89 -22,24 z"
       id="path46" />
    <path
       d="m 3927,804 c -10,-11 20,-79 36,-82 21,-4 21,6 2,52 -15,34 -25,43 -38,30 z"
       id="path47" />
    <path
       d="m 3770,720 c 0,-5 18,-19 39,-30 48,-24 55,-34 37,-49 -11,-9 2,-42 73,-184 47,-94 91,-173 96,-175 25,-8 11,35 -50,153 -37,69 -64,129 -61,132 6,6 111,-74 145,-111 23,-25 51,-35 51,-18 0,4 -22,30 -50,57 -43,42 -47,50 -33,60 11,8 13,18 7,36 -4,13 -8,29 -9,34 -1,14 -93,110 -100,104 -3,-3 11,-26 31,-52 20,-25 34,-51 32,-57 -2,-6 -39,16 -83,50 -73,54 -125,76 -125,50 z m 155,-118 c -5,-5 -45,22 -45,31 0,4 11,0 24,-10 13,-10 23,-19 21,-21 z"
       id="path48" />
    <path
       d="m 3366,377 c -23,-34 -35,-82 -26,-97 11,-17 30,-3 30,21 0,11 7,34 16,51 21,40 3,61 -20,25 z"
       id="path49" />
    <path
       d="m 3390,304 c 0,-39 84,-224 101,-224 19,0 7,48 -28,110 -19,36 -38,83 -42,104 -8,53 -31,60 -31,10 z"
       id="path50" />
  </g>
</svg>
