<?xml version="1.0" encoding="UTF-8" standalone="no"?>
<svg
   version="1.0"
   width="520.97919pt"
   height="573.6308pt"
   viewBox="0 0 520.97919 573.6308"
   preserveAspectRatio="xMidYMid"
   id="svg60"
   sodipodi:docname="think.svg"
   inkscape:version="1.3 (0e150ed, 2023-07-21)"
   xmlns:inkscape="http://www.inkscape.org/namespaces/inkscape"
   xmlns:sodipodi="http://sodipodi.sourceforge.net/DTD/sodipodi-0.dtd"
   xmlns="http://www.w3.org/2000/svg"
   xmlns:svg="http://www.w3.org/2000/svg">
  <defs
     id="defs60" />
  <sodipodi:namedview
     id="namedview60"
     pagecolor="#ffffff"
     bordercolor="#000000"
     borderopacity="0.25"
     inkscape:showpageshadow="2"
     inkscape:pageopacity="0.0"
     inkscape:pagecheckerboard="0"
     inkscape:deskcolor="#d1d1d1"
     inkscape:document-units="pt"
     inkscape:zoom="0.2979798"
     inkscape:cx="357.40678"
     inkscape:cy="396"
     inkscape:window-width="1312"
     inkscape:window-height="449"
     inkscape:window-x="0"
     inkscape:window-y="25"
     inkscape:window-maximized="0"
     inkscape:current-layer="svg60" />
  <g
     transform="matrix(0.1,0,0,-0.1,-10,593.89655)"
     fill="#000000"
     stroke="none"
     id="g60">
    <path
       d="m 3450,5920 c -81,-22 -136,-42 -187,-68 -46,-24 -182,-125 -236,-176 -21,-20 -42,-36 -47,-36 -14,0 -54,-53 -74,-98 l -19,-42 -39,45 c -21,24 -65,57 -99,74 -33,16 -76,44 -96,61 -64,57 -123,64 -232,29 l -66,-21 -52,32 c -48,30 -57,32 -120,28 -48,-3 -87,-13 -133,-34 -58,-28 -79,-32 -195,-38 l -130,-6 -80,-81 c -44,-44 -93,-88 -110,-99 -29,-19 -29,-19 -48,0 -26,28 -48,14 -102,-69 -54,-82 -50,-78 -150,-131 -44,-23 -96,-55 -115,-70 -20,-16 -45,-28 -55,-27 -11,1 -20,-4 -20,-13 0,-8 -12,-28 -28,-44 -15,-16 -48,-72 -74,-124 -29,-57 -55,-97 -67,-102 -12,-4 -30,-18 -41,-30 -11,-12 -37,-35 -57,-52 -31,-24 -40,-27 -56,-17 -28,18 -122,-15 -193,-68 -53,-39 -59,-41 -59,-22 0,18 -2,19 -15,9 -8,-7 -15,-21 -15,-33 0,-18 -44,-78 -91,-122 -137,-130 -179,-190 -179,-257 0,-20 -7,-71 -15,-114 -29,-158 -59,-787 -36,-754 8,11 11,-9 11,-76 0,-58 7,-117 20,-165 13,-48 20,-107 20,-167 0,-56 6,-106 14,-126 7,-18 17,-71 20,-117 8,-94 31,-199 48,-214 7,-7 8,-4 4,11 -19,61 -36,166 -36,219 0,35 -7,72 -16,90 -11,20 -19,73 -24,155 -5,69 -13,142 -20,163 -15,50 -27,277 -17,319 4,18 5,107 3,198 -3,91 -2,154 2,140 5,-14 13,-25 20,-25 16,0 16,4 2,72 -14,65 -8,119 20,174 11,21 20,53 20,72 0,43 26,129 56,190 22,43 32,51 107,86 69,32 96,52 171,129 50,51 93,92 96,92 3,0 30,23 59,51 29,28 55,49 57,46 3,-2 0,-17 -6,-32 -12,-33 -7,-55 13,-55 9,0 15,10 15,25 0,13 8,38 19,54 l 19,30 24,-60 c 23,-59 23,-62 7,-92 -10,-18 -38,-59 -62,-92 -38,-50 -55,-63 -107,-85 -41,-16 -80,-42 -113,-75 -52,-51 -140,-164 -133,-170 4,-5 74,62 146,138 29,32 57,57 62,57 6,0 -3,-24 -20,-53 -16,-30 -30,-67 -30,-84 0,-70 -10,-90 -50,-102 -54,-16 -74,-36 -125,-126 l -45,-80 -1,50 v 50 l -30,-79 c -16,-43 -27,-82 -23,-85 3,-3 9,1 14,9 5,8 16,24 24,35 19,23 -7,-48 -54,-155 -17,-36 -34,-85 -40,-110 -12,-56 -13,-155 -1,-195 5,-19 3,-62 -5,-115 -28,-177 -28,-626 1,-618 6,2 9,68 7,179 -3,160 9,376 25,437 5,22 7,21 30,-20 21,-36 24,-52 20,-98 -3,-30 -13,-71 -23,-90 -15,-30 -18,-65 -20,-235 -1,-110 -6,-220 -12,-245 -6,-25 -13,-122 -16,-216 -5,-157 -15,-224 -36,-224 -4,0 -13,-14 -21,-32 l -13,-31 -17,49 -17,49 -1,-47 c -1,-26 3,-58 9,-73 11,-29 -2,-63 -46,-122 -13,-17 -24,-38 -24,-45 0,-11 45,47 76,98 10,18 11,17 22,-3 10,-17 8,-31 -8,-69 -12,-26 -27,-52 -34,-58 -24,-19 -48,-149 -40,-215 6,-60 24,-76 24,-23 0,32 32,106 50,117 10,6 11,-9 7,-66 -7,-82 2,-164 18,-164 6,0 13,31 17,68 6,65 57,197 75,197 15,-1 73,-99 67,-114 -3,-8 -13,-16 -23,-19 -16,-4 -46,-91 -67,-197 -9,-49 34,66 47,124 9,41 18,60 30,63 11,3 28,31 44,72 35,92 41,99 48,62 4,-20 16,-35 32,-43 35,-16 43,-3 16,26 -22,23 -22,25 -6,55 19,37 57,56 85,41 24,-13 72,-71 65,-79 -4,-3 -14,5 -23,17 -18,23 -18,22 -14,-15 4,-38 0,-42 -149,-191 -111,-111 -149,-156 -141,-164 8,-8 35,11 99,71 48,46 92,89 96,97 9,15 95,104 101,104 1,0 8,-18 15,-40 7,-25 18,-40 27,-40 13,0 14,6 8,28 -11,39 -11,95 1,98 6,2 29,-25 53,-61 24,-35 77,-102 118,-148 41,-47 74,-89 74,-94 0,-12 -49,-57 -77,-72 -38,-19 -66,-12 -136,36 -64,44 -72,47 -128,46 -35,-1 -76,-10 -97,-20 -38,-19 -105,-98 -99,-116 7,-23 23,-14 49,29 33,54 75,74 151,74 50,0 60,-4 113,-46 56,-43 62,-46 112,-41 47,3 58,9 101,51 47,46 48,46 65,27 14,-15 17,-33 14,-80 -1,-32 1,-63 5,-67 15,-16 27,21 27,86 v 65 l 30,-55 c 36,-64 54,-80 92,-80 31,0 93,49 104,82 5,18 9,17 30,-18 12,-22 34,-59 48,-84 13,-25 54,-77 90,-117 36,-39 66,-78 66,-87 0,-8 24,-38 53,-66 53,-53 152,-106 249,-135 28,-8 56,-19 62,-24 37,-30 245,-44 456,-31 291,19 350,30 480,93 47,23 87,43 90,44 3,1 29,-29 59,-68 29,-39 56,-68 58,-65 3,3 -11,25 -31,50 -60,74 -54,95 57,202 50,50 119,109 152,131 33,22 87,73 120,112 32,39 62,71 67,71 4,0 11,-7 15,-15 5,-8 33,-40 64,-72 86,-90 155,-174 180,-219 28,-49 109,-142 109,-125 0,7 -20,33 -44,59 -24,26 -50,61 -59,77 -17,35 -98,135 -176,218 -90,95 -91,79 14,194 55,61 106,128 125,165 17,35 44,79 61,98 l 29,35 -6,-91 c -6,-80 -4,-95 12,-118 11,-14 22,-26 27,-26 12,0 8,18 -9,35 -14,14 -15,31 -9,123 4,59 10,128 15,154 8,55 -2,63 -21,16 -7,-18 -36,-67 -64,-108 -27,-41 -61,-97 -75,-124 -14,-26 -70,-96 -125,-155 -55,-58 -125,-135 -154,-171 -29,-36 -70,-76 -90,-90 -76,-52 -118,-88 -196,-165 -172,-169 -374,-232 -769,-240 -241,-5 -256,-2 -505,97 -94,38 -177,106 -186,154 -3,19 -11,34 -18,34 -35,0 -218,258 -221,313 -1,12 -7,33 -13,47 -22,47 -71,165 -102,245 -21,55 -46,98 -79,135 -64,73 -156,207 -170,249 -7,18 -18,39 -25,45 -19,15 -53,114 -76,223 -11,51 -27,113 -35,138 -45,132 8,72 101,-115 51,-102 68,-129 71,-111 2,13 -3,42 -11,65 -8,22 -18,60 -21,83 -3,24 -16,61 -28,84 -12,23 -24,72 -28,112 -5,44 -18,94 -34,127 -14,30 -26,65 -26,78 0,12 -6,48 -14,80 -8,31 -19,79 -25,106 -7,27 -28,76 -47,110 l -36,60 24,18 c 49,39 68,61 68,79 0,25 -4,24 -56,-12 -25,-17 -48,-28 -51,-25 -14,14 -20,94 -12,155 5,36 12,93 16,126 4,35 28,116 61,200 30,77 57,158 61,179 5,35 7,37 20,23 7,-10 20,-17 28,-17 17,0 33,-40 23,-60 -5,-8 -3,-27 3,-42 12,-27 12,-26 42,37 l 30,64 68,1 c 38,0 77,5 88,10 17,10 19,7 19,-33 0,-25 -3,-58 -6,-74 -5,-26 -9,-29 -37,-25 l -32,3 24,-19 23,-19 -41,-54 c -35,-47 -41,-61 -41,-104 0,-27 9,-88 20,-135 11,-47 25,-110 31,-140 13,-69 50,-124 106,-157 56,-32 205,-47 360,-34 159,13 271,56 361,138 l 52,48 5,130 c 4,72 13,163 22,203 17,78 19,67 -33,189 -18,43 -51,63 -128,76 -54,9 -78,8 -138,-6 -113,-26 -348,-57 -427,-57 h -72 l 7,38 c 11,59 104,232 126,232 4,0 8,7 8,15 0,8 -4,15 -9,15 -5,0 -11,12 -13,28 -4,26 -4,26 -15,-10 -6,-20 -22,-52 -36,-70 -35,-46 -53,-94 -61,-160 -4,-31 -14,-64 -21,-74 -13,-17 -14,-15 -15,27 0,26 6,62 14,80 25,63 27,84 1,31 l -25,-54 -97,2 c -124,3 -120,4 -126,-21 -5,-20 -6,-20 -34,-3 -36,23 -62,55 -63,76 0,36 33,100 56,109 19,7 24,16 24,44 0,28 8,43 35,68 33,31 68,98 105,202 10,28 21,59 26,69 5,13 4,17 -4,13 -6,-4 -18,-31 -28,-60 -33,-100 -75,-182 -109,-214 -24,-22 -35,-41 -35,-60 0,-33 -9,-47 -31,-55 -9,-4 -25,-28 -35,-55 -10,-26 -18,-49 -18,-50 -5,-9 -121,60 -145,86 -53,57 -38,107 67,221 53,58 95,78 119,58 7,-5 17,-7 23,-3 19,11 10,35 -15,41 -14,3 -25,8 -25,10 0,2 20,33 45,70 48,70 56,109 30,154 -8,14 -14,43 -15,65 0,34 6,47 37,76 39,37 96,79 107,79 3,0 6,-7 6,-15 0,-25 17,-18 81,34 89,72 206,141 354,209 152,70 191,82 265,82 75,-1 136,-38 155,-95 8,-23 23,-36 70,-57 100,-46 148,-73 144,-83 -2,-5 -33,-20 -69,-32 -36,-13 -87,-34 -113,-48 -27,-14 -59,-25 -72,-25 -31,0 -197,40 -210,50 -5,4 -64,10 -130,13 -66,2 -129,8 -140,11 -41,14 -285,-181 -285,-227 0,-26 44,-19 48,8 4,24 77,93 152,145 l 55,37 140,-7 c 90,-5 167,-16 215,-29 41,-12 100,-24 130,-27 48,-6 62,-3 115,24 79,40 180,73 199,66 18,-7 21,-39 6,-49 -6,-4 -32,-39 -59,-78 -47,-70 -81,-141 -136,-282 -15,-38 -30,-73 -34,-77 -3,-3 -91,-9 -196,-11 -104,-3 -208,-10 -229,-16 -22,-5 -43,-8 -48,-5 -4,3 -17,0 -29,-7 -17,-8 -23,-8 -29,1 -6,10 -13,9 -31,-4 -52,-36 -69,-12 -69,96 0,55 9,77 53,128 34,40 75,58 130,59 23,1 52,10 70,24 25,17 47,22 97,23 50,1 81,8 135,33 39,18 88,36 110,41 l 40,8 -36,1 c -22,1 -64,-12 -105,-31 -53,-24 -85,-32 -137,-34 -54,-1 -76,-7 -107,-28 -22,-15 -54,-26 -72,-26 -79,0 -135,-37 -175,-115 -17,-33 -24,-120 -13,-151 6,-15 12,-63 12,-106 l 1,-77 27,19 c 25,18 29,18 40,5 11,-14 15,-14 35,-1 21,14 24,14 29,0 4,-11 10,-12 25,-4 26,14 31,13 31,-6 0,-11 5,-14 18,-9 9,3 21,7 27,8 5,1 16,9 23,17 10,11 15,12 18,3 8,-19 34,-16 72,7 41,25 42,25 42,-5 0,-30 15,-31 55,-5 40,27 64,25 75,-5 11,-30 11,-30 61,-4 23,11 43,18 46,15 16,-16 20,-91 6,-123 -12,-30 -18,-34 -41,-30 -15,3 -47,0 -72,-8 -25,-7 -73,-21 -107,-31 -37,-10 -63,-23 -63,-31 0,-10 -18,-13 -70,-13 -43,0 -86,-7 -112,-17 -28,-12 -69,-18 -116,-18 -60,1 -72,-2 -70,-15 5,-21 138,-19 199,3 26,9 96,19 171,22 84,5 133,12 145,21 14,11 15,15 5,22 -10,6 -2,11 25,15 76,13 98,9 122,-23 23,-32 46,-32 36,1 -6,18 0,19 152,17 131,-1 144,-2 79,-8 -58,-4 -80,-10 -88,-23 -5,-9 -16,-17 -23,-17 -32,0 -12,-19 23,-22 l 37,-3 -1,-145 c -1,-138 -2,-151 -36,-255 -20,-60 -39,-137 -43,-170 -4,-33 -20,-94 -37,-136 -29,-74 -31,-77 -81,-97 -29,-12 -100,-28 -159,-36 -59,-8 -111,-17 -117,-20 -19,-12 -183,-30 -281,-31 -52,0 -122,-4 -155,-9 -51,-6 -66,-4 -100,13 -22,12 -58,21 -82,21 -39,0 -44,3 -62,39 -11,21 -18,41 -15,44 6,6 -134,147 -147,147 -5,0 -9,9 -9,20 0,11 7,20 15,20 8,0 15,6 15,13 0,31 23,36 52,12 46,-39 51,-29 13,21 -37,48 -44,86 -21,109 19,19 32,151 16,169 -6,8 -10,21 -8,28 2,7 -1,15 -7,16 -12,3 -23,-61 -24,-135 -1,-60 -16,-78 -27,-31 -7,32 -8,31 -24,-32 -9,-36 -25,-83 -34,-104 -9,-22 -12,-42 -7,-45 5,-3 13,-35 17,-71 9,-64 9,-64 68,-106 40,-28 66,-55 82,-87 29,-56 34,-60 107,-68 33,-4 67,-15 77,-24 17,-16 30,-17 97,-10 43,5 119,9 168,10 108,2 249,19 290,35 16,6 38,9 50,6 11,-3 63,6 115,20 52,14 106,26 119,27 13,1 26,8 29,15 2,6 9,12 16,12 19,0 73,136 86,216 15,92 22,121 59,245 17,58 32,134 35,170 2,35 7,72 11,82 11,25 78,22 150,-9 33,-14 85,-31 115,-36 30,-6 56,-11 57,-12 10,-8 -47,-155 -88,-226 -5,-8 -25,-48 -45,-89 -20,-41 -56,-102 -79,-135 -23,-34 -57,-92 -76,-129 -21,-44 -44,-74 -60,-83 -85,-44 -156,-162 -165,-273 -3,-36 -9,-75 -14,-86 -5,-11 -10,-27 -13,-35 -3,-12 -20,-15 -75,-15 -69,0 -72,-1 -111,-39 -22,-21 -52,-66 -67,-100 -15,-33 -33,-64 -39,-68 -18,-11 -28,-57 -16,-72 5,-6 11,-34 11,-61 3,-76 20,-156 41,-191 16,-27 18,-40 10,-95 -5,-35 -9,-107 -10,-159 l -2,-95 40,-45 39,-46 106,3 c 95,2 110,5 162,33 32,17 62,34 69,40 6,5 31,12 55,16 46,7 162,59 168,75 2,5 15,9 28,9 21,0 23,2 12,19 -10,16 -7,23 18,45 16,14 34,26 39,26 6,0 21,21 35,47 14,26 46,68 73,93 37,36 51,58 62,100 17,63 20,186 5,224 -21,57 -142,74 -217,30 -70,-41 -133,-144 -88,-144 8,0 15,7 15,15 0,24 78,103 114,115 42,13 114,5 138,-17 41,-37 7,-284 -36,-267 -27,10 -84,-35 -106,-83 -11,-25 -20,-54 -20,-64 0,-20 -69,-89 -133,-131 -23,-15 -77,-39 -122,-54 -44,-15 -102,-37 -130,-49 -27,-13 -87,-29 -132,-35 -73,-11 -84,-10 -111,6 -47,27 -51,46 -42,205 12,211 25,279 70,362 21,40 50,103 64,141 37,97 75,163 98,170 14,3 19,10 14,21 -3,9 0,18 9,21 8,4 15,12 15,19 0,7 12,33 26,59 14,25 21,46 15,46 -7,0 -14,-7 -17,-15 -13,-33 -26,-14 -21,31 10,91 99,230 152,238 8,1 18,5 21,9 4,4 15,7 25,7 23,0 35,20 18,31 -17,10 -3,41 94,196 40,65 83,136 95,158 25,48 92,200 92,209 0,4 17,25 37,47 26,28 43,39 58,35 11,-2 46,-10 78,-16 l 57,-11 v -116 c 0,-144 27,-284 71,-368 17,-33 42,-81 56,-107 39,-76 143,-151 143,-103 0,8 -4,15 -10,15 -18,0 -81,63 -99,99 -10,20 -33,62 -50,94 -33,62 -71,220 -71,296 0,35 14,75 59,171 33,69 57,127 54,130 -3,3 -7,1 -10,-5 -2,-5 -25,-55 -52,-110 l -49,-100 -1,57 c -1,45 2,57 16,60 15,3 15,4 1,19 -9,8 -19,30 -23,47 -10,47 -35,42 -35,-7 v -38 l -42,8 c -24,5 -99,13 -168,18 -109,9 -133,14 -185,40 -48,24 -73,31 -122,31 -46,0 -63,4 -63,14 0,18 107,31 235,28 55,-2 182,-3 283,-3 156,0 182,-2 182,-15 0,-12 7,-14 28,-10 18,4 37,0 57,-14 40,-26 122,-26 217,0 96,26 281,28 317,3 19,-13 52,-16 175,-18 129,-1 159,-5 206,-23 77,-31 253,-57 278,-41 11,7 27,9 36,6 13,-5 16,-22 16,-95 0,-49 7,-114 16,-147 34,-126 34,-118 -3,-202 -27,-61 -36,-101 -44,-183 -17,-167 -19,-172 -63,-194 -44,-21 -54,-43 -111,-219 -21,-65 -49,-135 -63,-155 -58,-85 -76,-158 -47,-182 13,-11 15,-8 15,21 0,38 24,95 62,151 14,21 43,91 63,155 58,183 62,190 101,203 19,7 38,19 43,28 4,9 14,73 21,142 11,106 19,139 52,219 l 40,94 -26,97 c -31,114 -34,170 -10,170 10,0 14,6 11,14 -4,11 8,19 41,30 48,16 174,37 181,30 9,-9 -22,-91 -44,-114 -18,-19 -26,-44 -34,-111 -9,-77 -63,-239 -91,-274 -5,-5 -28,-59 -52,-120 -35,-87 -46,-128 -51,-193 -7,-93 -17,-119 -49,-124 -17,-2 -24,-14 -33,-53 -7,-27 -17,-62 -23,-77 -6,-15 -16,-65 -23,-112 -12,-83 -14,-88 -65,-147 -63,-73 -97,-140 -118,-234 -9,-38 -19,-81 -22,-95 -7,-24 -7,-25 13,-7 16,14 20,30 20,66 -1,51 32,121 97,208 31,42 55,58 37,26 -5,-10 -9,-67 -10,-128 -1,-60 -4,-135 -7,-166 -4,-31 -2,-72 4,-90 6,-19 12,-59 14,-89 3,-51 1,-54 -22,-60 -28,-7 -42,-50 -17,-50 9,0 17,6 20,13 2,6 8,9 12,5 9,-8 -33,-118 -45,-118 -14,0 -40,49 -40,77 0,17 -8,33 -20,41 -19,11 -19,15 -6,40 8,15 30,44 50,64 20,20 36,42 36,48 0,24 -31,7 -72,-39 l -43,-49 -25,33 c -30,41 -40,44 -40,10 0,-14 4,-25 10,-25 5,0 14,-9 20,-21 11,-20 11,-20 -13,-4 -38,25 -48,-2 -12,-31 26,-20 28,-25 17,-48 -6,-14 -8,-26 -3,-26 5,0 11,7 15,15 24,62 71,-75 78,-225 2,-41 -39,-252 -57,-298 -13,-32 -15,-46 -7,-54 15,-15 62,88 62,135 0,18 7,61 16,97 9,36 19,97 22,135 5,53 11,70 22,70 13,0 15,-18 12,-115 -3,-127 15,-238 45,-273 39,-49 77,-87 85,-87 17,0 6,22 -36,74 -70,87 -79,180 -41,466 9,65 12,139 8,193 -4,61 -3,87 5,87 8,0 9,39 5,133 -3,72 -3,167 1,209 8,77 8,78 33,72 14,-4 24,-3 21,2 -2,5 -10,22 -18,37 -15,31 -9,48 56,152 17,28 48,80 68,118 21,37 46,76 57,86 20,18 20,18 -3,24 -15,4 -29,0 -43,-13 -27,-25 -50,-27 -40,-2 15,36 25,89 25,137 0,49 66,241 93,274 7,7 19,34 28,60 l 16,46 -1,-42 c 0,-35 5,-48 31,-75 l 32,-33 -23,-98 c -13,-53 -29,-103 -35,-111 -6,-7 -8,-27 -5,-43 4,-21 -2,-45 -21,-83 -14,-29 -31,-80 -36,-114 -5,-33 -14,-71 -21,-83 -8,-17 -8,-40 0,-92 7,-38 12,-94 12,-123 0,-50 3,-57 41,-93 22,-22 56,-69 77,-105 33,-59 36,-73 40,-160 4,-85 3,-93 -11,-81 -30,24 -37,2 -37,-106 0,-94 2,-109 21,-129 17,-18 21,-37 23,-96 1,-40 5,-78 9,-85 4,-6 4,-19 0,-29 -5,-14 -2,-16 17,-11 15,4 28,0 39,-13 14,-17 19,-18 48,-5 17,7 37,24 44,37 l 12,23 -24,-21 c -37,-33 -66,-39 -78,-15 -6,11 -11,28 -11,39 0,18 5,19 63,15 72,-6 109,6 179,60 l 48,37 36,-25 c 19,-13 44,-27 55,-30 24,-8 69,19 76,45 2,9 20,24 38,33 19,9 50,38 69,64 37,50 90,163 77,163 -4,0 -17,-24 -29,-52 -55,-131 -136,-195 -234,-186 -27,3 -51,8 -55,12 -3,3 4,17 17,31 13,14 21,27 18,30 -2,3 -17,-8 -32,-24 l -29,-30 -27,21 c -24,17 -27,26 -23,53 3,19 0,35 -6,39 -7,5 -9,30 -5,76 6,60 4,73 -16,104 -12,20 -28,65 -35,100 -20,93 -44,134 -124,204 -79,70 -83,80 -116,261 -14,77 -15,95 -4,102 17,10 5,23 -16,16 -8,-4 -15,-16 -15,-27 0,-32 49,-269 60,-289 5,-10 41,-47 81,-82 77,-68 101,-109 118,-203 6,-31 20,-73 33,-95 22,-38 22,-42 9,-113 -7,-40 -14,-91 -16,-113 -3,-53 -14,-85 -29,-85 -6,0 -30,18 -51,40 -21,22 -43,40 -47,40 -7,0 -14,-14 -33,-67 -5,-14 -65,12 -65,28 0,6 -11,25 -25,43 -14,18 -25,42 -25,53 0,11 11,51 25,87 19,52 25,85 25,150 0,78 -3,89 -42,166 -24,47 -55,93 -75,108 -33,27 -43,52 -22,52 9,0 9,19 3,68 -4,37 -8,117 -8,178 1,103 3,117 31,177 17,35 34,83 38,105 7,42 39,67 55,43 5,-9 10,-8 20,4 7,8 25,15 41,15 27,0 29,-2 23,-27 -4,-16 -16,-50 -26,-78 -11,-27 -24,-72 -28,-100 -5,-27 -12,-65 -16,-82 -5,-25 -3,-33 8,-33 14,0 25,37 43,145 6,36 8,38 20,21 8,-10 19,-41 25,-68 8,-41 7,-56 -5,-81 -18,-37 -18,-37 -1,-37 9,0 15,-24 19,-91 8,-127 32,-173 112,-217 106,-59 151,-113 186,-226 l 20,-68 -21,-45 c -17,-36 -19,-48 -9,-54 16,-9 32,-1 24,12 -7,11 35,12 52,1 7,-5 -5,-14 -33,-26 -24,-10 -44,-22 -44,-27 0,-5 24,3 53,17 36,19 76,29 128,34 42,4 96,16 120,27 24,11 52,23 62,27 10,3 16,10 13,15 -3,4 8,26 24,47 30,39 38,64 21,64 -5,0 -18,-10 -28,-23 -10,-12 -35,-33 -56,-46 l -38,-23 -37,39 c -43,45 -68,114 -88,249 -8,51 -26,123 -41,161 -20,51 -27,85 -26,133 0,53 -2,60 -9,38 -5,-16 -13,-28 -18,-28 -16,0 -21,95 -7,145 8,28 27,98 43,158 20,73 33,106 41,102 8,-2 19,10 28,31 16,38 10,71 -9,55 -22,-19 11,177 45,266 40,103 43,154 12,168 -33,14 -30,54 17,178 22,58 40,120 40,136 0,29 -3,31 -35,31 -25,0 -37,6 -46,23 -6,12 -20,30 -30,40 -27,26 -23,80 11,162 17,39 33,87 36,108 6,34 5,37 -18,37 -14,0 -45,-7 -68,-15 -23,-8 -46,-15 -50,-15 -13,0 -22,51 -30,180 -11,172 -18,189 -90,241 -50,37 -62,53 -80,100 -11,31 -35,76 -53,100 -46,61 -76,123 -98,198 -22,76 -51,111 -91,111 -66,0 -95,32 -133,147 -10,33 -30,65 -52,85 -19,18 -55,59 -80,92 l -46,58 -92,-7 -93,-7 -24,32 c -29,41 -62,57 -128,66 -45,6 -61,15 -112,60 -94,84 -182,102 -318,64 z m 196,-25 c 33,-9 63,-28 89,-56 51,-52 79,-66 146,-75 45,-6 61,-14 101,-52 l 48,-45 83,6 c 45,4 87,3 92,-1 6,-4 27,-29 47,-57 20,-27 50,-60 66,-72 20,-15 36,-40 47,-75 40,-120 68,-153 139,-167 26,-5 52,-13 57,-18 6,-6 17,-36 25,-69 9,-32 31,-87 50,-122 19,-35 34,-65 32,-67 -5,-4 -127,10 -130,15 -2,3 -29,37 -59,75 -31,39 -64,83 -74,99 -24,37 -71,56 -136,56 -70,0 -89,18 -89,84 0,28 -4,56 -8,63 -8,12 -181,93 -199,93 -5,0 -57,16 -115,35 -75,24 -134,36 -201,41 -53,4 -99,10 -104,13 -5,3 -18,31 -29,61 -18,51 -21,55 -55,58 -22,2 -63,-8 -110,-27 -116,-46 -286,-66 -296,-34 -4,12 123,112 200,157 58,33 110,53 202,77 87,22 119,23 181,4 z M 2291,5690 c 52,-35 68,-36 145,-9 87,30 193,15 177,-27 -3,-8 0,-14 6,-14 7,0 27,-16 45,-36 29,-32 38,-36 65,-31 28,6 38,1 77,-35 71,-65 71,-69 24,-173 -10,-22 0,-99 13,-96 4,0 16,-8 27,-19 22,-22 50,-27 50,-9 0,7 -8,17 -17,24 -14,11 -15,17 -6,36 6,13 14,51 18,84 6,67 29,117 82,182 35,42 37,43 97,43 85,0 178,17 261,46 111,40 123,41 135,9 6,-15 9,-49 8,-76 -4,-59 -20,-64 -60,-19 -15,17 -36,30 -49,30 -22,0 -19,-4 23,-46 l 46,-47 87,2 c 95,1 127,-9 202,-61 40,-27 60,-34 122,-39 69,-6 75,-8 105,-43 22,-26 36,-35 48,-31 30,12 107,-33 171,-98 34,-35 74,-68 88,-74 24,-11 26,-15 21,-61 -5,-57 -9,-51 111,-155 65,-56 67,-60 67,-105 0,-55 3,-59 55,-93 47,-31 110,-90 149,-142 27,-35 28,-40 17,-81 -15,-61 -14,-101 4,-116 20,-17 19,-43 -5,-91 -20,-38 -20,-59 0,-59 5,0 17,16 26,37 l 18,36 34,-39 c 54,-62 112,-155 123,-199 15,-59 56,-152 83,-188 33,-46 37,-70 19,-150 -10,-47 -13,-101 -10,-154 5,-83 -7,-174 -38,-283 -21,-75 -20,-100 5,-100 10,0 24,8 30,18 18,28 4,-45 -37,-193 -48,-173 -47,-204 12,-350 26,-65 49,-135 53,-154 l 5,-36 -37,30 c -82,66 -86,72 -86,117 0,24 -7,79 -15,123 -16,82 -42,125 -76,125 -9,0 -24,11 -33,26 -17,24 -16,26 13,60 46,52 39,69 -12,26 -9,-8 -20,-13 -23,-10 -13,14 32,88 91,149 63,65 76,91 55,104 -16,10 -33,-5 -21,-19 8,-9 -7,-30 -54,-76 -36,-36 -65,-70 -65,-77 0,-26 -18,-12 -24,18 -11,57 -7,102 13,123 10,12 37,57 60,100 47,91 52,135 22,218 -11,29 -26,81 -33,115 -14,62 -14,63 9,78 13,9 28,13 34,9 6,-3 13,4 16,15 3,12 23,31 44,42 22,11 39,24 39,29 0,20 -20,18 -64,-6 -25,-14 -50,-23 -55,-20 -5,4 -12,24 -16,46 -4,23 -17,53 -29,68 -18,21 -25,48 -34,122 -5,52 -20,121 -32,153 -21,57 -92,157 -110,157 -24,0 -6,45 36,90 33,36 44,55 39,67 -6,16 -9,15 -26,-8 -23,-32 -76,-74 -105,-83 -20,-6 -20,-6 -8,75 18,109 32,152 50,145 19,-7 18,8 -1,24 -34,28 -67,-47 -83,-185 l -7,-70 -22,45 c -12,25 -28,62 -37,83 -10,26 -21,37 -35,37 -24,0 -28,-15 -8,-27 14,-9 52,-101 45,-109 -6,-5 -74,18 -116,40 -17,9 -38,32 -48,51 -16,34 -22,38 -79,49 -28,6 -30,9 -28,52 2,75 13,135 39,208 42,121 32,146 -55,146 -85,0 -109,20 -155,128 -54,128 -85,152 -195,152 -70,0 -125,18 -188,62 -26,17 -75,40 -110,49 -34,10 -73,25 -85,33 -37,26 -79,19 -152,-25 -52,-31 -70,-38 -81,-29 -24,20 -93,-34 -82,-65 11,-28 52,-16 137,40 106,69 124,74 169,48 20,-11 61,-28 91,-36 30,-9 75,-29 100,-45 71,-44 125,-62 193,-62 102,0 123,-16 177,-140 53,-121 76,-140 168,-140 36,0 54,-4 58,-14 3,-8 -6,-51 -20,-95 -14,-45 -29,-100 -32,-122 -4,-22 -13,-43 -20,-46 -11,-4 -11,-10 -3,-26 10,-17 6,-24 -27,-53 -49,-41 -132,-85 -140,-73 -3,5 -18,2 -33,-6 -20,-10 -31,-11 -39,-3 -8,8 -22,2 -51,-21 -23,-18 -41,-27 -41,-21 0,8 -6,9 -17,5 -10,-4 -25,-7 -35,-7 -9,0 -24,-8 -34,-19 -9,-10 -24,-19 -32,-19 -8,0 -28,-12 -45,-26 -18,-15 -33,-22 -35,-15 -6,18 -27,13 -52,-14 -17,-18 -26,-22 -31,-13 -6,9 -16,5 -37,-15 -15,-15 -35,-27 -44,-27 -9,0 -28,-14 -42,-31 -27,-32 -56,-34 -56,-4 0,19 -10,19 -40,-2 -14,-10 -39,-16 -61,-15 -33,2 -39,-1 -60,-34 -21,-35 -23,-36 -30,-15 -9,24 -20,26 -37,9 -9,-9 -12,-8 -12,4 0,26 -19,32 -42,11 -20,-18 -21,-18 -14,5 12,35 -19,27 -43,-12 -16,-25 -27,-33 -41,-29 -11,3 -20,11 -20,18 0,7 -6,18 -13,24 -11,8 -21,2 -45,-25 -36,-41 -38,-44 -18,-44 7,0 22,12 31,27 16,23 19,24 27,9 5,-9 21,-22 36,-27 22,-9 29,-7 44,13 10,13 18,17 18,11 0,-18 20,-16 41,3 16,14 18,14 24,-5 7,-23 20,-27 31,-9 5,7 10,4 15,-10 12,-32 25,-27 54,18 23,37 27,39 50,28 21,-10 29,-8 48,10 27,26 43,28 51,7 8,-23 40,-18 65,9 13,14 29,22 36,20 7,-3 22,7 33,21 12,15 26,24 32,20 6,-4 23,3 36,16 19,18 27,20 33,11 6,-10 19,-6 53,17 25,17 49,31 52,31 4,0 20,10 36,21 20,16 36,20 55,15 20,-5 35,0 67,25 29,24 42,29 48,20 6,-10 13,-9 34,4 23,16 26,16 26,1 0,-22 7,-20 42,9 16,14 35,25 42,25 7,0 33,16 57,35 51,40 55,41 62,16 3,-14 17,-22 43,-26 73,-12 101,-43 33,-37 -32,3 -40,1 -37,-9 3,-8 20,-16 39,-20 19,-3 43,-11 54,-18 11,-7 58,-25 105,-40 84,-28 85,-28 94,-68 7,-33 4,-48 -18,-91 -34,-68 -35,-153 -2,-234 l 23,-57 -36,-5 c -20,-3 -71,-8 -113,-11 -67,-6 -78,-5 -78,9 0,9 11,26 25,38 15,13 33,47 44,82 10,34 37,99 60,145 28,56 38,88 31,95 -5,5 -12,8 -14,5 -10,-10 -96,-194 -96,-206 0,-29 -33,-91 -50,-96 -11,-3 -22,-19 -28,-38 -8,-34 -9,-34 -68,-35 -79,-1 -214,20 -251,40 -39,20 -140,36 -226,36 -43,0 -79,6 -100,16 -27,14 -53,16 -184,10 -99,-4 -178,-14 -225,-26 -83,-22 -158,-26 -176,-8 -17,17 -15,28 4,28 8,0 13,4 10,9 -10,16 -151,22 -269,11 -101,-10 -122,-9 -135,3 -10,8 -23,12 -29,10 -7,-3 -13,0 -13,5 0,6 26,14 58,17 31,4 64,12 72,17 10,6 5,7 -15,2 -44,-10 -185,-12 -191,-2 -3,4 -25,8 -50,8 -41,0 -43,1 -32,20 17,27 4,35 -27,14 -23,-15 -33,-16 -76,-6 -28,7 -122,12 -210,12 -147,0 -159,1 -159,18 0,27 40,66 53,53 21,-21 27,-11 27,44 0,48 2,55 20,55 11,0 20,-3 20,-7 0,-5 4,-14 9,-21 6,-11 15,-10 46,5 29,14 39,15 42,6 5,-15 42,-17 63,-3 9,5 19,5 27,-1 8,-7 18,-7 32,1 17,9 21,8 21,-5 0,-19 9,-19 34,0 14,11 22,12 27,4 10,-17 58,19 65,50 3,14 12,41 20,60 11,25 12,37 4,45 -7,7 -80,12 -200,14 -105,2 -190,6 -190,9 0,2 22,30 50,60 39,44 52,68 61,112 7,31 21,64 31,74 10,10 25,31 33,47 9,17 20,30 25,30 5,0 11,9 15,19 3,11 20,25 38,33 57,24 124,72 145,104 12,18 29,31 39,30 15,-1 18,8 21,57 3,57 15,74 27,37 4,-11 18,-34 32,-51 24,-29 25,-35 20,-115 -4,-69 -9,-90 -27,-109 -19,-20 -21,-34 -21,-111 0,-82 -9,-129 -22,-108 -2,5 -8,41 -12,79 -3,39 -13,89 -21,113 -8,23 -14,65 -14,92 0,28 -4,50 -10,50 -12,0 -13,-6 -12,-82 1,-32 8,-70 15,-85 8,-16 18,-71 22,-123 4,-52 12,-101 17,-110 5,-8 15,-35 23,-60 l 14,-45 -5,43 c -3,23 -2,48 4,55 11,14 21,59 29,130 3,31 10,47 19,47 8,0 14,7 14,15 0,8 -7,15 -15,15 -22,0 -19,47 4,76 14,17 21,49 26,109 4,47 10,83 14,80 4,-2 17,-23 29,-47 26,-50 92,-85 142,-74 16,3 32,1 35,-5 4,-5 15,-7 24,-4 13,4 29,-7 54,-38 20,-24 49,-50 66,-57 30,-12 51,-51 51,-94 0,-11 11,-29 25,-41 20,-16 26,-32 32,-85 5,-48 12,-70 29,-87 33,-33 51,-29 59,15 4,20 13,44 20,52 7,8 18,32 23,53 9,31 8,46 -6,75 -9,21 -23,41 -30,45 -14,9 -47,79 -56,118 -7,31 -84,149 -97,149 -17,0 -9,-28 20,-64 17,-21 37,-58 46,-84 27,-76 58,-142 66,-142 5,0 16,-14 24,-31 18,-34 12,-84 -10,-93 -8,-3 -18,-23 -21,-46 -4,-22 -10,-40 -14,-40 -14,0 -30,53 -30,101 0,39 -5,55 -24,74 -13,13 -27,40 -30,61 -5,22 -19,47 -37,63 -16,14 -63,60 -105,101 l -76,75 12,51 c 12,57 7,78 -27,113 -29,29 -31,16 -2,-15 l 20,-22 -20,-70 c -12,-38 -21,-77 -21,-86 0,-21 -20,-20 -64,2 -25,12 -41,31 -56,64 -24,56 -41,176 -33,235 12,87 4,100 -163,285 -16,17 -51,35 -97,49 -40,13 -79,30 -88,40 -16,17 -59,16 -59,-1 0,-15 65,-48 137,-69 60,-18 78,-28 100,-58 16,-20 52,-63 82,-95 45,-48 54,-65 59,-104 3,-31 1,-49 -8,-54 -17,-10 -19,-87 -4,-108 8,-9 14,-30 14,-46 0,-37 -10,-28 -19,16 -5,23 -13,33 -25,33 -19,0 -41,39 -31,55 3,5 -2,13 -11,18 -11,6 -20,30 -25,66 -6,45 -16,69 -50,112 -23,31 -48,76 -54,102 -14,54 -42,67 -37,17 6,-46 26,-89 70,-143 35,-45 40,-57 45,-124 9,-103 0,-145 -42,-198 -20,-25 -39,-47 -44,-48 -4,-2 -26,-19 -48,-38 -23,-19 -48,-34 -56,-34 -18,0 -66,-50 -100,-102 -23,-38 -53,-51 -53,-23 0,29 -20,15 -36,-25 -9,-22 -22,-40 -30,-40 -8,0 -14,-6 -14,-14 0,-7 -7,-20 -16,-27 -9,-7 -29,-36 -46,-64 -16,-27 -28,-42 -25,-33 3,9 11,35 17,57 14,51 64,149 114,221 60,85 55,82 79,65 51,-35 70,-11 71,92 1,34 6,54 15,58 7,3 10,12 7,20 -5,13 41,78 69,97 47,32 47,32 35,77 -13,50 -67,112 -126,147 -24,14 -66,52 -94,84 -65,75 -94,86 -183,65 -37,-8 -109,-34 -160,-56 -68,-30 -100,-39 -123,-34 -17,3 -44,1 -60,-6 -28,-10 -28,-11 -10,-25 11,-8 38,-14 60,-14 21,0 36,-3 33,-7 -9,-9 13,-34 24,-27 5,3 9,15 9,27 0,18 18,30 95,64 175,79 218,77 298,-12 27,-31 76,-74 109,-96 56,-39 98,-88 98,-117 0,-7 -23,-39 -51,-71 -50,-57 -52,-58 -78,-45 -14,8 -30,14 -36,14 -15,1 -59,41 -79,73 -24,39 -74,67 -118,67 -21,0 -71,11 -111,25 -83,27 -316,51 -424,42 l -63,-5 17,29 c 10,16 27,41 38,55 19,24 23,25 43,13 33,-20 81,9 178,108 l 82,83 132,6 c 122,7 137,10 199,40 91,45 160,46 222,4 z m 1589,-185 c 74,-24 165,-57 203,-74 64,-29 67,-32 67,-66 0,-19 -2,-35 -4,-35 -2,0 -23,9 -47,20 -24,11 -56,20 -71,20 -17,0 -28,5 -28,14 0,27 -64,56 -121,56 -44,0 -64,7 -118,39 -77,45 -148,71 -196,71 -19,0 -35,3 -35,8 0,4 48,4 108,-1 81,-7 139,-19 242,-52 z M 1763,5306 c 77,-13 119,-28 230,-84 4,-2 7,6 7,17 0,21 1,21 30,6 16,-8 36,-28 44,-43 19,-37 44,-58 100,-85 l 47,-23 -32,-41 -32,-41 -51,38 c -29,22 -68,46 -89,55 -20,8 -67,45 -104,81 -37,36 -85,75 -105,85 -54,28 -146,25 -239,-6 -112,-38 -344,-157 -436,-224 -46,-33 -83,-56 -83,-51 0,15 -34,12 -56,-5 -28,-21 -36,-18 -20,8 7,12 17,34 20,50 10,42 71,103 170,168 86,56 114,68 86,34 -10,-12 -10,-19 -2,-27 7,-7 13,-10 15,-7 2,2 17,22 33,43 16,21 42,45 59,52 41,18 295,18 408,0 z m 2606,-104 c 14,-16 57,-68 94,-116 l 69,-86 h 50 c 63,0 85,-12 93,-52 11,-51 33,-86 63,-102 19,-10 33,-30 46,-68 10,-29 32,-75 49,-101 54,-86 76,-154 70,-213 -4,-39 -1,-60 10,-77 10,-15 19,-66 25,-139 9,-101 14,-123 45,-184 52,-101 76,-201 37,-151 -28,35 -90,168 -90,192 0,28 -61,129 -121,199 -27,32 -49,67 -49,79 0,11 -9,31 -21,43 -19,21 -20,26 -9,77 7,30 10,66 6,80 -7,31 -150,179 -195,202 -32,16 -33,18 -26,61 6,44 5,47 -37,87 -24,23 -68,62 -97,86 l -53,44 6,59 c 6,51 5,59 -11,64 -92,29 -111,59 -31,52 42,-4 57,-11 77,-36 z M 2215,4981 c -4,-23 -11,-41 -16,-41 -15,0 -24,33 -11,38 7,2 12,12 12,21 0,19 10,34 18,27 2,-3 1,-23 -3,-45 z m 2514,-46 c 24,-50 25,-55 12,-55 -8,0 -23,31 -36,78 -10,36 1,25 24,-23 z m 171,-241 c 17,-80 8,-85 -30,-18 -71,122 -76,148 -21,105 33,-26 42,-41 51,-87 z m -4200,73 c -8,-7 -56,-52 -105,-100 l -91,-86 -10,44 -10,45 53,41 c 64,48 107,68 148,69 25,0 27,-2 15,-13 z m 1425,-69 c -7,-42 -53,-133 -62,-124 -9,9 51,166 63,166 3,0 3,-19 -1,-42 z M 466,4616 c 15,-61 -18,-105 -55,-72 -22,20 -17,39 17,79 21,23 30,22 38,-7 z m 1552,-54 c -6,-24 -16,-42 -24,-42 -10,0 -8,11 8,45 12,24 23,43 24,42 2,-1 -2,-22 -8,-45 z m -71,-42 c -7,-17 -13,-26 -15,-21 -3,10 15,51 22,51 3,0 -1,-14 -7,-30 z m -1553,-6 c 7,-19 9,-17 -22,-33 -32,-17 -37,-8 -17,23 20,30 30,33 39,10 z m -101,-48 c -10,-14 -22,-26 -26,-26 -5,0 1,14 13,31 12,16 24,28 27,25 3,-2 -3,-16 -14,-30 z m 1597,-31 c 0,-25 5,-45 10,-45 24,0 6,-21 -44,-49 -63,-36 -66,-37 -66,-12 0,10 -7,24 -16,32 -13,11 -22,10 -57,-9 -51,-27 -57,-27 -57,-2 0,25 -11,25 -62,-1 -39,-20 -42,-20 -54,-4 -13,17 -16,16 -49,-9 -33,-26 -35,-26 -35,-7 0,24 -4,25 -32,10 -16,-9 -22,-8 -29,2 -7,12 -12,12 -29,1 -17,-11 -25,-11 -37,-1 -11,10 -19,10 -34,1 -17,-11 -19,-9 -19,15 0,16 -3,38 -6,51 -5,18 -2,22 17,22 13,0 31,4 39,10 9,6 17,5 22,-3 6,-9 12,-9 26,0 10,6 70,16 133,23 63,7 116,14 118,16 2,2 62,4 133,4 h 128 z m 530,30 c 6,-4 3,-17 -8,-32 -9,-15 -22,-41 -27,-57 -7,-22 -17,-31 -31,-31 -11,0 -28,-6 -37,-14 -15,-12 -17,-11 -17,3 0,18 -25,22 -35,6 -3,-6 -17,-7 -30,-4 -13,3 -33,1 -44,-6 -17,-9 -25,-8 -37,4 -15,16 -34,13 -68,-10 -17,-12 -21,-11 -33,6 -8,11 -21,20 -30,20 -13,0 -15,9 -10,55 3,30 8,59 12,64 6,11 378,7 395,-4 z m -440,-69 c -6,-44 -21,-65 -44,-66 -4,0 -5,7 -2,16 3,9 6,24 6,33 0,17 39,76 45,69 2,-2 -1,-25 -5,-52 z m 3065,-91 c -42,-115 -44,-162 -11,-202 12,-15 28,-38 35,-50 8,-16 21,-23 42,-23 29,0 31,-2 25,-27 -9,-39 -48,-135 -52,-130 -3,2 -11,31 -19,63 -8,32 -31,94 -51,137 -31,66 -37,93 -45,184 -4,59 -7,107 -6,108 1,0 22,8 47,17 25,8 50,16 57,17 8,1 -1,-34 -22,-94 z m -4817,50 c -6,-14 -13,-23 -16,-21 -7,7 9,46 18,46 5,0 4,-11 -2,-25 z m 4308,1 c 18,-13 22,-30 27,-108 4,-51 14,-118 22,-148 8,-30 15,-75 15,-99 v -44 l -42,7 c -55,9 -57,10 -84,72 -38,87 -40,123 -10,190 14,31 34,62 43,69 15,11 15,15 0,43 -17,36 -6,42 29,18 z m -2568,-48 c -2,-13 -11,-24 -20,-26 -21,-4 -24,18 -6,36 19,19 30,14 26,-10 z m 2702,-99 c 37,-87 45,-150 25,-208 -17,-52 -21,-56 -49,-45 -11,4 -16,20 -16,53 0,25 -7,71 -15,101 -8,30 -17,89 -21,130 l -7,75 31,-29 c 17,-15 40,-50 52,-77 z M 565,4042 c -1,-85 -4,-112 -18,-132 -9,-13 -17,-32 -17,-42 0,-12 -8,-18 -24,-18 -17,0 -28,-9 -40,-34 -24,-51 -19,-65 10,-28 25,31 54,43 54,22 0,-6 -7,-40 -16,-76 -12,-46 -21,-64 -31,-62 -18,4 -44,-73 -73,-216 -20,-94 -47,-177 -49,-147 -1,8 -15,45 -32,83 l -32,68 16,77 c 10,51 12,85 6,101 -6,16 -4,43 6,84 9,33 14,63 11,65 -3,3 2,19 10,36 9,17 25,55 35,86 30,87 109,211 144,227 17,7 32,13 35,14 3,0 5,-48 5,-108 z m 67,81 c 11,-23 19,-27 44,-25 22,2 40,-4 60,-21 38,-33 41,-93 8,-164 -33,-73 -94,-251 -94,-274 0,-11 -9,-32 -21,-48 -16,-21 -24,-57 -34,-152 -18,-159 -31,-205 -58,-213 -37,-10 -47,-7 -47,14 0,11 7,20 15,20 8,0 15,6 15,14 0,8 3,22 7,32 4,12 3,15 -5,10 -7,-4 -12,-16 -12,-27 0,-10 -6,-19 -14,-19 -8,0 -18,-9 -21,-20 -3,-11 -11,-20 -16,-20 -13,0 -11,-28 2,-32 6,-2 5,-14 -5,-33 -9,-17 -16,-42 -16,-57 0,-16 -4,-28 -10,-28 -6,0 -10,-38 -10,-92 0,-51 -5,-132 -10,-181 -8,-72 -8,-93 5,-123 18,-44 12,-182 -12,-256 -8,-26 -12,-56 -8,-67 7,-24 -66,-197 -97,-227 -13,-13 -35,-26 -50,-29 -23,-6 -27,-3 -33,24 -8,37 0,65 31,112 31,45 47,163 39,284 -5,65 -2,108 9,155 9,36 16,101 16,145 0,55 3,75 10,65 7,-11 10,-6 10,22 0,20 -5,40 -11,43 -6,4 -8,13 -5,20 3,8 2,15 -3,17 -4,2 -4,30 0,63 6,59 6,60 8,13 0,-28 6,-48 12,-48 7,0 9,12 4,36 -7,38 14,174 27,174 4,0 8,10 8,21 0,12 8,47 19,78 10,31 24,83 30,116 16,90 54,205 67,205 13,0 25,29 49,114 16,58 29,64 38,16 3,-19 5,-17 6,10 0,20 -4,41 -9,46 -7,7 -6,25 3,55 10,31 11,65 6,114 -12,113 20,186 53,118 z m 1208,-181 c 26,-13 39,-29 54,-67 21,-55 22,-68 7,-235 -22,-251 -19,-237 -65,-276 -49,-43 -97,-66 -112,-53 -10,8 -84,-6 -84,-17 0,-2 18,-1 40,2 66,11 46,-4 -42,-30 -61,-18 -109,-25 -178,-26 -115,-2 -257,12 -286,28 -38,20 -83,80 -89,119 -3,21 -15,70 -25,108 -11,39 -22,86 -25,105 -3,19 -7,46 -9,60 -5,36 14,77 63,132 30,33 41,53 36,66 -9,31 14,39 125,45 115,6 311,31 405,52 68,15 134,11 185,-13 z m 2745,-20 c -3,-3 -11,0 -18,7 -9,10 -8,11 6,5 10,-3 15,-9 12,-12 z m -220,1 c -11,-3 -46,-13 -77,-23 l -58,-18 v 24 c 0,23 2,24 78,23 42,-1 68,-4 57,-6 z m 299,-20 c -9,-37 -11,-38 -29,-23 -25,21 -19,50 10,50 23,0 25,-3 19,-27 z m 60,-5 c 9,-36 7,-118 -4,-118 -15,0 -30,36 -30,74 0,61 22,89 34,44 z m -144,-13 c 8,-9 5,-27 -10,-64 -11,-29 -20,-74 -20,-101 0,-47 -2,-51 -33,-64 -19,-7 -48,-31 -66,-52 l -33,-39 7,55 c 13,117 18,140 26,140 12,0 59,95 59,118 0,10 2,21 5,24 9,8 54,-3 65,-17 z M 555,3870 c -4,-12 -9,-19 -12,-17 -3,3 -2,15 2,27 4,12 9,19 12,17 3,-3 2,-15 -2,-27 z m 4233,-107 c -21,-26 -28,-12 -27,60 l 1,72 18,-59 c 14,-44 16,-64 8,-73 z m -145,57 c 16,-27 17,-38 5,-132 -7,-57 -11,-138 -10,-180 2,-52 -3,-90 -13,-114 -8,-20 -15,-45 -15,-56 0,-46 -32,-157 -47,-162 -24,-10 -27,1 -9,28 33,51 11,49 -39,-3 -21,-22 -49,-41 -63,-44 -22,-4 -23,-3 -17,32 3,20 13,59 21,87 12,44 18,51 34,47 24,-6 27,12 5,25 -14,7 -9,29 35,157 36,108 50,164 50,204 0,50 26,141 40,141 3,0 14,-13 23,-30 z m 411,-122 c -1,-57 -6,-116 -12,-133 -8,-25 -10,-13 -11,65 -1,99 7,170 18,170 4,0 6,-46 5,-102 z m -321,-2 c -4,-17 -7,-92 -5,-167 2,-174 -21,-307 -59,-326 -33,-18 -63,-17 -56,1 3,8 11,43 17,78 6,35 16,79 23,98 6,19 12,76 13,125 1,50 5,129 9,177 l 8,87 29,-20 c 26,-19 28,-25 21,-53 z M 305,3679 c -4,-33 -11,-73 -15,-87 -8,-25 -8,-25 -9,10 -1,40 17,138 26,138 3,0 2,-27 -2,-61 z m 4797,-29 c -6,-41 -12,-38 -12,6 0,19 4,33 8,30 5,-3 7,-19 4,-36 z m -322,-28 c 1,-15 9,-52 20,-82 30,-85 26,-122 -21,-207 -23,-41 -43,-73 -44,-71 -2,2 3,32 12,68 11,48 14,93 9,173 -6,109 -1,161 15,151 5,-3 9,-17 9,-32 z m -249,-7 c 0,-6 -19,-64 -42,-129 l -43,-119 -23,28 c -27,31 -25,61 8,127 35,69 102,131 100,93 z M 633,3503 c -18,-104 -24,-114 -18,-26 5,74 12,103 24,103 4,0 1,-35 -6,-77 z m 178,4 c -10,-9 -11,-8 -5,6 3,10 9,15 12,12 3,-3 0,-11 -7,-18 z M 620,3340 c 5,0 8,-9 7,-20 -3,-48 -28,0 -25,50 1,24 1,24 5,-2 2,-16 8,-28 13,-28 z m 4396,-56 c -4,-14 -9,-24 -12,-21 -3,2 -2,17 2,31 3,15 9,25 11,22 3,-3 2,-17 -1,-32 z M 697,3189 c 31,-58 61,-164 83,-290 5,-26 18,-66 31,-90 13,-26 25,-74 30,-119 5,-51 16,-92 33,-124 14,-27 26,-56 26,-64 0,-22 -14,-4 -30,38 -7,19 -30,58 -51,85 -53,72 -79,125 -80,165 -1,19 -4,46 -8,59 -6,22 -8,23 -21,9 -13,-13 -18,-9 -47,37 -24,38 -38,79 -53,156 -24,126 -25,159 -5,159 8,0 15,9 15,19 0,19 16,32 34,27 6,-1 25,-31 43,-67 z m -137,-23 c 0,-58 39,-228 60,-260 38,-59 90,-177 90,-205 0,-15 5,-54 12,-86 9,-47 9,-61 -3,-79 -21,-32 -25,-241 -6,-286 15,-34 15,-31 16,88 1,117 12,158 25,90 7,-37 9,-321 3,-383 -5,-44 -40,-127 -64,-147 -13,-10 -19,-7 -42,19 -40,48 -75,66 -111,58 l -31,-7 45,70 c 24,38 54,103 66,143 12,40 29,83 37,96 8,13 11,23 5,23 -12,0 -37,-51 -52,-110 -15,-58 -59,-136 -127,-228 -30,-41 -63,-92 -73,-114 l -18,-41 -24,39 c -14,22 -28,44 -31,51 -4,6 0,28 10,47 12,26 23,36 39,36 19,0 25,8 35,43 29,108 53,160 80,176 27,15 83,120 135,249 13,34 21,43 35,39 24,-6 35,9 13,17 -30,11 -35,6 -65,-61 -80,-180 -101,-219 -122,-228 -29,-13 -53,-58 -73,-135 -16,-63 -29,-90 -42,-88 -21,2 -31,-5 -42,-32 -7,-16 -15,-30 -19,-30 -8,0 -71,114 -71,129 0,6 16,19 35,28 42,20 73,65 109,158 14,39 44,106 66,150 41,84 53,135 33,142 -7,3 -17,-13 -23,-39 -12,-43 -49,-113 -56,-105 -3,2 2,30 11,63 8,32 15,85 15,117 v 59 l 56,-7 c 43,-5 55,-4 52,6 -4,12 -25,21 -80,33 l -28,6 5,148 c 7,230 16,336 29,354 10,14 32,22 74,27 7,0 12,-12 12,-33 z m 4143,-37 c 4,-28 12,-61 19,-73 19,-30 11,-74 -18,-92 -26,-17 -33,-44 -11,-44 7,0 19,6 26,13 10,10 18,6 39,-21 15,-18 35,-32 44,-32 40,0 61,-58 78,-215 6,-65 12,-82 30,-95 95,-67 119,-110 100,-182 -14,-50 -69,-158 -81,-158 -5,0 -15,23 -23,51 -31,103 -108,194 -196,231 -49,21 -67,45 -85,113 -15,59 -20,180 -9,223 5,18 9,20 20,11 11,-9 14,-8 14,4 0,9 -8,22 -18,29 -10,7 -24,34 -32,61 -7,26 -17,50 -21,53 -12,7 -10,61 4,109 11,35 17,40 57,51 25,7 48,12 51,13 3,1 9,-22 12,-50 z m -493,-229 c 0,-30 -86,-187 -97,-176 -2,2 4,31 14,66 13,47 22,64 40,71 29,11 29,17 1,28 l -23,9 25,10 c 36,15 40,14 40,-8 z M 1879,2789 c 12,8 51,4 51,-5 0,-1 -9,-18 -19,-36 -11,-18 -33,-68 -50,-110 -17,-43 -49,-113 -71,-157 -26,-50 -43,-101 -48,-138 l -8,-58 -18,27 c -19,29 -35,148 -20,148 5,0 9,28 10,63 0,44 9,82 28,129 32,77 100,156 119,139 7,-5 19,-6 26,-2 z m 3205,-530 c 31,-45 56,-83 54,-84 -15,-14 -89,-35 -123,-35 -38,0 -45,4 -59,30 -14,30 -14,33 20,90 19,32 34,63 34,69 0,25 20,6 74,-70 z M 840,2198 c 14,-45 27,-72 38,-75 10,-2 35,-32 57,-66 22,-34 68,-95 102,-137 47,-56 70,-95 92,-155 16,-44 42,-107 57,-140 36,-79 38,-148 6,-192 -26,-37 -65,-51 -87,-33 -9,7 -32,44 -51,82 -36,68 -63,88 -98,75 -8,-3 -24,2 -35,11 -50,44 -221,267 -221,290 0,5 10,17 21,28 12,10 34,44 48,74 25,53 26,62 25,214 -2,176 1,177 46,24 z m 1674,87 c -25,-19 -40,-19 -24,0 7,8 20,15 28,15 13,0 12,-3 -4,-15 z m 1537,-88 c -8,-8 -11,0 -10,29 1,39 1,39 11,11 7,-21 7,-32 -1,-40 z m 401,-99 c -8,-8 -9,-4 -5,13 4,13 8,18 11,10 2,-7 -1,-18 -6,-23 z m -4185,-146 32,-57 -35,-70 c -19,-39 -39,-90 -44,-115 -8,-36 -9,-25 -6,58 2,56 0,102 -4,102 -12,0 -58,-56 -65,-81 -4,-13 -11,-17 -16,-12 -13,13 25,158 42,158 8,0 23,17 34,37 11,21 22,38 25,38 3,0 20,-26 37,-58 z m 4493,-123 c -73,-61 -151,-83 -214,-59 -17,6 -26,17 -26,32 0,17 3,19 12,10 19,-19 28,-14 47,27 l 17,40 43,-35 c 24,-19 47,-34 51,-34 12,0 38,34 50,64 l 11,30 22,-23 22,-22 z m -2745,51 c -3,-5 -14,-10 -23,-10 -15,0 -15,2 -2,10 20,13 33,13 25,0 z m 2019,-29 c -5,-22 -10,-29 -17,-22 -7,7 -7,19 2,37 15,34 23,26 15,-15 z m 899,-1 c 39,0 40,0 22,-20 -23,-25 -51,-25 -92,0 -41,25 -42,34 -2,26 17,-3 50,-6 72,-6 z m -961,-32 c -9,-9 -12,-7 -12,12 0,19 3,21 12,12 9,-9 9,-15 0,-24 z"
       id="path1" />
    <path
       d="m 2150,5590 c 0,-5 7,-10 16,-10 8,0 12,5 9,10 -3,6 -10,10 -16,10 -5,0 -9,-4 -9,-10 z"
       id="path2" />
    <path
       d="m 2990,5076 c 0,-22 67,-126 95,-146 22,-16 32,-31 29,-41 -2,-9 3,-22 11,-29 9,-7 13,-21 10,-31 -3,-9 0,-21 6,-25 16,-9 41,26 36,48 -4,15 -2,15 22,-2 21,-16 33,-18 66,-11 155,35 311,35 350,1 23,-20 88,-54 125,-65 56,-16 156,-59 172,-72 19,-17 40,-9 32,11 -7,19 -69,50 -149,76 -88,28 -123,46 -156,76 -24,23 -35,25 -135,27 -60,1 -146,-4 -192,-10 l -82,-12 -53,34 c -83,54 -108,78 -131,125 -11,25 -29,46 -38,48 -10,2 -18,1 -18,-2 z"
       id="path3" />
    <path
       d="m 2930,5041 c 0,-19 26,-41 49,-41 20,0 11,19 -19,40 -30,21 -30,21 -30,1 z"
       id="path4" />
    <path
       d="m 3355,4791 c -29,-7 -28,-7 15,-14 90,-13 180,-19 180,-13 0,4 -16,14 -35,22 -35,14 -107,17 -160,5 z"
       id="path5" />
    <path
       d="m 3731,4714 c -20,-14 -21,-18 -8,-26 9,-5 26,-4 41,3 20,10 23,15 15,26 -15,17 -20,16 -48,-3 z"
       id="path6" />
    <path
       d="m 2253,4658 c 5,-73 29,-138 51,-138 19,0 46,38 46,65 0,11 -18,42 -40,69 -22,26 -40,52 -40,57 0,5 -5,9 -10,9 -7,0 -9,-23 -7,-62 z m 66,-90 c -11,-20 -12,-20 -25,12 -23,53 -17,70 11,37 21,-24 23,-32 14,-49 z"
       id="path7" />
    <path
       d="m 3900,4651 c -58,-20 -115,-42 -127,-49 -12,-7 -31,-12 -42,-12 -11,0 -23,-4 -26,-10 -8,-13 -143,-52 -155,-45 -6,4 -36,-6 -68,-21 -31,-15 -73,-27 -92,-26 -19,0 -73,-13 -120,-29 -85,-30 -146,-38 -188,-25 -16,5 -21,4 -17,-6 6,-14 -37,-38 -69,-38 -12,0 -30,-7 -40,-15 -33,-25 -54,-19 -48,12 5,26 -34,113 -50,113 -14,0 -9,-94 6,-122 13,-25 13,-27 -7,-30 -17,-2 -23,-11 -25,-36 -2,-20 -7,-30 -14,-26 -8,5 -9,1 -5,-10 4,-10 7,-26 7,-37 0,-10 5,-19 10,-19 6,0 10,15 10,33 0,61 9,76 49,82 20,3 50,12 66,19 79,35 138,45 150,26 12,-19 26,-10 20,11 -7,20 -5,21 23,16 17,-4 34,-3 36,2 9,14 176,63 197,58 21,-6 95,19 120,40 9,7 29,13 45,12 29,-3 79,11 142,37 18,8 40,14 50,14 9,0 31,9 47,20 17,11 37,20 45,20 8,0 27,6 41,14 14,7 37,16 51,19 14,4 33,10 42,13 11,4 16,1 16,-10 0,-22 16,-20 40,4 21,21 19,41 -3,39 -7,0 -59,-17 -117,-38 z"
       id="path8" />
    <path
       d="m 2449,4367 c -38,-68 -53,-86 -89,-104 -53,-27 -65,-39 -52,-47 13,-8 77,27 113,61 25,23 89,141 89,163 0,25 -18,3 -61,-73 z"
       id="path9" />
    <path
       d="m 2750,4389 c 0,-29 5,-69 10,-90 6,-22 15,-56 20,-78 7,-25 22,-48 45,-65 19,-15 35,-23 35,-18 0,4 -13,18 -28,29 -34,25 -62,123 -62,216 0,31 -4,57 -10,57 -5,0 -10,-23 -10,-51 z"
       id="path10" />
    <path
       d="m 4307,4387 c -8,-21 7,-72 21,-72 7,0 12,3 12,8 0,4 0,15 0,25 0,10 -6,26 -13,36 -12,16 -15,17 -20,3 z"
       id="path11" />
    <path
       d="m 3702,4308 c -6,-18 -12,-61 -15,-95 -4,-55 -2,-64 19,-83 12,-13 29,-20 37,-17 19,7 29,64 16,89 -6,12 -9,47 -7,79 4,56 3,59 -18,59 -17,0 -25,-8 -32,-32 z m 34,-165 c -14,-14 -26,14 -26,61 0,75 14,79 23,6 4,-35 6,-65 3,-67 z"
       id="path12" />
    <path
       d="m 2045,4240 c -8,-13 5,-13 25,0 13,8 13,10 -2,10 -9,0 -20,-4 -23,-10 z"
       id="path13" />
    <path
       d="m 4803,4139 c 5,-99 27,-153 68,-175 24,-12 29,-12 29,-1 0,8 -9,25 -21,38 -27,31 -39,62 -39,103 0,37 -17,96 -33,111 -6,7 -8,-20 -4,-76 z"
       id="path14" />
    <path
       d="m 1535,3781 c -27,-10 -71,-26 -97,-35 -28,-11 -63,-35 -87,-61 -40,-44 -68,-115 -54,-138 4,-6 6,-25 4,-41 -1,-16 9,-57 24,-92 25,-60 29,-63 73,-76 62,-16 240,-15 283,3 87,37 116,58 153,112 33,47 40,67 44,116 8,117 -50,181 -199,216 -80,18 -83,18 -144,-4 z m 144,-33 c 28,-6 48,-15 45,-20 -3,-4 4,-8 16,-8 32,0 78,-27 85,-51 7,-22 -5,-43 -12,-21 -3,6 -11,12 -19,12 -9,0 -12,-5 -8,-11 12,-20 -143,-5 -226,21 -92,29 -109,39 -83,54 64,36 122,43 202,24 z m -245,-54 c -18,-15 -18,-15 5,-8 16,4 21,3 17,-5 -9,-13 -66,-15 -66,-1 0,11 30,29 49,30 11,0 9,-4 -5,-16 z m 66,-18 c 0,-11 -19,-15 -25,-6 -3,5 1,10 9,10 9,0 16,-2 16,-4 z m 34,-12 c 27,-10 18,-24 -15,-24 -27,0 -30,2 -19,15 14,17 13,17 34,9 z m -144,-14 c 0,-5 9,-10 19,-10 11,0 23,5 26,10 9,15 19,12 45,-10 15,-13 37,-20 63,-20 28,0 38,-4 34,-13 -3,-9 9,-17 35,-24 32,-9 38,-8 34,3 -6,17 -10,16 81,18 39,0 75,4 79,9 4,4 16,7 27,7 17,0 19,-5 15,-44 -3,-25 -17,-65 -32,-90 -23,-40 -34,-48 -84,-63 -69,-22 -256,-23 -316,-3 -48,15 -89,59 -74,77 13,16 2,47 -14,37 -8,-5 -9,0 -5,17 4,13 7,31 7,40 0,9 9,28 21,43 21,26 39,34 39,16 z m 248,-15 c 37,-4 38,-15 1,-15 -45,0 -79,10 -79,22 0,6 11,7 28,3 15,-4 37,-8 50,-10 z m 79,-11 c -3,-3 -12,-4 -19,-1 -8,3 -5,6 6,6 11,1 17,-2 13,-5 z m -303,-216 c 33,-18 191,-25 266,-13 45,7 45,7 21,-11 -13,-9 -38,-18 -55,-19 -17,-1 -44,-8 -61,-15 -16,-7 -50,-13 -75,-14 -39,-1 -50,4 -85,37 -39,37 -55,45 -55,27 0,-5 -7,-7 -15,-4 -8,4 -15,10 -15,14 0,11 52,9 74,-2 z"
       id="path15" />
    <path
       d="m 1756,3525 c -8,-22 1,-35 25,-35 15,0 20,6 17,22 -4,27 -33,36 -42,13 z"
       id="path16" />
    <path
       d="m 1537,3283 c -4,-3 -24,-9 -44,-13 l -38,-8 42,-1 c 23,0 45,4 48,10 4,6 22,8 46,4 22,-4 39,-3 39,2 0,11 -83,16 -93,6 z"
       id="path17" />
    <path
       d="m 4690,2815 c -7,-9 -10,-18 -7,-22 8,-7 37,15 37,28 0,14 -16,11 -30,-6 z"
       id="path18" />
    <path
       d="m 1090,4736 c 0,-4 9,-19 20,-34 18,-25 60,-165 60,-202 0,-9 -16,-47 -35,-86 -19,-38 -35,-83 -35,-99 0,-24 -10,-39 -45,-68 -25,-21 -45,-45 -45,-52 0,-22 8,-19 57,21 45,37 57,37 66,-1 2,-11 3,-3 1,17 -4,32 0,39 29,57 18,11 41,29 51,39 30,34 -7,34 -51,2 -21,-16 -42,-30 -46,-30 -15,0 4,63 36,123 30,58 31,60 19,129 -13,75 -45,160 -68,179 -8,6 -14,8 -14,5 z"
       id="path19" />
    <path
       d="m 1645,4633 c 0,-82 3,-98 16,-101 19,-4 49,53 49,93 0,37 -38,104 -60,105 -3,0 -5,-44 -5,-97 z m 24,-57 c -9,-8 -10,-3 -5,23 3,18 7,41 8,50 1,9 3,-1 5,-23 3,-22 -1,-43 -8,-50 z"
       id="path20" />
    <path
       d="m 1745,4540 c -3,-5 -1,-10 4,-10 6,0 11,5 11,10 0,6 -2,10 -4,10 -3,0 -8,-4 -11,-10 z"
       id="path21" />
    <path
       d="m 396,4403 c -23,-23 -39,-88 -43,-175 -5,-82 -3,-98 9,-98 12,0 16,19 21,88 3,48 13,107 22,131 14,41 9,72 -9,54 z"
       id="path22" />
    <path
       d="m 1142,4160 c 0,-14 2,-19 5,-12 2,6 2,18 0,25 -3,6 -5,1 -5,-13 z"
       id="path23" />
    <path
       d="m 1315,4100 c -3,-5 -1,-10 4,-10 6,0 11,5 11,10 0,6 -2,10 -4,10 -3,0 -8,-4 -11,-10 z"
       id="path24" />
    <path
       d="m 2912,3918 c 3,-7 19,-14 37,-16 24,-3 32,0 29,10 -3,7 -19,14 -37,16 -24,3 -32,0 -29,-10 z"
       id="path25" />
    <path
       d="m 3265,3881 c -49,-17 -105,-30 -123,-30 -26,-1 -33,-5 -30,-18 5,-25 66,-21 168,11 44,14 98,26 119,26 102,0 286,-54 378,-111 66,-41 92,-144 54,-217 -40,-78 -161,-184 -244,-215 -9,-4 -22,-18 -27,-31 -9,-24 -50,-55 -50,-38 0,5 -30,-1 -67,-13 -59,-19 -88,-22 -140,-16 -6,0 -18,8 -27,16 -8,8 -17,11 -20,6 -4,-5 -39,-2 -83,8 -98,22 -215,93 -240,146 -15,32 -15,39 0,92 9,32 19,74 22,95 3,20 30,87 61,149 49,100 53,114 40,127 -14,14 -16,13 -21,-4 -4,-10 -28,-66 -55,-124 -27,-58 -54,-125 -60,-150 -6,-25 -18,-68 -27,-97 -16,-49 -16,-54 2,-93 23,-50 64,-87 147,-133 79,-44 156,-58 330,-60 75,-1 135,-3 133,-5 -1,-1 -55,-18 -120,-37 -130,-38 -190,-43 -236,-19 -40,20 -112,11 -107,-14 7,-38 139,-53 262,-31 81,14 216,56 293,91 35,15 71,28 81,28 11,0 48,26 83,58 35,32 79,68 97,81 17,12 32,28 32,35 0,8 7,20 16,27 15,12 15,10 1,-24 -25,-59 -31,-121 -13,-136 13,-11 16,-7 21,26 17,97 60,183 94,183 15,0 18,7 16,48 -1,42 4,56 53,127 30,44 61,88 69,97 18,20 9,38 -17,38 -12,0 -26,-13 -36,-32 -34,-66 -146,-213 -162,-213 -11,0 -16,-8 -15,-20 2,-22 -132,-168 -182,-199 -51,-32 -176,-86 -169,-73 17,29 43,52 104,87 68,40 137,106 183,176 56,84 41,203 -33,266 -42,36 -160,90 -245,113 -30,8 -92,16 -138,20 -73,4 -92,2 -172,-24 z"
       id="path26" />
    <path
       d="m 3290,3674 c -41,-18 -105,-77 -126,-116 -20,-38 -17,-82 5,-102 11,-10 25,-32 31,-49 24,-63 33,-75 69,-91 42,-18 95,-22 166,-11 54,8 105,30 105,45 0,5 9,12 21,15 20,7 21,13 17,93 -5,114 -23,151 -96,197 -46,28 -66,35 -107,35 -27,-1 -66,-8 -85,-16 z m 160,-40 c 22,-15 40,-27 40,-28 0,0 -19,-2 -42,-3 -22,0 -50,-5 -62,-11 -12,-5 -39,-14 -62,-19 -35,-8 -45,-6 -65,9 -26,22 -23,25 46,58 55,27 98,25 145,-6 z m -212,-87 c 9,-3 2,-5 -16,-6 -31,-1 -32,0 -20,22 10,18 13,19 16,5 2,-9 11,-19 20,-21 z m 300,-64 -3,-46 -72,-36 c -40,-20 -75,-44 -78,-53 -10,-30 -69,-23 -120,15 -46,34 -69,72 -80,131 -7,36 -7,36 28,36 20,0 38,-4 42,-10 3,-5 12,-7 20,-3 9,3 22,0 29,-7 11,-9 21,-8 45,4 16,9 37,16 45,16 8,0 16,5 18,10 2,6 17,13 33,15 17,2 31,4 33,6 1,1 6,2 11,3 5,0 13,5 17,9 15,14 35,-43 32,-90 z m -228,51 c 0,-2 -7,-4 -15,-4 -8,0 -15,4 -15,10 0,5 7,7 15,4 8,-4 15,-8 15,-10 z m 228,-136 c -2,-13 -9,-22 -17,-20 -7,1 -18,-4 -25,-12 -14,-20 -96,-34 -96,-17 0,7 4,10 9,7 5,-3 14,1 21,9 7,8 19,15 27,15 8,0 26,9 40,20 33,26 45,25 41,-2 z"
       id="path27" />
    <path
       d="m 3481,3496 c -13,-16 -5,-46 13,-46 18,0 36,21 36,42 0,22 -32,24 -49,4 z"
       id="path28" />
    <path
       d="m 2011,3539 c -26,-34 -23,-46 8,-29 13,6 21,21 21,35 0,31 0,31 -29,-6 z"
       id="path29" />
    <path
       d="m 3247,3292 c 23,-9 45,-20 49,-24 10,-11 132,-10 138,1 3,5 -21,7 -54,5 -43,-2 -70,3 -99,17 -22,10 -48,19 -58,18 -10,0 1,-8 24,-17 z"
       id="path30" />
    <path
       d="m 5100,2981 c 0,-46 6,-83 16,-102 8,-17 17,-29 19,-27 5,6 -20,187 -28,194 -4,4 -7,-25 -7,-65 z"
       id="path31" />
    <path
       d="m 3680,2875 c -10,-11 -10,-19 -2,-27 15,-15 44,-2 40,19 -4,23 -22,27 -38,8 z"
       id="path32" />
    <path
       d="m 3597,2668 c -54,-51 -87,-128 -97,-222 -14,-132 -22,-169 -41,-202 -37,-61 -16,-75 24,-16 25,36 47,142 47,227 0,55 39,144 81,186 61,61 48,85 -14,27 z"
       id="path33" />
    <path
       d="m 1173,2607 c 9,-61 36,-138 57,-162 34,-39 39,-56 69,-250 6,-41 24,-51 29,-17 5,34 -38,225 -58,256 -33,52 -52,98 -64,159 -7,37 -15,57 -25,57 -10,0 -12,-10 -8,-43 z"
       id="path34" />
    <path
       d="m 4182,2588 c -16,-16 -15,-38 2,-38 17,0 27,22 17,38 -5,9 -10,9 -19,0 z"
       id="path35" />
    <path
       d="m 4199,2505 c -4,-5 -13,-30 -20,-55 -11,-40 -13,-42 -18,-20 -14,51 -22,-2 -22,-142 -1,-79 -2,-179 -2,-223 -2,-71 2,-87 28,-140 17,-33 31,-62 33,-65 1,-3 -10,-6 -24,-5 -15,0 -29,-6 -31,-12 -3,-8 4,-13 16,-13 20,0 21,-6 21,-79 0,-90 23,-214 46,-249 9,-13 31,-30 50,-38 39,-16 54,-46 54,-103 0,-60 -17,-67 -96,-41 -61,21 -68,21 -76,6 -6,-10 -22,-16 -46,-16 -21,0 -47,-7 -59,-15 -19,-14 -21,-13 -27,9 -9,35 -40,41 -86,17 -22,-11 -46,-18 -54,-15 -20,8 -28,-10 -12,-31 12,-16 15,-16 61,8 51,28 65,27 65,-3 0,-53 24,-63 60,-25 16,17 34,25 57,25 19,0 43,5 54,11 15,8 33,6 72,-7 59,-21 77,-20 95,4 7,9 23,17 35,17 23,0 24,3 13,48 -5,23 -3,27 14,27 11,0 36,18 56,40 20,22 42,40 49,40 19,0 105,69 105,84 0,7 -16,-2 -36,-21 -20,-18 -50,-40 -68,-47 -17,-7 -46,-29 -63,-50 -55,-62 -66,-47 -31,42 17,42 37,84 45,93 14,17 17,39 5,39 -21,0 -42,-31 -68,-97 -29,-77 -38,-86 -49,-52 -4,11 -26,29 -50,39 -33,14 -45,26 -54,52 -22,70 -30,129 -32,232 -1,95 -4,114 -27,157 -31,62 -38,124 -21,220 7,40 12,92 11,114 -1,21 7,74 19,116 19,69 24,149 8,124 z"
       id="path36" />
    <path
       d="m 2448,2354 c -40,-17 -78,-78 -78,-127 0,-45 17,-39 25,8 3,25 14,53 24,63 10,9 21,25 24,35 4,9 14,17 24,17 10,0 25,5 33,10 24,16 -8,12 -52,-6 z"
       id="path37" />
    <path
       d="m 3280,2199 c 0,-18 2,-19 15,-9 8,7 15,16 15,21 0,5 -7,9 -15,9 -9,0 -15,-9 -15,-21 z"
       id="path38" />
    <path
       d="m 3570,2200 c 0,-5 7,-10 16,-10 8,0 12,5 9,10 -3,6 -10,10 -16,10 -5,0 -9,-4 -9,-10 z"
       id="path39" />
    <path
       d="m 3310,2055 c -6,-8 -8,-20 -4,-26 5,-9 11,-7 21,6 23,33 9,51 -17,20 z"
       id="path40" />
    <path
       d="m 4713,1729 c -56,-91 -71,-108 -109,-124 -25,-10 -34,-20 -33,-37 0,-19 2,-20 7,-5 4,9 23,25 42,35 34,17 59,49 114,145 40,69 23,58 -21,-14 z"
       id="path41" />
    <path
       d="m 1898,1773 c 7,-3 16,-2 19,1 4,3 -2,6 -13,5 -11,0 -14,-3 -6,-6 z"
       id="path42" />
    <path
       d="m 2033,1725 c -3,-9 -3,-18 -1,-21 3,-3 8,4 11,16 6,23 -1,27 -10,5 z"
       id="path43" />
    <path
       d="m 3317,1733 c -4,-3 -7,-11 -7,-17 0,-6 5,-5 12,2 6,6 9,14 7,17 -3,3 -9,2 -12,-2 z"
       id="path44" />
    <path
       d="m 1933,1715 c -3,-9 -3,-18 -1,-21 3,-3 8,4 11,16 6,23 -1,27 -10,5 z"
       id="path45" />
    <path
       d="m 2530,1710 c -9,-6 -10,-10 -3,-10 6,0 15,5 18,10 8,12 4,12 -15,0 z"
       id="path46" />
    <path
       d="m 2880,1689 c 0,-5 5,-7 10,-4 6,4 20,-14 31,-40 11,-26 23,-44 26,-42 10,10 -36,97 -51,97 -9,0 -16,-5 -16,-11 z"
       id="path47" />
    <path
       d="m 1454,1619 c -11,-23 -13,-34 -5,-42 8,-8 11,-5 11,9 0,11 7,30 16,42 8,12 10,22 5,22 -6,0 -18,-14 -27,-31 z"
       id="path48" />
    <path
       d="m 2825,1604 c -48,-35 -85,-54 -132,-68 -18,-6 -23,-3 -23,9 0,16 -2,16 -25,1 -25,-16 -28,-16 -59,4 -19,11 -40,27 -47,36 -20,24 -77,44 -128,44 -52,0 -143,-24 -178,-46 -20,-12 -31,-11 -99,11 -92,30 -114,31 -193,6 -58,-18 -161,-83 -161,-102 0,-16 -37,-10 -63,11 -17,13 -24,26 -20,37 5,13 1,15 -21,9 -18,-4 -47,0 -82,14 -30,11 -59,20 -65,20 -21,0 2,-19 37,-30 19,-7 51,-27 72,-45 40,-37 57,-39 26,-3 l -19,22 25,-17 c 14,-9 36,-23 50,-31 33,-17 117,-28 125,-16 8,14 78,12 150,-3 64,-14 111,-13 186,4 25,6 97,9 160,8 63,-1 161,1 218,4 89,6 109,10 141,32 20,14 40,25 45,25 12,0 135,84 135,93 0,11 -1,10 -55,-29 z m -362,-16 c 5,-18 8,-19 22,-8 13,11 20,9 43,-12 15,-14 37,-32 50,-40 21,-14 18,-15 -55,-23 -180,-17 -713,-21 -713,-5 0,3 22,20 48,38 50,34 127,62 169,62 35,0 176,-49 189,-66 13,-17 38,-19 28,-3 -5,9 1,10 20,5 32,-8 36,11 4,23 -23,9 -22,9 7,21 57,23 80,28 131,29 45,1 52,-2 57,-21 z"
       id="path49" />
    <path
       d="m 1341,1552 c -6,-12 -11,-27 -11,-34 1,-7 8,0 16,15 9,16 13,31 11,34 -3,2 -10,-4 -16,-15 z"
       id="path50" />
    <path
       d="m 3517,1485 c -15,-30 -23,-55 -19,-55 4,0 20,25 35,55 15,30 23,55 19,55 -4,0 -20,-25 -35,-55 z"
       id="path51" />
    <path
       d="m 1721,1351 c -2,-109 -1,-110 25,-128 25,-16 27,-16 40,2 22,29 16,94 -14,164 -40,96 -49,89 -51,-38 z m 48,-68 c 1,-18 -3,-33 -9,-33 -5,0 -10,24 -9,53 0,38 3,47 9,32 5,-11 9,-35 9,-52 z"
       id="path52" />
    <path
       d="m 2503,1420 c -45,-21 -106,-54 -135,-73 -90,-60 -128,-68 -128,-26 0,11 -4,17 -10,14 -5,-3 -10,-17 -10,-31 0,-22 -3,-24 -52,-24 -65,0 -200,33 -242,59 -17,11 -42,31 -55,45 -24,26 -81,37 -81,16 0,-5 10,-10 23,-10 13,0 36,-13 52,-30 87,-90 325,-128 450,-70 28,13 55,22 61,21 7,-1 14,5 17,13 8,20 67,56 150,90 37,16 67,32 67,37 0,16 -23,9 -107,-31 z"
       id="path53" />
    <path
       d="m 3247,1333 c -7,-6 11,-33 22,-33 4,0 7,9 7,20 0,19 -16,27 -29,13 z"
       id="path54" />
    <path
       d="m 3857,1024 c -19,-19 -4,-30 46,-31 74,-1 242,-45 317,-83 93,-47 175,-132 284,-293 105,-157 169,-228 187,-210 9,9 -1,25 -38,65 -28,29 -92,115 -142,190 -141,211 -234,283 -431,332 -108,27 -212,41 -223,30 z"
       id="path55" />
    <path
       d="m 1950,997 c 74,-50 134,-69 153,-50 11,10 -137,73 -173,73 -8,0 1,-10 20,-23 z"
       id="path56" />
    <path
       d="m 3697,978 c -19,-24 -42,-58 -51,-75 -9,-18 -27,-35 -40,-39 -14,-3 -32,-14 -42,-25 -9,-10 -30,-19 -45,-19 -44,0 -80,-20 -129,-70 -42,-44 -51,-48 -142,-69 -54,-12 -98,-26 -98,-31 0,-5 -7,-7 -15,-4 -13,5 -13,8 -2,18 19,16 50,67 44,73 -3,2 -13,-8 -23,-24 -25,-39 -44,-53 -74,-53 -46,0 -115,99 -108,156 2,24 13,34 58,56 30,15 48,27 40,27 -8,0 -35,-10 -60,-22 -39,-19 -45,-27 -48,-57 -6,-68 54,-164 107,-172 34,-4 38,-26 7,-33 -14,-3 -37,-7 -51,-10 -37,-8 -91,-61 -130,-127 -40,-68 -40,-67 -19,-159 10,-44 21,-69 29,-69 22,0 24,12 10,72 -16,68 -7,120 31,179 30,47 77,79 120,79 16,0 40,9 52,20 l 21,20 19,-28 c 10,-15 29,-47 41,-72 13,-25 41,-64 64,-87 32,-34 47,-42 71,-40 26,2 31,8 37,36 4,18 12,38 18,44 14,14 14,47 1,47 -15,0 -50,-61 -50,-87 0,-13 -4,-23 -8,-23 -11,0 -63,57 -92,100 -13,19 -27,37 -30,40 -3,3 -17,20 -29,39 -17,23 -20,35 -12,40 6,4 52,15 102,26 91,18 109,29 153,90 17,24 17,25 44,-50 13,-36 18,-61 12,-63 -11,-4 -43,-62 -54,-99 -14,-45 20,-24 44,27 13,28 29,50 37,50 18,0 16,24 -9,98 -18,54 -19,65 -7,73 28,17 75,10 100,-17 34,-36 87,-67 104,-60 8,3 36,-1 62,-9 60,-18 83,-19 83,-1 0,13 -64,35 -150,51 -43,8 -76,29 -90,55 -9,17 -6,21 23,34 22,9 40,26 52,52 10,22 33,56 52,77 31,34 36,57 13,57 -5,0 -24,-19 -43,-42 z"
       id="path57" />
    <path
       d="m 3930,916 c 0,-26 22,-76 34,-76 23,0 23,10 4,50 -20,40 -38,52 -38,26 z"
       id="path58" />
    <path
       d="m 3780,835 c 0,-8 5,-15 11,-15 5,0 26,-11 45,-24 32,-21 34,-25 18,-34 -17,-9 -16,-12 1,-48 69,-146 158,-319 165,-322 27,-10 13,33 -50,158 -39,77 -66,140 -61,140 11,0 116,-86 145,-119 20,-22 46,-28 46,-10 0,6 -25,35 -56,64 -38,37 -48,52 -33,48 21,-6 22,-4 15,37 -4,27 -16,52 -34,69 -15,14 -35,37 -45,50 -9,14 -20,22 -23,18 -4,-3 1,-17 10,-29 9,-13 23,-33 32,-45 35,-48 5,-41 -71,17 -80,60 -115,74 -115,45 z m 150,-111 c 0,-2 -11,2 -25,8 -14,6 -25,15 -25,20 0,5 11,1 25,-8 14,-9 25,-18 25,-20 z"
       id="path59" />
    <path
       d="m 3390,425 c 0,-20 13,-59 28,-88 15,-28 36,-71 45,-95 10,-25 23,-42 30,-39 18,6 10,32 -34,121 -21,43 -39,91 -39,107 0,19 -5,29 -15,29 -10,0 -15,-11 -15,-35 z"
       id="path60" />
  </g>
</svg>
