<?xml version="1.0" encoding="UTF-8" standalone="no"?>
<svg
   version="1.0"
   width="508.92245pt"
   height="556.64679pt"
   viewBox="0 0 508.92245 556.64679"
   preserveAspectRatio="xMidYMid"
   id="svg20"
   sodipodi:docname="speak.svg"
   inkscape:version="1.3 (0e150ed, 2023-07-21)"
   xmlns:inkscape="http://www.inkscape.org/namespaces/inkscape"
   xmlns:sodipodi="http://sodipodi.sourceforge.net/DTD/sodipodi-0.dtd"
   xmlns="http://www.w3.org/2000/svg"
   xmlns:svg="http://www.w3.org/2000/svg">
  <defs
     id="defs20">
    <inkscape:path-effect
       effect="powerstroke"
       id="path-effect38"
       is_visible="true"
       lpeversion="1.3"
       scale_width="1"
       interpolator_type="CentripetalCatmullRom"
       interpolator_beta="0.75"
       start_linecap_type="round"
       end_linecap_type="round"
       offset_points="9.4571228,17.413985"
       linejoin_type="spiro"
       miter_limit="4"
       not_jump="true"
       sort_points="true"
       message="&lt;b&gt;Ctrl + click&lt;/b&gt; on existing node and move it" />
    <inkscape:path-effect
       effect="simplify"
       id="path-effect37"
       is_visible="true"
       lpeversion="1.3"
       threshold="0.012"
       steps="1"
       smooth_angles="0"
       helper_size="0"
       simplify_individual_paths="false"
       simplify_just_coalesce="false"
       step="1" />
    <inkscape:path-effect
       effect="powerstroke"
       id="path-effect36"
       is_visible="true"
       lpeversion="1.3"
       scale_width="1"
       interpolator_type="CentripetalCatmullRom"
       interpolator_beta="0.75"
       start_linecap_type="round"
       end_linecap_type="round"
       offset_points="1.3808907,17.413985"
       linejoin_type="spiro"
       miter_limit="4"
       not_jump="true"
       sort_points="true"
       message="&lt;b&gt;Ctrl + click&lt;/b&gt; on existing node and move it" />
    <inkscape:path-effect
       effect="simplify"
       id="path-effect35"
       is_visible="true"
       lpeversion="1.3"
       threshold="0.012"
       steps="1"
       smooth_angles="0"
       helper_size="0"
       simplify_individual_paths="false"
       simplify_just_coalesce="false"
       step="1" />
    <inkscape:path-effect
       effect="powerstroke"
       id="path-effect34"
       is_visible="true"
       lpeversion="1.3"
       scale_width="1"
       interpolator_type="CentripetalCatmullRom"
       interpolator_beta="0.75"
       start_linecap_type="round"
       end_linecap_type="round"
       offset_points="10.941328,17.413985"
       linejoin_type="spiro"
       miter_limit="4"
       not_jump="true"
       sort_points="true"
       message="&lt;b&gt;Ctrl + click&lt;/b&gt; on existing node and move it" />
    <inkscape:path-effect
       effect="simplify"
       id="path-effect33"
       is_visible="true"
       lpeversion="1.3"
       threshold="0.012"
       steps="1"
       smooth_angles="0"
       helper_size="0"
       simplify_individual_paths="false"
       simplify_just_coalesce="false"
       step="1" />
    <inkscape:path-effect
       effect="powerstroke"
       id="path-effect32"
       is_visible="true"
       lpeversion="1.3"
       scale_width="1"
       interpolator_type="CentripetalCatmullRom"
       interpolator_beta="0.75"
       start_linecap_type="round"
       end_linecap_type="round"
       offset_points="9.86038,17.413985"
       linejoin_type="spiro"
       miter_limit="4"
       not_jump="true"
       sort_points="true"
       message="&lt;b&gt;Ctrl + click&lt;/b&gt; on existing node and move it" />
    <inkscape:path-effect
       effect="simplify"
       id="path-effect31"
       is_visible="true"
       lpeversion="1.3"
       threshold="0.012"
       steps="1"
       smooth_angles="0"
       helper_size="0"
       simplify_individual_paths="false"
       simplify_just_coalesce="false"
       step="1" />
    <inkscape:path-effect
       effect="powerstroke"
       id="path-effect30"
       is_visible="true"
       lpeversion="1.3"
       scale_width="1"
       interpolator_type="CentripetalCatmullRom"
       interpolator_beta="0.75"
       start_linecap_type="round"
       end_linecap_type="round"
       offset_points="16.258769,17.413985"
       linejoin_type="spiro"
       miter_limit="4"
       not_jump="true"
       sort_points="true"
       message="&lt;b&gt;Ctrl + click&lt;/b&gt; on existing node and move it" />
    <inkscape:path-effect
       effect="simplify"
       id="path-effect29"
       is_visible="true"
       lpeversion="1.3"
       threshold="0.012"
       steps="1"
       smooth_angles="0"
       helper_size="0"
       simplify_individual_paths="false"
       simplify_just_coalesce="false"
       step="1" />
    <inkscape:path-effect
       effect="powerstroke"
       id="path-effect28"
       is_visible="true"
       lpeversion="1.3"
       scale_width="1"
       interpolator_type="CentripetalCatmullRom"
       interpolator_beta="0.75"
       start_linecap_type="round"
       end_linecap_type="round"
       offset_points="4.2598512,17.413985"
       linejoin_type="spiro"
       miter_limit="4"
       not_jump="true"
       sort_points="true"
       message="&lt;b&gt;Ctrl + click&lt;/b&gt; on existing node and move it" />
    <inkscape:path-effect
       effect="simplify"
       id="path-effect27"
       is_visible="true"
       lpeversion="1.3"
       threshold="0.012"
       steps="1"
       smooth_angles="0"
       helper_size="0"
       simplify_individual_paths="false"
       simplify_just_coalesce="false"
       step="1" />
    <inkscape:path-effect
       effect="powerstroke"
       id="path-effect26"
       is_visible="true"
       lpeversion="1.3"
       scale_width="1"
       interpolator_type="CentripetalCatmullRom"
       interpolator_beta="0.75"
       start_linecap_type="round"
       end_linecap_type="round"
       offset_points="4.4484487,17.413985"
       linejoin_type="spiro"
       miter_limit="4"
       not_jump="true"
       sort_points="true"
       message="&lt;b&gt;Ctrl + click&lt;/b&gt; on existing node and move it" />
    <inkscape:path-effect
       effect="simplify"
       id="path-effect25"
       is_visible="true"
       lpeversion="1.3"
       threshold="0.012"
       steps="1"
       smooth_angles="0"
       helper_size="0"
       simplify_individual_paths="false"
       simplify_just_coalesce="false"
       step="1" />
    <inkscape:path-effect
       effect="spiro"
       id="path-effect22"
       is_visible="true"
       lpeversion="1" />
    <inkscape:path-effect
       effect="spiro"
       id="path-effect21"
       is_visible="true"
       lpeversion="1" />
    <inkscape:path-effect
       effect="powerstroke"
       id="path-effect2"
       is_visible="true"
       lpeversion="1.3"
       scale_width="1"
       interpolator_type="CentripetalCatmullRom"
       interpolator_beta="0.75"
       start_linecap_type="round"
       end_linecap_type="round"
       offset_points="5.4075492,17.413985"
       linejoin_type="spiro"
       miter_limit="4"
       not_jump="true"
       sort_points="true"
       message="&lt;b&gt;Ctrl + click&lt;/b&gt; on existing node and move it" />
    <inkscape:path-effect
       effect="simplify"
       id="path-effect1"
       is_visible="true"
       lpeversion="1.3"
       threshold="0.012"
       steps="1"
       smooth_angles="0"
       helper_size="0"
       simplify_individual_paths="false"
       simplify_just_coalesce="false"
       step="1" />
  </defs>
  <sodipodi:namedview
     id="namedview20"
     pagecolor="#ffffff"
     bordercolor="#000000"
     borderopacity="0.25"
     inkscape:showpageshadow="2"
     inkscape:pageopacity="0.0"
     inkscape:pagecheckerboard="0"
     inkscape:deskcolor="#d1d1d1"
     inkscape:document-units="pt"
     inkscape:zoom="0.83328723"
     inkscape:cx="288.01593"
     inkscape:cy="477.02639"
     inkscape:window-width="1312"
     inkscape:window-height="816"
     inkscape:window-x="0"
     inkscape:window-y="25"
     inkscape:window-maximized="0"
     inkscape:current-layer="g20" />
  <g
     transform="matrix(0.1,0,0,-0.1,-17.537232,569.14682)"
     fill="#000000"
     stroke="none"
     id="g20">
    <path
       d="m 3180,5689 c -30,-4 -126,-12 -213,-19 -87,-6 -188,-20 -225,-30 -51,-13 -97,-17 -192,-15 -103,2 -132,-1 -165,-16 -22,-10 -54,-19 -71,-19 -17,0 -55,-13 -85,-29 -30,-15 -79,-36 -109,-45 -55,-16 -82,-35 -252,-185 -129,-112 -180,-156 -197,-165 -9,-5 -52,-44 -96,-86 -44,-42 -98,-87 -120,-98 -22,-11 -60,-42 -85,-67 -24,-26 -57,-49 -73,-52 -31,-6 -52,-43 -42,-73 6,-18 -83,-180 -158,-288 -49,-71 -74,-127 -88,-198 -12,-60 -8,-101 10,-90 4,3 11,26 14,51 10,66 53,168 102,239 23,33 57,88 76,121 18,33 45,78 60,100 19,29 25,49 22,71 -4,27 -1,32 21,38 14,3 54,33 90,66 35,33 69,60 76,60 7,0 51,38 99,84 47,46 94,88 104,93 24,12 196,157 296,248 42,39 88,75 101,81 69,31 190,77 225,86 22,6 63,18 90,27 39,14 77,17 170,15 79,-1 139,3 175,12 53,14 129,24 350,43 137,13 386,3 401,-15 6,-8 29,-19 50,-24 28,-8 46,-21 63,-48 30,-48 43,-58 86,-67 19,-4 49,-16 66,-26 17,-10 58,-27 91,-37 34,-11 74,-28 90,-39 15,-11 39,-24 53,-28 14,-4 36,-14 48,-22 13,-8 39,-20 57,-26 39,-14 129,-96 150,-138 17,-32 43,-49 75,-49 12,0 24,-9 29,-22 5,-13 18,-31 29,-42 12,-10 26,-35 33,-55 7,-21 31,-53 59,-78 26,-23 53,-56 60,-73 7,-17 19,-29 27,-28 9,2 25,-10 37,-25 19,-26 21,-39 19,-155 -2,-70 -8,-150 -15,-178 -9,-43 -9,-59 6,-103 16,-50 16,-52 -5,-81 -21,-28 -21,-31 -6,-48 13,-14 17,-38 17,-105 0,-49 -4,-87 -10,-87 -5,0 -30,13 -56,30 -26,16 -62,34 -81,41 -41,13 -43,29 -2,29 26,0 30,3 27,23 -2,18 -11,23 -48,28 -142,20 -236,47 -295,87 -33,22 -71,52 -85,67 -14,15 -54,42 -90,60 -68,33 -144,74 -182,98 -13,8 -55,17 -95,20 -55,4 -81,12 -112,33 -39,25 -46,44 -15,44 31,0 7,88 -37,135 -10,11 -42,43 -70,70 -28,28 -67,74 -86,103 -31,47 -39,52 -71,52 -35,1 -60,8 -202,62 -30,12 -89,25 -130,29 -41,4 -88,10 -104,14 -27,7 -94,-3 -181,-28 -22,-6 -56,-10 -76,-8 -26,2 -49,-5 -78,-23 -22,-14 -50,-26 -61,-26 -33,0 -122,-45 -150,-75 -14,-15 -38,-33 -53,-42 -34,-17 -100,-116 -122,-184 -14,-40 -14,-53 -4,-65 7,-9 8,-18 3,-23 -5,-5 -61,-19 -124,-30 -63,-12 -155,-35 -205,-51 -49,-16 -160,-45 -245,-66 -321,-76 -419,-128 -589,-307 -52,-55 -54,-59 -37,-75 16,-16 20,-14 78,46 33,34 64,62 68,62 5,0 6,-34 3,-75 -5,-66 -4,-75 11,-75 23,0 36,40 36,110 0,32 4,61 10,65 5,3 7,12 4,19 -6,14 55,61 109,84 38,16 45,15 57,-8 9,-16 0,-30 -60,-97 -74,-82 -93,-119 -69,-134 10,-7 21,0 39,23 14,18 48,58 77,88 28,31 57,68 63,84 12,32 5,66 -13,66 -31,1 53,32 159,59 66,16 130,33 143,37 23,7 24,6 18,-37 -17,-128 -28,-175 -48,-191 -13,-11 -18,-24 -14,-37 4,-13 -3,-26 -25,-45 -18,-14 -36,-26 -41,-26 -5,0 -27,19 -48,42 -30,32 -46,41 -69,40 -69,-2 -160,-80 -230,-197 l -42,-70 v 37 c 0,20 5,40 10,43 6,3 10,15 10,26 0,14 -7,19 -25,19 -39,0 -48,-31 -40,-131 l 6,-88 -42,-60 c -24,-34 -47,-57 -51,-53 -5,5 -21,46 -37,93 -30,86 -53,109 -59,55 -4,-29 1,-43 45,-152 l 25,-61 -21,-34 c -12,-19 -21,-42 -21,-52 0,-23 28,-33 50,-19 14,8 21,8 28,-1 19,-24 102,-259 95,-271 -3,-6 -26,-40 -51,-75 l -45,-64 -23,44 c -15,29 -25,72 -29,127 -4,45 -12,85 -17,88 -14,9 -38,-16 -38,-40 0,-19 -2,-18 -24,9 l -24,30 -7,-27 c -5,-21 1,-41 31,-89 32,-54 38,-73 46,-153 4,-50 9,-116 9,-146 0,-30 3,-152 6,-270 7,-288 -17,-526 -72,-705 -22,-73 -20,-97 7,-93 15,2 24,12 29,33 50,220 72,343 81,465 l 12,145 12,-55 c 75,-327 84,-384 91,-590 4,-144 1,-204 -16,-340 -37,-288 -36,-283 -60,-298 -11,-8 -21,-23 -21,-34 0,-11 -8,-33 -17,-49 -14,-24 -15,-33 -5,-49 15,-24 15,-55 1,-137 -7,-39 -16,-63 -24,-63 -19,0 -93,64 -132,116 -79,103 -145,302 -177,533 -21,145 -20,153 3,116 52,-84 135,-112 247,-84 37,10 45,16 43,33 -1,11 2,30 6,40 6,15 2,24 -21,40 -122,88 -182,242 -204,521 -13,171 17,1028 38,1086 7,17 17,24 37,24 33,0 42,17 20,38 -8,9 -15,20 -15,25 0,16 36,42 69,48 41,9 39,38 -4,42 -62,5 -114,-55 -166,-193 -29,-78 -43,-82 -34,-9 19,161 36,228 69,279 18,27 43,69 54,92 12,22 33,50 47,61 14,11 25,27 25,36 0,24 -32,19 -64,-10 l -28,-27 7,24 c 9,31 77,145 109,184 20,23 32,29 58,27 42,-2 63,11 54,33 -5,13 -9,15 -20,6 -8,-7 -25,-9 -38,-6 -18,5 -33,-1 -55,-19 -17,-14 -37,-26 -45,-26 -21,0 -95,-80 -113,-122 -19,-48 -19,-78 0,-78 12,0 13,-4 6,-19 -6,-10 -15,-40 -21,-67 -6,-27 -21,-69 -34,-94 -15,-27 -30,-86 -40,-150 -25,-156 -24,-152 -49,-148 -18,2 -23,11 -25,41 -2,21 2,62 8,90 10,48 9,53 -10,69 -11,9 -20,21 -20,28 0,33 96,184 111,174 10,-6 39,13 39,25 0,3 -4,12 -9,20 -13,21 -40,0 -91,-70 -25,-34 -57,-74 -71,-90 -29,-31 -65,-143 -75,-234 -4,-33 -23,-96 -41,-140 -19,-44 -46,-107 -60,-140 -13,-33 -30,-73 -38,-90 -60,-137 -122,-409 -146,-650 -18,-175 -18,-866 -1,-1035 39,-374 84,-513 184,-563 52,-25 156,-41 174,-26 17,14 17,14 34,-31 39,-101 138,-326 177,-403 53,-103 69,-123 88,-107 11,9 0,37 -52,142 -74,149 -211,478 -282,677 -135,378 -171,672 -141,1156 17,275 39,391 86,461 26,37 26,64 0,64 -24,0 -74,-88 -90,-158 -42,-186 -66,-634 -47,-872 19,-247 88,-529 195,-795 20,-49 36,-93 36,-97 0,-7 -54,-1 -112,13 -114,29 -158,138 -200,504 -18,151 -18,960 0,1105 38,311 105,541 247,845 13,28 29,63 35,79 l 11,30 19,-31 c 12,-20 30,-34 49,-38 17,-4 31,-10 31,-15 0,-4 -8,-74 -17,-156 -14,-122 -17,-250 -17,-699 -1,-518 0,-559 22,-715 51,-369 125,-575 249,-691 73,-68 94,-80 128,-71 27,7 32,15 47,73 9,35 17,77 17,92 1,15 10,40 20,55 11,15 22,50 26,77 3,28 15,79 25,115 11,36 31,128 46,205 24,125 27,163 27,355 1,226 -9,323 -57,575 -31,163 -55,254 -101,378 -27,77 -35,113 -35,168 v 69 l 36,-40 c 20,-22 40,-40 45,-40 5,0 0,25 -12,55 l -20,54 48,65 c 33,45 50,60 55,51 4,-7 17,-60 28,-118 l 20,-105 -21,-53 c -15,-40 -19,-65 -14,-96 3,-24 10,-43 14,-43 5,0 14,21 20,46 7,26 14,45 16,43 2,-2 17,-66 34,-142 17,-76 39,-162 49,-192 11,-30 17,-55 15,-55 -2,0 -17,7 -33,15 -22,11 -35,31 -52,77 -22,60 -23,62 -29,33 -10,-46 -10,-100 0,-110 17,-17 61,-201 76,-312 8,-59 20,-249 26,-421 12,-341 5,-450 -30,-500 -31,-44 -146,-533 -133,-570 3,-10 32,-18 32,-8 0,18 56,278 82,379 24,92 36,126 46,122 7,-2 15,3 18,13 3,9 11,28 17,41 9,17 12,135 12,400 0,400 -8,516 -50,693 -24,106 -24,107 32,92 39,-11 80,-127 103,-299 6,-44 22,-126 36,-183 31,-130 32,-224 6,-322 -11,-41 -28,-124 -37,-185 -10,-60 -30,-162 -45,-225 -16,-68 -28,-148 -29,-195 -1,-44 -9,-125 -18,-180 -21,-133 -22,-160 -3,-160 19,0 43,115 59,277 6,61 14,114 18,117 5,3 8,24 9,46 0,22 16,114 35,205 l 34,165 3,-165 c 4,-206 -4,-296 -24,-279 -25,21 -42,3 -48,-53 -3,-29 -7,-131 -10,-225 -4,-160 -3,-173 13,-173 14,0 20,15 29,78 7,42 12,103 12,135 0,50 3,60 19,64 22,6 24,12 46,167 12,81 15,185 15,413 -1,281 1,340 14,302 56,-163 77,-257 96,-429 9,-78 19,-122 42,-170 24,-52 31,-82 33,-150 6,-127 15,-186 30,-206 13,-17 16,-17 25,-4 5,8 11,19 13,23 1,5 51,-39 110,-97 93,-91 111,-105 132,-100 17,4 25,2 25,-7 0,-18 51,-92 87,-127 15,-16 44,-49 63,-74 24,-32 49,-52 80,-64 65,-24 69,-30 72,-92 2,-43 7,-57 18,-57 11,0 16,14 18,57 l 3,58 h 63 c 35,0 108,-9 161,-20 108,-22 163,-25 215,-10 20,5 87,14 150,19 63,6 124,11 135,13 13,2 20,-4 23,-17 8,-52 13,-65 26,-65 20,0 23,17 15,69 -9,58 2,77 78,127 32,21 90,70 129,109 129,127 231,213 264,220 17,4 34,13 37,21 3,7 20,23 39,35 20,12 45,41 59,68 22,44 26,47 54,43 l 31,-4 v 61 c 0,52 4,67 32,106 17,25 34,45 38,45 9,0 42,-197 36,-217 -13,-45 -14,-99 -7,-248 l 8,-160 44,-79 c 41,-74 48,-81 105,-107 33,-15 65,-33 71,-41 6,-7 20,-42 30,-78 12,-41 24,-65 34,-65 22,0 15,82 -12,145 -23,53 -23,53 -3,69 23,19 29,62 27,188 -2,133 -39,273 -87,331 -19,22 -24,44 -29,120 -6,88 -20,163 -53,297 -8,33 -13,73 -12,90 4,40 -27,47 -44,10 -10,-22 -6,-46 21,-156 24,-96 34,-162 38,-251 6,-110 8,-121 27,-129 47,-22 101,-226 94,-354 -2,-41 -8,-79 -13,-84 -6,-6 -35,-13 -66,-17 l -55,-6 -36,68 c -36,69 -36,69 -41,229 -3,95 -1,179 5,206 9,36 7,62 -7,125 -10,43 -19,106 -21,139 -5,75 -33,217 -45,230 -13,13 -11,44 5,96 7,24 28,90 45,147 18,56 36,102 42,102 10,0 94,-127 157,-239 41,-72 42,-75 42,-170 0,-93 28,-289 52,-361 6,-19 24,-59 41,-88 16,-29 38,-84 47,-121 18,-67 56,-157 70,-166 4,-3 13,2 20,10 11,13 9,24 -8,63 -12,26 -29,74 -37,107 -9,33 -34,96 -56,141 -32,65 -44,107 -64,224 -27,152 -30,190 -17,190 14,0 83,-133 95,-183 l 11,-49 19,37 c 12,25 16,47 12,68 -4,22 -3,27 4,17 8,-14 34,-133 45,-212 5,-43 105,-227 123,-228 37,-1 27,45 -27,129 -35,55 -43,77 -60,178 -11,63 -23,119 -26,125 -17,27 -26,97 -32,248 -7,164 -7,165 -31,168 l -23,4 5,-159 c 4,-87 9,-174 12,-193 l 5,-35 -17,35 c -13,27 -18,72 -21,198 -4,149 -2,177 23,300 15,76 29,139 31,141 3,3 17,-8 33,-23 24,-23 28,-34 24,-60 -3,-22 5,-53 32,-110 38,-82 126,-322 151,-411 12,-43 11,-72 -1,-210 -8,-88 -16,-169 -17,-180 -2,-14 3,-20 16,-20 15,0 22,12 32,55 7,30 13,73 14,95 1,89 17,59 51,-93 32,-144 37,-157 58,-160 22,-4 23,-2 15,40 -10,59 -10,64 19,139 25,63 103,401 126,541 77,468 85,556 78,806 -10,340 -71,648 -173,869 l -36,77 23,17 c 14,10 20,22 16,33 -8,20 -36,21 -43,1 -9,-23 -18,-18 -38,20 -16,29 -17,37 -5,51 12,14 10,19 -10,35 -30,25 -70,34 -83,21 -8,-8 10,-48 60,-139 86,-154 106,-199 138,-306 70,-231 104,-476 104,-750 0,-201 -12,-326 -60,-623 -42,-258 -119,-606 -139,-627 -4,-4 -23,48 -42,115 -36,131 -41,213 -20,336 6,31 18,131 27,222 21,207 15,640 -11,760 -9,41 -18,98 -21,125 -8,82 -13,95 -33,95 -25,0 -31,56 -31,303 0,165 2,197 14,197 25,0 29,21 9,48 -28,39 -37,93 -50,324 l -4,87 44,-45 c 24,-24 49,-44 56,-44 21,0 11,38 -20,71 -39,41 -49,68 -49,125 0,36 -3,44 -19,44 -22,0 -31,26 -31,91 0,29 -6,51 -15,59 -17,14 -20,80 -4,80 7,0 9,-9 6,-23 -8,-28 0,-40 38,-60 55,-28 75,-55 75,-97 0,-43 21,-55 38,-24 8,15 13,14 45,-10 111,-85 277,-480 331,-793 26,-144 39,-504 27,-733 -11,-199 -36,-529 -46,-600 -3,-19 -14,-164 -25,-322 -18,-261 -27,-340 -46,-405 -7,-24 20,-44 36,-27 20,21 42,188 60,463 11,163 29,388 40,500 65,645 39,1103 -83,1456 -15,45 -22,84 -19,108 3,31 1,36 -11,31 -12,-4 -23,10 -45,58 l -29,63 20,22 c 23,26 19,69 -14,114 -11,16 -16,29 -10,29 6,0 15,-9 21,-20 6,-11 17,-20 25,-20 48,0 -136,210 -213,244 -36,16 -42,23 -38,42 5,17 0,24 -23,33 -26,11 -29,18 -34,78 -5,53 -18,89 -62,178 -77,154 -87,234 -20,153 54,-65 106,-118 117,-118 5,0 -4,16 -21,35 -21,25 -31,46 -31,69 0,19 -7,39 -15,46 -11,9 -12,16 -5,25 13,15 4,41 -17,49 -10,4 -14,17 -11,43 3,33 -1,40 -29,58 -27,17 -32,26 -33,60 -1,65 -16,125 -39,156 -11,15 -21,39 -21,53 0,31 -16,42 -28,20 -7,-13 -17,-8 -60,34 -28,28 -59,69 -68,91 -9,23 -20,41 -25,41 -5,0 -20,18 -34,40 -17,27 -32,40 -48,40 -29,0 -41,9 -60,45 -19,36 -121,135 -140,135 -8,0 -35,11 -61,25 -26,14 -52,25 -58,25 -6,0 -32,13 -57,29 -25,16 -66,35 -91,41 -25,7 -63,22 -85,35 -22,12 -57,26 -78,29 -31,6 -43,15 -65,51 -24,41 -56,65 -86,65 -7,0 -21,9 -31,20 -16,17 -30,20 -119,19 -56,0 -114,4 -131,8 -16,5 -55,6 -85,2 z m -222,-656 c 64,-4 72,-6 60,-20 -15,-19 -12,-147 5,-175 17,-27 92,-22 92,7 0,13 -8,21 -22,23 -31,5 -53,39 -53,83 0,62 31,69 117,25 17,-9 60,-22 95,-28 60,-10 98,-30 98,-51 0,-5 18,-31 40,-57 l 40,-47 -58,-6 c -66,-7 -102,-1 -102,18 0,8 -6,26 -14,42 -8,15 -18,41 -23,57 -4,16 -14,31 -21,34 -18,6 -5,-76 17,-108 l 18,-25 h -156 c -92,0 -159,4 -163,10 -4,6 -8,51 -8,102 0,91 -9,118 -33,94 -8,-8 -12,-48 -11,-111 l 1,-99 -46,6 c -25,3 -47,6 -48,7 -7,5 22,155 33,174 13,20 13,23 -1,29 -26,9 -33,-6 -53,-117 -14,-82 -21,-104 -33,-100 -7,2 -41,5 -74,6 -33,1 -74,5 -91,9 -26,6 -37,2 -66,-24 -39,-34 -55,-38 -81,-18 -16,11 -16,18 -6,67 6,30 18,59 25,63 8,4 14,19 14,31 0,20 6,25 38,28 20,3 39,4 41,2 2,-2 -6,-29 -18,-60 -24,-65 -26,-74 -8,-74 12,0 57,93 57,118 0,7 7,15 15,18 8,4 15,15 15,26 0,17 4,19 27,13 16,-4 29,-8 30,-9 1,-1 0,-26 -4,-55 -4,-35 -14,-63 -30,-82 -24,-29 -24,-49 2,-49 7,0 27,16 43,35 26,28 31,43 30,82 -1,73 15,103 54,104 18,1 44,5 58,9 14,5 39,6 55,3 17,-3 63,-7 103,-10 z m -593,-210 c -11,-65 -13,-68 -34,-49 -10,9 -23,16 -29,14 -9,-3 -12,1 -12,20 0,4 16,14 35,21 19,7 35,17 35,22 0,5 2,9 5,9 3,0 3,-17 0,-37 z m 654,-87 c 5,-3 22,-1 40,4 50,14 248,-4 271,-25 16,-14 30,-16 70,-11 42,6 56,3 80,-14 39,-28 38,-38 -6,-56 -32,-14 -38,-13 -61,1 -19,13 -31,14 -51,7 -50,-19 -87,-24 -192,-27 -58,-1 -132,-7 -165,-13 -99,-18 -408,-25 -530,-13 -60,7 -122,11 -136,11 -15,0 -32,7 -39,15 -7,8 -20,15 -30,15 -26,0 -28,7 -17,50 7,25 18,41 31,44 33,9 94,7 100,-3 10,-16 135,-24 152,-10 11,9 58,12 162,11 106,-1 154,3 172,12 23,13 129,14 149,2 z m 174,-180 c 16,-4 27,-2 27,4 0,5 16,10 35,10 23,0 35,-5 35,-14 0,-16 43,-30 48,-16 6,17 31,11 42,-10 16,-31 40,-25 40,10 0,26 2,28 22,21 13,-5 23,-14 23,-22 0,-8 4,-29 9,-47 5,-22 4,-38 -4,-48 -10,-11 -10,-18 2,-32 17,-18 18,-26 42,-170 9,-51 20,-101 26,-112 8,-15 8,-20 -2,-20 -7,0 -1,-11 15,-24 15,-13 27,-27 27,-32 0,-4 -5,-3 -12,4 -17,17 -80,15 -128,-4 -27,-11 -54,-14 -80,-10 -34,5 -44,2 -74,-24 -19,-17 -56,-37 -83,-45 -76,-23 -142,-95 -86,-95 8,0 28,9 44,21 16,11 45,25 63,30 19,5 50,23 71,39 31,25 44,29 75,24 26,-4 51,0 89,16 l 52,23 50,-23 c 27,-13 55,-30 61,-37 15,-19 58,-16 96,7 25,15 50,20 107,20 42,0 84,5 95,12 17,11 24,8 49,-16 25,-24 35,-27 65,-22 50,10 120,-23 134,-63 6,-16 22,-37 36,-46 43,-28 35,-67 -21,-110 -57,-43 -87,-52 -127,-35 -17,7 -59,16 -94,21 -35,5 -77,12 -95,17 -18,5 -63,5 -102,1 -38,-5 -113,-6 -165,-3 -52,3 -131,1 -175,-4 -75,-9 -81,-8 -96,11 -14,17 -20,19 -49,8 -44,-15 -85,-14 -99,2 -6,8 -14,28 -17,46 -7,35 -29,50 -45,34 -14,-14 5,-83 31,-111 17,-17 32,-22 75,-22 39,0 56,-4 63,-16 8,-14 20,-14 107,-5 54,6 100,10 102,8 11,-12 -136,-47 -197,-47 -54,0 -71,-4 -78,-17 -7,-12 -28,-18 -72,-21 -47,-3 -64,-9 -67,-21 -4,-15 -24,-17 -176,-15 l -172,1 -16,27 c -10,17 -19,23 -23,17 -10,-16 -42,-13 -79,6 l -32,17 40,8 c 25,6 59,25 89,52 l 48,42 -13,59 c -19,86 -38,102 -142,122 -77,15 -94,15 -145,3 -31,-7 -95,-15 -142,-17 -47,-2 -95,-9 -107,-15 -20,-10 -25,-8 -44,15 -19,25 -26,27 -104,27 -59,0 -86,4 -94,14 -29,34 -100,26 -132,-16 -16,-20 -17,-20 -62,-3 -76,29 -210,-1 -279,-63 -14,-11 -21,-12 -32,-3 -17,14 -43,5 -57,-21 -14,-26 9,-128 30,-135 9,-2 55,-23 103,-46 87,-41 88,-41 139,-28 70,18 88,0 24,-24 -25,-10 -57,-32 -70,-49 l -24,-30 -48,26 c -31,16 -72,28 -116,32 -99,10 -117,-3 -189,-139 -51,-97 -51,-96 -63,125 -13,225 -16,206 48,291 61,82 66,93 40,107 -14,8 -10,17 31,60 26,28 63,58 83,67 l 35,17 42,-41 c 53,-52 87,-54 156,-8 40,26 49,36 45,55 -3,12 1,35 9,51 15,28 32,111 43,203 5,43 8,48 37,54 17,3 44,13 59,21 16,8 31,12 35,9 3,-4 -9,-42 -27,-85 -23,-57 -33,-98 -35,-143 -2,-57 -6,-70 -44,-123 -46,-64 -51,-82 -25,-92 11,-4 22,1 32,17 9,14 33,47 53,74 35,46 37,55 37,115 0,52 6,83 31,144 23,57 28,82 21,91 -13,15 -4,26 20,26 16,0 18,-10 15,-117 -4,-108 -7,-124 -36,-185 -17,-37 -32,-81 -32,-97 -1,-29 -4,-31 -38,-31 -42,0 -58,-21 -34,-41 13,-10 30,-10 85,-1 38,7 87,12 110,12 37,0 39,2 29,20 -8,16 -21,20 -60,20 -62,0 -62,3 -14,121 31,76 35,96 29,136 -3,27 -2,59 4,73 5,14 10,18 10,10 1,-8 10,-32 21,-53 11,-20 20,-45 20,-55 0,-29 29,-62 54,-62 22,0 24,4 24,49 0,51 15,91 35,91 20,0 86,60 113,101 19,30 31,39 52,39 15,0 32,4 38,9 5,5 48,4 99,-1 50,-5 136,-8 193,-5 56,2 102,0 102,-5 0,-4 9,-8 20,-8 11,0 20,5 20,10 0,7 7,7 21,0 15,-9 28,-9 48,0 15,6 73,12 129,13 76,1 103,5 107,15 5,14 41,13 108,-2 z m -1036,-43 c -24,-17 -47,-47 -65,-86 l -28,-60 -17,36 c -9,19 -17,51 -17,70 0,28 5,36 28,45 37,15 61,19 102,21 l 35,1 z m 1419,-4 c 21,-16 44,-43 51,-60 6,-16 34,-52 60,-80 26,-28 60,-65 76,-81 15,-16 27,-37 27,-45 0,-14 16,-15 120,-11 l 121,5 62,-67 c 40,-43 87,-80 132,-105 83,-46 159,-120 199,-196 16,-29 39,-65 52,-79 28,-31 49,-111 31,-122 -24,-15 -103,-21 -211,-15 -154,8 -158,10 -91,59 63,45 75,63 75,113 0,29 -7,44 -34,69 -18,17 -37,41 -41,54 -4,15 -29,34 -73,56 -56,28 -72,32 -95,24 -23,-8 -31,-7 -42,8 -8,11 -15,30 -15,43 0,29 -26,50 -63,51 -16,0 -62,-16 -102,-36 -62,-30 -81,-35 -112,-29 -55,10 -103,35 -103,53 0,8 -6,23 -14,31 -7,9 -18,52 -25,96 -13,94 -36,228 -46,268 -10,37 11,36 61,-4 z m 1094,21 c 0,-5 -4,-10 -10,-10 -5,0 -10,5 -10,10 0,6 5,10 10,10 6,0 10,-4 10,-10 z m -839,-96 c 46,-26 102,-55 124,-65 41,-18 95,-62 95,-76 0,-4 -48,-10 -106,-11 l -106,-4 -89,94 c -49,51 -89,96 -89,101 0,4 20,7 44,7 33,0 63,-11 127,-46 z m 897,-340 -3,-46 -38,26 c -41,28 -42,28 -20,-31 3,-7 -2,-13 -11,-13 -13,0 -16,13 -16,80 0,69 3,83 22,102 l 21,21 24,-47 c 17,-34 23,-60 21,-92 z m -512,80 c 33,-26 35,-26 54,-9 30,27 83,13 101,-27 11,-24 33,-41 94,-73 44,-23 95,-50 113,-61 l 33,-19 -7,-75 c -10,-107 -7,-150 12,-171 20,-22 20,-21 -22,-42 l -32,-16 -11,58 c -21,108 -167,285 -300,364 -68,41 -121,89 -121,111 0,10 51,-14 86,-40 z m -306,-109 c -7,-8 -24,-15 -39,-15 -25,1 -25,1 -7,15 11,8 29,15 39,15 16,0 17,-3 7,-15 z m -246,-41 c 9,-3 14,-10 11,-15 -7,-10 -35,0 -35,12 0,11 3,11 24,3 z M 1943,3923 c 13,-13 43,-19 105,-23 83,-5 87,-6 100,-32 15,-32 28,-35 62,-11 18,13 55,20 130,24 58,4 124,10 146,14 23,4 74,2 113,-5 77,-13 93,-26 106,-86 5,-29 2,-34 -37,-63 -38,-28 -47,-30 -89,-25 -38,5 -57,2 -94,-16 -44,-21 -52,-22 -244,-15 -130,5 -210,4 -232,-3 -19,-6 -70,-13 -114,-17 -77,-6 -82,-5 -110,19 -33,29 -62,32 -111,14 -30,-11 -40,-8 -121,29 -69,33 -89,47 -94,67 -6,23 -4,26 16,26 13,0 36,11 52,24 45,38 85,54 149,61 50,6 68,4 100,-13 45,-22 64,-18 94,21 25,31 46,34 73,10 z M 809,3832 c -22,-44 -29,-51 -29,-29 0,15 39,81 45,75 3,-2 -5,-23 -16,-46 z m 4095,9 c 23,-25 15,-27 -19,-5 -29,19 -44,50 -17,35 9,-5 26,-19 36,-30 z M 1143,3673 c 12,-130 20,-303 14,-303 -3,0 -28,59 -56,131 l -51,130 35,55 c 19,30 39,54 43,54 5,0 12,-30 15,-67 z m 2794,26 c 35,-6 63,-15 63,-19 0,-5 3,-16 6,-25 7,-18 -6,-17 -121,6 -80,17 -83,19 -55,34 31,18 29,17 107,4 z m -292,-18 c -6,-5 -30,-11 -55,-15 l -45,-5 40,14 c 48,16 73,19 60,6 z m 995,-156 c 0,-74 -3,-135 -7,-135 -16,1 -51,37 -67,70 -22,47 -36,63 -69,85 -21,14 -31,15 -40,6 -9,-9 -9,-16 0,-30 10,-16 8,-20 -14,-24 -32,-6 -73,11 -73,29 0,8 -14,21 -31,29 -49,26 -31,39 62,46 46,3 94,9 107,13 21,7 22,4 22,-38 0,-25 5,-48 10,-51 21,-13 40,17 40,65 0,39 4,49 23,58 12,6 25,11 30,11 4,1 7,-60 7,-134 z m -3236,10 c 21,-21 34,-25 88,-25 35,0 69,-4 77,-9 11,-7 13,-37 8,-157 -4,-109 -2,-160 8,-189 7,-22 16,-55 20,-73 4,-18 18,-45 31,-61 13,-16 31,-46 40,-68 21,-49 43,-73 133,-142 41,-31 85,-64 98,-75 13,-10 56,-25 94,-32 39,-7 94,-24 122,-37 43,-19 63,-22 117,-17 58,4 65,7 70,29 6,27 39,44 57,29 7,-5 26,-7 43,-3 27,6 30,10 25,33 -6,32 24,57 56,47 14,-5 29,3 52,28 18,19 44,41 59,48 49,25 186,186 223,263 38,76 39,87 20,217 -8,52 1,65 39,55 26,-6 34,-44 42,-191 6,-118 20,-183 68,-308 76,-198 84,-232 90,-372 8,-166 1,-182 -100,-213 -38,-11 -89,-23 -114,-26 -25,-3 -64,-8 -88,-12 -41,-6 -44,-5 -87,40 -25,25 -49,46 -55,46 -5,0 -10,-15 -10,-34 0,-26 8,-41 35,-65 44,-38 72,-46 138,-36 29,4 77,11 107,15 121,16 185,51 220,119 17,32 4,303 -16,346 -8,17 -22,60 -33,95 -10,36 -33,98 -50,138 -34,77 -49,147 -55,249 -2,34 -11,76 -20,94 -9,18 -16,49 -16,71 0,36 2,38 30,38 24,0 31,-5 36,-27 4,-15 2,-45 -4,-67 -6,-23 -7,-45 -3,-51 5,-5 11,-27 14,-47 3,-20 16,-64 28,-98 19,-53 34,-72 127,-158 89,-82 115,-100 171,-120 101,-35 104,-35 198,-17 233,44 389,119 450,213 18,28 38,52 42,52 24,0 213,205 242,261 36,72 44,69 155,-43 54,-55 83,-89 64,-76 -19,14 -54,35 -77,47 -24,12 -43,26 -43,32 0,6 -12,9 -27,7 -50,-6 -36,-38 33,-76 34,-19 87,-57 118,-85 l 56,-52 -32,-55 -33,-55 -5,85 c -4,72 -8,85 -23,88 -12,3 -20,-4 -24,-17 -3,-12 -11,-21 -17,-21 -18,0 -50,-48 -74,-112 -17,-46 -22,-82 -23,-185 -1,-70 1,-144 5,-163 5,-28 -1,-52 -30,-115 -75,-166 -124,-296 -144,-380 -11,-48 -33,-117 -49,-154 -16,-36 -35,-86 -42,-111 -7,-25 -19,-52 -26,-61 -8,-9 -13,-27 -11,-40 3,-23 -30,-134 -112,-379 -37,-109 -60,-234 -60,-324 0,-61 -74,-205 -131,-254 -24,-21 -57,-42 -74,-46 -16,-4 -51,-29 -77,-56 -25,-26 -68,-66 -95,-87 -26,-21 -69,-61 -96,-89 -26,-29 -67,-64 -90,-80 -23,-16 -64,-47 -92,-70 -73,-60 -86,-65 -209,-74 -61,-5 -129,-14 -151,-19 -42,-11 -67,-9 -180,16 -63,13 -233,32 -339,36 -35,2 -44,8 -73,47 -19,25 -49,61 -67,80 -18,19 -48,59 -66,88 -24,37 -40,52 -56,52 -15,0 -31,14 -53,48 -17,27 -54,71 -82,97 -63,59 -113,162 -122,248 -3,31 -19,88 -36,125 -24,52 -35,101 -51,218 -23,171 -35,222 -86,367 -32,92 -35,109 -31,176 7,99 -6,211 -44,362 -57,232 -71,358 -50,468 12,58 -4,179 -27,211 -16,22 -82,156 -82,166 0,2 6,4 14,4 25,0 27,16 5,44 -13,16 -31,26 -47,26 -21,1 -37,15 -75,67 l -49,67 38,75 c 34,67 92,161 100,161 2,0 14,-11 28,-25 z m 3012,-100 c 32,-19 67,-35 78,-35 35,-1 53,-23 75,-94 26,-85 27,-100 4,-87 -36,19 -245,230 -239,240 11,16 18,14 82,-24 z M 1264,3211 c 20,-27 36,-54 36,-60 0,-22 -41,-92 -50,-86 -16,10 -45,195 -30,195 5,0 24,-22 44,-49 z m 3405,-49 c 0,-30 -2,-33 -9,-17 -12,28 -12,67 0,60 6,-3 10,-23 9,-43 z m -99,-4 c 0,-15 -15,-8 -28,12 -12,19 -11,20 8,8 11,-7 20,-16 20,-20 z M 711,2852 c -21,-524 -12,-734 40,-907 31,-104 65,-162 131,-228 32,-33 56,-62 53,-65 -3,-3 -34,-8 -69,-10 -163,-11 -189,64 -217,633 -13,255 -7,500 16,645 15,98 45,214 53,206 2,-3 -1,-126 -7,-274 z m 662,184 c 31,-63 32,-66 14,-66 -7,0 -32,-16 -55,-36 -44,-37 -44,-37 -56,18 -7,30 40,138 59,138 7,0 24,-24 38,-54 z m 3055,-47 c -4,-59 -21,-89 -51,-89 -13,0 -1,72 20,115 25,52 36,43 31,-26 z m 199,-6 c 25,-53 28,-68 28,-168 0,-80 -5,-124 -18,-161 -21,-60 -79,-121 -125,-130 l -32,-6 v 199 200 l 26,24 c 15,13 37,41 50,62 13,20 28,37 33,37 5,0 22,-26 38,-57 z M 1437,2797 c 5,-68 2,-96 -11,-131 -32,-83 -39,-78 -82,50 -35,106 -37,117 -21,125 9,6 17,18 17,27 1,16 1,16 11,0 14,-26 38,-22 51,7 18,39 28,16 35,-78 z m 2973,60 c 0,-14 -34,-114 -41,-121 -5,-6 -9,14 -9,51 0,50 3,62 18,66 24,7 32,7 32,4 z m 20,-192 c 0,-49 -3,-65 -14,-65 -30,0 -34,24 -13,78 11,28 21,52 23,52 2,0 4,-29 4,-65 z m -3403,13 c -3,-8 -6,-5 -6,6 -1,11 2,17 5,13 3,-3 4,-12 1,-19 z m 3668,-432 c 7,-35 9,-37 16,-17 5,12 12,78 15,146 4,68 10,122 14,120 38,-23 50,-733 17,-970 -10,-66 -22,-124 -27,-129 -7,-7 -10,-6 -10,2 0,19 -98,279 -125,333 -28,54 -31,79 -12,79 18,0 57,-38 57,-55 0,-29 19,-14 29,23 14,47 14,59 1,64 -14,4 -42,169 -38,221 2,33 7,43 23,45 29,6 45,21 38,38 -12,33 -86,6 -104,-38 -9,-23 -9,-48 0,-116 7,-48 15,-97 18,-109 9,-38 -18,-27 -71,26 l -49,50 -3,254 -3,255 47,12 c 36,9 59,24 97,64 l 50,53 6,-156 c 4,-86 10,-174 14,-195 z m -3241,195 c -8,-8 -21,13 -34,53 -10,31 -10,43 1,63 13,25 14,23 25,-43 7,-38 10,-71 8,-73 z m 2936,60 35,-19 12,-169 c 11,-161 8,-267 -7,-258 -4,2 -40,59 -81,127 -40,68 -78,126 -82,129 -5,4 -6,17 -2,30 13,41 77,179 84,179 3,-1 22,-9 41,-19 z M 1491,2314 c 37,-156 48,-213 54,-286 9,-96 -6,-104 -29,-15 -18,75 -52,251 -62,326 -10,80 16,63 37,-25 z m 2838,-190 c 57,-90 91,-155 91,-172 0,-32 -26,-182 -40,-232 -6,-19 -10,-108 -10,-197 0,-89 -4,-164 -9,-167 -5,-3 -14,9 -21,27 -6,17 -16,39 -21,47 -5,8 -22,34 -37,58 -15,24 -60,96 -101,160 -40,64 -78,124 -84,134 -13,19 8,94 61,228 18,46 38,107 43,134 12,63 29,126 34,126 2,0 45,-66 94,-146 z m -369,-859 12,-65 -33,-37 -32,-37 6,75 c 6,69 20,129 31,129 2,0 9,-29 16,-65 z"
       id="path2" />
    <path
       d="m 2542,4688 c -16,-16 -15,-33 4,-48 22,-19 54,12 38,37 -14,22 -27,26 -42,11 z"
       id="path3" />
    <path
       d="m 2336,4681 c -9,-14 4,-41 19,-41 21,0 28,19 15,35 -14,17 -26,19 -34,6 z"
       id="path4" />
    <path
       d="m 2795,4680 c -4,-7 -3,-16 3,-22 14,-14 45,-2 40,15 -6,16 -34,21 -43,7 z"
       id="path5" />
    <path
       d="m 3104,4679 c -10,-17 13,-36 27,-22 12,12 4,33 -11,33 -5,0 -12,-5 -16,-11 z"
       id="path6" />
    <path
       d="m 3888,2484 c -31,-16 -51,-50 -79,-132 -24,-69 -42,-214 -34,-265 6,-34 10,-38 33,-35 28,3 44,28 18,28 -23,0 -29,38 -17,121 17,126 48,209 92,251 22,21 39,40 39,43 0,9 -24,5 -52,-11 z"
       id="path7" />
    <path
       d="m 1958,2285 c -3,-4 0,-19 8,-34 17,-35 35,-201 33,-306 -2,-63 1,-80 12,-80 10,0 15,17 17,65 4,91 -15,295 -30,327 -13,27 -29,38 -40,28 z"
       id="path8" />
    <path
       d="m 2881,2062 c -13,-25 -14,-121 -2,-141 6,-9 10,17 13,70 2,46 3,86 2,87 -1,2 -7,-5 -13,-16 z"
       id="path9" />
    <path
       d="m 3189,1939 -43,-52 -13,31 c -7,17 -17,33 -23,37 -18,11 -48,-15 -80,-70 -17,-30 -35,-55 -39,-55 -3,0 -14,9 -24,20 -14,17 -24,20 -55,14 -20,-3 -46,-15 -58,-25 -26,-25 -37,-24 -22,0 10,17 9,23 -7,41 -12,13 -22,17 -28,11 -6,-6 -18,-4 -33,5 -39,26 -81,21 -119,-16 -32,-31 -55,-33 -55,-6 0,7 -9,21 -20,31 -29,26 -63,12 -97,-40 -31,-50 -38,-54 -46,-24 -4,15 -12,20 -29,17 -17,-2 -33,-22 -63,-80 -22,-42 -47,-79 -56,-81 -22,-6 -95,-159 -104,-217 -4,-25 -13,-64 -21,-88 -8,-23 -14,-71 -14,-106 0,-46 -4,-67 -16,-77 -11,-9 -14,-22 -10,-43 11,-54 14,-71 15,-78 1,-4 17,-15 37,-24 37,-18 37,-18 58,9 15,19 27,25 43,21 18,-5 26,2 47,44 14,27 32,52 40,55 8,3 21,30 30,61 9,30 21,58 26,61 6,3 10,15 10,26 0,15 5,18 23,14 30,-8 38,2 71,93 29,76 46,92 46,43 0,-37 10,-62 21,-55 5,3 9,18 9,34 0,34 41,59 86,53 23,-4 36,2 58,26 34,36 46,39 46,12 0,-31 24,-44 64,-33 39,11 46,8 46,-23 0,-13 9,-26 25,-33 21,-10 26,-9 35,8 12,22 53,36 129,44 44,4 58,2 80,-15 19,-15 34,-19 57,-14 23,4 33,1 38,-10 4,-12 10,-14 25,-5 11,5 29,10 41,10 14,0 24,8 28,23 5,14 9,-3 12,-48 4,-62 7,-70 26,-73 15,-2 24,-12 28,-33 4,-23 11,-29 31,-29 24,0 25,-2 25,-64 0,-44 5,-67 15,-76 10,-8 15,-31 15,-66 0,-29 5,-56 11,-59 5,-4 14,-18 19,-31 22,-56 75,-7 95,86 4,19 11,40 15,45 17,23 30,165 24,265 -12,216 -19,263 -47,315 -15,28 -27,62 -27,77 0,34 -30,45 -65,22 l -25,-16 v 45 c 0,57 -20,77 -48,49 -20,-20 -20,-20 -26,9 -9,46 -49,50 -91,9 l -34,-33 -7,29 c -17,70 -48,71 -105,3 z m 61,-58 c 0,-22 19,-41 42,-41 9,0 33,14 52,30 l 34,30 7,-39 c 9,-56 26,-76 52,-63 16,9 23,7 37,-10 12,-13 26,-19 42,-15 31,5 31,5 44,-79 6,-38 15,-70 21,-72 5,-2 9,-23 9,-47 0,-24 4,-55 9,-68 6,-15 6,-53 -1,-101 -8,-58 -7,-80 2,-91 16,-19 -1,-125 -19,-125 -12,0 -31,48 -31,79 0,16 -7,34 -15,41 -8,7 -15,27 -15,45 0,82 -18,133 -63,177 -24,24 -46,51 -50,61 -3,9 -18,22 -32,27 -17,7 -25,17 -25,34 0,23 -23,56 -39,56 -17,0 -40,-37 -49,-77 -5,-22 -21,-53 -35,-68 l -25,-28 -24,22 c -17,16 -31,21 -53,18 -16,-3 -60,-10 -97,-15 -36,-5 -71,-13 -77,-16 -5,-4 -21,5 -34,18 -21,21 -32,24 -61,19 -30,-5 -36,-3 -36,12 0,19 -27,55 -42,55 -4,0 -26,-16 -48,-36 -41,-37 -46,-35 -42,17 2,19 -26,29 -84,29 -29,0 -49,-7 -69,-24 -35,-30 -46,-25 -38,14 5,26 2,30 -16,30 -22,0 -41,-33 -41,-71 0,-11 -9,-33 -21,-48 -23,-31 -27,-60 -15,-103 6,-22 3,-32 -18,-53 -15,-15 -41,-62 -59,-106 -31,-73 -34,-77 -50,-62 -14,14 -18,14 -33,2 -9,-8 -23,-29 -31,-48 -10,-23 -18,-30 -25,-23 -10,10 -8,22 38,242 25,120 54,203 79,225 12,11 33,40 45,65 29,57 28,57 43,36 21,-28 49,-15 84,39 63,97 56,93 81,52 29,-50 63,-50 108,-1 46,48 72,44 102,-18 18,-40 27,-48 49,-48 17,0 39,12 59,31 35,34 64,34 64,1 0,-11 7,-25 15,-32 25,-20 61,3 97,61 28,44 33,48 39,31 17,-46 76,-32 120,29 21,30 39,30 39,0 z"
       id="path10" />
    <path
       d="m 3281,1224 c 0,-11 3,-14 6,-6 3,7 2,16 -1,19 -3,4 -6,-2 -5,-13 z"
       id="path12" />
    <path
       d="m 2860,925 c 1,-11 7,-31 15,-45 17,-30 19,-113 4,-141 -6,-11 -8,-25 -6,-32 7,-22 37,52 37,92 0,39 -24,115 -42,136 -5,5 -8,1 -8,-10 z"
       id="path13" />
    <path
       d="m 4737,5143 c -4,-3 -7,-11 -7,-17 0,-6 5,-5 12,2 6,6 9,14 7,17 -3,3 -9,2 -12,-2 z"
       id="path14" />
    <path
       d="m 2210,5130 c 0,-5 5,-10 10,-10 6,0 10,5 10,10 0,6 -4,10 -10,10 -5,0 -10,-4 -10,-10 z"
       id="path15" />
    <path
       d="m 4741,3736 c -9,-11 -9,-16 -1,-21 32,-20 210,-353 210,-393 0,-10 3,-22 7,-25 9,-9 43,23 43,40 0,33 -165,339 -208,386 -29,31 -35,32 -51,13 z"
       id="path16" />
    <path
       d="m 400,3570 c -11,-21 -4,-25 24,-14 9,3 16,12 16,20 0,21 -28,17 -40,-6 z"
       id="path17" />
    <path
       d="m 1619,1129 c -20,-20 -25,-62 -21,-209 1,-63 5,-78 23,-92 30,-25 38,-15 28,34 -10,51 -12,190 -3,212 4,11 13,14 29,10 30,-7 41,12 20,36 -25,28 -54,31 -76,9 z"
       id="path18" />
    <path
       d="m 1777,719 c -4,-21 -16,-48 -27,-62 -21,-26 -36,-90 -65,-262 -8,-54 -27,-125 -42,-157 -39,-87 -15,-124 31,-46 30,52 50,128 70,266 17,114 23,129 39,113 6,-6 15,-11 19,-11 12,0 10,48 -3,55 -6,4 -8,13 -6,19 3,7 2,37 -2,67 l -7,54 z"
       id="path19" />
    <path
       d="m 1321,299 c -24,-39 -26,-49 -8,-49 32,1 54,42 37,70 -6,10 -14,4 -29,-21 z"
       id="path20" />
    <path
       id="path-1"
       style="fill:#ffffff;fill-rule:nonzero;stroke:none;stroke-width:0.377953"
       d="m 3120.0305,1450.1743 c -2.8406,-0.01 -5.3646,-0.3938 -7.3681,-0.8204 -2.0433,-0.435 -3.8814,-0.985 -5.1563,-1.3769 -0.063,-0.019 -0.1274,-0.039 -0.1904,-0.059 -5.2518,-1.6802 -10.0707,-3.8137 -13.8281,-5.5518 -0.017,-0.01 -0.027,-0.021 -0.044,-0.029 -7.0699,-3.2983 -13.7689,-6.883 -19.3359,-9.9462 l -0.015,-0.015 c -6.18,-3.4117 -12.0701,-6.7942 -17.373,-9.917 -3.9657,-2.3353 -7.8744,-4.6843 -11.6895,-6.9873 h -0.015 c -17.4232,-10.5349 -35.3921,-21.8745 -51.2403,-31.7871 -6.1378,-3.8376 -11.9259,-7.4473 -17.5781,-10.9424 2.5202,-0.03 5.038,-0.072 7.5586,-0.1611 6.9135,-0.2715 13.8647,-0.9341 20.5225,-2.9151 6.6801,-1.8059 13.3343,-3.6914 19.9658,-5.6689 0.836,-0.2528 1.6688,-0.5224 2.5049,-0.7764 11.9084,7.4564 24.1259,15.09 36.2842,22.4414 3.7421,2.259 7.5443,4.5311 11.3671,6.7823 5.1167,3.0131 10.6971,6.2396 16.5088,9.4482 5.3386,2.9374 11.2379,6.0693 17.2559,8.877 h -0.029 c 1.6915,0.7822 3.331,1.5036 4.9365,2.1679 1.632,-4.1352 3.0019,-8.264 3.9111,-12.3926 v -0.015 c 1.1307,-5.1871 1.4798,-9.9983 0.8936,-14.2969 v -0.044 c -0.4501,-3.3618 -1.5747,-6.5619 -3.2666,-9.2725 -0.011,-0.018 -0.033,-0.041 -0.044,-0.059 -1.675,-2.7053 -4.116,-5.3429 -7.3096,-7.7783 -3.5142,-2.6822 -7.7164,-5.012 -12.5684,-7.0898 -5.9523,-2.5385 -12.4189,-4.516 -19.3652,-6.167 -5.3574,-1.265 -10.8522,-2.2715 -16.4502,-3.1348 9.5978,-3.482 19.0651,-7.291 28.2422,-11.792 7.5777,-3.4316 15.1925,-6.8016 22.7783,-10.2392 6.2541,2.7794 12.5874,6.2203 18.4863,10.7226 5.9459,4.5342 11.5019,10.2084 15.7764,17.0947 4.4909,7.1949 7.1702,15.1596 8.2324,23.0713 1.2864,9.4561 0.3359,18.5326 -1.3916,26.4405 v 0.029 c -2.3454,10.6606 -6.3098,20.4257 -10.4736,28.9892 l -0.249,0.4395 c -3e-4,0 -0.091,0.2248 -0.2051,0.4687 -0.2145,0.4587 -0.6436,1.3406 -1.2744,2.3584 -0.6479,1.0453 -1.589,2.3586 -2.9151,3.6768 -1.5246,1.5195 -3.1511,2.6719 -4.7314,3.5302 -1.6056,0.8721 -3.1466,1.4265 -4.4824,1.8018 -2.6355,0.7405 -4.9543,0.874 -6.3575,0.8936 -0.094,0 -0.1845,2e-4 -0.2783,0 z" />
    <path
       style="fill:#ffffff;stroke-width:0.37795276;stroke:none"
       d="m 376.14208,606.78065 21.90834,27.13133"
       id="path21"
       inkscape:path-effect="#path-effect21"
       inkscape:original-d="m 376.14208,606.78065 21.90834,27.13133" />
    <path
       style="fill:#ffffff;stroke-width:0.37795276;stroke:none"
       d="m 369.95045,582.01409 13.48677,1.31375"
       id="path22"
       inkscape:path-effect="#path-effect22"
       inkscape:original-d="m 369.95045,582.01409 13.48677,1.31375" />
    <path
       d="m 2580.4875,1215.9605 c 16.3731,-1.8788 39.3207,-3.8429 71.4327,-4.4764 28.2825,-0.5414 58.0437,0.045 90.9394,1.6542 41.307,2.0376 82.6338,5.4554 124.1056,9.4651 47.3043,4.576 100.7059,10.629 141.608,15.0722 14.2238,1.5392 26.6615,2.865 38.9229,4.1208 15.6179,1.5996 31.7437,3.1657 48.071,4.5723 0,4e-4 0.01,7e-4 0.012,10e-4 21.6787,1.8528 41.9094,3.2838 61.9196,4.039 11.0993,0.4126 19.1974,0.4927 24.6869,0.4932 a 17.413985,17.413985 90 0 0 0,-34.828 c -5.117,-5e-4 -12.7812,-0.075 -23.3868,-0.4688 -19.2404,-0.7261 -38.8709,-2.1091 -60.2515,-3.9363 -16.0823,-1.3856 -32.0097,-2.932 -47.5059,-4.5191 -12.1664,-1.2461 -24.5296,-2.5639 -38.7173,-4.0991 -40.6342,-4.4141 -94.4325,-10.5111 -142.0095,-15.1134 -41.7681,-4.0384 -83.6863,-7.51 -125.7494,-9.585 -33.5141,-1.6393 -64.085,-2.2494 -93.3199,-1.6896 -0,0 -0.01,10e-5 -0.01,2e-4 -33.2716,0.6562 -57.3177,2.6997 -74.7213,4.6967 a 17.413985,17.413985 90 0 0 3.9704,34.601 z"
       id="path-1-7"
       inkscape:path-effect="#path-effect25;#path-effect26"
       inkscape:original-d="m 2578.5023,1198.66 c 184.0407,-21.1876 464.7166,34.8279 603.6848,34.8279"
       style="fill:#010101;fill-rule:nonzero;stroke:none;stroke-width:0.377953;fill-opacity:1" />
    <path
       style="fill:#010101;stroke-width:0.37795276;fill-opacity:1;stroke:none"
       d="m 351.37553,597.49319 c 7.29691,0.44263 -1.82423,-5.91532 0,-7.73955 2.53066,-2.53066 8.23906,6.24154 0,7.73955 -4.68028,0.85096 -9.25091,-2.24486 -13.93119,-3.09582 -1.52294,-0.2769 -3.54919,1.09454 -4.64373,0 -2.38188,-2.38188 14.31483,-11.99964 17.02701,-9.28746 4.97249,4.97249 1.20389,12.64129 1.54791,12.38328 7.13922,-5.35442 7.57627,-14.66433 17.02701,-17.02701 1.50169,-0.37542 3.95148,-1.38449 4.64372,0 0.0652,0.1304 2.377,14.65001 1.54791,15.4791 -0.42884,0.42884 -8.73935,0.21924 -9.28745,0 -0.44399,-0.1776 -8.7163,-6.59723 -9.28746,-7.73955 -1.22619,-2.45238 2.28241,-4.72264 3.09582,-3.09582 2.19487,4.38975 4.14964,31.63886 -3.09582,34.05401 -6.82261,2.27421 -4.64373,-21.67073 -4.64373,-21.67073 z"
       id="path28" />
    <path
       style="fill:#010101;fill-opacity:1;stroke-width:2.83465"
       id="path39"
       d="m 2782.3131,1121.2384 c 26.5005,4.3968 53.4065,6.2268 80.2014,7.9294 3.2172,0.1747 6.4299,0.5715 9.6514,0.5235 6.6533,-0.1 -6.529,-1.0915 -9.1624,0.5325 -5.7732,3.5595 -12.7472,6.0662 -16.764,11.5312 -6.3626,8.6563 -8.8616,19.5737 -13.2924,29.3605 -2.4142,21.8827 11.9865,40.1331 27.1308,49.7774 -1.0309,-0.068 -4.1104,-0.3855 -3.0927,-0.207 14.6633,1.7152 1.5765,-0.2408 7.2998,1.2133 4.9504,1.2576 -4.3378,3.6979 0.9699,2.0679 -6.9524,19.8471 -3.1921,-27.7922 -4.2008,-44.0768 19.6601,-5.2381 -37.7546,-25.9495 -34.6947,-26.1851 8.7447,-0.6735 17.9952,0.1402 26.7607,0.1357 10.0715,-0.492 20.2321,0.4815 30.2987,-0.1215 5.0971,-0.3052 -7.5967,0.053 -12.8685,2.1606 -39.8603,23.9781 1.7787,55.0098 38.6247,101.3334 3.3937,4.2666 18.6523,-6.2076 23.4518,-9.2714 37.6141,-31.5326 17.1013,-83.9779 -22.2946,-94.6571 15.2856,0.3997 30.5787,0.3562 45.8683,0.3577 -20.1135,-3.8796 -32.0888,22.5006 -37.1582,36.8871 -1.6012,-9.8661 -1.2564,39.0477 2.7915,29.8947 9.4949,-21.4689 14.2316,-44.7663 20.0766,-67.5017 0.483,-1.8783 -5.9316,4.9992 -4.44,3.7598 5.0779,-4.2196 10.1166,-8.4861 15.1749,-12.7292 12.043,-7.7679 24.8906,-11.0076 38.7758,-13.2577 5.7272,-0.4687 11.4735,-0.4372 17.2136,-0.399 5.5077,0.045 11.0156,0.053 16.5233,0.06 9.3122,0.01 18.6243,0.01 27.9365,0.01 4.7139,123.5816 27.9307,113.385 -36.3079,113.3844 -13.1001,0 -26.2002,-10e-5 -39.3002,-10e-5 -8.9903,0 -17.9807,0 -26.9711,0 -17.6361,0 -35.2722,0 -52.9083,0 -20.8242,0 -41.6484,0 -62.4726,0 -9.1191,0 -18.2382,0 -27.3573,0 -14.4768,0 -28.9536,0 -43.4304,0 -16.9268,-0.7035 -8.5341,6.8854 22.6958,-8.4549 5.5808,-2.7414 9.4669,-8.1382 13.5097,-12.8621 2.1696,-2.535 7.0503,-11.292 4.9459,-8.7027 -5.5421,6.8187 -10.2084,14.3049 -15.3125,21.4574 -13.5956,11.8148 -28.5194,17.9196 -46.4565,19.807 -1.4221,0.087 -2.8442,0.174 -4.2662,0.2602 -80.0575,4.3445 -86.2016,-108.8739 -6.144,-113.2184 v 0 c 0.2145,0 0.429,0 0.6435,-0.01 -9.6438,2.8395 -14.7454,3.8603 -21.7963,10.8822 -3.884,5.9954 -6.7305,12.8084 -11.6519,17.9861 -3.2612,3.4311 3.6411,-8.8627 6.5383,-12.6062 13.9856,-18.0706 33.5778,-29.3729 57.2945,-27.9282 14.4768,0 28.9536,0 43.4304,0 9.1191,0 18.2382,0 27.3573,0 20.8242,0 41.6484,0 62.4726,0 17.6361,0 35.2722,0 52.9083,0 8.9904,0 17.9808,0 26.9712,0 13.1004,0 26.2007,10e-5 39.3011,2e-4 64.2397,6e-4 41.025,-10.1953 36.3016,113.3855 -9.3485,-5e-4 -18.6969,-7e-4 -28.0454,-0.01 -5.7247,-0.01 -11.4494,-0.015 -17.174,-0.06 -1.9965,-0.015 -4.2677,0 -6.152,-0.067 6.4651,-1.3332 7.8599,-1.1527 12.6624,-4.5539 3.2187,-3.0489 6.1685,-6.4098 9.6563,-9.1469 4.5508,-3.5713 -13.016,18.0332 -12.2429,12.3002 2.9236,-21.6789 7.2655,-43.479 15.3527,-63.8044 4.0414,-10.157 5.4874,43.917 3.4136,32.6164 -13.1534,39.827 -33.5191,51.6574 -74.3749,56.0041 -18.7122,0 -37.4469,0.1898 -56.1376,-0.8254 -13.5191,-1.7399 -16.8664,-1.3005 -31.3297,-8.8906 -36.1506,-18.9713 -38.898,-70.9588 -7.5979,-97.3637 5.496,-3.8859 26.831,-20.2675 31.8098,-14.9499 61.5967,65.7885 79.2247,78.1831 34.03,109.239 -23.4139,11.9697 -47.7963,14.4636 -73.7957,12.9889 -21.4991,0.01 -49.5259,3.3872 -68.4153,-9.1136 -8.4427,-5.5873 -14.478,-14.1555 -21.717,-21.2333 -5.174,-55.2886 -10.5453,-51.4791 18.4664,-89.3382 24.9959,-24.7632 55.5197,-44.0763 92.5032,-39.1749 39.4915,5.7468 70.5003,27.1814 72.0052,71.3376 -4.5984,11.9923 -6.6613,25.2966 -13.795,35.9769 -16.2136,24.2745 -51.0426,28.072 -76.9389,26.6412 -31.8246,-2.0497 -63.7725,-4.3014 -95.196,-9.8997 -78.6183,-15.7237 -56.3817,-126.9069 22.2366,-111.1832 z" />
    <path
       style="fill:#010101;stroke-width:2.83465"
       id="path1"
       d="m 2642.1036,1141.9675 c 23.8816,0 47.7631,0 71.6447,0 9.9466,0 19.8932,0 29.8398,0 6.7897,0 13.5795,0 20.3692,0 17.6637,1.3601 34.512,6.9306 51.6072,11.1828 2.5053,0.075 5.0269,0.42 7.546,0.543 3.5627,-0.7574 7.2845,-0.075 10.9268,-0.081 14.6929,-0.023 29.3859,-0.03 44.0788,-0.037 5.0315,0 10.0628,0 15.0943,0 5.3002,3e-4 10.6005,3e-4 15.9007,3e-4 13.0831,1e-4 26.1661,1e-4 39.2492,1e-4 5.4581,0 10.9162,0 16.3744,0 6.0759,0 12.1518,0 18.2277,0 12.4108,0 24.8216,0 37.2324,0 11.9802,0 23.9603,0 35.9405,0 4.396,0 8.7922,0 13.1883,0 14.5915,0.5003 24.1028,-5.0828 -24.2663,9.5198 -2.6377,1.9772 2.0529,-2.316 2.8527,-3.1161 16.4214,-13.0527 30.3879,-17.4732 49.5354,-18.0711 80.1485,-2.0717 83.0782,111.2755 2.9297,113.3471 v 0 c 10.9521,-2.8004 15.5797,-4.8298 27.9137,-15.3048 -5.1833,5.1941 -10.5312,10.2434 -16.3627,14.713 -24.4068,8.4937 -25.8798,12.7228 -42.6025,12.2971 -4.3961,0 -8.7923,0 -13.1883,0 -11.9802,0 -23.9603,0 -35.9405,0 -12.4108,0 -24.8216,0 -37.2324,0 -6.0759,0 -12.1518,0 -18.2277,0 -5.4582,0 -10.9163,0 -16.3744,0 -13.0834,0 -26.1668,0 -39.2501,-10e-5 -5.3015,0 -10.6029,0 -15.9043,-3e-4 -5.0182,-3e-4 -10.0363,4e-4 -15.0544,0 -14.6099,0 -29.2198,0.01 -43.8298,0.037 -5.5943,0.015 -11.1931,0.1238 -16.7853,-0.053 -9.859,-0.5205 -19.6982,-1.6354 -29.3502,-3.7613 -2.1539,-0.5363 -38.9859,-8.7038 -24.2289,-7.8278 -6.7897,0 -13.5795,0 -20.3692,0 -9.9466,0 -19.8932,0 -29.8398,0 -23.8816,0 -47.7631,0 -71.6447,0 -80.1753,0 -80.1753,-113.385 0,-113.385 z" />
    <circle
       id="path11"
       style="fill:#010101;stroke:#000000;stroke-width:7.5"
       cx="3066.0938"
       cy="-1187.0508"
       r="1.6567014"
       transform="scale(1,-1)" />
    <path
       style="fill:#010101;stroke-width:2.83465"
       id="path24"
       d="m 3076.9114,1147.7948 c 10.1256,0 20.2512,0 30.3768,0 4.5749,0 9.1496,0 13.7244,0 2.8728,0 5.7456,0 8.6184,0 -1.306,0.1253 5.4272,-0.1275 4.0749,0 -8.6693,0.8178 -12.3638,0.8845 -20.1342,4.3323 -44.7643,23.951 -29.9991,58.1647 -11.2199,92.751 2.8976,5.3365 10.6983,5.8492 15.5171,9.5442 3.5342,2.7101 -8.0098,-3.9457 -11.74,-6.3791 -0.4778,-0.327 -1.9392,-1.2633 -1.4334,-0.9813 2.5906,1.4443 5.0799,3.0683 7.6933,4.4713 2.3493,1.2611 25.5215,10.4309 -6.9359,-3.0742 5.5741,3.7632 -9.971,-6.1576 -7.4113,-4.7303 2.493,1.3902 4.7642,3.1721 7.3184,4.4464 4.6036,2.2967 9.2381,3.7066 14.2429,4.5589 -2.0519,0.038 -4.9336,-0.03 -7.2805,-0.03 -7.7562,0.01 -15.5123,0.015 -23.2685,0.015 -6.4518,0 -12.9036,0.01 -19.3555,0.01 -4.0167,4e-4 -8.0335,2e-4 -12.0503,10e-5 -9.7593,0 -19.5186,-10e-5 -29.278,-10e-5 -2.583,0 -5.1662,0 -7.7493,0 -1.0461,0 -2.0922,0 -3.1383,0 -9.9449,-0.4327 -19.8285,-1.7998 -29.7296,-2.7856 -19.1686,-2.3661 -38.4256,-3.8226 -57.5956,-6.1617 -7.0822,-0.8025 -14.1484,-1.8486 -21.262,-2.3485 -2.6673,0.037 -9.8435,-0.2715 -13.5446,-0.4523 -17.2283,-0.813 -34.2845,-3.3777 -51.3043,-6.0231 -5.1014,-0.7639 -10.1922,-1.692 -15.3437,-2.0538 -4.8759,0.102 -12.1215,0.053 -17.5244,0.06 -15.5026,0.2205 -30.9778,-0.9999 -46.4238,-2.173 -1.9276,-0.075 -6.9187,-0.6458 -8.1597,-0.6173 -7.2301,-0.4095 -14.3095,-1.8713 -21.4489,-2.9545 -3.714,-0.549 -0.045,0.023 1.6146,0.1072 -80.1407,-2.3532 -76.8128,-115.6893 3.3279,-113.3361 v 0 c 4.049,0.1373 8.0914,0.4575 12.09,1.1305 2.8185,0.429 21.5307,3.1615 6.8934,1.695 4.77,0.1425 9.5225,0.4935 14.2758,0.9166 12.5458,0.9544 25.1151,2.0539 37.7076,1.8469 8.8507,-0.01 17.7177,-0.2055 26.5581,0.291 7.9927,0.651 15.9366,1.7423 23.8479,3.0486 13.508,2.0996 27.027,4.2851 40.7071,4.8829 5.0313,0.5504 10.1296,0 15.1718,0.5617 8.8918,0.6817 17.7441,1.7818 26.5931,2.8735 18.3636,2.256 36.8218,3.5786 55.1813,5.8925 1.4324,0.1455 20.4511,1.7438 22.2427,2.3981 1.6265,0.594 -3.4615,-0.1088 -5.1914,-0.1831 -0.4387,-0.023 1.22,0.01 1.3167,0 1.0461,0 2.0922,0 3.1383,0 2.5832,0 5.1663,0 7.7496,0 9.7594,0 19.5189,10e-5 29.2784,10e-5 4.0108,1e-4 8.0215,3e-4 12.0322,-10e-5 6.4374,-9e-4 12.8749,0 19.3123,-0.01 7.8749,0 15.7497,-0.015 23.6245,-0.015 6.1237,0.015 12.2557,0.067 18.3604,0.6045 8.3457,1.0282 16.0773,2.5737 23.8042,6.2071 3.2051,1.5071 6.1036,3.5955 9.1813,5.3485 1.4386,0.8194 -9.1992,-5.8348 -4.2471,-2.5748 -27.7579,-10.9877 6.6217,1.418 9.4017,4.8625 -1.3054,-0.8111 -19.9895,-12.4533 -8.8081,-4.4844 5.138,3.6618 13.1233,4.2972 16.1849,9.8139 20.5032,36.9443 33.9467,69.0185 -12.0372,94.3582 -10.9617,5.0944 -22.5801,8.3373 -34.8269,7.7277 -2.8728,0 -5.7456,0 -8.6184,0 -4.5748,0 -9.1495,0 -13.7244,0 -10.1256,0 -20.2512,0 -30.3768,0 -80.1753,0 -80.1753,-113.385 0,-113.385 z" />
  </g>
</svg>
