<?xml version="1.0" encoding="UTF-8" standalone="no"?>
<!-- Created with Inkscape (http://www.inkscape.org/) -->

<svg
   width="67.039268mm"
   height="76.906052mm"
   viewBox="0 0 67.03927 76.906052"
   version="1.1"
   id="svg1"
   xml:space="preserve"
   inkscape:version="1.3 (0e150ed, 2023-07-21)"
   sodipodi:docname="laugh.svg"
   xmlns:inkscape="http://www.inkscape.org/namespaces/inkscape"
   xmlns:sodipodi="http://sodipodi.sourceforge.net/DTD/sodipodi-0.dtd"
   xmlns="http://www.w3.org/2000/svg"
   xmlns:svg="http://www.w3.org/2000/svg"><sodipodi:namedview
     id="namedview1"
     pagecolor="#ffffff"
     bordercolor="#000000"
     borderopacity="0.25"
     inkscape:showpageshadow="2"
     inkscape:pageopacity="0.0"
     inkscape:pagecheckerboard="0"
     inkscape:deskcolor="#d1d1d1"
     inkscape:document-units="mm"
     inkscape:zoom="0.92240536"
     inkscape:cx="123.58991"
     inkscape:cy="164.24449"
     inkscape:window-width="1312"
     inkscape:window-height="684"
     inkscape:window-x="0"
     inkscape:window-y="25"
     inkscape:window-maximized="0"
     inkscape:current-layer="layer1" /><defs
     id="defs1" /><g
     inkscape:label="Layer 1"
     inkscape:groupmode="layer"
     id="layer1"
     transform="translate(-71.765956,-108.97666)"><path
       style="fill:#000000"
       d="m 105.69864,185.79073 c -0.43656,-0.0327 -1.78594,-0.1753 -2.99861,-0.31696 -1.21268,-0.14166 -3.19705,-0.24015 -4.409724,-0.21885 -2.20133,0.0386 -2.208815,0.0374 -4.674305,-0.78767 -1.358195,-0.45451 -3.263194,-0.95932 -4.233333,-1.12181 -2.807478,-0.47021 -3.585939,-0.96579 -6.747032,-4.2953 -2.853358,-3.00537 -3.423615,-3.81025 -3.911077,-5.52017 -0.231333,-0.81148 -0.391652,-1.09874 -0.593284,-1.06308 -0.172445,0.0305 -0.297713,-0.1021 -0.333283,-0.35278 -0.04103,-0.2892 -0.192794,-0.41727 -0.54206,-0.45746 l -0.48507,-0.0558 v 1.26114 c 0,0.93002 -0.05789,1.24208 -0.220486,1.18855 -0.123229,-0.0406 -0.2442,-0.43608 -0.274248,-0.89665 -0.03335,-0.51118 -0.137155,-0.82405 -0.273402,-0.82405 -0.38403,0 -0.642975,0.40491 -0.642975,1.00541 0,0.75666 -0.282515,0.7414 -0.652884,-0.0353 -0.334972,-0.70244 -0.500364,-0.77158 -0.632946,-0.26458 -0.123287,0.47145 -0.588449,0.44776 -0.865937,-0.0441 -0.215467,-0.38192 -0.227328,-0.37173 -0.314886,0.27043 -0.05004,0.36701 -0.17036,0.66935 -0.267374,0.67187 -0.29839,0.008 -0.40494,-0.72281 -0.42686,-2.92667 -0.01158,-1.16417 -0.132503,-2.74919 -0.268719,-3.52228 -0.264149,-1.49917 -0.212865,-1.89825 0.177736,-1.38307 0.223987,0.29543 0.242458,0.28306 0.24765,-0.16583 0.008,-0.68817 0.356046,-0.6051 0.369568,0.0882 0.01025,0.52579 0.02456,0.53995 0.172725,0.17093 0.108474,-0.27016 0.0752,-0.73374 -0.101297,-1.41111 -0.342222,-1.31344 -0.547389,-4.35832 -0.303811,-4.50886 0.09968,-0.0616 0.260327,-0.0137 0.357002,0.10654 0.228058,0.28355 0.56825,1.90476 0.575119,2.74077 0.0043,0.52688 0.03987,0.59355 0.184268,0.34568 0.2878,-0.49403 0.252044,-2.77133 -0.06303,-4.01443 -0.341257,-1.34641 -0.412544,-3.35511 -0.108273,-3.05084 0.234181,0.23418 0.672371,2.19148 0.681032,3.04202 0.0038,0.37764 0.06842,0.54496 0.17018,0.44097 0.217063,-0.22181 1.366977,-7.30744 1.522894,-9.38389 0.06738,-0.89738 0.191651,-1.6316 0.276151,-1.6316 0.0845,0 0.153638,0.0794 0.153638,0.17639 0,0.097 0.07756,0.17639 0.172346,0.17639 0.09479,0 0.16961,-0.29765 0.166265,-0.66146 -0.0097,-1.05188 0.198129,-3.09815 0.353768,-3.48368 0.254793,-0.63113 0.542343,-2.01971 0.542343,-2.61896 0,-0.69138 0.145675,-0.88931 0.461573,-0.62713 0.242734,0.20145 0.282068,0.10119 0.504531,-1.28598 0.06983,-0.4354 0.219534,-0.68803 0.451322,-0.7616 0.568308,-0.18037 0.745214,-0.75974 0.886201,-2.90231 0.156362,-2.37622 0.246439,-2.68586 0.760796,-2.61524 0.266257,0.0365 0.385319,-0.0509 0.410156,-0.30128 0.01925,-0.19402 0.0867,-1.05681 0.149884,-1.91729 0.09797,-1.33405 0.164265,-1.57743 0.450074,-1.65217 0.184352,-0.0482 0.335185,-0.19746 0.335185,-0.33166 0,-0.41732 0.340167,-0.26748 0.457924,0.2017 0.08112,0.3232 0.170466,0.39708 0.325057,0.26878 0.144898,-0.12026 0.286536,-0.10765 0.442153,0.0393 0.186604,0.17628 0.211026,0.0531 0.132005,-0.66565 -0.112579,-1.02404 0.170697,-2.38125 0.497013,-2.38125 0.299357,0 0.437594,0.40168 0.445063,1.29324 0.0059,0.69925 0.04261,0.64711 0.750969,-1.06525 0.854601,-2.06589 1.183149,-2.53609 1.183149,-1.69325 0,0.30008 -0.109087,0.58743 -0.242435,0.6386 -0.254148,0.0975 -0.711467,1.17992 -0.498042,1.17878 0.411344,-0.002 1.342297,-0.83124 1.96787,-1.75244 0.859743,-1.26603 1.071319,-1.414 2.917746,-2.04058 0.776111,-0.26337 1.705605,-0.62879 2.065542,-0.81204 0.359938,-0.18324 0.770064,-0.33317 0.911393,-0.33317 0.141328,0 0.784887,-0.28007 1.43013,-0.62238 0.645244,-0.34231 1.544805,-0.67129 1.999025,-0.73108 0.45422,-0.0598 1.365959,-0.3782 2.026087,-0.70759 0.660128,-0.32939 1.75247,-0.72361 2.42742,-0.87603 1.01774,-0.22984 1.46013,-0.45705 2.59213,-1.33132 0.75071,-0.57981 1.39336,-1.08227 1.4281,-1.11659 0.0347,-0.0343 -0.21277,-0.17769 -0.55001,-0.3186 -1.28474,-0.5368 -2.01596,-2.21176 -1.50849,-3.45542 0.20915,-0.51257 0.20853,-0.74789 -0.004,-1.61871 -0.29917,-1.22461 -0.1979,-1.71755 0.52106,-2.53641 0.53853,-0.61334 1.40267,-0.85229 1.64781,-0.45564 0.0561,0.0907 0.54075,0.40261 1.07706,0.69309 l 0.97512,0.52815 0.84037,-0.5224 c 0.4622,-0.28732 1.15299,-0.56987 1.53508,-0.62788 0.82994,-0.126 0.6616,0.14816 -0.27542,0.44855 -0.33955,0.10885 -0.87377,0.35445 -1.18716,0.54577 -0.49158,0.30011 -0.55547,0.41948 -0.46544,0.86965 0.0971,0.48542 0.0569,0.53474 -0.57673,0.70776 -0.3746,0.1023 -1.14821,0.50461 -1.71913,0.89403 -0.57093,0.38943 -1.22259,0.70805 -1.44813,0.70805 -0.57709,0 -0.90993,1.0913 -0.61001,2.00008 0.34087,1.03285 1.68416,1.92359 2.03785,1.35131 0.20464,-0.33113 0.4662,-0.18099 0.34576,0.19848 -0.0789,0.24865 -0.0544,0.33498 0.0727,0.2564 0.10542,-0.0652 0.93039,-0.22936 1.83326,-0.3649 0.90287,-0.13553 1.87683,-0.33616 2.16437,-0.44584 0.63541,-0.24239 3.76843,-0.57843 5.46167,-0.58582 0.99619,-0.004 1.57549,0.12049 2.99861,0.64619 0.97014,0.35837 2.27555,0.77237 2.90091,0.91999 1.43394,0.3385 3.72466,1.55111 5.12479,2.71285 0.43656,0.36224 1.23308,0.93823 1.77003,1.27999 1.40759,0.8959 1.80048,1.45956 2.45172,3.51735 0.35905,1.13451 0.9413,2.43822 1.53029,3.42646 0.52291,0.87735 0.95074,1.69291 0.95074,1.81235 0,0.11945 0.18853,0.28885 0.41895,0.37646 0.30151,0.11463 0.45286,0.34827 0.53993,0.83348 0.26867,1.49717 0.45556,1.98476 0.72162,1.88266 0.17422,-0.0668 0.25977,-0.35487 0.25977,-0.87456 0,-0.64174 -0.0572,-0.77488 -0.33275,-0.77488 -0.26248,0 -0.35815,-0.17691 -0.45304,-0.83784 -0.16869,-1.17498 -0.70297,-2.2069 -1.52898,-2.95316 -0.38867,-0.35113 -0.67166,-0.73321 -0.62888,-0.84906 0.0443,-0.11994 0.49977,0.21916 1.05788,0.7876 0.67856,0.69112 1.04438,1.23378 1.18911,1.76389 0.4432,1.62342 0.49097,1.71646 0.50635,0.98614 0.037,-1.75842 1.37825,0.46889 1.87416,3.11232 0.0656,0.34977 0.18985,0.63595 0.27606,0.63595 0.20298,0 0.20578,4.00583 0.003,4.13122 -0.0846,0.0523 -0.19363,-0.7566 -0.24221,-1.79757 -0.0486,-1.04098 -0.17333,-2.09112 -0.27722,-2.33365 -0.1635,-0.38174 -0.17915,-0.33435 -0.11646,0.35277 0.0398,0.43657 0.11481,1.48292 0.16662,2.32524 0.0887,1.44275 0.0727,1.53829 -0.27645,1.64911 -0.46831,0.14864 -0.21395,0.43475 0.44938,0.50547 0.26607,0.0284 0.54954,0.15801 0.62994,0.28808 0.11323,0.18322 0.20252,0.18973 0.39632,0.0289 0.31719,-0.26324 0.48158,-0.10043 0.48485,0.48018 0.001,0.25062 0.1146,0.77709 0.25152,1.16993 0.29317,0.84111 0.25631,3.33595 -0.058,3.92317 -0.21017,0.3927 -0.20003,0.41572 0.20075,0.4558 0.45341,0.0453 0.30129,0.79746 -0.47063,2.32681 -0.69806,1.38305 -0.76195,1.60109 -0.52224,1.78256 0.15021,0.11372 0.31888,0.55028 0.37483,0.97014 0.0559,0.41985 0.22194,0.8519 0.36887,0.96009 0.22707,0.16721 0.26208,0.81223 0.23333,4.29879 -0.0186,2.25613 -0.0778,4.17312 -0.13143,4.25997 -0.0537,0.0869 -0.18044,0.10671 -0.2817,0.0441 -0.12082,-0.0747 -0.15002,-0.8791 -0.085,-2.34003 l 0.0991,-2.22624 -0.34919,2.29305 c -0.59992,3.93952 -1.14979,5.61951 -1.46011,4.46103 -0.0595,-0.22224 -0.11436,-0.80096 -0.12184,-1.28603 -0.0181,-1.17801 -0.25386,-0.58972 -0.42404,1.05834 -0.0701,0.67909 -0.2785,1.98878 -0.46304,2.91041 -0.18455,0.92163 -0.33629,1.85038 -0.33721,2.06389 -0.003,0.79393 -0.38935,2.16945 -0.60873,2.16945 -0.21258,0 -0.62765,2.67871 -0.62765,4.05066 0,0.28064 -0.10859,0.61884 -0.24131,0.75156 -0.13272,0.13272 -0.29963,0.42505 -0.37091,0.64963 -0.25471,0.80253 -0.63549,-0.009 -0.8497,-1.81057 -0.11124,-0.93555 -0.2517,-1.70101 -0.31215,-1.70101 -0.0605,0 -0.26474,0.73422 -0.45399,1.6316 -0.36413,1.72665 -0.64329,2.03687 -1.07142,1.19063 -0.12936,-0.25571 -0.22419,-0.32696 -0.2257,-0.16959 -0.001,0.14926 -0.16135,0.58276 -0.35537,0.96334 -0.19403,0.38057 -0.35278,0.80084 -0.35278,0.93394 0,0.13309 -0.0992,0.20907 -0.22049,0.16884 -0.3375,-0.11195 -0.52231,-2.39497 -0.41055,-5.07153 l 0.0994,-2.38125 -0.41146,0.70555 c -0.22631,0.38806 -1.07107,1.95956 -1.87724,3.49222 -1.8993,3.61087 -2.73705,4.6901 -5.25598,6.77099 -1.13633,0.93873 -2.80214,2.41205 -3.70178,3.27405 -2.04985,1.96408 -2.86017,2.35922 -5.34474,2.60625 -1.01144,0.10056 -2.695,0.29957 -3.74123,0.44224 -1.04624,0.14266 -1.95905,0.24552 -2.02847,0.22857 -0.0694,-0.017 -0.48342,-0.0575 -0.91998,-0.0902 z m 2.69852,-0.7649 c 0.65957,-0.0954 2.25389,-0.28397 3.54294,-0.41913 1.61464,-0.16929 2.56168,-0.35693 3.04441,-0.6032 0.38539,-0.19661 1.45013,-1.08751 2.3661,-1.97979 0.91596,-0.89227 2.42989,-2.24407 3.36428,-3.004 2.6386,-2.14596 3.6281,-3.40805 5.69441,-7.26315 0.45499,-0.84887 0.93682,-1.5434 1.07072,-1.5434 0.26257,0 0.52638,-0.60534 0.37239,-0.8545 -0.0517,-0.0836 0.34993,-0.85827 0.89252,-1.72137 1.40255,-2.23106 1.95758,-3.73775 2.35071,-6.38131 0.1835,-1.23393 0.45258,-3.03727 0.59794,-4.0074 0.14537,-0.97014 0.31392,-2.55764 0.37457,-3.52778 0.15645,-2.5028 0.39172,-3.62404 0.73296,-3.4931 0.20757,0.0797 0.24606,0.27196 0.1658,0.82828 -0.0575,0.3985 -0.18551,1.71673 -0.28449,2.9294 -0.19727,2.41721 -0.91268,7.31633 -1.35227,9.26042 -0.15355,0.6791 -0.55692,1.84902 -0.89638,2.59983 -0.60004,1.32714 -0.61488,1.41323 -0.53387,3.09556 0.13416,2.78623 0.36249,2.76675 0.90509,-0.0772 0.25637,-1.34375 0.54901,-3.18569 0.65032,-4.09322 0.10131,-0.90752 0.28847,-1.75432 0.41593,-1.88178 0.31388,-0.31388 0.80088,-2.91641 0.79843,-4.26678 -0.003,-1.67121 0.27626,-3.1276 0.56551,-2.94883 0.094,0.0581 0.11903,0.27751 0.0557,0.48763 -0.0927,0.30743 -0.0709,0.33988 0.11169,0.16615 0.23018,-0.21901 0.3013,-1.01052 0.16288,-1.81259 -0.13926,-0.80692 0.26026,-0.56066 0.44163,0.27222 0.23085,1.06012 0.44298,0.82961 0.44298,-0.48137 0,-0.99624 -0.0145,-1.02865 -0.41562,-0.92798 -0.89954,0.22577 -1.18858,-0.6453 -0.78881,-2.37719 0.23513,-1.01862 0.41863,-1.1331 0.58707,-0.36624 0.0639,0.29104 0.16945,0.52795 0.2345,0.52647 0.29599,-0.007 0.58566,-0.33463 0.71218,-0.80608 0.0918,-0.34202 0.25166,-0.51419 0.47759,-0.51431 0.26621,-1.3e-4 0.36124,-0.16217 0.43967,-0.74965 0.055,-0.41222 0.0717,-0.74948 0.037,-0.74948 -0.0347,0 -0.29315,0.17009 -0.57434,0.37797 -0.3717,0.27482 -0.76705,0.37798 -1.44853,0.37798 -1.04087,0 -2.96483,-0.49376 -2.96483,-0.76088 0,-0.2111 -0.0821,-0.21975 0.97014,0.10225 0.48507,0.14845 1.34621,0.2731 1.91364,0.27702 0.82966,0.006 1.11345,-0.0697 1.4492,-0.3851 0.44618,-0.41916 1.48785,-2.73505 1.48785,-3.30784 0,-0.41845 -1.22737,-1.56152 -2.04228,-1.90201 -0.32572,-0.1361 -0.95531,-0.24745 -1.39908,-0.24745 -0.44377,0 -0.90273,-0.0803 -1.0199,-0.17849 -0.91701,-0.76831 -1.63368,-1.23262 -1.90258,-1.23262 -0.17496,0 -0.36406,-0.0744 -0.42022,-0.16522 -0.14772,-0.239 -1.15536,-0.71672 -1.51177,-0.71672 -0.5649,0 -1.54694,-0.5172 -1.96258,-1.03361 -0.34626,-0.43021 -1.32661,-1.08306 -1.62638,-1.08306 -0.0464,0 -0.13617,0.45641 -0.1996,1.01424 -0.0634,0.55783 -0.15825,1.16694 -0.2107,1.35358 -0.1136,0.40421 -1.61071,2.0419 -1.86663,2.0419 -0.0983,0 -0.58353,0.19128 -1.07829,0.42506 -1.55649,0.73545 -2.26895,0.87172 -3.93774,0.75315 -0.85137,-0.0605 -1.94481,-0.23041 -2.42988,-0.3776 -0.48507,-0.14719 -1.30093,-0.26848 -1.81302,-0.26953 -1.09472,-0.002 -2.77777,-0.76238 -3.37824,-1.52575 -0.63726,-0.81015 -1.56598,-2.92966 -1.6703,-3.81193 -0.13833,-1.16999 0.13175,-1.04832 0.39151,0.17639 0.22941,1.08157 0.85025,2.42325 1.54452,3.33784 0.55052,0.7252 2.17131,1.46876 3.20159,1.46876 0.43509,0 1.23909,0.11419 1.78667,0.25375 2.07583,0.52907 5.22218,0.33358 6.04592,-0.37564 0.1583,-0.13629 0.55517,-0.32367 0.88194,-0.41639 0.73261,-0.20789 1.72886,-1.36857 1.93458,-2.25388 0.0827,-0.35608 0.15355,-1.08398 0.15735,-1.61756 0.007,-1.03917 0.10207,-1.28833 0.5525,-1.45399 0.18939,-0.0697 0.36384,0.0393 0.51501,0.3218 0.33461,0.62522 2.60501,2.5433 3.01046,2.5433 0.39515,0 1.66419,0.60951 1.831,0.87942 0.0608,0.0984 0.249,0.17891 0.41819,0.17891 0.16919,0 0.62092,0.22152 1.00383,0.49227 0.79556,0.56251 1.93251,0.9932 2.19448,0.83129 0.25401,-0.15699 0.21956,-1.27449 -0.0431,-1.39705 -0.17639,-0.0823 -0.17639,-0.12347 0,-0.20579 0.25586,-0.1194 0.27358,-1.43429 0.039,-2.89572 -0.0856,-0.53357 -0.31285,-2.3747 -0.50492,-4.0914 -0.19207,-1.71669 -0.44355,-3.30419 -0.55884,-3.52777 -0.11529,-0.22359 -0.59407,-1.04152 -1.06396,-1.81763 -0.50881,-0.84041 -1.10586,-2.18968 -1.47626,-3.33621 -0.34207,-1.0588 -0.76137,-2.08216 -0.93179,-2.27414 -0.17042,-0.19198 -0.86548,-0.70615 -1.54457,-1.14261 -0.6791,-0.43646 -1.77821,-1.26131 -2.44247,-1.833 -1.34896,-1.16097 -2.83795,-1.98181 -3.92381,-2.16307 -0.39702,-0.0663 -1.62733,-0.44573 -2.73403,-0.84324 -1.42948,-0.51344 -2.29314,-0.72297 -2.98233,-0.72353 -1.18935,-9.7e-4 -4.97666,0.48954 -5.82084,0.75387 -0.33954,0.10632 -1.20939,0.27731 -1.93299,0.37998 -1.52946,0.217 -2.0017,0.43154 -3.46304,1.57326 -1.36357,1.06535 -1.86081,1.31695 -3.11245,1.57489 -0.55657,0.11471 -1.45985,0.44757 -2.007286,0.7397 -0.547436,0.29213 -1.48112,0.63499 -2.074853,0.76192 -0.593733,0.12694 -1.543981,0.47782 -2.111662,0.77975 -0.567681,0.30192 -1.146312,0.54896 -1.285847,0.54896 -0.139534,0 -0.560655,0.15659 -0.935825,0.34799 -0.730896,0.37288 -1.701137,0.74354 -3.062772,1.1701 -0.670878,0.21016 -0.966323,0.43576 -1.411111,1.07754 -0.973774,1.40504 -1.34883,1.78391 -2.310764,2.33427 -0.898989,0.51435 -0.964027,0.60353 -1.645824,2.25662 -1.009949,2.44874 -1.553276,4.2674 -1.994599,6.67646 -0.21161,1.15512 -0.45793,2.28906 -0.547379,2.51988 -0.310983,0.80248 -0.344947,0.2269 -0.07163,-1.21391 0.307991,-1.62359 0.353458,-2.64534 0.117716,-2.64534 -0.198663,0 -0.407384,0.75023 -0.477238,1.7154 -0.02967,0.40989 -0.141933,0.90968 -0.249483,1.11064 -0.107549,0.20095 -0.253159,0.69902 -0.323577,1.10682 -0.116635,0.67544 -0.174576,0.74144 -0.650859,0.74144 -0.742902,0 -1.267155,0.43914 -1.405661,1.17744 l -0.119363,0.63626 1.011026,-0.50998 c 0.556064,-0.28048 1.127287,-0.50997 1.269386,-0.50997 0.142098,0 0.49419,-0.19844 0.782426,-0.44097 0.288236,-0.24253 0.718396,-0.44097 0.955911,-0.44097 0.237515,0 0.886269,-0.16832 1.441675,-0.37403 0.555406,-0.20572 1.446392,-0.47316 1.979968,-0.59432 2.127629,-0.4831 2.469006,-0.63926 2.475055,-1.13214 0.005,-0.40444 0.03118,-0.42354 0.227369,-0.16565 0.19999,0.26288 0.350953,0.20643 1.537793,-0.57506 1.219248,-0.80284 2.167989,-1.21223 2.815339,-1.21485 0.145521,-5.9e-4 0.674843,-0.15701 1.176271,-0.34759 0.80596,-0.30633 1.112795,-0.3285 2.645833,-0.19119 0.95378,0.0854 2.029252,0.28108 2.389939,0.4348 0.360686,0.15371 0.871416,0.27947 1.134956,0.27947 0.26354,0 0.94582,0.13094 1.51618,0.29098 l 1.03702,0.29097 -0.12378,1.16423 c -0.14385,1.353 -0.43148,2.24767 -1.08124,3.36332 -1.4444,2.48003 -3.172556,3.54068 -5.742218,3.52428 -1.72322,-0.011 -3.702902,-0.3426 -4.482458,-0.75082 -0.828277,-0.43373 -1.697293,-1.83132 -2.541198,-4.08686 -0.200406,-0.53563 -0.450913,-0.97388 -0.556684,-0.97388 -0.20215,0 -1.228378,0.27837 -3.574704,0.96966 -0.776111,0.22866 -1.686742,0.46277 -2.023624,0.52024 -0.341812,0.0583 -0.864817,0.34903 -1.183398,0.65781 -0.424471,0.41141 -0.629285,0.50553 -0.798598,0.36696 -0.395639,-0.32378 -1.688784,0.42305 -2.088223,1.20602 -0.489492,0.95948 -0.441695,1.63286 0.164022,2.31077 l 0.508374,0.56897 1.123223,-0.19215 c 1.468678,-0.25125 1.690392,-0.0238 0.342207,0.35098 -1.156653,0.32158 -1.637257,0.23663 -2.200835,-0.38901 -0.41523,-0.46096 -0.63412,-0.4756 -0.63412,-0.0424 0,0.18183 -0.11991,0.67046 -0.266467,1.08585 -0.278607,0.78965 -0.226475,1.08732 0.128295,0.73255 0.333567,-0.33357 0.525309,-0.24208 0.389493,0.18584 -0.143627,0.45252 -0.103674,1.97129 0.08242,3.13321 l 0.127129,0.79375 0.294343,-0.97014 c 0.161889,-0.53357 0.342234,-1.50508 0.400766,-2.1589 0.05853,-0.65383 0.179569,-1.23398 0.26897,-1.28923 0.0894,-0.0553 0.162549,0.063 0.162549,0.26272 0,0.19976 0.07937,0.36319 0.176388,0.36319 0.09701,0 0.176389,-0.18872 0.176389,-0.41937 0,-0.47608 0.447907,-0.97094 0.563888,-0.62299 0.04189,0.12567 0.499323,0.21524 1.163531,0.22784 1.483658,0.0281 1.397119,0.35462 -0.09679,0.36516 l -1.189652,0.008 -0.122911,1.48351 c -0.0676,0.81593 -0.360045,2.60187 -0.649878,3.96875 -0.289832,1.36688 -0.576775,2.84243 -0.637652,3.27899 -0.06088,0.43656 -0.30804,1.72126 -0.549253,2.85489 -0.60047,2.82201 -0.78213,5.7691 -0.48124,7.8072 0.357375,2.42069 1.102294,5.99393 1.476017,7.08017 0.45461,1.32135 0.74789,1.70454 3.649873,4.76885 2.853177,3.01278 3.747549,3.62269 5.789025,3.94775 1.96088,0.31223 2.680659,0.49544 5.019768,1.27769 2.159984,0.72235 2.249739,0.73667 4.409722,0.70366 1.212674,-0.0185 2.879541,0.0538 3.704161,0.16078 4.07295,0.52832 4.74642,0.56227 6.40269,0.32279 z m -6.04008,-2.53924 c -0.33414,-0.25046 -0.74428,-0.45538 -0.91142,-0.45538 -0.36773,0 -1.905281,-0.64407 -2.273409,-0.95231 -0.347785,-0.29121 -1.574549,-0.63519 -2.265357,-0.63519 -0.609585,0 -1.165001,-0.62573 -1.049126,-1.18195 0.05253,-0.25215 0.11934,-0.20863 0.325184,0.21182 0.213416,0.43591 0.398612,0.54872 1.050921,0.64017 1.048487,0.14698 1.829774,0.40855 2.422737,0.81112 0.69066,0.46889 1.40528,0.75357 1.89166,0.75357 0.23052,0 0.66114,0.20363 0.95692,0.45251 0.47618,0.40068 0.63433,0.43822 1.38055,0.32769 0.46352,-0.0686 1.1504,-0.2326 1.5264,-0.36432 0.37599,-0.13172 0.87459,-0.23949 1.10799,-0.23949 0.80673,0 2.6096,-0.73651 3.2755,-1.33811 0.36659,-0.3312 0.77887,-0.60217 0.91617,-0.60217 0.13731,0 0.37521,-0.0482 0.52866,-0.10707 0.15346,-0.0589 0.27901,-0.0278 0.27901,0.0691 0,0.0969 -0.19703,0.22559 -0.43784,0.28603 -0.24081,0.0604 -0.71229,0.36178 -1.04774,0.66964 -0.62695,0.57539 -2.64002,1.37107 -3.47586,1.37384 -0.25494,8.5e-4 -0.74518,0.11922 -1.08942,0.26306 -0.34424,0.14383 -1.04846,0.30906 -1.56494,0.36718 -0.82631,0.093 -1.012,0.051 -1.54659,-0.34971 z m -2.452013,-15.26513 c -0.809624,-0.1822 -2.054886,-0.61548 -2.767247,-0.96284 -1.064836,-0.51924 -1.491532,-0.63157 -2.39903,-0.63157 -1.154248,0 -1.468229,-0.14361 -3.18756,-1.4579 -0.687827,-0.52579 -2.076483,-2.47729 -2.522651,-3.54512 -0.33398,-0.79932 -0.35659,-2.40532 -0.03386,-2.40532 0.126175,0 0.455185,0.35719 0.731133,0.79375 0.275949,0.43657 0.563098,0.79375 0.638109,0.79375 0.07501,0 0.261939,0.0482 0.415394,0.10707 0.153456,0.0589 0.27901,0.0285 0.27901,-0.0676 0,-0.0961 -0.157794,-0.21595 -0.350654,-0.26639 -0.19286,-0.0504 -0.430985,-0.30298 -0.529167,-0.56122 -0.229242,-0.60295 -0.230515,-1.50489 -0.0021,-1.50489 0.09701,0 0.176389,0.26264 0.176389,0.58365 0,0.86197 0.319257,1.19792 1.058333,1.11366 0.339548,-0.0387 0.815798,-0.0791 1.058333,-0.0898 0.423413,-0.0187 0.438522,-0.0589 0.379444,-1.00895 l -0.06153,-0.98947 -1.305485,0.12234 c -0.786489,0.0737 -1.305485,0.0562 -1.305485,-0.044 0,-0.44604 6.571087,-0.53846 9.077771,-0.12767 1.488226,0.24389 1.669726,0.23812 3.085216,-0.0981 1.24141,-0.29483 1.82757,-0.33728 3.35764,-0.24312 2.01873,0.12422 2.84829,0.0158 6.2634,-0.81841 1.16417,-0.28438 3.06917,-0.64442 4.23334,-0.80009 1.63553,-0.2187 2.56635,-0.45924 4.09497,-1.05821 1.92904,-0.75587 2.87239,-0.95336 2.87239,-0.60132 0,0.0956 -0.35719,0.26379 -0.79375,0.37371 -0.70338,0.17712 -1.10144,0.51077 -0.60937,0.51077 0.11519,0 0.14092,0.23167 0.0686,0.61736 -0.12978,0.69181 0.14124,0.84639 0.45526,0.25964 0.10529,-0.19674 0.26813,-0.31032 0.36186,-0.25239 0.0937,0.0579 0.1242,0.1801 0.0677,0.27149 -0.0565,0.0914 -0.21569,1.29219 -0.35378,2.66844 -0.23628,2.35466 -0.28654,2.55566 -0.85219,3.40759 -0.80664,1.21488 -1.92693,1.88967 -4.07695,2.45568 -0.97014,0.2554 -2.24014,0.68825 -2.82222,0.96188 -0.58209,0.27364 -1.45521,0.63939 -1.94028,0.81278 -0.48507,0.1734 -1.08038,0.45185 -1.32292,0.61878 -1.35117,0.93 -1.80136,1.04314 -3.72449,0.93606 -1.14898,-0.064 -2.09475,-0.0273 -2.53731,0.0984 -1.31622,0.37376 -3.58432,0.38586 -5.176218,0.0276 z m 4.847403,-0.3051 c 0.2273,-0.0872 0.26322,-0.27865 0.1816,-0.96781 -0.056,-0.47249 -0.14964,-0.93656 -0.20817,-1.03126 -0.14833,-0.24 -0.75352,-0.21044 -1.5849,0.0774 -0.54881,0.19002 -0.71796,0.34619 -0.76137,0.70297 -0.0307,0.25227 -0.20735,0.53976 -0.39254,0.63888 -0.2833,0.15161 -0.35468,0.10865 -0.44992,-0.27081 -0.0623,-0.24806 -0.34407,-0.5704 -0.62624,-0.71632 -0.5251,-0.27154 -1.866703,-0.29612 -2.026767,-0.0371 -0.158203,0.25598 -0.417468,-0.0465 -0.417468,-0.48704 0,-0.54183 -0.864264,-0.93771 -1.803596,-0.82617 -0.361388,0.0429 -0.901607,-0.007 -1.200487,-0.11141 l -0.543418,-0.18943 0.05396,0.74181 c 0.05063,0.69599 0.09209,0.74837 0.67132,0.8481 0.339549,0.0585 1.110347,0.36058 1.712885,0.67137 1.633243,0.84244 3.679411,1.26764 5.565761,1.15658 0.8503,-0.0501 1.67351,-0.13995 1.82935,-0.19975 z m 5.72969,-0.68472 c 0.95185,-0.57822 1.03731,-0.68164 1.03731,-1.2553 0,-0.56429 -0.0386,-0.61413 -0.39687,-0.51187 -0.21828,0.0623 -0.78274,0.16304 -1.25434,0.22385 l -0.85747,0.11057 0.091,0.67866 c 0.0999,0.74518 -0.0404,0.83603 -0.57894,0.37488 -0.22152,-0.18967 -0.3548,-0.52097 -0.3548,-0.88194 0,-0.57248 -0.008,-0.57814 -0.83784,-0.57576 -1.55526,0.004 -1.65518,0.0803 -1.59563,1.21092 l 0.0522,0.99154 1.23473,0.10114 c 2.37289,0.19438 2.37221,0.19447 3.4606,-0.46669 z m -15.89602,-1.89223 c 0,-1.01896 -0.206175,-1.3582 -0.825459,-1.3582 -0.491294,0 -1.862474,-0.52416 -2.03127,-0.77649 -0.172299,-0.25757 -0.252971,-0.11682 -0.370875,0.64707 -0.101491,0.65755 -0.08978,0.67329 1.149224,1.5434 0.688469,0.4835 1.43775,0.87908 1.66507,0.87908 0.381498,0 0.41331,-0.072 0.41331,-0.93486 z m 19.49097,0.23637 c 0.58208,-0.27163 1.22878,-0.54586 1.43709,-0.60939 0.27052,-0.0825 0.35265,-0.21535 0.28739,-0.46489 -0.13676,-0.52297 -0.31541,-0.55811 -0.96128,-0.18911 -0.90161,0.5151 -2.3849,0.81517 -2.70722,0.54766 -0.2239,-0.18582 -0.26084,-0.099 -0.26084,0.61289 v 0.82936 l 0.57326,-0.11632 c 0.3153,-0.064 1.04952,-0.33857 1.6316,-0.6102 z m -17.980931,-1.04803 c -0.05405,-0.0875 -0.336551,-0.24208 -0.627771,-0.3436 -0.440521,-0.15357 -0.52949,-0.1385 -0.52949,0.0897 0,0.15685 0.101246,0.23542 0.236481,0.18353 0.130065,-0.0499 0.348346,-0.0199 0.48507,0.0666 0.322797,0.20435 0.560953,0.2064 0.43571,0.004 z m 21.823061,-0.29361 c 1.35423,-0.34939 2.41968,-0.92813 2.41968,-1.31434 0,-0.54364 -0.24025,-0.53388 -0.47281,0.0192 -0.16351,0.38887 -0.31405,0.51958 -0.51126,0.44391 -0.15373,-0.059 -0.39208,-0.10726 -0.52967,-0.10726 -0.1683,0 -0.25015,-0.20201 -0.25015,-0.61736 0,-0.72403 -0.18226,-0.79212 -0.46848,-0.17501 -0.11214,0.24177 -0.13198,0.43959 -0.0441,0.43959 0.0879,0 0.15979,0.14043 0.15979,0.31207 0,0.26876 -0.15913,0.30902 -1.14653,0.29003 -1.21824,-0.0234 -1.24535,-0.003 -0.96768,0.72727 0.11982,0.31516 0.26721,0.43647 0.44664,0.36762 0.14729,-0.0565 0.76134,-0.2301 1.36456,-0.38573 z m -26.860878,-0.84048 c 0,-0.4461 -0.106097,-0.64434 -0.440706,-0.82341 -0.242389,-0.12973 -0.486244,-0.19033 -0.5419,-0.13467 -0.101729,0.10173 0.735882,1.54563 0.896624,1.54563 0.04729,0 0.08598,-0.26439 0.08598,-0.58755 z M 117.502,161.98768 c 0.0404,-0.0356 -0.25724,-0.0648 -0.66146,-0.0648 -0.40423,0 -0.73496,0.083 -0.73496,0.18438 0,0.16548 1.18853,0.0637 1.39642,-0.11958 z m 4.16426,-1.72754 c 0.16401,-0.42944 0.26012,-0.88584 0.21358,-1.01424 -0.0465,-0.12839 -0.14277,0.0614 -0.21386,0.42174 -0.0711,0.36034 -0.24,0.74709 -0.37538,0.85944 -0.27966,0.23211 -0.3259,0.51386 -0.0843,0.51386 0.089,0 0.29599,-0.35136 0.45999,-0.7808 z m -24.341658,-0.4611 c 0.0624,-0.10096 0.265519,-0.1353 0.451382,-0.0763 0.410606,0.13032 0.422604,0.0239 0.05975,-0.52988 -0.153004,-0.23352 -0.246344,-0.60776 -0.207423,-0.83165 0.06717,-0.38639 0.07747,-0.38915 0.20272,-0.0543 0.33124,0.88556 0.330704,0.88534 1.979748,0.81768 0.861481,-0.0353 1.610491,-0.0901 1.664451,-0.12158 0.054,-0.0315 0.0669,-0.32455 0.0288,-0.65117 l -0.0693,-0.59384 -1.891931,-0.29881 c -1.049166,-0.1657 -2.888817,-0.29881 -4.129836,-0.29881 h -2.2379 v 0.69113 c 0,1.02929 0.13066,1.24935 0.677413,1.14091 0.306412,-0.0608 0.866763,0.0903 1.615642,0.4355 1.237241,0.57036 1.678823,0.65864 1.856518,0.37112 z m 16.986038,-1.07035 c -0.43794,-0.27067 1.85378,-1.07076 2.43815,-0.85122 0.6521,0.24499 0.96259,-0.15257 0.76666,-0.98167 -0.21213,-0.89767 -0.21503,-1.14653 -0.0134,-1.14653 0.089,0 0.25051,0.41375 0.35896,0.91945 0.26084,1.21628 0.89038,1.69115 0.89038,0.67164 0,-0.43763 0.12087,-0.58725 0.72234,-0.8941 0.69977,-0.357 0.73364,-0.35848 1.08399,-0.0477 0.35712,0.31681 0.36007,0.3142 0.23521,-0.20834 -0.0695,-0.29104 -0.16726,-0.771 -0.21716,-1.06658 l -0.0907,-0.53742 -1.18986,0.3879 c -0.65443,0.21335 -1.73903,0.43927 -2.41024,0.50206 -2.87645,0.26906 -4.39087,0.675 -3.44298,0.92288 0.34194,0.0894 0.37083,0.22118 0.37445,1.70792 l 0.004,1.61102 0.33663,-0.43812 c 0.21287,-0.27705 0.26935,-0.4797 0.15364,-0.55121 z m -9.42018,0.61768 c 0.19291,-0.074 0.27827,-0.33258 0.2766,-0.83785 -0.004,-1.29675 -0.13397,-1.52453 -0.86809,-1.52453 -0.35913,0 -1.06425,0.12214 -1.56693,0.27142 -0.88897,0.264 -0.91388,0.28931 -0.91125,0.92604 0.003,0.84301 0.14449,1.04635 0.79162,1.14145 0.86228,0.12672 1.97901,0.13823 2.27805,0.0235 z m 3.81839,-0.0755 c 0.21689,-0.11608 0.34118,-0.36891 0.34118,-0.69407 0,-0.7278 0.29801,-1.41639 0.61299,-1.41639 0.14793,0 0.26895,-0.0879 0.26895,-0.19526 0,-0.11506 -0.12679,-0.14492 -0.30868,-0.0727 -0.16977,0.0674 -1.10243,0.1616 -2.07257,0.20933 -0.97014,0.0477 -1.84631,0.11119 -1.94704,0.14104 -0.11282,0.0334 -0.14669,0.41754 -0.0882,1.00016 l 0.095,0.9459 0.70555,0.10726 c 1.16529,0.17716 2.03171,0.16801 2.39285,-0.0253 z m 7.70087,-0.99415 c 0.0438,-0.13143 -0.0632,-0.17208 -0.29406,-0.11172 -0.19957,0.0522 -0.36285,0.17083 -0.36285,0.26364 0,0.23417 0.57244,0.10179 0.65691,-0.15192 z m 2.87086,-1.11631 c 0,-0.097 -0.0794,-0.17639 -0.17639,-0.17639 -0.097,0 -0.17638,0.0794 -0.17638,0.17639 0,0.097 0.0794,0.17639 0.17638,0.17639 0.097,0 0.17639,-0.0794 0.17639,-0.17639 z m 1.708,-2.6789 c -0.0563,-0.14072 -0.0981,-0.0989 -0.10657,0.10656 -0.008,0.18595 0.034,0.29013 0.0926,0.23151 0.0586,-0.0586 0.0649,-0.21074 0.0139,-0.33807 z m -35.751051,4.09869 c 0,-2.53988 1.201606,-4.59211 2.68993,-4.59413 0.539319,-7.3e-4 0.657064,0.30792 0.176389,0.46238 -1.17847,0.3787 -1.339253,0.50828 -1.753588,1.41331 -0.25522,0.55747 -0.468317,1.43034 -0.530618,2.17346 -0.07344,0.87598 -0.174528,1.24186 -0.343113,1.24186 -0.160745,0 -0.239,-0.22818 -0.239,-0.69688 z m 40.761731,-3.62266 c -0.50513,-1.35008 -1.55339,-3.39551 -1.77864,-3.47059 -0.24272,-0.0809 -0.32093,-0.99832 -0.0893,-1.048 0.39444,-0.0846 2.87756,4.9354 2.63522,5.32751 -0.21077,0.34104 -0.41922,0.12127 -0.76724,-0.80892 z m -26.34194,-1.51542 c -0.169774,-0.0989 -0.30868,-0.38278 -0.30868,-0.63087 0,-0.36022 -0.06218,-0.42559 -0.308681,-0.32453 -0.169774,0.0696 -0.63818,0.16691 -1.040902,0.21624 -0.604381,0.074 -0.764942,0.0285 -0.919634,-0.2605 -0.118087,-0.22065 -0.450775,-0.3923 -0.899376,-0.46404 -0.482381,-0.0771 -0.711963,-0.20349 -0.711963,-0.39185 0,-0.22345 0.12979,-0.25615 0.661459,-0.16663 0.575663,0.0969 0.684336,0.0589 0.837847,-0.29318 0.195925,-0.44935 1.177333,-0.65676 1.569112,-0.33161 0.16454,0.13656 0.355494,0.0471 0.727034,-0.34074 0.574806,-0.59997 1.219904,-0.68116 1.525394,-0.19199 0.2042,0.32698 0.22252,0.32669 0.87638,-0.0141 0.43016,-0.22422 0.80688,-0.30395 1.05858,-0.22406 0.30859,0.0979 0.49584,-0.001 0.89035,-0.47094 0.44349,-0.52818 0.52425,-0.5632 0.7194,-0.31196 0.26782,0.34481 2.43833,0.75061 3.16321,0.59139 0.36251,-0.0796 0.61671,-0.025 0.8448,0.18137 0.25444,0.23028 0.40458,0.25335 0.68211,0.10482 0.51506,-0.27565 1.37086,-0.23391 2.01306,0.0982 0.30699,0.15875 0.87852,0.28681 1.27006,0.28457 0.39154,-0.002 0.83096,0.0978 0.97648,0.22232 0.14552,0.12451 0.42333,0.25552 0.61736,0.29111 0.21265,0.039 0.35278,0.20389 0.35278,0.41509 0,0.45056 -0.60263,0.54645 -1.26891,0.2019 -0.45286,-0.23418 -0.53694,-0.22737 -0.9087,0.0737 -0.385,0.31175 -0.44859,0.31471 -1.0563,0.0491 -1.12105,-0.49002 -1.36089,-0.48561 -1.84259,0.0339 -0.33115,0.35713 -0.59929,0.47477 -1.03649,0.45475 -0.32438,-0.0148 -0.98037,-0.0256 -1.45775,-0.0239 -0.47738,0.002 -1.03973,-0.10946 -1.24967,-0.24702 -0.35179,-0.23051 -0.40488,-0.21088 -0.67739,0.25044 -0.44469,0.7528 -1.15376,0.83405 -2.1555,0.247 l -0.82171,-0.48156 -0.75483,0.82211 c -0.80294,0.87452 -0.88452,0.91223 -1.36634,0.6316 z m 3.72124,-5.24749 c -0.89891,-0.78926 -1.04819,-1.47225 -0.83126,-3.80327 0.19008,-2.04243 0.75117,-4.54057 1.52958,-6.81011 0.0534,-0.15557 -0.1023,-0.0887 -0.37777,0.16238 -0.85095,0.77547 -0.7493,0.18072 0.10746,-0.62877 0.46145,-0.43599 1.0055,-1.12457 1.20899,-1.53018 0.4424,-0.88177 1.33088,-1.76736 1.49947,-1.49458 0.064,0.10349 -0.0568,0.31875 -0.26843,0.47836 -0.45178,0.34077 -1.0743,1.24195 -1.07596,1.55758 -7.3e-4,0.13705 0.24913,0.22122 0.66029,0.22242 0.92654,0.003 1.98438,0.19423 1.98438,0.35925 0,0.0762 -0.65485,0.12539 -1.45521,0.10921 l -1.45521,-0.0294 -0.40655,0.8513 c -0.96538,2.02145 -1.97925,7.77292 -1.61224,9.14589 0.34141,1.27721 1.44071,1.79119 2.96846,1.38791 0.35081,-0.0926 0.85059,-0.21179 1.11064,-0.26487 0.26005,-0.0531 0.74523,-0.35434 1.07819,-0.66948 0.53182,-0.50335 0.62058,-0.71617 0.73055,-1.75141 0.20096,-1.89195 -0.29451,-2.34843 -1.59278,-1.4674 -0.35739,0.24253 -0.85701,0.43781 -1.11026,0.43394 -0.4214,-0.006 -0.40192,-0.0362 0.22971,-0.35142 0.3796,-0.18942 0.82241,-0.46407 0.98403,-0.61033 0.41167,-0.37255 1.17111,-0.33105 1.589,0.0868 0.4017,0.4017 0.43391,1.13625 0.11528,2.62894 -0.33544,1.57147 -1.22804,2.09919 -4.09979,2.42384 -0.81995,0.0927 -0.95078,0.0549 -1.51057,-0.43662 z m 28.81369,-1.47644 c -0.11642,-0.11642 -0.21167,-0.44151 -0.21167,-0.72242 0,-0.89271 1.19393,-2.17588 1.6242,-1.74561 0.11601,0.11602 0.0516,0.21444 -0.19073,0.29135 -0.47549,0.15091 -1.08069,0.92598 -1.08069,1.38401 0,0.19756 0.13137,0.50435 0.29192,0.68177 0.24085,0.26613 0.24702,0.32257 0.0353,0.32257 -0.14115,0 -0.35189,-0.0953 -0.46831,-0.21167 z m -51.055763,-1.73913 c -0.480218,-0.28531 -0.37407,-0.53478 0.143775,-0.33789 0.601701,0.22876 0.605878,0.22744 0.605878,-0.19235 0,-0.61368 -0.335269,-1.04674 -0.810366,-1.04674 -0.251868,0 -0.397839,-0.0766 -0.336162,-0.17639 0.181468,-0.29362 0.771655,-0.19848 1.156577,0.18644 0.4911,0.4911 0.424715,1.64522 -0.09824,1.70798 -0.194028,0.0233 -0.491684,-0.0402 -0.661459,-0.14105 z m 33.994863,-3.44512 c -0.77386,-0.42966 -1.74436,-0.8692 -2.15667,-0.97677 -0.41231,-0.10757 -0.74965,-0.25323 -0.74965,-0.32369 0,-0.21445 0.62873,-0.71196 0.89974,-0.71196 0.14003,0 0.53066,-0.22721 0.86806,-0.50492 0.66021,-0.5434 2.60105,-1.57386 3.39157,-1.8007 0.92658,-0.26589 0.47044,0.10466 -0.97335,0.7907 -0.7986,0.37947 -1.77767,0.95494 -2.17572,1.27882 -0.39804,0.32389 -0.85445,0.58888 -1.01423,0.58888 -0.49546,0 -0.32032,0.27113 0.32612,0.50489 0.92793,0.33554 3.31561,1.7354 3.14249,1.84239 -0.0832,0.0514 -0.7845,-0.25799 -1.55836,-0.68764 z m 7.99439,-5.07081 c -0.262,-0.31947 -0.7581,-0.71452 -1.10243,-0.8779 -0.34433,-0.16337 -0.90879,-0.43125 -1.25435,-0.59528 -0.55281,-0.26242 -0.72763,-0.27009 -1.45521,-0.0638 -1.34953,0.38259 -1.77159,0.41503 -2.55351,0.19628 -0.62587,-0.17508 -0.99401,-0.15184 -2.33774,0.14761 -0.87719,0.19549 -2.16269,0.59704 -2.85665,0.89235 -1.26775,0.53948 -2.16304,0.68871 -2.16304,0.36054 0,-0.097 0.15668,-0.17639 0.34818,-0.17639 0.1915,0 0.96541,-0.2453 1.71979,-0.54512 0.75439,-0.29981 2.08598,-0.70123 2.95911,-0.89202 1.37723,-0.30097 1.71163,-0.31813 2.52467,-0.1296 0.80549,0.18678 1.05334,0.17568 1.76389,-0.079 1.00157,-0.35897 1.60377,-0.37427 2.06629,-0.0525 0.19136,0.13313 0.59659,0.29614 0.90051,0.36225 0.5866,0.12761 1.88804,1.14052 2.18977,1.70432 0.30612,0.57198 -0.21819,0.39583 -0.74928,-0.25173 z m -33.362037,-1.07671 c -0.147632,-0.38473 1.012156,-1.30466 2.499118,-1.9823 0.719289,-0.32779 1.85876,-0.95239 2.532157,-1.38801 0.673397,-0.43562 1.298764,-0.74605 1.389704,-0.68985 0.647334,0.40008 -0.470432,1.30302 -3.450626,2.78746 -0.873124,0.43491 -1.762774,0.95645 -1.976999,1.15899 -0.453763,0.42902 -0.854746,0.47491 -0.993354,0.11371 z m 35.337717,-0.43912 c 0,-0.0905 -0.1786,-0.22091 -0.39688,-0.28985 -0.21828,-0.0689 -0.71437,-0.37925 -1.10243,-0.68957 -0.38805,-0.31033 -1.14388,-0.81038 -1.67961,-1.11122 -1.11663,-0.62706 -1.65584,-1.14802 -1.92587,-1.8607 -0.36455,-0.96214 0.38621,-1.18316 0.78411,-0.23084 0.18026,0.43141 0.58627,0.79692 1.49536,1.3462 0.68636,0.4147 1.53663,0.98344 1.8895,1.26387 0.35287,0.28042 0.824,0.55565 1.04696,0.6116 0.41813,0.10495 0.7011,0.6333 0.50719,0.94704 -0.13834,0.22385 -0.61833,0.2343 -0.61833,0.0135 z m 4.93889,37.78372 c 0,-0.5529 -0.0845,-0.48894 -0.24684,0.18688 -0.0788,0.32785 -0.057,0.46083 0.0634,0.38646 0.1009,-0.0624 0.18346,-0.32036 0.18346,-0.57334 z m -0.54675,-1.76818 c 0.0104,-0.86427 -0.054,-1.45521 -0.15881,-1.45521 -0.10774,0 -0.16955,0.73793 -0.15881,1.89618 0.0206,2.21742 0.29002,1.84331 0.31762,-0.44097 z m -55.54492,1.18022 c 0,-0.38233 -0.07077,-0.69515 -0.157267,-0.69515 -0.220618,0 -0.407924,0.84334 -0.278131,1.25229 0.17168,0.54091 0.435398,0.20346 0.435398,-0.55714 z m 1.107766,-0.29827 c -0.08929,-1.33597 -0.195175,-1.80799 -0.405571,-1.80799 -0.2414,0 -0.217012,1.82714 0.03167,2.37295 0.324931,0.71315 0.446992,0.52871 0.373897,-0.56496 z m 55.853444,-0.0104 c -0.009,-0.62454 -0.0496,-0.74093 -0.16399,-0.47466 -0.21541,0.50128 -0.21541,1.54424 0,1.41111 0.097,-0.06 0.17081,-0.48136 0.16399,-0.93645 z m 2.85893,-2.37113 c 0.39143,-2.87904 0.43948,-6.74897 0.0882,-7.10029 -0.13217,-0.13217 -0.29438,-0.6479 -0.36046,-1.14607 -0.16605,-1.2517 -0.47172,-1.05493 -0.84381,0.5432 -0.35099,1.50752 -0.39356,2.21278 -0.14292,2.36768 0.097,0.06 0.17639,0.24544 0.17639,0.41218 0,0.16675 0.16732,0.44644 0.37183,0.62154 0.35775,0.30632 0.3694,0.44079 0.30778,3.55318 -0.0352,1.77914 -0.0304,3.2012 0.0106,3.16013 0.0411,-0.0411 0.21765,-1.12627 0.3924,-2.41155 z m -58.197362,1.77299 c -0.16463,-0.16463 -0.211667,-0.11759 -0.211667,0.21167 0,0.32926 0.04704,0.3763 0.211667,0.21167 0.16463,-0.16463 0.16463,-0.25871 0,-0.42334 z m 57.059922,-0.2734 c -0.0444,-0.16977 -0.0807,-0.0309 -0.0807,0.30868 0,0.33955 0.0363,0.47846 0.0807,0.30868 0.0444,-0.16977 0.0444,-0.44758 0,-0.61736 z m -54.477253,-0.26458 c -0.08543,-0.41231 -0.307981,-1.53222 -0.49455,-2.4887 -0.186569,-0.95647 -0.374544,-1.77437 -0.417723,-1.81755 -0.136459,-0.13646 -0.706128,2.64449 -0.685266,3.34526 0.03034,1.0191 0.1636,1.26824 0.787918,1.47307 0.96308,0.31597 0.9791,0.30584 0.809621,-0.51208 z m 54.303753,-1.23472 c -0.042,-0.21828 -0.0764,-0.0397 -0.0764,0.39687 0,0.43656 0.0344,0.61516 0.0764,0.39688 0.042,-0.21828 0.042,-0.57547 0,-0.79375 z m -57.627255,-0.38647 c 0,-0.23681 -0.07937,-0.47962 -0.176389,-0.53958 -0.102909,-0.0636 -0.176389,0.11577 -0.176389,0.43057 0,0.29676 0.07937,0.53957 0.176389,0.53957 0.09701,0 0.176389,-0.19375 0.176389,-0.43056 z m 58.160435,-2.34756 c -0.038,-0.3638 -0.0692,-0.0661 -0.0692,0.66146 0,0.7276 0.0311,1.02526 0.0692,0.66146 0.0381,-0.36381 0.0381,-0.95912 0,-1.32292 z m -59.27111,-1.5434 c -0.03739,-0.24275 -0.11992,-0.13271 -0.264597,0.35277 -0.234498,0.78689 -0.284286,2.42626 -0.07994,2.63211 0.141849,0.14289 0.435047,-2.39724 0.344534,-2.98488 z m 2.918079,0.44921 c -0.02457,-0.9171 -0.115762,-1.73854 -0.202642,-1.82542 -0.280132,-0.28014 -0.40935,0.91176 -0.278323,2.56724 0.103506,1.30777 0.163157,1.53877 0.326159,1.26305 0.120278,-0.20344 0.181745,-0.99949 0.154806,-2.00487 z m 55.854181,0.0463 c 0.01,-0.40659 -0.0618,-0.7883 -0.15881,-0.84826 -0.11201,-0.0692 -0.16997,0.36151 -0.15881,1.18021 0.0188,1.37681 0.28356,1.10008 0.31762,-0.33195 z M 74.885811,163.6428 c 0.145219,-0.55781 0.200904,-1.0532 0.123745,-1.10089 -0.07716,-0.0477 -0.191395,0.21026 -0.253857,0.57321 -0.06246,0.36295 -0.159813,0.89804 -0.216335,1.18908 -0.16911,0.87078 0.06284,0.42796 0.346447,-0.6614 z m 0.87789,-0.13259 c 0.05078,-0.19416 0.02035,-0.30854 -0.06762,-0.25418 -0.08797,0.0544 -0.159939,0.21323 -0.159939,0.35303 0,0.36508 0.119856,0.31301 0.227561,-0.0988 z m -0.781844,-2.96099 c 0.415772,-1.99659 0.455031,-2.39292 0.192426,-1.94258 -0.173388,0.29734 -0.864801,3.34608 -0.870101,3.83666 -0.0076,0.7002 0.339363,-0.26945 0.677675,-1.89408 z m 1.595034,0.61367 c 0.0097,-0.1755 -0.06179,-0.27004 -0.158806,-0.21008 -0.09701,0.06 -0.168477,0.40199 -0.158807,0.76007 0.01579,0.58479 0.03195,0.60617 0.158807,0.21007 0.07767,-0.24253 0.149136,-0.58456 0.158806,-0.76006 z m -0.687973,-0.60266 c 0,-1.22867 -0.0938,-1.15881 -0.257663,0.19188 -0.08822,0.72716 -0.0686,0.99888 0.06611,0.91563 0.105354,-0.0651 0.191553,-0.56349 0.191553,-1.10751 z m 58.107772,-0.43256 c 0.0233,-0.32228 -0.017,-0.78441 -0.0897,-1.02694 -0.0929,-0.30985 -0.13668,-0.10443 -0.14734,0.69086 -0.0154,1.15281 0.15989,1.40138 0.23706,0.33608 z m 3.38444,-3.36544 0.0474,-1.98303 -0.42566,1.23472 c -0.49603,1.43886 -0.53808,1.95163 -0.17158,2.09226 0.14552,0.0558 0.26458,0.276 0.26458,0.48924 0,0.21325 0.0535,0.33419 0.11894,0.26878 0.0654,-0.0654 0.14026,-1.0113 0.16633,-2.10197 z m -59.025164,-0.87019 c 0.0013,-0.16405 -0.06639,-0.34078 -0.15047,-0.39275 -0.167815,-0.10371 -0.562263,1.62525 -0.536599,2.35204 0.01731,0.49014 0.682634,-1.40714 0.687069,-1.95929 z m 57.739294,-0.69476 c 0.27161,-1.65467 0.27061,-1.79779 -0.0167,-2.3923 -0.16808,-0.34779 -0.38498,-0.62392 -0.48199,-0.61362 -0.23655,0.0251 -0.4067,1.35304 -0.42552,3.32098 -0.0142,1.48684 0.0104,1.60833 0.30993,1.52999 0.26216,-0.0685 0.38153,-0.42708 0.61429,-1.84505 z m -60.136686,0.68435 c 0.08245,-0.35251 0.04585,-0.48507 -0.133917,-0.48507 -0.251072,0 -0.458119,0.51045 -0.462497,1.14023 -0.0021,0.30163 0.02901,0.31304 0.240276,0.0882 0.133476,-0.14206 0.293739,-0.47657 0.356138,-0.74336 z m 1.954516,-1.5434 c 0.0904,-0.43044 0.07336,-0.56396 -0.05628,-0.44097 -0.102268,0.097 -0.231596,0.53357 -0.287394,0.97014 -0.113578,0.88862 0.122129,0.5257 0.343677,-0.52917 z m -0.311236,-1.01424 c 0.287128,-0.92063 0.349456,-1.46155 0.274858,-2.38536 -0.09008,-1.11556 -0.121157,-1.18717 -0.468871,-1.08052 -0.494907,0.1518 -0.449112,0.0635 -0.641287,1.23695 -0.305597,1.86608 -0.156344,3.41956 0.328537,3.41956 0.07449,0 0.302529,-0.53578 0.506763,-1.19063 z m 59.670396,0.28786 c 0,-0.19402 -0.0794,-0.30372 -0.17639,-0.24376 -0.097,0.06 -0.17639,0.26776 -0.17639,0.46179 0,0.19403 0.0794,0.30372 0.17639,0.24377 0.097,-0.06 0.17639,-0.26777 0.17639,-0.4618 z m -3.76006,-1.42336 c -0.0563,-0.14071 -0.0981,-0.0989 -0.10657,0.10657 -0.008,0.18594 0.034,0.29012 0.0926,0.23151 0.0586,-0.0586 0.0649,-0.21075 0.0139,-0.33808 z m 3.29611,-0.18741 c 0.16556,-0.61782 0.1325,-0.72236 -0.15341,-0.48507 -0.28512,0.23663 -0.36471,0.88194 -0.10877,0.88194 0.0857,0 0.20368,-0.17859 0.26218,-0.39687 z m -0.0848,-1.38669 c 0.16666,-0.47809 0.15752,-0.52079 -0.0709,-0.33118 -0.14424,0.11971 -0.26226,0.36669 -0.26226,0.54884 0,0.48224 0.11552,0.40677 0.3332,-0.21766 z M 77.476418,148.6729 c 0,-0.19403 -0.07937,-0.30373 -0.176389,-0.24377 -0.09701,0.06 -0.176389,0.26777 -0.176389,0.46179 0,0.19403 0.07937,0.30373 0.176389,0.24377 0.09701,-0.06 0.176389,-0.26777 0.176389,-0.46179 z m 59.264672,-1.56186 c 0.11945,-0.28839 0.39014,-0.71097 0.60152,-0.93905 0.21139,-0.22809 0.48563,-0.72635 0.60942,-1.10726 0.1238,-0.3809 0.26548,-0.8116 0.31485,-0.95713 0.0494,-0.14552 -0.0699,-0.0667 -0.2651,0.17524 -0.27617,0.34229 -0.3734,0.38141 -0.43847,0.17639 -0.046,-0.14489 -0.16954,-0.53201 -0.27457,-0.86027 -0.11146,-0.34835 -0.14505,-1.0908 -0.0807,-1.78333 0.0745,-0.80195 0.0456,-1.22645 -0.0891,-1.30976 -0.12976,-0.0802 -0.19943,0.0455 -0.19943,0.3597 0,0.64669 -0.37615,1.65453 -0.61752,1.65453 -0.10662,0 -0.28575,-0.0919 -0.39806,-0.20419 -0.15393,-0.15393 -0.26433,-0.15427 -0.44856,-0.001 -0.19396,0.16098 -0.28784,0.10742 -0.45505,-0.25957 -0.11588,-0.25431 -0.25994,-0.41313 -0.32014,-0.35293 -0.0602,0.0602 -0.20684,0.0286 -0.32586,-0.0701 -0.15912,-0.13205 -0.2474,-0.0561 -0.3335,0.28693 -0.0644,0.25659 -0.0934,0.48709 -0.0644,0.51222 0.029,0.0251 0.39361,0.21765 0.81029,0.4278 0.41668,0.21015 1.07152,0.66571 1.4552,1.01235 0.81482,0.73613 0.89065,1.29322 0.34096,2.50463 -0.1919,0.42291 -0.3489,0.87931 -0.3489,1.01424 0,0.42574 0.3013,0.26627 0.52717,-0.27902 z m -58.843402,-3.00344 0.104412,-0.97013 -0.249422,0.61736 c -0.282135,0.69833 -0.365466,1.7524 -0.117831,1.49048 0.08714,-0.0922 0.205414,-0.60413 0.262841,-1.13771 z m 20.334396,0.32642 c 2.022416,-0.75668 3.905296,-3.43341 4.074026,-5.79172 0.0871,-1.21676 0.0832,-1.23022 -0.40829,-1.41708 -0.2729,-0.10375 -0.85889,-0.23173 -1.3022,-0.28438 -0.4433,-0.0527 -1.123508,-0.21562 -1.511564,-0.36214 -0.388055,-0.14653 -1.409712,-0.33281 -2.270348,-0.41397 -1.316607,-0.12415 -1.736251,-0.0952 -2.645833,0.18258 -0.594572,0.18157 -1.398541,0.41366 -1.786596,0.51575 -0.89398,0.23519 -2.798129,1.44114 -3.168841,2.00692 -0.262687,0.40091 -0.255709,0.50303 0.100264,1.46725 0.537861,1.45689 1.647313,3.31258 2.195042,3.67147 1.223769,0.80184 5.068093,1.045 6.72434,0.42532 z m -3.07268,-2.37697 c -0.121268,-0.0525 -0.220486,-0.21768 -0.220486,-0.36699 0,-0.21733 0.05109,-0.22909 0.256118,-0.0589 0.140866,0.11691 0.438522,0.16287 0.661459,0.10213 0.586366,-0.15977 2.787373,-1.20384 2.782249,-1.3198 -0.008,-0.182 -1.241247,-0.71558 -1.653828,-0.71558 -0.22492,0 -0.896559,-0.25148 -1.492532,-0.55885 -1.024295,-0.52827 -1.067792,-0.5763 -0.794952,-0.87778 0.274923,-0.30379 0.69942,-0.28733 0.509629,0.0198 -0.169826,0.27479 1.5821,1.24048 2.250431,1.24048 0.349583,0 0.687688,0.0843 0.751344,0.18727 0.06366,0.103 0.306466,0.25979 0.539577,0.34841 0.713932,0.27144 0.476893,0.58248 -0.969824,1.27259 -1.411826,0.67346 -2.223296,0.89879 -2.619185,0.72729 z m 43.171176,0.18728 c 0,-0.32194 -0.0697,-0.62843 -0.15491,-0.68109 -0.15552,-0.0961 -0.37425,0.69483 -0.37425,1.35329 0,0.29318 0.0444,0.31546 0.26458,0.13274 0.14552,-0.12077 0.26458,-0.48299 0.26458,-0.80494 z m -2.64583,-3.00629 c 0,-0.13514 -0.0794,-0.24571 -0.17639,-0.24571 -0.097,0 -0.17639,0.0332 -0.17639,0.0738 0,0.0406 -0.0485,0.20023 -0.10783,0.35478 -0.0789,0.20568 -0.0316,0.25177 0.17639,0.17195 0.15632,-0.06 0.28422,-0.21964 0.28422,-0.35478 z m -0.96612,-1.29977 c -0.0446,-0.9175 -0.15372,-1.34974 -0.42883,-1.69948 l -0.36894,-0.46904 v 0.43237 c 0,1.11195 0.50215,2.9666 0.80321,2.9666 0.0299,0 0.0275,-0.55371 -0.005,-1.23045 z m 0.96612,0.0839 c 0,-0.14552 -0.0794,-0.26459 -0.17639,-0.26459 -0.097,0 -0.17639,0.11907 -0.17639,0.26459 0,0.14552 0.0794,0.26458 0.17639,0.26458 0.097,0 0.17639,-0.11906 0.17639,-0.26458 z m -0.94151,-2.95452 c -0.0489,-0.12126 -0.089,-0.022 -0.089,0.22049 0,0.24253 0.04,0.34175 0.089,0.22049 0.0489,-0.12127 0.0489,-0.31971 0,-0.44098 z m -0.88195,-0.52916 c -0.0489,-0.12127 -0.089,-0.0221 -0.089,0.22048 0,0.24254 0.04,0.34176 0.089,0.22049 0.0489,-0.12127 0.0489,-0.31971 0,-0.44097 z m -51.880649,-1.67858 c 0.06823,-0.7812 0.04631,-1.09718 -0.06404,-0.92316 -0.09228,0.14552 -0.216515,0.8599 -0.276091,1.5875 -0.07635,0.93247 -0.05745,1.20493 0.06404,0.92316 0.0948,-0.21987 0.219037,-0.93424 0.276091,-1.5875 z m 53.792299,1.01712 c -0.067,-0.30492 -0.16145,-0.51471 -0.20996,-0.4662 -0.0485,0.0485 -0.0334,0.33767 0.0336,0.64259 0.067,0.30491 0.16145,0.5147 0.20995,0.4662 0.0485,-0.0485 0.0334,-0.33768 -0.0336,-0.64259 z m -30.77986,-21.44186 c 0.24254,-0.12412 0.78644,-0.58067 1.20868,-1.01455 l 0.7677,-0.78887 -1.08583,-0.63639 c -0.59721,-0.35001 -1.19242,-0.63639 -1.3227,-0.63639 -0.13027,0 -0.49177,0.29033 -0.80333,0.64518 -0.52214,0.59468 -0.55758,0.7122 -0.45288,1.50146 0.16928,1.27609 0.24295,1.39564 0.78071,1.26694 0.25668,-0.0614 0.66512,-0.21325 0.90765,-0.33738 z m 2.38125,-1.13592 c 0.06,-0.097 -0.01,-0.17639 -0.15557,-0.17639 -0.14552,0 -0.31363,0.0794 -0.37359,0.17639 -0.06,0.097 0.0101,0.17639 0.15557,0.17639 0.14552,0 0.31364,-0.0794 0.37359,-0.17639 z m 30.27995,26.43388 c 0.0324,-0.22908 0.13832,-0.39667 0.23533,-0.37242 0.26038,0.0651 0.2144,0.61939 -0.0589,0.7105 -0.16134,0.0538 -0.2168,-0.0525 -0.17639,-0.33808 z M 98.521828,119.62736 c -0.419913,-0.26701 -0.615692,-1.23319 -0.713565,-3.52149 -0.07277,-1.70144 -0.0448,-2.33715 0.102846,-2.33715 0.136233,0 0.207694,0.50665 0.217693,1.5434 0.03075,3.18818 0.384907,4.37149 1.180878,3.9455 0.196955,-0.1054 0.424565,-0.48605 0.511301,-0.85506 0.130715,-0.55613 0.239379,-0.67467 0.663279,-0.72356 0.27882,-0.0322 0.80779,0.0772 1.17548,0.24299 0.3677,0.16581 0.79187,0.25414 0.94261,0.1963 0.17116,-0.0657 0.27407,-0.008 0.27407,0.15388 0,0.33039 -0.6522,0.32746 -1.23472,-0.006 -0.24254,-0.13864 -0.65566,-0.25489 -0.91805,-0.25833 -0.40795,-0.005 -0.49398,0.0838 -0.59371,0.61543 -0.164566,0.87722 -0.993396,1.3945 -1.608112,1.00363 z m 9.105142,-3.68521 c -0.22425,-0.58983 -0.0245,-2.80555 0.27538,-3.05442 0.15366,-0.12753 0.44772,-0.0772 0.99173,0.16959 1.07106,0.48597 2.56006,0.48149 3.08245,-0.009 0.32598,-0.30624 0.4554,-0.33375 0.7723,-0.16415 0.49303,0.26386 0.75996,0.0468 1.4534,-1.18192 0.54001,-0.95685 0.84502,-1.2888 0.84502,-0.91966 0,0.35574 -1.06197,2.08699 -1.44456,2.35497 -0.23912,0.16749 -0.49125,0.20455 -0.74226,0.10912 -0.27147,-0.10321 -0.49786,-0.0492 -0.7919,0.18889 -0.57943,0.46919 -2.26269,0.45621 -3.2054,-0.0247 -0.85248,-0.4349 -0.92028,-0.3383 -0.94396,1.34493 -0.0129,0.91794 0.0463,1.16026 0.33711,1.38059 0.34831,0.26385 0.3477,0.2673 -0.0485,0.27284 -0.27559,0.004 -0.45749,-0.14233 -0.58085,-0.46679 z"
       id="path1" /></g></svg>
