<?xml version="1.0" encoding="UTF-8" standalone="no"?>
<!-- Created with Inkscape (http://www.inkscape.org/) -->

<svg
   width="68.053314mm"
   height="77.933189mm"
   viewBox="0 0 68.053316 77.93319"
   version="1.1"
   id="svg1"
   xml:space="preserve"
   inkscape:version="1.3 (0e150ed, 2023-07-21)"
   sodipodi:docname="listening.svg"
   xmlns:inkscape="http://www.inkscape.org/namespaces/inkscape"
   xmlns:sodipodi="http://sodipodi.sourceforge.net/DTD/sodipodi-0.dtd"
   xmlns="http://www.w3.org/2000/svg"
   xmlns:svg="http://www.w3.org/2000/svg"><sodipodi:namedview
     id="namedview1"
     pagecolor="#ffffff"
     bordercolor="#000000"
     borderopacity="0.25"
     inkscape:showpageshadow="2"
     inkscape:pageopacity="0.0"
     inkscape:pagecheckerboard="0"
     inkscape:deskcolor="#d1d1d1"
     inkscape:document-units="mm"
     inkscape:zoom="0.92240536"
     inkscape:cx="129.01053"
     inkscape:cy="147.98266"
     inkscape:window-width="1312"
     inkscape:window-height="576"
     inkscape:window-x="0"
     inkscape:window-y="25"
     inkscape:window-maximized="0"
     inkscape:current-layer="layer1" /><defs
     id="defs1" /><g
     inkscape:label="Layer 1"
     inkscape:groupmode="layer"
     id="layer1"
     transform="translate(-70.079295,-113.33606)"><path
       style="fill:#000000"
       d="m 103.141,191.1017 c -0.58208,-0.0851 -2.7649,-0.22126 -4.850694,-0.30247 l -3.792361,-0.14764 -2.38125,-0.80126 c -1.309687,-0.4407 -3.175,-0.93145 -4.145138,-1.09057 -2.85307,-0.46796 -3.452614,-0.84687 -6.724946,-4.25022 -2.99909,-3.11916 -3.76453,-4.21772 -4.126181,-5.9219 -0.229915,-1.08341 -0.312389,-1.18621 -0.667068,-0.83154 -0.164629,0.16463 -0.211666,0.11003 -0.211666,-0.24571 0,-0.43867 -0.277546,-0.67151 -0.800449,-0.67151 -0.178589,0 -0.256077,0.33676 -0.294254,1.27882 -0.05053,1.24697 -0.353274,1.72219 -0.45297,0.71104 -0.111767,-1.13358 -0.200676,-1.30503 -0.57333,-1.10559 -0.257051,0.13757 -0.348442,0.3699 -0.348442,0.88583 0,0.89614 -0.297136,0.8942 -0.674557,-0.004 -0.341247,-0.81248 -0.412987,-0.84798 -0.65063,-0.32188 -0.269338,0.59626 -0.595934,0.58254 -0.855994,-0.036 l -0.236809,-0.5632 -0.09909,0.73878 c -0.1136,0.84695 -0.232768,1.02895 -0.499233,0.76249 -0.111645,-0.11165 -0.214348,-1.32675 -0.252454,-2.98685 -0.03533,-1.53925 -0.145858,-3.11614 -0.245612,-3.5042 -0.232685,-0.90518 -0.238846,-1.67569 -0.0134,-1.67569 0.09701,0 0.176389,0.13229 0.176389,0.29398 0,0.5669 0.281774,-0.0313 0.339282,-0.72025 0.0074,-0.0889 0.07067,-0.10452 0.140549,-0.0346 0.06988,0.0699 0.111771,0.42045 0.09309,0.77905 l -0.03396,0.652 0.194189,-0.50907 c 0.142185,-0.37274 0.140459,-0.75063 -0.0064,-1.41111 -0.301002,-1.35328 -0.554477,-4.40756 -0.380262,-4.58202 0.400638,-0.40121 0.756163,0.47628 0.990722,2.44525 0.09263,0.77754 0.162671,0.96474 0.264003,0.70556 0.229186,-0.5862 0.17887,-2.6402 -0.09147,-3.73402 -0.314075,-1.27077 -0.4301,-3.39175 -0.18678,-3.41439 0.178697,-0.0166 0.484168,1.1628 0.698784,2.698 0.147369,1.05417 0.377179,0.93958 0.537893,-0.26819 0.06776,-0.50922 0.34712,-2.27522 0.620802,-3.92446 0.273682,-1.64923 0.553417,-3.73283 0.621633,-4.6302 0.06822,-0.89738 0.193167,-1.6316 0.277667,-1.6316 0.0845,0 0.153638,0.16343 0.153638,0.36319 0,0.19975 0.07976,0.31389 0.177256,0.25363 0.09749,-0.0602 0.17416,-0.44197 0.170376,-0.84825 -0.01235,-1.32615 0.215594,-3.64913 0.358073,-3.64913 0.139275,0 0.280689,-0.72586 0.463918,-2.38125 0.09369,-0.84642 0.417877,-1.558 0.417877,-0.91722 0,0.16492 0.07786,0.29986 0.173028,0.29986 0.173328,0 0.248104,-0.24433 0.437102,-1.42823 0.07016,-0.43946 0.230527,-0.69337 0.52176,-0.82606 0.552243,-0.25162 0.754349,-0.9711 0.877994,-3.12557 0.132506,-2.30888 0.22057,-2.61159 0.723055,-2.48548 0.377646,0.0948 0.396321,0.0392 0.513883,-1.5303 0.149478,-1.99557 0.248975,-2.42241 0.564661,-2.42241 0.135004,0 0.245461,-0.12568 0.245461,-0.27929 0,-0.41882 0.432161,-0.19411 0.498687,0.2593 0.04764,0.32471 0.103071,0.35571 0.317608,0.17766 0.214463,-0.17798 0.281001,-0.14124 0.380637,0.21019 0.105316,0.37147 0.1334,0.33574 0.219812,-0.27967 0.05449,-0.38805 0.04542,-0.82462 -0.02015,-0.97014 -0.115128,-0.2555 0.207322,-1.8391 0.417212,-2.04899 0.267226,-0.26722 0.480623,0.22225 0.494113,1.13336 l 0.01486,1.00383 0.319867,-0.70556 c 0.175928,-0.38805 0.579707,-1.33557 0.897289,-2.10559 0.457492,-1.10925 0.605207,-1.32906 0.711205,-1.05833 0.212438,0.54259 0.178701,0.95906 -0.07769,0.95906 -0.221681,0 -0.645674,0.69855 -0.645674,1.06378 0,0.0909 0.278184,0.0326 0.618187,-0.12956 0.401882,-0.19164 0.926437,-0.74069 1.499146,-1.56914 0.855092,-1.23694 0.922839,-1.29035 2.3073,-1.81902 0.784487,-0.29957 1.509409,-0.54467 1.610937,-0.54467 0.101527,0 0.432089,-0.15149 0.734582,-0.33664 0.302493,-0.18516 0.907174,-0.4304 1.343737,-0.54499 0.436562,-0.11459 1.200569,-0.43951 1.697793,-0.72205 0.497224,-0.28254 1.290974,-0.56472 1.763889,-0.62706 0.472915,-0.0624 1.39995,-0.38286 2.060078,-0.71226 0.660128,-0.32939 1.758809,-0.72503 2.441514,-0.87921 0.859896,-0.19419 1.466636,-0.46029 1.974766,-0.86609 0.40342,-0.32217 1.06793,-0.80801 1.4767,-1.07964 0.83205,-0.5529 0.93506,-0.75845 0.3801,-0.75845 -0.20759,0 -0.71427,-0.33829 -1.13133,-0.75534 -0.9096,-0.9096 -1.13774,-1.75604 -0.74369,-2.75919 0.23211,-0.5909 0.23212,-0.79127 1.3e-4,-1.74092 -0.31251,-1.27922 -0.21735,-1.76471 0.50781,-2.59062 0.5841,-0.66526 1.23197,-0.80826 1.72918,-0.38169 0.15316,0.13141 0.68156,0.4541 1.17422,0.71711 l 0.89575,0.47819 0.86814,-0.53775 c 0.95653,-0.59249 2.01467,-0.88962 2.01467,-0.56573 0,0.10914 -0.10639,0.19844 -0.23641,0.19844 -0.13003,0 -0.72493,0.24411 -1.322,0.54248 -0.97367,0.48654 -1.06624,0.57863 -0.89788,0.89322 0.2373,0.44339 -0.0234,0.79283 -0.7027,0.94203 -0.26883,0.059 -0.91819,0.39339 -1.44302,0.74298 -0.52483,0.34959 -1.19156,0.6865 -1.48162,0.74869 -1.17994,0.253 -1.2646,1.89717 -0.15614,3.03234 0.68924,0.70584 1.07901,0.83429 1.43905,0.47426 0.30991,-0.30991 0.48103,-0.0251 0.19565,0.32568 -0.21964,0.26993 -0.2083,0.28738 0.10715,0.16494 0.19403,-0.0753 0.86872,-0.21042 1.49931,-0.30026 0.63059,-0.0898 1.75958,-0.32089 2.50887,-0.51346 0.74928,-0.19257 1.70178,-0.34996 2.11666,-0.34976 0.41488,1.9e-4 1.43904,-0.12531 2.27591,-0.2789 1.69016,-0.3102 1.52414,-0.33768 4.66358,0.77193 1.0735,0.37942 2.26412,0.74818 2.64583,0.81947 0.87026,0.16253 2.41186,0.85986 3.15647,1.4278 0.31198,0.23796 0.60421,0.39568 0.6494,0.35049 0.0452,-0.0452 0.47476,0.24507 0.95459,0.64502 0.47984,0.39995 1.38837,1.06435 2.01896,1.47644 1.67014,1.09143 1.9107,1.42401 2.66376,3.68266 0.41881,1.2561 1.05042,2.65749 1.65287,3.66732 0.53627,0.8989 0.97504,1.73412 0.97504,1.85603 0,0.12191 0.1534,0.22166 0.34089,0.22166 0.35908,0 0.44626,0.17892 0.64453,1.32291 0.0673,0.38806 0.19187,0.89278 0.27691,1.1216 0.12764,0.34344 0.20029,0.37815 0.41629,0.19889 0.43081,-0.35754 0.29195,-1.58507 -0.17931,-1.58507 -0.27278,0 -0.44036,-0.3894 -0.4427,-1.02866 -0.003,-0.78478 -0.78722,-2.21563 -1.59226,-2.90472 -0.92014,-0.78761 -0.79425,-1.10967 0.13958,-0.35708 0.89828,0.72395 1.65369,1.99251 1.76277,2.96019 0.10622,0.94245 0.39719,1.07705 0.39719,0.18374 0,-0.6857 0.15931,-0.77073 0.57775,-0.30836 0.35394,0.39111 0.59999,1.02717 1.03972,2.68781 0.1924,0.72662 0.41653,1.4015 0.49806,1.49974 0.16802,0.20245 0.1487,4.14632 -0.0203,4.14643 -0.0603,4e-5 -0.14945,-0.85321 -0.19811,-1.89611 -0.0487,-1.04289 -0.16795,-2.09461 -0.26507,-2.33715 -0.12471,-0.31143 -0.14985,0.27152 -0.0856,1.98438 0.0814,2.16834 0.0603,2.42534 -0.19856,2.42534 -0.15928,0 -0.2896,0.12756 -0.2896,0.28346 0,0.17674 0.0975,0.24605 0.25894,0.18409 0.14241,-0.0547 0.30124,-0.0309 0.35295,0.0528 0.0517,0.0837 0.25269,0.11064 0.44662,0.0599 0.25699,-0.0672 0.3526,-0.005 0.3526,0.22823 0,0.24923 0.047,0.2734 0.21167,0.10877 0.38762,-0.38763 0.67017,-0.23578 0.67285,0.36159 0.001,0.3153 0.11217,0.89077 0.24613,1.27882 0.27766,0.80432 0.24487,3.07561 -0.0556,3.84794 -0.25222,0.64842 -0.25184,0.64998 0.15963,0.64998 0.54002,0 0.44166,0.49214 -0.45728,2.28786 -0.73402,1.46627 -0.78259,1.63824 -0.51747,1.8321 0.16093,0.11767 0.33983,0.56835 0.39756,1.00151 0.0577,0.43315 0.22016,0.87241 0.36095,0.97611 0.21243,0.15648 0.25215,0.90461 0.23348,4.39765 -0.0124,2.31501 -0.0557,4.24233 -0.0963,4.28293 -0.0406,0.0406 -0.16861,0.0152 -0.28446,-0.0563 -0.1541,-0.0952 -0.18358,-0.72719 -0.10987,-2.35482 l 0.10076,-2.22464 -0.40238,2.55764 c -0.22131,1.4067 -0.50263,2.9746 -0.62515,3.48422 -0.39731,1.65265 -0.88234,1.38964 -0.89553,-0.48561 -0.01,-1.36736 -0.25042,-1.1118 -0.41551,0.44097 -0.0619,0.58209 -0.36454,2.58934 -0.67255,4.46056 -0.40217,2.4432 -0.62103,3.37881 -0.77645,3.31917 -0.21276,-0.0816 -0.41477,1.0403 -0.70101,3.89324 -0.0696,0.69413 -0.19961,1.12428 -0.35807,1.18509 -0.13681,0.0525 -0.24875,0.25669 -0.24875,0.45377 0,0.43977 -0.28384,0.46798 -0.49946,0.0496 -0.0875,-0.16977 -0.26368,-1.08626 -0.3915,-2.03663 -0.25126,-1.86808 -0.3533,-1.88661 -0.68373,-0.12413 -0.11823,0.63059 -0.25036,1.32512 -0.29363,1.5434 -0.11461,0.57814 -0.70754,0.5178 -0.86655,-0.0882 -0.12176,-0.46403 -0.13812,-0.44873 -0.37724,0.35278 -0.13747,0.46082 -0.32693,0.83785 -0.421,0.83785 -0.0941,0 -0.17106,0.19844 -0.17106,0.44097 0,0.59112 -0.3143,0.56185 -0.47349,-0.0441 -0.17166,-0.6534 -0.17811,-6.00509 -0.008,-6.61458 0.0745,-0.26679 0.0744,-0.48441 -2.4e-4,-0.48361 -0.1598,0.002 -0.57789,0.74498 -2.0332,3.61451 -2.0303,4.00329 -3.16033,5.454 -6.03996,7.75402 -0.87312,0.69738 -2.405,2.04218 -3.40418,2.98845 -0.99917,0.94626 -2.15327,1.86937 -2.56466,2.05135 -0.41139,0.18197 -1.49888,0.42005 -2.41665,0.52904 -0.91777,0.109 -2.56865,0.3111 -3.66862,0.44912 -2.18811,0.27455 -3.26787,0.28558 -4.87922,0.0499 z m 5.3297,-0.7558 c 1.04623,-0.13822 2.49756,-0.30296 3.22516,-0.36608 1.91503,-0.16612 2.60381,-0.54502 4.73538,-2.60492 1.03356,-0.99881 2.35545,-2.20571 2.93754,-2.68199 1.54281,-1.2624 3.20205,-2.88819 3.87519,-3.79708 0.32333,-0.43657 1.31979,-2.14313 2.21436,-3.79236 0.89457,-1.64924 2.05096,-3.6733 2.56975,-4.49792 1.24458,-1.97827 1.77966,-3.34356 2.12661,-5.42615 0.15737,-0.94468 0.43414,-2.0121 0.61504,-2.37203 0.25629,-0.50993 0.32971,-1.0552 0.33253,-2.46945 0.002,-0.99825 0.12008,-3.00563 0.26242,-4.46084 0.14234,-1.45521 0.25978,-2.72238 0.26096,-2.81593 0.001,-0.0935 0.12531,-0.0469 0.27583,0.10358 0.24692,0.24692 0.24743,0.57322 0.005,3.33955 -0.49585,5.66279 -1.37281,10.51889 -2.22501,12.32088 -0.46701,0.98748 -0.52041,1.28365 -0.53769,2.98178 -0.0183,1.79528 0.20684,3.11377 0.4273,2.50278 0.2952,-0.81813 1.1676,-6.48187 1.17314,-7.61622 8e-4,-0.16285 0.12039,-0.41502 0.26575,-0.56039 0.36174,-0.36174 0.79403,-2.52657 0.79403,-3.97634 0,-1.33196 0.30961,-3.18718 0.57701,-3.45747 0.11524,-0.11649 0.14029,0.0496 0.0738,0.48902 -0.12025,0.79446 0.14634,0.72048 0.33938,-0.0942 0.0745,-0.31418 0.12879,-0.61093 0.12076,-0.65943 -0.2265,-1.3667 -0.23812,-1.5875 -0.0836,-1.5875 0.097,0 0.22695,0.29928 0.28875,0.66506 0.19161,1.13414 0.3966,1.23049 0.53148,0.24981 0.15103,-1.09815 -0.003,-1.73033 -0.35181,-1.44109 -0.17467,0.14496 -0.33588,0.14579 -0.60253,0.003 -0.29699,-0.15894 -0.36356,-0.36427 -0.36139,-1.11467 0.001,-0.50591 0.11594,-1.23733 0.25439,-1.62539 l 0.25174,-0.70555 0.12117,0.57693 c 0.0666,0.31731 0.17826,0.61223 0.24806,0.65536 0.21992,0.13592 0.88587,-0.61218 0.88587,-0.99515 0,-0.27414 0.0851,-0.34424 0.33756,-0.27821 0.36974,0.0967 0.53772,-0.26914 0.54198,-1.18031 l 0.002,-0.51581 -0.40685,0.38222 c -0.53539,0.50297 -1.7813,0.663 -2.9717,0.38169 -1.304,-0.30815 -1.77407,-0.49929 -1.66439,-0.67676 0.0515,-0.0833 0.51265,-0.007 1.02485,0.1703 1.76981,0.61134 3.20356,0.34873 4.08344,-0.74791 0.26238,-0.32702 0.45423,-0.48544 0.42634,-0.35204 -0.11746,0.56174 0.32837,0.30795 0.63856,-0.36352 0.18507,-0.40062 0.46479,-0.85669 0.6216,-1.0135 0.1568,-0.1568 0.38756,-0.60069 0.51281,-0.98642 0.12524,-0.38572 0.26886,-0.80054 0.31914,-0.9218 0.0503,-0.12127 0.0147,-0.22049 -0.0791,-0.22049 -0.0938,0 -0.21412,0.16674 -0.26741,0.37052 -0.0533,0.20379 -0.17185,0.32421 -0.26346,0.26759 -0.33672,-0.20811 -0.56547,-1.69355 -0.4508,-2.92737 0.0817,-0.87887 0.0565,-1.23852 -0.0866,-1.23852 -0.11094,0 -0.20171,0.20099 -0.20171,0.44664 0,0.566 -0.45469,1.67003 -0.68779,1.67003 -0.0971,0 -0.26455,-0.13891 -0.37202,-0.30868 -0.13992,-0.22105 -0.22169,-0.24609 -0.28805,-0.0882 -0.15211,0.36197 -0.59242,0.24962 -0.59242,-0.15116 0,-0.24328 -0.084,-0.33943 -0.24309,-0.27837 -0.1337,0.0513 -0.32972,0.007 -0.4356,-0.0992 -0.13908,-0.13908 -0.23886,-0.0741 -0.35955,0.23427 -0.12782,0.32655 -0.10209,0.4682 0.10956,0.60316 1.75384,1.11844 2.46337,1.66261 2.68135,2.05646 0.23103,0.41743 0.22691,0.56281 -0.0374,1.32292 l -0.29696,0.85396 0.0945,-0.99201 c 0.0945,-0.99136 0.094,-0.99243 -0.66505,-1.65221 -1.01876,-0.88549 -1.80864,-1.20372 -2.92737,-1.17936 -0.56209,0.0122 -0.89108,-0.0477 -0.82744,-0.15063 0.0581,-0.094 0.0325,-0.17093 -0.0569,-0.17093 -0.0894,0 -0.46218,-0.23813 -0.82841,-0.52917 -0.36623,-0.29104 -0.78508,-0.52917 -0.93079,-0.52917 -0.1457,0 -0.65512,-0.24009 -1.13204,-0.53354 -0.47691,-0.29345 -0.93347,-0.49253 -1.01457,-0.44241 -0.26728,0.16519 -1.72546,-0.60046 -2.03065,-1.06624 -0.16459,-0.25119 -0.57089,-0.57021 -0.90289,-0.70893 -0.33201,-0.13872 -0.60365,-0.37022 -0.60365,-0.51444 0,-0.14422 -0.0794,-0.26221 -0.17638,-0.26221 -0.10132,0 -0.17667,0.5443 -0.17705,1.27882 -5.1e-4,0.98419 -0.0859,1.42105 -0.37076,1.89618 -0.57699,0.96246 -1.21751,1.56114 -1.90664,1.78211 -0.3478,0.11152 -0.75259,0.3072 -0.89955,0.43484 -0.80664,0.70062 -4.26644,0.90122 -6.28466,0.36439 -0.59609,-0.15856 -1.45268,-0.28829 -1.90354,-0.28829 -0.54322,0 -1.20471,-0.17999 -1.961,-0.53358 -1.26103,-0.58958 -1.9158,-1.3244 -2.66804,-2.9942 -0.46821,-1.03933 -0.75797,-2.82222 -0.45867,-2.82222 0.097,0 0.22026,0.42513 0.27389,0.94473 0.10445,1.01203 0.86787,2.7064 1.62462,3.60574 0.61934,0.73605 2.21318,1.44675 3.2445,1.44675 0.44973,0 1.09499,0.0844 1.43389,0.18763 0.33891,0.1032 1.44964,0.2579 2.46828,0.34378 1.93622,0.16324 2.9867,-0.0257 4.07951,-0.73369 0.23013,-0.14909 0.61731,-0.31997 0.86041,-0.37972 0.2431,-0.0598 0.75314,-0.42729 1.13342,-0.81673 0.72886,-0.74643 0.93968,-1.48625 0.96934,-3.40166 0.01,-0.61875 0.0961,-0.87617 0.33794,-1.0056 0.27208,-0.14562 0.57242,0.069 1.84282,1.31671 1.06592,1.0469 1.6457,1.49067 1.94756,1.49067 0.49241,0 3.13998,1.27892 3.46948,1.67594 0.12066,0.14539 0.33267,0.26434 0.47113,0.26434 0.13846,0 0.50002,0.12839 0.80346,0.28531 0.51665,0.26716 0.56655,0.26502 0.78499,-0.0337 0.31264,-0.42755 0.29579,-1.0718 -0.0313,-1.19732 -0.14552,-0.0558 -0.26458,-0.19189 -0.26458,-0.30233 0,-0.11043 0.11906,-0.1551 0.26458,-0.0993 0.34621,0.13285 0.34931,-0.66842 0.0108,-2.79782 -0.13878,-0.87312 -0.34511,-2.54 -0.4585,-3.70416 -0.31881,-3.27325 -0.45818,-3.80549 -1.41206,-5.39261 -0.91498,-1.52239 -1.53543,-2.94052 -2.01471,-4.60497 -0.37514,-1.30277 -0.73573,-1.73624 -2.26744,-2.72569 -0.69654,-0.44995 -1.82047,-1.29548 -2.49762,-1.87895 -1.22375,-1.05444 -3.37153,-2.24252 -4.05551,-2.24336 -0.19676,-2.5e-4 -1.31025,-0.33221 -2.47442,-0.7377 -1.70869,-0.59516 -2.35465,-0.73696 -3.35139,-0.73571 -2.27606,0.003 -4.34875,0.30911 -8.88208,1.3124 -0.42251,0.0935 -1.12294,0.42605 -1.55653,0.73899 -2.58798,1.86788 -2.83788,2.01136 -3.858631,2.21539 -0.576725,0.11527 -1.615857,0.48935 -2.309182,0.83128 -0.693325,0.34192 -1.692821,0.69203 -2.221102,0.77801 -0.547657,0.0891 -1.328504,0.3897 -1.816651,0.69927 -0.470877,0.29863 -0.999138,0.54295 -1.173914,0.54295 -0.174775,0 -0.821766,0.23813 -1.437757,0.52917 -0.61599,0.29104 -1.208822,0.52917 -1.317402,0.52917 -0.108581,0 -0.458082,0.11248 -0.776668,0.24997 -0.318587,0.13749 -0.840579,0.34694 -1.159982,0.46547 -0.406071,0.15068 -0.830481,0.58116 -1.411111,1.4313 -0.654753,0.95867 -1.05758,1.34369 -1.904618,1.82046 -1.181199,0.66484 -1.035751,0.40627 -2.580587,4.58766 -0.492277,1.33244 -1.546352,5.91209 -1.547921,6.72527 -3.98e-4,0.20641 -0.119786,0.47409 -0.265307,0.59486 -0.327295,0.27164 -0.331406,0.36629 0.07097,-1.63394 0.218274,-1.08506 0.288569,-1.87704 0.201128,-2.26601 -0.114093,-0.50753 -0.15345,-0.54461 -0.260233,-0.24518 -0.06919,0.19402 -0.194351,0.48253 -0.278124,0.64113 -0.08377,0.1586 -0.107774,0.45868 -0.05334,0.66685 0.05444,0.20817 -0.06452,0.87216 -0.264343,1.47553 -0.199827,0.60337 -0.388313,1.29548 -0.418858,1.53801 -0.04359,0.34612 -0.142205,0.42889 -0.458451,0.38477 -0.682388,-0.0952 -1.40853,0.33809 -1.52262,0.90854 -0.189782,0.94891 -0.146771,1.09409 0.22457,0.75804 0.180129,-0.16302 0.783365,-0.45661 1.340525,-0.65244 0.55716,-0.19583 1.223375,-0.5104 1.480479,-0.69904 0.257104,-0.18865 0.868471,-0.41826 1.358593,-0.51025 0.490123,-0.092 1.306655,-0.33103 1.814516,-0.53121 0.507862,-0.20018 1.138727,-0.37011 1.401924,-0.37763 0.263197,-0.008 0.875414,-0.15288 1.360484,-0.32302 0.657755,-0.2307 0.896615,-0.4092 0.939659,-0.70218 0.04445,-0.30255 0.111072,-0.34855 0.289881,-0.20015 0.176073,0.14612 0.565156,-0.0207 1.610375,-0.69033 0.863673,-0.55335 1.732997,-0.95667 2.328527,-1.0803 0.522676,-0.10851 1.21808,-0.30916 1.545343,-0.4459 0.998754,-0.41731 3.407596,-0.3236 4.944592,0.19235 0.722498,0.24254 1.535947,0.44098 1.807664,0.44098 0.271718,0 0.865182,0.12646 1.318812,0.28103 l 0.82478,0.28103 -0.10542,0.99779 c -0.16449,1.55694 -0.40642,2.31764 -1.13296,3.56236 -1.413729,2.42204 -3.226163,3.52084 -5.807492,3.52084 -1.731194,0 -3.913315,-0.40612 -4.659291,-0.86716 -0.661204,-0.40865 -1.681378,-2.05563 -2.338498,-3.77529 -0.454496,-1.1894 -0.473317,-1.21012 -1.01453,-1.11689 -1.368987,0.23584 -2.556629,0.53778 -3.324351,0.84517 -0.457947,0.18336 -1.205974,0.38455 -1.662283,0.4471 -0.58991,0.0808 -1.016193,0.28224 -1.475204,0.69693 -0.480901,0.43447 -0.696528,0.53225 -0.845409,0.38336 -0.28658,-0.28658 -1.546798,0.31536 -2.003743,0.95708 -1.086514,1.52587 -0.08949,3.69466 1.451529,3.15746 0.313329,-0.10922 0.815814,-0.19432 1.116632,-0.18911 0.447083,0.008 0.353714,0.0717 -0.511391,0.35018 -1.368145,0.44043 -1.380601,0.43934 -2.089717,-0.18327 -0.331479,-0.29104 -0.645312,-0.52917 -0.697409,-0.52917 -0.0521,0 -0.185272,0.37703 -0.295947,0.83785 -0.110674,0.46081 -0.245636,1.01758 -0.299916,1.23726 -0.07801,0.31572 -0.03884,0.37645 0.186941,0.28981 0.157097,-0.0603 0.285632,-0.18517 0.285632,-0.27753 0,-0.0924 0.07353,-0.12249 0.163393,-0.0669 0.09446,0.0584 0.102133,0.31459 0.01818,0.60732 -0.07987,0.27848 -0.07751,1.091 0.0052,1.8056 0.08276,0.7146 0.153949,1.45406 0.158209,1.64324 0.01214,0.53929 0.290912,0.10091 0.49914,-0.78493 0.102619,-0.43657 0.242242,-1.34938 0.310274,-2.02848 0.144397,-1.44136 0.294813,-1.80067 0.443039,-1.05833 l 0.10566,0.52917 0.192411,-0.44097 c 0.105825,-0.24254 0.238327,-0.58578 0.294448,-0.76276 0.09284,-0.29279 0.127067,-0.29676 0.379727,-0.0441 0.190208,0.19021 0.607132,0.27769 1.323423,0.27769 0.650258,0 1.045734,0.0742 1.045734,0.19629 0,0.13202 -0.402956,0.17353 -1.230648,0.12676 -1.390491,-0.0786 -1.409135,-0.0624 -1.4257,1.23478 -0.01184,0.92715 -0.06886,1.2774 -0.851946,5.23314 -1.2675,6.40274 -1.439778,7.37082 -1.621833,9.11357 -0.200192,1.91638 -0.138542,3.02773 0.296799,5.35032 0.977165,5.21328 1.453697,6.81795 2.373001,7.99085 0.205114,0.2617 1.512283,1.63831 2.90482,3.05914 2.991041,3.05181 3.530367,3.37528 6.476123,3.88416 1.092863,0.18879 2.939523,0.66907 4.10369,1.06729 l 2.116666,0.72403 3.704167,0.14804 c 2.03729,0.0814 4.06136,0.21747 4.49792,0.30234 1.25134,0.24325 3.69904,0.22083 5.77067,-0.0529 z m -7.35817,-2.48271 c -0.32874,-0.24254 -0.72119,-0.44213 -0.87212,-0.44354 -0.48849,-0.005 -1.852163,-0.54361 -2.214687,-0.87544 -0.422831,-0.38702 -1.516649,-0.70716 -2.420817,-0.70851 -0.548586,-8.2e-4 -0.701312,-0.0868 -0.926042,-0.52139 -0.305298,-0.59038 -0.34238,-0.89071 -0.109979,-0.89071 0.08752,0 0.242144,0.23813 0.343602,0.52917 0.154499,0.4432 0.279092,0.52948 0.766908,0.53108 0.834897,0.003 2.076578,0.41468 2.867263,0.95125 0.375079,0.25454 0.991844,0.51235 1.370591,0.57291 0.378751,0.0606 0.964901,0.2976 1.302571,0.52674 0.7535,0.51134 1.53312,0.52968 2.71493,0.0639 0.49225,-0.19402 1.11035,-0.3538 1.37354,-0.35505 0.88769,-0.004 2.75696,-0.70627 3.3122,-1.24398 0.29734,-0.28794 0.80802,-0.60022 1.13485,-0.69395 0.74507,-0.21369 0.93051,-0.0761 0.24519,0.18188 -0.28024,0.10551 -0.78734,0.45245 -1.12689,0.77099 -0.60681,0.56926 -2.55211,1.33749 -3.39919,1.34239 -0.21624,0.001 -0.89634,0.16 -1.51132,0.35278 -1.48483,0.46544 -2.12462,0.44514 -2.8506,-0.0905 z m 1.46956,-18.59786 c -0.40442,-0.18362 -0.78145,-0.28771 -0.83785,-0.23131 -0.0564,0.0564 -0.10254,0.01 -0.10254,-0.10324 0,-0.27432 0.39056,-0.25973 1.09644,0.041 0.31859,0.13571 0.77769,0.32878 1.02022,0.42904 l 0.44097,0.18228 -0.44097,0.008 c -0.24253,0.004 -0.77186,-0.14218 -1.17627,-0.3258 z m 5.23322,-1.60856 c -0.93576,-0.22761 -5.30978,-0.84097 -7.49653,-1.05123 -2.075699,-0.19958 -2.55764,-0.29541 -2.55764,-0.50856 0,-0.0741 0.853281,-0.0305 1.89618,0.097 1.0429,0.12751 2.72962,0.31612 3.74826,0.41913 1.01865,0.10301 2.1299,0.25554 2.46945,0.33895 0.33955,0.0834 1.29205,0.25155 2.11666,0.37364 0.82462,0.12209 1.57472,0.28843 1.66688,0.36965 0.21196,0.18678 -1.02298,0.16091 -1.84326,-0.0386 z m -10.724448,-6.37539 c -0.116417,-0.11641 -0.211667,-0.39782 -0.211667,-0.62535 0,-0.43238 -0.144502,-0.44246 -1.71835,-0.11996 -0.27107,0.0556 -0.518756,-0.0608 -0.787552,-0.36994 -0.215664,-0.24804 -0.73607,-0.53758 -1.156458,-0.64344 -0.556232,-0.14006 -0.748182,-0.27022 -0.704996,-0.47807 0.06031,-0.29025 0.318065,-0.32227 1.071726,-0.13311 0.329504,0.0827 0.462272,0.0123 0.617017,-0.32737 0.260099,-0.57086 1.01733,-0.75586 1.63734,-0.40002 0.462677,0.26554 0.496312,0.25521 1.058751,-0.32508 0.694916,-0.71697 1.092326,-0.75229 1.65334,-0.14695 0.410583,0.44303 0.431016,0.4463 0.988324,0.1581 0.38542,-0.1993 0.781863,-0.26025 1.228423,-0.18884 0.56701,0.0907 0.69915,0.0447 0.94353,-0.32828 0.1563,-0.23855 0.44881,-0.52183 0.65002,-0.62951 0.30832,-0.16501 0.38046,-0.13989 0.45881,0.15972 0.0741,0.28325 0.29549,0.37998 1.08937,0.47593 0.54802,0.0662 1.09327,0.19778 1.21167,0.29232 0.12182,0.0973 0.58663,0.12082 1.07072,0.0542 0.64725,-0.089 0.90783,-0.0545 1.07072,0.14174 0.16349,0.19699 0.46797,0.23648 1.26568,0.16415 0.88097,-0.0799 1.21522,-0.0213 2.07231,0.36336 0.63138,0.28335 1.17576,0.41838 1.42446,0.35334 0.2638,-0.069 0.57813,0.0246 0.91198,0.27138 0.28019,0.20715 0.62322,0.37664 0.76229,0.37664 0.35327,0 0.51616,0.52197 0.25942,0.83131 -0.25673,0.30934 -1.11774,0.18296 -1.57543,-0.23124 -0.28082,-0.25414 -0.352,-0.2443 -0.83927,0.11596 l -0.53243,0.39364 -0.95377,-0.46664 c -0.52458,-0.25665 -1.03417,-0.46664 -1.13243,-0.46664 -0.0983,0 -0.48722,0.24526 -0.86436,0.54503 -0.58535,0.46526 -0.77608,0.5267 -1.30308,0.41981 -0.33955,-0.0689 -1.07635,-0.14542 -1.63735,-0.17012 -0.64071,-0.0282 -1.13779,-0.15151 -1.3368,-0.33161 -0.38344,-0.34701 -0.55362,-0.36404 -0.55362,-0.0554 0,0.12723 -0.16185,0.40504 -0.35965,0.61736 -0.44507,0.47773 -1.36668,0.51091 -1.95372,0.0703 -0.23136,-0.17364 -0.62868,-0.40538 -0.88292,-0.51499 -0.424741,-0.18312 -0.524347,-0.13602 -1.22735,0.58028 -0.76683,0.78135 -1.318537,0.96407 -1.714698,0.56791 z m 5.416728,-7.96038 c -0.62276,-0.32932 -0.83736,-0.57324 -1.08053,-1.22816 -0.50964,-1.37262 -0.0445,-4.97588 1.11908,-8.6698 0.42997,-1.36497 0.41749,-1.4762 -0.11,-0.98064 -0.24215,0.22749 -0.49497,0.35892 -0.56182,0.29207 -0.0669,-0.0669 0.27975,-0.49712 0.77022,-0.95614 0.49048,-0.45902 1.02418,-1.11964 1.186,-1.46804 0.35391,-0.76197 1.51532,-1.94886 1.51532,-1.54856 0,0.14764 -0.20598,0.46087 -0.45773,0.69606 -0.40157,0.37515 -0.95338,1.22313 -0.95338,1.46507 0,0.0467 0.635,0.14023 1.41111,0.20793 0.77611,0.0677 1.41111,0.19934 1.41111,0.29254 0,0.10451 -0.56061,0.12274 -1.46291,0.0476 -1.63861,-0.13649 -1.64266,-0.13438 -2.12618,1.1106 -1.04947,2.70219 -1.88731,7.79549 -1.50869,9.17144 0.2055,0.74683 0.73124,1.28026 1.49512,1.51699 0.46433,0.14389 2.85775,-0.44684 3.4907,-0.86156 0.62889,-0.41207 0.7658,-0.69622 0.98186,-2.03781 0.14849,-0.92206 0.13351,-1.19411 -0.0841,-1.52619 -0.34045,-0.51959 -0.72398,-0.51034 -1.52926,0.0369 -0.35693,0.24254 -0.83176,0.4378 -1.05519,0.43391 -0.37547,-0.007 -0.36617,-0.0285 0.12294,-0.2903 0.29104,-0.15578 0.71846,-0.43042 0.94983,-0.6103 1.01516,-0.78927 2.01659,-0.18258 1.98874,1.20485 -0.0497,2.47675 -0.57576,3.11034 -3.12339,3.76191 -1.67219,0.42768 -1.45574,0.43314 -2.38887,-0.0603 z m -22.870408,-3.47301 c -0.573646,-0.23362 -0.517243,-0.56281 0.0589,-0.34376 0.578147,0.21981 0.771692,0.0997 0.648718,-0.40268 -0.138012,-0.56378 -0.39086,-0.83767 -0.773312,-0.83767 -0.182149,0 -0.33118,-0.0794 -0.33118,-0.17639 0,-0.30572 0.813832,-0.19123 1.130869,0.15909 0.20419,0.22563 0.285337,0.55725 0.247824,1.01277 -0.05994,0.72785 -0.294574,0.86853 -0.981819,0.58864 z m 36.027428,-2.97755 c -0.78221,-0.36294 -1.68905,-1.24235 -2.09691,-2.03349 -0.43361,-0.84109 -0.11692,-0.88961 0.40765,-0.0625 0.56508,0.89104 1.32218,1.56718 2.12907,1.90141 0.68886,0.28534 1.85251,0.0419 2.78378,-0.58236 0.74989,-0.50268 0.86966,-1.00894 0.43534,-1.84013 -0.30388,-0.58156 -0.42095,-0.66038 -0.94457,-0.63594 -0.32873,0.0153 -1.27238,0.042 -2.097,0.0592 -0.95316,0.0199 -1.64387,0.12369 -1.89618,0.28486 -0.34056,0.21754 -0.39687,0.21807 -0.39687,0.004 0,-0.13738 0.11906,-0.29546 0.26458,-0.35131 0.14552,-0.0558 0.26458,-0.25997 0.26458,-0.45363 0,-0.57259 0.62849,-0.77306 2.10404,-0.67117 1.83784,0.12692 2.48382,0.46796 2.97277,1.56946 0.21519,0.48476 0.39125,1.01837 0.39125,1.1858 0,0.57091 -1.08436,1.38925 -2.23032,1.68315 -1.32372,0.33949 -1.23086,0.34203 -2.09121,-0.0572 z m 2.45553,-3.69932 c 0.17796,-0.28794 -2.32896,-0.51432 -2.97027,-0.26823 -0.15345,0.0589 -0.27901,0.17795 -0.27901,0.26459 0,0.20345 3.12363,0.20695 3.24928,0.004 z m -2.89296,1.64892 c 0.12271,-0.14787 0.25944,-0.23252 0.30384,-0.18813 0.12233,0.12233 -0.12621,0.45697 -0.33939,0.45697 -0.11696,0 -0.10358,-0.10121 0.0356,-0.26884 z m 6.77154,-3.77751 c -0.56997,-0.54833 -1.16308,-0.93517 -1.62415,-1.05933 -0.39947,-0.10756 -0.77404,-0.27279 -0.83237,-0.36717 -0.16594,-0.2685 -0.79525,-0.20324 -1.82902,0.18968 -0.88949,0.33807 -1.0006,0.34386 -1.74318,0.0908 -0.73447,-0.25026 -0.92289,-0.24336 -2.5471,0.0932 -0.96467,0.1999 -2.25079,0.58637 -2.85804,0.85882 -1.35752,0.60908 -2.1476,0.79662 -2.3022,0.54646 -0.0635,-0.10269 0.0101,-0.18671 0.16339,-0.18671 0.15334,0 0.9859,-0.27631 1.85015,-0.61402 0.86424,-0.33771 2.31719,-0.77561 3.22878,-0.97312 1.52069,-0.32947 1.71927,-0.33728 2.40691,-0.0947 0.69225,0.24424 0.82544,0.23773 1.74429,-0.0852 1.17008,-0.41125 1.85533,-0.44442 2.13826,-0.10352 0.11235,0.13537 0.47616,0.29714 0.80846,0.35948 0.8278,0.1553 3.1049,2.23234 2.42595,2.21281 -0.0728,-0.002 -0.53632,-0.39249 -1.03013,-0.86755 z M 88.118988,137.5805 c -0.182227,-0.47488 0.178683,-0.61008 1.804989,-0.67618 1.913333,-0.0778 3.717208,-0.52906 6.749678,-1.68866 2.608247,-0.99738 3.599765,-1.21692 3.999125,-0.88549 0.38402,0.31872 0.0492,0.64217 -0.693582,0.6701 -0.334699,0.0126 -1.308029,0.29504 -2.162954,0.62769 -3.105532,1.20834 -4.900711,1.7194 -6.928097,1.97233 -2.546783,0.31772 -2.639898,0.31706 -2.769159,-0.0198 z m 22.636132,-0.0175 c -0.4944,-0.4944 0.31856,-2.53317 1.52169,-3.81615 0.62029,-0.66146 0.98211,-0.86661 2.20628,-1.25096 2.07699,-0.6521 3.56941,-0.63546 4.65327,0.0519 0.44373,0.28141 1.01083,0.7775 1.26021,1.10243 1.69421,2.20742 2.17985,2.95292 2.05509,3.15477 -0.24601,0.39805 -0.67909,0.0311 -1.84499,-1.5634 -1.34122,-1.83425 -2.21848,-2.49989 -3.29467,-2.49989 -1.2574,0 -3.47239,0.69271 -4.17067,1.30433 -0.8591,0.75246 -1.62186,2.0052 -1.62186,2.66368 0,0.7008 -0.43321,1.18442 -0.76435,0.85329 z m 18.44201,40.67927 c 0.0433,-0.29532 0.0127,-0.57781 -0.0682,-0.62777 -0.0808,-0.05 -0.14698,0.19165 -0.14698,0.53693 0,0.76925 0.10884,0.8152 0.21516,0.0908 z m 3.49224,-0.47731 c 0.002,-0.46081 0.11886,-1.65119 0.26017,-2.64529 0.33317,-2.34366 0.52852,-7.45297 0.28496,-7.45297 -0.2099,0 -0.54596,-1.11002 -0.54738,-1.80799 -5.9e-4,-0.2938 -0.0967,-0.48507 -0.24382,-0.48507 -0.16208,0 -0.37236,0.5605 -0.63228,1.6853 l -0.38943,1.68529 0.37689,0.74005 c 0.2073,0.40703 0.49492,0.9385 0.63918,1.18103 0.21669,0.36434 0.24439,0.97743 0.15936,3.52778 -0.0566,1.69774 -0.14606,3.38446 -0.19879,3.74826 -0.0606,0.41777 -0.0252,0.66146 0.096,0.66146 0.11087,0 0.19325,-0.35372 0.19512,-0.83785 z m -4.05842,-1.19062 c 0.0428,-1.73945 0.004,-2.06757 -0.17814,-1.49931 -0.19742,0.61644 -0.20757,3.51134 -0.0111,3.175 0.085,-0.14552 0.17017,-0.89958 0.18928,-1.67569 z m -56.380985,1.27882 c 0.153896,-0.57426 0.134793,-1.19063 -0.0369,-1.19063 -0.245751,0 -0.540419,0.8209 -0.436843,1.21697 0.12651,0.48378 0.340221,0.47189 0.473743,-0.0263 z m 1.083261,-1.6757 c -0.141865,-1.13717 -0.358454,-1.19244 -0.50426,-0.12867 -0.077,0.56177 -0.01893,1.01782 0.19651,1.54341 l 0.305803,0.74603 0.05874,-0.61736 c 0.0323,-0.33955 0.0067,-1.03408 -0.05679,-1.54341 z m 56.710124,1.10243 c 0.0423,-0.95842 -0.0112,-1.14258 -0.17943,-0.61736 -0.20249,0.63226 -0.2125,1.69533 -0.014,1.49049 0.0893,-0.0922 0.17636,-0.48507 0.19348,-0.87313 z m 1.68046,-2.87321 c -0.22713,-0.22713 -0.26461,0.16739 -0.14032,1.47702 l 0.13251,1.39619 0.0519,-1.3886 c 0.0285,-0.76373 0.009,-1.4318 -0.0441,-1.48461 z m -57.601482,2.47634 c -0.0015,-0.0728 -0.07964,-0.25136 -0.173688,-0.39688 -0.138266,-0.21395 -0.171503,-0.18863 -0.173688,0.1323 -0.0015,0.21828 0.07667,0.39687 0.173688,0.39687 0.09701,0 0.175174,-0.0595 0.173688,-0.13229 z m 2.562439,-0.44097 c -0.05105,-0.21828 -0.290182,-1.42163 -0.531405,-2.67411 -0.241223,-1.25248 -0.471944,-2.31059 -0.512713,-2.35136 -0.171938,-0.17194 -0.70887,2.77261 -0.676965,3.7125 0.0423,1.24614 0.103511,1.35706 0.748845,1.35706 0.279591,0 0.557403,0.0794 0.617361,0.17639 0.203831,0.32981 0.448082,0.17805 0.354877,-0.22048 z m -3.584302,-2.36582 c -0.180283,-0.49495 -0.182462,-0.49277 -0.196233,0.19623 -0.01022,0.51147 0.03826,0.64456 0.182308,0.50051 0.139254,-0.13926 0.143297,-0.34156 0.01393,-0.69674 z M 132.3232,172.1983 c 0.006,-0.6405 -0.056,-0.98377 -0.16623,-0.91563 -0.0994,0.0614 -0.16753,0.81651 -0.1561,1.7302 0.0168,1.33959 0.0456,1.49864 0.16622,0.91564 0.0803,-0.38806 0.15051,-1.16665 0.15611,-1.73021 z m -60.257687,-0.51875 c 0.05614,-0.84887 0.03286,-1.54341 -0.05172,-1.54341 -0.264027,0 -0.620962,2.44862 -0.440033,3.01868 0.2064,0.65031 0.387023,0.10844 0.491755,-1.47527 z m 2.980881,-0.89737 c -0.03901,-1.79747 -0.145135,-2.27594 -0.411546,-1.85549 -0.179466,0.28323 -0.200206,1.97098 -0.04056,3.30048 0.188031,1.56586 0.49608,0.5813 0.452104,-1.44499 z m 56.581416,0.31369 c 0,-0.75741 -0.0746,-1.3125 -0.17639,-1.3125 -0.103,0 -0.17639,0.59143 -0.17639,1.42152 0,0.90276 0.0644,1.38174 0.17639,1.3125 0.097,-0.0599 0.17639,-0.69964 0.17639,-1.42152 z m -58.230234,-3.25278 c -0.02364,-0.69061 -0.48067,0.82745 -0.477941,1.5875 0.0021,0.58084 0.01673,0.56519 0.247625,-0.26458 0.134975,-0.48507 0.238617,-1.08039 0.230316,-1.32292 z m 0.891445,0.48507 c 0.0068,-0.0728 -0.06698,-0.13229 -0.163992,-0.13229 -0.09701,0 -0.17081,0.21828 -0.163991,0.48507 0.01099,0.42983 0.02966,0.44489 0.163991,0.13229 0.08338,-0.19403 0.157173,-0.41231 0.163992,-0.48507 z m -3.045784,-1.05834 c -0.04893,-0.12126 -0.08897,-0.022 -0.08897,0.22049 0,0.24254 0.04004,0.34175 0.08897,0.22049 0.04893,-0.12127 0.04893,-0.31971 0,-0.44098 z M 73.33873,165.62 c 0.238437,-1.14982 0.431108,-2.17173 0.428158,-2.2709 -0.02562,-0.86125 -1.05297,3.12002 -1.05297,4.08055 0,0.84906 0.183982,0.31619 0.624812,-1.80965 z m 1.647374,0.59149 c 0.01148,-0.16977 -0.0585,-0.30868 -0.155519,-0.30868 -0.09701,0 -0.166998,0.37703 -0.15552,0.83785 0.01863,0.74788 0.03533,0.78102 0.15552,0.30868 0.07406,-0.29104 0.144041,-0.66807 0.155519,-0.83785 z m -0.707672,-0.92604 c -0.01601,-1.1241 -0.03066,-1.17151 -0.163522,-0.52917 -0.212504,1.02737 -0.205843,2.36265 0.01012,2.02848 0.09404,-0.14553 0.163074,-0.82021 0.153402,-1.49931 z m 58.924478,-0.57326 c -0.008,-0.92762 -0.0611,-1.25362 -0.16399,-1.01424 -0.26352,0.61323 -0.18402,2.38125 0.10706,2.38125 0.0381,0 0.0637,-0.61516 0.0569,-1.36701 z m 0.48741,-0.34942 c -0.0447,-0.17163 -0.0843,-0.0739 -0.0879,0.21712 -0.004,0.29105 0.033,0.43146 0.0813,0.31204 0.0483,-0.11942 0.0513,-0.35754 0.007,-0.52916 z m 2.97728,-2.54059 c 0.08,-1.93504 -0.0706,-2.29163 -0.36256,-0.85826 -0.0692,0.33955 -0.23702,0.79316 -0.37302,1.00803 -0.33247,0.52529 -0.3317,1.35517 0.001,1.22745 0.16054,-0.0616 0.28836,0.0639 0.36136,0.35472 0.19417,0.77364 0.28732,0.34125 0.37308,-1.73194 z m -59.990433,-1.17387 -0.12846,-0.47814 -0.14951,0.52717 c -0.08223,0.28994 -0.189038,1.00432 -0.237352,1.5875 l -0.08784,1.06033 0.365812,-1.10936 c 0.240443,-0.72917 0.321787,-1.27323 0.237352,-1.5875 z m 58.192133,1.37395 c 0.1345,0 0.31772,-0.66173 0.49519,-1.78849 0.24209,-1.53702 0.24759,-1.87014 0.0391,-2.36919 -0.2375,-0.56842 -0.54691,-0.89386 -0.70219,-0.73858 -0.17151,0.17151 -0.41273,3.72171 -0.30586,4.50145 0.0628,0.45822 0.14707,0.73451 0.18725,0.61397 0.0402,-0.12054 0.16912,-0.21916 0.28654,-0.21916 z m -60.790689,-0.39688 c 0.09524,-0.12127 0.219393,-0.46523 0.275892,-0.76435 0.129729,-0.68683 -0.328802,-0.76925 -0.49069,-0.0882 -0.05957,0.25062 -0.149581,0.59458 -0.200019,0.76436 -0.105867,0.35635 0.159842,0.41284 0.414817,0.0882 z m 2.226438,-2.24896 c 0.108272,-0.79316 0.108165,-0.79336 -0.145934,-0.26458 -0.139857,0.29104 -0.252834,0.80698 -0.251061,1.14653 0.0026,0.48919 0.03285,0.54412 0.145934,0.26458 0.07849,-0.19403 0.191467,-0.70997 0.251061,-1.14653 z m -0.289504,-1.10559 c 0.311776,-1.01664 0.369482,-1.51824 0.2842,-2.4704 -0.09974,-1.11358 -0.132308,-1.18698 -0.479404,-1.08052 -0.500867,0.15363 -0.485615,0.13048 -0.651702,0.98945 -0.320175,1.65589 -0.131695,3.85187 0.32961,3.84029 0.06935,-0.002 0.30213,-0.57721 0.517296,-1.27882 z m 60.548445,0.26775 c 0.001,-0.12127 -0.0767,-0.22049 -0.17368,-0.22049 -0.097,0 -0.17518,0.21828 -0.17369,0.48507 0.002,0.37799 0.0404,0.42666 0.17369,0.22048 0.094,-0.14552 0.1722,-0.3638 0.17368,-0.48506 z m -3.70146,-1.3141 c 0,-0.28494 -0.0522,-0.3359 -0.1963,-0.19176 -0.10796,0.10796 -0.14297,0.28259 -0.0778,0.38806 0.18245,0.29521 0.27408,0.22959 0.27408,-0.1963 z m 3.26273,-0.58209 c 0.10714,-0.50309 0.0991,-0.51229 -0.16391,-0.18677 -0.15213,0.18832 -0.2766,0.50185 -0.2766,0.69674 0,0.49561 0.30042,0.14782 0.44051,-0.50997 z m -0.11605,-1.06663 c 0.11259,-0.2471 0.20207,-0.50507 0.19884,-0.57326 -0.008,-0.1779 -0.69969,0.67737 -0.69969,0.86569 0,0.31936 0.30261,0.14268 0.50085,-0.29243 z m -57.960454,-0.69725 c 0.04636,-0.24254 0.01593,-0.44098 -0.06763,-0.44098 -0.08356,0 -0.151928,0.19844 -0.151928,0.44098 0,0.24253 0.03043,0.44097 0.06763,0.44097 0.0372,0 0.105566,-0.19844 0.151928,-0.44097 z m -2.109448,-1.14378 c 0.06067,-0.23199 0.0068,-0.35553 -0.155098,-0.35553 -0.148541,0 -0.24807,0.1811 -0.24807,0.45138 0,0.50848 0.261383,0.44633 0.403168,-0.0959 z m 0.373928,-4.67706 c 0.08762,-0.80951 0.06874,-0.98371 -0.08033,-0.74093 -0.107187,0.17457 -0.233438,0.76988 -0.280557,1.32292 -0.115405,1.3545 0.207677,0.83349 0.360889,-0.58199 z m 20.621454,0.2371 c 2.086041,-0.86728 3.96463,-3.56204 4.13407,-5.93017 l 0.0876,-1.2245 -0.57741,-0.20128 c -0.31757,-0.11071 -0.793556,-0.20129 -1.057738,-0.20129 -0.264181,0 -1.08071,-0.19598 -1.814508,-0.43552 -1.568607,-0.51204 -3.997751,-0.65052 -4.709935,-0.2685 -0.241511,0.12955 -0.928446,0.33832 -1.526523,0.46392 -1.064109,0.22349 -2.650072,1.09335 -3.590023,1.96905 l -0.43164,0.40213 0.412438,1.18342 c 0.533678,1.5313 1.646962,3.43285 2.235602,3.81854 0.652177,0.42733 2.543521,0.76843 4.368613,0.78789 1.218856,0.013 1.752427,-0.0656 2.469444,-0.36369 z m -4.226226,-1.04748 c -1.453565,-0.34433 -2.112126,-1.44171 -1.55795,-2.59606 0.171757,-0.35778 0.368324,-0.76956 0.436816,-0.91509 0.166461,-0.35367 1.497069,-0.43249 2.369875,-0.14038 0.860861,0.28812 1.686072,1.28989 1.805763,2.19213 0.07542,0.56856 0.01612,0.75184 -0.355786,1.09959 -0.516999,0.48341 -1.579146,0.62502 -2.698718,0.35981 z m 2.235303,-0.45821 c 0.6513,-0.44571 0.700527,-0.59525 0.418308,-1.2707 -0.141925,-0.33967 -0.277914,-0.63745 -0.302197,-0.66174 -0.02428,-0.0243 -0.37453,0.0397 -0.778329,0.14221 -0.528482,0.13414 -0.755356,0.29223 -0.809763,0.56425 -0.07556,0.3778 -0.07562,0.3778 -0.206743,-0.019 -0.106059,-0.32092 -0.262244,-0.39687 -0.816142,-0.39687 -0.376741,0 -0.684983,-0.0794 -0.684983,-0.17639 0,-0.35532 -0.349201,-0.16387 -0.452611,0.24815 -0.204116,0.81326 0.429081,1.4529 1.687333,1.7045 1.039485,0.20785 1.490498,0.17668 1.945127,-0.13444 z m -0.754502,-2.10578 c 0.537542,-0.14405 0.498896,-0.35617 -0.123532,-0.67804 -0.769131,-0.39774 -2.065968,-0.35702 -2.295609,0.0721 -0.100428,0.18765 -0.182595,0.38026 -0.182595,0.42804 0,0.23946 1.889849,0.36871 2.601736,0.17793 z m 43.404815,1.62608 c 0.0315,-0.2675 7.2e-4,-0.61857 -0.0684,-0.78015 -0.10411,-0.24345 -0.14868,-0.21824 -0.26016,0.14719 -0.074,0.24254 -0.14244,0.62618 -0.15211,0.85255 -0.025,0.5845 0.40935,0.38607 0.48064,-0.21959 z m -2.69358,-3.11777 c 0.0652,-0.10547 0.048,-0.26224 -0.0381,-0.34838 -0.0912,-0.0912 -0.24744,-0.0112 -0.37418,0.19176 -0.17907,0.28674 -0.17233,0.34838 0.0381,0.34838 0.14061,0 0.309,-0.0863 0.37418,-0.19176 z m -0.80325,-0.55906 c 0,-0.12191 -0.0701,-0.46593 -0.15568,-0.76448 -0.0882,-0.30749 -0.0894,-0.66131 -0.003,-0.81612 0.1048,-0.18726 0.015,-0.47654 -0.28529,-0.91904 -0.28401,-0.41852 -0.43822,-0.89129 -0.43822,-1.34349 0,-0.38374 -0.0809,-0.69772 -0.17975,-0.69772 -0.0989,0 -0.14265,0.17859 -0.0973,0.39688 0.0453,0.21828 0.17959,1.23031 0.2983,2.24895 0.11871,1.01865 0.30139,1.9104 0.40597,1.98168 0.28462,0.19399 0.45472,0.16157 0.45472,-0.0867 z m 0.87924,-0.70439 c -0.001,-0.12127 -0.0796,-0.33955 -0.17368,-0.48507 -0.13325,-0.20618 -0.17159,-0.1575 -0.17369,0.22049 -0.001,0.26678 0.0767,0.48506 0.17369,0.48506 0.097,0 0.17517,-0.0992 0.17368,-0.22048 z m -1.0407,-3.36291 c -0.1375,-0.13751 -0.19132,-0.0656 -0.19132,0.25552 0,0.58161 0.2472,0.83037 0.32362,0.32567 0.0325,-0.21443 -0.0271,-0.47597 -0.1323,-0.58119 z m -53.537876,-1.29346 c 0.121651,-0.64735 0.16152,-1.33829 0.0886,-1.53542 -0.125699,-0.3398 -0.137906,-0.33603 -0.235051,0.0724 -0.189413,0.7964 -0.350438,2.9016 -0.211885,2.77014 0.07543,-0.0716 0.236687,-0.65979 0.358338,-1.30714 z m 54.580016,0.10966 c -0.2716,-1.00866 -0.37058,-0.81137 -0.13621,0.27152 0.10471,0.48384 0.22282,0.78638 0.26245,0.67233 0.0396,-0.11406 -0.0172,-0.53879 -0.12624,-0.94385 z m 0.26585,-1.5828 c -0.0662,-0.20865 -0.1601,-0.33968 -0.2086,-0.29117 -0.0485,0.0485 -0.034,0.2589 0.0322,0.46755 0.0662,0.20865 0.16009,0.33968 0.2086,0.29117 0.0485,-0.0485 0.034,-0.25891 -0.0322,-0.46755 z m -31.57361,-19.9148 c 0.81041,-0.3766 2.12168,-1.6639 1.96052,-1.92467 -0.15456,-0.25008 -1.99462,-1.26748 -2.29236,-1.26748 -0.13694,0 -0.50389,0.29033 -0.81545,0.64518 -0.52214,0.59468 -0.55759,0.7122 -0.45289,1.50145 0.20392,1.53724 0.34447,1.62906 1.60018,1.04552 z m 2.55764,-1.28544 c 0,-0.23185 -0.4009,-0.0867 -0.48879,0.17701 -0.043,0.12889 0.0377,0.16831 0.20946,0.10239 0.15363,-0.0589 0.27933,-0.18468 0.27933,-0.2794 z m 30.69166,26.95798 c 0,-0.24489 0.0794,-0.49431 0.17639,-0.55427 0.097,-0.06 0.17639,0.0544 0.17639,0.25417 0,0.19975 0.006,0.42074 0.0132,0.49107 0.007,0.0703 -0.0721,0.15632 -0.17639,0.19109 -0.10429,0.0348 -0.18962,-0.13716 -0.18962,-0.38206 z M 97.086418,124.04756 c -0.103812,-0.12508 -0.270341,-0.58149 -0.370063,-1.01423 -0.208704,-0.90567 -0.255779,-4.93243 -0.05765,-4.93097 0.07276,5.3e-4 0.148907,0.77444 0.169215,1.71979 0.07094,3.30238 0.321483,4.26201 1.052179,4.0301 0.378869,-0.12025 0.762981,-0.79011 0.762981,-1.33057 0,-0.51284 0.465062,-0.56509 1.60673,-0.18049 0.58134,0.19584 1.13234,0.30951 1.22443,0.25259 0.0921,-0.0569 0.16746,-0.0169 0.16746,0.0888 0,0.35015 -0.53883,0.40663 -1.20012,0.1258 -1.299049,-0.55167 -1.402399,-0.54545 -1.537418,0.0926 -0.230587,1.08967 -1.303367,1.76632 -1.817748,1.14653 z m 9.500372,-3.46514 c -0.19975,-0.37323 -0.24365,-2.32321 -0.0671,-2.98248 0.12411,-0.46354 0.46612,-0.45643 1.73663,0.0361 0.99545,0.38588 1.89166,0.35918 2.44072,-0.0727 0.35105,-0.27614 0.60287,-0.33486 1.06454,-0.24825 0.59693,0.11198 0.61449,0.097 1.36333,-1.16348 0.92708,-1.56052 1.14144,-1.33756 0.24874,0.25873 -0.65253,1.16684 -1.04005,1.45251 -1.69039,1.2461 -0.23304,-0.074 -0.48799,-0.005 -0.70377,0.19022 -0.55506,0.50233 -1.89102,0.53336 -2.97044,0.069 -1.14694,-0.49341 -1.24553,-0.39131 -1.24934,1.29372 -0.002,0.90234 0.0623,1.2211 0.26189,1.29769 0.33939,0.13024 0.34366,0.41657 0.006,0.41657 -0.14211,0 -0.34054,-0.15354 -0.44097,-0.34119 z"
       id="path1" /></g></svg>
