<?xml version="1.0" encoding="UTF-8" standalone="no"?>
<!-- Created with Inkscape (http://www.inkscape.org/) -->

<svg
   width="102.00088mm"
   height="116.78424mm"
   viewBox="0 0 102.00088 116.78424"
   version="1.1"
   id="svg1"
   xml:space="preserve"
   inkscape:version="1.3 (0e150ed, 2023-07-21)"
   sodipodi:docname="neutral.svg"
   xmlns:inkscape="http://www.inkscape.org/namespaces/inkscape"
   xmlns:sodipodi="http://sodipodi.sourceforge.net/DTD/sodipodi-0.dtd"
   xmlns="http://www.w3.org/2000/svg"
   xmlns:svg="http://www.w3.org/2000/svg"><sodipodi:namedview
     id="namedview1"
     pagecolor="#ffffff"
     bordercolor="#000000"
     borderopacity="0.25"
     inkscape:showpageshadow="2"
     inkscape:pageopacity="0.0"
     inkscape:pagecheckerboard="0"
     inkscape:deskcolor="#d1d1d1"
     inkscape:document-units="mm"
     inkscape:zoom="0.2102413"
     inkscape:cx="190.25758"
     inkscape:cy="218.79621"
     inkscape:window-width="1312"
     inkscape:window-height="697"
     inkscape:window-x="0"
     inkscape:window-y="25"
     inkscape:window-maximized="0"
     inkscape:current-layer="layer1" /><defs
     id="defs1" /><g
     inkscape:label="Layer 1"
     inkscape:groupmode="layer"
     id="layer1"
     transform="translate(-54.082189,-90.107876)"><path
       style="fill:#000000"
       d="m 101.77798,206.65667 c -1.4552,-0.1932 -4.44253,-0.3615 -6.6385,-0.37401 l -3.99267,-0.0228 -3.49608,-1.19096 c -1.92284,-0.65502 -4.882593,-1.43919 -6.577228,-1.74259 -4.461995,-0.79886 -5.505207,-1.40426 -9.451377,-5.4848 -5.431452,-5.61641 -6.241963,-6.7569 -7.032264,-9.89527 -0.260035,-1.03263 -0.411491,-1.23809 -0.877652,-1.19063 -0.439065,0.0447 -0.545938,-0.0692 -0.484323,-0.51601 0.05338,-0.3871 -0.09628,-0.62904 -0.460653,-0.74468 -0.875581,-0.2779 -1.073617,0.0628 -1.073617,1.84723 0,0.92871 -0.119903,1.76267 -0.266452,1.85324 -0.293127,0.18116 -0.369822,5.2e-4 -0.700148,-1.64905 -0.164382,-0.82089 -0.315421,-1.06121 -0.567319,-0.90267 -0.298133,0.18765 -0.421943,0.65538 -0.552579,2.08754 -0.05739,0.62914 -0.569649,0.32706 -1.009495,-0.59531 -0.502542,-1.05384 -0.763792,-1.15701 -1.005048,-0.39687 -0.221845,0.69897 -0.76259,0.67095 -1.276767,-0.0661 l -0.415269,-0.59531 -0.01388,0.84428 c -0.01509,0.91805 -0.427906,1.36106 -0.86292,0.92605 -0.15479,-0.15479 -0.304394,-1.86381 -0.34424,-3.93247 -0.03876,-2.01228 -0.223347,-4.64031 -0.410192,-5.84005 -0.186845,-1.19975 -0.243388,-2.27131 -0.12565,-2.38125 0.117739,-0.10994 0.26747,-0.0503 0.332737,0.13248 0.06527,0.18281 0.22236,0.26829 0.349097,0.18997 0.126736,-0.0783 0.167981,-0.30516 0.09166,-0.50406 -0.07633,-0.1989 -0.01059,-0.44086 0.146085,-0.53769 0.156672,-0.0968 0.395367,0.0995 0.530433,0.43626 0.368097,0.91781 0.325512,0.0479 -0.09954,-2.03352 -0.208025,-1.01865 -0.416287,-2.86412 -0.462805,-4.10104 -0.06985,-1.85747 -0.01569,-2.24896 0.311145,-2.24896 0.493303,0 1.023727,1.56462 1.243609,3.66833 0.139644,1.33605 0.203332,1.48493 0.403607,0.94354 0.376104,-1.01671 0.306977,-3.42189 -0.143956,-5.00875 -0.566601,-1.9939 -0.866854,-5.55625 -0.46831,-5.55625 0.424227,0 0.784303,1.07281 1.121881,3.34253 0.159444,1.07203 0.365299,1.94914 0.457454,1.94914 0.212283,0 2.078165,-11.87978 2.295993,-14.61823 0.08971,-1.12779 0.272011,-2.05052 0.405116,-2.05052 0.133105,0 0.242009,0.11906 0.242009,0.26458 0,0.14552 0.107168,0.26459 0.23815,0.26459 0.130982,0 0.237364,-0.44649 0.236403,-0.99219 -0.0029,-1.67555 0.343561,-4.93147 0.584283,-5.49011 0.242392,-0.56251 0.473766,-1.71137 0.692713,-3.43958 0.216193,-1.70647 0.340907,-1.93628 0.749598,-1.38128 0.311337,0.42279 0.363366,0.42733 0.51027,0.0445 0.08997,-0.23446 0.163583,-0.82863 0.163583,-1.32038 0,-0.81109 0.788221,-1.97305 1.338421,-1.97305 0.320834,0 0.743981,-2.18919 0.89497,-4.6302 0.198657,-3.21167 0.333883,-3.64896 1.071174,-3.46391 0.567119,0.14233 0.592769,0.0615 0.767132,-2.41906 0.22407,-3.18766 0.364017,-3.78159 0.847356,-3.59611 0.225167,0.0864 0.372613,-0.0253 0.372613,-0.2822 0,-0.59182 0.550254,-0.53399 0.709391,0.0746 0.08812,0.33697 0.346948,0.48778 0.794653,0.46302 0.613061,-0.0339 0.653528,-0.11473 0.527785,-1.05422 -0.147955,-1.10546 0.47345,-3.6127 0.895387,-3.6127 0.335038,0 0.773804,1.15161 0.787816,2.06775 0.0084,0.54804 0.161617,0.3476 0.67056,-0.87712 1.794132,-4.31743 2.228991,-4.93685 2.228991,-3.175 0,0.61804 -0.12339,0.92604 -0.370992,0.92604 -0.204045,0 -0.495508,0.35718 -0.647695,0.79375 -0.609542,1.74853 1.254068,0.54993 3.008919,-1.93522 1.385585,-1.96221 1.757329,-2.1875 5.550393,-3.3638 0.436562,-0.13538 1.265409,-0.48677 1.841884,-0.78086 0.57647,-0.29409 1.23913,-0.53471 1.47258,-0.53471 0.23345,0 1.36131,-0.47625 2.50637,-1.05833 1.14505,-0.58208 2.45265,-1.05833 2.90576,-1.05833 0.45311,0 1.77062,-0.46226 2.92779,-1.02724 1.15717,-0.56498 2.63973,-1.11488 3.29457,-1.222 1.55206,-0.25388 2.48462,-0.7476 4.72588,-2.50203 l 1.84467,-1.44397 -0.97017,-0.32937 c -2.07683,-0.70508 -3.11758,-2.961284 -2.35027,-5.095076 0.27074,-0.752903 0.3385,-1.331028 0.18879,-1.610768 -0.44508,-0.831637 -0.60153,-3.070965 -0.26073,-3.731928 0.6577,-1.275599 1.64735,-2.087622 2.54426,-2.087622 0.47351,0 0.92749,0.107699 1.00884,0.239331 0.0814,0.131632 0.79905,0.606809 1.59488,1.055948 l 1.44697,0.816617 0.94729,-0.642849 c 1.14271,-0.775468 2.59907,-1.285119 3.23422,-1.131818 0.32926,0.07947 0.15595,0.240057 -0.59317,0.549641 -2.62881,1.08639 -2.91042,1.306557 -2.91042,2.275446 0,0.837904 -0.0863,0.935608 -1.08429,1.226862 -0.59635,0.174051 -1.70285,0.760852 -2.45888,1.304003 -0.75603,0.543151 -1.67086,0.987548 -2.03295,0.987548 -0.82988,0 -1.17075,0.627799 -1.17075,2.156212 0,1.979803 2.07621,3.931413 3.14929,2.960283 0.53421,-0.48345 0.96327,-0.25077 0.52077,0.28242 -0.37068,0.44663 1.18865,0.27918 4.66431,-0.5009 1.30969,-0.29395 3.35184,-0.62349 4.53811,-0.73232 1.18628,-0.10882 2.77402,-0.34591 3.52832,-0.52687 1.64652,-0.39499 2.90729,-0.25805 4.5613,0.49544 0.67863,0.30915 1.42669,0.56209 1.66235,0.56209 0.23567,0 0.98635,0.22895 1.66817,0.50878 0.68182,0.27983 1.89451,0.65351 2.69488,0.83039 0.80036,0.17689 2.27538,0.75161 3.27781,1.27716 1.00244,0.52555 2.13353,1.11916 2.51355,1.31912 0.38001,0.19997 1.22671,0.80688 1.88155,1.34869 0.65485,0.54181 2.03695,1.52746 3.07135,2.19033 2.03495,1.30406 2.8356,2.33136 3.25446,4.17572 0.43217,1.90294 1.4901,4.36196 2.87714,6.68752 0.71103,1.19212 1.37118,2.3834 1.467,2.64729 0.0958,0.26388 0.28065,0.41402 0.41071,0.33364 0.40391,-0.24963 0.76524,0.4472 1.0588,2.04195 0.15516,0.84286 0.38346,1.71358 0.50734,1.93495 0.20099,0.35913 0.26195,0.35825 0.56609,-0.008 0.49441,-0.59573 0.14532,-2.17312 -0.51941,-2.34695 -0.40769,-0.10661 -0.52264,-0.36348 -0.52264,-1.16783 0,-1.40093 -1.13373,-3.57771 -2.45033,-4.70467 -1.21242,-1.03778 -1.18621,-1.49543 0.044,-0.76872 1.11461,0.65841 2.32753,2.43376 2.71463,3.97339 0.40748,1.62067 0.75002,2.05319 0.75002,0.94703 0,-0.95138 0.25485,-1.06599 0.85313,-0.38364 0.69702,0.79496 1.17967,1.97631 1.67551,4.10104 0.26319,1.12779 0.57582,2.05052 0.69474,2.05052 0.11891,0 0.2162,1.40413 0.2162,3.12029 v 3.12028 l -0.85989,0.25315 c -1.07405,0.3162 -1.01442,0.72997 0.12393,0.85997 0.47534,0.0543 0.92468,0.19198 0.99854,0.30601 0.0739,0.11402 0.43195,0.19341 0.79576,0.17641 0.56369,-0.0263 0.66272,0.0864 0.67,0.76285 0.005,0.43656 0.1553,1.21762 0.33466,1.73569 0.33338,0.96289 0.2803,4.7191 -0.0868,6.14664 -0.14308,0.55634 -0.10021,0.71956 0.17372,0.66146 0.76287,-0.16179 0.49102,1.29074 -0.6755,3.60936 -1.15586,2.29742 -1.17462,2.37374 -0.6703,2.72698 0.36435,0.2552 0.51885,0.67018 0.51885,1.3936 0,0.64868 0.14961,1.11391 0.40399,1.25627 0.32683,0.1829 0.41367,0.90555 0.45462,3.78346 0.0991,6.96554 -0.0244,9.5105 -0.46174,9.5105 -0.3186,0 -0.402,-0.43048 -0.42287,-2.18282 l -0.026,-2.18281 -0.48611,2.83834 c -0.59407,3.46869 -1.09191,5.28972 -1.48162,5.41963 -0.35656,0.11885 -0.6176,-0.76449 -0.62249,-2.10641 -0.007,-1.83094 -0.45455,-1.01521 -0.72635,1.32292 -0.26371,2.26841 -0.86995,6.10425 -1.44267,9.12812 -0.1832,0.96726 -0.41953,1.52136 -0.64887,1.52136 -0.1984,0 -0.36072,0.1294 -0.36072,0.28756 0,0.15816 -0.18576,1.79454 -0.41279,3.63641 -0.28337,2.29894 -0.53222,3.41568 -0.79375,3.56204 -0.20953,0.11726 -0.38096,0.44541 -0.38096,0.72922 0,0.28381 -0.1786,0.51602 -0.39688,0.51602 -0.21828,0 -0.39687,-0.0491 -0.39687,-0.10902 0,-0.06 -0.17858,-1.04222 -0.39683,-2.18281 -0.21826,-1.14059 -0.40047,-2.43098 -0.40492,-2.86755 -0.0138,-1.3531 -0.44935,-0.19626 -0.82502,2.19127 -0.30636,1.947 -0.40197,2.17436 -0.91433,2.17436 -0.36244,0 -0.63967,-0.21822 -0.75628,-0.59531 -0.16836,-0.54444 -0.20684,-0.51617 -0.45027,0.33073 -0.1464,0.50932 -0.43464,1.11401 -0.64052,1.34375 -0.20588,0.22973 -0.37433,0.62661 -0.37433,0.88194 0,0.25533 -0.14883,0.41487 -0.33073,0.35453 -0.50285,-0.1668 -0.78319,-3.57732 -0.62359,-7.58632 0.16524,-4.15056 0.35321,-4.25379 -2.6115,1.43422 -1.13772,2.18281 -2.48486,4.62359 -2.99364,5.42396 -1.13219,1.78106 -4.13468,4.9271 -6.27283,6.57275 -0.87313,0.67201 -2.92828,2.49416 -4.567,4.04923 -1.63873,1.55507 -3.48419,3.06355 -4.10104,3.35218 -2.80898,1.31433 -13.49695,2.17922 -18.58405,1.50385 z m 9.49105,-1.03826 c 1.47388,-0.2073 3.57276,-0.45089 4.66416,-0.54131 3.51727,-0.29138 4.24524,-0.66713 7.65914,-3.95336 1.68107,-1.6182 3.71133,-3.46712 4.51169,-4.10871 2.09984,-1.68326 4.66147,-4.19587 5.68051,-5.57179 0.48499,-0.65484 1.97883,-3.21469 3.31966,-5.68854 1.34082,-2.47385 3.08489,-5.5322 3.87571,-6.79631 1.83268,-2.92954 2.63762,-4.9991 3.16969,-8.1496 0.23376,-1.38412 0.63187,-2.93331 0.88469,-3.44263 0.35795,-0.72111 0.49462,-1.92144 0.61758,-5.42396 0.14266,-4.06403 0.60527,-9.09868 0.86044,-9.36426 0.0549,-0.0571 0.28042,0.0461 0.50123,0.22932 0.28776,0.23883 0.36302,0.64287 0.26575,1.42677 -0.13175,1.06176 -0.12096,1.05124 0.37084,-0.36162 l 0.50654,-1.45521 0.29243,0.74483 c 0.16084,0.40966 0.29243,0.85715 0.29243,0.99443 0,0.13728 0.23813,0.10089 0.52917,-0.0809 0.29104,-0.18176 0.52917,-0.57567 0.52917,-0.87537 0,-0.66364 0.47495,-1.18409 0.92351,-1.01196 0.32127,0.12328 0.65302,-0.64459 0.66037,-1.52847 0.003,-0.39092 -0.0949,-0.38428 -0.97837,0.0661 -1.15666,0.5897 -2.85041,0.63634 -4.74918,0.13078 -1.56224,-0.41595 -2.003,-0.63989 -1.82532,-0.92739 0.0688,-0.1113 0.99347,0.0217 2.05484,0.2955 2.28973,0.59073 3.85472,0.45471 4.6626,-0.40524 0.78533,-0.83594 2.21692,-4.42344 2.0425,-5.11839 -0.15383,-0.61292 -1.62312,-1.88269 -2.92324,-2.52629 -0.43657,-0.21611 -1.43071,-0.41745 -2.20921,-0.44741 -1.01832,-0.0392 -1.57508,-0.20788 -1.98438,-0.60122 -0.75675,-0.72726 -2.0733,-1.53914 -2.49786,-1.54037 -0.18779,-5.5e-4 -0.66404,-0.23854 -1.05833,-0.52888 -0.39429,-0.29034 -1.43127,-0.70779 -2.30439,-0.92768 -1.2345,-0.31089 -1.79342,-0.62651 -2.51354,-1.41938 -0.71337,-0.78544 -2.33642,-1.88755 -2.77974,-1.88755 -0.0289,0 -0.0658,0.77354 -0.0819,1.71898 -0.0161,0.94544 -0.16665,1.98724 -0.33452,2.31511 -0.40547,0.7919 -2.39444,2.84508 -2.75611,2.84508 -0.15721,0 -0.7575,0.24692 -1.33398,0.54871 -2.51788,1.31816 -5.32235,1.59664 -8.85333,0.87914 -1.09141,-0.22178 -2.81782,-0.49153 -3.83646,-0.59944 -3.66729,-0.38851 -5.57834,-1.92449 -7.14952,-5.74633 -0.64973,-1.58044 -0.87875,-3.81333 -0.39111,-3.81333 0.14552,0 0.26459,0.30909 0.26459,0.68688 0,1.17462 0.78465,3.34534 1.80614,4.99662 1.25632,2.0309 3.3392,3.25558 5.60219,3.29394 0.80036,0.0136 2.0862,0.19264 2.85742,0.39793 2.99993,0.79855 7.39793,0.45306 9.04155,-0.71027 0.3598,-0.25466 0.86168,-0.46302 1.11528,-0.46302 0.59689,0 2.24824,-1.45261 2.74633,-2.41581 0.21524,-0.41623 0.42914,-1.71313 0.48085,-2.91539 0.0739,-1.71922 0.19253,-2.23831 0.57538,-2.51826 0.6279,-0.45913 1.17485,-0.44977 1.17485,0.0201 0,0.57428 4.16044,4.12469 4.83771,4.12837 0.32244,0.002 1.10442,0.29941 1.73774,0.66146 0.63332,0.36205 1.27692,0.65827 1.43023,0.65827 0.15331,0 0.65474,0.28678 1.11429,0.63729 0.96056,0.73266 2.63519,1.47938 3.31773,1.47938 0.5924,0 0.86306,-1.46329 0.34951,-1.88951 -0.46816,-0.38853 -0.44624,-0.75633 0.0451,-0.75633 0.46724,0 0.49684,-0.70059 0.13415,-3.175 -0.32454,-2.2141 -0.97937,-7.57903 -1.19491,-9.78958 -0.1865,-1.91286 -0.74039,-3.35482 -1.98161,-5.15888 -0.94866,-1.37883 -2.21395,-4.31648 -2.76029,-6.40865 -0.53797,-2.06011 -0.90206,-2.4831 -3.91606,-4.54953 -1.49418,-1.02443 -3.25248,-2.35292 -3.90733,-2.95219 -1.43605,-1.31419 -3.68336,-2.49231 -5.25501,-2.75487 -0.63469,-0.10602 -2.48015,-0.67819 -4.10104,-1.27149 -2.41753,-0.88488 -3.27986,-1.07745 -4.79915,-1.07169 -2.61882,0.01 -9.04514,0.98322 -13.35085,2.02205 -0.74745,0.18034 -2.0083,0.90957 -3.43958,1.98933 -2.26119,1.70586 -3.23842,2.19065 -5.11219,2.53608 -0.55029,0.10145 -1.97274,0.6546 -3.161,1.22923 -1.29088,0.62425 -2.54461,1.04478 -3.11485,1.04478 -0.59699,0 -1.40419,0.28525 -2.15554,0.76175 -0.66064,0.41896 -1.78527,0.94254 -2.4992,1.16352 -0.71392,0.22097 -2.28561,0.82239 -3.492651,1.33648 -1.207038,0.5141 -2.541501,1.01091 -2.965473,1.10403 -0.803684,0.17652 -1.66164,1.04081 -3.096865,3.11972 -0.466741,0.67607 -1.240647,1.41814 -1.719792,1.64903 -0.479145,0.2309 -1.136398,0.55936 -1.460562,0.72991 -0.41501,0.21836 -0.976135,1.29038 -1.896552,3.62335 -1.602278,4.06127 -1.933626,5.20414 -2.903642,10.01506 -0.420447,2.08526 -0.907634,3.93073 -1.082637,4.10104 -0.348786,0.33943 -0.222685,-0.92035 0.390772,-3.90391 0.177289,-0.86224 0.240715,-1.87294 0.140947,-2.24598 -0.181037,-0.67692 -0.182015,-0.67649 -0.493884,0.21814 -0.171869,0.49302 -0.312489,1.21719 -0.312489,1.60925 0,0.39207 -0.238125,1.40497 -0.529166,2.2509 -0.291042,0.84593 -0.529167,1.82246 -0.529167,2.17007 0,0.57402 -0.08161,0.61672 -0.889094,0.46524 -0.674388,-0.12652 -0.927959,-0.0655 -1.05003,0.25259 -0.08851,0.23066 -0.343265,0.41939 -0.566113,0.41939 -0.222849,0 -0.406805,0.20836 -0.408792,0.46302 -0.002,0.25466 -0.08185,0.75554 -0.177464,1.11307 l -0.173852,0.65005 0.721601,-0.56761 c 0.396881,-0.31219 1.339943,-0.76845 2.095694,-1.01392 0.75575,-0.24547 1.623298,-0.67272 1.927883,-0.94944 0.304585,-0.27673 1.216355,-0.61098 2.026155,-0.74278 0.809801,-0.1318 2.048876,-0.47571 2.753501,-0.76425 0.704624,-0.28854 1.738374,-0.58848 2.297221,-0.66654 1.602581,-0.22384 3.394204,-0.99233 3.241462,-1.39037 -0.174384,-0.45443 0.373954,-0.79058 0.625556,-0.38348 0.135653,0.2195 0.662187,0.003 1.756356,-0.72147 2.101573,-1.39189 2.954523,-1.80087 4.208457,-2.01789 0.58208,-0.10075 1.6678,-0.40681 2.41271,-0.68013 1.17823,-0.43233 1.68118,-0.46604 3.86699,-0.25925 1.38194,0.13075 3.12836,0.48042 3.88094,0.77706 0.75258,0.29664 1.77823,0.53935 2.27922,0.53935 1.3882,0 3.03826,0.74738 3.03826,1.37616 0,0.43233 0.24255,0.30688 1.3746,-0.71093 0.75604,-0.67974 1.57494,-1.67304 1.81978,-2.20733 0.24484,-0.5343 0.87643,-1.38175 1.40352,-1.88324 0.81666,-0.77699 0.95835,-0.8353 0.95835,-0.39438 0,0.28459 -0.23533,0.66439 -0.52295,0.84402 -0.28763,0.17962 -0.76015,0.79151 -1.05004,1.35976 l -0.52708,1.03316 2.10837,0.18664 c 1.16736,0.10333 2.10837,0.30976 2.10837,0.4625 0,0.18169 -0.67383,0.21891 -1.97385,0.10902 -1.08562,-0.0918 -2.15276,-0.0982 -2.37142,-0.0143 -1.0439,0.40058 -2.96324,7.74079 -3.21143,12.28157 -0.18055,3.30322 -0.17882,3.31734 0.5074,4.13287 1.0665,1.26746 1.97877,1.54169 3.458,1.03948 0.6757,-0.2294 1.46506,-0.4171 1.75413,-0.4171 0.98271,0 2.60436,-1.31724 2.89069,-2.34805 0.36521,-1.3148 0.33782,-3.5631 -0.0481,-3.94903 -0.47708,-0.47708 -0.86579,-0.39439 -2.23865,0.47625 -1.38775,0.88008 -1.94176,0.99332 -1.94176,0.39687 0,-0.21828 0.10544,-0.3671 0.23432,-0.33072 0.12888,0.0364 0.88669,-0.32559 1.68403,-0.80438 1.27159,-0.76356 1.53317,-0.83248 2.12904,-0.56099 1.09451,0.49869 1.37075,1.53212 1.00368,3.75479 -0.45744,2.76995 -1.19059,3.43054 -4.74298,4.27358 -2.14891,0.50998 -2.95248,0.41187 -4.16164,-0.50809 -1.21888,-0.92735 -1.53086,-2.29614 -1.19634,-5.24887 0.15124,-1.33507 0.32076,-2.84412 0.3767,-3.35344 0.14612,-1.33034 1.23541,-5.47308 1.91317,-7.27604 0.19197,-0.51069 0.17666,-0.50956 -0.43876,0.0325 -0.35073,0.3089 -0.78212,0.5088 -0.95865,0.44422 -0.17692,-0.0647 -0.37374,0.15821 -0.43854,0.4967 -0.51484,2.68921 -0.78378,3.51416 -1.59919,4.90546 -1.08852,1.85727 -2.86673,3.80431 -3.9913,4.37025 -0.99668,0.50158 -4.02079,1.26027 -5.02337,1.26027 -1.24951,0 -5.22586,-0.78482 -6.286416,-1.24077 -0.545071,-0.23433 -1.273031,-0.79577 -1.617689,-1.24764 -0.760011,-0.99643 -2.354064,-4.14228 -2.807709,-5.541 -0.290963,-0.89713 -0.413073,-1.00354 -1.028732,-0.89647 -1.171091,0.20367 -3.241401,0.74385 -5.328789,1.39037 -1.091406,0.33804 -2.397653,0.68582 -2.902772,0.77286 -0.547172,0.0943 -1.218967,0.48732 -1.661993,0.97237 -0.570036,0.62411 -0.825695,0.746 -1.095339,0.52222 -0.769591,-0.63871 -2.988671,0.87324 -3.582687,2.44102 -0.436026,1.1508 -0.342213,1.77238 0.417906,2.76895 0.675893,0.88614 0.746832,0.91251 2.05052,0.76228 0.742724,-0.0856 1.634238,-0.23757 1.981142,-0.33773 0.457057,-0.13197 0.599071,-0.0871 0.515742,0.16286 -0.114736,0.34421 -2.245923,1.02437 -3.279061,1.04651 -0.299796,0.006 -0.92365,-0.35844 -1.38634,-0.81081 -0.587075,-0.57397 -0.874318,-0.71387 -0.95068,-0.46302 -0.06018,0.1977 -0.292168,0.95222 -0.515524,1.67669 -0.425235,1.3793 -0.378744,1.77123 0.147663,1.24482 0.572078,-0.57208 0.687321,-0.32694 0.568027,1.20826 -0.06502,0.83675 -0.01425,2.29526 0.112827,3.24115 0.227186,1.69107 0.236533,1.70654 0.559773,0.92604 0.1808,-0.43656 0.452158,-1.86531 0.603016,-3.175 0.150858,-1.30969 0.380167,-2.49436 0.509576,-2.6326 0.142197,-0.15191 0.235288,-0.0211 0.235288,0.33073 0,0.32014 0.119063,0.58208 0.264584,0.58208 0.232873,0 0.37614,-0.63922 0.198437,-0.88538 -0.03638,-0.0504 0.08878,-0.27829 0.278127,-0.50645 0.301614,-0.36342 0.432751,-0.36864 1.058333,-0.0421 0.483948,0.25259 1.119067,0.31955 1.970832,0.20778 1.073854,-0.14092 1.25677,-0.099 1.25677,0.28775 0,0.39244 -0.246511,0.44099 -1.852679,0.36482 l -1.852679,-0.0879 -0.0043,0.92604 c -0.0049,1.06506 -0.471499,3.79567 -1.424092,8.33438 -0.366506,1.74625 -0.743096,3.76075 -0.836868,4.47667 -0.09377,0.71593 -0.398076,2.3828 -0.676234,3.70417 -0.932342,4.42903 -1.05618,5.61619 -0.95736,9.17766 0.09486,3.41869 0.758734,7.67744 1.89697,12.16904 0.794413,3.13483 1.444596,4.07105 6.159649,8.86948 5.092833,5.18289 5.503834,5.43841 9.979461,6.20433 1.611263,0.27573 4.35832,0.99891 6.10457,1.60705 l 3.175,1.10571 4.49791,0.0873 c 2.47386,0.048 5.62901,0.25251 7.01146,0.4544 3.36674,0.49166 5.87503,0.50647 9.09417,0.0537 z m -10.67964,-3.51436 c -0.35469,-0.24843 -1.37286,-0.70607 -2.26259,-1.01697 -0.88974,-0.3109 -1.96549,-0.81472 -2.39055,-1.11961 -0.92098,-0.6606 -2.85567,-1.20428 -3.5271,-0.99118 -0.62598,0.19868 -1.54207,-0.58878 -1.76106,-1.51378 -0.23574,-0.99575 0.36056,-0.96066 0.71001,0.0418 0.23354,0.66993 0.42841,0.78636 1.50759,0.90076 1.84034,0.19509 2.75126,0.46642 3.48834,1.03904 0.86482,0.67187 2.29011,1.25956 3.05472,1.25956 0.33486,0 0.97185,0.30545 1.41552,0.67877 0.70666,0.59462 0.96342,0.65773 2.07082,0.50899 0.69528,-0.0934 1.71304,-0.3393 2.26169,-0.54648 0.54864,-0.20719 1.29028,-0.3767 1.64809,-0.3767 1.29514,0 4.22794,-1.13626 5.15957,-1.99899 0.94257,-0.87285 2.64584,-1.47312 2.64584,-0.93245 0,0.15709 -0.22308,0.28561 -0.49573,0.28561 -0.27265,0 -1.01679,0.47956 -1.65365,1.06569 -0.63685,0.58613 -1.45557,1.12919 -1.81937,1.20679 -0.36381,0.0776 -1.05245,0.31242 -1.53033,0.52181 -0.47788,0.20939 -1.22075,0.38071 -1.65081,0.38071 -0.43007,0 -1.40829,0.23806 -2.17384,0.52903 -1.72994,0.65752 -3.81993,0.69205 -4.69716,0.0776 z m 2.04984,-28.08365 c -0.69048,-0.24009 -1.25603,-0.54071 -1.25677,-0.66804 -0.002,-0.3171 1.21076,-0.0461 2.64448,0.59107 0.93997,0.41771 1.05137,0.52746 0.52917,0.52131 -0.3638,-0.004 -1.2264,-0.20424 -1.91688,-0.44434 z m 7.87,-2.43871 c -0.73305,-0.21878 -3.90654,-0.65965 -12.25912,-1.70306 -3.69404,-0.46146 -4.26963,-0.6977 -7.45557,-3.05993 -1.70284,-1.26258 -2.48772,-1.6764 -3.36769,-1.77558 -1.17894,-0.13289 -1.43402,-0.64868 -0.39657,-0.80187 0.74498,-0.11001 1.92021,0.51234 4.25083,2.25104 2.23028,1.66384 4.3393,2.71964 5.44008,2.72337 1.37931,0.005 7.60775,0.79777 12.79704,1.62952 4.43525,0.71089 5.25686,0.77621 6.35,0.50486 2.74604,-0.68166 3.96211,-1.48256 7.44786,-4.90512 3.54895,-3.4846 5.00434,-4.29595 1.94584,-1.08476 -2.9542,3.10168 -5.14013,4.9443 -6.8152,5.74482 -1.45018,0.69305 -1.8278,0.75673 -4.36562,0.73615 -1.52797,-0.0124 -3.13531,-0.12914 -3.57188,-0.25944 z M 95.71147,161.12955 c -0.22867,-0.22867 -0.41577,-0.65813 -0.41577,-0.95435 0,-0.40765 -0.11256,-0.49319 -0.46302,-0.3519 -1.32584,0.53452 -2.42193,0.46758 -3.21064,-0.19607 -0.43254,-0.36396 -1.21167,-0.74152 -1.73139,-0.83902 -1.40634,-0.26384 -1.29383,-1.01271 0.13663,-0.90942 0.85271,0.0616 1.14186,-0.0321 1.36645,-0.44279 0.15668,-0.28649 0.41411,-0.60836 0.57206,-0.71527 0.4324,-0.29266 1.95189,-0.24112 2.1459,0.0728 0.10079,0.16308 0.59276,-0.10653 1.207,-0.66146 1.2223,-1.10427 1.53966,-1.14665 2.3252,-0.31047 l 0.58836,0.62627 0.97911,-0.49988 c 0.61095,-0.31192 1.24513,-0.44169 1.68654,-0.34511 0.57561,0.12595 0.81906,0.004 1.30653,-0.65555 0.65945,-0.89195 1.20975,-1.0258 1.66392,-0.40469 0.17356,0.23736 0.79086,0.43437 1.48792,0.47487 0.65522,0.0381 1.33464,0.1578 1.50983,0.26607 0.17519,0.10827 0.92267,0.11671 1.66109,0.0188 1.10985,-0.14723 1.40161,-0.0973 1.68325,0.28782 0.27691,0.3787 0.44495,0.41011 0.89766,0.16783 0.85552,-0.45786 2.5119,-0.35526 3.85483,0.23878 0.7201,0.31854 1.46964,0.47263 1.84307,0.3789 0.61323,-0.15391 2.75093,0.72833 3.13761,1.29491 0.55921,0.81937 -1.59973,1.4171 -2.36269,0.65414 -0.23719,-0.23719 -0.52363,-0.19523 -1.21722,0.17829 -0.88445,0.4763 -0.93898,0.47579 -2.18889,-0.0205 -0.70502,-0.27996 -1.36051,-0.54498 -1.45665,-0.58892 -0.0961,-0.0439 -0.58888,0.28366 -1.09498,0.72802 -0.5061,0.44436 -1.2019,0.80524 -1.54623,0.80196 -2.72541,-0.026 -4.48329,-0.2119 -4.84538,-0.51242 -0.23302,-0.19338 -0.45682,-0.30488 -0.49735,-0.24776 -0.0405,0.0571 -0.27487,0.42571 -0.52077,0.81909 -0.6262,1.00179 -2.02176,1.24097 -3.03421,0.52004 -1.42913,-1.01763 -2.00215,-0.99021 -2.84827,0.13632 -1.16048,1.54505 -1.81692,1.79333 -2.6195,0.99075 z m 50.39387,-13.59749 c -0.29635,-0.29635 -0.53882,-0.72918 -0.53882,-0.96185 0,-0.83738 0.88068,-2.25416 1.64777,-2.65084 1.04114,-0.5384 1.32239,-0.19859 0.39486,0.47707 -0.62558,0.4557 -1.51346,1.73255 -1.51346,2.17648 0,0.0743 0.24709,0.36532 0.54908,0.64668 0.33635,0.31335 0.4426,0.57736 0.27424,0.68141 -0.15117,0.0934 -0.51732,-0.0726 -0.81367,-0.36895 z m -77.944593,-2.76614 c -0.681804,-0.49855 -0.368412,-0.76553 0.507632,-0.43246 0.650536,0.24733 0.698153,0.21535 0.698153,-0.46885 0,-0.84486 -0.4256,-1.36928 -1.11125,-1.36928 -0.261937,0 -0.47625,-0.11907 -0.47625,-0.26459 0,-0.30865 1.046544,-0.34809 1.504802,-0.0567 0.483423,0.30739 0.923392,1.68574 0.753789,2.36149 -0.177064,0.70548 -1.076214,0.81586 -1.876876,0.2304 z m 54.254733,-4.28198 c -1.86677,-1.0128 -3.92198,-3.56517 -3.33964,-4.14752 0.1933,-0.1933 0.35847,-0.0637 0.54539,0.42795 0.42717,1.12354 2.49425,3.01363 3.68648,3.37084 0.91645,0.27457 1.26111,0.25265 2.34021,-0.14885 1.43025,-0.53216 2.72069,-1.60594 2.72069,-2.26391 0,-0.24229 -0.26789,-0.83599 -0.59531,-1.31931 l -0.59532,-0.87878 -1.98437,0.0858 c -1.09141,0.0472 -2.4721,0.0976 -3.06821,0.11205 -0.59611,0.0144 -1.28577,0.19384 -1.53257,0.39867 -0.31741,0.26344 -0.5312,0.28997 -0.73051,0.0907 -0.19931,-0.19931 -0.11859,-0.3691 0.2758,-0.58018 0.30666,-0.16412 0.55757,-0.52815 0.55757,-0.80895 0,-0.85552 0.95301,-1.13949 3.32702,-0.99138 2.62908,0.16402 3.53705,0.63275 4.31083,2.22541 0.7299,1.50237 0.71914,2.49695 -0.0347,3.20514 -1.39823,1.31356 -4.51984,1.96213 -5.88337,1.22236 z m 3.3073,-5.62846 c 0,-0.45793 -3.12971,-0.76607 -4.07941,-0.40164 -0.9914,0.38044 -0.2608,0.63315 1.83045,0.63315 1.23692,0 2.24896,-0.10418 2.24896,-0.23151 z m -1.69343,3.51212 c -0.21572,-0.56218 -0.0386,-0.74683 0.51339,-0.53503 0.23666,0.0908 0.38318,0.30644 0.32561,0.47917 -0.16885,0.50654 -0.65367,0.53882 -0.839,0.0559 z m 7.82714,-6.72971 c -0.77379,-0.72175 -1.72629,-1.37915 -2.11666,-1.46088 -0.39037,-0.0817 -0.88836,-0.26135 -1.10664,-0.39913 -0.8777,-0.55401 -1.14435,-0.55408 -2.7825,-7.4e-4 -1.41012,0.47632 -1.87563,0.52771 -2.70173,0.2983 -0.54893,-0.15244 -1.4255,-0.27783 -1.94792,-0.27864 -1.24998,-0.002 -4.38098,0.833 -6.85535,1.8281 -2.22062,0.89306 -3.175,1.01912 -3.175,0.41939 0,-0.26695 0.26701,-0.39688 0.81555,-0.39688 0.44855,0 1.60941,-0.34725 2.57969,-0.77167 3.12244,-1.36582 6.41042,-1.91272 8.83283,-1.46921 0.6426,0.11765 1.41521,0.0329 2.22995,-0.24475 1.5593,-0.53131 2.57884,-0.54078 3.00448,-0.0279 0.18116,0.21828 0.56075,0.39687 0.84354,0.39687 0.28279,0 0.77423,0.13283 1.09208,0.29517 0.684,0.34935 3.09146,2.63577 3.09146,2.93603 0,0.42467 -0.43197,0.15548 -1.80378,-1.12405 z m -50.835336,-2.34752 c -0.366175,-0.68421 0.760506,-1.6584 3.666487,-3.17026 3.397519,-1.76758 6.419359,-2.2654 7.708659,-1.26993 0.54637,0.42185 1.4884,2.06946 1.46386,2.56027 -0.0325,0.64977 -0.88279,0.61746 -1.22551,-0.0466 -0.94727,-1.83533 -2.17727,-2.21843 -4.49599,-1.40033 -2.2108,0.78001 -5.245157,2.46302 -6.289465,3.48846 -0.455349,0.44712 -0.507708,0.4369 -0.828041,-0.16165 z m 32.067766,-2.33074 c -0.53484,-0.19214 -0.37943,-1.33105 0.26458,-1.93895 1.17038,-1.10473 2.10584,-1.39526 4.90053,-1.52199 1.49706,-0.0679 3.42816,0.0113 4.29948,0.17628 0.86997,0.16474 2.31679,0.43924 3.21516,0.61 1.64314,0.31233 2.59994,0.93139 2.59994,1.6822 0,0.62536 -0.8192,0.80898 -1.21209,0.27168 -0.50963,-0.69696 -4.70229,-1.45129 -8.12501,-1.46182 -2.35391,-0.007 -3.03866,0.085 -3.90261,0.52576 -0.57628,0.294 -1.04779,0.69614 -1.04779,0.89364 0,0.47173 -0.57415,0.91337 -0.99219,0.7632 z m -55.632688,58.99351 c 0.0022,-0.47295 -0.109616,-0.8599 -0.248543,-0.8599 -0.326823,0 -0.652319,1.72275 -0.402016,2.12775 0.287591,0.46533 0.645681,-0.23254 0.650559,-1.26785 z m 1.46533,-1.29981 c -0.09647,-0.77211 -0.286127,-1.47227 -0.421463,-1.55591 -0.368691,-0.22786 -0.299065,2.64744 0.08466,3.49627 l 0.330729,0.7316 0.09073,-0.63406 c 0.0499,-0.34874 0.01181,-1.26579 -0.08466,-2.0379 z m 85.038868,1.29981 c -0.014,-0.94561 -0.0749,-1.12576 -0.24599,-0.72761 -0.31782,0.73962 -0.31782,1.98438 0,1.98438 0.14552,0 0.25622,-0.56555 0.24599,-1.25677 z m -2.04253,-1.19063 c 0.0544,-1.05502 0.008,-2.09682 -0.10253,-2.3151 -0.13057,-0.25716 -0.20515,-0.0709 -0.21185,0.52917 -0.006,0.50932 -0.0854,1.55111 -0.17719,2.3151 -0.1087,0.90499 -0.0694,1.38906 0.11288,1.38906 0.16176,0 0.32146,-0.80898 0.37869,-1.91823 z m -81.955374,0.6136 c 0.08372,-0.13547 0.03122,-0.32109 -0.116677,-0.41249 -0.147895,-0.0914 -0.268899,0.0194 -0.268899,0.2463 0,0.46475 0.158764,0.53318 0.385576,0.16619 z m 88.251364,-1.15838 c 8.4e-4,-0.60987 0.12125,-1.82324 0.26757,-2.69636 0.14633,-0.87313 0.31817,-3.45232 0.38188,-5.73155 0.0944,-3.37721 0.0476,-4.17023 -0.25285,-4.28553 -0.2276,-0.0873 -0.43804,-0.75436 -0.54988,-1.74293 -0.16783,-1.48342 -0.40919,-1.92761 -0.74881,-1.3781 -0.0759,0.12284 -0.36976,1.26331 -0.65298,2.53437 -0.50829,2.28114 -0.50838,2.32587 -0.007,3.45979 0.27949,0.63183 0.6556,1.19849 0.83581,1.25924 0.24597,0.0829 0.32159,1.33868 0.30338,5.03783 -0.0134,2.71006 0.076,4.86544 0.19844,4.78974 0.12248,-0.0757 0.22339,-0.63662 0.22423,-1.2465 z m -84.974447,-2.85615 c -0.409251,-2.06629 -0.795019,-3.80781 -0.857262,-3.87005 -0.06224,-0.0622 -0.251349,0.58088 -0.420234,1.42917 -0.168886,0.84828 -0.403971,1.91537 -0.522412,2.37129 -0.118441,0.45593 -0.114911,1.3489 0.0078,1.98438 0.122755,0.63548 0.228377,1.22983 0.234714,1.32078 0.0063,0.0909 0.318109,0.16536 0.692825,0.16536 0.374716,0 0.810495,0.1292 0.968397,0.2871 0.629447,0.62944 0.609255,-0.0875 -0.103872,-3.68803 z m 83.303217,2.73947 c -0.0666,-0.25466 -0.121,-0.0463 -0.121,0.46303 0,0.50932 0.0545,0.71768 0.121,0.46302 0.0666,-0.25467 0.0666,-0.67138 0,-0.92605 z m -2.59459,-2.93273 c 0.31562,-1.64938 0.69802,-4.26876 0.84976,-5.82083 0.16609,-1.69878 0.41249,-2.92853 0.61907,-3.08973 0.50876,-0.397 1.20796,-3.80736 1.20796,-5.89189 0,-1.94097 0.45462,-4.78792 0.83104,-5.20419 0.13248,-0.14651 0.22729,0.0532 0.22729,0.47864 0,0.4755 0.10428,0.66553 0.29914,0.54511 0.20307,-0.12551 0.24496,-0.76782 0.13045,-1.99999 -0.19795,-2.12978 0.19387,-2.45288 0.67709,-0.55834 l 0.32055,1.25677 0.23988,-0.99711 c 0.29736,-1.23611 0.0602,-2.34723 -0.45851,-2.14818 -0.74123,0.28444 -1.47318,-0.39225 -1.47318,-1.36194 0,-0.5042 -0.10605,-0.91673 -0.23567,-0.91673 -0.12961,0 -0.31593,1.33945 -0.41403,2.97656 -0.17049,2.84518 -1.03056,9.09148 -1.86172,13.52074 -0.21441,1.14263 -0.80862,3.05253 -1.32046,4.24422 -0.82389,1.9182 -0.93062,2.4272 -0.93062,4.43785 0,2.47182 0.22707,4.08238 0.52772,3.74289 0.10471,-0.11823 0.44862,-1.56446 0.76424,-3.21385 z m 2.32836,0.70031 c -0.0845,-0.21106 -0.14716,-0.14837 -0.15985,0.15985 -0.0115,0.27892 0.051,0.43519 0.13896,0.34727 0.0879,-0.0879 0.0973,-0.31612 0.0209,-0.50712 z m -87.511827,0.11576 c -0.01023,-0.10914 -0.120922,-0.43656 -0.245987,-0.72761 -0.201496,-0.4689 -0.229508,-0.44631 -0.245987,0.19844 -0.01023,0.40018 0.100467,0.72761 0.245987,0.72761 0.145521,0 0.256215,-0.0893 0.245987,-0.19844 z m 88.622697,-3.70417 c 0.0172,-0.32742 -0.0878,-0.59531 -0.23328,-0.59531 -0.14676,0 -0.25064,0.61854 -0.23328,1.38906 0.0268,1.18733 0.0606,1.27379 0.23328,0.59531 0.11109,-0.43656 0.21607,-1.06164 0.23328,-1.38906 z m -90.452571,0.13229 c 0.002,-0.9095 0.07772,-1.9513 0.168287,-2.3151 0.126445,-0.5079 0.09069,-0.59276 -0.154001,-0.36555 -0.360442,0.33469 -0.802274,3.12237 -0.61088,3.85426 0.270232,1.03337 0.59316,0.39811 0.596594,-1.17361 z m 4.591578,-0.17137 c 0.0907,-0.5672 0.1109,-1.37087 0.04489,-1.78594 -0.06601,-0.41506 -0.190545,-1.20446 -0.27675,-1.75421 -0.196343,-1.25211 -0.659167,-1.03102 -0.659167,0.31489 0,1.65237 0.326117,4.25653 0.533042,4.25653 0.106192,0 0.267284,-0.46407 0.357982,-1.03127 z m 84.833963,-1.34998 c 0,-1.05833 -0.11339,-1.85208 -0.26458,-1.85208 -0.15119,0 -0.26458,0.79375 -0.26458,1.85208 0,1.05833 0.11339,1.85208 0.26458,1.85208 0.15119,0 0.26458,-0.79375 0.26458,-1.85208 z m -87.357457,-4.7625 c 0.0071,-0.60129 -0.01291,-0.61332 -0.219613,-0.13229 -0.125065,0.29104 -0.223891,0.88635 -0.219614,1.32291 0.0076,0.77402 0.01304,0.77731 0.219614,0.1323 0.116509,-0.36381 0.215335,-0.95912 0.219613,-1.32292 z m 0.01468,-4.07957 c 0.534429,-2.82276 0.325746,-3.10622 -0.340953,-0.46312 -0.406364,1.611 -0.571697,3.45715 -0.283827,3.16929 0.07627,-0.0763 0.357426,-1.29406 0.62478,-2.70617 z m 1.349153,0.69052 c -0.0029,-0.89889 -0.07478,-1.13171 -0.260532,-0.84428 -0.343883,0.53212 -0.343883,2.46149 0,2.24895 0.145521,-0.0899 0.26276,-0.72204 0.260532,-1.40467 z m 1.062385,0.74322 c 0,-0.14553 -0.119063,-0.26459 -0.264583,-0.26459 -0.145521,0 -0.264584,0.11906 -0.264584,0.26459 0,0.14552 0.119063,0.26458 0.264584,0.26458 0.14552,0 0.264583,-0.11906 0.264583,-0.26458 z m 87.308439,-2.18282 c -0.003,-0.99442 -0.0769,-1.27631 -0.26053,-0.99218 -0.43069,0.66644 -0.30367,2.38125 0.17639,2.38125 0.0485,0 0.0864,-0.62508 0.0841,-1.38907 z m 5.17722,-4.74556 c 0.058,-1.72511 0.009,-2.4856 -0.13336,-2.06746 -0.51836,1.52306 -1.07106,3.42604 -1.07106,3.68774 0,0.30025 0.86306,1.29925 1.01935,1.1799 0.0513,-0.0392 0.1346,-1.29927 0.18507,-2.80018 z m -90.239069,0.67965 c 0.237631,-0.81742 0.353217,-1.68062 0.256858,-1.91822 -0.15221,-0.37532 -0.202047,-0.36257 -0.379797,0.0971 -0.271147,0.7013 -0.623728,3.3073 -0.447462,3.3073 0.07609,0 0.33277,-0.6688 0.570401,-1.48623 z m 88.305289,-2.91429 c 0.3906,-2.3901 0.38914,-2.64706 -0.0199,-3.5021 -0.70532,-1.47449 -1.03918,-1.32388 -1.21017,0.54592 -0.19287,2.10921 -0.25946,3.77288 -0.20216,5.0509 0.0395,0.88199 0.10252,0.97066 0.52778,0.74306 0.36342,-0.19449 0.58718,-0.89661 0.90442,-2.83778 z m -91.662348,1.42395 c 0.131501,-0.49687 0.127713,-0.89945 -0.009,-0.9536 -0.338211,-0.13398 -0.44101,0.0246 -0.630669,0.9729 -0.226406,1.13203 0.339451,1.11496 0.63964,-0.0193 z m 2.854521,-1.59515 c 0.02917,-0.17769 0.140317,-0.68026 0.246988,-1.11683 0.13018,-0.53277 0.106276,-0.70676 -0.0727,-0.52916 -0.146659,0.14552 -0.351243,0.74083 -0.454632,1.32291 -0.103389,0.58209 -0.09454,0.96559 0.01966,0.85224 0.114204,-0.11335 0.231512,-0.35148 0.260684,-0.52916 z m -0.241325,-2.64293 c 0.439268,-1.45752 0.54195,-2.30853 0.430915,-3.57135 -0.08017,-0.91183 -0.221934,-1.70495 -0.315021,-1.76248 -0.09309,-0.0575 -0.397495,0.0623 -0.676462,0.26628 -1.090021,0.79705 -1.272637,7.01258 -0.205246,6.98578 0.104021,-0.003 0.448637,-0.86581 0.765814,-1.91823 z m 90.836852,0.45216 c 0,-0.22687 -0.11907,-0.33891 -0.26459,-0.24897 -0.14552,0.0899 -0.26458,0.27555 -0.26458,0.41249 0,0.13693 0.11906,0.24897 0.26458,0.24897 0.14552,0 0.26459,-0.18562 0.26459,-0.41249 z m -0.79375,-2.51355 c 0,-0.29963 -0.11907,-0.47119 -0.26459,-0.38126 -0.14552,0.0899 -0.26458,0.33509 -0.26458,0.54479 0,0.20969 0.11906,0.38126 0.26458,0.38126 0.14552,0 0.26459,-0.24516 0.26459,-0.54479 z m -0.18783,-1.83683 c 0.0762,-0.29124 0.0305,-0.46281 -0.10143,-0.38126 -0.13195,0.0815 -0.23991,0.31984 -0.23991,0.52953 0,0.54762 0.17978,0.46953 0.34134,-0.14827 z m -90.035083,-3.07357 c 0,-0.21828 -0.119062,-0.32329 -0.264583,-0.23336 -0.145521,0.0899 -0.264583,0.34212 -0.264583,0.5604 0,0.21828 0.119062,0.32329 0.264583,0.23335 0.145521,-0.0899 0.264583,-0.34211 0.264583,-0.56039 z m 89.958323,-2.03404 c 0,-0.19001 0.30575,-0.75555 0.67943,-1.25677 0.64276,-0.8621 1.70182,-2.92223 1.70182,-3.31043 0,-0.0986 -0.17662,-0.0326 -0.39249,0.14654 -0.64456,0.53494 -1.04219,-0.86155 -0.99716,-3.50209 0.0224,-1.31097 -0.0694,-2.31511 -0.21147,-2.31511 -0.13803,0 -0.25096,0.25944 -0.25096,0.57653 0,1.02549 -0.61075,2.33389 -1.08944,2.33389 -0.24968,0 -0.50405,-0.14883 -0.56528,-0.33073 -0.087,-0.25854 -0.20638,-0.25226 -0.54683,0.0288 -0.38093,0.31443 -0.46916,0.27099 -0.70399,-0.34665 -0.14766,-0.38838 -0.37953,-0.6375 -0.51527,-0.55361 -0.13573,0.0839 -0.32943,0.0188 -0.43044,-0.14462 -0.13012,-0.21053 -0.24994,-0.19251 -0.4111,0.0618 -0.44022,0.69476 -0.21174,1.15742 0.80227,1.62448 0.56329,0.25947 1.57225,0.9542 2.24213,1.54384 1.0069,0.88631 1.21795,1.23094 1.21795,1.98878 0,0.50419 -0.18123,1.26716 -0.40274,1.69551 -0.80426,1.55527 -0.93927,2.10533 -0.51675,2.10533 0.21468,0 0.39032,-0.15547 0.39032,-0.34548 z m -89.333995,-4.94619 c 0.132379,-1.29253 0.118569,-1.35169 -0.123544,-0.52917 -0.464834,1.57916 -0.590588,2.54139 -0.293916,2.24896 0.14763,-0.14552 0.335487,-0.91943 0.41746,-1.71979 z m 31.197625,0.31107 c 3.10109,-1.40629 5.69704,-5.21365 5.9482,-8.72394 l 0.129,-1.80302 -1.05475,-0.31601 c -0.58012,-0.17381 -1.36586,-0.31602 -1.74609,-0.31602 -0.38024,0 -1.57804,-0.29765 -2.66179,-0.66145 -2.52734,-0.8484 -5.35437,-0.89963 -7.30111,-0.1323 -0.73838,0.29105 -1.66552,0.52924 -2.06031,0.52932 -1.096526,2.3e-4 -5.056286,2.54905 -5.411328,3.48317 -0.186794,0.49146 0.477852,2.39515 1.640031,4.69741 1.027173,2.03482 2.257897,3.08093 4.029747,3.42526 0.77274,0.15017 1.64311,0.32488 1.93415,0.38825 0.29105,0.0634 1.51405,0.12902 2.71779,0.1459 1.87568,0.0263 2.42424,-0.0762 3.83646,-0.71657 z m -7.08341,-1.52135 c -1.25915,-0.4512 -2.24896,-1.48764 -2.24896,-2.35491 0,-0.34389 0.19866,-1.02186 0.44147,-1.5066 0.24281,-0.48473 0.52289,-1.05993 0.62241,-1.27821 0.19453,-0.42665 2.26665,-0.68031 3.3455,-0.40953 1.52366,0.38241 3.61422,3.34737 3.17226,4.49908 -0.49551,1.29129 -3.1829,1.82052 -5.33268,1.05017 z m 4.13385,-0.80379 c 0.58215,-0.52684 0.64124,-1.39082 0.14183,-2.07379 -0.5045,-0.68996 -2.16496,-0.37406 -2.39879,0.45636 -0.1608,0.57103 -0.17737,0.57366 -0.54942,0.0874 -0.21099,-0.27577 -0.71505,-0.53957 -1.12013,-0.58622 -0.40508,-0.0467 -0.97007,-0.11868 -1.25554,-0.16005 -0.78524,-0.11382 -0.79027,0.66917 -0.0102,1.59618 1.11723,1.32774 4.05193,1.71216 5.1923,0.68014 z m -1.65338,-2.91379 c 1.04144,-0.20829 1.0469,-0.50099 0.0193,-1.0324 -1.13402,-0.58642 -3.2548,-0.43597 -3.38329,0.24001 -0.052,0.27361 0.066,0.59921 0.2622,0.72356 0.42207,0.26747 1.94016,0.30116 3.10182,0.0688 z m 65.33992,2.57279 c 0.0479,-0.32661 0.002,-0.79353 -0.10256,-1.03761 -0.15808,-0.36993 -0.22322,-0.3337 -0.39143,0.21768 -0.31749,1.04073 -0.28738,1.64242 0.0762,1.52268 0.1819,-0.0599 0.36991,-0.37614 0.41779,-0.70275 z m -3.97313,-5.03673 c 0.0661,-0.19843 -0.0331,-0.29765 -0.23151,-0.23151 -0.191,0.0637 -0.39936,0.27203 -0.46302,0.46302 -0.0661,0.19844 0.0331,0.29766 0.23151,0.23151 0.19099,-0.0637 0.39935,-0.27202 0.46302,-0.46302 z m -1.4226,-1.14101 c -0.10524,-0.47295 -0.17734,-1.26049 -0.16023,-1.75011 0.0338,-0.96856 -0.34314,-1.88791 -0.77414,-1.88791 -0.44781,0 0.007,3.77619 0.50162,4.16718 0.60402,0.47724 0.64542,0.42662 0.43275,-0.52916 z m 1.47221,-0.44741 c 0,-0.13693 -0.11907,-0.32255 -0.26459,-0.41249 -0.14552,-0.0899 -0.26458,0.0221 -0.26458,0.24897 0,0.22687 0.11906,0.41249 0.26458,0.41249 0.14552,0 0.26459,-0.11204 0.26459,-0.24897 z m 1.58345,-2.99218 c -0.002,-0.61846 -0.11947,-1.30307 -0.26054,-1.52135 -0.18205,-0.2817 -0.25765,0.0446 -0.26053,1.12448 -0.002,0.84055 0.11435,1.52135 0.26053,1.52135 0.14552,0 0.26276,-0.50601 0.26054,-1.12448 z m -83.442182,-4.30694 c 0.231202,-1.10297 0.279161,-1.9164 0.128827,-2.18503 -0.173388,-0.30983 -0.287652,0.007 -0.413984,1.14686 -0.09597,0.86614 -0.240514,1.93199 -0.321207,2.36855 -0.289001,1.56356 0.24562,0.39059 0.606364,-1.33038 z m 81.774882,0.35473 c -0.0845,-0.21107 -0.14715,-0.14837 -0.15985,0.15985 -0.0115,0.27892 0.0511,0.43519 0.13897,0.34727 0.0879,-0.0879 0.0973,-0.31612 0.0209,-0.50712 z M 104.23388,95.51926 c 0.94027,-0.391331 3.23265,-2.387757 3.23265,-2.815312 0,-0.112265 -0.50602,-0.458534 -1.12448,-0.769489 -0.61847,-0.310954 -1.32431,-0.740824 -1.56854,-0.955266 -0.5977,-0.524792 -1.39222,-0.234994 -2.10671,0.768408 -0.61154,0.858837 -0.6977,1.562138 -0.39065,3.188871 0.21067,1.116176 0.48203,1.196955 1.95773,0.582788 z m 4.0264,-1.971851 c 0,-0.145521 -0.11907,-0.264583 -0.26459,-0.264583 -0.14552,0 -0.26458,0.119062 -0.26458,0.264583 0,0.145521 0.11906,0.264583 0.26458,0.264583 0.14552,0 0.26459,-0.119062 0.26459,-0.264583 z m 46.08328,40.369571 c 0.0476,-0.38419 0.20557,-0.69482 0.35109,-0.6903 0.39576,0.0123 0.31929,1.13652 -0.0865,1.27179 -0.24527,0.0817 -0.32502,-0.0935 -0.26459,-0.58149 z M 94.32607,105.82115 c -0.34951,-0.53342 -0.48656,-1.52904 -0.60141,-4.369 -0.15163,-3.749245 -0.12685,-4.200574 0.23059,-4.200574 0.11162,0 0.22196,1.101328 0.24519,2.447395 0.0232,1.346069 0.10057,2.834349 0.17187,3.307299 0.0713,0.47294 0.19241,1.26511 0.26913,1.76039 0.26348,1.70098 1.78842,1.30074 2.1377,-0.56107 0.21814,-1.16279 0.61196,-1.29857 2.15886,-0.74434 0.68887,0.24681 1.55014,0.46865 1.91394,0.49298 0.36381,0.0243 0.63641,0.16329 0.6058,0.30881 -0.0934,0.44403 -1.05432,0.45216 -1.89767,0.0161 -0.43918,-0.22711 -1.09669,-0.41293 -1.46112,-0.41293 -0.54866,0 -0.69269,0.16036 -0.83755,0.93251 -0.31453,1.67663 -2.09936,2.29834 -2.93533,1.02248 z m 14.79272,-4.47941 c -0.52988,-0.37114 -0.59393,-0.64033 -0.59393,-2.496028 0,-1.144013 0.0723,-2.268355 0.1606,-2.498538 0.20546,-0.535423 1.22651,-0.53573 2.26118,-6.79e-4 0.44441,0.22981 1.44666,0.432789 2.22723,0.451065 1.14341,0.02677 1.54459,-0.08455 2.06431,-0.572797 0.52477,-0.492996 0.74486,-0.552627 1.18005,-0.319722 0.81152,0.434312 1.17804,0.158768 2.26857,-1.705473 0.55033,-0.940771 1.1084,-1.710492 1.24016,-1.710492 0.35615,0 0.32108,0.09807 -0.69838,1.952749 -1.1515,2.094901 -1.47385,2.374994 -2.55126,2.216863 -0.5904,-0.08665 -1.00842,0.02475 -1.37523,0.366489 -0.74919,0.697971 -3.07937,0.663217 -4.59084,-0.06847 -0.63562,-0.3077 -1.20872,-0.506415 -1.27354,-0.441589 -0.0648,0.06483 -0.19419,0.84806 -0.28747,1.740521 -0.13465,1.288305 -0.0768,1.764241 0.28064,2.309801 0.59191,0.90338 0.43315,1.29829 -0.31209,0.77631 z"
       id="path1" /></g></svg>
