<?xml version="1.0" encoding="UTF-8" standalone="no"?>
<!-- Created with Inkscape (http://www.inkscape.org/) -->

<svg
   width="102.00088mm"
   height="116.78424mm"
   viewBox="0 0 102.00088 116.78424"
   version="1.1"
   id="svg1"
   xml:space="preserve"
   inkscape:version="1.3 (0e150ed, 2023-07-21)"
   sodipodi:docname="speak.svg"
   xmlns:inkscape="http://www.inkscape.org/namespaces/inkscape"
   xmlns:sodipodi="http://sodipodi.sourceforge.net/DTD/sodipodi-0.dtd"
   xmlns="http://www.w3.org/2000/svg"
   xmlns:svg="http://www.w3.org/2000/svg"><sodipodi:namedview
     id="namedview1"
     pagecolor="#ffffff"
     bordercolor="#000000"
     borderopacity="0.25"
     inkscape:showpageshadow="2"
     inkscape:pageopacity="0.0"
     inkscape:pagecheckerboard="0"
     inkscape:deskcolor="#d1d1d1"
     inkscape:document-units="mm"
     inkscape:zoom="2.3579016"
     inkscape:cx="192.33203"
     inkscape:cy="237.0752"
     inkscape:window-width="1312"
     inkscape:window-height="697"
     inkscape:window-x="1578"
     inkscape:window-y="578"
     inkscape:window-maximized="0"
     inkscape:current-layer="layer1" /><defs
     id="defs1" /><g
     inkscape:label="Layer 1"
     inkscape:groupmode="layer"
     id="layer1"
     transform="translate(-54.082189,-90.107876)"><path
       id="path1"
       style="fill:#000000"
       d="m 104.19334,90.107359 v 5.17e-4 c -0.89691,0 -1.88685,0.812134 -2.54455,2.087728 -0.3408,0.660958 -0.18411,2.90044 0.26097,3.732072 0.14971,0.27974 0.0816,0.857856 -0.18914,1.610754 -0.76726,2.133782 0.27342,4.3897 2.35025,5.09478 l 0.97048,0.32918 -1.84485,1.44435 c -2.24121,1.75443 -3.17375,2.24778 -4.725806,2.50166 -0.654835,0.10712 -2.137208,0.65717 -3.294373,1.22215 -1.15716,0.56498 -2.474881,1.02733 -2.927986,1.02733 -0.45311,0 -1.760721,0.47625 -2.905766,1.05833 -1.145055,0.58208 -2.272857,1.05833 -2.506307,1.05833 -0.23345,0 -0.896313,0.24076 -1.472778,0.53485 -0.576475,0.29409 -1.405191,0.64545 -1.841748,0.78083 -3.793044,1.1763 -4.164986,1.40146 -5.550566,3.36362 -1.754841,2.48515 -3.618139,3.68377 -3.008602,1.93529 0.152187,-0.43657 0.443461,-0.79375 0.647506,-0.79375 0.247602,0 0.371037,-0.30801 0.371037,-0.92605 0,-1.7618 -0.434683,-1.14238 -2.228805,3.175 -0.508938,1.22472 -0.66236,1.42499 -0.67076,0.87695 -0.01401,-0.91614 -0.452511,-2.06757 -0.787549,-2.06757 -0.421932,0 -1.043507,2.50724 -0.895552,3.6127 0.125743,0.93949 0.08544,1.0203 -0.527617,1.0542 -0.4477,0.0248 -0.706663,-0.12605 -0.794783,-0.46302 -0.159137,-0.60859 -0.709518,-0.66632 -0.709518,-0.0744 0,0.2569 -0.14742,0.36856 -0.372587,0.28216 -0.483334,-0.18548 -0.623423,0.4085 -0.847493,3.59616 -0.174363,2.48056 -0.199764,2.5613 -0.766878,2.41897 -0.737291,-0.18505 -0.872596,0.25225 -1.071253,3.46387 -0.150989,2.44101 -0.574202,4.63021 -0.895036,4.63021 -0.550195,0 -1.338419,1.16192 -1.338419,1.97301 0,0.49175 -0.07384,1.08587 -0.163815,1.32033 -0.146899,0.38283 -0.198709,0.37819 -0.510046,-0.0444 -0.408691,-0.555 -0.533632,-0.32516 -0.749825,1.38131 -0.218947,1.72821 -0.450072,2.87707 -0.692464,3.43958 -0.240722,0.55864 -0.587361,3.81456 -0.584461,5.49011 9.61e-4,0.5457 -0.105179,0.99219 -0.236161,0.99219 -0.130982,0 -0.238228,-0.11907 -0.238228,-0.26459 0,-0.14552 -0.108741,-0.26458 -0.241846,-0.26458 -0.133105,0 -0.315433,0.92273 -0.405143,2.05052 -0.217828,2.73845 -2.083701,14.61823 -2.295984,14.61823 -0.09215,0 -0.297893,-0.87721 -0.457337,-1.94924 -0.337573,-2.26967 -0.697668,-3.34243 -1.121895,-3.34243 -0.398539,0 -0.09841,3.56235 0.468189,5.55625 0.450928,1.58686 0.519764,3.99177 0.14366,5.00848 -0.200275,0.54139 -0.263949,0.39296 -0.403593,-0.94309 -0.219882,-2.10371 -0.750032,-3.66851 -1.243335,-3.66851 -0.32683,0 -0.380942,0.39149 -0.311092,2.24896 0.04652,1.23687 0.254479,3.08239 0.462504,4.10104 0.425052,2.08142 0.467812,2.95123 0.09974,2.03347 -0.135066,-0.33676 -0.374045,-0.53295 -0.530717,-0.43615 -0.156675,0.0968 -0.222058,0.33853 -0.145728,0.53743 0.07632,0.1989 0.03475,0.42606 -0.09198,0.50436 -0.126737,0.0783 -0.283546,-0.007 -0.348816,-0.19017 -0.06527,-0.18278 -0.215057,-0.24223 -0.332796,-0.13229 -0.117738,0.10994 -0.06127,1.1815 0.125574,2.38125 0.18684,1.19974 0.371551,3.82768 0.410311,5.83996 0.03985,2.06861 0.189375,3.77778 0.344165,3.93257 0.435009,0.43501 0.847906,-0.008 0.862996,-0.92604 l 0.01395,-0.84439 0.414961,0.59531 c 0.514177,0.73705 1.05508,0.76532 1.276925,0.0661 0.241256,-0.76014 0.502565,-0.65697 1.005107,0.39687 0.439841,0.92237 0.95185,1.22445 1.00924,0.59531 0.130636,-1.43216 0.254805,-1.90007 0.552938,-2.08772 0.251898,-0.15854 0.40303,0.0819 0.567407,0.90278 0.330326,1.64957 0.406577,1.83016 0.699699,1.649 0.146549,-0.0906 0.266651,-0.92441 0.266651,-1.85312 0,-1.78443 0.19826,-2.12533 1.073836,-1.84743 0.364373,0.11564 0.513817,0.35756 0.460437,0.74466 -0.06162,0.44681 0.04514,0.56094 0.484208,0.51624 0.466161,-0.0475 0.617948,0.158 0.877983,1.19063 0.790296,3.13837 1.600702,4.27864 7.032129,9.895 3.94615,4.08054 4.989132,4.68608 9.451102,5.48494 1.69463,0.3034 4.654547,1.08751 6.577377,1.74253 l 3.49591,1.19114 3.993038,0.0227 c 2.19596,0.0125 5.183159,0.18093 6.638359,0.37413 5.08705,0.67537 15.77494,-0.18945 18.58387,-1.50378 0.61685,-0.28863 2.46232,-1.79718 4.10105,-3.35225 1.63867,-1.55507 3.69403,-3.37736 4.56716,-4.04937 2.13815,-1.6456 5.14081,-4.79166 6.273,-6.57272 0.50878,-0.80037 1.8559,-3.24115 2.99362,-5.42396 2.96466,-5.68796 2.77645,-5.58458 2.61121,-1.43402 -0.1596,4.009 0.12088,7.4193 0.62373,7.5861 0.1819,0.0603 0.33073,-0.0992 0.33073,-0.3545 0,-0.25533 0.16826,-0.65187 0.37414,-0.8816 0.20588,-0.22974 0.49439,-0.83478 0.64079,-1.3441 0.24343,-0.8469 0.28174,-0.87517 0.4501,-0.33073 0.11661,0.37709 0.3941,0.59531 0.75654,0.59531 0.51236,0 0.6078,-0.22703 0.91416,-2.17403 0.37567,-2.38753 0.81147,-3.54465 0.82527,-2.1916 0.004,0.43657 0.18637,1.72694 0.40463,2.86753 0.21825,1.14059 0.39687,2.12281 0.39687,2.18281 0,0.0599 0.1786,0.10904 0.39688,0.10904 0.21828,0 0.39687,-0.23192 0.39687,-0.51573 0,-0.28381 0.17133,-0.6119 0.38086,-0.72916 0.26153,-0.14636 0.51038,-1.26311 0.79375,-3.56205 0.22703,-1.84187 0.41289,-3.47831 0.41289,-3.63647 0,-0.15816 0.1623,-0.28784 0.3607,-0.28784 0.22934,0 0.46586,-0.55414 0.64906,-1.52135 0.57272,-3.02387 1.17909,-6.85972 1.4428,-9.12813 0.2718,-2.33813 0.71906,-3.15381 0.72606,-1.32292 0.005,1.34192 0.26614,2.2257 0.6227,2.10685 0.38971,-0.12991 0.88749,-1.95118 1.48156,-5.41982 l 0.48576,-2.83859 0.0264,2.18281 c 0.0209,1.75234 0.10411,2.18282 0.42271,2.18282 0.43734,0 0.56109,-2.54504 0.46199,-9.51053 -0.041,-2.87791 -0.12793,-3.60034 -0.45476,-3.78324 -0.25438,-0.14236 -0.40411,-0.60757 -0.40411,-1.25625 0,-0.72342 -0.15448,-1.13851 -0.51883,-1.39371 -0.50432,-0.35324 -0.48561,-0.42955 0.67025,-2.72697 1.16647,-2.31862 1.43828,-3.77087 0.67541,-3.60908 -0.27393,0.0581 -0.31672,-0.10512 -0.17364,-0.66146 0.3671,-1.42754 0.42028,-5.18402 0.0868,-6.14691 -0.17936,-0.51807 -0.32935,-1.29925 -0.33435,-1.73581 -0.007,-0.67645 -0.10655,-0.78905 -0.67024,-0.76275 -0.36381,0.017 -0.72192,-0.0622 -0.79582,-0.17621 -0.0739,-0.11403 -0.52305,-0.25163 -0.99839,-0.30593 -1.1383,-0.13 -1.19807,-0.54369 -0.12402,-0.85989 l 0.8599,-0.25322 v -3.12022 c 0,-1.71616 -0.0971,-3.12074 -0.21601,-3.12074 -0.11892,0 -0.43186,-0.92273 -0.69505,-2.05052 -0.49584,-2.12473 -0.97833,-3.30608 -1.67535,-4.10104 -0.59828,-0.68235 -0.85318,-0.56743 -0.85318,0.38395 0,1.10616 -0.34234,0.67344 -0.74982,-0.94723 -0.3871,-1.53958 -1.60047,-3.31499 -2.71508,-3.9734 -1.23021,-0.72671 -1.25642,-0.26883 -0.0439,0.76895 1.3166,1.12696 2.4505,3.30369 2.4505,4.70462 0,0.80435 0.11476,1.06128 0.52245,1.16789 0.66473,0.17383 1.01427,1.75094 0.51986,2.34662 -0.30414,0.36625 -0.36538,0.36644 -0.56637,0.008 -0.12388,-0.22137 -0.3523,-1.09191 -0.50746,-1.93477 -0.29356,-1.59475 -0.65494,-2.29188 -1.05885,-2.04225 -0.13006,0.0804 -0.31451,-0.07 -0.41031,-0.33383 -0.0958,-0.26388 -0.75607,-1.45475 -1.4671,-2.64687 -1.38704,-2.32556 -2.44517,-4.78502 -2.87734,-6.68796 -0.41886,-1.84435 -1.21963,-2.8714 -3.25458,-4.17546 -1.0344,-0.66287 -2.41628,-1.64875 -3.07113,-2.19056 -0.65484,-0.5418 -1.50153,-1.14827 -1.88154,-1.34824 -0.38002,-0.19996 -1.5111,-0.79375 -2.51354,-1.3193 -1.00243,-0.52555 -2.47748,-1.10055 -3.27784,-1.27744 -0.80037,-0.17688 -2.01311,-0.55009 -2.69493,-0.82992 -0.68177,-0.27983 -1.43244,-0.50902 -1.66811,-0.50902 -0.23566,0 -0.9838,-0.25309 -1.66243,-0.56224 -1.65401,-0.75349 -2.91444,-0.89005 -4.56096,-0.49506 -0.7543,0.18096 -2.34219,0.41777 -3.52847,0.52659 -1.18627,0.10883 -3.22858,0.4383 -4.53822,0.73225 -3.47566,0.78008 -5.035,0.94789 -4.66432,0.50126 0.4425,-0.53319 0.0133,-0.76612 -0.5209,-0.28267 -1.07308,0.97113 -3.14916,-0.98023 -3.14916,-2.960024 0,-1.528408 0.34111,-2.156458 1.17099,-2.156458 0.36209,0 1.27692,-0.44439 2.03295,-0.987536 0.75603,-0.543151 1.86241,-1.129746 2.45876,-1.303797 0.99799,-0.29125 1.08418,-0.389416 1.08418,-1.227315 0,-0.968884 0.28165,-1.188929 2.91041,-2.275313 0.74912,-0.309584 0.92251,-0.469851 0.59325,-0.549321 -0.63515,-0.153301 -2.09172,0.356251 -3.23443,1.131714 l -0.94723,0.642855 -1.44694,-0.816488 c -0.79583,-0.449134 -1.51333,-0.924634 -1.59473,-1.056266 -0.0814,-0.131632 -0.53522,-0.239262 -1.00873,-0.239262 z m 0.0992,0.629419 c 0.1697,0.03095 0.33168,0.111165 0.48111,0.242363 0.24423,0.214437 0.94991,0.644543 1.56838,0.955497 0.61846,0.310955 1.12448,0.657197 1.12448,0.769462 0,0.427555 -2.29261,2.424001 -3.23288,2.815332 -1.4757,0.614162 -1.74683,0.533261 -1.9575,-0.58291 -0.30705,-1.626728 -0.22087,-2.330121 0.39067,-3.188953 0.53587,-0.752547 1.11664,-1.103647 1.62574,-1.010791 z m 15.63419,1.752348 c -0.13176,0 -0.68939,0.769724 -1.23972,1.71049 -1.09053,1.864231 -1.45712,2.139634 -2.26859,1.705322 -0.43519,-0.232905 -0.65552,-0.173114 -1.18029,0.319877 -0.51972,0.488247 -0.92107,0.599345 -2.06448,0.572575 -0.78057,-0.01828 -1.78284,-0.221325 -2.22725,-0.451135 -1.03467,-0.535051 -2.05539,-0.534253 -2.26085,0.001 -0.0883,0.230183 -0.16071,1.354548 -0.16071,2.498556 0,1.855696 0.0639,2.124836 0.59376,2.495976 0.74524,0.52198 0.90404,0.12715 0.31213,-0.77618 -0.35744,-0.54556 -0.41525,-1.021641 -0.2806,-2.309941 0.0933,-0.892456 0.22252,-1.675632 0.28732,-1.740462 0.0648,-0.06483 0.6382,0.133617 1.27382,0.441317 1.51147,0.731682 3.84179,0.766696 4.59093,0.06873 0.36681,-0.341734 0.78476,-0.453036 1.37511,-0.366386 1.07741,0.158131 1.39977,-0.122028 2.55127,-2.216919 1.01946,-1.854669 1.0543,-1.952852 0.69815,-1.952852 z m -11.93106,0.79375 c 0.14552,0 0.26459,0.119062 0.26459,0.264583 0,0.145521 -0.11907,0.264584 -0.26459,0.264584 -0.14552,0 -0.26458,-0.119063 -0.26458,-0.264584 0,-0.145521 0.11906,-0.264583 0.26458,-0.264583 z m -14.040483,3.96875 c -0.357435,0 -0.382106,0.451564 -0.230476,4.200774 0.114845,2.83996 0.252008,3.83531 0.601513,4.36873 0.835965,1.27586 2.620692,0.65447 2.935222,-1.02216 0.144855,-0.77215 0.289019,-0.93276 0.837674,-0.93276 0.36443,0 1.021718,0.18578 1.460893,0.41289 0.843347,0.43606 1.804157,0.42793 1.897557,-0.016 0.0306,-0.14552 -0.24184,-0.28472 -0.60565,-0.30902 -0.3638,-0.0243 -1.225226,-0.24618 -1.914091,-0.49299 -1.54689,-0.55423 -1.940385,-0.41814 -2.158525,0.74465 -0.349275,1.86181 -1.874374,2.26167 -2.137854,0.56069 -0.07672,-0.49528 -0.197934,-1.28716 -0.269234,-1.7601 -0.0713,-0.47295 -0.148366,-1.96122 -0.171566,-3.307288 -0.02323,-1.346062 -0.133843,-2.447396 -0.245463,-2.447396 z m 26.343613,3.878314 c 1.51929,-0.006 2.38166,0.18689 4.79919,1.07177 1.62089,0.5933 3.46635,1.16522 4.10104,1.27124 1.57165,0.26256 3.81893,1.44068 5.25498,2.75487 0.65485,0.59927 2.41307,1.92785 3.90725,2.95228 3.014,2.06638 3.37807,2.48948 3.91604,4.54959 0.54634,2.09217 1.8119,5.03008 2.76056,6.40891 1.24122,1.80406 1.79477,3.246 1.98127,5.15886 0.21554,2.21055 0.87074,7.57548 1.19528,9.78958 0.36269,2.47441 0.33288,3.175 -0.13436,3.175 -0.49134,0 -0.51296,0.3675 -0.045,0.75603 0.51355,0.42622 0.24255,1.88981 -0.34985,1.88981 -0.68254,0 -2.35707,-0.74684 -3.31763,-1.4795 -0.45955,-0.35051 -0.96083,-0.63717 -1.11414,-0.63717 -0.15331,0 -0.79708,-0.29631 -1.4304,-0.65836 -0.63332,-0.36205 -1.41493,-0.65946 -1.73737,-0.66146 -0.67722,-0.004 -4.83794,-3.55415 -4.83794,-4.12843 0,-0.46987 -0.54671,-0.47908 -1.17461,-0.0202 -0.38285,0.27995 -0.50177,0.79897 -0.57567,2.51819 -0.0517,1.20226 -0.26535,2.49936 -0.48059,2.91559 -0.49809,0.9632 -2.14972,2.41587 -2.74661,2.41587 -0.2536,0 -0.75537,0.20836 -1.11517,0.46302 -1.64362,1.16333 -6.0419,1.50858 -9.04183,0.71003 -0.77122,-0.20529 -2.05683,-0.3843 -2.85719,-0.3979 -2.26299,-0.0384 -4.34592,-1.26296 -5.60224,-3.29386 -1.02149,-1.65128 -1.80609,-3.82202 -1.80609,-4.99659 0,-0.37779 -0.11907,-0.68678 -0.26459,-0.68678 -0.48764,0 -0.25849,2.23276 0.39119,3.8132 1.57118,3.82184 3.48215,5.35791 7.14944,5.74642 1.01864,0.10791 2.74505,0.37767 3.83646,0.59945 3.53093,0.7175 6.33537,0.43914 8.8532,-0.87902 0.57648,-0.30179 1.17708,-0.5488 1.33429,-0.5488 0.36167,0 2.35043,-2.05341 2.7559,-2.84531 0.16787,-0.32787 0.31825,-1.36966 0.33435,-2.3151 0.0161,-0.94544 0.0533,-1.71876 0.0822,-1.71876 0.44327,0 2.0663,1.10178 2.77967,1.88722 0.72012,0.79287 1.27904,1.10866 2.51354,1.41955 0.87312,0.21989 1.90996,0.63726 2.30425,0.9276 0.39429,0.29034 0.87055,0.52861 1.05834,0.52916 0.42456,10e-4 1.74129,0.8127 2.49804,1.53996 0.4093,0.39334 0.96605,0.56231 1.98437,0.60151 0.7785,0.03 1.7726,0.23141 2.20917,0.44752 1.30012,0.6436 2.7695,1.91303 2.92333,2.52595 0.17442,0.69495 -1.25748,4.28261 -2.04276,5.11855 -0.80788,0.85995 -2.37252,0.99587 -4.66225,0.40514 -1.06137,-0.2738 -1.98637,-0.40689 -2.05517,-0.29559 -0.17768,0.2875 0.26353,0.51164 1.82572,0.92759 1.89877,0.50556 3.59241,0.45896 4.74907,-0.13074 0.88347,-0.45038 0.98123,-0.45722 0.97823,-0.0661 -0.007,0.88383 -0.33915,1.65186 -0.66042,1.52858 -0.44856,-0.17213 -0.92346,0.34819 -0.92346,1.01183 0,0.2997 -0.23813,0.69364 -0.52917,0.8754 -0.29104,0.18179 -0.52916,0.21853 -0.52916,0.0811 0,-0.13728 -0.13165,-0.58511 -0.29249,-0.99477 l -0.29249,-0.74466 -0.50643,1.45521 c -0.4918,1.41286 -0.50279,1.42349 -0.37104,0.36173 0.0973,-0.78385 0.0222,-1.18795 -0.26561,-1.42678 -0.22081,-0.18322 -0.44636,-0.28655 -0.50126,-0.22945 -0.25517,0.26558 -0.71776,5.30031 -0.86042,9.36429 -0.12296,3.50252 -0.25958,4.70285 -0.61753,5.42396 -0.25282,0.50932 -0.65094,2.05856 -0.8847,3.44268 -0.53207,3.1505 -1.33715,5.21984 -3.16983,8.14938 -0.79082,1.26411 -2.53492,4.32263 -3.87574,6.79648 -1.34078,2.47385 -2.8347,5.0337 -3.31969,5.68854 -1.01904,1.37592 -3.58043,3.8885 -5.68027,5.57176 -0.80036,0.64154 -2.8308,2.49059 -4.51187,4.10879 -3.4139,3.28623 -4.1417,3.66187 -7.65897,3.95325 -1.09135,0.0904 -3.19043,0.33431 -4.66431,0.54156 v -5.1e-4 c -3.21914,0.45277 -5.72728,0.43811 -9.09402,-0.0538 -1.38245,-0.20189 -4.537608,-0.40623 -7.011458,-0.45423 l -4.497916,-0.0873 -3.175,-1.10588 c -1.746245,-0.60814 -4.493284,-1.33089 -6.104537,-1.60662 -4.475607,-0.76592 -4.886428,-1.02143 -9.979236,-6.20427 -4.715028,-4.79843 -5.365423,-5.73492 -6.159831,-8.86975 -1.138231,-4.49155 -1.802182,-8.75012 -1.897042,-12.16876 -0.09882,-3.56147 0.02522,-4.74871 0.957565,-9.17774 0.278153,-1.32137 0.582157,-2.98823 0.675927,-3.70416 0.09377,-0.71592 0.470653,-2.73048 0.837159,-4.47673 0.952588,-4.53871 1.418785,-7.26932 1.423685,-8.33438 l 0.0047,-0.92604 1.8526,0.0879 c 1.606163,0.0762 1.8526,0.0276 1.8526,-0.36483 0,-0.38675 -0.182926,-0.42876 -1.25677,-0.28784 -0.851765,0.11177 -1.486992,0.0448 -1.97094,-0.20774 -0.625577,-0.32654 -0.756719,-0.32172 -1.058333,0.0419 -0.189347,0.22816 -0.314399,0.45603 -0.278019,0.50643 0.177703,0.24616 0.03444,0.88573 -0.198438,0.88573 -0.145516,0 -0.264583,-0.26225 -0.264583,-0.58239 0,-0.35183 -0.09293,-0.48264 -0.235128,-0.33073 -0.129409,0.13824 -0.358671,1.32322 -0.509529,2.63291 -0.150858,1.30969 -0.422264,2.73844 -0.603064,3.175 -0.32324,0.7805 -0.33247,0.76503 -0.559656,-0.92604 -0.127077,-0.94589 -0.178191,-2.4044 -0.113171,-3.24115 0.119289,-1.53515 0.0042,-1.78027 -0.567924,-1.20819 -0.526407,0.52641 -0.57303,0.13441 -0.147795,-1.24489 0.223356,-0.72447 0.455551,-1.4792 0.515731,-1.6769 0.07636,-0.25085 0.363776,-0.11095 0.950846,0.46302 0.46269,0.45237 1.086166,0.81681 1.385962,0.81081 1.033133,-0.0221 3.164655,-0.70224 3.279386,-1.04645 0.08333,-0.24996 -0.05867,-0.29475 -0.51573,-0.16278 -0.346904,0.10016 -1.238556,0.25185 -1.981275,0.33745 -1.303678,0.15023 -1.374628,0.12391 -2.050521,-0.76223 -0.760114,-0.99657 -0.854088,-1.61807 -0.418062,-2.76882 0.594011,-1.56778 2.813141,-3.07991 3.582727,-2.4412 0.269644,0.22378 0.525509,0.10218 1.09554,-0.52193 0.443026,-0.48505 1.114743,-0.87825 1.661915,-0.97255 0.505114,-0.087 1.811264,-0.43457 2.902665,-0.77256 2.087378,-0.64652 4.157792,-1.18695 5.328873,-1.39062 0.615659,-0.10707 0.737915,-5.4e-4 1.028878,0.89659 0.453645,1.39872 2.047575,4.54432 2.807581,5.54075 0.344653,0.45187 1.072406,1.01365 1.617472,1.24798 1.060551,0.45595 5.036933,1.24075 6.286438,1.24075 1.002575,0 4.026791,-0.75881 5.023466,-1.26039 1.124565,-0.56589 2.902973,-2.513 3.991488,-4.37027 0.815413,-1.3913 1.084033,-2.21644 1.598873,-4.90565 0.0648,-0.33844 0.26181,-0.56131 0.43873,-0.49661 0.17653,0.0646 0.60787,-0.135 0.9586,-0.4439 0.61542,-0.54206 0.6307,-0.54344 0.43873,-0.0325 -0.67776,1.80296 -1.76694,5.9457 -1.91306,7.27604 -0.0559,0.50932 -0.22548,2.01821 -0.37672,3.35328 -0.33452,2.95273 -0.0226,4.32143 1.19631,5.24878 1.20911,0.91996 2.01259,1.01796 4.1615,0.50798 3.55239,-0.84304 4.28542,-1.50318 4.74286,-4.27313 0.36707,-2.22262 0.091,-3.25612 -1.00355,-3.75481 -0.59587,-0.27149 -0.85748,-0.20287 -2.12907,0.56069 -0.79734,0.47879 -1.55526,0.84101 -1.68414,0.80461 -0.12888,-0.0364 -0.23409,0.11244 -0.23409,0.33072 0,0.59645 0.55425,0.48321 1.942,-0.39687 1.37286,-0.87064 1.76154,-0.95354 2.23862,-0.47646 0.38592,0.38593 0.41311,2.63432 0.0481,3.94912 -0.28633,1.03076 -1.90807,2.34817 -2.89078,2.34817 -0.28907,0 -1.07876,0.18763 -1.75441,0.41703 -1.47923,0.50221 -2.39122,0.22773 -3.45767,-1.03973 -0.68622,-0.81553 -0.68802,-0.82939 -0.50747,-4.13256 0.24819,-4.54078 2.16728,-11.88136 3.21118,-12.28194 0.21866,-0.0839 1.28581,-0.0773 2.37143,0.0145 1.30002,0.10989 1.97404,0.0727 1.97404,-0.10904 0,-0.15274 -0.94104,-0.35917 -2.1084,-0.4625 l -2.1084,-0.18655 0.5271,-1.03302 c 0.28989,-0.56825 0.76244,-1.1805 1.05007,-1.36012 0.28757,-0.17963 0.52296,-0.55929 0.52296,-0.84388 0,-0.44092 -0.14194,-0.38269 -0.9586,0.3943 -0.52709,0.50144 -1.15817,1.3493 -1.40301,1.8836 -0.24484,0.53429 -1.06401,1.52736 -1.82005,2.2071 -1.13205,1.01781 -1.37459,1.1434 -1.37459,0.71107 0,-0.62878 -1.649862,-1.37614 -3.038057,-1.37614 -0.500985,0 -1.526872,-0.24287 -2.279447,-0.53951 -0.752575,-0.29664 -2.49897,-0.64646 -3.8809,-0.77721 -2.1858,-0.20679 -2.688723,-0.17291 -3.866948,0.25942 -0.744905,0.27332 -1.830697,0.57931 -2.412772,0.68006 -1.253929,0.21702 -2.106966,0.62607 -4.208529,2.01796 -1.094164,0.72447 -1.620829,0.94091 -1.756482,0.72141 -0.251602,-0.4071 -0.799669,-0.071 -0.625285,0.38343 0.152742,0.39804 -1.639091,1.16678 -3.241662,1.39062 -0.558847,0.0781 -1.592394,0.37808 -2.297018,0.66662 -0.70462,0.28854 -1.943524,0.6325 -2.75332,0.7643 -0.809795,0.1318 -1.721648,0.46586 -2.026233,0.74259 -0.304585,0.27672 -1.172298,0.70382 -1.928048,0.94929 -0.755746,0.24547 -1.698598,0.70171 -2.095479,1.0139 l -0.72192,0.56792 0.17415,-0.65009 c 0.09561,-0.35753 0.17525,-0.85845 0.17725,-1.11311 0.002,-0.25466 0.185912,-0.46302 0.408761,-0.46302 0.222843,0 0.477863,-0.18895 0.566373,-0.41961 0.122071,-0.31809 0.375682,-0.37922 1.050065,-0.2527 0.807484,0.15148 0.888835,0.10893 0.888835,-0.46509 0,-0.34761 0.238125,-1.32396 0.529167,-2.16989 0.291036,-0.84593 0.529166,-1.85896 0.529166,-2.25103 0,-0.39206 0.140774,-1.11618 0.312643,-1.6092 0.311864,-0.89463 0.312473,-0.895 0.49351,-0.21808 0.09977,0.37304 0.03673,1.38362 -0.14056,2.24586 -0.613457,2.98356 -0.73946,4.24359 -0.390674,3.90416 0.175003,-0.17031 0.662179,-2.01579 1.082621,-4.10105 0.970011,-4.81087 1.300914,-5.95414 2.903182,-10.01541 0.920412,-2.33292 1.48152,-3.40467 1.896525,-3.62303 0.324164,-0.17055 0.981753,-0.49929 1.460893,-0.73019 0.479145,-0.23089 1.253051,-0.97292 1.719792,-1.64899 1.435215,-2.07891 2.293289,-2.94319 3.096968,-3.11971 0.423972,-0.0931 1.758161,-0.58971 2.965194,-1.10381 1.207036,-0.51409 2.778895,-1.1159 3.49281,-1.33687 0.713925,-0.22098 1.838437,-0.74427 2.499072,-1.16323 0.75135,-0.4765 1.558439,-0.76171 2.155424,-0.76171 0.57024,0 1.824181,-0.42065 3.115056,-1.0449 1.18825,-0.57463 2.610762,-1.12793 3.161047,-1.22938 1.87377,-0.34543 2.85116,-0.82991 5.11235,-2.53577 1.43128,-1.07976 2.69213,-1.8092 3.43958,-1.98954 4.30571,-1.03883 10.73179,-2.0121 13.35061,-2.0221 z m -2.04484,22.36866 c -2.79464,0.12673 -3.73009,0.41714 -4.90047,1.52187 -0.64401,0.6079 -0.79943,1.74676 -0.26459,1.9389 0.41804,0.15017 0.99219,-0.29101 0.99219,-0.76274 0,-0.1975 0.47172,-0.6 1.048,-0.894 0.86395,-0.44076 1.54874,-0.53255 3.9026,-0.52555 3.42272,0.0105 7.61494,0.76496 8.12457,1.46192 0.39289,0.5373 1.21233,0.35355 1.21233,-0.27181 0,-0.75081 -0.9567,-1.36974 -2.59984,-1.68207 -0.89837,-0.17076 -2.34534,-0.44556 -3.21531,-0.6103 -0.87132,-0.16498 -2.80242,-0.24412 -4.29948,-0.17622 z m -27.967283,0.85008 c -1.498675,0.0582 -3.475702,0.66673 -5.599141,1.77147 -2.905966,1.51186 -4.032613,2.48614 -3.666443,3.17035 0.320333,0.59855 0.372508,0.60835 0.827857,0.16123 1.044303,-1.02544 4.078748,-2.70815 6.289538,-3.48816 2.31871,-0.8181 3.549097,-0.4349 4.496367,1.40043 0.342715,0.66406 1.192748,0.69632 1.225248,0.0465 0.02454,-0.49081 -0.917624,-2.13872 -1.463994,-2.56057 -0.483483,-0.3733 -1.210221,-0.53616 -2.109432,-0.50126 z m -20.749121,0.6289 c 0.03707,-0.004 0.07654,0.0342 0.11989,0.11162 0.150334,0.26863 0.102527,1.08191 -0.128675,2.18488 -0.360739,1.72097 -0.895682,2.89423 -0.606681,1.33067 0.08069,-0.43656 0.225462,-1.50271 0.321427,-2.36885 0.09475,-0.85489 0.182833,-1.24649 0.294039,-1.25832 z m 81.659094,2.5368 c 0.0278,-0.0278 0.0647,0.009 0.10697,0.11472 0.0764,0.191 0.0667,0.41905 -0.0212,0.50695 -0.0879,0.0879 -0.15051,-0.0684 -0.13901,-0.34727 0.006,-0.15411 0.0254,-0.24658 0.0532,-0.2744 z m -23.64041,1.24178 c -0.503,0.005 -1.14788,0.14001 -1.92753,0.40566 -0.81474,0.27765 -1.58724,0.3626 -2.22984,0.24495 -2.42241,-0.44351 -5.71066,0.10334 -8.83305,1.46916 -0.97028,0.42442 -2.13114,0.77153 -2.57969,0.77153 -0.54854,0 -0.81546,0.12992 -0.81546,0.39687 0,0.59973 0.95443,0.47345 3.175,-0.41961 2.47437,-0.9951 5.60542,-1.82979 6.8554,-1.82779 0.52242,8.1e-4 1.39875,0.12609 1.94768,0.27853 0.8261,0.22941 1.29209,0.17815 2.70216,-0.29817 1.63815,-0.55334 1.90456,-0.55349 2.78226,5.2e-4 0.21828,0.13778 0.71603,0.31775 1.1064,0.39945 0.39037,0.0817 1.34287,0.73863 2.11666,1.46038 v 5.2e-4 c 1.37181,1.27953 1.80403,1.54863 1.80403,1.12396 0,-0.30026 -2.40729,-2.58695 -3.09129,-2.93625 -0.31785,-0.16234 -0.80965,-0.29508 -1.09244,-0.29508 -0.28279,0 -0.6622,-0.17859 -0.84336,-0.39687 -0.21282,-0.25644 -0.57393,-0.38243 -1.07693,-0.37776 z m 25.03671,1.20871 c 0.0327,-0.008 0.0718,0.0247 0.11731,0.0951 0.14107,0.21828 0.25845,0.90289 0.26045,1.52135 0.002,0.61847 -0.11493,1.12448 -0.26045,1.12448 -0.14618,0 -0.26245,-0.6808 -0.26045,-1.52135 0.002,-0.80991 0.0449,-1.19602 0.14314,-1.21957 z m -61.272744,1.40715 c 1.266012,0.023 2.604833,0.24811 3.868498,0.67231 1.083745,0.3638 2.281096,0.66146 2.661336,0.66146 0.38023,0 1.166027,0.14194 1.746147,0.31575 l 1.054713,0.31626 -0.12867,1.80299 c -0.25116,3.51024 -2.847401,7.31772 -5.948476,8.72401 -1.41221,0.64037 -1.960788,0.74305 -3.836458,0.71675 -1.203735,-0.0169 -2.426614,-0.0828 -2.717664,-0.14624 -0.291035,-0.0634 -1.161513,-0.23792 -1.934248,-0.38809 -1.771845,-0.34433 -3.002561,-1.39034 -4.029729,-3.42511 -1.162174,-2.30226 -1.826999,-4.20593 -1.64021,-4.69739 0.355042,-0.93412 4.315035,-3.48328 5.411556,-3.48351 0.39479,-8e-5 1.32196,-0.23812 2.06034,-0.52917 0.973365,-0.38366 2.166853,-0.56296 3.432865,-0.54002 z m 57.660564,0.0109 c 0.431,0 0.80791,0.91918 0.77411,1.88774 -0.0171,0.48962 0.055,1.27733 0.1602,1.75028 0.21267,0.95578 0.17149,1.0064 -0.43253,0.52916 -0.49462,-0.39099 -0.94959,-4.16718 -0.50178,-4.16718 z m 5.71386,1.84381 c -0.14552,-0.005 -0.30328,0.30621 -0.35088,0.6904 -0.0604,0.48799 0.0193,0.66306 0.26458,0.58136 0.40579,-0.13527 0.48206,-1.25946 0.0863,-1.27176 z m -32.19338,0.57671 c -1.26957,0.0575 -1.80558,0.37742 -1.80558,1.01906 0,0.2808 -0.25092,0.64462 -0.55758,0.80874 -0.39439,0.21108 -0.47527,0.38101 -0.27596,0.58032 0.19931,0.19927 0.4133,0.17289 0.73071,-0.0904 0.2468,-0.20483 0.93661,-0.38454 1.53272,-0.39894 0.59611,-0.0145 1.97662,-0.0649 3.06803,-0.11214 l 1.98438,-0.0858 0.59531,0.87901 c 0.32742,0.48332 0.59531,1.07701 0.59531,1.3193 0,0.65797 -1.29051,1.73179 -2.72076,2.26395 -1.0791,0.40145 -1.42346,0.42339 -2.33991,0.14882 -1.19223,-0.35721 -3.25943,-2.24731 -3.6866,-3.37085 -0.18692,-0.49165 -0.3524,-0.62118 -0.5457,-0.42788 -0.58234,0.58235 1.47308,3.13475 3.33985,4.14755 1.36348,0.73977 4.48513,0.0909 5.88336,-1.22267 0.75384,-0.70814 0.7646,-1.7026 0.0346,-3.20497 -0.77378,-1.59266 -1.68177,-2.06116 -4.31085,-2.22518 -0.5935,-0.037 -1.09816,-0.0471 -1.52135,-0.0279 z m 28.62151,0.3576 c 0.14552,0.0899 0.26458,0.27545 0.26458,0.41238 0,0.13693 -0.11906,0.24908 -0.26458,0.24908 -0.14552,0 -0.26459,-0.18551 -0.26459,-0.41238 0,-0.22687 0.11907,-0.33898 0.26459,-0.24908 z m -28.44116,0.13746 c 1.28088,-0.0456 3.04116,0.21363 3.04116,0.55707 0,0.12733 -1.01204,0.23151 -2.24896,0.23151 -2.09125,0 -2.82178,-0.25259 -1.83038,-0.63303 0.23742,-0.0911 0.61122,-0.14035 1.03818,-0.15555 z m 28.42462,1.63194 c 0.19841,-0.0661 0.29761,0.0331 0.23151,0.23151 -0.0637,0.191 -0.27203,0.39932 -0.46302,0.46302 -0.19841,0.0661 -0.29761,-0.0331 -0.23151,-0.23151 0.0637,-0.19099 0.27202,-0.39932 0.46302,-0.46302 z m -62.406009,0.75344 c -1.047037,-0.0229 -2.248789,0.19988 -2.394686,0.51987 -0.09952,0.21828 -0.379891,0.79323 -0.622701,1.27796 -0.24281,0.48474 -0.441317,1.16299 -0.441317,1.50688 0,0.86727 0.989814,1.9037 2.248959,2.3549 2.14977,0.77035 4.836981,0.24122 5.332491,-1.05007 0.441955,-1.15171 -1.648245,-4.1171 -3.1719,-4.49946 -0.269708,-0.0677 -0.601832,-0.10244 -0.950846,-0.11008 z m -0.778764,0.55604 c 0.688004,-0.0488 1.501598,0.0603 2.068608,0.35347 1.027595,0.53141 1.02231,0.8242 -0.01912,1.03249 -1.16165,0.23236 -2.679549,0.19862 -3.101619,-0.0687 -0.1962,-0.12435 -0.314516,-0.44991 -0.262516,-0.72347 0.06424,-0.33799 0.626644,-0.54496 1.314648,-0.59377 z m 36.277893,0.50798 c -0.27258,-0.0111 -0.33181,0.19797 -0.17002,0.6196 0.18533,0.48292 0.67038,0.45069 0.83923,-0.0558 0.0576,-0.17273 -0.0894,-0.38824 -0.32608,-0.47904 -0.138,-0.0529 -0.25228,-0.0811 -0.34313,-0.0847 z m 29.29123,0.51418 c 0.14207,0 0.23376,1.00414 0.21136,2.31511 -0.045,2.64049 0.35228,4.03705 0.99684,3.50211 0.21587,-0.17914 0.39274,-0.24536 0.39274,-0.14676 0,0.3882 -1.05895,2.44829 -1.70171,3.31039 -0.37368,0.50122 -0.67954,1.06676 -0.67954,1.25677 0,0.19001 -0.17548,0.34572 -0.39016,0.34572 -0.42252,0 -0.28745,-0.55003 0.51676,-2.1053 0.22151,-0.42835 0.40256,-1.19132 0.40256,-1.69551 0,-0.75779 -0.21111,-1.10271 -1.21801,-1.98902 -0.66988,-0.58964 -1.67895,-1.28411 -2.24224,-1.54358 -1.01401,-0.46706 -1.24224,-0.92994 -0.80202,-1.6247 0.16116,-0.25431 0.28071,-0.27203 0.41083,-0.0615 0.10101,0.16342 0.29473,0.2286 0.43046,0.1447 0.13574,-0.0839 0.36756,0.16507 0.51522,0.55345 0.23483,0.61764 0.32342,0.66118 0.70435,0.34675 0.34045,-0.28106 0.45973,-0.28764 0.54673,-0.0289 0.0612,0.1819 0.31571,0.33073 0.56534,0.33073 0.47869,0 1.08934,-1.30822 1.08934,-2.33371 0,-0.31709 0.11312,-0.57671 0.25115,-0.57671 z m -62.64372,0.82579 c 0.37811,0.002 0.730136,0.11902 0.919324,0.37776 0.499405,0.68297 0.440035,1.54693 -0.14211,2.07377 -1.140588,1.03167 -4.074808,0.64756 -5.191932,-0.68006 -0.780065,-0.92701 -0.77492,-1.70959 0.01034,-1.59577 0.285465,0.0414 0.850145,0.11298 1.25522,0.15968 0.40508,0.0466 0.909355,0.31076 1.120345,0.58653 0.37205,0.48626 0.388521,0.48358 0.549321,-0.0873 0.146143,-0.51902 0.849317,-0.83749 1.479496,-0.83458 z m 64.16973,0.83664 c 0.0571,-0.0317 0.11268,0.0517 0.19172,0.23668 0.10456,0.24408 0.15022,0.71105 0.10232,1.03766 -0.0479,0.32661 -0.23565,0.64239 -0.41755,0.70229 -0.36358,0.11974 -0.39329,-0.48166 -0.076,-1.52239 0.0841,-0.27569 0.1424,-0.4225 0.19947,-0.45424 z m -86.657246,2.05311 c -0.318918,0.012 -0.580327,0.0989 -0.580327,0.25321 0,0.14552 0.21452,0.26459 0.476457,0.26459 0.685645,0 1.111043,0.52456 1.111043,1.36942 0,0.6842 -0.04761,0.71604 -0.698148,0.46871 -0.876039,-0.33307 -1.189262,-0.066 -0.507463,0.43253 0.800657,0.58546 1.699824,0.475 1.876888,-0.23048 0.169603,-0.67575 -0.270536,-2.05422 -0.753959,-2.36161 -0.229129,-0.1457 -0.605577,-0.20839 -0.924491,-0.19637 z m -4.90461,0.51831 c 0.01717,0.0735 -0.01236,0.41155 -0.07855,1.05782 -0.08197,0.80036 -0.269915,1.57427 -0.417545,1.71979 -0.296672,0.29243 -0.170795,-0.6698 0.294039,-2.24896 0.121056,-0.41126 0.184881,-0.60219 0.202055,-0.52865 z m 84.390716,1.17564 c -0.15829,0.0333 -0.37069,0.11345 -0.63097,0.24805 -0.76709,0.39668 -1.64796,1.8131 -1.64796,2.65048 0,0.23267 0.24263,0.66587 0.53898,0.96222 0.29635,0.29635 0.66222,0.46237 0.81339,0.36897 0.16836,-0.10405 0.0625,-0.36826 -0.27389,-0.68161 -0.30199,-0.28136 -0.54932,-0.57218 -0.54932,-0.64648 0,-0.44393 0.88803,-1.72091 1.51361,-2.17661 0.69564,-0.50674 0.71101,-0.82491 0.23616,-0.72502 z m -85.358099,6.62905 c 0.145521,-0.0899 0.264583,0.0148 0.264583,0.23307 0,0.21823 -0.119062,0.47078 -0.264583,0.56068 -0.145521,0.0899 -0.264584,-0.0153 -0.264584,-0.23357 0,-0.21828 0.119063,-0.47028 0.264584,-0.56018 z m 0.560172,1.87121 c 0.09309,0.0575 0.235061,0.85085 0.315226,1.76268 0.111035,1.26282 0.0083,2.11384 -0.430981,3.57136 -0.317177,1.05242 -0.661824,1.91523 -0.765845,1.91823 -1.067386,0.0268 -0.88486,-6.18909 0.205156,-6.98614 0.278962,-0.20398 0.583354,-0.32363 0.676444,-0.26613 z m 89.720107,1.03869 c 0.0649,0.0275 0.0768,0.17845 0.0196,0.39688 -0.16156,0.6178 -0.34159,0.69593 -0.34159,0.14831 0,-0.20969 0.10783,-0.44818 0.23978,-0.52968 0.033,-0.0204 0.0605,-0.0247 0.0822,-0.0155 z m -49.65434,0.96687 c -0.27677,0.0673 -0.57926,0.324 -0.90898,0.76998 -0.48747,0.65955 -0.73077,0.78172 -1.30638,0.65577 -0.44141,-0.0966 -1.075773,0.0328 -1.686723,0.34468 l -0.978751,0.50023 -0.588595,-0.62632 c -0.785535,-0.83613 -1.103149,-0.79369 -2.325439,0.31058 -0.61424,0.55493 -1.105855,0.82454 -1.206645,0.66146 -0.19401,-0.31392 -1.713727,-0.36541 -2.146122,-0.0729 -0.15795,0.10691 -0.415383,0.42872 -0.572058,0.71521 -0.22459,0.41069 -0.51362,0.50446 -1.366325,0.44286 -1.430455,-0.10329 -1.542761,0.64567 -0.136426,0.90951 0.519715,0.0975 1.298625,0.47475 1.73116,0.83871 0.78871,0.66365 1.884827,0.73089 3.210657,0.19637 0.35046,-0.14129 0.463021,-0.0557 0.463021,0.35191 0,0.29622 0.18733,0.72528 0.415995,0.95395 0.80258,0.80258 1.459004,0.55441 2.619479,-0.99064 0.846115,-1.12653 1.418747,-1.15405 2.847892,-0.13642 1.0124,0.72093 2.40824,0.48192 3.03444,-0.51987 0.2459,-0.39338 0.48039,-0.76197 0.52089,-0.81907 0.0405,-0.0571 0.26411,0.0547 0.49713,0.24805 0.36209,0.30052 2.11982,0.48611 4.84518,0.51211 0.34433,0.003 1.04058,-0.35766 1.54668,-0.80202 0.5061,-0.44436 0.99892,-0.77202 1.09502,-0.72812 0.0961,0.0439 0.75123,0.30915 1.45625,0.58911 1.24986,0.49629 1.30456,0.49685 2.18901,0.0207 0.69359,-0.37352 0.98031,-0.41547 1.2175,-0.17828 0.76291,0.76296 2.92185,0.16515 2.36264,-0.65422 -0.38668,-0.56658 -2.52456,-1.44892 -3.13779,-1.29501 -0.37343,0.0937 -1.1232,-0.0603 -1.8433,-0.37879 -1.34293,-0.59404 -2.99907,-0.69661 -3.85454,-0.23875 -0.45271,0.24228 -0.62071,0.21075 -0.89762,-0.16795 -0.28164,-0.38512 -0.57326,-0.43506 -1.68311,-0.28783 -0.73837,0.0979 -1.4862,0.0897 -1.66139,-0.0186 -0.17519,-0.10827 -0.85477,-0.22803 -1.50999,-0.26613 -0.69706,-0.0405 -1.3142,-0.23755 -1.48776,-0.47491 -0.22709,-0.31055 -0.47822,-0.43267 -0.755,-0.36535 z m 49.69981,0.86506 c 0.0949,0.0244 0.16175,0.17732 0.16175,0.40205 0,0.29963 -0.11906,0.54467 -0.26458,0.54467 -0.14552,0 -0.26459,-0.17169 -0.26459,-0.38138 0,-0.2097 0.11907,-0.45477 0.26459,-0.54467 0.0364,-0.0225 0.0712,-0.0288 0.10283,-0.0207 z m -5.63014,0.41755 c 0.12962,0 0.23564,0.41254 0.23564,0.91674 0,0.96969 0.73207,1.64611 1.4733,1.36167 0.51871,-0.19905 0.75573,0.91208 0.45837,2.14819 l -0.23978,0.99736 -0.3204,-1.25677 c -0.48322,-1.89454 -0.87542,-1.57168 -0.67747,0.5581 0.11451,1.23217 0.0728,1.87489 -0.13023,2.0004 -0.19486,0.12042 -0.29921,-0.0697 -0.29921,-0.54519 0,-0.42544 -0.0949,-0.62503 -0.22737,-0.47852 -0.37642,0.41627 -0.83096,3.26289 -0.83096,5.20381 0,2.08453 -0.69943,5.49515 -1.20819,5.89215 -0.20658,0.1612 -0.453,1.391 -0.61909,3.08973 -0.15174,1.55207 -0.53394,4.17146 -0.84956,5.82084 -0.31562,1.64939 -0.65958,3.09557 -0.76429,3.21375 -0.30065,0.33949 -0.52762,-1.2711 -0.52762,-3.74292 0,-2.01065 0.1068,-2.51977 0.93069,-4.43797 0.51184,-1.19169 1.10593,-3.10156 1.32034,-4.24419 0.83116,-4.42921 1.69141,-10.67544 1.8619,-13.52062 0.0981,-1.63711 0.28432,-2.97656 0.41393,-2.97656 z m 3.97236,0.37672 c 0.19301,-0.0871 0.45298,0.24357 0.80564,0.98082 0.40904,0.85504 0.41055,1.11201 0.0202,3.50211 -0.31724,1.94117 -0.54143,2.64358 -0.90485,2.83807 -0.42526,0.2276 -0.48812,0.13888 -0.52762,-0.74311 -0.0573,-1.27802 0.009,-2.94164 0.20206,-5.05085 0.0855,-0.9349 0.21162,-1.43997 0.40462,-1.52704 z m 2.3487,1.87224 c 0.14552,-0.0899 0.26458,0.0222 0.26458,0.24908 0,0.22687 -0.11906,0.41238 -0.26458,0.41238 -0.14552,0 -0.26459,-0.11215 -0.26459,-0.24908 0,-0.13694 0.11907,-0.32248 0.26459,-0.41238 z m -90.051354,0.72657 c 0.07613,-10e-4 0.06508,0.19677 -0.03256,0.59634 -0.106671,0.43657 -0.217843,0.93904 -0.247013,1.11673 -0.02917,0.17768 -0.146762,0.41582 -0.260966,0.52917 -0.1142,0.11335 -0.123014,-0.27006 -0.01964,-0.85215 0.103389,-0.58208 0.308094,-1.17739 0.454753,-1.32291 0.04474,-0.0444 0.08004,-0.0668 0.105419,-0.0672 z m 90.417734,1.95543 c 0.0711,0.11835 0.0875,0.86987 0.0445,2.1637 -0.0505,1.50091 -0.13371,2.76063 -0.18501,2.79983 -0.15629,0.11935 -1.01957,-0.87953 -1.01957,-1.17978 0,-0.2617 0.55289,-2.16457 1.07125,-3.68763 0.0356,-0.10453 0.0652,-0.13565 0.0889,-0.0961 z m -93.775151,0.36122 c 0.06016,-0.0108 0.129904,0.005 0.214457,0.0382 0.136713,0.0541 0.140226,0.45656 0.0088,0.95343 -0.300189,1.13426 -0.86616,1.15123 -0.639754,0.0191 0.14224,-0.71122 0.236027,-0.97826 0.416512,-1.01079 z m 3.657141,0.29921 c 0.0537,-0.0137 0.103729,0.0769 0.179834,0.26458 0.09636,0.2376 -0.0192,1.10081 -0.256832,1.91823 -0.237631,0.81743 -0.493901,1.48622 -0.569991,1.48622 -0.176266,0 0.176371,-2.606 0.447518,-3.3073 0.08888,-0.22983 0.145767,-0.348 0.199471,-0.36173 z m 62.5998,2.96313 c -6.3e-4,-0.004 -0.017,0.0447 -0.0388,0.10645 0.002,-5.4e-4 0.001,-5.4e-4 0.004,-0.001 0.009,-0.0226 0.006,-0.0146 0.0258,-0.0636 0.002,-0.007 0.003,-0.0138 0.005,-0.0207 0.003,-0.0131 0.005,-0.0199 0.005,-0.0212 z m -0.0439,0.12712 c -0.002,10e-4 -0.002,0.002 -0.004,0.003 -6e-4,0.002 -8.5e-4,0.003 -0.002,0.005 h -5.2e-4 c -0.002,1.8e-4 -0.003,3.3e-4 -0.005,5.1e-4 -0.0457,0.0405 -0.0641,0.0578 0.005,0.002 -0.002,0.005 -0.003,0.01 -0.005,0.0145 5.4e-4,-3.4e-4 0.001,-1.9e-4 0.002,-5.1e-4 0.003,-0.007 0.004,-0.0118 0.006,-0.015 -10e-4,7.2e-4 -0.001,1.1e-4 -0.002,5.2e-4 v -5.2e-4 c 4e-4,-1.3e-4 8.6e-4,6e-5 0.002,0 l 5.2e-4,-5.2e-4 5.2e-4,-5.1e-4 c 6.6e-4,-0.002 0.002,-0.006 0.003,-0.008 z m 0.0253,0.004 c -0.008,0.001 -0.0161,0.003 -0.0243,0.004 -0.003,0.006 -0.003,0.007 -0.006,0.0129 0.007,-0.004 0.0221,-0.012 0.0305,-0.0165 z m -67.036732,1.62213 c 0.0687,0.0933 -0.01287,0.86962 -0.280086,2.281 -0.267351,1.41206 -0.548499,2.62999 -0.624769,2.70629 -0.287865,0.28786 -0.122143,-1.55832 0.284221,-3.16932 0.333345,-1.3215 0.551929,-1.9113 0.620634,-1.81797 z m 31.11593,0.10593 c -0.05933,0.20177 -0.22631,0.32338 -0.415995,0.37931 0.250604,0.17394 0.494839,0.34219 0.797884,0.56689 3.185925,2.3622 3.761334,2.5983 7.455359,3.05976 8.352534,1.04341 11.526154,1.48396 12.259204,1.70274 0.43657,0.1303 2.0439,0.24753 3.57187,0.25993 2.53782,0.0206 2.91545,-0.0433 4.36563,-0.73639 1.23545,-0.59043 2.78537,-1.80931 4.68756,-3.63337 -0.28155,0.041 -0.49824,-0.1056 -0.555,-0.33486 -2.87959,2.76055 -4.19122,3.58775 -6.7107,4.21318 -1.09314,0.27135 -1.91476,0.20601 -6.35,-0.50488 -5.18925,-0.83175 -11.417336,-1.62436 -12.796636,-1.62936 -1.100775,-0.004 -3.210225,-1.05951 -5.440495,-2.72335 -0.327945,-0.24465 -0.583953,-0.41808 -0.868164,-0.6196 z m 58.181462,0.3297 c 0.0984,0.006 0.14038,0.35128 0.14263,1.09709 0.002,0.76399 -0.0357,1.38906 -0.0842,1.38906 -0.48006,0 -0.6069,-1.71481 -0.17621,-2.38125 0.0459,-0.071 0.085,-0.10691 0.11782,-0.1049 z m -88.3698,1.57665 c 0.09872,-0.0136 0.139418,0.28598 0.141593,0.96015 0.0022,0.68262 -0.114928,1.31466 -0.260449,1.40456 -0.343883,0.21254 -0.343883,-1.71684 0,-2.24896 0.04644,-0.0719 0.08595,-0.1112 0.118856,-0.11575 z m 87.32232,0.37879 h 5.2e-4 5.1e-4 c 0.21903,-0.0374 0.38625,0.49044 0.51212,1.603 0.11184,0.98857 0.32223,1.65574 0.54983,1.74304 0.30045,0.1153 0.34762,0.90836 0.25322,4.28553 -0.0637,2.27923 -0.23556,4.85831 -0.38189,5.73143 -0.14629,0.87312 -0.26685,2.08661 -0.26769,2.69648 -8.4e-4,0.60988 -0.10179,1.17074 -0.22427,1.24644 -0.12244,0.0757 -0.21184,-2.07984 -0.19844,-4.78989 0.0182,-3.69915 -0.0574,-4.95504 -0.30334,-5.03794 -0.18021,-0.0607 -0.55663,-0.62701 -0.83612,-1.25884 -0.50138,-1.13391 -0.50011,-1.17911 0.007,-3.46025 0.28322,-1.27102 0.57574,-2.41137 0.65164,-2.53421 0.0849,-0.13738 0.16367,-0.21234 0.23668,-0.22479 z m -86.382843,1.05988 c 0.14552,0 0.264584,0.11905 0.264584,0.26458 0,0.14552 -0.119064,0.26459 -0.264584,0.26459 -0.145521,0 -0.264583,-0.11907 -0.264583,-0.26459 0,-0.14553 0.119062,-0.26458 0.264583,-0.26458 z m -2.19108,2.43809 c 0.02995,0.018 0.033,0.17168 0.02945,0.47233 -0.0043,0.3638 -0.103116,0.9591 -0.219625,1.32291 -0.206574,0.64501 -0.212025,0.64173 -0.219625,-0.13229 -0.0043,-0.43656 0.09456,-1.03188 0.219625,-1.32292 0.103351,-0.24052 0.160217,-0.35807 0.19017,-0.34003 z m 42.619623,1.56477 c -0.13581,0.009 -0.21083,0.052 -0.21033,0.13125 7.4e-4,0.12733 0.5663,0.42809 1.25678,0.66818 0.69046,0.2401 1.55287,0.4399 1.91667,0.4439 0.5222,0.006 0.41081,-0.10319 -0.52916,-0.5209 -1.07526,-0.47788 -2.02651,-0.75012 -2.43396,-0.72243 z m -40.701911,0.663 c 0.140248,-0.067 0.305421,0.19096 0.403593,0.81701 0.0862,0.54975 0.210459,1.33884 0.276469,1.7539 0.06601,0.41507 0.04574,1.21874 -0.04496,1.78593 -0.0907,0.5672 -0.251409,1.03147 -0.357601,1.03147 -0.206923,0 -0.5333,-2.60422 -0.5333,-4.25659 0,-0.67295 0.115549,-1.06472 0.255798,-1.13172 z m 85.204621,1.15497 c 0.15119,0 0.26458,0.79376 0.26458,1.85209 0,1.05833 -0.11339,1.85208 -0.26458,1.85208 -0.15119,0 -0.26459,-0.79375 -0.26459,-1.85208 0,-1.05833 0.1134,-1.85209 0.26459,-1.85209 z m -89.001805,0.5824 c 0.107358,-0.0482 0.104142,0.095 0.0093,0.47594 -0.09057,0.3638 -0.166465,1.4056 -0.168465,2.3151 -0.0034,1.57172 -0.326114,2.2069 -0.596346,1.17357 -0.191394,-0.73189 0.250377,-3.51934 0.610816,-3.85403 0.06117,-0.0568 0.10891,-0.0945 0.144694,-0.11058 z m 5.288049,1.87017 c 0.06224,0.0622 0.448061,1.80376 0.857312,3.87004 0.713122,3.60049 0.733315,4.31707 0.10387,3.68763 -0.157899,-0.1579 -0.593701,-0.2868 -0.968417,-0.2868 -0.374714,0 -0.686164,-0.0745 -0.692464,-0.16536 -0.0063,-0.0909 -0.112373,-0.68537 -0.235128,-1.32085 -0.122711,-0.63548 -0.125996,-1.52845 -0.0078,-1.98438 0.118441,-0.45592 0.353566,-1.52315 0.522449,-2.37143 0.168883,-0.84829 0.357889,-1.49105 0.420129,-1.42885 z m 84.772086,0.19327 c 0.14548,0 0.25026,0.26789 0.23306,0.59531 -0.0172,0.32742 -0.12197,0.9525 -0.23306,1.38906 -0.17268,0.67848 -0.20626,0.59202 -0.23306,-0.59531 -0.0174,-0.77052 0.0863,-1.38906 0.23306,-1.38906 z m -88.827652,3.25354 c 0.03425,-0.0276 0.09149,0.0839 0.192236,0.31833 0.125065,0.29105 0.23575,0.61847 0.24598,0.72761 0.01023,0.10914 -0.100459,0.19843 -0.24598,0.19843 -0.14552,0 -0.25621,-0.32742 -0.24598,-0.7276 0.0082,-0.32237 0.01949,-0.48914 0.05374,-0.51677 z m 87.843212,0.81546 c 0.0278,-0.0278 0.0647,0.009 0.10697,0.11472 0.0764,0.191 0.0667,0.41905 -0.0212,0.50695 -0.088,0.0879 -0.15051,-0.0684 -0.13901,-0.34727 0.006,-0.15411 0.0254,-0.24658 0.0532,-0.2744 z m -4.44158,0.58343 c 0.0255,0.009 0.0547,0.0458 0.0873,0.11007 0.11053,0.21828 0.15672,1.26008 0.10232,2.3151 -0.0572,1.10925 -0.21651,1.91823 -0.37827,1.91823 -0.18228,0 -0.22188,-0.48407 -0.11318,-1.38906 0.0918,-0.76399 0.17126,-1.80579 0.17726,-2.31511 0.005,-0.45006 0.0482,-0.66721 0.12454,-0.63923 z m -83.228,0.76016 c 0.135336,0.0836 0.32521,0.78386 0.42168,1.55597 0.09647,0.77211 0.134645,1.68887 0.08475,2.0376 l -0.09095,0.63407 -0.330729,-0.73173 c -0.383725,-0.84883 -0.453436,-3.72377 -0.08475,-3.49591 z m 87.99566,0.89658 c 0.0145,0.008 0.0304,0.0433 0.047,0.10697 0.0666,0.25463 0.0666,0.67137 0,0.92604 -0.0665,0.25466 -0.12092,0.0463 -0.12092,-0.46302 0,-0.382 0.0305,-0.59494 0.0739,-0.56999 z m -86.650005,0.96945 c 0.147897,0.0914 0.200508,0.27691 0.116788,0.41238 -0.22681,0.36699 -0.385506,0.29887 -0.385506,-0.16588 0,-0.2269 0.120826,-0.3379 0.268718,-0.2465 z m 83.977305,0.0749 c 0.09,-0.073 0.12696,0.20547 0.13746,0.91468 0.0102,0.69121 -0.10046,1.25677 -0.24598,1.25677 -0.31782,0 -0.31782,-1.24476 0,-1.98438 0.0428,-0.0995 0.0785,-0.16275 0.10852,-0.18707 z m -86.615387,0.0548 c 0.138924,0 0.250762,0.38695 0.248564,0.8599 -0.0049,1.0353 -0.363016,1.73295 -0.650607,1.26762 -0.250303,-0.405 0.07522,-2.12752 0.402043,-2.12752 z m 33.576245,11.64063 c -0.163289,-0.01 -0.253779,0.23077 -0.135909,0.72864 0.21899,0.925 1.135153,1.71228 1.761133,1.5136 0.671425,-0.2131 2.606458,0.33056 3.527433,0.99116 0.425057,0.30489 1.500814,0.80893 2.390552,1.11983 0.889725,0.31089 1.907703,0.76856 2.262393,1.01699 0.87723,0.61445 2.96693,0.57996 4.69687,-0.0775 0.76555,-0.29097 1.74396,-0.52916 2.17403,-0.52916 0.43006,0 1.17318,-0.17147 1.65106,-0.38086 0.47788,-0.20939 1.16633,-0.44433 1.53014,-0.52193 0.3638,-0.0776 1.18271,-0.62052 1.81953,-1.20665 0.63686,-0.58613 1.38099,-1.06556 1.65364,-1.06556 0.27265,0 0.49558,-0.12868 0.49558,-0.28577 0,-0.54067 -1.70326,0.0599 -2.64583,0.93276 -0.93163,0.86272 -3.86424,1.99884 -5.15938,1.99884 -0.35781,0 -1.09984,0.16953 -1.64848,0.37672 -0.54865,0.20718 -1.56608,0.45282 -2.26136,0.54622 -1.1074,0.14874 -1.36453,0.0856 -2.07119,-0.50901 -0.44367,-0.37332 -1.080557,-0.67851 -1.415415,-0.67851 -0.764607,0 -2.189776,-0.58749 -3.054594,-1.25936 -0.737077,-0.57258 -1.647828,-0.84412 -3.48816,-1.03921 -1.079173,-0.1144 -1.274378,-0.23079 -1.507918,-0.90072 -0.174725,-0.50123 -0.410837,-0.76089 -0.574125,-0.7705 z" /><circle
       id="path37"
       style="fill:#010101;stroke:#000000;stroke-width:0.264583"
       cx="101.32317"
       cy="170.56342"
       r="0" /><path
       style="fill:#010101;stroke-width:0"
       id="path38"
       d="m 98.188717,170.16079 c 0.15032,0.17893 0.373779,0.25526 0.567783,0.37202 -0.09622,-0.11742 0.336309,0.24288 0.236447,0.11641 -0.01603,-0.0203 -0.0446,-0.0448 -0.06885,-0.0358 -0.0033,0.001 0.09454,0.0682 0.100105,0.072 0.06388,0.0417 0.116647,0.0987 0.172688,0.15039 0.105383,0.11092 0.216572,0.21127 0.344313,0.29632 -0.0038,-10e-4 -0.01455,-0.006 -0.01151,-0.004 0.117838,0.1029 0.26805,0.18341 0.403678,0.26095 0.194979,0.0898 0.385609,0.18855 0.577079,0.28546 0.30407,0.21237 0.61615,0.41437 0.93174,0.60942 0.23061,0.13574 0.48149,0.22479 0.73483,0.30655 0.21662,0.0853 0.44179,0.14654 0.65231,0.24632 0.26344,0.11194 0.53863,0.19169 0.80407,0.29889 0.32392,0.1343 0.6795,0.17638 1.02469,0.22507 0.26103,0.037 0.52406,0.0547 0.78737,0.0635 0.56883,-0.006 1.13845,-0.0317 1.70523,-0.0817 0.77784,-0.0694 1.54528,-0.20621 2.31152,-0.35159 0.32394,-0.0819 0.6519,-0.15408 0.97176,-0.25121 0.18722,-0.0695 0.36612,-0.1601 0.53988,-0.25757 0.0931,-0.0494 0.19629,-0.0765 0.29482,-0.11393 0.12477,-0.0593 0.22835,-0.14934 0.3245,-0.24672 0.50361,-0.504 -0.20915,-1.21622 -0.71276,-0.71222 v 0 c -0.005,0.005 -0.0635,0.0502 -0.0252,0.0379 0.0135,-0.003 0.0537,-0.0123 0.0405,-0.008 -0.15433,0.0454 -0.31047,0.0872 -0.44634,0.1784 -0.0912,0.0445 -0.21195,0.10909 -0.32036,0.15316 -0.272,0.0944 -0.57278,0.10988 -0.84886,0.19116 -0.74266,0.12194 -1.48604,0.24006 -2.23461,0.32044 -0.51862,0.0579 -1.04188,0.0804 -1.56066,0.12894 -0.22677,-0.0104 -0.4525,-0.037 -0.6772,-0.0687 -0.26038,-0.0398 -0.53828,-0.0494 -0.78184,-0.14895 -0.25417,-0.10839 -0.518,-0.18779 -0.77554,-0.28608 -0.25196,-0.11047 -0.51131,-0.20357 -0.77189,-0.29159 -0.16786,-0.0497 -0.33341,-0.1 -0.48349,-0.19323 -0.33564,-0.224 -0.66641,-0.45637 -1.02021,-0.65148 -0.18271,-0.0952 -0.36472,-0.19342 -0.55461,-0.2736 -0.13308,-0.0671 -0.21585,-0.11605 -0.32474,-0.2111 -0.0764,-0.0473 -0.137372,-0.1215 -0.20542,-0.18423 -0.09063,-0.0873 -0.183994,-0.17242 -0.288494,-0.24312 -0.09995,-0.0709 -0.201263,-0.13944 -0.31319,-0.19008 -0.128571,-0.0802 -0.275814,-0.13723 -0.387522,-0.22029 -0.503478,-0.50348 -1.215503,0.20854 -0.712025,0.71202 z" /><path
       style="fill:#010101;stroke-width:0"
       id="path39"
       d="m 100.91459,171.06707 c 0.14373,0.006 0.2876,0.002 0.43138,0.002 0.091,-0.003 0.18197,-0.001 0.27298,-0.001 0.185,-0.0246 0.36417,-0.0727 0.54995,-0.091 0.15433,-0.0128 0.30902,-0.0187 0.46384,-0.0194 0.10863,-0.003 0.21724,-0.002 0.32589,-0.002 0.0982,2.6e-4 0.19633,5.2e-4 0.29447,-8e-4 0.0985,-2.4e-4 0.19701,0.001 0.29555,0.002 0.12349,1.8e-4 0.24698,-8e-4 0.37047,-2.7e-4 -0.20492,-0.0223 0.1891,0.0722 0.2126,0.0774 0.13725,0.0289 0.27793,0.033 0.41769,0.0341 -0.31663,-0.0532 0.12936,0.0709 0.18258,0.0828 0.21475,0.0299 0.0101,0.006 0.30132,0.0822 0.15446,0.0389 0.31317,0.0505 0.47164,0.0578 -0.0488,0.001 0.19537,0.002 0.14653,0.002 -0.15537,8e-4 0.0119,0.0225 0.046,0.0324 0.17562,0.0503 0.35775,0.0664 0.53932,0.0766 0.009,0.008 0.39942,-0.003 0.24041,0.007 0.16621,0.0488 0.33742,0.0757 0.50922,0.0948 0.11576,0.0116 0.23204,0.0122 0.34822,0.0139 0.21628,0.008 0.43276,0.007 0.64915,0.005 0.11558,0.007 0.23301,-0.0119 0.34845,-0.003 0.007,5.3e-4 -0.012,0.006 -0.018,0.009 0.15193,0.0508 0.31017,0.0764 0.46917,0.0913 0.11402,0.009 0.22863,0.0111 0.34299,0.011 0.047,-0.002 0.18364,0.044 0.30315,0.0704 0.11956,0.026 0.24131,0.0346 0.36319,0.0397 0.0764,10e-4 0.15275,0.002 0.22911,-2.6e-4 0.0657,9e-5 0.13142,7.9e-4 0.19713,-3e-5 0.0498,0.001 0.0996,-6e-5 0.14946,5.3e-4 0.71224,-5e-5 0.71217,-1.00731 -7e-5,-1.00726 v 0 c -0.0501,7.9e-4 -0.10019,-5.3e-4 -0.15029,7.9e-4 -0.0671,-7.9e-4 -0.13417,1.8e-4 -0.20125,8e-4 -0.0644,-0.001 -0.12883,2.1e-4 -0.19323,-0.002 -0.0613,-5.3e-4 -0.12221,-0.007 -0.18192,-0.0213 -0.1704,-0.0344 -0.33704,-0.10172 -0.51433,-0.091 -0.0792,-2.2e-4 -0.1584,0.002 -0.23745,-0.005 -0.0945,-0.0118 -0.18947,-0.0232 -0.27993,-0.0547 -0.20622,-0.0587 -0.41397,-0.0625 -0.62712,-0.0577 -0.21395,-0.002 -0.428,-0.002 -0.64183,0.006 -0.0825,2.7e-4 -0.16506,-0.004 -0.24708,-0.0127 -0.13626,-0.0134 -0.26988,-0.0438 -0.40272,-0.0762 -0.13471,-0.0192 -0.26612,-0.0281 -0.40195,-0.0289 -0.10387,-0.005 -0.20801,-0.0145 -0.30953,-0.0377 -0.1415,-0.0413 -0.28566,-0.0753 -0.43401,-0.0711 -0.0858,-0.003 -0.17132,-0.0123 -0.25565,-0.0282 -0.12075,-0.0318 -0.2387,-0.0774 -0.36282,-0.0939 -0.12137,-0.0221 -0.22953,-0.11422 -0.36368,-0.10073 -0.0674,-0.001 -0.1346,-0.004 -0.20191,-0.007 -0.14754,-0.0373 -0.28854,-0.0972 -0.44256,-0.10633 -0.1235,5.3e-4 -0.24699,-5.3e-4 -0.37049,-2.6e-4 -0.0984,10e-4 -0.19668,0.002 -0.29505,0.002 -0.0975,-0.002 -0.19509,-0.001 -0.29262,-0.002 -0.11228,-5.2e-4 -0.22453,-9e-5 -0.3368,-0.002 -0.18838,0.002 -0.37705,0.004 -0.56472,0.0222 -0.0762,0.009 -0.45198,0.043 -0.50178,0.0925 -0.0145,0.0144 0.0409,1.9e-4 0.0613,2.6e-4 -0.091,-7e-5 -0.18197,0.002 -0.27297,-0.001 -0.14379,-6e-5 -0.28765,-0.004 -0.43138,0.002 -0.71228,0 -0.71228,1.00731 0,1.00731 z" /><path
       style="fill:#010101;stroke-width:0"
       id="path40"
       d="m 100.64243,170.18056 c 0.005,0.002 0.016,0.0114 0.0143,0.006 -0.0315,-0.0954 -0.164,-0.22629 -0.21911,-0.28879 -0.0413,-0.0831 -0.17878,-0.17416 -0.27947,-0.22554 -0.650919,-0.28621 -1.055676,0.63433 -0.404762,0.92054 v 0 c -0.09829,-0.0587 0.0056,0.008 -0.146507,-0.12911 -0.0094,-0.008 0.01482,0.0204 0.02246,0.0305 0.04101,0.0539 0.0847,0.10563 0.134281,0.15195 -0.207179,-0.278 0.149434,0.25123 0.166738,0.24606 0.50348,0.50348 1.21551,-0.20855 0.71203,-0.71202 z" /><circle
       id="path41"
       style="fill:#010101;stroke:#000000;stroke-width:0.264583"
       cx="108.39249"
       cy="172.58322"
       r="0" /><circle
       id="path42"
       style="fill:#010101;stroke:#000000;stroke-width:0.264583"
       cx="104.24066"
       cy="171.46111"
       r="0" /><path
       style="fill:#010101;stroke-width:0"
       id="path43"
       d="m 102.05013,171.62918 c 0.16163,-0.006 0.31509,0.005 0.47254,0.0317 0.20241,0.0332 0.40585,0.0596 0.61055,0.0731 0.11247,0.006 0.2251,0.009 0.33772,0.007 0.13365,0.008 0.25798,-0.01 0.39012,-0.0329 0.0829,-0.0179 0.16989,-0.063 0.24629,-0.0762 0.0413,-0.01 0.0775,-0.004 0.12106,-0.004 0.0803,5.3e-4 0.16062,-1e-5 0.24092,-1e-4 0.0918,0.002 0.18372,2.6e-4 0.27557,0.001 0.0945,1.6e-4 0.18894,-5.3e-4 0.28342,7.9e-4 0.0182,-4e-5 0.0373,-0.006 0.0546,-1.1e-4 0.0153,0.005 -0.0495,-0.0139 -0.0482,0.002 5.3e-4,0.008 0.31843,0.0673 0.36493,0.0746 0.14463,0.0226 0.2908,0.0306 0.4369,0.035 0.0154,0.0102 0.29843,-0.0162 0.19785,0.006 0.1848,0.0433 0.37283,0.0724 0.56158,0.0917 0.10381,0.0118 0.20817,0.0119 0.31242,0.0139 0.0122,-2e-5 0.0486,0.003 0.0367,-5e-5 -0.4033,-0.0933 -0.0379,0.0297 0.0599,0.0593 0.14334,0.0409 0.29229,0.0501 0.44049,0.0532 0.12912,8e-4 0.2582,0.003 0.38732,0.003 0.10861,-0.002 0.21722,-0.002 0.32583,-0.003 0.0803,5.3e-4 0.16051,-5.3e-4 0.24076,-8e-4 0.0603,-7.9e-4 0.12073,-0.001 0.18107,6e-5 0.0785,-8e-4 0.15689,7.9e-4 0.23534,7.9e-4 0.16117,0.001 0.32228,0.006 0.48358,0.005 0.0926,5.2e-4 0.18525,-0.001 0.27786,-0.003 0.71617,0 0.71617,-1.01281 0,-1.01281 v 0 c -0.0926,-0.002 -0.18523,-0.003 -0.27786,-0.003 -0.1613,-8e-4 -0.32241,0.004 -0.48357,0.005 -0.0785,-1.8e-4 -0.15689,0.002 -0.23534,7.9e-4 -0.0603,10e-4 -0.12072,8e-4 -0.18107,5e-5 -0.0805,-2.7e-4 -0.16094,-0.001 -0.24142,-7.9e-4 -0.10898,-8e-4 -0.21796,-0.001 -0.32694,-0.002 -0.12021,-2.7e-4 -0.24043,0.004 -0.36061,0.001 -0.0558,-0.002 -0.11266,-0.003 -0.16769,-0.008 -0.12336,-0.0395 -0.24827,-0.0998 -0.38635,-0.10242 -0.0691,5.3e-4 -0.13838,-0.005 -0.20691,-0.0128 -0.16161,-0.0205 -0.32172,-0.0506 -0.48199,-0.0797 -0.12292,-0.0147 -0.24299,-0.0254 -0.36666,-0.022 -0.0989,-0.001 -0.19698,-0.0118 -0.29482,-0.0263 -0.1786,-0.0317 -0.35678,-0.0767 -0.53777,-0.086 -0.0944,0.001 -0.18877,5.3e-4 -0.28317,7.9e-4 -0.091,8e-4 -0.18194,-10e-4 -0.27291,5.3e-4 -0.0834,-5.3e-4 -0.16679,-0.002 -0.25019,-10e-4 -0.10127,2.2e-4 -0.20266,0.005 -0.30259,0.0224 -0.11489,0.0223 -0.22619,0.0573 -0.33641,0.0964 0.21668,-0.0126 -0.0611,-0.001 -0.11085,-0.005 -0.0871,-0.002 -0.17452,-1e-5 -0.26134,-0.009 -0.1795,-0.0164 -0.35742,-0.0436 -0.53524,-0.0729 -0.20819,-0.0274 -0.41526,-0.0463 -0.62547,-0.0322 -0.71377,0 -0.71377,1.00942 0,1.00942 z" /><path
       style="fill:#010101;stroke-width:0"
       id="path44"
       d="m 108.10414,171.3214 c -0.19682,0.0238 -0.38107,0.0985 -0.56776,0.16071 -0.0409,0.0145 -0.0805,0.0286 -0.12281,0.035 -0.70366,0.11195 -0.54535,1.10707 0.15832,0.99513 v 0 c 0.0925,-0.0149 0.18346,-0.036 0.27275,-0.0645 0.1679,-0.0516 0.33032,-0.11773 0.50438,-0.1468 0.69264,-0.17316 0.44776,-1.15269 -0.24488,-0.97953 z" /><path
       style="fill:#010101;stroke-width:0"
       id="path45"
       d="m 108.8165,172.59893 c 0.0707,-0.0221 0.13946,-0.0475 0.21182,-0.0627 0.69823,-0.14684 0.49056,-1.13429 -0.20767,-0.98744 v 0 c -0.10997,0.0231 -0.21779,0.054 -0.3228,0.0942 -0.67596,0.22532 -0.35731,1.18126 0.31865,0.95595 z" /><circle
       id="path46"
       style="fill:#010101;stroke:#000000;stroke-width:0.264583"
       cx="109.17796"
       cy="172.24658"
       r="0" /><circle
       id="path47"
       style="fill:#010101;stroke:#000000;stroke-width:0.264583"
       cx="105.69941"
       cy="171.79774"
       r="0" /><path
       style="fill:#010101;stroke-width:0"
       id="path48"
       d="m 106.021,171.79534 c 0.0718,0.0449 0.30057,0.21082 0.3713,0.20308 0.0222,-0.002 -0.0406,-0.0188 -0.0609,-0.0282 0.0173,0.0431 0.4675,0.24261 0.22082,0.13493 0.12468,0.0846 0.26303,0.13994 0.40958,0.17248 0.0892,0.0191 0.1804,0.0237 0.27135,0.0229 0.0356,0.001 0.0712,5.3e-4 0.10684,-2.7e-4 0.71005,-0.006 0.70209,-1.00978 -0.008,-1.00416 v 0 c -0.0301,-2.6e-4 -0.0602,-5.2e-4 -0.0902,8e-4 -0.0302,-0.001 -0.0575,-0.002 -0.0616,-0.002 -0.0141,-0.003 -0.0463,-0.0127 0.005,0.011 -0.0247,-0.004 -0.0439,-0.0323 -0.0694,-0.0355 -0.0473,-0.0257 -0.0943,-0.0519 -0.14182,-0.0772 -0.021,-0.0112 0.0411,0.0242 0.0624,0.0349 0.0407,0.0205 -0.15347,-0.0979 -0.11388,-0.0754 -0.11388,-0.0695 -0.23112,-0.12319 -0.3418,-0.19658 -0.5934,-0.3956 -1.15286,0.4436 -0.55946,0.8392 z" /><path
       style="fill:#010101;stroke-width:0"
       id="path49"
       d="m 104.28093,171.96476 c 0.0968,0.002 0.19364,8e-4 0.29044,1.1e-4 0.0634,-0.0105 0.18858,0.0297 -0.0495,-0.0142 -0.0429,-0.008 -0.18285,-0.095 0.0311,0.0277 -0.22205,-0.12071 0.15291,0.11542 0.19215,0.13481 0.13707,0.064 0.28276,0.0734 0.43093,0.0774 0.17904,0.006 0.35825,0.005 0.53735,0.002 -0.1383,0.0102 0.36884,0.0862 0.39487,0.0893 0.15359,0.0154 0.30798,0.0201 0.46226,0.0205 0.0833,-5.3e-4 0.16657,-5.3e-4 0.24985,-0.001 0.0737,-8e-4 0.14748,-1e-4 0.22122,-2.7e-4 0.0372,-7.9e-4 0.0745,1e-4 0.1117,0 0.7121,-5e-5 0.71203,-1.00712 -8e-5,-1.00707 v 0 c -0.0374,-1e-4 -0.0747,8e-4 -0.1121,3e-5 -0.0746,-1.7e-4 -0.14929,5.3e-4 -0.22393,2.7e-4 -0.0778,-5e-5 -0.15568,0.001 -0.23349,-7.9e-4 -0.12092,-0.003 -0.2419,-0.008 -0.36223,-0.0211 -0.17507,-0.0177 -0.33443,-0.0687 -0.51011,-0.0936 -0.17437,-0.002 -0.34881,-0.002 -0.52311,0.004 -0.0649,7.9e-4 -0.0893,-0.007 0.007,0.0316 -0.018,-0.01 -0.0473,-0.028 0.005,0.0177 -0.13836,-0.12407 0.0169,-0.006 -0.19438,-0.1529 0.0107,0.008 0.0434,0.0302 0.0322,0.0232 -0.13569,-0.0851 -0.22445,-0.11721 -0.39049,-0.14474 -0.0249,-0.004 -0.0508,0.005 -0.0758,-7e-5 -0.0968,-5.3e-4 -0.19364,-0.002 -0.29044,1.1e-4 -0.71228,0 -0.71228,1.00732 0,1.00732 z" /><circle
       id="path50"
       style="fill:#010101;stroke:#000000;stroke-width:0.264583"
       cx="106.70931"
       cy="174.49081"
       r="0" /><circle
       id="path51"
       style="fill:#010101;stroke:#000000;stroke-width:0.264583"
       cx="104.35287"
       cy="172.13438"
       r="0" /><path
       style="fill:#010101;stroke-width:0"
       id="path52"
       d="m 103.33613,172.28914 c 0.13715,0.0544 0.28141,0.0847 0.4266,0.10772 -0.24664,-0.0527 0.19884,0.09 0.22573,0.0965 0.01,0.002 0.14517,0.029 0.14039,0.0228 -0.0177,-0.0231 -0.0576,-0.009 -0.086,-0.0157 -0.10413,-0.0243 0.0929,0.0475 0.10267,0.0518 0.12585,0.0764 0.28025,0.0455 0.41411,0.0808 0.0102,0.003 -0.0211,7.9e-4 -0.0317,0.001 0.1384,0.0512 0.28298,0.0817 0.42874,0.10199 0.14568,0.0145 0.2923,0.0168 0.43859,0.0166 0.15108,0.007 0.28046,-0.0758 0.4195,-0.10937 0.0417,-0.009 0.03,-0.007 0.0822,-0.006 0.71174,-0.0132 0.69302,-1.01979 -0.0187,-1.00655 v 0 c -0.10396,0.004 -0.20805,0.009 -0.3093,0.0356 -0.0227,0.006 -0.35189,0.0942 -0.17006,0.0755 -0.10712,-0.001 -0.21453,0.001 -0.32129,-0.009 -0.0988,-0.006 -0.19199,-0.0486 -0.28674,-0.0738 -0.0489,-0.01 -0.0977,-0.0205 -0.14677,-0.0297 -0.0718,-0.0133 -0.10786,-0.01 -0.1072,-0.009 0.002,0.004 0.008,0.005 0.0122,0.008 -0.10708,-0.0463 -0.20904,-0.11048 -0.32968,-0.11697 -0.0556,-0.0111 -0.21859,-0.10847 -0.31216,-0.11396 -0.0867,-0.008 -0.1696,-0.0402 -0.25242,-0.0646 -0.67595,-0.22531 -0.9946,0.73064 -0.31864,0.95595 z" /><path
       style="fill:#010101;stroke-width:0"
       id="path53"
       d="m 104.76145,171.4063 c -0.0392,5e-5 -0.14212,-0.0417 -0.2503,-0.0678 -0.0656,-0.0155 -0.1321,-0.027 -0.19918,-0.0338 -0.0251,-0.003 -0.0798,-0.0312 -0.0753,-0.006 0.006,0.0334 0.0679,0.006 0.10051,0.0159 -0.14678,-0.0719 -0.30735,-0.10518 -0.46864,-0.12304 -0.0833,-0.008 -0.16686,-0.0102 -0.25044,-0.009 0.43725,0.11383 0.006,-0.0521 -0.0921,-0.0797 -0.0974,-0.0111 -0.52677,-0.0808 -0.12457,0.006 -0.0303,-0.0183 -0.0615,-0.0351 -0.0925,-0.0522 -0.61509,-0.35629 -1.11896,0.51357 -0.50388,0.86986 v 0 c 0.0491,0.0296 0.0986,0.0586 0.15015,0.0839 0.1269,0.036 0.21904,0.0695 0.34104,0.0741 -0.0183,-0.009 -0.0687,-0.0444 -0.0512,-0.0337 0.12375,0.0758 0.21114,0.12754 0.37224,0.13646 0.0469,0.001 0.0938,5e-5 0.14036,0.006 0.0454,0.005 0.0918,0.0108 0.13286,0.0243 0.12199,0.0545 0.2472,0.0826 0.37786,0.10099 0.16217,0.0418 0.32223,0.10649 0.49322,0.0948 0.71228,0 0.71228,-1.00732 0,-1.00732 z" /></g></svg>
