<?xml version="1.0" encoding="UTF-8" standalone="no"?>
<svg
   version="1.0"
   width="508.92245pt"
   height="556.64679pt"
   viewBox="0 0 508.92245 556.64679"
   preserveAspectRatio="xMidYMid"
   id="svg20"
   sodipodi:docname="speak.svg"
   inkscape:version="1.3 (0e150ed, 2023-07-21)"
   xmlns:inkscape="http://www.inkscape.org/namespaces/inkscape"
   xmlns:sodipodi="http://sodipodi.sourceforge.net/DTD/sodipodi-0.dtd"
   xmlns="http://www.w3.org/2000/svg"
   xmlns:svg="http://www.w3.org/2000/svg">
  <defs
     id="defs20">
    <inkscape:path-effect
       effect="spiro"
       id="path-effect30"
       is_visible="true"
       lpeversion="1" />
    <inkscape:path-effect
       effect="spiro"
       id="path-effect27"
       is_visible="true"
       lpeversion="1" />
    <inkscape:path-effect
       effect="powerstroke"
       id="path-effect32"
       is_visible="true"
       lpeversion="1.3"
       scale_width="1"
       interpolator_type="CentripetalCatmullRom"
       interpolator_beta="0.75"
       start_linecap_type="round"
       end_linecap_type="round"
       offset_points="11.69611,6.0427277"
       linejoin_type="spiro"
       miter_limit="4"
       not_jump="true"
       sort_points="true"
       message="&lt;b&gt;Ctrl + click&lt;/b&gt; on existing node and move it" />
    <inkscape:path-effect
       effect="simplify"
       id="path-effect31"
       is_visible="true"
       lpeversion="1.3"
       threshold="0.012"
       steps="1"
       smooth_angles="0"
       helper_size="0"
       simplify_individual_paths="false"
       simplify_just_coalesce="false"
       step="1" />
    <inkscape:path-effect
       effect="powerstroke"
       id="path-effect29"
       is_visible="true"
       lpeversion="1.3"
       scale_width="1"
       interpolator_type="CentripetalCatmullRom"
       interpolator_beta="0.75"
       start_linecap_type="round"
       end_linecap_type="round"
       offset_points="2.1525637,10.760564"
       linejoin_type="spiro"
       miter_limit="4"
       not_jump="true"
       sort_points="true"
       message="&lt;b&gt;Ctrl + click&lt;/b&gt; on existing node and move it" />
    <inkscape:path-effect
       effect="simplify"
       id="path-effect28"
       is_visible="true"
       lpeversion="1.3"
       threshold="0.012"
       steps="1"
       smooth_angles="0"
       helper_size="0"
       simplify_individual_paths="false"
       simplify_just_coalesce="false"
       step="1" />
    <inkscape:path-effect
       effect="powerstroke"
       id="path-effect26"
       is_visible="true"
       lpeversion="1.3"
       scale_width="1"
       interpolator_type="CentripetalCatmullRom"
       interpolator_beta="0.75"
       start_linecap_type="round"
       end_linecap_type="round"
       offset_points="15.030522,10.760564"
       linejoin_type="spiro"
       miter_limit="4"
       not_jump="true"
       sort_points="true"
       message="&lt;b&gt;Ctrl + click&lt;/b&gt; on existing node and move it" />
    <inkscape:path-effect
       effect="simplify"
       id="path-effect25"
       is_visible="true"
       lpeversion="1.3"
       threshold="0.012"
       steps="1"
       smooth_angles="0"
       helper_size="0"
       simplify_individual_paths="false"
       simplify_just_coalesce="false"
       step="1" />
    <inkscape:path-effect
       effect="powerstroke"
       id="path-effect24"
       is_visible="true"
       lpeversion="1.3"
       scale_width="1"
       interpolator_type="CentripetalCatmullRom"
       interpolator_beta="0.75"
       start_linecap_type="round"
       end_linecap_type="round"
       offset_points="3.7465385,10.760564"
       linejoin_type="spiro"
       miter_limit="4"
       not_jump="true"
       sort_points="true"
       message="&lt;b&gt;Ctrl + click&lt;/b&gt; on existing node and move it" />
    <inkscape:path-effect
       effect="simplify"
       id="path-effect23"
       is_visible="true"
       lpeversion="1.3"
       threshold="0.012"
       steps="1"
       smooth_angles="0"
       helper_size="0"
       simplify_individual_paths="false"
       simplify_just_coalesce="false"
       step="1" />
  </defs>
  <sodipodi:namedview
     id="namedview20"
     pagecolor="#ffffff"
     bordercolor="#000000"
     borderopacity="0.25"
     inkscape:showpageshadow="2"
     inkscape:pageopacity="0.0"
     inkscape:pagecheckerboard="0"
     inkscape:deskcolor="#d1d1d1"
     inkscape:document-units="pt"
     inkscape:zoom="0.67789761"
     inkscape:cx="130.55069"
     inkscape:cy="484.58646"
     inkscape:window-width="1312"
     inkscape:window-height="816"
     inkscape:window-x="0"
     inkscape:window-y="25"
     inkscape:window-maximized="0"
     inkscape:current-layer="svg20" />
  <g
     transform="matrix(0.1,0,0,-0.1,-17.537232,569.14682)"
     fill="#000000"
     stroke="none"
     id="g20">
    <path
       d="m 3180,5689 c -30,-4 -126,-12 -213,-19 -87,-6 -188,-20 -225,-30 -51,-13 -97,-17 -192,-15 -103,2 -132,-1 -165,-16 -22,-10 -54,-19 -71,-19 -17,0 -55,-13 -85,-29 -30,-15 -79,-36 -109,-45 -55,-16 -82,-35 -252,-185 -129,-112 -180,-156 -197,-165 -9,-5 -52,-44 -96,-86 -44,-42 -98,-87 -120,-98 -22,-11 -60,-42 -85,-67 -24,-26 -57,-49 -73,-52 -31,-6 -52,-43 -42,-73 6,-18 -83,-180 -158,-288 -49,-71 -74,-127 -88,-198 -12,-60 -8,-101 10,-90 4,3 11,26 14,51 10,66 53,168 102,239 23,33 57,88 76,121 18,33 45,78 60,100 19,29 25,49 22,71 -4,27 -1,32 21,38 14,3 54,33 90,66 35,33 69,60 76,60 7,0 51,38 99,84 47,46 94,88 104,93 24,12 196,157 296,248 42,39 88,75 101,81 69,31 190,77 225,86 22,6 63,18 90,27 39,14 77,17 170,15 79,-1 139,3 175,12 53,14 129,24 350,43 137,13 386,3 401,-15 6,-8 29,-19 50,-24 28,-8 46,-21 63,-48 30,-48 43,-58 86,-67 19,-4 49,-16 66,-26 17,-10 58,-27 91,-37 34,-11 74,-28 90,-39 15,-11 39,-24 53,-28 14,-4 36,-14 48,-22 13,-8 39,-20 57,-26 39,-14 129,-96 150,-138 17,-32 43,-49 75,-49 12,0 24,-9 29,-22 5,-13 18,-31 29,-42 12,-10 26,-35 33,-55 7,-21 31,-53 59,-78 26,-23 53,-56 60,-73 7,-17 19,-29 27,-28 9,2 25,-10 37,-25 19,-26 21,-39 19,-155 -2,-70 -8,-150 -15,-178 -9,-43 -9,-59 6,-103 16,-50 16,-52 -5,-81 -21,-28 -21,-31 -6,-48 13,-14 17,-38 17,-105 0,-49 -4,-87 -10,-87 -5,0 -30,13 -56,30 -26,16 -62,34 -81,41 -41,13 -43,29 -2,29 26,0 30,3 27,23 -2,18 -11,23 -48,28 -142,20 -236,47 -295,87 -33,22 -71,52 -85,67 -14,15 -54,42 -90,60 -68,33 -144,74 -182,98 -13,8 -55,17 -95,20 -55,4 -81,12 -112,33 -39,25 -46,44 -15,44 31,0 7,88 -37,135 -10,11 -42,43 -70,70 -28,28 -67,74 -86,103 -31,47 -39,52 -71,52 -35,1 -60,8 -202,62 -30,12 -89,25 -130,29 -41,4 -88,10 -104,14 -27,7 -94,-3 -181,-28 -22,-6 -56,-10 -76,-8 -26,2 -49,-5 -78,-23 -22,-14 -50,-26 -61,-26 -33,0 -122,-45 -150,-75 -14,-15 -38,-33 -53,-42 -34,-17 -100,-116 -122,-184 -14,-40 -14,-53 -4,-65 7,-9 8,-18 3,-23 -5,-5 -61,-19 -124,-30 -63,-12 -155,-35 -205,-51 -49,-16 -160,-45 -245,-66 -321,-76 -419,-128 -589,-307 -52,-55 -54,-59 -37,-75 16,-16 20,-14 78,46 33,34 64,62 68,62 5,0 6,-34 3,-75 -5,-66 -4,-75 11,-75 23,0 36,40 36,110 0,32 4,61 10,65 5,3 7,12 4,19 -6,14 55,61 109,84 38,16 45,15 57,-8 9,-16 0,-30 -60,-97 -74,-82 -93,-119 -69,-134 10,-7 21,0 39,23 14,18 48,58 77,88 28,31 57,68 63,84 12,32 5,66 -13,66 -31,1 53,32 159,59 66,16 130,33 143,37 23,7 24,6 18,-37 -17,-128 -28,-175 -48,-191 -13,-11 -18,-24 -14,-37 4,-13 -3,-26 -25,-45 -18,-14 -36,-26 -41,-26 -5,0 -27,19 -48,42 -30,32 -46,41 -69,40 -69,-2 -160,-80 -230,-197 l -42,-70 v 37 c 0,20 5,40 10,43 6,3 10,15 10,26 0,14 -7,19 -25,19 -39,0 -48,-31 -40,-131 l 6,-88 -42,-60 c -24,-34 -47,-57 -51,-53 -5,5 -21,46 -37,93 -30,86 -53,109 -59,55 -4,-29 1,-43 45,-152 l 25,-61 -21,-34 c -12,-19 -21,-42 -21,-52 0,-23 28,-33 50,-19 14,8 21,8 28,-1 19,-24 102,-259 95,-271 -3,-6 -26,-40 -51,-75 l -45,-64 -23,44 c -15,29 -25,72 -29,127 -4,45 -12,85 -17,88 -14,9 -38,-16 -38,-40 0,-19 -2,-18 -24,9 l -24,30 -7,-27 c -5,-21 1,-41 31,-89 32,-54 38,-73 46,-153 4,-50 9,-116 9,-146 0,-30 3,-152 6,-270 7,-288 -17,-526 -72,-705 -22,-73 -20,-97 7,-93 15,2 24,12 29,33 50,220 72,343 81,465 l 12,145 12,-55 c 75,-327 84,-384 91,-590 4,-144 1,-204 -16,-340 -37,-288 -36,-283 -60,-298 -11,-8 -21,-23 -21,-34 0,-11 -8,-33 -17,-49 -14,-24 -15,-33 -5,-49 15,-24 15,-55 1,-137 -7,-39 -16,-63 -24,-63 -19,0 -93,64 -132,116 -79,103 -145,302 -177,533 -21,145 -20,153 3,116 52,-84 135,-112 247,-84 37,10 45,16 43,33 -1,11 2,30 6,40 6,15 2,24 -21,40 -122,88 -182,242 -204,521 -13,171 17,1028 38,1086 7,17 17,24 37,24 33,0 42,17 20,38 -8,9 -15,20 -15,25 0,16 36,42 69,48 41,9 39,38 -4,42 -62,5 -114,-55 -166,-193 -29,-78 -43,-82 -34,-9 19,161 36,228 69,279 18,27 43,69 54,92 12,22 33,50 47,61 14,11 25,27 25,36 0,24 -32,19 -64,-10 l -28,-27 7,24 c 9,31 77,145 109,184 20,23 32,29 58,27 42,-2 63,11 54,33 -5,13 -9,15 -20,6 -8,-7 -25,-9 -38,-6 -18,5 -33,-1 -55,-19 -17,-14 -37,-26 -45,-26 -21,0 -95,-80 -113,-122 -19,-48 -19,-78 0,-78 12,0 13,-4 6,-19 -6,-10 -15,-40 -21,-67 -6,-27 -21,-69 -34,-94 -15,-27 -30,-86 -40,-150 -25,-156 -24,-152 -49,-148 -18,2 -23,11 -25,41 -2,21 2,62 8,90 10,48 9,53 -10,69 -11,9 -20,21 -20,28 0,33 96,184 111,174 10,-6 39,13 39,25 0,3 -4,12 -9,20 -13,21 -40,0 -91,-70 -25,-34 -57,-74 -71,-90 -29,-31 -65,-143 -75,-234 -4,-33 -23,-96 -41,-140 -19,-44 -46,-107 -60,-140 -13,-33 -30,-73 -38,-90 -60,-137 -122,-409 -146,-650 -18,-175 -18,-866 -1,-1035 39,-374 84,-513 184,-563 52,-25 156,-41 174,-26 17,14 17,14 34,-31 39,-101 138,-326 177,-403 53,-103 69,-123 88,-107 11,9 0,37 -52,142 -74,149 -211,478 -282,677 -135,378 -171,672 -141,1156 17,275 39,391 86,461 26,37 26,64 0,64 -24,0 -74,-88 -90,-158 -42,-186 -66,-634 -47,-872 19,-247 88,-529 195,-795 20,-49 36,-93 36,-97 0,-7 -54,-1 -112,13 -114,29 -158,138 -200,504 -18,151 -18,960 0,1105 38,311 105,541 247,845 13,28 29,63 35,79 l 11,30 19,-31 c 12,-20 30,-34 49,-38 17,-4 31,-10 31,-15 0,-4 -8,-74 -17,-156 -14,-122 -17,-250 -17,-699 -1,-518 0,-559 22,-715 51,-369 125,-575 249,-691 73,-68 94,-80 128,-71 27,7 32,15 47,73 9,35 17,77 17,92 1,15 10,40 20,55 11,15 22,50 26,77 3,28 15,79 25,115 11,36 31,128 46,205 24,125 27,163 27,355 1,226 -9,323 -57,575 -31,163 -55,254 -101,378 -27,77 -35,113 -35,168 v 69 l 36,-40 c 20,-22 40,-40 45,-40 5,0 0,25 -12,55 l -20,54 48,65 c 33,45 50,60 55,51 4,-7 17,-60 28,-118 l 20,-105 -21,-53 c -15,-40 -19,-65 -14,-96 3,-24 10,-43 14,-43 5,0 14,21 20,46 7,26 14,45 16,43 2,-2 17,-66 34,-142 17,-76 39,-162 49,-192 11,-30 17,-55 15,-55 -2,0 -17,7 -33,15 -22,11 -35,31 -52,77 -22,60 -23,62 -29,33 -10,-46 -10,-100 0,-110 17,-17 61,-201 76,-312 8,-59 20,-249 26,-421 12,-341 5,-450 -30,-500 -31,-44 -146,-533 -133,-570 3,-10 32,-18 32,-8 0,18 56,278 82,379 24,92 36,126 46,122 7,-2 15,3 18,13 3,9 11,28 17,41 9,17 12,135 12,400 0,400 -8,516 -50,693 -24,106 -24,107 32,92 39,-11 80,-127 103,-299 6,-44 22,-126 36,-183 31,-130 32,-224 6,-322 -11,-41 -28,-124 -37,-185 -10,-60 -30,-162 -45,-225 -16,-68 -28,-148 -29,-195 -1,-44 -9,-125 -18,-180 -21,-133 -22,-160 -3,-160 19,0 43,115 59,277 6,61 14,114 18,117 5,3 8,24 9,46 0,22 16,114 35,205 l 34,165 3,-165 c 4,-206 -4,-296 -24,-279 -25,21 -42,3 -48,-53 -3,-29 -7,-131 -10,-225 -4,-160 -3,-173 13,-173 14,0 20,15 29,78 7,42 12,103 12,135 0,50 3,60 19,64 22,6 24,12 46,167 12,81 15,185 15,413 -1,281 1,340 14,302 56,-163 77,-257 96,-429 9,-78 19,-122 42,-170 24,-52 31,-82 33,-150 6,-127 15,-186 30,-206 13,-17 16,-17 25,-4 5,8 11,19 13,23 1,5 51,-39 110,-97 93,-91 111,-105 132,-100 17,4 25,2 25,-7 0,-18 51,-92 87,-127 15,-16 44,-49 63,-74 24,-32 49,-52 80,-64 65,-24 69,-30 72,-92 2,-43 7,-57 18,-57 11,0 16,14 18,57 l 3,58 h 63 c 35,0 108,-9 161,-20 108,-22 163,-25 215,-10 20,5 87,14 150,19 63,6 124,11 135,13 13,2 20,-4 23,-17 8,-52 13,-65 26,-65 20,0 23,17 15,69 -9,58 2,77 78,127 32,21 90,70 129,109 129,127 231,213 264,220 17,4 34,13 37,21 3,7 20,23 39,35 20,12 45,41 59,68 22,44 26,47 54,43 l 31,-4 v 61 c 0,52 4,67 32,106 17,25 34,45 38,45 9,0 42,-197 36,-217 -13,-45 -14,-99 -7,-248 l 8,-160 44,-79 c 41,-74 48,-81 105,-107 33,-15 65,-33 71,-41 6,-7 20,-42 30,-78 12,-41 24,-65 34,-65 22,0 15,82 -12,145 -23,53 -23,53 -3,69 23,19 29,62 27,188 -2,133 -39,273 -87,331 -19,22 -24,44 -29,120 -6,88 -20,163 -53,297 -8,33 -13,73 -12,90 4,40 -27,47 -44,10 -10,-22 -6,-46 21,-156 24,-96 34,-162 38,-251 6,-110 8,-121 27,-129 47,-22 101,-226 94,-354 -2,-41 -8,-79 -13,-84 -6,-6 -35,-13 -66,-17 l -55,-6 -36,68 c -36,69 -36,69 -41,229 -3,95 -1,179 5,206 9,36 7,62 -7,125 -10,43 -19,106 -21,139 -5,75 -33,217 -45,230 -13,13 -11,44 5,96 7,24 28,90 45,147 18,56 36,102 42,102 10,0 94,-127 157,-239 41,-72 42,-75 42,-170 0,-93 28,-289 52,-361 6,-19 24,-59 41,-88 16,-29 38,-84 47,-121 18,-67 56,-157 70,-166 4,-3 13,2 20,10 11,13 9,24 -8,63 -12,26 -29,74 -37,107 -9,33 -34,96 -56,141 -32,65 -44,107 -64,224 -27,152 -30,190 -17,190 14,0 83,-133 95,-183 l 11,-49 19,37 c 12,25 16,47 12,68 -4,22 -3,27 4,17 8,-14 34,-133 45,-212 5,-43 105,-227 123,-228 37,-1 27,45 -27,129 -35,55 -43,77 -60,178 -11,63 -23,119 -26,125 -17,27 -26,97 -32,248 -7,164 -7,165 -31,168 l -23,4 5,-159 c 4,-87 9,-174 12,-193 l 5,-35 -17,35 c -13,27 -18,72 -21,198 -4,149 -2,177 23,300 15,76 29,139 31,141 3,3 17,-8 33,-23 24,-23 28,-34 24,-60 -3,-22 5,-53 32,-110 38,-82 126,-322 151,-411 12,-43 11,-72 -1,-210 -8,-88 -16,-169 -17,-180 -2,-14 3,-20 16,-20 15,0 22,12 32,55 7,30 13,73 14,95 1,89 17,59 51,-93 32,-144 37,-157 58,-160 22,-4 23,-2 15,40 -10,59 -10,64 19,139 25,63 103,401 126,541 77,468 85,556 78,806 -10,340 -71,648 -173,869 l -36,77 23,17 c 14,10 20,22 16,33 -8,20 -36,21 -43,1 -9,-23 -18,-18 -38,20 -16,29 -17,37 -5,51 12,14 10,19 -10,35 -30,25 -70,34 -83,21 -8,-8 10,-48 60,-139 86,-154 106,-199 138,-306 70,-231 104,-476 104,-750 0,-201 -12,-326 -60,-623 -42,-258 -119,-606 -139,-627 -4,-4 -23,48 -42,115 -36,131 -41,213 -20,336 6,31 18,131 27,222 21,207 15,640 -11,760 -9,41 -18,98 -21,125 -8,82 -13,95 -33,95 -25,0 -31,56 -31,303 0,165 2,197 14,197 25,0 29,21 9,48 -28,39 -37,93 -50,324 l -4,87 44,-45 c 24,-24 49,-44 56,-44 21,0 11,38 -20,71 -39,41 -49,68 -49,125 0,36 -3,44 -19,44 -22,0 -31,26 -31,91 0,29 -6,51 -15,59 -17,14 -20,80 -4,80 7,0 9,-9 6,-23 -8,-28 0,-40 38,-60 55,-28 75,-55 75,-97 0,-43 21,-55 38,-24 8,15 13,14 45,-10 111,-85 277,-480 331,-793 26,-144 39,-504 27,-733 -11,-199 -36,-529 -46,-600 -3,-19 -14,-164 -25,-322 -18,-261 -27,-340 -46,-405 -7,-24 20,-44 36,-27 20,21 42,188 60,463 11,163 29,388 40,500 65,645 39,1103 -83,1456 -15,45 -22,84 -19,108 3,31 1,36 -11,31 -12,-4 -23,10 -45,58 l -29,63 20,22 c 23,26 19,69 -14,114 -11,16 -16,29 -10,29 6,0 15,-9 21,-20 6,-11 17,-20 25,-20 48,0 -136,210 -213,244 -36,16 -42,23 -38,42 5,17 0,24 -23,33 -26,11 -29,18 -34,78 -5,53 -18,89 -62,178 -77,154 -87,234 -20,153 54,-65 106,-118 117,-118 5,0 -4,16 -21,35 -21,25 -31,46 -31,69 0,19 -7,39 -15,46 -11,9 -12,16 -5,25 13,15 4,41 -17,49 -10,4 -14,17 -11,43 3,33 -1,40 -29,58 -27,17 -32,26 -33,60 -1,65 -16,125 -39,156 -11,15 -21,39 -21,53 0,31 -16,42 -28,20 -7,-13 -17,-8 -60,34 -28,28 -59,69 -68,91 -9,23 -20,41 -25,41 -5,0 -20,18 -34,40 -17,27 -32,40 -48,40 -29,0 -41,9 -60,45 -19,36 -121,135 -140,135 -8,0 -35,11 -61,25 -26,14 -52,25 -58,25 -6,0 -32,13 -57,29 -25,16 -66,35 -91,41 -25,7 -63,22 -85,35 -22,12 -57,26 -78,29 -31,6 -43,15 -65,51 -24,41 -56,65 -86,65 -7,0 -21,9 -31,20 -16,17 -30,20 -119,19 -56,0 -114,4 -131,8 -16,5 -55,6 -85,2 z m -222,-656 c 64,-4 72,-6 60,-20 -15,-19 -12,-147 5,-175 17,-27 92,-22 92,7 0,13 -8,21 -22,23 -31,5 -53,39 -53,83 0,62 31,69 117,25 17,-9 60,-22 95,-28 60,-10 98,-30 98,-51 0,-5 18,-31 40,-57 l 40,-47 -58,-6 c -66,-7 -102,-1 -102,18 0,8 -6,26 -14,42 -8,15 -18,41 -23,57 -4,16 -14,31 -21,34 -18,6 -5,-76 17,-108 l 18,-25 h -156 c -92,0 -159,4 -163,10 -4,6 -8,51 -8,102 0,91 -9,118 -33,94 -8,-8 -12,-48 -11,-111 l 1,-99 -46,6 c -25,3 -47,6 -48,7 -7,5 22,155 33,174 13,20 13,23 -1,29 -26,9 -33,-6 -53,-117 -14,-82 -21,-104 -33,-100 -7,2 -41,5 -74,6 -33,1 -74,5 -91,9 -26,6 -37,2 -66,-24 -39,-34 -55,-38 -81,-18 -16,11 -16,18 -6,67 6,30 18,59 25,63 8,4 14,19 14,31 0,20 6,25 38,28 20,3 39,4 41,2 2,-2 -6,-29 -18,-60 -24,-65 -26,-74 -8,-74 12,0 57,93 57,118 0,7 7,15 15,18 8,4 15,15 15,26 0,17 4,19 27,13 16,-4 29,-8 30,-9 1,-1 0,-26 -4,-55 -4,-35 -14,-63 -30,-82 -24,-29 -24,-49 2,-49 7,0 27,16 43,35 26,28 31,43 30,82 -1,73 15,103 54,104 18,1 44,5 58,9 14,5 39,6 55,3 17,-3 63,-7 103,-10 z m -593,-210 c -11,-65 -13,-68 -34,-49 -10,9 -23,16 -29,14 -9,-3 -12,1 -12,20 0,4 16,14 35,21 19,7 35,17 35,22 0,5 2,9 5,9 3,0 3,-17 0,-37 z m 654,-87 c 5,-3 22,-1 40,4 50,14 248,-4 271,-25 16,-14 30,-16 70,-11 42,6 56,3 80,-14 39,-28 38,-38 -6,-56 -32,-14 -38,-13 -61,1 -19,13 -31,14 -51,7 -50,-19 -87,-24 -192,-27 -58,-1 -132,-7 -165,-13 -99,-18 -408,-25 -530,-13 -60,7 -122,11 -136,11 -15,0 -32,7 -39,15 -7,8 -20,15 -30,15 -26,0 -28,7 -17,50 7,25 18,41 31,44 33,9 94,7 100,-3 10,-16 135,-24 152,-10 11,9 58,12 162,11 106,-1 154,3 172,12 23,13 129,14 149,2 z m 174,-180 c 16,-4 27,-2 27,4 0,5 16,10 35,10 23,0 35,-5 35,-14 0,-16 43,-30 48,-16 6,17 31,11 42,-10 16,-31 40,-25 40,10 0,26 2,28 22,21 13,-5 23,-14 23,-22 0,-8 4,-29 9,-47 5,-22 4,-38 -4,-48 -10,-11 -10,-18 2,-32 17,-18 18,-26 42,-170 9,-51 20,-101 26,-112 8,-15 8,-20 -2,-20 -7,0 -1,-11 15,-24 15,-13 27,-27 27,-32 0,-4 -5,-3 -12,4 -17,17 -80,15 -128,-4 -27,-11 -54,-14 -80,-10 -34,5 -44,2 -74,-24 -19,-17 -56,-37 -83,-45 -76,-23 -142,-95 -86,-95 8,0 28,9 44,21 16,11 45,25 63,30 19,5 50,23 71,39 31,25 44,29 75,24 26,-4 51,0 89,16 l 52,23 50,-23 c 27,-13 55,-30 61,-37 15,-19 58,-16 96,7 25,15 50,20 107,20 42,0 84,5 95,12 17,11 24,8 49,-16 25,-24 35,-27 65,-22 50,10 120,-23 134,-63 6,-16 22,-37 36,-46 43,-28 35,-67 -21,-110 -57,-43 -87,-52 -127,-35 -17,7 -59,16 -94,21 -35,5 -77,12 -95,17 -18,5 -63,5 -102,1 -38,-5 -113,-6 -165,-3 -52,3 -131,1 -175,-4 -75,-9 -81,-8 -96,11 -14,17 -20,19 -49,8 -44,-15 -85,-14 -99,2 -6,8 -14,28 -17,46 -7,35 -29,50 -45,34 -14,-14 5,-83 31,-111 17,-17 32,-22 75,-22 39,0 56,-4 63,-16 8,-14 20,-14 107,-5 54,6 100,10 102,8 11,-12 -136,-47 -197,-47 -54,0 -71,-4 -78,-17 -7,-12 -28,-18 -72,-21 -47,-3 -64,-9 -67,-21 -4,-15 -24,-17 -176,-15 l -172,1 -16,27 c -10,17 -19,23 -23,17 -10,-16 -42,-13 -79,6 l -32,17 40,8 c 25,6 59,25 89,52 l 48,42 -13,59 c -19,86 -38,102 -142,122 -77,15 -94,15 -145,3 -31,-7 -95,-15 -142,-17 -47,-2 -95,-9 -107,-15 -20,-10 -25,-8 -44,15 -19,25 -26,27 -104,27 -59,0 -86,4 -94,14 -29,34 -100,26 -132,-16 -16,-20 -17,-20 -62,-3 -76,29 -210,-1 -279,-63 -14,-11 -21,-12 -32,-3 -17,14 -43,5 -57,-21 -14,-26 9,-128 30,-135 9,-2 55,-23 103,-46 87,-41 88,-41 139,-28 70,18 88,0 24,-24 -25,-10 -57,-32 -70,-49 l -24,-30 -48,26 c -31,16 -72,28 -116,32 -99,10 -117,-3 -189,-139 -51,-97 -51,-96 -63,125 -13,225 -16,206 48,291 61,82 66,93 40,107 -14,8 -10,17 31,60 26,28 63,58 83,67 l 35,17 42,-41 c 53,-52 87,-54 156,-8 40,26 49,36 45,55 -3,12 1,35 9,51 15,28 32,111 43,203 5,43 8,48 37,54 17,3 44,13 59,21 16,8 31,12 35,9 3,-4 -9,-42 -27,-85 -23,-57 -33,-98 -35,-143 -2,-57 -6,-70 -44,-123 -46,-64 -51,-82 -25,-92 11,-4 22,1 32,17 9,14 33,47 53,74 35,46 37,55 37,115 0,52 6,83 31,144 23,57 28,82 21,91 -13,15 -4,26 20,26 16,0 18,-10 15,-117 -4,-108 -7,-124 -36,-185 -17,-37 -32,-81 -32,-97 -1,-29 -4,-31 -38,-31 -42,0 -58,-21 -34,-41 13,-10 30,-10 85,-1 38,7 87,12 110,12 37,0 39,2 29,20 -8,16 -21,20 -60,20 -62,0 -62,3 -14,121 31,76 35,96 29,136 -3,27 -2,59 4,73 5,14 10,18 10,10 1,-8 10,-32 21,-53 11,-20 20,-45 20,-55 0,-29 29,-62 54,-62 22,0 24,4 24,49 0,51 15,91 35,91 20,0 86,60 113,101 19,30 31,39 52,39 15,0 32,4 38,9 5,5 48,4 99,-1 50,-5 136,-8 193,-5 56,2 102,0 102,-5 0,-4 9,-8 20,-8 11,0 20,5 20,10 0,7 7,7 21,0 15,-9 28,-9 48,0 15,6 73,12 129,13 76,1 103,5 107,15 5,14 41,13 108,-2 z m -1036,-43 c -24,-17 -47,-47 -65,-86 l -28,-60 -17,36 c -9,19 -17,51 -17,70 0,28 5,36 28,45 37,15 61,19 102,21 l 35,1 z m 1419,-4 c 21,-16 44,-43 51,-60 6,-16 34,-52 60,-80 26,-28 60,-65 76,-81 15,-16 27,-37 27,-45 0,-14 16,-15 120,-11 l 121,5 62,-67 c 40,-43 87,-80 132,-105 83,-46 159,-120 199,-196 16,-29 39,-65 52,-79 28,-31 49,-111 31,-122 -24,-15 -103,-21 -211,-15 -154,8 -158,10 -91,59 63,45 75,63 75,113 0,29 -7,44 -34,69 -18,17 -37,41 -41,54 -4,15 -29,34 -73,56 -56,28 -72,32 -95,24 -23,-8 -31,-7 -42,8 -8,11 -15,30 -15,43 0,29 -26,50 -63,51 -16,0 -62,-16 -102,-36 -62,-30 -81,-35 -112,-29 -55,10 -103,35 -103,53 0,8 -6,23 -14,31 -7,9 -18,52 -25,96 -13,94 -36,228 -46,268 -10,37 11,36 61,-4 z m 1094,21 c 0,-5 -4,-10 -10,-10 -5,0 -10,5 -10,10 0,6 5,10 10,10 6,0 10,-4 10,-10 z m -839,-96 c 46,-26 102,-55 124,-65 41,-18 95,-62 95,-76 0,-4 -48,-10 -106,-11 l -106,-4 -89,94 c -49,51 -89,96 -89,101 0,4 20,7 44,7 33,0 63,-11 127,-46 z m 897,-340 -3,-46 -38,26 c -41,28 -42,28 -20,-31 3,-7 -2,-13 -11,-13 -13,0 -16,13 -16,80 0,69 3,83 22,102 l 21,21 24,-47 c 17,-34 23,-60 21,-92 z m -512,80 c 33,-26 35,-26 54,-9 30,27 83,13 101,-27 11,-24 33,-41 94,-73 44,-23 95,-50 113,-61 l 33,-19 -7,-75 c -10,-107 -7,-150 12,-171 20,-22 20,-21 -22,-42 l -32,-16 -11,58 c -21,108 -167,285 -300,364 -68,41 -121,89 -121,111 0,10 51,-14 86,-40 z m -306,-109 c -7,-8 -24,-15 -39,-15 -25,1 -25,1 -7,15 11,8 29,15 39,15 16,0 17,-3 7,-15 z m -246,-41 c 9,-3 14,-10 11,-15 -7,-10 -35,0 -35,12 0,11 3,11 24,3 z M 1943,3923 c 13,-13 43,-19 105,-23 83,-5 87,-6 100,-32 15,-32 28,-35 62,-11 18,13 55,20 130,24 58,4 124,10 146,14 23,4 74,2 113,-5 77,-13 93,-26 106,-86 5,-29 2,-34 -37,-63 -38,-28 -47,-30 -89,-25 -38,5 -57,2 -94,-16 -44,-21 -52,-22 -244,-15 -130,5 -210,4 -232,-3 -19,-6 -70,-13 -114,-17 -77,-6 -82,-5 -110,19 -33,29 -62,32 -111,14 -30,-11 -40,-8 -121,29 -69,33 -89,47 -94,67 -6,23 -4,26 16,26 13,0 36,11 52,24 45,38 85,54 149,61 50,6 68,4 100,-13 45,-22 64,-18 94,21 25,31 46,34 73,10 z M 809,3832 c -22,-44 -29,-51 -29,-29 0,15 39,81 45,75 3,-2 -5,-23 -16,-46 z m 4095,9 c 23,-25 15,-27 -19,-5 -29,19 -44,50 -17,35 9,-5 26,-19 36,-30 z M 1143,3673 c 12,-130 20,-303 14,-303 -3,0 -28,59 -56,131 l -51,130 35,55 c 19,30 39,54 43,54 5,0 12,-30 15,-67 z m 2794,26 c 35,-6 63,-15 63,-19 0,-5 3,-16 6,-25 7,-18 -6,-17 -121,6 -80,17 -83,19 -55,34 31,18 29,17 107,4 z m -292,-18 c -6,-5 -30,-11 -55,-15 l -45,-5 40,14 c 48,16 73,19 60,6 z m 995,-156 c 0,-74 -3,-135 -7,-135 -16,1 -51,37 -67,70 -22,47 -36,63 -69,85 -21,14 -31,15 -40,6 -9,-9 -9,-16 0,-30 10,-16 8,-20 -14,-24 -32,-6 -73,11 -73,29 0,8 -14,21 -31,29 -49,26 -31,39 62,46 46,3 94,9 107,13 21,7 22,4 22,-38 0,-25 5,-48 10,-51 21,-13 40,17 40,65 0,39 4,49 23,58 12,6 25,11 30,11 4,1 7,-60 7,-134 z m -3236,10 c 21,-21 34,-25 88,-25 35,0 69,-4 77,-9 11,-7 13,-37 8,-157 -4,-109 -2,-160 8,-189 7,-22 16,-55 20,-73 4,-18 18,-45 31,-61 13,-16 31,-46 40,-68 21,-49 43,-73 133,-142 41,-31 85,-64 98,-75 13,-10 56,-25 94,-32 39,-7 94,-24 122,-37 43,-19 63,-22 117,-17 58,4 65,7 70,29 6,27 39,44 57,29 7,-5 26,-7 43,-3 27,6 30,10 25,33 -6,32 24,57 56,47 14,-5 29,3 52,28 18,19 44,41 59,48 49,25 186,186 223,263 38,76 39,87 20,217 -8,52 1,65 39,55 26,-6 34,-44 42,-191 6,-118 20,-183 68,-308 76,-198 84,-232 90,-372 8,-166 1,-182 -100,-213 -38,-11 -89,-23 -114,-26 -25,-3 -64,-8 -88,-12 -41,-6 -44,-5 -87,40 -25,25 -49,46 -55,46 -5,0 -10,-15 -10,-34 0,-26 8,-41 35,-65 44,-38 72,-46 138,-36 29,4 77,11 107,15 121,16 185,51 220,119 17,32 4,303 -16,346 -8,17 -22,60 -33,95 -10,36 -33,98 -50,138 -34,77 -49,147 -55,249 -2,34 -11,76 -20,94 -9,18 -16,49 -16,71 0,36 2,38 30,38 24,0 31,-5 36,-27 4,-15 2,-45 -4,-67 -6,-23 -7,-45 -3,-51 5,-5 11,-27 14,-47 3,-20 16,-64 28,-98 19,-53 34,-72 127,-158 89,-82 115,-100 171,-120 101,-35 104,-35 198,-17 233,44 389,119 450,213 18,28 38,52 42,52 24,0 213,205 242,261 36,72 44,69 155,-43 54,-55 83,-89 64,-76 -19,14 -54,35 -77,47 -24,12 -43,26 -43,32 0,6 -12,9 -27,7 -50,-6 -36,-38 33,-76 34,-19 87,-57 118,-85 l 56,-52 -32,-55 -33,-55 -5,85 c -4,72 -8,85 -23,88 -12,3 -20,-4 -24,-17 -3,-12 -11,-21 -17,-21 -18,0 -50,-48 -74,-112 -17,-46 -22,-82 -23,-185 -1,-70 1,-144 5,-163 5,-28 -1,-52 -30,-115 -75,-166 -124,-296 -144,-380 -11,-48 -33,-117 -49,-154 -16,-36 -35,-86 -42,-111 -7,-25 -19,-52 -26,-61 -8,-9 -13,-27 -11,-40 3,-23 -30,-134 -112,-379 -37,-109 -60,-234 -60,-324 0,-61 -74,-205 -131,-254 -24,-21 -57,-42 -74,-46 -16,-4 -51,-29 -77,-56 -25,-26 -68,-66 -95,-87 -26,-21 -69,-61 -96,-89 -26,-29 -67,-64 -90,-80 -23,-16 -64,-47 -92,-70 -73,-60 -86,-65 -209,-74 -61,-5 -129,-14 -151,-19 -42,-11 -67,-9 -180,16 -63,13 -233,32 -339,36 -35,2 -44,8 -73,47 -19,25 -49,61 -67,80 -18,19 -48,59 -66,88 -24,37 -40,52 -56,52 -15,0 -31,14 -53,48 -17,27 -54,71 -82,97 -63,59 -113,162 -122,248 -3,31 -19,88 -36,125 -24,52 -35,101 -51,218 -23,171 -35,222 -86,367 -32,92 -35,109 -31,176 7,99 -6,211 -44,362 -57,232 -71,358 -50,468 12,58 -4,179 -27,211 -16,22 -82,156 -82,166 0,2 6,4 14,4 25,0 27,16 5,44 -13,16 -31,26 -47,26 -21,1 -37,15 -75,67 l -49,67 38,75 c 34,67 92,161 100,161 2,0 14,-11 28,-25 z m 3012,-100 c 32,-19 67,-35 78,-35 35,-1 53,-23 75,-94 26,-85 27,-100 4,-87 -36,19 -245,230 -239,240 11,16 18,14 82,-24 z M 1264,3211 c 20,-27 36,-54 36,-60 0,-22 -41,-92 -50,-86 -16,10 -45,195 -30,195 5,0 24,-22 44,-49 z m 3405,-49 c 0,-30 -2,-33 -9,-17 -12,28 -12,67 0,60 6,-3 10,-23 9,-43 z m -99,-4 c 0,-15 -15,-8 -28,12 -12,19 -11,20 8,8 11,-7 20,-16 20,-20 z M 711,2852 c -21,-524 -12,-734 40,-907 31,-104 65,-162 131,-228 32,-33 56,-62 53,-65 -3,-3 -34,-8 -69,-10 -163,-11 -189,64 -217,633 -13,255 -7,500 16,645 15,98 45,214 53,206 2,-3 -1,-126 -7,-274 z m 662,184 c 31,-63 32,-66 14,-66 -7,0 -32,-16 -55,-36 -44,-37 -44,-37 -56,18 -7,30 40,138 59,138 7,0 24,-24 38,-54 z m 3055,-47 c -4,-59 -21,-89 -51,-89 -13,0 -1,72 20,115 25,52 36,43 31,-26 z m 199,-6 c 25,-53 28,-68 28,-168 0,-80 -5,-124 -18,-161 -21,-60 -79,-121 -125,-130 l -32,-6 v 199 200 l 26,24 c 15,13 37,41 50,62 13,20 28,37 33,37 5,0 22,-26 38,-57 z M 1437,2797 c 5,-68 2,-96 -11,-131 -32,-83 -39,-78 -82,50 -35,106 -37,117 -21,125 9,6 17,18 17,27 1,16 1,16 11,0 14,-26 38,-22 51,7 18,39 28,16 35,-78 z m 2973,60 c 0,-14 -34,-114 -41,-121 -5,-6 -9,14 -9,51 0,50 3,62 18,66 24,7 32,7 32,4 z m 20,-192 c 0,-49 -3,-65 -14,-65 -30,0 -34,24 -13,78 11,28 21,52 23,52 2,0 4,-29 4,-65 z m -3403,13 c -3,-8 -6,-5 -6,6 -1,11 2,17 5,13 3,-3 4,-12 1,-19 z m 3668,-432 c 7,-35 9,-37 16,-17 5,12 12,78 15,146 4,68 10,122 14,120 38,-23 50,-733 17,-970 -10,-66 -22,-124 -27,-129 -7,-7 -10,-6 -10,2 0,19 -98,279 -125,333 -28,54 -31,79 -12,79 18,0 57,-38 57,-55 0,-29 19,-14 29,23 14,47 14,59 1,64 -14,4 -42,169 -38,221 2,33 7,43 23,45 29,6 45,21 38,38 -12,33 -86,6 -104,-38 -9,-23 -9,-48 0,-116 7,-48 15,-97 18,-109 9,-38 -18,-27 -71,26 l -49,50 -3,254 -3,255 47,12 c 36,9 59,24 97,64 l 50,53 6,-156 c 4,-86 10,-174 14,-195 z m -3241,195 c -8,-8 -21,13 -34,53 -10,31 -10,43 1,63 13,25 14,23 25,-43 7,-38 10,-71 8,-73 z m 2936,60 35,-19 12,-169 c 11,-161 8,-267 -7,-258 -4,2 -40,59 -81,127 -40,68 -78,126 -82,129 -5,4 -6,17 -2,30 13,41 77,179 84,179 3,-1 22,-9 41,-19 z M 1491,2314 c 37,-156 48,-213 54,-286 9,-96 -6,-104 -29,-15 -18,75 -52,251 -62,326 -10,80 16,63 37,-25 z m 2838,-190 c 57,-90 91,-155 91,-172 0,-32 -26,-182 -40,-232 -6,-19 -10,-108 -10,-197 0,-89 -4,-164 -9,-167 -5,-3 -14,9 -21,27 -6,17 -16,39 -21,47 -5,8 -22,34 -37,58 -15,24 -60,96 -101,160 -40,64 -78,124 -84,134 -13,19 8,94 61,228 18,46 38,107 43,134 12,63 29,126 34,126 2,0 45,-66 94,-146 z m -369,-859 12,-65 -33,-37 -32,-37 6,75 c 6,69 20,129 31,129 2,0 9,-29 16,-65 z"
       id="path2" />
    <path
       d="m 2542,4688 c -16,-16 -15,-33 4,-48 22,-19 54,12 38,37 -14,22 -27,26 -42,11 z"
       id="path3" />
    <path
       d="m 2336,4681 c -9,-14 4,-41 19,-41 21,0 28,19 15,35 -14,17 -26,19 -34,6 z"
       id="path4" />
    <path
       d="m 2795,4680 c -4,-7 -3,-16 3,-22 14,-14 45,-2 40,15 -6,16 -34,21 -43,7 z"
       id="path5" />
    <path
       d="m 3104,4679 c -10,-17 13,-36 27,-22 12,12 4,33 -11,33 -5,0 -12,-5 -16,-11 z"
       id="path6" />
    <path
       d="m 3888,2484 c -31,-16 -51,-50 -79,-132 -24,-69 -42,-214 -34,-265 6,-34 10,-38 33,-35 28,3 44,28 18,28 -23,0 -29,38 -17,121 17,126 48,209 92,251 22,21 39,40 39,43 0,9 -24,5 -52,-11 z"
       id="path7" />
    <path
       d="m 1958,2285 c -3,-4 0,-19 8,-34 17,-35 35,-201 33,-306 -2,-63 1,-80 12,-80 10,0 15,17 17,65 4,91 -15,295 -30,327 -13,27 -29,38 -40,28 z"
       id="path8" />
    <path
       d="m 2881,2062 c -13,-25 -14,-121 -2,-141 6,-9 10,17 13,70 2,46 3,86 2,87 -1,2 -7,-5 -13,-16 z"
       id="path9" />
    <path
       d="m 3189,1939 -43,-52 -13,31 c -7,17 -17,33 -23,37 -18,11 -48,-15 -80,-70 -17,-30 -35,-55 -39,-55 -3,0 -14,9 -24,20 -14,17 -24,20 -55,14 -20,-3 -46,-15 -58,-25 -26,-25 -37,-24 -22,0 10,17 9,23 -7,41 -12,13 -22,17 -28,11 -6,-6 -18,-4 -33,5 -39,26 -81,21 -119,-16 -32,-31 -55,-33 -55,-6 0,7 -9,21 -20,31 -29,26 -63,12 -97,-40 -31,-50 -38,-54 -46,-24 -4,15 -12,20 -29,17 -17,-2 -33,-22 -63,-80 -22,-42 -47,-79 -56,-81 -22,-6 -95,-159 -104,-217 -4,-25 -13,-64 -21,-88 -8,-23 -14,-71 -14,-106 0,-46 -4,-67 -16,-77 -11,-9 -14,-22 -10,-43 11,-54 14,-71 15,-78 1,-4 17,-15 37,-24 37,-18 37,-18 58,9 15,19 27,25 43,21 18,-5 26,2 47,44 14,27 32,52 40,55 8,3 21,30 30,61 9,30 21,58 26,61 6,3 10,15 10,26 0,15 5,18 23,14 30,-8 38,2 71,93 29,76 46,92 46,43 0,-37 10,-62 21,-55 5,3 9,18 9,34 0,34 41,59 86,53 23,-4 36,2 58,26 34,36 46,39 46,12 0,-31 24,-44 64,-33 39,11 46,8 46,-23 0,-13 9,-26 25,-33 21,-10 26,-9 35,8 12,22 53,36 129,44 44,4 58,2 80,-15 19,-15 34,-19 57,-14 23,4 33,1 38,-10 4,-12 10,-14 25,-5 11,5 29,10 41,10 14,0 24,8 28,23 5,14 9,-3 12,-48 4,-62 7,-70 26,-73 15,-2 24,-12 28,-33 4,-23 11,-29 31,-29 24,0 25,-2 25,-64 0,-44 5,-67 15,-76 10,-8 15,-31 15,-66 0,-29 5,-56 11,-59 5,-4 14,-18 19,-31 22,-56 75,-7 95,86 4,19 11,40 15,45 17,23 30,165 24,265 -12,216 -19,263 -47,315 -15,28 -27,62 -27,77 0,34 -30,45 -65,22 l -25,-16 v 45 c 0,57 -20,77 -48,49 -20,-20 -20,-20 -26,9 -9,46 -49,50 -91,9 l -34,-33 -7,29 c -17,70 -48,71 -105,3 z m 61,-58 c 0,-22 19,-41 42,-41 9,0 33,14 52,30 l 34,30 7,-39 c 9,-56 26,-76 52,-63 16,9 23,7 37,-10 12,-13 26,-19 42,-15 31,5 31,5 44,-79 6,-38 15,-70 21,-72 5,-2 9,-23 9,-47 0,-24 4,-55 9,-68 6,-15 6,-53 -1,-101 -8,-58 -7,-80 2,-91 16,-19 -1,-125 -19,-125 -12,0 -31,48 -31,79 0,16 -7,34 -15,41 -8,7 -15,27 -15,45 0,82 -18,133 -63,177 -24,24 -46,51 -50,61 -3,9 -18,22 -32,27 -17,7 -25,17 -25,34 0,23 -23,56 -39,56 -17,0 -40,-37 -49,-77 -5,-22 -21,-53 -35,-68 l -25,-28 -24,22 c -17,16 -31,21 -53,18 -16,-3 -60,-10 -97,-15 -36,-5 -71,-13 -77,-16 -5,-4 -21,5 -34,18 -21,21 -32,24 -61,19 -30,-5 -36,-3 -36,12 0,19 -27,55 -42,55 -4,0 -26,-16 -48,-36 -41,-37 -46,-35 -42,17 2,19 -26,29 -84,29 -29,0 -49,-7 -69,-24 -35,-30 -46,-25 -38,14 5,26 2,30 -16,30 -22,0 -41,-33 -41,-71 0,-11 -9,-33 -21,-48 -23,-31 -27,-60 -15,-103 6,-22 3,-32 -18,-53 -15,-15 -41,-62 -59,-106 -31,-73 -34,-77 -50,-62 -14,14 -18,14 -33,2 -9,-8 -23,-29 -31,-48 -10,-23 -18,-30 -25,-23 -10,10 -8,22 38,242 25,120 54,203 79,225 12,11 33,40 45,65 29,57 28,57 43,36 21,-28 49,-15 84,39 63,97 56,93 81,52 29,-50 63,-50 108,-1 46,48 72,44 102,-18 18,-40 27,-48 49,-48 17,0 39,12 59,31 35,34 64,34 64,1 0,-11 7,-25 15,-32 25,-20 61,3 97,61 28,44 33,48 39,31 17,-46 76,-32 120,29 21,30 39,30 39,0 z"
       id="path10" />
    <path
       id="path11"
       style="stroke-width:0.776739"
       inkscape:transform-center-x="-0.37430027"
       inkscape:transform-center-y="-0.78909608"
       d="m 2818.3899,1299.9399 c -36.6256,0.126 -70.0359,-0.226 -96.5039,-1.1426 -0.9123,-0.28 -1.8539,-0.4694 -2.8125,-0.6006 -0.248,-0.04 -0.4981,-0.072 -0.7471,-0.1025 -0.044,-0 -0.092,0 -0.1318,0 -2.2432,-0.2171 -3.7089,-0.078 -4.6143,0.3222 -5.1371,-0.2177 -10.5371,-0.4041 -15,-0.6738 -79.6969,-4.668 -173.875,-49.0717 -126.665,-59.2969 7.263,-1.5731 31.9167,6.0476 54.3896,16.9629 41.3471,18.9553 123.7645,32.8435 184.2481,30.542 86.8559,-3.6939 305.0315,-9.0881 326.2793,-8.54 14.6628,-0.019 25.0051,2.8898 23.8183,6.6357 -2.4159,7.6256 -197.0323,15.3941 -342.2607,15.8936 z" />
    <path
       d="m 3281,1224 c 0,-11 3,-14 6,-6 3,7 2,16 -1,19 -3,4 -6,-2 -5,-13 z"
       id="path12" />
    <path
       d="m 2860,925 c 1,-11 7,-31 15,-45 17,-30 19,-113 4,-141 -6,-11 -8,-25 -6,-32 7,-22 37,52 37,92 0,39 -24,115 -42,136 -5,5 -8,1 -8,-10 z"
       id="path13" />
    <path
       d="m 4737,5143 c -4,-3 -7,-11 -7,-17 0,-6 5,-5 12,2 6,6 9,14 7,17 -3,3 -9,2 -12,-2 z"
       id="path14" />
    <path
       d="m 2210,5130 c 0,-5 5,-10 10,-10 6,0 10,5 10,10 0,6 -4,10 -10,10 -5,0 -10,-4 -10,-10 z"
       id="path15" />
    <path
       d="m 4741,3736 c -9,-11 -9,-16 -1,-21 32,-20 210,-353 210,-393 0,-10 3,-22 7,-25 9,-9 43,23 43,40 0,33 -165,339 -208,386 -29,31 -35,32 -51,13 z"
       id="path16" />
    <path
       d="m 400,3570 c -11,-21 -4,-25 24,-14 9,3 16,12 16,20 0,21 -28,17 -40,-6 z"
       id="path17" />
    <path
       d="m 1619,1129 c -20,-20 -25,-62 -21,-209 1,-63 5,-78 23,-92 30,-25 38,-15 28,34 -10,51 -12,190 -3,212 4,11 13,14 29,10 30,-7 41,12 20,36 -25,28 -54,31 -76,9 z"
       id="path18" />
    <path
       d="m 1777,719 c -4,-21 -16,-48 -27,-62 -21,-26 -36,-90 -65,-262 -8,-54 -27,-125 -42,-157 -39,-87 -15,-124 31,-46 30,52 50,128 70,266 17,114 23,129 39,113 6,-6 15,-11 19,-11 12,0 10,48 -3,55 -6,4 -8,13 -6,19 3,7 2,37 -2,67 l -7,54 z"
       id="path19" />
    <path
       d="m 1321,299 c -24,-39 -26,-49 -8,-49 32,1 54,42 37,70 -6,10 -14,4 -29,-21 z"
       id="path20" />
    <circle
       id="path1"
       style="fill:#010101;stroke:#000000;stroke-width:7.5"
       cx="2856.0828"
       cy="-1275.5438"
       r="0.30875638"
       transform="scale(1,-1)" />
    <path
       id="path21"
       style="fill:#010101;stroke:#000000;stroke-width:7.5"
       transform="scale(1,-1)"
       d="m 2789.7083,-1308.5239 a 3.0832751,3.0832751 0 0 0 -3.0909,3.0762 3.0832751,3.0832751 0 0 0 3.0909,3.0908 3.0832751,3.0832751 0 0 0 3.0761,-3.0908 3.0832751,3.0832751 0 0 0 -1.7871,-2.7978 c -0.34,-0.039 -0.66,-0.1333 -0.9521,-0.2637 a 3.0832751,3.0832751 0 0 0 -0.3369,-0.015 z" />
    <path
       id="path-1"
       style="fill:#010101;fill-rule:nonzero;stroke:none;stroke-width:0.377953"
       d="m 2796.9739,1304.4809 c -3.2783,0.019 -6.5085,-0.1321 -9.7119,-0.4981 h -0.015 c -4.1109,-0.4783 -8.1433,-1.3234 -12.0263,-2.8271 -1.2193,-0.4731 -2.3721,-1.0196 -3.501,-1.6113 -0.1577,-0.01 -0.2807,0.01 -0.4395,0 h -0.1172 c -0.4644,-0.026 -2.1208,-0.085 -3.8379,-0.4688 l -0.5566,-0.1465 c 0.1996,0.056 -0.2304,-0.01 -1.2451,-0.3955 -0.4891,-0.1874 -1.1626,-0.4864 -1.919,-0.9521 -0.7682,-0.473 -1.6332,-1.1274 -2.4462,-2.0215 -0.073,-0.081 -0.1489,-0.1662 -0.2198,-0.249 -0.6704,-0.7839 -1.2389,-1.6818 -1.6845,-2.6953 -0.4444,-1.0105 -0.7248,-2.0495 -0.8497,-3.0616 -0.247,-2.0024 0.097,-3.7165 0.5274,-4.9511 0.036,-0.103 0.079,-0.179 0.1172,-0.2784 0.1235,-0.6485 0.2889,-1.2743 0.5127,-1.8603 0.076,-0.1997 0.161,-0.3912 0.249,-0.5859 0.5152,-1.1402 1.1543,-2.0588 1.7725,-2.7686 0.6009,-0.69 1.189,-1.1936 1.6113,-1.5234 0.8616,-0.6729 1.2501,-0.8636 1.0254,-0.7178 0.1576,-0.1023 0.3207,-0.1991 0.4834,-0.293 1.3136,-0.7579 2.5972,-1.25 3.0322,-1.4209 0.031,-0.012 0.071,-0.017 0.1025,-0.029 1.5821,-0.6044 3.1313,-1.1068 4.4385,-1.5234 0.01,0 0.02,-0.012 0.029,-0.015 2.8591,-0.9024 5.7145,-1.735 8.4668,-2.5634 4.3316,-1.3021 8.566,-2.5961 12.6856,-4.0137 2.2497,-0.7782 4.3262,-1.5394 6.2988,-2.3877 1.0345,-0.4487 1.773,-0.812 2.4463,-1.1865 0.1414,-0.1525 0.3075,-0.344 0.7177,-0.9375 0.8145,-1.1894 1.5193,-2.4299 2.6075,-4.292 h 0.015 c 0.6524,-1.1142 1.5568,-2.6725 2.6221,-4.2041 0.01,-0.014 0.02,-0.03 0.029,-0.044 0.3284,-0.4676 0.8334,-1.1068 1.4062,-1.7871 0.3075,-0 0.6159,-0.016 0.9229,-0.015 0.9044,0.061 1.6835,-0.1933 2.3437,-0.6592 0.1145,-0 0.2294,-0.012 0.337,-0.015 0.059,-0 0.1157,0 0.1757,0 1.976,-0.039 3.3625,-0.6498 4.1748,-1.4941 0.04,0 0.077,0.012 0.1172,0.015 0.872,0.04 1.7491,0.065 2.6221,0.073 0.5191,0.01 1.0484,0.01 1.5674,0.015 0.284,6e-4 0.5656,0 0.8496,0 0.5347,-0.01 1.0617,0 1.5967,0 h 1.3769 0.6299 0.4395 1.5087 c 0.4254,-2e-4 0.8495,0 1.2745,0 0.03,4e-4 0.072,-4e-4 0.1025,0 1.5236,0.016 2.6998,-0.3162 3.5449,-0.8496 0.2598,0.047 0.4996,0.099 0.7617,0.1465 8.0357,1.4429 16.1031,2.8036 24.2139,4.1309 12.4343,2.0295 24.8742,3.9487 37.3389,5.6836 1.7197,0.2386 3.4385,0.4428 5.1562,0.6738 7.1318,-0.9607 14.0438,-1.8862 20.8008,-2.8564 3.6151,-0.5233 6.7978,-0.982 10.0049,-1.5088 l 0.044,-0.015 c 1.5344,-0.2654 2.1144,-0.3433 2.7979,-0.5127 l -0.4834,0.1319 c -0.4747,0.1509 -1.5737,0.5263 -2.8418,1.4355 a 10.760564,10.760564 0 0 1 11.8359,-0.4394 c 1.247,-0.2145 2.549,-0.4148 3.8819,-0.5567 h 0.029 c 1.8093,-0.1875 4.0387,-0.3288 6.4599,-0.1318 0.012,10e-4 0.017,0 0.029,0 1.6993,0.1441 4.0394,0.4979 6.4746,1.5381 2.0302,0.8651 4.2549,2.28 6.0938,4.497 1.8523,2.222 2.8477,4.6931 3.3252,6.8848 v 0.029 c 0.3182,1.4801 0.4564,3.0082 0.4101,4.541 -0.01,0.2396 -0.021,0.4792 -0.044,0.7178 -0.139,1.4285 -0.5223,2.7062 -1.0401,3.8232 -0.5105,1.1015 -1.1295,2.0136 -1.7285,2.7246 -1.159,1.3759 -2.4184,2.2558 -3.3398,2.7979 -0.027,0.016 -0.061,0.028 -0.088,0.044 -1.3867,0.7996 -2.7067,1.2704 -3.7354,1.5674 -0.9989,0.2885 -1.9109,0.4741 -2.4316,0.5713 -0.062,0.012 -0.1135,0.019 -0.1758,0.029 -3.2165,0.5418 -6.3104,0.6048 -8.7012,0.6299 -0.02,2e-4 -0.039,-10e-5 -0.059,0 -3.6614,0.018 -7.2546,-0.1444 -10.6788,-0.3516 h -0.015 c -2.8628,-0.1773 -5.7095,-0.3945 -8.54,-0.6445 -1.0407,0.7753 -2.0588,1.4124 -2.9444,1.8603 -1.0388,0.5255 -2.0182,0.9158 -2.7099,1.1866 -0.038,0.015 -0.079,0.03 -0.1172,0.044 -2.6655,1.0085 -5.2901,1.672 -7.5586,2.1973 -0.012,0 -0.018,0.012 -0.029,0.015 -0.1086,0.025 -0.2138,0.049 -0.3223,0.073 -3.3318,0.7487 -6.6655,1.3271 -10.0781,1.8457 h -0.029 c -5.4498,0.8202 -10.9483,1.4594 -16.6553,2.0215 -8.0525,0.7866 -16.2031,1.3907 -24.6533,1.9043 -5.2697,0.3177 -10.6377,0.5951 -16.0547,0.8349 -3.1251,0.7307 -6.2545,1.4285 -9.4189,2.1094 -7.4329,1.5943 -14.6382,2.9701 -21.8555,3.9844 h -0.015 c -5.5137,0.7695 -10.8738,1.3135 -16.2158,1.5088 h -0.015 c -1.1061,0.039 -2.2032,0.067 -3.2959,0.073 z" />
    <path
       style="fill:#010101;stroke-width:0.37795276;stroke:none"
       d="M 425.64012,711.63202 372.55319,589.14137"
       id="path26"
       inkscape:path-effect="#path-effect27"
       inkscape:original-d="M 425.64012,711.63202 372.55319,589.14137" />
    <path
       style="fill:#010101;fill-rule:nonzero;stroke:none;stroke-width:0.377953"
       inkscape:original-d="m 3023.3352,1272.4629 c -80.1104,13.6152 -290.0644,-32.7526 -329.9907,7.1737"
       inkscape:path-effect="#path-effect28;#path-effect29"
       d="m 3021.5419,1261.8528 c -4.0381,0.6825 -9.7972,1.4589 -18.6741,1.9668 -8.563,0.4779 -17.5899,0.575 -27.928,0.3881 -2.0605,-0.039 -4.1435,-0.089 -6.2411,-0.1498 -10.1177,-0.2916 -21.0843,-0.8315 -34.8875,-1.7258 -20.5054,-1.3403 -38.6701,-2.8815 -62.6146,-4.7922 -18.892,-1.507 -39.5084,-3.1099 -60.0195,-4.1681 -13.4724,-0.6872 -27.2611,-1.1697 -41.1577,-1.104 -10.1238,0.057 -20.1676,0.3951 -30.1807,1.3078 -0,4e-4 -0.01,8e-4 -0.014,0 -7.479,0.6914 -14.668,1.6726 -21.7003,3.1983 -0.01,0 -0.016,0 -0.023,0.01 -6.6557,1.4594 -12.7122,3.2922 -18.3751,5.8696 -0.01,0 -0.018,0.01 -0.027,0.012 -6.2542,2.8676 -10.663,6.0727 -13.9546,9.3566 a 10.760564,10.760564 90 0 0 15.1998,15.2356 c 1.3477,-1.3445 3.5974,-3.1354 7.7108,-5.0231 3.8782,-1.7651 8.3917,-3.1868 14.0441,-4.4269 5.928,-1.286 12.2081,-2.1599 19.0998,-2.7972 9.2095,-0.8391 18.6025,-1.1638 28.3317,-1.2185 13.3393,-0.063 26.6946,0.4002 39.9438,1.0759 20.1699,1.0407 40.5144,2.621 59.4104,4.1282 23.8244,1.9012 42.2165,3.4611 62.9287,4.815 13.9878,0.9062 25.2219,1.4613 35.665,1.7623 2.1648,0.062 4.3183,0.1143 6.4623,0.155 10.7058,0.1936 20.2899,0.098 29.534,-0.4183 0,-3e-4 0.01,-5e-4 0.014,-8e-4 9.667,-0.5528 16.2153,-1.4177 21.0391,-2.233 a 10.760564,10.760564 90 0 0 -3.5866,-21.2202 z"
       id="path-1-9" />
    <path
       style="fill:#010101;stroke-width:0.37795276;stroke:none"
       d="M 373.03291,647.54688 342.19024,588.86146"
       id="path29"
       inkscape:path-effect="#path-effect30"
       inkscape:original-d="M 373.03291,647.54688 342.19024,588.86146" />
    <path
       style="fill:#010101;fill-rule:nonzero;stroke:none;stroke-width:0.377953"
       inkscape:original-d="m 2785.8308,1268.1914 c 1.0009,0.6401 -83.7748,0.8233 -80.5697,4.0284 2.6856,2.6857 9.3998,1.3429 12.0854,4.0285"
       inkscape:path-effect="#path-effect31;#path-effect32"
       d="m 2783.3482,1273.7006 c -0.4752,-0.2141 -1.2268,-0.6267 -1.9374,-1.3912 -0.3455,-0.3717 -0.6859,-0.8322 -0.9668,-1.3885 -0.2731,-0.5411 -0.4693,-1.1324 -0.5702,-1.7565 -0.097,-0.6014 -0.098,-1.1807 -0.03,-1.7169 0.065,-0.5158 0.1903,-0.9743 0.3378,-1.3669 0.2772,-0.7384 0.651,-1.295 0.9598,-1.6759 0.5562,-0.6863 1.1772,-1.1454 1.7076,-1.4457 0.269,-0.1523 0.5957,-0.3098 0.9782,-0.4435 0.1368,-0.048 0.3059,-0.1014 0.5037,-0.1516 0.3168,-0.079 0.5508,-0.1029 0.6083,-0.1086 0.057,-0.01 0,-0 -0.1931,0.015 -0.7399,0.052 -1.5185,0.075 -2.6301,0.1133 -2.3655,0.074 -4.6936,0.1234 -7.2633,0.1783 -6.4971,0.1347 -11.3123,0.2204 -17.8131,0.3552 -7.5613,0.1582 -15.2927,0.3374 -23.0383,0.5886 -4.5007,0.1477 -9.0366,0.3182 -13.5831,0.5525 -2.7163,0.1421 -5.4405,0.3039 -8.1759,0.5309 -0,3e-4 -0.01,7e-4 -0.013,10e-4 -1.6295,0.1388 -3.3371,0.2987 -5.0749,0.5547 -0.019,0 -0.038,0.01 -0.057,0.01 -0.6999,0.11 -1.8914,0.286 -3.1194,0.6812 -0.055,0.018 -0.1095,0.036 -0.1639,0.055 -0.062,0.022 -0.4025,0.1386 -0.7711,0.3059 -0.4227,0.192 -1.0052,0.5 -1.6134,1.0024 -0.023,0.019 -0.047,0.039 -0.07,0.059 -0.4227,0.36 -0.9931,0.9396 -1.4573,1.784 -0.1983,0.3608 -0.3883,0.7904 -0.5308,1.2861 -0.04,0.1382 -0.076,0.2822 -0.1076,0.432 -0.1481,0.7003 -0.1886,1.4917 -0.046,2.3268 0,0.021 0.01,0.042 0.011,0.063 0.1427,0.7873 0.4189,1.4537 0.7231,1.9873 0.291,0.5102 0.5989,0.884 0.8081,1.1158 0.4299,0.4766 0.561,0.5721 0.3016,0.31 l 0.172,0.167 c 1.0533,0.9834 2.1902,1.6148 3.1508,2.0305 1.1614,0.5014 2.2674,0.7816 3.1161,0.9632 0,9e-4 0.01,0 0.012,0 1.2552,0.266 2.6016,0.4402 3.4144,0.5588 0.9184,0.1342 1.4897,0.2305 1.9953,0.3575 0.3931,0.1003 0.5289,0.1707 0.5193,0.1656 -0.062,-0.033 -0.2018,-0.1205 -0.3702,-0.2891 a 6.0427277,6.0427277 90 0 0 8.5506,-8.5408 c -0.6624,-0.6631 -1.5023,-1.3131 -2.5607,-1.8695 -1.084,-0.5688 -2.1641,-0.9257 -3.1682,-1.1808 -0,-0 -0.01,-0 -0.012,-0 -1.1557,-0.2912 -2.2603,-0.46 -3.208,-0.5985 -1.1145,-0.1626 -1.8884,-0.2609 -2.6491,-0.4218 -0.4784,-0.1026 -0.7201,-0.184 -0.8444,-0.2377 -0.051,-0.022 0.067,0.01 0.3015,0.229 0.058,0.054 0.1157,0.1102 0.1719,0.167 -0.33,-0.3335 -0.2808,-0.306 0.081,0.095 0.1745,0.1935 0.4513,0.527 0.7173,0.9934 0.279,0.4895 0.5365,1.1085 0.6698,1.8436 0,0.021 0.01,0.042 0.011,0.063 0.1349,0.7923 0.096,1.5422 -0.044,2.2029 -0.03,0.1411 -0.064,0.2767 -0.1012,0.4064 -0.1338,0.4653 -0.3111,0.8652 -0.4935,1.1969 -0.4254,0.7739 -0.9381,1.2889 -1.2974,1.5949 -0.023,0.02 -0.046,0.039 -0.07,0.059 -0.4525,0.3738 -0.8562,0.5794 -1.0866,0.684 -0.2204,0.1001 -0.2934,0.1182 -0.1947,0.083 l -0.1638,0.055 c 0.1835,-0.059 0.44,-0.1122 1.2632,-0.2418 1.323,-0.195 2.7226,-0.3299 4.3039,-0.4645 2.5541,-0.2119 5.136,-0.3661 7.7966,-0.5052 4.4348,-0.2286 8.8865,-0.3962 13.3504,-0.5426 7.6736,-0.2489 15.3504,-0.427 22.8974,-0.5849 5.4809,-0.1149 12.3337,-0.2403 17.8143,-0.3552 2.5672,-0.055 4.9575,-0.1058 7.3955,-0.1818 0.01,-2e-4 0.013,-4e-4 0.02,-6e-4 1.0179,-0.035 2.0612,-0.065 3.1563,-0.1421 0.063,-0 0.1253,-0.01 0.1878,-0.016 -0.084,0.01 0.02,0 0.2674,-0.023 0.2423,-0.024 0.6493,-0.073 1.1333,-0.1945 0.216,-0.053 0.3998,-0.1113 0.5469,-0.1627 0.3861,-0.1349 0.7165,-0.2942 0.9892,-0.4485 0.5381,-0.3047 1.1659,-0.7693 1.7269,-1.4615 0.3113,-0.3841 0.687,-0.9438 0.9655,-1.6854 0.148,-0.3942 0.2738,-0.8543 0.3389,-1.3717 0.068,-0.5379 0.067,-1.1188 -0.03,-1.7217 -0.1012,-0.6257 -0.2978,-1.2186 -0.5718,-1.7612 -0.2816,-0.5579 -0.6231,-1.0199 -0.9699,-1.393 -0.7134,-0.7676 -1.469,-1.1828 -1.9493,-1.3992 a 6.0427277,6.0427277 90 0 0 -4.9652,11.0184 z"
       id="path-1-3" />
    <path
       style="fill:#010101;stroke-width:2.83465"
       id="path32"
       d="m 2744.8906,1276.2339 c 23.4395,-6e-4 46.8791,-5e-4 70.3186,-5e-4 12.7155,10e-5 25.431,3e-4 38.1465,6e-4 12.0295,-10e-5 24.059,-3e-4 36.0886,-3e-4 9.4683,0 18.9366,3e-4 28.405,2e-4 12.7495,-0.091 25.5022,0.3345 38.2302,-0.4822 8.5535,-0.9879 18.4532,-0.444 25.1708,-6.663 2.8037,-4.7723 2.6264,-10.9416 1.78,-16.2522 -2.0694,-8.372 -6.0646,-16.2011 -9.715,-23.9824 -3.7568,-9.2516 -7.843,-18.3525 -11.8451,-27.5026 -1.1333,-2.6085 -0.6142,-1.4092 -1.5587,-3.5973 -0.01,-0.015 0.015,-0.03 0.023,-0.01 v 0 c 0.9445,2.1879 0.4252,0.9886 1.5589,3.5971 4.0022,9.1497 8.0883,18.2504 11.8449,27.5018 3.6516,7.7837 7.6478,15.6154 9.7172,23.9901 0.8472,5.3202 1.0246,11.4991 -1.7889,16.2778 -6.7243,6.2231 -16.6264,5.6845 -25.1884,6.6711 -12.7287,0.8168 -25.4819,0.3907 -38.2321,0.4815 -9.4683,0 -18.9366,2e-4 -28.405,2e-4 -12.0296,0 -24.059,-10e-5 -36.0886,-2e-4 -12.7155,2e-4 -25.431,4e-4 -38.1465,5e-4 -23.4395,10e-5 -46.879,10e-5 -70.3186,-5e-4 -0.023,0 -0.023,-0.03 0,-0.03 z" />
    <path
       style="fill:#010101;stroke-width:2.83465"
       id="path33"
       d="m 2747.4735,1265.9848 c 11.9331,-0.3367 23.8746,-0.2752 35.8115,-0.2392 7.6002,0.01 15.1993,0.2377 22.7993,0.174 9.2402,-0.1403 18.4814,-0.1493 27.7217,-0.037 5.4618,0.1387 10.9235,0.075 16.3854,0 7.8051,-0.075 15.6103,-0.06 23.4146,0.067 20.672,-0.089 24.1597,22.8108 4.8707,30.2832 -7.759,2.1757 -15.8914,2.2707 -23.8921,2.418 -7.8425,0.086 -15.6841,0.037 -23.5266,0.1327 -14.2536,0.1883 -28.5093,0.1868 -42.7632,0.038 -5.7389,-0.092 -11.4785,-0.1207 -17.2164,-0.2692 -6.0213,0.075 -12.0456,0.207 -18.069,0.2647 -10.1232,0.231 -20.1359,0.48 -29.7968,-2.8817 -2.4538,-1.2187 -4.8754,-1.0888 -7.5457,-1.2335 -2.8965,-0.1087 -5.8122,-0.092 -8.6994,-0.2505 -0.6832,-31.0298 -6.59,-28.4112 10.0337,-28.4922 2.9077,-0.1927 7.7118,-1.8636 12.2493,-2.7194 9.1231,-2.6072 18.5709,-3.7648 27.9931,-4.6348 4.925,-0.4238 9.8643,-0.6675 14.8076,-0.6615 6.4095,-0.082 12.8181,-0.1868 19.228,-0.2423 8.8804,-0.023 17.7615,0.022 26.6405,0.1965 0.5722,0.015 2.2777,-0.075 1.7169,0.037 -7.6752,1.5713 1.4629,-1.767 3.3184,-2.3865 7.9497,-1.7512 16.1604,-1.6467 24.2603,-1.7363 5.2234,0.06 10.4431,0.053 15.6661,-0.022 11.214,-0.1463 22.4294,-0.1238 33.6441,-0.1095 7.4506,0.03 14.9019,0.083 22.3516,0.2077 3.3019,0.105 6.6053,0.01 9.9078,-0.023 5.7791,-0.053 11.559,-0.053 17.338,0.023 4.7779,0.053 9.556,-0.037 14.3343,-0.053 4.2998,0.01 8.5992,0.023 12.8983,0.1088 6.1245,-0.1815 12.1907,-0.1335 18.3054,0.3157 10.7266,0.8565 21.2372,2.5332 31.59,5.4539 5.3359,1.6294 10.9158,1.8118 16.4427,2.0836 6.9546,0.1365 13.8364,-0.1065 20.7304,0.8745 8.0799,1.9496 10.5041,4.4763 15.7523,10.9203 9.1131,17.9578 -16.2831,30.8457 -25.3962,12.8879 v 0 c 0.03,0.03 4.0576,5.1336 4.4641,4.3803 -5.1622,-0.3143 -11.2647,-0.1665 -16.7977,-0.372 -7.6656,-0.2963 -15.3443,-0.9149 -22.7593,-3.0185 -8.7742,-2.2893 -17.6215,-3.5769 -26.6625,-4.3815 -5.2045,-0.6307 -10.43,-0.6292 -15.6692,-0.648 -4.2991,0.088 -8.5985,0.1 -12.8983,0.1088 -4.7783,-0.015 -9.5564,-0.1013 -14.3343,-0.053 -5.7789,0.075 -11.5587,0.075 -17.3378,0.023 -3.3024,-0.038 -6.606,-0.1305 -9.9078,-0.023 -7.4515,0.1245 -14.9046,0.1807 -22.3569,0.2055 -11.2258,0.01 -22.4526,0.03 -33.6774,-0.141 -5.0877,-0.085 -10.1721,-0.1478 -15.2594,0.023 -5.6227,0.082 -11.2436,0.24 -16.8623,0.468 1.4493,-1.3386 -3.515,1.8597 -5.4161,2.3868 -4.0451,1.1214 -4.4034,1.0364 -7.3931,1.1037 -8.8855,0.1673 -17.7732,0.2093 -26.6599,0.1703 -6.2237,-0.067 -12.4457,-0.1875 -18.6687,-0.282 -4.1687,0.1867 -8.3396,0.4185 -12.4879,0.8805 -8.6681,0.93 -17.3363,2.0034 -25.8005,4.1663 -5.7925,0.9305 -11.3425,3.397 -17.3113,3.1161 -16.7469,-0.1013 -10.9891,2.4558 -10.2604,-28.5418 3.471,-0.3712 7.0195,0.1095 10.4949,0.067 5.3385,0.2903 10.6532,0.873 15.6498,2.9088 6.179,2.6554 13.712,-0.3998 20.1412,0.7668 6.0236,0.06 12.0482,0.1897 18.0698,0.264 5.7401,-0.1485 11.4819,-0.1763 17.2231,-0.2648 14.2599,-0.141 28.5218,-0.1342 42.7811,0.078 7.6418,0.1103 15.2825,0.1185 22.9243,-0.015 5.0994,-0.111 10.2059,-0.1402 15.283,-0.6787 -4.4608,6.7475 -10.9698,11.508 -3.4384,20.2537 2.6189,3.0411 7.3636,3.2157 10.903,5.1079 0.926,0.495 -4.944,-0.6247 -3.1492,0.067 -7.8043,0.1283 -15.6095,0.1425 -23.4146,0.068 -5.4619,-0.076 -10.9236,-0.1402 -16.3854,0 -9.2403,0.114 -18.4815,0.105 -27.7217,-0.038 -7.6,-0.06 -15.1991,0.1673 -22.7993,0.174 -11.9369,0.037 -23.8784,0.097 -35.8115,-0.2392 -20.212,0 -20.212,-28.584 0,-28.584 z" />
    <path
       id="path34"
       style="fill:#010101;stroke-width:2.83465"
       d="m 2786.3977,1310.0034 c -1.0341,-0.069 -2.0784,-0.07 -3.1201,-0.073 -3.1673,-0.023 -6.3249,-0.036 -9.4922,-0.029 -2.7507,0 -5.5111,-0.014 -8.2617,-0.044 l -2.5195,-0.029 h -1.6114 c -0.4718,-0.01 -0.9489,0.015 -1.4209,0.015 -0.3304,-0.045 -0.6688,-0.01 -1.0107,0.015 0.012,-0.012 0.046,-0.011 0.044,-0.029 -0.023,-0.2369 -0.4488,-0.1544 -0.6738,-0.2344 -2.5163,-1.0495 -5.1691,-1.7602 -7.793,-2.4902 -1.054,-0.3311 -2.1229,-0.552 -3.208,-0.7325 -0.2965,-0.292 -0.5995,-0.5848 -0.8935,-0.8789 -1.6279,-1.6937 -2.2223,-1.4046 -5.6397,-3.1787 -0.948,-0.181 -1.9091,-0.2429 -2.8711,-0.2929 -0.195,-0.01 -0.3909,-0.02 -0.5859,-0.029 h -1.5234 c -0.229,0 -0.4595,-0.012 -0.6885,-0.015 -0.272,0 -0.5337,0.014 -0.8057,0.015 -0.6735,0 -1.3485,-8e-4 -2.0215,0.015 -1.9134,0.012 -3.8288,0.01 -5.7422,0.015 h -1.1279 c -0.014,-0.01 -0.03,-0.01 -0.044,-0.015 l -0.015,-0.015 c -0.4561,-0.6712 -0.9647,-1.4609 -1.5381,-2.4024 -1.4987,-0.8071 -3.1022,-1.1646 -4.7607,-1.3916 -0.248,-0.04 -0.4981,-0.072 -0.7471,-0.1025 h -0.1318 c -2.0311,-0.1966 -3.4153,-0.096 -4.336,0.2197 -0.2396,-0.3634 -0.4779,-0.7307 -0.7031,-1.1133 -3.3398,-6.9409 -1.6909,-11.1678 0.4395,-18.4131 7.8609,-13.0533 23.7249,-7.8075 26.4844,2.9883 1.4187,0.4472 2.0851,0.5891 6.3134,1.0108 4.7365,1.1022 9.4158,2.7238 13.1397,5.9912 0.4344,0.4253 1.374,1.1347 2.0654,1.6992 0.5975,0.4016 1.1672,0.8207 1.6113,1.3769 0.01,0.011 0.021,0.019 0.029,0.029 1.5009,0.7532 2.9196,1.504 4.2041,2.3145 4.1434,-3e-4 8.2932,-0.1378 12.4366,-0.015 9.6654,0 14.6746,6.5386 15.0878,13.3594 -0.015,-10e-5 -0.029,2e-4 -0.044,0 -0.261,-0 -0.5154,0 -0.7764,0 -0.6293,0.2581 -1.1542,0.4696 -1.5966,0.6885 -0.094,0 -0.1842,2e-4 -0.2784,0 -0.099,-4e-4 -0.1929,10e-4 -0.2929,0 -0.129,0 -0.2665,4e-4 -0.3955,0 -0.8781,-0.048 -1.6273,0.2237 -2.2266,0.6885 -0.112,-0 -0.2249,-9e-4 -0.3369,0 -0.149,4e-4 -0.2905,0 -0.4395,0 -0.9317,0.4231 -1.6456,0.7375 -2.1826,1.084 z m -18.8086,-11.1036 c 0.032,0.034 -0.1283,-0.3567 -0.5273,-1.333 -0.2102,-0.3175 -0.3824,-0.6715 -0.5567,-1.0254 -0.086,-0.041 -0.1803,-0.092 -0.2636,-0.1318 0.8008,1.4003 1.2984,2.4377 1.3476,2.4902 z" />
    <path
       id="path35"
       style="fill:#010101;stroke-width:2.83465"
       d="m 2931.344,1314.8373 c -4.058,-0.023 -8.1166,-0.077 -12.1729,-0.205 -7.5029,-0.3179 -15.336,-0.4898 -22.1484,-3.9258 -0.7131,0.011 -1.4255,0.032 -2.1387,0.044 -6.6324,0.068 -13.2602,0.011 -19.8925,-0.059 -3.8712,-0.015 -7.7452,-10e-4 -11.6163,-0.029 -2.2021,-0.038 -4.4037,-0.029 -6.6064,-0.029 -3.8199,0.079 -7.6345,0.083 -11.4551,0.1026 -4.1289,0.01 -8.2652,-0.041 -12.3926,-0.1465 -0.6168,0.01 -1.228,0.013 -1.8457,0.015 -0.084,0.1041 -0.1769,0.2053 -0.2636,0.3077 -0.698,-1.1364 -2.2639,-2.0136 -4.7022,-1.9922 -0.206,0 -0.4239,-4e-4 -0.6299,0 -0.4355,10e-5 -0.8687,0 -1.3037,0 -0.421,0 -0.3236,-0.01 -0.2636,0 -0.187,-0.01 -0.3707,-0.039 -0.5567,-0.059 -0.5444,-0.06 -1.089,-0.138 -1.626,-0.249 -1.2452,-0.223 -2.493,-0.4363 -3.7646,-0.3663 -0.698,0 -1.3967,-0.01 -2.0947,-0.015 -0.185,-7e-4 -0.3717,0 -0.5567,0 h -0.3955 c -0.4481,0.011 -0.8996,0.011 -1.3476,0.015 -0.4705,0.011 -0.9432,0.02 -1.4063,0.1026 -3.0093,-3.2698 -7.5155,-3.6003 -11.0742,-0.791 -0.1457,-0 -0.2869,-0.017 -0.4395,-0.015 -1.0371,0.011 -2.0829,0.014 -3.1201,0.015 -0.869,0 -1.7384,-0.01 -2.6074,-0.015 -0.261,-0 -0.5154,0 -0.7764,0 -0.6293,0.2581 -1.1542,0.4696 -1.5966,0.6885 -0.094,0 -0.1842,2e-4 -0.2784,0 -0.099,-4e-4 -0.1929,10e-4 -0.2929,0 -0.129,0 -0.2665,4e-4 -0.3955,0 -0.8781,-0.048 -1.6273,0.2237 -2.2266,0.6885 -0.112,-0 -0.2249,-9e-4 -0.3369,0 -0.149,4e-4 -0.2905,0 -0.4395,0 -0.9581,0.4351 -1.6846,0.7552 -2.2265,1.1133 -1.0216,-0.071 -2.0474,-0.1 -3.0762,-0.1026 -3.1673,-0.023 -6.3249,-0.036 -9.4922,-0.029 -0.478,0 -0.9571,-0.014 -1.4355,-0.015 0.7474,-4.7679 3.9732,-9.2493 10.415,-11.3965 3.7244,-1.3482 7.4789,-2.568 11.3232,-3.5156 2.5637,-0.5212 5.1721,-0.6572 7.7784,-0.7471 1.0422,-0.033 2.0929,-0 3.1347,0.015 0.8159,-0.8035 2.1157,-1.9894 4.8047,-4.2334 0.6548,-0.5463 1.4888,-0.9941 2.3584,-1.3916 0.6411,-0.7522 1.5038,-1.2899 2.2559,-1.9336 3.6022,-2.8552 8.0508,-3.9868 12.539,-4.4091 2.0624,-0.1702 4.1294,-0.1777 6.1963,-0.1319 4.0541,-0.068 8.1178,-0.1115 12.1729,-0.1025 3.816,0.023 7.625,0.023 11.4404,0.1025 2.2023,-7e-4 4.4048,0.011 6.6064,-0.029 3.8713,-0.03 7.745,-0.014 11.6163,-0.029 6.6322,-0.068 13.2601,-0.1212 19.8925,-0.059 5.9429,-0.3668 11.6801,1.0204 16.67,4.3213 -4.5464,-2.1416 7.8569,-0.4401 8.7304,-0.4101 7.7352,0.1417 15.4813,0.085 23.2178,0.1025 5.6173,0.068 11.2282,0.036 16.8457,0.059 4.4594,0.01 8.9147,0.01 13.374,0.029 5.3356,0.015 10.6747,-0.1036 16.0108,-0.088 5.3079,0.023 10.6148,0.074 15.9228,0.044 4.9936,0.037 9.9918,-0.01 14.9854,0.015 h 2.5195 c 20.2579,0 20.2579,28.6377 0,28.6377 h -2.5195 c -4.9936,0.023 -9.9918,-0.023 -14.9854,0.015 -5.3081,-0.03 -10.6148,0.01 -15.9228,0.029 -5.3356,0.022 -10.6611,-0.086 -15.9961,-0.073 -4.4514,0.023 -8.9078,0.014 -13.3594,0.029 -5.6196,0.037 -11.2414,0.017 -16.8603,0.1025 -4.0577,0.015 -8.1149,0.023 -12.1729,0 z m -123.0176,-20.7129 c 0.017,2e-4 0.066,-0.044 0.1319,-0.1318 0.6083,-0.8075 1.1408,-1.665 1.6845,-2.5195 -0.1232,0.097 -0.2105,0.1488 -0.3369,0.249 -0.6037,0.4791 -1.5984,2.4013 -1.4795,2.4023 z m 8.0713,-7.0751 c 2.0712,-0.7357 2.2491,-1.32 0,0 z" />
    <path
       id="path36"
       style="fill:#010101;stroke-width:2.83465"
       d="m 3043.2581,1314.7641 c -1.8297,-0.051 -3.6568,-0.4442 -5.3467,-1.1719 2.9223,-5.3825 -0.7264,-12.5571 -10.9131,-13.4472 -0.4416,-0.6286 -0.8424,-1.2198 -1.333,-1.919 0.1239,0.6308 0.2566,1.2565 0.4541,1.8457 -0.5625,-0.028 -1.1436,-0.04 -1.7432,-0.029 -1.5051,0.025 -3.0067,0.028 -4.5117,0.044 -12.7704,-8.8496 -3.7322,-30.6044 13.6377,-24.8145 5.943,1.5204 11.0478,3.9822 15.4541,8.3496 0.6239,0.7487 1.1931,1.539 1.6992,2.3438 4.7397,2.8903 6.7887,6.24 7.1924,12.8759 0.6466,10.6548 -7.0448,16.1334 -14.5898,15.9229 z m 0.6884,-32.0947 c -0.034,-0.039 -0.069,-0.078 -0.1025,-0.1172 -0.1662,-0.041 -0.2206,-0.056 -0.3662,-0.088 0.1587,0.067 0.3132,0.139 0.4687,0.2051 z" />
  </g>
  <path
     style="fill:#010101;stroke-width:0.283465"
     id="path48"
     d="m 287.41876,437.99189 c 0.0238,0.0121 0.0544,0.057 0.0715,0.0364 0.008,-0.009 -0.10365,-0.1 -0.26876,-0.24259 -1.56737,-1.28871 -3.38988,0.92788 -1.82252,2.2166 v 0 c 0.1262,0.11404 0.29937,0.27292 0.43538,0.36617 1.68052,1.12035 3.26493,-1.25627 1.58441,-2.37662 z" />
  <path
     style="fill:#010101;stroke-width:0.283465"
     id="path49"
     d="m 288.01474,437.5975 c -0.29575,-0.0114 -0.59167,-0.0101 -0.88745,-0.002 -0.0355,1.4e-4 -0.071,2.8e-4 -0.10638,4.3e-4 -2.02271,0 -2.02271,2.86053 0,2.86053 v 0 c 0.0355,1.5e-4 0.0709,2.9e-4 0.10638,4.2e-4 0.29578,0.009 0.5917,0.01 0.88745,-0.002 2.02119,0 2.02119,-2.8584 0,-2.8584 z" />
  <path
     style="fill:#010101;stroke-width:0.283465"
     id="path50"
     d="m 256.12819,441.06118 c 0.23689,0.007 0.47415,0.005 0.71107,-7.5e-4 0.0859,-0.005 0.17145,-0.006 0.25733,-0.005 0.0644,-0.003 0.12866,-7.5e-4 0.19308,4e-5 0.0669,-0.003 0.1335,-7e-4 0.20034,9e-5 0.10779,-0.002 0.21551,0.003 0.32333,0.003 0.13708,0.007 0.27419,-0.005 0.41122,-0.002 0.11026,-7.5e-4 0.22041,0.002 0.33067,-10e-4 0.30535,0.0107 0.60886,-0.0487 0.91078,-0.0896 0.38805,-0.0509 0.75059,-0.21662 1.13281,-0.2903 0.3735,0.005 0.75101,-0.0826 1.11708,-0.15558 0.25482,-0.0491 0.51528,-0.0466 0.77356,-0.0558 0.22109,-0.004 0.44202,-0.0112 0.66315,-0.009 0.0299,-2.3e-4 0.1196,0.002 0.0898,-6.9e-4 -0.34474,-0.038 -0.42337,-0.0792 -0.0789,0.0616 0.54569,0.17211 1.10818,0.16408 1.66647,0.0697 0.19453,-0.0409 0.38355,-0.1011 0.58092,-0.12413 0.17787,-0.012 0.35773,-0.002 0.53611,-2.9e-4 0.29197,-0.006 0.58385,-0.004 0.8757,0.006 0.64778,0.0123 1.29395,-0.0675 1.93556,-0.14905 0.25415,-0.0377 0.50899,-0.0515 0.76511,-0.0628 0.35165,0.007 0.69912,0.006 1.04988,-0.0231 0.32145,-0.05 0.63234,-0.13997 0.9584,-0.15069 0.32985,-0.009 0.65984,-0.0125 0.98974,-0.0203 0.0278,-6.6e-4 -0.0557,0.002 -0.0834,0.002 0.0379,0.0868 -0.44187,-0.19476 -0.30414,-0.12641 0.4162,0.20654 0.40228,0.19791 0.24235,0.14044 0.29837,0.20243 0.64298,0.28838 0.99282,0.34627 0.15491,0.0189 0.31068,0.0262 0.46653,0.0308 2.02164,0.0709 2.122,-2.78805 0.10037,-2.85903 v 0 c -0.0648,-0.003 -0.12974,-0.003 -0.19439,-0.009 0.17388,0.0956 0.33072,0.16271 0.007,-0.0125 -0.0689,-0.0335 -0.2371,-0.17088 -0.20667,-0.10057 0.0333,0.077 0.13908,0.0971 0.21777,0.12623 0.0604,0.0223 -0.10605,-0.0731 -0.1617,-0.10548 -0.22131,-0.12849 -0.46158,-0.2142 -0.71196,-0.26606 -0.51924,-0.0611 -1.03913,-0.0585 -1.56094,-0.0184 -0.3623,0.0331 -0.72091,0.0847 -1.07744,0.15758 -0.23763,0.089 -0.53647,-0.0157 -0.78513,0.0276 -0.33235,0.001 -0.66429,0.0233 -0.99567,0.0475 -0.54802,0.0414 -1.09414,0.11428 -1.64179,0.14276 -0.29341,0.009 -0.58679,0.0104 -0.88028,0.004 -0.27825,0.004 -0.55676,0.007 -0.83421,0.0302 -0.26621,0.0271 -0.528,0.0774 -0.78892,0.136 -0.0273,0.006 -0.0582,0.003 -0.0819,0.0176 -0.0109,0.007 0.0496,0.01 0.0369,0.0104 -0.0869,0.005 -0.17504,-0.0173 -0.26105,-0.004 -0.0397,0.006 0.37172,0.15743 0.10978,0.0502 0.0292,0.0143 0.11652,0.0583 0.0878,0.043 -0.32389,-0.17289 -0.68207,-0.28109 -1.05288,-0.27638 -0.24543,7.5e-4 -0.49078,-0.008 -0.73621,-0.003 -0.40689,0.005 -0.81413,0.028 -1.21581,0.0966 -0.39374,0.0625 -0.78135,0.14277 -1.17872,0.17823 -0.33898,0.0697 -0.67573,0.1499 -1.00787,0.24753 -0.54366,0.0931 -0.15153,0.0913 -0.46617,0.0931 -0.11027,-0.003 -0.22041,-5.1e-4 -0.33068,-10e-4 -0.13702,0.003 -0.27414,-0.009 -0.41121,-0.002 -0.10782,1.3e-4 -0.21554,0.005 -0.32334,0.003 -0.0668,7.5e-4 -0.13347,0.003 -0.20034,8e-5 -0.0644,7.5e-4 -0.12862,0.003 -0.19308,4e-5 -0.0859,7e-4 -0.17144,5e-5 -0.25732,-0.005 -0.23693,-0.006 -0.47418,-0.007 -0.71108,-7.5e-4 -2.02119,0 -2.02119,2.8584 0,2.8584 z" />
  <path
     style="fill:#010101;stroke-width:0.283465"
     id="path51"
     d="m 254.48897,443.56075 c 0.78052,0.10914 1.55594,0.21839 2.32623,0.3909 0.41603,0.095 0.83427,0.18021 1.25666,0.24115 0.0392,0.0356 1.20749,0.0202 0.6625,0.0335 0.40002,0.16158 0.82084,0.24473 1.24823,0.28895 0.29165,0.0241 0.5845,0.0272 0.87691,0.0346 0.50415,0.0712 1.05159,-0.0922 1.54251,0.0518 0.31206,0.16082 0.67036,0.1617 0.9986,0.26193 0.45358,0.21452 1.35991,0.12701 1.76717,0.30486 0.21851,0.0943 0.42598,0.19608 0.65992,0.26743 0.22262,0.0566 0.44974,0.076 0.67819,0.0862 0.0537,0.002 0.21374,0.0159 0.16128,0.004 -0.59781,-0.1347 -0.10728,0.0445 -0.47458,-0.10077 0.0687,0.0671 -0.18587,-0.12696 -0.13906,-0.0957 0.51426,0.34318 0.82686,0.44764 1.43257,0.5042 0.36073,0.0198 0.87475,0.0281 1.14667,0.0537 0.0829,0.0701 0.43484,0.17692 0.6312,0.22528 0.43533,0.0866 0.88254,0.0778 1.32444,0.0737 0.54832,0.0287 1.05171,-0.20352 1.56346,-0.35492 0.6803,-0.22946 1.36961,-0.44027 2.07962,-0.55351 0.51862,-0.0665 1.0425,-0.0671 1.56439,-0.0794 0.53289,0.0119 1.05234,-0.1285 1.57683,-0.20445 0.34244,-0.055 0.68561,-0.0976 1.03139,-0.12249 0.5685,-0.0214 1.0686,-0.28282 1.58383,-0.48717 0.34481,-0.16889 0.70041,-0.1496 1.07779,-0.20164 0.56255,-0.0761 1.1179,-0.22025 1.68496,-0.26081 0.86879,0.0123 1.72805,-0.12276 2.58837,-0.22414 0.67293,-0.0828 1.35054,-0.10329 2.02743,-0.12453 0.22965,-0.008 0.45938,-0.0137 0.68899,-0.0226 1.12784,-0.421 0.63602,-0.14412 1.51421,-0.53762 0.35326,-0.18254 0.72471,-0.32694 1.09709,-0.46517 -0.30931,0.0768 0.69355,0.0263 0.74127,0.0262 0.43926,0.008 0.87853,0.004 1.31781,0.005 0.32024,-0.002 0.64048,7.5e-4 0.96072,-0.003 0.41755,0.0156 0.8222,-0.002 1.23683,-0.0575 0.42173,-0.078 0.81832,-0.21616 1.20455,-0.3975 1.75469,-0.98518 0.36143,-3.46669 -1.39326,-2.48151 v 0 c 0.52531,-0.22195 -0.20244,0.0525 -0.33363,0.0608 0.17455,0.0524 -0.68715,0.007 -0.71364,0.0209 -0.31777,-0.005 -0.63556,-0.001 -0.95334,-0.005 -0.4431,-0.002 -0.88617,-0.0102 -1.3293,-0.005 -0.55267,7.5e-4 -1.11288,-0.0163 -1.65061,0.13419 -0.47728,0.15034 -0.94715,0.32728 -1.39384,0.5541 -0.44401,0.21509 -2.11734,0.91347 -0.24109,0.3111 0.0106,-0.004 -0.0222,-7.5e-4 -0.0333,-10e-4 -0.25953,-0.0113 -0.5194,-0.0122 -0.77913,-0.0119 -0.76631,0.008 -1.53261,0.0416 -2.29491,0.12365 -0.8382,0.092 -1.67279,0.22009 -2.51667,0.24265 -0.63013,0.0626 -1.25652,0.15393 -1.87878,0.27195 -0.57463,0.11286 -1.17219,0.12569 -1.71018,0.38995 -0.17904,0.0739 -0.36231,0.17612 -0.54318,0.24512 -0.16046,0.0612 -0.34488,0.0759 10e-6,0.0492 0.0362,-0.003 -0.0724,0.002 -0.10869,0.002 -0.44209,0.0171 -0.88229,0.0641 -1.32026,0.12615 -0.63414,0.10205 -0.75608,0.20637 -1.16015,0.18284 -0.6674,-0.005 -1.33664,0.0105 -1.99881,0.10139 -0.86113,0.13856 -1.71003,0.34835 -2.52522,0.66256 -0.13093,0.0457 -0.26186,0.0916 -0.39279,0.13734 -0.0362,0.0181 -0.0706,0.0402 -0.10842,0.0544 -0.0783,0.0292 -0.31467,0.04 -0.23908,0.0756 0.13894,0.0656 0.60175,-0.0618 0.0808,-0.0371 -0.0394,-4.4e-4 -0.96902,-0.0325 -0.63249,0.0277 -0.0584,-0.0165 -0.27024,-0.11635 -0.47374,-0.19746 -0.58801,-0.16873 -1.17649,-0.18722 -1.78475,-0.17853 -0.23595,-0.007 -0.0661,0.01 0.0787,0.10354 0.0841,0.0546 0.14889,0.13726 0.23667,0.18578 0.0622,0.0344 -0.10278,-0.0985 -0.15852,-0.14257 -0.0721,-0.0571 -0.14976,-0.10693 -0.22464,-0.1604 -0.46336,-0.23131 -0.2851,-0.17695 -0.89374,-0.29152 -0.0223,-0.005 -0.14312,-0.002 -0.17761,-0.002 -0.0131,-1.9e-4 -0.0501,-0.009 -0.0393,-10e-4 0.021,0.0144 0.0482,0.0162 0.0722,0.0243 0.64059,0.27201 -0.72975,-0.30932 -0.73336,-0.31034 -0.61142,-0.13652 -1.23651,-0.18503 -1.8483,-0.32392 -0.3895,-0.0734 -0.5435,-0.0656 -0.93025,-0.24198 -0.73255,-0.17106 -1.47143,-0.16077 -2.22004,-0.13119 -0.19573,0.005 -0.39108,0.0165 -0.58569,-0.0116 -0.1956,-0.02 -0.38108,-0.0467 -0.56245,-0.13194 -0.42192,-0.13921 -0.85346,-0.21556 -1.29846,-0.17839 -0.25166,-0.0477 -0.63485,-0.15316 -0.92519,-0.21737 -0.98411,-0.24967 -1.98426,-0.40843 -3.00064,-0.44264 -2.02119,0 -2.02119,2.8584 0,2.8584 z" />
  <path
     style="fill:#010101;stroke-width:0.283465"
     id="path52"
     d="m 283.04222,440.28589 c 0.91713,0.0106 1.83241,-0.12153 2.74147,-0.23441 -0.33347,-0.0693 0.99633,-0.0478 0.63703,-0.0783 -0.0817,-0.007 -0.16407,0.0123 -0.24576,0.006 -0.11393,-0.009 -0.28647,-0.0904 -0.0439,0.0127 0.57307,0.20412 1.18264,0.25042 1.78559,0.27857 0.82317,-0.002 0.8474,0.24556 -0.79717,-0.7877 -0.0326,-0.0969 -0.14814,-0.37928 -0.0975,-0.29054 0.12668,0.22214 0.19586,0.47452 0.32748,0.69377 0.28381,0.47276 0.92737,0.60663 1.42323,0.68058 0.43386,0.0464 0.87053,0.0455 1.30625,0.0487 0.21261,0.005 0.4252,-0.012 0.63771,-0.009 0.49323,-0.0194 0.27973,0.19531 -0.71421,-0.33023 -0.1488,-0.0787 -0.23733,-0.27294 -0.31362,-0.41899 0.21989,0.64942 0.83424,0.88431 1.29646,1.29715 0.11443,0.096 0.059,0.0485 0.16628,0.14222 1.505,1.34929 3.41319,-0.77911 1.90819,-2.1284 v 0 c -0.22348,-0.20289 -0.1023,-0.0972 -0.36531,-0.31496 -0.0969,-0.0691 -0.19385,-0.13819 -0.29076,-0.20728 -0.0137,-0.004 -0.0292,-0.004 -0.0412,-0.0115 -0.44523,-0.2941 -0.1148,-0.1492 -0.0306,0.16901 -0.29843,-0.63916 -0.86811,-1.09368 -1.6264,-1.04467 -0.20469,0.005 -0.40948,-0.008 -0.61423,-0.006 -0.32627,-3.3e-4 -0.65306,-0.004 -0.9785,-0.0287 -0.13736,0.008 0.16413,0.10579 0.3523,0.26222 0.2433,0.20226 0.14638,0.40159 0.35987,0.71982 0.077,0.11482 -0.0775,-0.26544 -0.1162,-0.39816 -1.17435,-0.78834 -0.85174,-0.85319 -1.62341,-0.89456 -0.25667,-0.019 -0.6819,-0.0781 -0.84951,-0.0545 -0.57624,-0.23877 -1.15431,-0.27205 -1.76482,-0.1773 -0.80999,0.076 -1.61799,0.1898 -2.42868,0.24062 -2.0249,0 -2.0249,2.86363 0,2.86363 z" />
  <path
     style="fill:#010101;stroke-width:0.283465"
     id="path53"
     d="m 251.36073,442.79125 c 0.51505,0.0233 1.0276,0.0791 1.54166,0.11834 -0.19362,-0.11695 0.54114,0.20743 0.27942,0.0751 -0.38616,-0.19523 -0.0769,0.008 -0.36287,-0.19355 -0.0977,-0.0851 -0.17758,-0.18588 -0.2382,-0.30037 -0.0206,-0.0389 -0.0864,-0.15148 -0.0556,-0.11994 0.83615,0.8571 0.30689,0.58286 0.95665,0.85491 -0.32406,-0.13833 -0.61495,-0.292 -0.76555,-0.60959 1.51108,1.47083 0.74192,0.62295 0.38794,0.49502 -0.0889,-0.0321 0.14809,0.11787 0.22582,0.1717 0.16615,0.11505 0.35103,0.19003 0.5289,0.28352 0.21554,0.0862 0.40512,0.21977 0.603,0.3402 0.0555,0.0263 0.11019,0.0545 0.16648,0.079 0.81911,0.35821 -0.78682,-0.55382 -0.15323,-0.10284 0.10346,0.0737 0.21505,0.13512 0.32257,0.20269 0.37899,0.18733 0.77445,0.33512 1.18187,0.44742 0.2519,0.0901 0.5481,0.0541 0.78833,0.17751 0.076,0.0236 0.15165,0.0485 0.22805,0.0709 0.24886,0.073 0.50058,0.12313 0.75516,0.17015 0.0209,0.004 -0.042,-0.007 -0.063,-0.01 0.47401,0.16609 0.97594,0.20886 1.47364,0.23733 0.35905,0.0113 0.71826,0.0151 1.07741,0.0224 0.31666,0.008 0.63322,-0.005 0.94978,-0.008 0.0263,-2.5e-4 -0.0524,0.002 -0.0786,0.003 0.30349,0.0784 0.60361,0.1646 0.91173,0.228 0.38877,0.12515 0.79074,0.19548 1.19538,0.2432 0.11267,0.0482 0.2531,0.0785 0.37764,0.10964 0.29254,0.0862 0.59656,0.0936 0.89866,0.10503 0.36647,0.008 0.73301,0.006 1.09923,-0.009 0.36948,10e-4 0.739,0.014 1.10853,0.0193 0.48086,0.0125 0.9615,-0.005 1.44215,-0.0142 0.22803,-0.0174 0.45543,-0.006 0.68354,10e-4 0.401,0.0171 0.80209,0.003 1.20309,-0.003 0.3139,-0.0251 0.6224,0.0197 0.9326,0.0575 0.51389,0.0652 1.03127,0.0863 1.54847,0.10247 0.42307,0.006 0.84356,0.0254 1.2669,0.0153 0.79389,-0.0262 1.58019,-0.15568 2.36454,-0.27361 0.60978,-0.0677 0.72932,-0.17399 1.39525,-0.48353 0.32295,-0.35762 0.45361,-0.67013 0.48031,-1.13005 0.004,-0.0654 0.007,-0.26056 -0.007,-0.1965 -0.0473,0.21876 -0.0805,0.4403 -0.12074,0.66046 -0.16125,0.18834 -0.29752,0.40136 -0.48378,0.56503 -0.0965,0.0848 -0.23329,0.10795 -0.34799,0.16589 -0.008,0.004 -0.0257,0.0173 -0.0173,0.0187 0.13503,0.0233 0.30192,-0.005 0.43819,-0.01 0.27842,-0.009 0.55692,-0.005 0.83542,-0.009 0.37402,0.006 0.74785,0.0151 1.12199,0.0151 0.18031,-0.003 0.36059,-0.005 0.54087,-0.01 2.03421,2.3e-4 2.03453,-2.87657 3.3e-4,-2.8768 v 0 c -0.18005,-0.005 -0.36011,-0.007 -0.54019,-0.01 -0.37177,-2.3e-4 -0.74327,0.009 -1.11494,0.0127 -0.30143,-0.007 -0.60292,-0.005 -0.90439,-0.005 -0.47916,0.005 -1.11692,-0.0125 -1.51928,0.28714 -0.22678,0.16889 -0.38413,0.41506 -0.57619,0.62258 -0.39366,1.85058 -0.10218,0.36319 -0.0411,0.2553 0.0919,-0.16242 0.21992,-0.30162 0.32988,-0.45243 1.22124,-0.5329 0.81715,-0.31698 0.18459,-0.30788 -0.73116,0.0662 -1.45764,0.17248 -2.18868,0.23859 -0.31576,0.0362 -0.63552,0.0661 -0.95283,0.0317 -0.46575,-0.0342 -0.93022,-0.0861 -1.39605,-0.11995 -0.41049,-0.0356 -0.81799,-0.0454 -1.22941,-0.0399 -0.40099,-0.007 -0.80208,-0.0203 -1.20308,-0.003 -0.22811,0.008 -0.45549,0.0191 -0.68352,0.002 -0.48075,-0.01 -0.9615,-0.0266 -1.44246,-0.0141 -0.37122,0.005 -0.74238,0.0175 -1.11355,0.0203 -0.36056,-0.0137 -0.72137,-0.0152 -1.08212,-0.008 -0.057,0.002 -0.11404,0.003 -0.17103,0.006 -0.31002,0.0138 0.31573,0.0842 0.0716,0.0385 -0.28172,-0.0975 -0.56639,-0.19187 -0.86168,-0.23852 -0.32568,-0.0347 -0.63844,-0.12269 -0.95393,-0.20885 -0.3547,-0.068 -0.69868,-0.18243 -1.05583,-0.2397 -0.43008,-0.0458 -0.86035,-0.0544 -1.29301,-0.0434 -0.30078,0.006 -0.60223,0.0132 -0.90228,-0.0146 -0.24875,-0.0169 -0.50171,-0.0276 -0.74595,-0.0765 -0.31052,-0.0911 -0.62492,-0.16455 -0.93653,-0.25174 -0.30984,-0.0921 -0.62359,-0.15371 -0.93844,-0.224 -0.22057,-0.0518 -0.42213,-0.15405 -0.64012,-0.21142 0.0666,0.047 0.13548,0.0911 0.19988,0.14111 0.38499,0.29913 -0.86468,-0.4891 -0.42603,-0.26583 0.0262,0.0184 0.10197,0.077 0.0785,0.0552 -0.23367,-0.21702 -0.54144,-0.36092 -0.82561,-0.49365 -0.0686,-0.0313 -0.15338,-0.13545 -0.20958,-0.0852 -0.0461,0.0413 0.50952,0.34533 0.12229,0.11613 -0.54291,-0.32135 -0.76356,-0.63576 0.27504,0.41558 -0.20675,-0.44003 -0.50763,-0.71558 -0.97788,-0.91204 0.58118,0.25859 0.0287,-0.0305 0.84957,0.8097 0.0406,0.0416 -0.0447,-0.10736 -0.0712,-0.15902 -0.0985,-0.19163 -0.23061,-0.36051 -0.38722,-0.50825 -0.44876,-0.35031 -0.9549,-0.53855 -1.51597,-0.62711 -0.60598,-0.0739 -1.21901,-0.15031 -1.82943,-0.0876 -2.0212,0 -2.0212,2.8584 0,2.8584 z" />
  <path
     style="fill:#010101;stroke-width:0.283465"
     id="path54"
     d="m 294.3673,438.54982 c -0.13428,-0.0849 -0.20606,-0.19488 -0.32892,-0.33959 -0.33257,-0.36928 -0.74412,-0.57617 -1.22367,-0.66146 -0.15716,-0.023 -0.31645,-0.0232 -0.47485,-0.0182 -0.0963,2e-5 -0.19262,-9e-5 -0.28897,0.002 -0.0793,-0.007 -0.54673,0.006 -0.23965,-0.0148 -0.41069,-0.10786 -0.82951,-0.1838 -1.25094,-0.23427 -0.23334,-0.026 -0.46809,-0.0344 -0.70254,-0.0437 -0.75213,-0.0313 -1.50502,-0.0229 -2.25753,-0.0168 -2.04642,0.002 -2.04438,2.89554 0.002,2.89409 v 0 c 0.74683,0.005 1.49402,0.0122 2.24043,-0.0193 0.12039,-0.006 0.23538,-0.002 0.35608,0.024 0.34968,0.0487 0.69416,0.12672 1.0391,0.20155 0.27937,0.0369 0.54283,0.0727 0.82205,0.0528 0.11209,0.002 0.22412,10e-4 0.33616,-0.002 0.18234,-0.002 0.11759,-0.005 -0.0354,-0.0199 -0.23658,-0.0459 -0.40452,-0.17717 -0.55619,-0.37101 0.27701,0.35974 0.58536,0.70687 0.97838,0.94319 1.68052,1.12035 3.26493,-1.25627 1.58441,-2.37661 z" />
  <path
     style="fill:#010101;stroke-width:0.283465"
     id="path55"
     d="m 280.19288,444.07266 c 0.33324,0.007 0.66675,0.005 1.00002,-7.5e-4 0.15065,-0.005 0.30132,-0.002 0.45202,-0.005 0.33236,-0.0283 0.52178,0.20669 -0.50284,-0.17395 -0.0849,-0.0316 -0.14549,-0.10784 -0.21823,-0.16176 -0.0275,-0.0296 -0.11307,-0.11513 -0.0825,-0.0887 0.12894,0.11149 0.23689,0.24881 0.37809,0.3443 0.50428,0.34105 1.10447,0.34284 1.68333,0.32291 0.44951,-0.0473 0.89151,-0.14283 1.33689,-0.21734 0.21208,-0.0388 0.13526,-0.0252 0.36056,-0.0178 0.53592,0.0166 1.07191,0.008 1.60791,0.005 0.69843,0.0268 0.83946,-0.11781 1.62966,-0.45679 0.0795,-0.0989 0.14479,-0.21125 0.23864,-0.29671 0.0563,-0.0513 -0.14278,0.11836 -0.12386,0.19219 0.0143,0.0557 0.1023,-0.0529 0.15221,-0.0815 0.12222,-0.0702 0.24401,-0.14122 0.36407,-0.21503 1.71713,-1.05554 -0.69349,0.40607 0.85389,-0.52965 0.30519,-0.17122 0.61845,-0.32708 0.93246,-0.48123 1.85138,-0.86032 0.63471,-3.47856 -1.21667,-2.61823 v 0 c -0.4172,0.18527 -0.8327,0.37514 -1.22766,0.60552 -0.54676,0.33214 -1.17203,0.6621 -1.6562,1.08427 -0.15858,0.13826 -0.29474,0.30032 -0.44344,0.44915 -0.0442,0.0442 0.0865,-0.0901 0.12974,-0.13515 1.57362,-0.61263 0.9956,-0.32909 0.37019,-0.39012 -0.54201,-0.004 -1.08403,-0.014 -1.62597,0.004 -0.25225,0.009 -0.50446,0.0194 -0.75489,0.053 -0.38622,0.0487 -0.76908,0.11827 -1.15371,0.17769 -0.10221,0.11059 0.1965,-0.20058 -0.15612,0.019 -0.0196,0.0122 0.16326,0.0577 0.31868,0.18286 0.0945,0.0761 0.15871,0.18603 0.25531,0.25946 0.064,0.0487 -0.10413,-0.12275 -0.15619,-0.18412 -0.36819,-0.3016 -0.79816,-0.53558 -1.29333,-0.4973 -0.1507,-0.003 -0.30137,2e-5 -0.45202,-0.005 -0.33327,-0.006 -0.66678,-0.007 -1.00003,-7.5e-4 -2.02119,0 -2.02119,2.8584 0,2.8584 z" />
</svg>
