<?xml version="1.0" encoding="UTF-8" standalone="no"?>
<svg
   version="1.0"
   width="509.01831pt"
   height="557.45032pt"
   viewBox="0 0 509.01831 557.45032"
   preserveAspectRatio="xMidYMid"
   id="svg21"
   sodipodi:docname="think.svg"
   inkscape:version="1.3 (0e150ed, 2023-07-21)"
   xmlns:inkscape="http://www.inkscape.org/namespaces/inkscape"
   xmlns:sodipodi="http://sodipodi.sourceforge.net/DTD/sodipodi-0.dtd"
   xmlns="http://www.w3.org/2000/svg"
   xmlns:svg="http://www.w3.org/2000/svg">
  <defs
     id="defs21" />
  <sodipodi:namedview
     id="namedview21"
     pagecolor="#ffffff"
     bordercolor="#000000"
     borderopacity="0.25"
     inkscape:showpageshadow="2"
     inkscape:pageopacity="0.0"
     inkscape:pagecheckerboard="0"
     inkscape:deskcolor="#d1d1d1"
     inkscape:document-units="pt"
     inkscape:zoom="0.2979798"
     inkscape:cx="360.76271"
     inkscape:cy="382.57627"
     inkscape:window-width="1312"
     inkscape:window-height="449"
     inkscape:window-x="0"
     inkscape:window-y="25"
     inkscape:window-maximized="0"
     inkscape:current-layer="svg21" />
  <g
     transform="matrix(0.1,0,0,-0.1,-8.7,584.77443)"
     fill="#000000"
     stroke="none"
     id="g21">
    <path
       d="m 3129,5846 c -3,-3 -93,-13 -200,-21 -107,-9 -225,-24 -264,-34 -55,-15 -99,-18 -200,-16 -111,3 -135,0 -167,-16 -20,-10 -51,-19 -67,-19 -17,0 -63,-15 -103,-34 -40,-19 -94,-42 -120,-51 -31,-11 -76,-43 -132,-93 -126,-114 -283,-246 -298,-251 -7,-2 -52,-41 -99,-87 -48,-46 -91,-84 -98,-84 -6,0 -40,-27 -77,-60 -36,-33 -80,-64 -97,-68 -30,-8 -32,-12 -33,-53 -2,-35 -15,-66 -71,-159 -38,-64 -86,-139 -105,-168 -38,-54 -73,-146 -84,-221 -6,-39 -5,-43 12,-39 14,2 21,15 26,50 10,71 36,142 67,185 16,21 65,100 110,175 69,116 80,140 75,167 -6,27 -4,31 14,31 12,0 49,26 84,59 35,32 77,65 94,74 17,9 60,44 95,78 35,34 85,78 111,98 96,74 195,158 263,222 77,72 141,119 165,119 8,0 53,18 100,40 47,22 96,40 110,40 14,0 43,9 65,18 33,15 63,18 168,16 87,-1 145,3 180,12 52,15 143,26 352,43 148,12 385,3 406,-16 9,-8 32,-18 50,-23 25,-7 41,-22 61,-54 23,-38 35,-47 78,-60 29,-9 66,-24 83,-35 18,-10 48,-22 67,-26 19,-4 80,-31 135,-60 55,-28 113,-55 128,-59 30,-7 147,-115 147,-135 0,-20 39,-51 65,-51 17,0 29,-9 39,-28 8,-16 22,-35 31,-42 9,-8 23,-30 31,-51 9,-20 33,-51 55,-68 21,-18 48,-50 59,-71 13,-26 25,-37 34,-34 9,3 22,-6 33,-22 15,-24 18,-47 16,-164 -2,-74 -5,-157 -9,-184 -3,-28 -1,-73 6,-103 10,-46 9,-55 -5,-69 -11,-11 -14,-24 -9,-38 7,-22 22,-198 17,-205 -5,-7 -181,83 -182,92 -1,4 13,7 29,7 25,0 30,4 30,25 0,21 -5,25 -27,25 -16,0 -78,11 -139,23 -120,25 -170,50 -254,128 -25,23 -61,48 -80,56 -19,8 -78,39 -130,68 -82,45 -105,53 -165,58 -54,4 -81,12 -113,33 l -43,28 26,14 c 20,10 25,18 19,35 -18,59 -37,88 -105,157 -41,41 -88,96 -105,121 -30,44 -34,46 -89,52 -31,3 -80,16 -109,29 -83,39 -150,58 -203,58 -28,0 -65,5 -83,11 -36,13 -149,-1 -207,-26 -18,-8 -46,-12 -67,-8 -27,4 -46,-1 -80,-21 -24,-14 -55,-26 -68,-26 -36,-1 -179,-91 -236,-150 -28,-29 -93,-158 -93,-186 -1,-11 2,-29 6,-41 4,-13 3,-23 -2,-23 -44,0 -281,-53 -330,-74 -35,-14 -72,-26 -85,-26 -12,0 -49,-7 -82,-16 -34,-8 -88,-22 -121,-31 -248,-63 -348,-113 -488,-244 -104,-98 -107,-102 -91,-121 17,-18 19,-17 79,42 33,33 64,60 69,60 4,0 5,-34 1,-76 -8,-76 -7,-76 16,-72 22,3 24,9 30,83 10,118 14,128 72,163 73,43 103,50 112,22 5,-16 -4,-34 -42,-76 -102,-117 -107,-125 -97,-142 17,-27 31,-24 51,10 11,18 47,63 81,101 63,68 77,108 51,134 -15,15 29,34 136,57 44,10 102,25 128,33 27,8 51,12 54,9 12,-12 -38,-211 -59,-233 -16,-17 -18,-25 -9,-36 9,-11 3,-20 -30,-43 l -42,-29 -36,43 c -32,37 -42,42 -78,42 -31,0 -52,-8 -90,-36 -49,-37 -131,-136 -154,-186 -7,-16 -16,-28 -21,-28 -14,0 -9,53 8,71 20,22 11,39 -21,39 -37,0 -49,-51 -35,-145 l 11,-76 -31,-36 c -17,-19 -36,-46 -42,-59 -6,-13 -15,-24 -19,-24 -10,0 -59,130 -59,157 0,24 -23,36 -39,20 -17,-17 -14,-29 25,-133 l 36,-96 -22,-50 c -28,-65 -12,-81 56,-55 3,1 15,-20 26,-48 42,-107 78,-209 78,-221 0,-14 -88,-134 -99,-134 -4,0 -17,20 -29,45 -16,33 -22,64 -22,113 0,37 -4,73 -9,81 -13,21 -41,5 -41,-24 0,-32 -14,-32 -29,1 -9,21 -14,24 -26,14 -22,-18 -19,-31 24,-102 43,-71 46,-88 58,-323 20,-370 4,-650 -53,-890 -33,-140 -34,-150 -10,-150 23,0 36,40 71,210 29,144 45,269 45,347 0,32 4,58 9,58 5,0 16,-37 24,-82 9,-46 28,-137 41,-203 55,-259 53,-511 -8,-883 -10,-64 -18,-87 -35,-98 -11,-8 -21,-24 -21,-36 0,-11 -8,-33 -17,-50 -17,-28 -17,-30 1,-43 18,-14 18,-17 1,-109 -19,-109 -16,-108 -97,-37 -98,87 -171,245 -212,461 -30,156 -48,272 -42,277 2,2 13,-12 24,-31 42,-71 133,-100 232,-75 44,11 55,18 53,34 -1,10 2,26 7,35 7,13 -1,25 -35,54 -88,73 -139,177 -172,347 -15,79 -18,144 -17,394 1,335 20,790 35,848 9,33 13,36 34,31 31,-8 45,20 22,43 -14,14 -14,18 0,39 8,14 29,26 49,30 24,4 34,12 34,25 0,15 -7,19 -34,19 -63,0 -113,-62 -167,-205 -23,-61 -45,-75 -35,-22 3,17 10,66 16,107 15,112 23,140 63,202 21,31 37,61 37,66 0,6 21,33 46,61 25,28 43,55 39,61 -10,16 -37,11 -62,-12 -33,-31 -29,-5 10,62 67,114 89,139 125,140 36,0 72,15 72,30 0,6 -25,8 -57,5 -43,-3 -62,-9 -75,-25 -9,-11 -25,-20 -35,-20 -54,0 -159,-174 -119,-197 13,-7 12,-17 -4,-74 -10,-36 -28,-85 -40,-108 -12,-24 -32,-100 -44,-170 -21,-121 -23,-126 -47,-126 -22,0 -24,4 -23,45 0,25 4,66 9,92 7,42 5,50 -15,66 -21,17 -21,19 -7,55 12,29 60,106 83,136 2,2 14,4 26,5 26,1 37,32 18,50 -9,8 -23,-1 -57,-39 -25,-27 -56,-68 -70,-90 -14,-22 -32,-44 -39,-48 -18,-10 -53,-127 -64,-213 -5,-42 -24,-104 -45,-155 C 172,2930 129,2763 99,2375 83,2171 83,1678 99,1490 c 35,-420 81,-579 180,-629 52,-27 167,-47 185,-32 11,9 23,-12 61,-106 62,-153 187,-415 206,-430 9,-7 20,-8 29,-3 11,7 -1,37 -58,152 -39,79 -80,168 -92,198 -11,30 -27,69 -34,85 -48,104 -170,429 -199,530 -88,295 -116,560 -97,917 17,333 43,496 89,554 40,51 17,89 -26,42 -48,-53 -65,-110 -91,-313 -21,-169 -24,-743 -4,-850 8,-38 20,-106 29,-150 21,-111 83,-318 138,-455 50,-128 53,-144 28,-136 -10,3 -39,8 -66,12 -131,18 -168,96 -218,459 -20,144 -22,204 -23,590 0,430 3,478 40,720 33,210 78,358 184,600 29,66 58,135 66,153 16,36 30,41 39,13 3,-11 22,-25 42,-32 l 36,-11 -7,-82 c -4,-44 -11,-124 -16,-176 -17,-166 -24,-891 -11,-1067 20,-261 41,-411 77,-549 45,-175 77,-248 154,-349 48,-62 134,-130 152,-119 7,5 21,7 30,6 19,-3 32,35 49,141 5,32 16,66 24,73 8,8 17,36 20,62 4,26 22,108 41,183 88,352 86,683 -6,1129 -21,102 -57,237 -80,300 -29,81 -43,138 -47,194 l -6,80 43,-42 c 24,-23 45,-40 48,-38 2,3 -6,26 -17,51 l -21,47 46,64 c 25,35 49,64 53,64 12,0 16,-13 36,-126 17,-100 17,-102 -4,-166 -19,-57 -20,-68 -8,-103 l 14,-39 11,47 c 7,26 16,47 20,47 4,0 18,-51 31,-112 12,-62 34,-146 47,-187 13,-41 22,-76 20,-78 -7,-7 -66,27 -66,38 0,6 -10,34 -22,62 l -23,52 -7,-55 c -6,-46 -3,-65 18,-117 53,-136 73,-287 88,-688 12,-336 7,-451 -24,-500 -36,-58 -150,-544 -136,-580 15,-39 32,0 58,131 45,226 82,359 99,357 43,-8 62,180 54,517 -8,311 -27,536 -55,637 -25,89 -25,93 -1,93 36,0 52,-12 75,-59 26,-51 37,-98 61,-251 9,-58 23,-129 31,-159 7,-30 19,-92 25,-138 10,-77 9,-93 -15,-201 -14,-64 -35,-171 -46,-237 -11,-66 -29,-155 -40,-197 -11,-42 -22,-121 -25,-175 -3,-54 -12,-143 -21,-198 -20,-138 -20,-137 -7,-142 6,-2 16,5 22,15 13,24 37,174 47,287 3,44 11,86 16,92 6,7 8,20 4,28 -3,8 5,61 18,118 20,83 46,227 46,251 0,3 5,6 12,6 13,0 4,-376 -11,-445 -9,-39 -9,-39 -10,-7 -1,25 -5,32 -21,32 -26,0 -27,-10 -35,-220 -4,-96 -8,-188 -8,-205 -2,-24 2,-30 18,-30 22,0 25,15 39,187 6,70 11,87 25,91 14,3 21,22 30,83 27,180 33,304 27,544 -4,135 -4,249 0,253 8,8 48,-98 70,-188 8,-33 23,-129 34,-212 15,-121 25,-164 47,-205 15,-31 28,-74 30,-103 11,-176 20,-236 36,-253 17,-16 18,-16 23,6 4,12 8,22 11,22 3,0 50,-45 104,-100 100,-100 139,-131 139,-110 0,17 20,11 28,-7 18,-44 65,-113 80,-117 10,-3 26,-21 36,-40 26,-49 74,-91 127,-111 l 47,-17 6,-59 c 4,-32 12,-61 18,-65 18,-11 27,18 21,68 l -6,48 h 66 c 36,0 109,-9 164,-20 110,-22 170,-25 225,-10 20,6 86,15 145,20 59,4 117,11 129,15 18,6 22,1 30,-37 6,-27 14,-43 24,-43 12,0 14,13 12,65 l -4,66 63,44 c 62,44 199,166 309,275 30,30 71,60 90,66 50,18 134,92 155,138 16,36 20,39 46,34 l 29,-5 v 58 c 0,49 5,65 33,106 17,26 35,48 38,48 8,0 42,-156 42,-190 0,-14 -6,-51 -12,-83 -7,-33 -10,-65 -7,-73 3,-8 8,-72 12,-142 5,-115 8,-133 37,-191 41,-86 71,-118 118,-133 52,-15 85,-55 100,-122 19,-85 58,-83 46,2 -4,30 -23,84 -45,124 -1,3 7,16 20,28 22,20 23,28 23,163 -1,108 -5,156 -19,201 -26,85 -62,163 -79,169 -10,4 -16,35 -20,119 -4,69 -17,152 -32,213 -14,55 -26,119 -26,142 -1,47 -12,61 -34,43 -21,-18 -19,-62 11,-175 17,-67 27,-138 30,-215 6,-139 10,-160 29,-160 50,0 118,-288 94,-399 l -10,-49 -55,-7 c -35,-4 -60,-3 -68,4 -7,6 -27,41 -44,78 -31,67 -31,71 -33,233 -1,96 3,176 9,191 8,19 5,48 -9,115 -10,49 -18,109 -19,135 0,51 -31,201 -50,240 -10,22 -6,45 30,165 44,143 56,174 68,174 10,0 98,-135 150,-231 40,-74 42,-80 42,-165 0,-50 11,-150 25,-229 20,-111 32,-154 61,-210 20,-38 45,-101 56,-139 22,-79 65,-176 78,-176 5,0 13,8 19,17 7,12 3,30 -13,63 -13,25 -30,75 -40,112 -9,37 -32,96 -51,131 -26,48 -41,95 -59,188 -31,156 -41,239 -30,239 13,0 91,-148 99,-187 9,-45 20,-48 35,-13 13,32 9,68 -25,190 -23,82 -20,287 5,395 11,47 23,110 26,140 4,30 10,55 13,55 3,-1 21,-14 40,-30 28,-24 32,-32 22,-43 -13,-16 4,-77 39,-148 19,-36 89,-227 131,-354 22,-68 22,-74 10,-210 -6,-77 -14,-161 -18,-187 -5,-44 -4,-48 15,-48 22,0 33,38 48,165 8,73 12,64 48,-101 15,-66 29,-129 31,-141 4,-15 13,-23 26,-23 20,0 21,4 15,50 -5,41 -1,65 22,132 16,46 37,119 47,163 9,44 27,125 40,180 24,106 30,139 69,390 41,259 46,318 46,545 0,246 -9,337 -51,540 -35,172 -78,309 -125,404 -27,54 -32,71 -22,77 7,5 16,9 21,9 4,0 7,9 7,20 0,28 -28,37 -44,14 -13,-17 -15,-16 -35,16 -24,40 -25,46 -11,55 20,12 9,32 -25,48 -81,39 -84,13 -13,-109 107,-186 147,-292 201,-544 67,-306 68,-732 2,-1090 -9,-47 -20,-112 -25,-145 -15,-99 -46,-252 -79,-390 -30,-124 -44,-165 -54,-155 -3,3 -21,66 -40,140 l -35,135 14,105 c 59,443 64,910 12,1105 -6,22 -14,67 -17,100 -5,52 -9,60 -28,63 -22,3 -22,4 -25,245 -3,221 -1,243 15,256 21,17 22,29 0,53 -17,19 -20,36 -29,158 -3,41 -10,79 -15,84 -8,9 -13,156 -5,156 2,0 22,-18 44,-40 42,-43 59,-49 68,-25 4,9 -11,34 -35,61 -37,43 -41,52 -41,101 0,47 -3,56 -21,60 -26,7 -39,41 -39,103 0,33 -5,50 -15,54 -17,6 -20,43 -5,66 10,16 13,8 10,-28 -1,-16 8,-27 30,-40 66,-36 79,-51 82,-95 2,-30 8,-43 21,-45 10,-2 17,3 17,12 0,21 4,20 44,-6 102,-67 274,-464 327,-753 48,-269 50,-687 5,-1195 -13,-157 -32,-386 -41,-510 -9,-124 -23,-264 -31,-313 -18,-109 -18,-117 2,-117 35,0 56,111 74,405 12,193 21,305 50,625 38,428 36,826 -5,1066 -19,109 -59,268 -85,338 -11,28 -20,68 -20,89 0,24 -5,37 -13,37 -11,0 -67,105 -67,125 0,3 9,14 20,25 23,23 20,58 -11,102 -26,38 -24,46 6,18 14,-13 28,-21 31,-18 22,23 -167,227 -230,248 -31,10 -35,15 -30,35 5,19 0,27 -24,39 -27,14 -30,21 -34,78 -5,59 -27,116 -94,239 -8,15 -17,49 -20,75 l -5,49 74,-77 c 41,-43 78,-78 82,-78 5,0 -1,10 -12,23 -30,32 -43,62 -43,96 0,16 -5,33 -10,36 -6,3 -7,17 -4,29 4,17 0,28 -16,39 -19,13 -21,20 -13,43 8,24 6,31 -18,51 -15,13 -31,23 -37,23 -5,0 -12,36 -14,79 -4,65 -10,87 -31,120 -15,22 -27,52 -27,66 0,27 -14,33 -27,11 -11,-21 -99,64 -120,115 -8,22 -23,45 -33,52 -9,6 -23,26 -31,42 -11,23 -22,31 -47,33 -25,3 -38,12 -57,42 -44,69 -115,126 -205,165 -47,20 -97,45 -111,55 -26,19 -110,50 -133,50 -7,0 -24,9 -38,19 -14,11 -46,25 -72,32 -40,10 -54,20 -83,60 -24,34 -45,51 -70,58 -19,6 -43,17 -52,25 -11,10 -50,15 -131,19 -63,3 -124,8 -135,11 -11,4 -23,5 -26,2 z m -256,-663 c 72,-5 77,-7 63,-22 -18,-20 -16,-134 3,-169 10,-19 19,-23 49,-20 29,2 37,7 37,23 0,13 -8,21 -22,23 -29,4 -39,19 -46,67 -11,75 29,91 107,44 17,-10 62,-23 101,-30 65,-10 74,-15 90,-42 11,-18 36,-50 57,-73 l 38,-41 -58,-6 c -72,-6 -115,1 -108,18 2,7 -2,22 -10,33 -8,11 -18,38 -22,59 -5,23 -14,38 -22,38 -20,0 -14,-60 9,-100 l 17,-30 h -157 c -184,0 -169,-11 -169,128 0,70 -3,87 -15,87 -21,0 -28,-40 -23,-136 4,-83 4,-85 -16,-80 -12,3 -35,6 -52,6 h -31 l 14,88 c 7,48 18,89 23,90 18,7 10,32 -10,32 -22,0 -32,-29 -50,-150 -6,-41 -13,-76 -15,-79 -3,-2 -11,1 -18,8 -8,6 -41,11 -73,10 -33,-1 -73,2 -90,6 -26,6 -37,2 -66,-24 -38,-33 -49,-36 -77,-21 -16,8 -17,16 -9,62 5,29 15,58 23,63 7,6 15,22 17,35 2,19 11,26 42,32 21,5 41,6 43,4 2,-2 -7,-30 -21,-62 -15,-37 -21,-63 -15,-68 13,-14 24,1 49,71 12,34 28,64 36,67 7,3 11,12 8,21 -7,16 -1,18 34,8 23,-6 24,-9 17,-62 -4,-35 -14,-64 -27,-78 -12,-12 -18,-29 -15,-37 20,-51 86,26 88,100 2,88 8,98 69,107 29,4 56,10 59,13 3,3 19,3 36,-1 16,-3 65,-9 108,-12 z m -599,-232 c -7,-44 -14,-50 -34,-27 -6,8 -18,12 -26,9 -8,-3 -14,1 -14,11 0,13 68,57 78,51 1,-1 0,-21 -4,-44 z m 666,-66 c 5,-3 20,-1 34,5 41,15 251,-4 272,-25 14,-14 28,-16 70,-10 48,6 55,4 85,-23 l 33,-30 -37,-16 c -37,-15 -65,-12 -79,7 -4,7 -16,6 -35,-1 -48,-18 -93,-24 -203,-27 -58,-1 -159,-10 -225,-18 -206,-27 -619,-15 -638,19 -4,8 -19,14 -33,14 -23,0 -24,2 -18,38 11,66 36,72 192,41 50,-9 68,-9 90,1 18,9 73,13 167,12 94,0 150,4 170,13 28,12 136,12 155,0 z m 144,-172 c 11,-11 45,-13 51,-3 9,15 62,12 68,-4 6,-15 47,-29 47,-15 0,18 38,8 43,-11 8,-29 37,-26 37,5 0,20 5,25 24,25 21,0 24,-6 30,-49 3,-27 3,-56 0,-65 -4,-10 -2,-27 4,-39 21,-43 34,-93 47,-182 19,-124 19,-121 41,-146 l 19,-22 -25,8 c -35,12 -77,7 -113,-11 -21,-11 -44,-14 -76,-10 -42,5 -50,3 -90,-29 -24,-19 -50,-35 -58,-35 -41,0 -131,-68 -118,-89 10,-17 30,-13 59,10 14,11 43,25 64,31 20,5 53,22 72,36 27,21 47,27 85,28 28,0 70,9 95,19 l 45,18 62,-37 c 70,-41 96,-44 138,-16 23,15 47,20 107,20 42,0 80,5 83,10 11,18 37,11 62,-16 20,-22 29,-25 62,-19 50,8 117,-24 132,-63 6,-14 24,-38 41,-52 43,-36 34,-66 -35,-113 -55,-38 -92,-46 -130,-25 -21,11 -184,41 -217,40 -8,-1 -114,-3 -235,-5 -121,-3 -227,-8 -237,-12 -11,-4 -18,0 -23,15 -6,18 -12,21 -33,16 -100,-23 -118,-17 -139,49 -5,17 -17,31 -26,33 -26,5 -22,-58 6,-99 21,-31 27,-34 82,-37 38,-2 62,-8 70,-19 10,-13 23,-13 104,-4 52,7 96,10 98,7 12,-12 -128,-46 -190,-46 -53,0 -73,-4 -82,-17 -8,-10 -32,-18 -69,-21 -39,-3 -59,-10 -65,-21 -8,-14 -31,-16 -183,-15 l -173,1 -13,26 c -11,23 -16,25 -32,15 -15,-10 -26,-9 -57,6 l -38,19 45,13 c 25,8 62,30 83,48 38,34 39,35 32,91 -11,81 -38,109 -125,129 -86,20 -131,20 -194,1 -27,-8 -83,-15 -123,-15 -41,0 -84,-5 -96,-11 -18,-10 -24,-8 -42,15 -19,24 -26,26 -99,26 -62,0 -86,4 -113,21 -40,25 -75,20 -115,-18 l -28,-26 -39,18 c -69,31 -182,8 -271,-55 -18,-13 -31,-15 -42,-9 -40,22 -64,-16 -52,-84 4,-23 8,-48 8,-56 1,-8 13,-18 27,-22 15,-3 61,-23 103,-44 79,-38 82,-39 169,-19 46,11 30,-13 -27,-39 -33,-15 -57,-33 -61,-46 -8,-26 -13,-26 -72,3 -30,16 -75,27 -121,31 l -73,6 -35,-37 c -19,-20 -50,-67 -69,-104 -19,-38 -38,-71 -43,-74 -9,-5 -17,85 -28,299 l -6,110 61,80 c 55,72 59,81 45,96 -14,16 -14,20 0,42 20,29 84,82 121,99 26,12 29,10 64,-30 30,-36 42,-42 73,-42 23,0 46,8 65,24 15,12 38,28 50,35 18,9 21,16 14,34 -5,14 -4,29 4,42 7,11 23,73 36,137 l 22,117 47,15 c 25,8 54,18 63,22 16,6 15,1 -4,-47 -37,-93 -50,-142 -50,-196 0,-45 -6,-58 -46,-112 -44,-59 -50,-91 -20,-91 8,0 38,32 66,70 49,68 51,73 51,136 0,50 7,81 30,136 33,76 37,104 18,111 -9,3 -7,7 5,12 36,15 49,-1 40,-52 -4,-27 -6,-73 -5,-103 1,-43 -6,-75 -33,-141 -19,-48 -35,-96 -35,-107 0,-17 -7,-21 -37,-24 -30,-2 -38,-7 -38,-23 0,-17 6,-20 40,-19 76,3 195,17 195,23 0,19 -29,31 -73,31 -49,0 -49,0 -42,28 3,15 20,57 36,94 24,56 29,80 30,155 0,48 3,81 6,73 3,-8 15,-37 28,-65 12,-27 26,-63 31,-80 8,-25 15,-30 39,-30 29,0 30,1 32,53 1,53 15,82 37,82 14,0 99,87 115,118 8,15 21,22 39,22 16,0 32,4 38,9 5,6 40,6 89,0 44,-5 130,-9 190,-8 61,1 118,-2 129,-6 11,-5 21,-3 26,4 6,10 12,10 28,0 17,-10 25,-11 44,-1 13,7 68,14 125,15 71,1 104,6 108,15 5,13 77,17 89,5 z m -1017,-54 c -23,-19 -49,-55 -63,-88 -25,-56 -26,-56 -38,-31 -21,40 -26,107 -10,121 17,14 67,27 114,28 l 35,1 z m 1416,4 c 21,-15 44,-40 51,-57 8,-17 50,-69 94,-116 45,-47 79,-91 77,-98 -4,-11 19,-13 121,-10 l 126,3 62,-67 c 36,-39 88,-83 126,-104 88,-51 148,-110 196,-191 21,-37 49,-78 61,-91 26,-28 40,-99 24,-115 -16,-16 -326,-16 -341,-1 -7,7 4,20 37,44 66,45 73,57 73,111 0,40 -4,51 -27,69 -16,12 -35,36 -43,53 -11,22 -34,41 -78,63 -55,28 -67,31 -89,21 -22,-10 -28,-8 -44,12 -11,14 -17,32 -14,42 4,12 -2,23 -20,35 -34,23 -90,14 -145,-22 -34,-23 -55,-29 -95,-29 -58,1 -118,30 -124,61 -2,10 -8,22 -13,25 -8,5 -18,56 -53,274 -7,44 -16,88 -20,98 -11,25 12,22 58,-10 z m 1102,17 c 3,-5 2,-10 -4,-10 -5,0 -13,5 -16,10 -3,6 -2,10 4,10 5,0 13,-4 16,-10 z m -858,-86 c 38,-20 97,-51 133,-69 54,-27 125,-83 109,-86 -2,0 -52,-3 -111,-6 -93,-4 -109,-3 -114,11 -3,9 -12,16 -19,16 -7,0 -28,19 -46,43 -18,23 -48,56 -66,73 -43,42 -42,54 7,54 27,0 62,-12 107,-36 z m 902,-269 c 21,-40 29,-125 12,-125 -5,0 -23,12 -40,26 -32,27 -37,22 -21,-20 7,-20 6,-26 -4,-26 -17,0 -29,106 -16,150 10,35 30,55 41,42 4,-4 16,-25 28,-47 z m -507,4 c 42,-33 53,-35 66,-13 7,13 18,15 48,10 31,-6 42,-14 54,-39 11,-23 33,-41 75,-62 33,-17 82,-43 108,-59 l 48,-29 -7,-111 c -6,-96 -4,-114 10,-128 21,-22 20,-35 -5,-48 -26,-15 -49,-6 -49,18 0,36 -33,113 -60,140 -15,15 -35,42 -44,60 -27,52 -126,144 -195,182 -61,33 -131,93 -131,113 0,14 43,-3 82,-34 z m -296,-114 c -11,-8 -29,-15 -39,-15 -16,0 -17,3 -7,15 7,8 24,15 39,15 25,-1 25,-1 7,-15 z m -236,-45 c 12,-8 11,-10 -7,-10 -12,0 -25,5 -28,10 -8,13 15,13 35,0 z m -1737,-97 c 14,-14 41,-19 106,-21 84,-4 87,-5 103,-33 20,-33 34,-36 68,-12 43,31 360,48 432,24 27,-9 39,-20 47,-43 18,-51 13,-71 -26,-100 -32,-25 -41,-27 -94,-21 -50,5 -63,3 -80,-13 -19,-17 -40,-19 -248,-20 -124,0 -270,-6 -324,-13 l -99,-12 -39,26 c -28,20 -46,26 -66,22 -16,-4 -41,-9 -58,-12 -23,-5 -48,2 -102,29 -40,20 -77,36 -82,36 -10,0 -21,24 -21,46 0,8 9,14 19,14 11,0 32,11 48,24 65,54 186,81 241,52 46,-24 75,-20 105,14 31,35 43,37 70,13 z M 723,3981 c -28,-50 -40,-59 -29,-23 7,20 44,72 52,72 2,0 -8,-22 -23,-49 z m 4107,-2 c 0,-15 -12,-11 -37,13 -33,31 -28,43 7,18 17,-12 30,-26 30,-31 z M 1064,3665 c 6,-128 5,-137 -8,-110 -25,51 -86,209 -86,223 0,7 17,39 37,70 l 37,57 7,-50 c 4,-27 10,-113 13,-190 z m 2803,185 c 24,0 66,-38 57,-51 -5,-9 -28,-6 -124,12 -85,17 -89,20 -55,35 17,8 46,12 65,9 19,-3 45,-5 57,-5 z m -302,-19 c -6,-5 -30,-12 -55,-15 l -45,-6 35,14 c 40,17 79,21 65,7 z m 986,-128 c 1,-115 0,-155 -7,-162 -6,-6 -54,40 -54,51 0,19 -59,94 -84,108 -34,18 -57,1 -39,-29 10,-16 8,-20 -14,-24 -29,-5 -73,18 -73,38 0,7 -11,16 -25,19 -16,4 -25,13 -25,26 0,18 7,20 68,20 37,0 83,4 102,10 40,11 53,0 46,-42 -5,-28 15,-55 34,-43 5,3 10,30 10,59 0,45 3,55 23,64 12,6 25,11 30,11 4,1 7,-47 8,-106 z m -3144,-43 78,-5 1,-165 c 1,-133 4,-171 17,-197 10,-18 17,-42 17,-55 0,-13 10,-38 23,-57 12,-19 36,-59 53,-90 18,-33 49,-70 75,-89 24,-18 73,-55 107,-83 35,-27 76,-52 90,-55 75,-15 152,-37 178,-51 19,-11 51,-15 93,-14 69,2 91,12 91,41 0,20 33,33 48,18 6,-6 24,-7 42,-3 27,6 31,11 27,32 -5,28 30,58 56,47 10,-4 30,7 54,31 21,20 49,43 63,50 14,7 60,50 102,95 91,97 158,221 151,280 -2,19 -7,63 -10,98 l -5,64 28,-4 c 26,-3 29,-8 45,-83 9,-44 13,-85 9,-90 -16,-19 27,-218 72,-340 71,-189 76,-211 83,-360 7,-132 6,-142 -13,-166 -23,-28 -128,-69 -177,-69 -16,0 -54,-5 -85,-12 -53,-11 -59,-10 -89,11 -18,13 -37,34 -42,48 -12,32 -43,27 -47,-8 -4,-32 35,-81 78,-99 30,-12 44,-12 195,9 118,16 194,51 221,102 16,31 17,130 4,269 -8,86 -18,122 -72,265 -61,161 -69,187 -73,254 -5,91 -14,141 -31,168 -8,12 -14,38 -14,58 0,35 1,36 33,33 29,-3 32,-6 35,-41 2,-22 -1,-52 -7,-68 -5,-16 -6,-31 -1,-34 5,-3 13,-27 19,-54 25,-119 45,-152 154,-253 81,-75 113,-99 148,-108 24,-6 61,-18 82,-27 35,-15 44,-15 131,1 213,40 377,110 435,185 14,18 80,88 146,155 66,66 133,144 149,171 50,85 49,85 151,-14 50,-48 108,-101 130,-119 22,-18 36,-32 32,-32 -4,0 -31,19 -61,43 -74,58 -155,107 -177,107 -13,0 -19,-7 -19,-23 0,-17 11,-28 42,-44 49,-23 161,-109 178,-136 9,-15 6,-27 -15,-63 -14,-24 -30,-44 -35,-44 -6,0 -10,36 -10,80 0,73 -2,80 -20,80 -11,0 -20,-4 -20,-10 0,-5 -14,-22 -30,-37 -17,-14 -43,-52 -58,-82 -26,-55 -27,-60 -28,-246 l -1,-190 -52,-113 c -72,-157 -89,-203 -111,-297 -11,-46 -37,-127 -58,-181 -22,-55 -42,-112 -46,-129 -4,-16 -12,-33 -18,-37 -6,-3 -12,-26 -13,-50 -2,-23 -14,-74 -28,-113 -83,-233 -120,-368 -137,-502 -15,-122 -22,-148 -59,-226 -22,-48 -45,-87 -51,-87 -5,0 -24,-13 -43,-29 -18,-16 -46,-33 -61,-37 -15,-3 -56,-34 -91,-68 -147,-141 -244,-229 -281,-253 -21,-15 -62,-46 -91,-69 -61,-50 -103,-64 -195,-64 -37,0 -95,-7 -130,-15 -66,-15 -105,-12 -223,15 -54,13 -245,32 -311,31 -36,0 -43,5 -75,46 -18,25 -47,59 -63,75 -31,30 -96,126 -96,140 0,4 -11,8 -25,8 -19,0 -36,15 -74,67 -27,38 -64,79 -81,92 -41,29 -93,142 -109,233 -6,37 -25,98 -41,136 -21,51 -34,104 -45,197 -21,171 -28,201 -76,345 -40,121 -42,130 -44,270 -2,134 -6,160 -48,335 -56,228 -65,307 -47,420 15,94 3,188 -29,235 -10,14 -32,55 -49,93 -23,49 -27,67 -17,67 23,0 27,18 9,45 -11,17 -25,25 -44,25 -23,0 -37,12 -78,67 l -50,67 43,87 c 24,47 56,100 71,118 l 27,33 18,-24 c 15,-20 29,-24 96,-28 z m 2912,-69 c 25,-16 65,-34 88,-41 48,-12 60,-30 87,-122 19,-66 19,-68 6,-68 -15,0 -250,231 -250,246 0,21 19,17 69,-15 z m -3128,-247 29,-43 -21,-41 c -12,-22 -25,-42 -29,-45 -12,-7 -29,56 -37,135 -6,61 -5,64 11,51 10,-8 31,-34 47,-57 z m 3394,-30 c 8,-53 0,-71 -10,-22 -3,18 -9,41 -11,51 -3,9 -1,17 4,17 5,0 13,-21 17,-46 z M 620,2883 c -14,-461 -7,-603 37,-763 35,-125 104,-239 171,-285 l 35,-24 -27,-11 c -15,-5 -48,-10 -72,-10 -78,0 -126,37 -149,116 -40,139 -75,748 -56,982 7,81 16,165 21,187 4,22 16,77 26,123 9,45 19,80 22,77 2,-2 -1,-179 -8,-392 z m 668,300 c 18,-38 23,-57 15,-60 -6,-2 -31,-18 -54,-35 -46,-33 -59,-28 -59,25 0,31 45,127 60,127 6,0 23,-25 38,-57 z m 3031,-115 c -11,-10 -26,-18 -31,-18 -16,0 11,106 36,139 8,11 12,0 14,-45 3,-50 0,-61 -19,-76 z m 217,75 c 25,-41 28,-59 32,-158 4,-89 1,-124 -13,-166 -22,-69 -59,-117 -101,-135 -66,-28 -64,-34 -64,179 v 194 l 26,24 c 14,13 37,43 51,67 14,23 29,42 34,42 4,0 20,-21 35,-47 z M 1344,3028 c 3,-13 6,-61 6,-108 0,-64 -5,-96 -21,-129 -11,-27 -23,-41 -28,-35 -5,5 -25,56 -44,114 -29,90 -32,107 -21,121 8,8 14,21 14,27 0,7 5,12 10,12 6,0 10,-7 10,-15 0,-26 39,-18 46,10 8,31 20,32 28,3 z m 2971,-48 c -16,-67 -26,-100 -30,-100 -3,0 -5,28 -5,63 0,57 2,63 21,63 16,0 19,-5 14,-26 z m 25,-170 c 0,-47 -3,-60 -15,-60 -25,0 -28,26 -10,75 10,25 19,45 21,45 2,0 4,-27 4,-60 z m 273,-426 c 16,-16 21,12 27,131 3,68 8,126 11,130 19,19 48,-269 49,-480 0,-184 -37,-615 -54,-632 -2,-2 -22,52 -46,119 -24,68 -61,163 -82,211 -22,49 -37,91 -34,94 11,11 56,-17 68,-42 14,-30 28,-33 28,-4 0,11 5,29 11,40 8,16 7,25 -4,37 -17,19 -37,121 -40,202 -2,53 -1,55 31,69 44,20 39,47 -8,44 -59,-3 -74,-32 -66,-133 3,-47 9,-102 12,-122 9,-54 -10,-49 -74,19 l -54,57 8,56 c 10,71 10,133 0,301 l -9,136 48,12 c 61,15 94,38 131,92 l 29,42 5,-185 c 3,-103 8,-190 13,-194 z m -3248,262 c 8,-73 -11,-74 -32,-2 -11,37 -11,51 -2,62 18,21 26,7 34,-60 z m 2935,7 37,-18 7,-95 c 19,-270 20,-333 5,-328 -8,2 -44,54 -81,114 -37,60 -74,119 -82,130 -14,20 -12,29 27,118 23,53 44,96 46,96 2,0 21,-8 41,-17 z M 1405,2463 c 10,-43 24,-104 32,-137 8,-32 16,-97 19,-145 5,-84 5,-85 -12,-57 -17,30 -86,394 -78,408 13,20 23,2 39,-69 z m 2871,-241 63,-103 -15,-87 c -8,-48 -21,-119 -29,-159 -9,-44 -15,-132 -15,-225 -1,-139 -2,-151 -16,-133 -8,11 -18,31 -21,45 -4,14 -12,30 -19,35 -7,6 -32,44 -55,85 -23,41 -70,118 -105,170 l -63,95 13,50 c 7,28 30,92 49,143 20,51 45,131 57,178 11,47 23,90 26,96 6,9 23,-15 130,-190 z m -401,-817 c 6,-57 4,-62 -25,-95 l -31,-35 6,65 c 8,86 24,145 36,133 5,-5 11,-36 14,-68 z"
       id="path1" />
    <path
       d="m 2454,4836 c -10,-26 1,-51 21,-51 37,0 29,64 -8,65 -4,0 -10,-6 -13,-14 z"
       id="path2" />
    <path
       d="m 2254,4826 c -7,-19 3,-36 22,-36 10,0 14,8 12,22 -4,26 -26,36 -34,14 z"
       id="path3" />
    <path
       d="m 2714,4829 c -10,-17 13,-36 27,-22 12,12 4,33 -11,33 -5,0 -12,-5 -16,-11 z"
       id="path4" />
    <path
       d="m 3014,4829 c -10,-17 13,-36 27,-22 12,12 4,33 -11,33 -5,0 -12,-5 -16,-11 z"
       id="path5" />
    <path
       d="m 3085,4545 c -5,-1 -62,-15 -127,-31 l -116,-28 -74,17 c -92,22 -95,22 -200,-5 -85,-22 -87,-22 -143,-4 -57,18 -58,18 -78,-3 -23,-23 -15,-41 10,-25 12,7 32,6 70,-5 50,-13 61,-13 154,7 97,21 102,21 176,5 83,-18 124,-14 272,27 96,26 166,26 209,0 36,-22 61,-18 41,7 -24,28 -68,43 -126,42 -32,0 -62,-2 -68,-4 z"
       id="path6" />
    <path
       d="m 2484,4278 c -18,-28 67,-41 279,-43 132,-1 171,4 153,22 -3,3 -78,7 -168,8 -90,2 -185,8 -211,13 -26,5 -50,5 -53,0 z"
       id="path7" />
    <path
       d="m 3796,2629 c -59,-46 -109,-213 -104,-347 3,-76 3,-77 31,-80 19,-2 27,1 27,12 0,9 -7,16 -17,16 -14,0 -15,11 -10,93 10,142 54,267 102,289 27,12 34,38 11,38 -7,0 -25,-9 -40,-21 z"
       id="path8" />
    <path
       d="m 1870,2434 c 0,-3 7,-26 15,-52 15,-49 37,-306 28,-329 -3,-7 -2,-20 1,-29 5,-14 9,-14 22,-3 14,11 15,29 9,119 -14,215 -31,300 -62,300 -7,0 -13,-3 -13,-6 z"
       id="path9" />
    <path
       d="m 2796,2214 c -9,-24 -7,-142 3,-148 4,-3 8,20 7,52 0,31 3,69 7,85 8,29 -6,39 -17,11 z"
       id="path10" />
    <path
       d="m 3139,2130 c -9,-5 -28,-27 -44,-50 -15,-22 -30,-40 -34,-40 -3,0 -13,15 -21,32 -8,18 -20,33 -26,35 -14,5 -39,-22 -75,-81 l -30,-48 -23,21 c -19,18 -31,21 -60,16 -20,-4 -47,-16 -60,-26 -31,-24 -39,-24 -24,1 17,27 -1,56 -32,52 -13,-1 -28,2 -34,7 -6,4 -23,11 -39,15 -23,5 -34,0 -72,-35 l -46,-42 -11,31 c -13,34 -48,58 -72,49 -9,-4 -30,-26 -47,-51 l -32,-45 -18,22 c -25,31 -46,15 -92,-71 -21,-41 -45,-72 -53,-72 -9,0 -26,-24 -41,-57 -14,-32 -29,-61 -35,-64 -5,-3 -14,-37 -20,-75 -6,-38 -18,-85 -26,-104 -9,-19 -17,-65 -18,-102 -2,-43 -9,-76 -20,-93 -14,-21 -15,-31 -5,-51 6,-14 11,-35 11,-48 0,-16 10,-27 37,-40 37,-18 38,-18 58,7 13,14 32,24 45,23 18,-1 30,9 46,39 13,22 34,52 48,68 15,16 26,39 26,56 0,16 6,34 14,40 8,7 17,22 20,35 4,18 11,22 30,19 21,-4 27,3 62,88 21,50 39,88 40,83 1,-5 5,-26 9,-46 7,-47 22,-49 30,-5 7,38 43,59 86,50 23,-4 34,0 58,26 16,17 31,31 34,31 3,0 10,-14 16,-31 10,-29 12,-30 54,-24 43,7 45,6 55,-24 12,-33 48,-43 58,-16 7,17 52,30 135,40 48,5 57,3 74,-15 15,-17 26,-20 52,-15 23,4 35,2 38,-8 5,-10 15,-11 50,-3 25,6 45,16 45,23 0,7 5,13 10,13 6,0 10,-28 10,-64 0,-59 2,-65 22,-68 14,-2 24,-12 28,-28 4,-16 14,-26 28,-28 20,-3 22,-9 22,-62 0,-39 5,-64 15,-74 9,-9 15,-33 15,-65 0,-29 6,-55 14,-63 7,-8 17,-24 20,-36 5,-14 15,-22 30,-22 24,0 28,8 74,130 25,67 49,267 34,282 -6,6 -8,33 -5,63 4,33 1,55 -6,59 -7,4 -11,38 -11,86 0,60 -3,79 -15,84 -8,3 -15,14 -15,25 0,11 -4,23 -10,26 -5,3 -10,22 -10,41 0,27 -5,37 -25,46 -20,9 -28,8 -44,-6 -17,-15 -19,-15 -25,-1 -3,9 -6,32 -6,50 0,37 -22,52 -44,30 -19,-20 -26,-19 -26,3 0,48 -49,55 -90,13 -30,-30 -40,-30 -40,0 0,20 -26,49 -43,49 -7,0 -19,-5 -28,-10 z m 26,-102 c 14,-46 50,-49 90,-8 37,38 45,38 45,-4 0,-19 8,-44 19,-57 16,-20 21,-22 35,-10 15,12 19,11 33,-8 12,-17 22,-22 42,-18 24,5 28,1 39,-34 7,-21 12,-53 12,-71 0,-17 7,-40 16,-50 14,-15 17,-42 17,-160 0,-79 3,-147 7,-153 10,-12 -4,-93 -18,-107 -13,-13 -42,40 -42,76 0,14 -4,27 -9,30 -5,3 -12,36 -16,73 -7,71 -28,133 -43,133 -5,0 -14,11 -20,25 -6,14 -17,25 -24,25 -7,0 -21,14 -30,30 -9,17 -24,30 -31,30 -9,0 -17,14 -21,34 -8,44 -28,61 -54,47 -20,-11 -42,-59 -42,-91 0,-9 -13,-28 -28,-43 -29,-27 -29,-27 -47,-7 -10,11 -28,20 -41,20 -24,0 -106,-15 -164,-31 -30,-8 -37,-6 -53,13 -14,16 -30,22 -60,23 -36,0 -42,3 -45,23 -7,50 -64,49 -98,-3 -23,-36 -38,-31 -31,9 6,39 -5,46 -84,46 -33,0 -51,-5 -64,-20 -26,-29 -46,-26 -43,7 2,20 -2,28 -16,31 -22,5 -36,-14 -36,-50 0,-15 -12,-44 -26,-65 -25,-37 -28,-68 -9,-114 4,-11 -5,-26 -25,-45 -16,-16 -42,-60 -57,-97 -29,-76 -37,-84 -58,-67 -20,16 -40,0 -57,-46 -12,-35 -23,-43 -30,-22 -8,22 74,391 95,433 6,11 19,26 29,33 10,7 30,36 43,63 25,48 45,64 45,34 0,-23 34,-18 57,8 11,12 33,43 48,70 15,26 30,47 33,47 4,0 14,-13 24,-29 9,-16 25,-34 37,-40 18,-10 27,-6 65,29 61,56 77,53 115,-23 22,-44 52,-46 100,-8 48,38 57,39 64,2 12,-58 64,-45 113,29 27,41 44,51 44,26 0,-22 38,-30 64,-12 13,8 34,28 47,45 13,16 26,30 29,30 3,1 10,-14 15,-31 z"
       id="path11" />
    <path
       d="m 2995,1467 c -74,-23 -172,-60 -196,-72 -15,-8 -51,-21 -80,-29 -73,-19 -169,-63 -169,-77 0,-15 67,-3 99,18 13,8 51,23 85,33 34,10 71,22 82,28 29,16 124,50 171,62 23,6 45,15 49,21 11,18 -10,26 -41,16 z"
       id="path12" />
    <path
       d="m 2770,1076 c 0,-2 9,-23 20,-47 24,-53 25,-88 5,-136 -19,-44 -13,-54 10,-19 23,35 23,114 0,165 -10,23 -22,41 -27,41 -4,0 -8,-2 -8,-4 z"
       id="path13" />
    <path
       d="m 4652,5290 c 0,-14 2,-19 5,-12 2,6 2,18 0,25 -3,6 -5,1 -5,-13 z"
       id="path14" />
    <path
       d="m 2120,5280 c 0,-5 4,-10 9,-10 6,0 13,5 16,10 3,6 -1,10 -9,10 -9,0 -16,-4 -16,-10 z"
       id="path15" />
    <path
       d="m 4653,3884 c -3,-8 3,-25 14,-37 12,-12 33,-42 49,-67 42,-68 155,-300 150,-309 -3,-4 -2,-12 2,-18 5,-8 15,-5 32,9 l 24,20 -82,161 c -115,225 -169,293 -189,241 z"
       id="path16" />
    <path
       d="m 316,3724 c -4,-9 -4,-19 -2,-22 10,-9 36,8 36,23 0,20 -26,19 -34,-1 z"
       id="path17" />
    <path
       d="m 4350,1750 c -24,-46 -6,-264 39,-465 11,-49 25,-115 31,-145 6,-30 21,-73 35,-95 13,-22 36,-61 50,-87 27,-50 36,-56 53,-35 12,14 6,30 -52,126 -27,44 -39,81 -55,171 -12,63 -30,153 -41,200 -14,61 -20,121 -20,211 0,103 -3,128 -15,133 -8,3 -19,-3 -25,-14 z"
       id="path18" />
    <path
       d="m 1533,1278 c -14,-16 -19,-41 -21,-127 -4,-130 5,-175 38,-179 21,-4 22,-1 16,30 -16,80 -18,111 -11,173 6,62 8,65 31,59 32,-8 44,21 18,41 -31,23 -52,24 -71,3 z"
       id="path19" />
    <path
       d="m 1686,858 c -3,-18 -14,-41 -24,-53 -21,-22 -36,-82 -52,-200 -15,-108 -37,-193 -61,-233 -21,-37 -24,-58 -9,-67 38,-23 94,120 120,305 17,120 17,122 40,108 27,-17 36,-3 22,35 -6,17 -13,56 -14,84 -3,60 -12,68 -22,21 z"
       id="path20" />
    <path
       d="m 1230,440 c -21,-41 -20,-44 18,-34 16,5 22,14 22,35 0,44 -17,44 -40,-1 z"
       id="path21" />
  </g>
</svg>
