<?xml version="1.0" encoding="UTF-8" standalone="no"?>
<svg
   version="1.0"
   width="521pt"
   height="573.29059pt"
   viewBox="0 0 521 573.29059"
   preserveAspectRatio="xMidYMid"
   id="svg47"
   sodipodi:docname="neutral.svg"
   inkscape:version="1.3 (0e150ed, 2023-07-21)"
   xmlns:inkscape="http://www.inkscape.org/namespaces/inkscape"
   xmlns:sodipodi="http://sodipodi.sourceforge.net/DTD/sodipodi-0.dtd"
   xmlns="http://www.w3.org/2000/svg"
   xmlns:svg="http://www.w3.org/2000/svg">
  <defs
     id="defs47" />
  <sodipodi:namedview
     id="namedview47"
     pagecolor="#ffffff"
     bordercolor="#000000"
     borderopacity="0.25"
     inkscape:showpageshadow="2"
     inkscape:pageopacity="0.0"
     inkscape:pagecheckerboard="0"
     inkscape:deskcolor="#d1d1d1"
     inkscape:document-units="pt"
     inkscape:zoom="0.2979798"
     inkscape:cx="343.98305"
     inkscape:cy="375.86441"
     inkscape:window-width="1312"
     inkscape:window-height="449"
     inkscape:window-x="0"
     inkscape:window-y="25"
     inkscape:window-maximized="0"
     inkscape:current-layer="svg47" />
  <g
     transform="matrix(0.1,0,0,-0.1,-21,579.85932)"
     fill="#000000"
     stroke="none"
     id="g47">
    <path
       d="m 3585,5793 c -152,-34 -314,-124 -441,-246 -23,-21 -53,-44 -65,-51 -13,-6 -38,-37 -55,-69 l -30,-57 -39,40 c -21,21 -68,55 -105,74 -36,19 -75,45 -85,57 -11,11 -32,27 -47,35 -35,18 -125,18 -178,-1 -59,-21 -74,-19 -146,16 -80,40 -126,36 -234,-16 -66,-32 -81,-36 -130,-31 -30,3 -87,2 -127,-2 l -72,-8 -83,-85 c -46,-48 -98,-93 -115,-102 -30,-16 -32,-16 -38,3 -7,21 -22,25 -41,12 -5,-4 -36,-42 -67,-84 -47,-64 -67,-82 -116,-107 -33,-16 -87,-48 -120,-70 -33,-23 -70,-41 -82,-41 -14,0 -19,-5 -16,-14 3,-7 -10,-28 -29,-47 -18,-18 -41,-53 -51,-78 -24,-64 -81,-151 -99,-151 -8,0 -17,-7 -20,-14 -9,-23 -112,-97 -119,-86 -19,30 -120,-2 -202,-65 -39,-30 -49,-34 -51,-20 -5,23 -26,13 -32,-16 -5,-25 -56,-94 -98,-133 -129,-118 -168,-174 -177,-256 -3,-30 -13,-93 -21,-140 -25,-146 -40,-568 -26,-759 6,-91 18,-189 26,-216 8,-28 16,-98 19,-156 3,-58 12,-121 20,-140 8,-19 20,-81 26,-139 10,-103 28,-186 37,-177 3,2 0,26 -6,53 -6,27 -15,94 -20,149 -5,55 -16,114 -24,130 -11,21 -16,58 -16,120 0,60 -7,113 -20,160 -18,62 -20,99 -21,335 0,298 1,353 8,328 2,-10 11,-18 20,-18 12,0 14,6 8,28 -4,15 -9,61 -12,103 -5,70 -3,81 21,121 15,26 26,60 26,80 0,45 33,151 62,201 19,31 37,44 100,71 65,28 92,48 175,130 57,56 106,96 118,96 14,0 16,3 7,8 -9,6 3,21 40,52 33,29 49,37 44,25 -18,-42 -19,-75 -2,-75 9,0 16,7 16,16 0,9 10,32 22,51 l 21,35 19,-48 c 28,-75 24,-93 -38,-177 -50,-68 -63,-79 -122,-104 -75,-31 -132,-84 -212,-194 l -54,-74 42,36 c 23,19 69,65 103,102 34,37 70,72 81,78 22,12 21,9 -12,-41 -9,-14 -21,-37 -28,-52 -10,-25 -9,-28 7,-28 12,0 21,10 25,26 4,15 36,56 72,92 62,62 66,64 103,58 21,-3 41,-3 44,1 11,10 -14,33 -34,33 -16,0 -12,10 26,67 50,75 56,113 30,176 -8,20 -15,47 -15,61 0,30 39,77 97,117 41,29 45,30 57,13 12,-16 19,-12 85,40 39,32 106,78 149,103 155,93 394,193 459,193 72,0 146,-44 159,-93 8,-36 29,-51 109,-83 39,-15 83,-36 99,-47 l 28,-20 -88,-32 c -49,-18 -108,-42 -130,-54 l -41,-22 -94,21 c -52,11 -110,27 -129,34 -22,9 -87,15 -170,17 l -135,3 -65,-44 c -88,-60 -183,-153 -178,-176 5,-27 27,-28 37,-1 20,52 211,204 241,191 8,-4 71,-10 140,-14 85,-5 156,-16 223,-34 120,-32 139,-32 191,-2 42,25 185,76 212,76 32,0 23,-30 -31,-106 -64,-89 -109,-173 -136,-254 -9,-30 -24,-73 -32,-94 l -15,-40 -148,-3 c -200,-4 -342,-18 -371,-36 -6,-4 -13,-1 -16,5 -3,10 -9,11 -26,1 -11,-7 -28,-13 -36,-13 -8,0 -15,-4 -15,-10 0,-13 3,-13 35,2 21,10 28,9 35,-2 7,-12 12,-11 28,3 11,10 36,17 63,18 24,0 91,6 149,13 84,10 289,12 296,3 1,-1 4,-26 6,-55 l 5,-53 -49,-25 c -28,-14 -51,-24 -53,-22 -1,2 -8,13 -14,26 -14,27 -31,28 -81,2 l -40,-20 v 21 c 0,23 -15,23 -79,-2 -27,-11 -35,-11 -38,-1 -6,17 -21,15 -50,-8 -31,-24 -43,-25 -43,-5 0,17 -9,19 -29,6 -10,-7 -19,-4 -27,7 -11,16 -14,15 -32,-1 -17,-15 -21,-16 -32,-2 -9,10 -17,12 -30,5 -17,-9 -19,-4 -25,48 -4,31 -11,71 -16,89 -18,56 -1,129 42,181 44,53 77,71 132,72 24,0 53,10 79,27 33,23 53,28 102,28 44,1 79,9 126,29 36,16 82,31 103,33 20,3 37,10 37,15 0,15 -55,2 -140,-33 -57,-24 -89,-31 -130,-30 -46,1 -64,-4 -103,-29 -28,-17 -61,-30 -80,-30 -77,0 -135,-40 -173,-119 -14,-29 -15,-48 -8,-115 4,-45 7,-126 6,-180 -1,-95 -3,-101 -36,-150 -36,-53 -47,-82 -68,-180 -15,-68 -38,-87 -38,-33 0,19 10,56 21,82 21,49 22,75 4,185 -5,33 -3,37 46,72 42,30 49,39 35,44 -11,4 -33,-5 -62,-25 l -44,-32 v 24 c 0,14 17,57 37,96 l 37,72 -13,67 c -15,77 -46,156 -69,174 -8,7 -13,9 -11,3 3,-5 15,-30 26,-55 12,-25 29,-77 38,-115 l 16,-71 -36,-68 c -19,-37 -35,-82 -35,-99 0,-26 -9,-41 -51,-78 -66,-58 -59,-85 8,-34 25,19 49,35 53,35 4,0 13,-29 20,-65 11,-58 10,-71 -5,-112 l -18,-46 -108,6 -109,7 -6,-26 c -6,-22 -8,-23 -23,-11 -9,8 -23,16 -31,19 -8,3 -22,19 -31,34 -16,27 -16,32 3,81 11,32 27,54 39,58 10,4 19,15 19,26 0,32 28,89 44,89 16,0 58,81 99,190 13,36 28,74 32,85 6,15 5,17 -4,9 -7,-6 -27,-52 -46,-103 -41,-111 -74,-171 -92,-171 -15,0 -43,-57 -43,-86 0,-9 -11,-25 -25,-36 -13,-10 -30,-37 -36,-59 -12,-37 -31,-50 -44,-30 -3,5 -20,13 -37,16 -18,4 -49,25 -70,46 -30,30 -38,47 -39,76 l -1,38 -12,-49 c -11,-45 -15,-49 -60,-66 -54,-21 -61,-29 -112,-117 -20,-35 -40,-63 -45,-63 -5,0 -9,15 -9,33 -1,27 -5,21 -25,-37 -31,-87 -31,-99 0,-61 14,17 25,27 25,24 0,-9 -46,-121 -76,-184 -28,-58 -29,-65 -30,-225 -1,-91 -7,-203 -13,-250 -21,-157 -12,-540 13,-540 8,0 10,63 7,221 -3,196 9,395 26,422 2,4 16,-15 30,-43 28,-57 28,-116 0,-175 -22,-46 -40,-259 -28,-323 8,-41 7,-70 -4,-125 -8,-40 -16,-149 -19,-243 -5,-176 -6,-184 -56,-272 l -18,-33 -18,53 c -17,49 -19,51 -22,23 -2,-16 1,-52 8,-80 11,-47 10,-53 -15,-97 -15,-26 -31,-50 -36,-53 -5,-4 -9,-16 -9,-28 v -22 l 13,21 c 6,12 25,43 41,69 28,46 29,47 41,25 15,-28 -6,-89 -42,-123 -12,-12 -23,-33 -23,-47 0,-14 -6,-48 -14,-76 -11,-43 -11,-61 -1,-105 8,-31 14,-43 14,-29 1,30 44,124 61,135 9,6 11,-7 5,-54 -9,-76 2,-184 19,-178 6,2 14,33 18,69 6,63 31,135 61,178 13,19 16,18 50,-35 32,-49 34,-57 21,-70 -9,-8 -19,-15 -24,-15 -4,0 -16,-33 -25,-73 -10,-39 -24,-84 -31,-99 -16,-31 -17,-38 -6,-38 9,0 47,104 57,158 4,18 15,36 24,42 10,5 28,35 39,67 12,32 28,67 36,78 15,19 15,19 16,-7 0,-18 9,-33 25,-44 35,-23 52,-8 25,22 -16,16 -21,30 -16,48 7,30 58,60 86,51 23,-7 84,-75 75,-84 -4,-3 -12,2 -19,12 -19,25 -26,21 -20,-11 5,-25 -9,-42 -145,-180 -83,-84 -151,-157 -151,-162 0,-5 3,-11 8,-13 7,-5 154,133 245,230 26,28 49,48 51,45 2,-4 7,-22 11,-40 6,-31 29,-52 41,-39 3,2 -3,28 -12,57 -15,45 -15,53 -2,66 12,12 21,4 65,-58 28,-40 83,-110 123,-156 l 72,-83 -28,-31 c -34,-35 -75,-58 -103,-58 -10,0 -47,21 -81,47 -69,52 -123,64 -197,44 -70,-19 -144,-98 -129,-138 4,-11 15,-3 38,28 48,61 77,79 139,85 49,5 58,3 103,-28 86,-59 105,-67 144,-61 45,7 95,35 122,70 34,44 50,25 50,-61 0,-73 13,-106 27,-69 4,10 8,46 8,80 0,35 1,63 2,63 2,0 14,-22 28,-50 30,-58 61,-90 89,-90 31,0 78,35 96,71 l 17,32 32,-48 c 17,-25 40,-63 50,-83 11,-20 46,-66 78,-102 33,-36 65,-79 71,-95 33,-82 185,-166 427,-237 110,-32 335,-28 640,11 115,15 223,51 295,98 25,16 36,20 39,11 7,-20 103,-139 108,-134 3,2 -13,27 -35,55 -57,71 -51,95 41,189 40,40 106,98 148,128 42,29 105,88 140,129 l 64,75 34,-38 c 19,-20 50,-55 70,-77 76,-84 138,-162 164,-205 29,-49 96,-124 104,-117 2,3 -18,30 -46,61 -28,31 -51,62 -51,69 0,13 -62,89 -168,206 -37,41 -73,82 -80,93 -15,20 -12,23 124,166 17,18 46,60 64,95 33,61 90,146 100,147 3,0 4,-42 2,-92 -2,-80 0,-96 18,-118 19,-25 20,-25 20,-3 0,12 -4,25 -10,28 -11,7 -13,128 -4,187 4,23 12,38 20,38 11,0 12,4 2,19 -9,15 -6,29 22,77 18,33 34,61 36,62 5,7 95,-60 101,-74 3,-8 -3,-26 -12,-42 l -18,-27 27,24 c 16,16 30,21 36,15 29,-29 59,-242 41,-296 -6,-18 -15,-66 -21,-107 -6,-41 -17,-94 -25,-118 -18,-52 -19,-63 -5,-63 15,0 60,107 60,141 0,16 9,70 20,120 11,50 19,106 18,125 -2,36 16,65 31,49 4,-6 4,-53 0,-105 -12,-143 6,-234 59,-298 53,-63 69,-76 76,-63 4,6 -15,37 -42,71 -38,47 -51,72 -58,113 -12,74 -7,206 12,317 9,57 15,135 13,195 -2,55 1,107 6,115 6,9 8,79 6,165 -4,181 5,271 25,254 22,-18 36,-1 19,24 -8,12 -15,29 -15,39 0,18 38,91 71,139 10,15 35,57 55,95 20,38 45,78 55,90 25,27 24,34 -6,34 -14,0 -25,-4 -25,-9 0,-5 -13,-14 -30,-19 l -30,-11 15,30 c 9,16 18,66 22,112 4,62 15,107 45,185 22,56 43,102 48,102 5,0 15,19 23,43 14,38 15,39 16,13 1,-18 13,-40 35,-62 l 34,-34 -25,-98 c -15,-53 -33,-106 -42,-116 -12,-14 -13,-20 -3,-23 19,-7 14,-36 -19,-106 -17,-37 -33,-91 -36,-124 -4,-32 -13,-64 -20,-72 -9,-9 -12,-23 -8,-40 4,-14 10,-70 14,-124 l 8,-98 45,-47 c 25,-26 60,-74 79,-107 29,-52 34,-71 37,-145 3,-64 0,-94 -12,-120 -15,-33 -16,-14 -1,22 10,25 -21,24 -35,-1 -5,-11 -10,-58 -10,-105 0,-76 3,-87 26,-115 22,-27 26,-40 26,-106 1,-42 4,-78 9,-80 4,-3 5,-14 2,-25 -6,-22 7,-26 24,-9 8,8 14,5 22,-10 9,-17 18,-20 39,-15 30,7 62,32 62,47 0,6 -10,1 -22,-10 -34,-32 -59,-32 -77,-2 -21,37 -9,62 24,49 60,-23 150,3 221,63 18,15 34,27 37,27 4,0 23,-11 43,-25 53,-36 112,-31 128,12 6,14 2,13 -17,-5 -13,-12 -31,-22 -41,-22 -23,0 -69,25 -87,46 -12,16 -12,17 4,11 73,-27 157,-14 211,34 33,29 117,174 115,201 0,7 -17,-22 -38,-65 -62,-128 -111,-167 -210,-167 -66,0 -78,8 -56,36 23,30 17,40 -6,10 -11,-14 -25,-26 -31,-26 -20,0 -68,42 -61,53 9,14 5,47 -7,62 -4,6 -3,35 3,67 9,51 8,60 -12,94 -12,20 -27,62 -32,91 -19,99 -44,143 -129,223 l -80,75 -25,127 c -28,144 -30,168 -13,168 9,0 9,3 1,11 -16,16 -33,2 -33,-27 0,-32 28,-183 46,-250 12,-45 24,-61 86,-115 78,-69 110,-125 128,-219 5,-29 20,-68 31,-87 21,-33 21,-39 9,-106 -7,-40 -14,-88 -15,-107 -3,-57 -16,-100 -29,-100 -6,0 -32,20 -56,45 -24,24 -47,42 -51,39 -5,-3 -13,-23 -19,-44 -10,-36 -30,-56 -30,-30 0,6 -9,10 -20,10 -11,0 -20,7 -20,16 0,8 -11,30 -25,48 -31,41 -31,60 1,152 23,63 26,86 22,157 -4,73 -9,92 -42,153 -21,38 -56,88 -78,110 -34,35 -37,42 -22,48 15,6 16,14 8,69 -4,34 -8,114 -8,177 0,107 3,120 32,187 18,39 32,82 32,96 0,29 21,49 47,46 10,-1 25,0 33,4 8,3 27,8 42,11 l 26,6 -18,-59 c -10,-32 -20,-64 -24,-69 -10,-17 -38,-193 -32,-200 14,-13 25,17 35,93 13,90 23,108 39,68 25,-61 30,-111 16,-139 -18,-33 -18,-44 0,-44 10,0 15,-23 18,-88 7,-124 32,-176 95,-204 27,-12 75,-48 108,-82 53,-53 64,-71 88,-144 l 27,-82 -20,-33 c -23,-38 -26,-67 -6,-67 20,0 29,17 14,24 -7,4 -2,4 12,1 14,-2 34,-5 45,-5 13,-1 3,-10 -28,-26 -27,-14 -47,-28 -44,-30 3,-3 24,4 48,17 24,12 77,26 118,31 42,5 95,18 120,29 24,10 50,19 58,19 7,0 18,12 24,26 5,15 21,40 34,56 14,16 25,34 25,39 0,16 -28,10 -42,-9 -18,-25 -73,-62 -91,-62 -47,0 -106,131 -128,284 -6,43 -25,119 -43,170 -25,69 -31,100 -26,128 4,20 3,35 -2,32 -4,-3 -8,-12 -8,-20 0,-8 -4,-14 -9,-14 -20,0 -24,90 -7,153 8,34 25,103 37,152 31,128 27,119 43,106 11,-9 16,-5 25,20 6,18 11,43 11,57 0,25 -1,25 -15,6 -18,-24 -18,-27 0,92 8,55 28,137 45,182 36,98 39,146 10,164 -30,19 -25,63 17,175 20,54 37,114 37,133 1,33 -1,35 -33,36 -22,0 -36,6 -43,20 -6,10 -20,26 -31,35 -30,24 -25,80 17,186 20,51 36,99 36,108 0,26 -28,28 -87,6 -56,-22 -71,-19 -73,14 -19,315 -24,336 -109,395 -46,32 -59,49 -74,89 -9,27 -33,73 -53,103 -49,72 -80,134 -93,188 -21,81 -33,102 -67,116 -19,8 -45,14 -59,14 -39,0 -70,39 -96,119 -22,70 -36,90 -90,136 -13,12 -39,42 -57,69 l -33,49 -93,-7 -94,-7 -31,40 c -32,40 -61,54 -139,66 -33,5 -58,20 -102,59 -32,29 -76,58 -98,64 -38,12 -146,14 -187,5 z m 196,-43 c 21,-11 52,-34 67,-51 35,-40 64,-55 136,-68 48,-9 67,-19 108,-57 l 49,-45 88,6 87,7 32,-49 c 18,-27 49,-64 71,-81 32,-26 44,-46 65,-110 31,-93 55,-119 119,-131 62,-11 71,-21 92,-94 9,-34 31,-89 49,-122 17,-33 32,-62 34,-65 3,-7 -125,4 -131,10 -2,3 -38,50 -81,105 -87,111 -121,134 -201,135 -28,0 -56,5 -63,12 -7,7 -12,36 -12,65 0,52 -22,93 -50,93 -6,0 -29,9 -53,20 -55,26 -226,84 -303,104 -34,9 -90,16 -125,16 -97,0 -103,4 -125,68 -18,54 -21,57 -55,60 -20,2 -74,-10 -129,-29 -74,-25 -117,-33 -194,-37 -117,-5 -117,-2 -11,81 94,73 162,110 270,146 112,38 205,42 266,11 z M 2395,5555 c 46,-28 94,-31 155,-10 75,26 175,14 175,-22 0,-5 16,-26 36,-46 30,-31 43,-37 76,-37 36,0 46,-6 91,-54 l 51,-54 -17,-45 c -10,-26 -21,-49 -25,-53 -4,-4 -7,-30 -7,-57 0,-44 2,-49 20,-44 13,3 20,0 20,-9 0,-13 30,-34 49,-34 17,0 13,27 -4,34 -16,6 -21,41 -7,50 5,3 10,27 11,53 3,88 18,122 90,211 l 34,42 h 100 c 89,0 112,4 204,36 122,41 143,41 155,-1 9,-35 0,-115 -14,-115 -5,0 -21,13 -36,29 -15,15 -40,32 -57,35 -29,7 -29,6 20,-44 l 50,-51 90,3 91,3 82,-47 c 65,-38 91,-48 127,-48 58,0 106,-20 128,-54 10,-14 27,-26 39,-26 57,0 104,-26 175,-97 45,-46 80,-73 94,-73 20,0 21,-4 16,-47 -8,-58 2,-77 68,-132 113,-95 115,-98 115,-149 0,-56 5,-64 46,-85 33,-17 145,-124 171,-163 11,-18 12,-30 4,-61 -15,-54 -14,-99 4,-117 19,-18 19,-39 1,-74 -25,-50 -29,-72 -11,-72 8,0 20,11 25,24 5,13 13,27 18,30 20,12 145,-162 157,-219 9,-43 53,-142 88,-198 24,-40 28,-54 23,-90 -4,-23 -10,-118 -15,-212 -5,-114 -15,-196 -28,-250 -38,-146 -37,-135 -3,-125 27,8 30,6 30,-13 0,-21 -17,-90 -60,-252 -26,-97 -18,-168 26,-250 14,-24 50,-138 59,-182 l 6,-32 -34,32 c -19,17 -46,40 -60,50 -20,13 -27,26 -27,50 0,44 -27,196 -41,230 -8,19 -21,30 -41,34 -16,3 -37,18 -48,33 l -20,28 23,19 c 24,19 53,63 41,63 -3,0 -19,-9 -35,-21 -24,-16 -29,-18 -29,-5 0,32 26,74 86,136 66,69 82,102 51,108 -15,3 -18,0 -12,-18 5,-17 -6,-34 -59,-87 -36,-36 -66,-70 -67,-77 0,-6 -4,-2 -9,9 -15,36 -12,131 6,145 8,8 22,27 29,44 8,17 28,55 45,85 37,66 38,103 6,196 -13,39 -29,92 -35,119 -10,43 -10,50 6,62 10,7 26,14 36,14 11,0 21,8 23,18 3,9 23,27 44,40 26,15 37,27 34,37 -7,16 -23,10 -76,-27 -16,-11 -32,-17 -37,-14 -5,3 -14,28 -21,55 -6,27 -22,59 -36,72 -20,19 -24,32 -24,79 0,125 -37,231 -109,312 -22,25 -41,53 -41,62 0,9 21,39 46,66 61,65 48,86 -17,25 -46,-43 -84,-65 -114,-65 -7,0 -25,26 -39,58 -15,31 -32,68 -39,82 -15,29 -47,40 -47,16 0,-9 4,-16 9,-16 5,0 15,-17 22,-37 6,-21 16,-44 22,-51 19,-24 -2,-24 -69,-2 -51,17 -70,29 -83,52 -29,53 -35,58 -81,66 l -45,8 3,44 c 4,61 27,164 52,228 37,95 25,122 -54,122 -53,0 -114,24 -127,50 -5,8 -22,49 -39,90 -17,41 -44,87 -60,102 -34,32 -95,50 -138,42 -39,-8 -92,9 -172,56 -36,21 -85,44 -109,50 -25,7 -66,23 -93,37 -58,30 -75,27 -159,-27 -47,-30 -65,-37 -75,-29 -28,23 -94,-30 -80,-66 9,-25 35,-17 125,39 117,74 131,79 169,56 17,-11 57,-27 89,-36 32,-9 87,-33 123,-54 88,-53 111,-60 186,-60 106,0 123,-16 190,-180 27,-68 78,-100 161,-100 61,0 63,-3 33,-82 -45,-123 -65,-279 -38,-306 7,-7 23,-12 36,-12 27,0 62,-17 62,-29 0,-5 -37,-12 -82,-16 -46,-4 -128,-13 -183,-21 -193,-26 -360,-37 -532,-35 -61,2 -137,-2 -169,-8 -37,-7 -61,-8 -67,-2 -6,6 -24,7 -41,4 -26,-5 -29,-4 -20,8 6,8 14,31 18,51 4,20 11,38 16,40 5,2 14,24 21,49 11,40 10,51 -5,82 -9,20 -21,39 -26,42 -12,7 -50,84 -50,100 0,17 -29,75 -57,113 -30,40 -23,41 28,0 27,-22 36,-34 27,-39 -9,-6 -8,-12 5,-27 11,-11 15,-26 11,-37 -5,-13 -2,-16 12,-13 12,2 20,13 22,31 3,27 5,28 22,12 16,-15 27,-15 117,-3 124,16 280,13 302,-6 24,-21 91,-53 182,-86 45,-16 93,-37 105,-45 29,-19 44,-19 44,-1 0,16 -74,55 -188,97 -45,17 -95,42 -111,55 -27,22 -39,25 -143,27 -62,1 -149,-3 -192,-10 l -79,-11 -66,45 c -79,54 -111,83 -111,97 0,6 -9,26 -21,45 -31,50 -46,26 -18,-29 21,-39 21,-43 5,-52 -16,-9 -15,-12 7,-41 30,-41 61,-100 82,-160 9,-26 28,-61 42,-77 35,-42 41,-92 14,-126 -11,-15 -21,-39 -21,-55 0,-15 -4,-30 -9,-33 -12,-8 -29,39 -36,106 -4,39 -12,62 -24,70 -10,7 -26,39 -35,70 -13,47 -23,61 -49,74 -17,10 -62,49 -99,87 l -66,70 13,45 c 15,49 9,78 -25,112 -24,24 -27,14 -3,-12 16,-18 16,-23 0,-83 -9,-35 -17,-72 -17,-84 0,-32 -20,-36 -66,-11 -32,18 -47,34 -58,64 -23,61 -36,172 -29,248 7,85 14,74 -168,275 -17,19 -46,37 -71,44 -80,21 -128,41 -122,50 3,5 -4,9 -15,9 -29,0 -37,-21 -15,-37 10,-8 56,-25 100,-39 81,-24 82,-25 161,-117 44,-51 85,-102 91,-114 16,-29 15,-82 0,-88 -19,-8 -21,-104 -3,-112 9,-3 15,-19 15,-40 0,-43 -17,-35 -26,13 -4,25 -11,34 -21,30 -14,-6 -38,38 -28,54 2,4 -4,15 -15,25 -11,10 -20,31 -20,47 0,39 -21,86 -63,141 -19,25 -40,68 -47,97 -14,59 -36,63 -33,5 3,-37 22,-76 76,-153 26,-36 29,-52 34,-142 l 6,-101 -37,-53 c -36,-52 -101,-107 -162,-136 -32,-15 -86,-72 -97,-102 -3,-9 -15,-22 -26,-28 -18,-9 -21,-8 -21,10 0,31 -17,24 -36,-16 -10,-21 -28,-49 -42,-63 -13,-14 -37,-47 -54,-73 -17,-27 -33,-48 -35,-48 -19,0 61,176 119,260 67,98 64,95 92,76 14,-9 30,-16 35,-16 13,0 33,73 34,127 0,25 5,44 13,47 8,3 11,12 8,21 -4,10 14,35 55,74 60,57 60,58 50,95 -12,45 -57,97 -118,138 -25,17 -75,62 -111,99 -60,63 -69,69 -105,69 -62,0 -142,-24 -238,-69 -58,-28 -94,-40 -108,-36 -25,8 -89,-2 -89,-14 0,-14 57,-33 79,-26 17,5 21,2 21,-14 0,-12 7,-21 15,-21 9,0 15,9 15,23 0,19 18,30 118,75 88,39 129,52 164,52 45,0 50,-3 120,-72 40,-40 98,-92 129,-114 34,-26 60,-54 67,-72 10,-29 7,-35 -41,-94 l -52,-63 -41,20 c -54,27 -76,44 -103,83 -27,39 -92,74 -129,70 -15,-1 -58,8 -96,20 -80,26 -283,46 -410,41 l -84,-4 41,58 c 38,54 41,56 58,41 29,-26 72,-2 178,103 l 95,93 55,2 c 31,1 83,1 116,0 49,-2 75,4 140,32 102,44 171,48 230,11 z m 1278,-132 c -7,-2 -21,-2 -30,0 -10,3 -4,5 12,5 17,0 24,-2 18,-5 z m 337,-60 c 192,-66 244,-92 248,-121 6,-44 -3,-53 -38,-35 -17,8 -49,17 -70,20 -27,4 -41,12 -45,24 -9,28 -60,50 -129,57 -46,4 -75,14 -121,42 -33,20 -80,44 -105,53 l -45,17 80,-4 c 63,-3 110,-14 225,-53 z M 1792,5180 c 125,-10 206,-33 269,-75 35,-23 59,-20 44,5 -9,14 1,13 34,-5 16,-8 38,-30 49,-49 13,-21 43,-48 76,-67 35,-19 53,-35 49,-42 -37,-60 -52,-77 -60,-64 -12,19 -99,74 -149,93 -24,9 -44,22 -44,29 0,17 -124,124 -164,140 -53,22 -126,18 -208,-11 -161,-58 -402,-185 -492,-261 -22,-18 -31,-21 -42,-12 -10,9 -22,6 -49,-10 -40,-23 -40,-23 -20,15 8,16 15,37 15,47 0,35 178,184 256,214 14,5 14,3 3,-15 -10,-15 -10,-25 -3,-32 8,-8 22,3 48,37 25,32 49,52 74,60 46,14 162,16 314,3 z m 1175,-22 c -3,-8 -6,-5 -6,6 -1,11 2,17 5,13 3,-3 4,-12 1,-19 z m 1507,-92 c 17,-18 51,-60 76,-91 89,-115 82,-109 151,-115 67,-5 67,-5 94,-84 12,-32 27,-54 46,-65 18,-10 34,-33 45,-61 9,-25 34,-74 55,-110 53,-90 69,-141 69,-220 0,-48 4,-71 15,-80 9,-8 15,-30 15,-59 1,-95 19,-190 49,-248 32,-65 67,-180 57,-190 -3,-3 -6,0 -6,7 0,8 -8,23 -19,34 -22,25 -81,157 -81,182 0,27 -71,141 -129,207 -28,32 -51,68 -51,79 0,12 -7,29 -16,39 -14,16 -15,26 -4,84 10,56 10,68 -3,88 -34,51 -132,149 -173,173 -43,25 -44,27 -44,76 0,55 -10,68 -129,167 l -53,44 4,60 3,61 -44,16 c -62,21 -65,40 -6,40 41,0 51,-5 79,-34 z M 2636,4958 c 9,-18 25,-43 36,-55 18,-19 19,-30 13,-102 -5,-58 -13,-88 -27,-106 -16,-21 -20,-41 -20,-113 1,-54 -4,-96 -13,-112 -12,-22 -13,-17 -20,65 -4,50 -14,102 -21,117 -8,15 -14,54 -14,88 0,47 -3,60 -15,60 -20,0 -21,-110 -1,-148 8,-15 17,-74 21,-130 5,-69 12,-105 20,-109 7,-2 16,-24 20,-48 3,-25 10,-47 15,-50 6,-4 7,12 4,39 -5,33 -3,46 6,46 7,0 10,7 6,15 -3,8 1,30 9,49 8,20 15,50 15,69 0,18 6,39 13,46 10,11 10,14 0,18 -18,7 -16,63 3,84 9,10 21,54 28,106 13,95 10,94 51,19 17,-33 93,-69 131,-63 19,3 36,1 40,-4 3,-5 14,-7 24,-4 13,4 27,-5 50,-34 18,-22 47,-47 66,-56 31,-15 54,-58 54,-104 0,-7 11,-24 25,-37 20,-18 25,-33 25,-71 0,-32 8,-62 25,-90 l 24,-43 -27,-1 c -15,-1 -47,-3 -72,-6 -25,-2 -73,-4 -108,-3 l -62,1 -20,-46 c -11,-26 -20,-56 -20,-68 1,-12 10,3 20,33 11,30 20,56 20,58 0,1 24,3 53,2 28,0 90,4 136,10 83,12 85,11 103,-12 l 19,-23 -6,23 c -5,19 -2,22 19,22 14,0 27,-4 30,-8 3,-5 33,-3 68,4 75,16 170,18 184,4 6,-6 29,-6 64,1 30,5 105,12 165,14 118,5 134,7 295,29 139,20 140,20 140,-4 0,-24 6,-25 28,-4 11,12 27,15 59,11 51,-5 48,-4 57,-39 5,-24 2,-28 -60,-57 -37,-17 -75,-31 -86,-31 -11,0 -29,-5 -40,-11 -15,-8 -22,-8 -28,1 -5,8 -18,10 -35,6 -18,-5 -31,-3 -36,5 -5,9 -17,8 -51,-6 -23,-9 -49,-20 -57,-23 -9,-3 -12,-1 -7,6 10,16 -61,13 -95,-4 -15,-7 -29,-11 -32,-8 -3,3 -28,-6 -57,-21 -49,-25 -51,-25 -45,-6 8,27 -10,27 -52,1 -18,-11 -33,-15 -33,-10 0,16 -20,12 -47,-9 -13,-11 -30,-18 -38,-15 -8,3 -33,-6 -58,-20 -54,-32 -57,-32 -57,-1 0,29 -17,32 -60,10 -27,-14 -30,-14 -30,0 0,18 -12,19 -28,3 -9,-9 -12,-9 -12,0 0,20 -17,14 -55,-19 l -35,-31 v 26 c 0,26 -13,35 -25,16 -11,-18 -25,-10 -25,15 0,25 -23,35 -35,15 -12,-20 -25,-9 -19,15 8,32 2,32 -40,-6 -29,-25 -38,-28 -56,-19 -11,6 -20,19 -20,29 0,30 -12,32 -47,5 -18,-14 -38,-22 -43,-19 -6,3 -10,1 -10,-4 0,-18 36,-12 55,9 23,25 35,25 35,1 0,-10 12,-26 26,-36 25,-16 27,-16 56,12 30,27 30,28 23,4 -8,-25 -1,-26 48,-6 14,6 17,2 17,-19 0,-26 13,-35 25,-16 13,20 27,10 21,-15 -9,-35 11,-32 50,6 30,29 35,31 61,20 23,-9 36,-9 65,3 35,15 36,15 42,-9 8,-30 30,-32 74,-5 17,11 32,15 32,10 0,-17 17,-11 50,17 24,20 34,23 40,13 6,-10 15,-8 43,9 40,24 55,27 38,7 -21,-25 4,-26 56,-1 28,13 54,21 56,18 3,-2 19,3 36,11 36,19 78,21 84,4 3,-10 20,-5 60,14 48,23 57,25 57,12 0,-16 11,-16 54,1 15,7 17,5 11,-13 -8,-27 -4,-27 45,-2 22,11 48,20 59,20 10,0 43,11 73,25 29,14 60,25 69,25 16,0 39,-39 39,-65 0,-9 6,-12 15,-9 19,8 19,44 1,70 -11,15 -12,22 -3,33 10,12 9,14 -5,8 -12,-4 -18,-2 -18,8 0,11 17,8 77,-14 73,-26 78,-30 86,-64 8,-31 4,-46 -23,-103 -28,-57 -32,-73 -27,-117 3,-29 15,-76 28,-105 12,-29 20,-54 18,-56 -2,-2 -52,-7 -111,-10 -97,-7 -108,-6 -108,9 0,10 11,26 25,37 15,12 31,41 41,75 9,31 34,93 55,137 40,82 45,101 30,110 -11,7 -94,-163 -115,-239 -12,-40 -23,-59 -37,-62 -11,-3 -22,-18 -27,-37 -8,-31 -8,-31 -83,-34 -72,-2 -171,15 -299,52 -30,9 -92,16 -140,16 -63,0 -93,5 -115,18 -48,28 -288,20 -411,-13 -107,-29 -151,-31 -183,-9 l -24,17 24,12 c 22,12 19,14 -36,20 -32,4 -123,5 -202,1 -88,-5 -149,-4 -156,2 -7,6 -21,12 -32,14 -12,3 1,8 30,12 28,4 61,12 75,17 20,7 18,8 -10,3 -53,-10 -171,-7 -182,4 -5,5 -28,7 -50,4 -39,-5 -40,-4 -28,17 16,32 5,38 -30,17 -28,-16 -34,-16 -92,-1 -47,12 -87,14 -178,9 -133,-8 -170,-2 -170,25 0,23 41,61 47,44 3,-7 11,-13 19,-13 10,0 14,15 14,60 0,33 4,60 9,60 12,0 41,-29 41,-41 0,-5 18,0 40,11 47,24 50,24 50,5 0,-18 11,-19 45,-3 21,10 28,9 35,-2 7,-11 13,-10 34,4 23,14 26,14 26,1 0,-18 5,-19 32,-4 14,8 23,8 27,1 11,-18 71,36 71,64 0,14 7,38 15,55 15,28 15,30 -10,39 -15,6 -92,11 -173,11 -81,1 -160,4 -176,8 l -29,6 51,60 c 42,48 54,71 63,118 6,31 15,57 20,57 5,0 16,14 25,32 19,36 76,98 91,98 6,0 31,16 56,35 25,19 50,35 55,35 5,0 20,16 33,35 13,19 29,33 35,31 22,-8 34,18 34,71 0,29 2,53 5,53 2,0 12,-15 21,-32 z m -321,-125 c -4,-24 -10,-32 -17,-25 -6,6 -7,20 -2,33 4,13 9,27 10,32 4,20 6,21 11,9 3,-7 2,-29 -2,-49 z m 2528,-48 c 17,-48 7,-64 -11,-17 -20,51 -25,75 -14,68 6,-3 17,-26 25,-51 z m 153,-190 c 6,-16 15,-52 19,-80 l 7,-50 -42,70 c -23,39 -48,87 -56,108 l -13,37 36,-27 c 20,-15 42,-41 49,-58 z m -4276,-44 -105,-99 -12,32 c -17,46 -16,48 33,85 59,44 132,80 164,81 21,0 9,-15 -80,-99 z m 1510,0 c -5,-28 -14,-57 -20,-64 -5,-6 -19,-23 -29,-37 l -20,-25 6,25 c 7,31 65,162 70,157 2,-2 -1,-27 -7,-56 z M 574,4484 c 13,-33 6,-69 -15,-82 -18,-11 -24,-11 -40,4 -25,23 -24,33 8,66 31,32 38,34 47,12 z m 1554,-55 c -10,-36 -31,-59 -43,-47 -4,4 43,88 50,88 1,0 -2,-18 -7,-41 z M 504,4375 c 3,-8 -3,-19 -14,-25 -32,-17 -41,-12 -28,15 13,28 33,33 42,10 z m -101,-40 c -10,-13 -22,-25 -27,-25 -5,0 1,11 14,25 30,32 36,32 13,0 z m 2122,-7 c 4,-3 -1,-20 -9,-37 -9,-16 -16,-37 -16,-45 0,-23 -27,-45 -49,-39 -10,3 -22,0 -26,-7 -5,-8 -10,-8 -21,1 -8,6 -21,8 -31,4 -10,-4 -30,-7 -45,-6 -15,1 -36,-3 -47,-9 -17,-9 -21,-8 -21,5 0,19 -23,19 -59,0 -26,-13 -30,-13 -46,5 -10,11 -25,20 -33,20 -10,0 -12,7 -9,23 3,12 9,39 12,59 4,21 14,38 22,40 28,5 371,-7 378,-14 z m -443,-78 c -5,-32 -13,-46 -26,-48 -16,-3 -17,1 -11,29 8,37 37,87 42,73 2,-5 -1,-29 -5,-54 z m 3098,1 c 0,-5 -14,-45 -32,-88 -44,-106 -44,-157 0,-209 18,-21 38,-45 43,-52 7,-8 21,-11 35,-8 23,6 24,4 18,-21 -12,-49 -45,-133 -53,-133 -4,0 -12,26 -19,58 -6,31 -28,91 -48,132 -31,65 -37,90 -45,184 -5,60 -8,110 -6,111 4,4 92,33 100,34 4,1 7,-3 7,-8 z M 331,4213 c -8,-15 -10,-15 -11,-2 0,17 10,32 18,25 2,-3 -1,-13 -7,-23 z m 4337,-100 c 7,-54 19,-123 27,-153 8,-30 15,-72 15,-93 v -38 l -47,3 c -48,3 -48,4 -76,60 -42,88 -45,133 -11,206 15,34 32,62 36,62 4,0 8,14 8,30 0,17 -4,30 -10,30 -5,0 -10,5 -10,10 0,6 12,5 28,-4 26,-13 29,-21 40,-113 z m -2912,91 c -12,-31 6,-33 56,-8 49,25 52,25 65,8 7,-10 13,-21 13,-26 0,-14 29,-9 70,12 l 39,20 6,-33 c 10,-56 9,-71 -4,-104 -13,-33 -45,-46 -53,-22 -3,8 -13,7 -33,-3 -17,-9 -46,-19 -65,-23 -62,-12 -140,-38 -140,-47 0,-4 -26,-8 -58,-8 -32,0 -83,-9 -115,-20 -36,-13 -82,-20 -127,-20 -56,0 -70,-3 -70,-15 0,-24 145,-21 210,5 28,11 72,20 98,20 26,0 85,3 131,7 68,5 85,9 88,24 6,20 32,29 89,29 34,0 45,-5 58,-25 19,-29 40,-33 33,-6 -4,18 4,19 137,23 77,3 148,1 156,-3 9,-5 -14,-9 -56,-9 -51,0 -75,-4 -84,-15 -7,-8 -19,-15 -26,-15 -8,0 -14,-4 -14,-10 0,-5 16,-10 35,-10 45,0 48,-14 43,-167 -4,-99 -10,-134 -37,-217 -18,-55 -39,-138 -46,-185 -7,-47 -27,-117 -43,-156 -28,-64 -34,-71 -75,-87 -24,-9 -89,-24 -143,-33 -54,-9 -112,-21 -129,-26 -48,-16 -194,-32 -270,-30 -38,1 -107,-3 -152,-10 -75,-11 -85,-10 -102,5 -10,9 -47,21 -81,27 -35,5 -66,12 -70,14 -4,2 -13,22 -20,45 -13,38 -130,170 -151,170 -5,0 -9,11 -9,25 0,16 6,25 15,25 8,0 15,3 15,8 0,4 4,13 9,20 6,11 16,8 46,-12 50,-34 65,-33 28,2 -17,15 -38,42 -47,60 -16,32 -16,35 1,60 14,22 18,47 18,124 0,91 -6,120 -22,105 -4,-4 -9,-47 -11,-95 -5,-97 -16,-122 -30,-71 -6,19 -11,26 -11,15 -1,-10 -15,-59 -32,-109 -21,-62 -27,-92 -20,-97 6,-3 12,-29 13,-56 2,-65 8,-74 74,-120 39,-27 63,-53 80,-87 26,-51 52,-67 107,-67 18,0 45,-7 61,-15 36,-19 308,-13 466,11 58,8 125,16 150,18 25,2 86,16 135,32 50,15 96,26 104,25 8,-1 18,3 22,11 5,7 14,13 21,13 22,0 76,144 88,232 6,45 20,108 31,140 36,105 59,210 59,271 0,36 5,64 13,70 36,30 107,20 188,-26 19,-11 58,-23 87,-27 44,-6 52,-10 46,-24 -3,-9 -12,-34 -19,-57 -11,-35 -50,-119 -75,-164 -5,-8 -21,-40 -37,-70 -15,-30 -51,-92 -80,-138 -29,-46 -66,-109 -82,-140 -21,-41 -40,-63 -68,-79 -53,-30 -67,-48 -114,-138 -31,-62 -39,-88 -39,-132 0,-30 -6,-67 -14,-81 -8,-15 -17,-34 -19,-43 -4,-13 -15,-16 -50,-12 -25,3 -61,0 -81,-7 -43,-14 -97,-76 -122,-140 -9,-25 -24,-51 -32,-57 -9,-7 -16,-27 -16,-45 -1,-67 25,-223 44,-266 18,-39 19,-55 10,-195 -8,-131 -7,-155 7,-177 22,-35 83,-91 93,-85 4,3 48,5 96,6 86,1 92,3 166,45 45,26 90,44 108,44 17,0 53,11 80,25 l 50,25 v -23 c 0,-13 5,-39 11,-56 9,-25 9,-38 -2,-57 -11,-21 -10,-27 4,-41 16,-16 19,-16 44,3 33,25 41,49 42,127 1,39 -5,69 -16,88 -16,28 -16,29 7,54 13,14 29,25 36,25 7,0 25,22 40,50 15,27 31,50 36,50 4,0 8,6 8,14 0,8 13,23 30,32 44,27 73,101 78,204 5,108 -5,135 -60,159 -82,35 -191,0 -243,-77 -25,-37 -33,-82 -15,-82 6,0 15,12 21,28 33,88 135,133 227,101 37,-13 48,-49 39,-137 -9,-92 -27,-136 -59,-140 -14,-2 -32,-10 -39,-18 -10,-12 -9,-13 7,-8 14,4 15,3 5,-4 -7,-5 -22,-7 -32,-5 -15,4 -23,-5 -39,-38 -11,-24 -20,-54 -20,-67 0,-32 -89,-114 -165,-151 -103,-52 -261,-110 -327,-121 -97,-15 -123,-13 -157,16 l -31,26 v 108 c 0,154 31,327 74,410 18,36 55,116 82,179 32,77 57,120 75,133 15,12 25,27 22,34 -3,8 1,14 11,14 9,0 16,7 16,15 0,9 9,33 20,55 26,50 25,58 -1,34 l -22,-19 6,55 c 6,58 52,157 90,198 24,25 92,62 115,62 10,0 12,7 8,25 -7,28 21,83 113,225 31,47 67,110 80,140 64,144 103,218 128,249 l 29,33 59,-11 c 33,-7 70,-14 82,-16 20,-5 21,-10 22,-123 1,-161 28,-291 76,-379 21,-37 47,-85 59,-107 25,-45 92,-106 118,-106 30,0 19,23 -25,55 -39,29 -57,55 -132,198 -29,54 -55,182 -55,273 0,55 6,73 55,169 30,59 55,114 55,123 0,10 -25,-34 -55,-97 -31,-63 -58,-112 -61,-109 -8,9 8,108 17,108 5,0 9,7 9,15 0,8 -4,15 -10,15 -5,0 -12,16 -16,36 -5,25 -11,34 -23,32 -12,-3 -15,-12 -13,-36 3,-29 1,-32 -25,-32 -15,0 -47,5 -70,10 -23,6 -83,12 -133,14 -67,3 -101,10 -132,26 -73,38 -128,52 -175,45 -32,-5 -43,-3 -43,7 0,9 26,18 78,27 128,23 199,25 248,6 38,-14 67,-16 209,-10 150,7 165,6 165,-9 0,-12 6,-15 24,-10 15,3 39,-2 64,-15 52,-26 108,-27 197,-1 39,11 115,23 171,27 86,5 106,3 145,-14 57,-25 97,-35 111,-27 5,4 55,6 110,5 74,-2 121,-9 177,-26 103,-32 264,-60 269,-46 2,6 17,11 33,11 h 29 v -93 c 0,-52 7,-116 15,-147 31,-110 30,-123 -8,-212 -27,-66 -37,-106 -47,-198 -17,-161 -15,-157 -55,-170 -43,-14 -65,-52 -101,-182 -27,-93 -49,-144 -106,-248 -29,-54 -30,-57 -25,-160 5,-102 4,-106 -16,-115 -19,-9 -23,-21 -28,-85 -4,-62 -12,-88 -47,-152 -22,-43 -49,-90 -60,-105 -11,-16 -34,-57 -52,-93 -18,-36 -51,-92 -75,-125 -23,-33 -54,-83 -68,-112 -15,-28 -70,-98 -124,-155 -54,-57 -123,-134 -153,-171 -30,-37 -78,-83 -107,-102 -47,-32 -121,-97 -228,-201 -46,-44 -205,-126 -280,-145 -185,-45 -603,-64 -724,-33 -34,8 -73,22 -88,30 -16,7 -34,14 -41,14 -8,0 -50,16 -94,35 -89,39 -192,119 -183,142 3,9 -20,39 -58,77 -67,66 -191,260 -182,284 3,8 -4,25 -15,39 -11,14 -20,30 -20,36 0,6 -25,75 -57,153 -47,120 -65,153 -111,205 -67,78 -172,236 -172,260 0,10 -6,22 -13,26 -18,11 -43,81 -83,235 -19,73 -38,148 -43,166 -5,17 -6,32 -2,31 17,-2 67,-77 93,-141 16,-40 35,-79 42,-88 7,-8 18,-30 26,-47 13,-33 30,-36 30,-5 0,9 -7,30 -15,46 -8,15 -15,43 -15,60 0,18 -12,55 -26,82 -17,33 -28,75 -33,129 -5,48 -16,97 -29,122 -20,39 -34,88 -67,245 -8,37 -31,99 -50,139 -34,67 -35,72 -18,85 10,7 21,14 26,14 8,0 47,60 47,73 0,16 -27,6 -60,-23 -19,-16 -38,-29 -42,-30 -10,0 -28,60 -28,94 0,120 69,394 132,519 13,26 17,48 13,68 l -7,29 42,-27 c 38,-25 41,-31 37,-60 -6,-33 1,-73 12,-73 3,0 19,29 36,63 l 30,62 h 70 c 38,0 78,4 88,9 14,7 17,3 17,-25 0,-19 -3,-51 -7,-72 -6,-36 -8,-39 -34,-33 -34,6 -38,-8 -8,-24 20,-11 19,-12 -14,-53 -67,-83 -70,-102 -31,-252 14,-55 30,-121 34,-147 11,-62 55,-125 104,-150 49,-26 172,-40 311,-38 159,3 322,58 415,140 43,38 44,42 51,112 4,40 8,104 8,142 1,38 6,97 13,132 12,69 5,109 -34,191 -17,37 -26,45 -71,58 -58,17 -139,19 -200,5 -91,-20 -396,-61 -438,-58 l -44,3 3,38 c 4,57 73,192 116,230 19,16 19,18 5,30 -26,20 -22,73 7,92 21,13 28,14 40,4 13,-10 20,-10 36,0 16,10 22,10 28,1 4,-7 16,-9 28,-6 13,5 22,1 26,-10 6,-15 8,-15 31,0 19,12 25,13 26,4 0,-7 5,-2 10,11 9,22 11,23 27,8 17,-15 21,-15 52,2 45,24 64,26 56,5 z m 314,-39 c 0,-16 -6,-25 -15,-25 -15,0 -21,31 -8,43 13,14 23,6 23,-18 z m 2705,-90 c 43,-87 49,-166 20,-237 -4,-10 -18,-18 -31,-18 -22,0 -24,4 -24,43 0,23 -7,69 -15,102 -8,33 -17,96 -20,140 l -6,80 26,-30 c 14,-16 37,-52 50,-80 z M 674,3901 c 0,-86 -4,-112 -17,-125 -8,-9 -19,-25 -22,-36 -3,-11 -12,-20 -19,-20 -21,0 -45,-34 -52,-71 l -6,-34 26,35 c 30,39 52,46 50,15 -3,-43 -32,-130 -44,-130 -16,0 -43,-72 -70,-187 -11,-51 -27,-113 -33,-137 l -12,-44 -34,78 -34,77 14,78 c 10,49 12,86 7,101 -6,14 -4,43 3,74 7,27 13,61 15,75 3,35 56,170 89,227 55,95 89,130 130,132 6,1 10,-41 9,-108 z m 61,87 c 7,-17 19,-23 42,-23 18,-1 45,-10 60,-21 48,-36 44,-89 -20,-257 -30,-78 -58,-158 -62,-177 -4,-19 -14,-43 -22,-52 -10,-11 -19,-56 -25,-130 -13,-150 -34,-227 -65,-234 -13,-4 -30,-3 -40,0 -14,6 -14,9 5,27 12,11 22,30 21,42 v 22 l -9,-21 c -5,-12 -23,-36 -40,-54 -28,-28 -30,-34 -16,-42 14,-8 15,-12 1,-38 -8,-16 -15,-40 -15,-55 0,-14 -4,-25 -9,-25 -5,0 -11,-69 -15,-152 -4,-84 -12,-165 -17,-179 -8,-21 -7,-34 5,-57 19,-36 22,-178 5,-232 -6,-19 -14,-62 -19,-95 -9,-69 -41,-159 -73,-206 -24,-35 -83,-76 -95,-64 -4,4 -7,28 -7,53 0,34 7,56 24,78 28,38 40,125 41,294 0,68 6,137 15,170 8,30 15,89 15,130 0,52 3,70 10,60 7,-11 10,-6 10,22 0,20 -5,40 -11,44 -6,3 -9,15 -6,25 3,10 1,19 -3,21 -4,2 -5,30 0,63 l 7,60 2,-47 c 2,-68 16,-60 17,10 1,86 5,111 31,187 13,38 31,101 39,140 23,112 63,232 78,238 8,3 27,45 41,94 21,67 29,83 35,68 4,-11 5,-25 3,-31 -2,-7 0,-15 6,-19 14,-8 15,57 1,71 -6,6 -6,24 0,49 6,22 7,74 4,116 -9,112 23,191 51,127 z m 1189,-169 c 46,-11 51,-18 92,-117 14,-34 15,-49 6,-80 -12,-43 -19,-97 -27,-244 l -7,-107 -42,-39 c -57,-53 -78,-63 -115,-56 -19,4 -44,0 -66,-10 -19,-9 -49,-16 -67,-15 -39,3 -78,-8 -78,-22 0,-12 17,-11 25,2 4,6 21,9 39,8 17,-1 55,5 85,14 66,20 85,21 51,2 -62,-33 -153,-47 -316,-47 -138,0 -167,3 -205,19 -51,23 -97,72 -104,111 -3,15 -12,56 -21,92 -33,133 -46,210 -40,232 3,13 27,50 53,82 28,35 47,70 48,85 0,26 0,26 110,33 111,7 422,51 433,62 9,10 100,7 146,-5 z m 2556,-34 c -36,-7 -82,-20 -103,-28 -37,-16 -37,-16 -37,8 0,22 4,24 58,28 31,2 77,4 102,4 41,1 40,0 -20,-12 z m 220,5 c 0,-12 -8,-12 -35,0 -18,8 -17,9 8,9 15,1 27,-3 27,-9 z m 68,-30 c -8,-25 -13,-28 -24,-19 -24,19 -17,49 10,49 23,0 24,-2 14,-30 z m 67,-13 c 4,-18 5,-50 3,-72 -3,-37 -4,-38 -20,-21 -12,11 -18,33 -18,61 0,77 23,98 35,32 z M 661,3729 c -6,-16 -10,-18 -10,-7 -1,22 12,55 16,42 2,-6 -1,-22 -6,-35 z m 3929,32 c 0,-24 -33,-98 -50,-111 -14,-11 -22,-37 -30,-100 -9,-74 -71,-264 -91,-280 -30,-25 -97,-227 -104,-314 -7,-93 -15,-111 -50,-120 -15,-4 -25,-13 -25,-25 0,-10 -9,-47 -20,-82 -12,-35 -27,-101 -34,-146 -12,-76 -17,-86 -60,-134 -26,-29 -59,-72 -73,-96 -13,-24 -29,-43 -35,-43 -6,0 -9,37 -6,99 3,93 5,101 36,145 40,55 58,97 87,201 33,120 64,185 87,185 35,0 68,45 68,92 1,90 29,234 59,305 37,85 37,96 11,198 -22,84 -26,155 -10,155 6,0 10,7 10,15 0,19 35,33 125,50 87,16 105,17 105,6 z m 75,-1 c 30,-12 30,-30 1,-105 -8,-22 -15,-59 -16,-83 0,-38 -3,-44 -29,-53 -16,-6 -46,-31 -66,-57 -29,-38 -35,-42 -31,-22 3,14 10,59 16,100 7,48 18,82 30,95 10,11 27,46 36,78 20,62 20,62 59,47 z m 224,-65 c 19,-56 19,-61 3,-73 -14,-10 -18,-10 -24,5 -7,19 -11,139 -4,132 2,-2 13,-31 25,-64 z m 270,-218 c -20,-115 -29,-106 -24,23 2,69 8,148 12,175 7,48 8,46 14,-45 4,-53 3,-121 -2,-153 z m -409,209 c 9,-18 11,-49 5,-118 -4,-51 -8,-133 -9,-183 -1,-49 -7,-106 -13,-125 -6,-19 -16,-65 -23,-103 -14,-89 -24,-113 -49,-120 -26,-6 -26,-2 0,35 33,46 15,44 -38,-4 -26,-25 -58,-47 -70,-51 -26,-6 -26,-9 7,108 12,41 22,60 33,60 25,0 32,14 13,28 -17,13 -15,22 33,167 36,107 51,169 51,206 0,49 24,124 40,124 4,0 12,-11 20,-24 z m 90,-97 c 8,-13 8,-24 1,-32 -5,-7 -8,-66 -6,-145 2,-73 -1,-159 -6,-190 -6,-31 -13,-76 -16,-99 -5,-38 -10,-43 -45,-58 -22,-9 -42,-14 -44,-12 -5,5 15,126 32,183 8,28 14,89 14,135 0,46 4,102 10,124 5,22 10,62 10,88 0,44 1,47 20,37 11,-6 24,-20 30,-31 z M 406,3505 c -13,-65 -14,-67 -15,-27 0,24 5,64 11,90 18,68 21,21 4,-63 z m 4801,-2 c -3,-10 -5,-2 -5,17 0,19 2,27 5,18 2,-10 2,-26 0,-35 z m -293,-121 c 27,-51 20,-97 -25,-179 -44,-80 -57,-88 -40,-26 6,21 11,106 11,189 0,83 3,154 7,158 4,4 13,-20 19,-52 7,-33 19,-73 28,-90 z m -277,94 c -3,-7 -22,-66 -43,-130 l -37,-117 -24,22 c -41,39 -29,92 44,192 32,43 72,66 60,33 z M 741,3390 c -6,-28 -11,-64 -11,-80 0,-17 -4,-30 -10,-30 -5,0 -8,12 -5,28 2,15 6,49 9,75 6,50 14,72 23,63 3,-2 0,-28 -6,-56 z m 185,-7 c -8,-15 -15,-25 -16,-21 0,12 23,58 27,54 3,-2 -2,-17 -11,-33 z m 4201,-185 c -3,-7 -5,-2 -5,12 0,14 2,19 5,13 2,-7 2,-19 0,-25 z m -4392,0 c 6,-4 2,-8 -7,-8 -10,0 -18,7 -18,17 0,9 3,12 8,7 4,-5 12,-12 17,-16 z m 4374,-72 c -9,-8 -10,-7 -5,7 3,10 7,26 7,35 1,9 4,6 6,-7 3,-13 -1,-28 -8,-35 z M 805,3050 c 19,-39 42,-103 50,-143 33,-158 44,-199 66,-240 14,-27 25,-71 30,-125 4,-51 13,-90 23,-101 14,-15 39,-101 32,-109 -2,-2 -15,26 -29,62 -14,36 -41,84 -60,108 -49,61 -60,85 -68,152 -7,61 -24,91 -38,68 -5,-8 -17,1 -38,30 -36,51 -38,58 -58,168 -18,106 -19,147 -2,157 8,4 16,16 20,26 13,34 37,17 72,-53 z m -135,-27 c 0,-67 39,-237 60,-263 35,-43 90,-171 91,-209 0,-20 4,-58 8,-85 11,-65 -21,-133 -44,-96 -13,22 -27,7 -57,-57 -97,-215 -103,-225 -126,-234 -26,-10 -62,-83 -82,-166 -9,-41 -16,-53 -31,-53 -12,0 -28,-14 -40,-35 l -21,-35 -34,52 c -43,69 -43,90 0,111 40,19 71,67 116,182 17,44 44,103 60,132 36,64 50,133 27,133 -10,0 -17,-13 -22,-38 -3,-21 -19,-58 -36,-83 -33,-50 -35,-49 -14,11 8,23 15,63 15,89 0,25 3,62 6,82 l 6,35 57,-3 c 50,-4 54,-3 38,10 -9,8 -36,17 -58,21 l -40,6 6,178 c 11,341 12,346 80,350 34,3 35,2 35,-35 z m 4158,-100 c 13,-24 16,-83 5,-83 -20,-1 -52,-36 -44,-48 7,-12 12,-12 30,-1 19,12 24,10 50,-19 17,-17 39,-32 50,-32 11,0 25,-9 32,-21 13,-25 39,-178 39,-231 0,-29 6,-41 27,-55 14,-10 44,-35 66,-56 39,-37 40,-39 34,-92 -6,-55 -49,-166 -72,-185 -10,-8 -17,0 -30,37 -41,120 -108,199 -209,248 -64,31 -80,73 -80,220 -1,109 1,120 17,117 23,-4 22,14 -2,30 -11,8 -25,35 -32,61 -6,26 -15,50 -20,53 -13,7 -10,73 4,113 10,29 20,37 62,50 l 50,16 6,-50 c 3,-28 11,-60 17,-72 z m -508,-158 c 0,-28 -87,-181 -97,-171 -2,2 4,31 13,65 13,46 22,61 36,61 23,0 24,26 1,35 -17,7 -16,8 2,15 31,13 45,11 45,-5 z M 2028,2647 c 1,-4 -4,-20 -12,-35 -7,-15 -35,-78 -62,-141 -26,-63 -56,-123 -67,-134 -10,-10 -16,-21 -13,-24 3,-3 -1,-18 -9,-33 -8,-15 -17,-50 -21,-79 -6,-50 -7,-51 -22,-30 -19,27 -30,159 -13,159 8,0 9,5 3,16 -25,45 31,210 94,274 29,30 41,36 77,35 23,0 43,-3 45,-8 z m 2117,-244 c -17,-42 -21,-346 -6,-422 17,-82 15,-99 -11,-103 -17,-2 -24,-11 -26,-30 -3,-29 15,-39 24,-13 4,8 10,15 15,15 7,0 -22,-97 -37,-122 -11,-18 -44,33 -44,69 0,23 -6,33 -20,38 -34,11 -21,46 43,112 32,34 38,46 29,55 -9,9 -23,1 -61,-40 l -48,-51 -27,27 c -20,22 -26,38 -26,75 0,39 6,53 34,84 27,30 33,44 29,69 -6,40 16,92 79,186 49,72 70,93 53,51 z M 802,2350 c 6,0 9,-36 7,-97 -2,-100 6,-157 22,-147 5,3 9,56 10,117 0,86 3,106 10,87 6,-14 11,-117 12,-230 l 1,-205 -27,-53 c -15,-29 -34,-55 -42,-58 -7,-3 -32,13 -56,36 -40,38 -47,42 -85,37 l -41,-4 48,69 c 33,48 52,90 64,138 9,39 26,82 37,96 11,14 18,27 15,30 -11,11 -46,-49 -57,-99 -15,-65 -54,-137 -137,-251 -35,-48 -69,-100 -74,-114 l -10,-27 -19,25 c -39,50 -44,76 -23,112 11,19 27,33 39,33 14,0 22,12 32,45 35,117 55,161 81,175 26,13 48,53 131,243 16,36 28,51 38,47 7,-3 18,-5 24,-5 z m 149,-299 c 8,-34 20,-56 32,-60 10,-4 37,-36 60,-72 23,-35 68,-96 100,-134 45,-54 69,-96 104,-180 74,-182 83,-218 71,-261 -9,-36 -56,-94 -75,-94 -21,0 -46,30 -82,95 -37,69 -38,70 -86,76 -35,4 -54,12 -69,31 -90,107 -136,167 -169,216 -36,55 -37,57 -18,72 10,8 34,44 52,80 32,61 34,71 34,170 0,58 -4,134 -8,170 l -8,65 24,-60 c 13,-33 30,-84 38,-114 z m 4248,61 52,-73 -35,-14 c -20,-8 -59,-15 -88,-15 -47,0 -54,3 -65,26 -11,23 -8,35 25,100 41,84 34,86 111,-24 z m -1039,-24 c 0,-31 -3,-39 -11,-31 -7,7 -8,24 -4,42 9,43 15,39 15,-11 z m -210,-168 c 11,-6 20,-15 20,-20 0,-6 -18,2 -40,16 -45,30 -44,28 -28,57 11,21 12,21 20,-10 5,-18 17,-37 28,-43 z M 2485,1795 c -4,-38 -11,-74 -17,-80 -6,-7 -7,-4 -3,7 4,10 2,40 -5,67 -6,28 -9,65 -5,82 7,31 8,32 22,13 11,-14 13,-36 8,-89 z m -2105,10 27,-46 -33,-62 c -19,-34 -37,-84 -40,-111 -11,-79 -23,-30 -14,59 4,44 6,82 4,85 -10,10 -40,-19 -63,-60 -30,-53 -38,-38 -22,39 18,83 21,91 33,88 7,-1 23,15 37,36 28,42 31,41 71,-28 z m 4505,-65 c 17,-18 16,-20 -11,-44 -70,-62 -176,-87 -232,-57 -31,16 -27,37 5,36 25,0 41,17 56,60 2,6 23,-7 46,-28 49,-44 72,-39 92,18 15,40 20,42 44,15 z m -2780,0 c -27,-12 -43,-12 -25,0 8,5 22,9 30,9 10,0 8,-3 -5,-9 z m 2026,-43 c -13,-13 -15,11 -4,40 7,16 8,15 11,-6 2,-13 -1,-28 -7,-34 z m -48,-12 c -7,-21 -13,-19 -13,6 0,11 4,18 10,14 5,-3 7,-12 3,-20 z"
       id="path1" />
    <path
       d="m 2258,5453 c 7,-3 16,-2 19,1 4,3 -2,6 -13,5 -11,0 -14,-3 -6,-6 z"
       id="path2" />
    <path
       d="m 3036,4905 c -5,-13 28,-45 46,-45 17,0 7,29 -16,43 -21,14 -25,14 -30,2 z"
       id="path3" />
    <path
       d="m 3475,4663 c -63,-10 -42,-20 66,-32 61,-6 114,-10 116,-7 3,2 -7,12 -22,22 -27,18 -105,26 -160,17 z"
       id="path4" />
    <path
       d="m 3835,4575 c -17,-13 -18,-16 -5,-24 16,-11 51,6 51,24 0,16 -25,17 -46,0 z"
       id="path5" />
    <path
       d="m 4651,4509 c -30,-49 -58,-213 -39,-225 15,-10 19,0 30,77 12,93 32,143 53,135 21,-8 19,8 -4,29 -19,17 -21,16 -40,-16 z"
       id="path6" />
    <path
       d="m 4910,4021 c 0,-91 14,-142 51,-177 39,-37 54,-26 23,17 -17,25 -28,58 -34,100 -4,35 -15,80 -24,99 l -15,35 z"
       id="path7" />
    <path
       d="m 2862,4251 c -1,-29 3,-71 8,-92 6,-22 15,-56 20,-78 7,-25 22,-48 45,-65 19,-15 35,-22 35,-17 0,6 -9,15 -20,21 -42,22 -64,84 -80,225 l -7,60 z"
       id="path8" />
    <path
       d="m 2157,4113 c -12,-12 -7,-22 8,-17 8,4 15,10 15,15 0,11 -14,12 -23,2 z"
       id="path9" />
    <path
       d="m 3022,3778 c 7,-20 68,-23 68,-4 0,12 -10,16 -36,16 -24,0 -34,-4 -32,-12 z"
       id="path10" />
    <path
       d="m 3375,3744 c -44,-14 -97,-26 -117,-27 -29,-1 -38,-5 -38,-19 0,-26 48,-23 150,7 145,43 286,28 446,-49 71,-34 96,-52 113,-80 33,-53 37,-104 14,-157 -26,-58 -104,-143 -162,-176 -25,-14 -54,-33 -63,-41 -10,-8 -18,-12 -18,-8 0,4 -7,1 -15,-8 -8,-8 -15,-19 -15,-24 0,-14 -27,-34 -48,-36 -9,-1 -37,-8 -62,-15 -65,-19 -129,-22 -166,-6 -18,7 -34,11 -36,9 -3,-2 -39,3 -81,11 -61,12 -92,25 -147,61 -82,54 -113,100 -98,149 4,17 15,60 22,96 8,36 37,112 66,168 28,57 50,110 48,119 -5,24 -33,21 -34,-3 -1,-11 -22,-61 -48,-110 -25,-50 -53,-119 -61,-155 -8,-36 -20,-84 -27,-107 -10,-36 -9,-47 7,-83 36,-79 149,-149 280,-174 110,-20 263,-29 304,-16 19,5 36,8 39,6 8,-9 -221,-77 -277,-82 -43,-5 -65,-2 -90,10 -39,20 -111,14 -111,-10 0,-23 48,-36 135,-37 128,-2 264,29 390,88 39,18 84,35 102,39 17,4 55,28 85,54 29,26 73,62 96,80 23,19 40,37 37,42 -3,4 2,13 10,20 18,15 18,16 0,-44 -19,-61 -19,-100 -1,-115 11,-9 14,-1 19,41 8,63 55,159 85,173 18,8 22,18 22,56 0,37 7,55 33,90 50,67 97,139 97,150 0,20 -41,7 -57,-18 -74,-118 -148,-213 -166,-213 -15,0 -18,-5 -14,-22 5,-17 -12,-39 -86,-111 -76,-75 -107,-97 -176,-129 -46,-22 -85,-37 -87,-35 -7,7 81,81 137,115 51,31 138,124 166,176 33,62 16,176 -34,228 -44,47 -176,106 -283,128 -124,26 -187,24 -285,-6 z"
       id="path11" />
    <path
       d="m 3414,3544 c -23,-8 -60,-31 -83,-50 -78,-67 -91,-127 -41,-196 17,-22 30,-48 30,-57 1,-20 25,-53 33,-44 4,3 7,2 7,-4 0,-24 60,-36 142,-28 86,7 131,23 141,50 4,8 13,15 22,15 12,0 15,15 15,85 0,116 -16,153 -88,201 -65,43 -116,51 -178,28 z m 131,-40 c 32,-21 31,-31 -2,-37 -16,-2 -57,-12 -91,-22 -60,-16 -65,-16 -83,1 -23,21 -17,31 35,55 51,23 109,24 141,3 z m -205,-89 c 5,3 11,1 15,-5 4,-6 -6,-10 -24,-10 -35,0 -36,2 -19,33 l 13,22 3,-23 c 2,-12 7,-20 12,-17 z m 299,-12 c 19,-68 14,-96 -22,-119 -17,-11 -44,-24 -58,-27 -14,-4 -39,-19 -55,-34 -38,-35 -78,-35 -131,3 -46,31 -83,93 -83,137 0,23 4,27 29,27 50,0 93,-12 98,-29 15,-44 29,-71 37,-71 6,0 23,12 38,27 19,19 28,37 28,59 0,24 5,34 20,39 11,3 24,3 30,0 5,-3 10,-1 10,5 0,7 7,10 15,6 8,-3 15,-1 15,4 0,25 20,6 29,-27 z m -219,-9 c 0,-2 -7,-4 -15,-4 -8,0 -15,4 -15,10 0,5 7,7 15,4 8,-4 15,-8 15,-10 z m 230,-129 c 0,-9 -11,-20 -25,-25 -14,-5 -25,-13 -25,-18 0,-4 -8,-8 -17,-8 -10,0 -30,-3 -45,-7 -46,-12 -31,8 30,41 65,35 82,38 82,17 z"
       id="path12" />
    <path
       d="m 2122,3405 c -15,-19 -19,-31 -12,-33 18,-6 42,23 38,44 -3,16 -6,14 -26,-11 z"
       id="path13" />
    <path
       d="m 3310,3172 c 0,-12 101,-43 152,-47 26,-3 58,-1 70,4 16,6 4,8 -42,7 -36,-2 -70,1 -77,6 -17,14 -103,38 -103,30 z"
       id="path14" />
    <path
       d="m 3784,2735 c -4,-9 -2,-21 4,-27 15,-15 44,-1 40,19 -4,23 -36,29 -44,8 z"
       id="path15" />
    <path
       d="m 3692,2516 c -53,-57 -72,-103 -83,-196 -5,-41 -11,-100 -15,-130 -4,-35 -15,-67 -31,-88 -28,-37 -22,-63 9,-35 39,36 44,55 66,258 9,80 35,135 86,184 20,19 36,39 36,43 0,21 -31,4 -68,-36 z"
       id="path16" />
    <path
       d="m 1283,2504 c -14,-37 25,-162 66,-214 19,-23 61,-197 61,-249 0,-21 14,-28 24,-12 6,10 -20,182 -35,229 -6,18 -22,46 -36,62 -25,31 -53,114 -53,162 0,32 -17,46 -27,22 z"
       id="path17" />
    <path
       d="m 2554,2220 c -33,-13 -66,-67 -72,-116 -6,-57 13,-58 22,-2 4,24 16,52 26,63 10,11 18,24 17,29 -1,5 16,15 38,22 31,9 34,12 15,12 -14,1 -35,-3 -46,-8 z"
       id="path18" />
    <path
       d="m 3370,1990 c 0,-12 35,-31 44,-23 8,9 -14,33 -30,33 -8,0 -14,-4 -14,-10 z"
       id="path19" />
    <path
       d="m 3530,1880 c 0,-5 7,-10 16,-10 8,0 12,5 9,10 -3,6 -10,10 -16,10 -5,0 -9,-4 -9,-10 z"
       id="path20" />
    <path
       d="m 3330,1786 c 0,-9 7,-16 16,-16 17,0 14,22 -4,28 -7,2 -12,-3 -12,-12 z"
       id="path21" />
    <path
       d="m 2000,1640 c -8,-5 -12,-12 -9,-15 4,-3 12,1 19,10 14,17 11,19 -10,5 z"
       id="path22" />
    <path
       d="m 2920,1611 c 0,-5 9,-13 20,-16 25,-8 26,-22 1,-30 -11,-3 -34,-23 -52,-43 -31,-35 -83,-77 -139,-113 -27,-17 -45,-11 -100,36 -46,40 -104,58 -159,51 -50,-7 -105,-25 -151,-51 -23,-12 -33,-11 -95,11 -89,32 -168,29 -245,-10 -63,-32 -109,-67 -109,-83 -1,-18 -7,-16 -52,9 -26,14 -38,27 -34,36 4,11 -1,13 -21,9 -14,-2 -38,2 -53,9 -14,8 -33,14 -43,14 -9,0 -28,14 -42,31 -14,17 -30,27 -36,24 -16,-10 39,-74 69,-82 14,-3 44,-21 65,-40 23,-19 42,-29 46,-23 4,6 21,2 45,-10 21,-11 41,-17 46,-15 8,6 24,-33 21,-52 -2,-6 8,-15 20,-18 13,-4 37,-20 53,-36 41,-39 104,-64 210,-84 101,-19 176,-12 248,24 22,11 45,17 52,15 7,-3 16,3 19,13 8,23 57,55 138,88 34,15 67,31 73,36 17,17 -20,10 -81,-15 -53,-22 -91,-43 -204,-114 -45,-28 -80,-29 -80,-2 0,11 -4,20 -10,20 -5,0 -10,-11 -10,-24 0,-30 -37,-39 -114,-26 -130,21 -175,40 -239,101 l -61,59 34,25 c 27,20 42,25 65,20 17,-3 71,-10 120,-15 90,-8 152,-21 175,-35 15,-9 238,15 265,28 11,6 61,14 111,17 80,5 96,10 123,33 24,20 28,27 15,27 -11,0 12,27 62,74 60,56 81,70 87,60 5,-8 13,-12 18,-8 12,7 2,43 -19,67 -16,18 -52,24 -52,8 z m -366,-137 c 9,-3 16,-13 16,-21 0,-10 6,-12 19,-8 13,4 35,-5 66,-30 l 47,-35 h -36 c -19,0 -47,-5 -63,-12 -29,-12 -196,-39 -248,-40 -16,-1 -57,7 -90,17 -33,9 -89,18 -125,19 -36,2 -89,11 -119,21 -49,17 -52,19 -35,32 26,19 111,43 151,43 18,0 56,-9 85,-20 29,-11 61,-20 70,-20 10,0 22,-9 28,-20 12,-23 30,-27 30,-6 0,9 9,12 28,9 25,-4 25,-3 10,10 -25,20 -23,22 25,40 70,26 112,32 141,21 z"
       id="path23" />
    <path
       d="m 2142,1585 c -6,-14 -10,-25 -8,-25 2,0 11,11 20,25 9,14 13,25 8,25 -5,0 -14,-11 -20,-25 z"
       id="path24" />
    <path
       d="m 2233,1598 c -17,-23 -25,-44 -9,-24 9,11 22,23 28,28 9,5 9,8 2,8 -6,0 -16,-6 -21,-12 z"
       id="path25" />
    <path
       d="m 3427,1604 c -4,-4 -7,-14 -7,-23 0,-11 3,-12 11,-4 6,6 10,16 7,23 -2,6 -7,8 -11,4 z"
       id="path26" />
    <path
       d="m 2644,1574 c -18,-14 -18,-15 4,-4 12,6 22,13 22,15 0,8 -5,6 -26,-11 z"
       id="path27" />
    <path
       d="m 1598,1550 c -24,-15 -61,-78 -54,-95 8,-22 26,-18 26,4 0,11 7,26 15,35 8,8 15,19 15,25 0,6 7,11 15,11 8,0 15,7 15,15 0,17 -8,18 -32,5 z"
       id="path28" />
    <path
       d="m 1447,1413 c -4,-3 -7,-13 -7,-22 1,-13 3,-13 11,2 11,19 8,33 -4,20 z"
       id="path29" />
    <path
       d="m 2021,886 c 40,-40 146,-86 174,-76 17,6 15,10 -20,25 -43,18 -145,55 -153,55 -3,0 -3,-2 -1,-4 z"
       id="path30" />
    <path
       d="m 1616,3635 c -33,-13 -72,-27 -87,-30 -33,-7 -95,-73 -115,-121 -15,-36 -19,-74 -6,-74 4,0 6,-19 4,-42 -1,-31 5,-58 25,-97 26,-50 32,-55 87,-73 70,-23 193,-17 261,12 11,5 33,11 48,15 38,8 107,79 136,140 41,88 13,195 -63,240 -44,26 -151,55 -201,55 -16,0 -57,-11 -89,-25 z m 210,-33 c 10,-6 34,-16 52,-23 41,-15 70,-55 53,-72 -8,-8 -11,-8 -11,1 0,7 -7,12 -16,12 -8,0 -12,-4 -9,-10 8,-13 -41,-13 -125,0 -60,10 -91,18 -145,40 -11,5 -28,11 -37,14 -29,9 -21,21 25,39 46,18 178,18 213,-1 z m -283,-39 c -22,-8 -14,-21 10,-16 18,4 19,3 7,-6 -21,-15 -73,-14 -68,2 5,15 50,38 58,30 3,-3 -1,-8 -7,-10 z m 57,-33 c 0,-5 -4,-10 -10,-10 -5,0 -10,5 -10,10 0,6 5,10 10,10 6,0 10,-4 10,-10 z m 44,-6 c 22,-9 10,-24 -19,-24 -18,0 -23,4 -19,15 7,16 14,18 38,9 z m -141,-16 c 3,-10 10,-10 30,1 24,13 29,12 45,-2 9,-9 37,-19 60,-23 39,-6 42,-9 42,-37 0,-38 25,-67 58,-67 23,0 24,2 20,44 l -5,44 69,4 c 38,2 73,-1 79,-7 6,-5 9,-5 9,3 0,7 9,12 20,12 17,0 20,-7 20,-41 0,-52 -35,-116 -74,-136 -72,-37 -171,-49 -282,-34 -85,12 -113,24 -137,57 -16,21 -16,28 -6,41 11,13 10,17 -4,28 -19,14 -15,63 9,103 16,24 40,29 47,10 z m 212,-8 c 17,-7 15,-9 -12,-9 -18,-1 -33,4 -33,9 0,12 17,12 45,0 z m 50,-10 c 3,-5 -1,-10 -9,-10 -9,0 -16,5 -16,10 0,6 4,10 9,10 6,0 13,-4 16,-10 z m 62,-6 c -3,-3 -12,-4 -19,-1 -8,3 -5,6 6,6 11,1 17,-2 13,-5 z m -353,-219 c 3,-9 0,-12 -9,-9 -7,3 -16,12 -19,19 -3,9 0,12 9,9 7,-3 16,-12 19,-19 z m 116,-7 c 36,-5 103,-8 150,-5 92,6 90,-10 -4,-25 -27,-4 -52,-12 -56,-18 -4,-6 -30,-10 -61,-9 -40,2 -59,8 -74,23 -11,12 -31,29 -45,39 l -25,18 25,-6 c 14,-4 54,-11 90,-17 z"
       id="path31" />
    <path
       d="m 4807,2686 c -21,-16 -22,-26 -3,-26 8,0 17,7 20,16 9,23 4,25 -17,10 z"
       id="path32" />
    <path
       d="m 1845,4400 c -3,-5 1,-10 9,-10 9,0 16,5 16,10 0,6 -4,10 -9,10 -6,0 -13,-4 -16,-10 z"
       id="path33" />
    <path
       d="m 482,4233 c -19,-43 -30,-243 -14,-243 16,0 22,27 22,103 1,40 7,90 15,112 18,48 19,65 4,65 -5,0 -18,-17 -27,-37 z"
       id="path34" />
    <path
       d="m 5206,2873 c -9,-51 0,-114 20,-140 13,-16 14,-10 8,57 -4,41 -10,86 -14,100 -6,22 -8,20 -14,-17 z"
       id="path35" />
    <path
       d="m 4288,2450 c -12,-16 -14,-28 -8,-34 15,-15 32,7 28,35 l -3,24 z"
       id="path36" />
    <path
       d="m 4289,2323 c -12,-43 -14,-45 -20,-23 -12,48 -18,-4 -23,-224 l -6,-220 32,-68 c 17,-37 35,-68 39,-68 15,0 10,20 -15,63 -37,62 -45,115 -34,210 5,45 12,89 15,97 3,8 5,30 4,47 -2,18 8,73 21,123 16,64 19,93 12,100 -8,8 -15,-2 -25,-37 z"
       id="path37" />
    <path
       d="m 4250,1705 c 0,-8 9,-15 20,-15 18,0 20,-7 20,-87 0,-94 21,-203 46,-241 9,-13 29,-28 45,-34 51,-18 78,-107 45,-151 -13,-17 -16,-17 -77,2 -69,23 -89,26 -89,12 0,-6 -20,-13 -45,-17 -25,-3 -48,-10 -51,-15 -10,-17 -34,-9 -34,11 0,27 -40,36 -78,16 -17,-9 -43,-16 -58,-16 -20,0 -25,-4 -20,-16 3,-9 6,-18 6,-20 0,-10 28,-2 64,17 47,25 66,19 66,-20 0,-39 19,-44 51,-14 40,36 136,49 207,27 l 55,-18 22,28 c 15,18 25,24 29,17 14,-22 28,1 21,35 -5,28 -3,34 12,34 10,0 31,16 47,36 16,20 43,42 60,50 43,20 68,36 88,58 23,25 23,45 1,23 -29,-28 -76,-62 -107,-77 -16,-8 -41,-30 -55,-47 -24,-31 -51,-44 -51,-25 0,15 67,163 79,175 15,15 14,27 -2,27 -22,0 -43,-31 -67,-97 -24,-67 -33,-75 -49,-44 -6,10 -28,26 -50,35 -35,14 -42,22 -57,68 -9,29 -18,103 -21,163 -3,61 -10,116 -15,123 -15,17 -58,15 -58,-3 z"
       id="path38" />
    <path
       d="m 4804,1569 c -36,-60 -58,-85 -84,-98 -25,-11 -35,-23 -37,-41 -1,-22 -1,-22 4,-2 2,12 10,22 18,22 25,0 75,52 116,121 23,38 39,72 37,75 -3,2 -27,-32 -54,-77 z"
       id="path39" />
    <path
       d="m 3626,1354 c -15,-31 -24,-59 -21,-62 2,-3 16,21 31,52 14,32 24,60 21,62 -3,3 -17,-20 -31,-52 z"
       id="path40" />
    <path
       d="m 3355,1199 c -4,-6 0,-18 9,-27 15,-15 16,-15 16,5 0,25 -15,38 -25,22 z"
       id="path41" />
    <path
       d="m 3961,875 c 3,-14 15,-18 59,-20 79,-4 256,-52 322,-87 85,-45 162,-127 262,-277 93,-140 159,-221 182,-221 25,0 15,25 -26,65 -23,22 -83,104 -135,181 -105,157 -183,238 -276,284 -70,36 -228,78 -323,87 -62,6 -68,4 -65,-12 z"
       id="path42" />
    <path
       d="m 3803,841 c -17,-20 -39,-52 -48,-71 -19,-39 -99,-83 -170,-95 -31,-5 -50,-18 -85,-56 -44,-48 -49,-51 -140,-70 -52,-10 -96,-24 -98,-29 -2,-6 -13,-10 -25,-10 h -22 l 21,18 c 21,17 44,53 44,69 0,4 -9,-6 -21,-24 -33,-51 -93,-61 -128,-20 -26,32 -51,92 -51,124 0,30 5,35 56,59 30,14 53,28 51,31 -3,2 -30,-7 -60,-21 -76,-34 -82,-55 -42,-140 26,-55 71,-96 105,-96 40,0 21,-29 -24,-35 -24,-4 -58,-15 -75,-26 -30,-18 -91,-93 -91,-112 0,-6 -8,-19 -17,-29 -15,-17 -16,-26 -4,-95 16,-94 19,-103 38,-103 13,0 14,9 7,58 -12,83 -7,131 19,181 28,56 62,81 123,92 27,5 56,17 65,28 15,18 16,17 40,-23 13,-22 33,-58 44,-79 26,-49 100,-121 115,-112 7,4 -2,21 -27,48 -21,23 -49,59 -62,80 -12,20 -26,37 -30,37 -8,0 -46,69 -40,74 2,2 47,13 99,26 114,26 122,30 150,76 25,40 31,37 53,-26 8,-25 18,-53 22,-62 5,-12 3,-18 -7,-18 -14,0 -58,-79 -58,-105 0,-29 26,-14 39,22 8,20 25,47 39,60 l 26,24 -22,62 c -30,85 -29,93 15,100 33,6 42,2 73,-27 45,-43 77,-60 120,-62 19,-1 58,-5 85,-9 85,-12 34,19 -70,44 -72,17 -95,26 -112,48 -29,36 -29,39 6,51 21,7 38,25 54,59 14,26 37,59 51,72 27,26 34,52 14,50 -7,0 -27,-17 -45,-38 z"
       id="path43" />
    <path
       d="m 4037,783 c -8,-14 25,-83 39,-83 18,0 18,9 -1,54 -15,34 -28,45 -38,29 z"
       id="path44" />
    <path
       d="m 3880,700 c 0,-6 11,-15 25,-20 14,-5 36,-17 50,-26 26,-17 26,-17 5,-31 -17,-12 -19,-18 -9,-30 7,-8 29,-49 48,-91 81,-174 117,-241 129,-242 21,0 13,27 -39,127 -71,138 -81,163 -65,163 7,0 47,-32 90,-71 60,-56 80,-69 89,-59 9,9 -1,24 -47,66 -50,46 -56,54 -36,54 19,0 21,4 16,23 -4,12 -8,29 -9,37 -1,8 -11,24 -22,35 -11,11 -30,33 -42,49 -12,15 -27,26 -32,24 -6,-1 5,-23 24,-47 34,-43 49,-84 23,-64 -109,84 -153,113 -174,113 -13,0 -24,-5 -24,-10 z m 130,-95 c 11,-13 10,-14 -4,-9 -9,3 -16,10 -16,15 0,13 6,11 20,-6 z"
       id="path45" />
    <path
       d="m 3476,361 c -19,-21 -38,-80 -30,-92 11,-18 34,-8 34,14 0,12 7,35 15,51 25,47 14,64 -19,27 z"
       id="path46" />
    <path
       d="m 3500,285 c 0,-40 87,-228 102,-219 15,10 8,36 -32,112 -21,43 -41,90 -43,106 -5,45 -27,45 -27,1 z"
       id="path47" />
  </g>
</svg>
