<?xml version="1.0" encoding="UTF-8" standalone="no"?>
<svg
   version="1.0"
   width="520.7038pt"
   height="571.91278pt"
   viewBox="0 0 520.7038 571.91278"
   preserveAspectRatio="xMidYMid"
   id="svg52"
   sodipodi:docname="listening.svg"
   inkscape:version="1.3 (0e150ed, 2023-07-21)"
   xmlns:inkscape="http://www.inkscape.org/namespaces/inkscape"
   xmlns:sodipodi="http://sodipodi.sourceforge.net/DTD/sodipodi-0.dtd"
   xmlns="http://www.w3.org/2000/svg"
   xmlns:svg="http://www.w3.org/2000/svg">
  <defs
     id="defs52" />
  <sodipodi:namedview
     id="namedview52"
     pagecolor="#ffffff"
     bordercolor="#000000"
     borderopacity="0.25"
     inkscape:showpageshadow="2"
     inkscape:pageopacity="0.0"
     inkscape:pagecheckerboard="0"
     inkscape:deskcolor="#d1d1d1"
     inkscape:document-units="pt"
     inkscape:zoom="0.2979798"
     inkscape:cx="333.91525"
     inkscape:cy="392.64407"
     inkscape:window-width="1312"
     inkscape:window-height="449"
     inkscape:window-x="0"
     inkscape:window-y="25"
     inkscape:window-maximized="0"
     inkscape:current-layer="svg52" />
  <g
     transform="matrix(0.1,0,0,-0.1,-28,593.91281)"
     fill="#000000"
     stroke="none"
     id="g52">
    <path
       d="m 3560,5916 c -124,-44 -241,-117 -346,-218 -23,-22 -53,-45 -65,-52 -13,-6 -38,-37 -54,-69 l -31,-57 -43,44 c -24,24 -68,56 -99,71 -32,15 -62,33 -67,40 -6,7 -28,24 -49,39 -32,21 -50,26 -103,26 -35,0 -80,-7 -100,-15 -50,-21 -78,-19 -122,11 -25,16 -59,27 -93,31 -48,5 -66,1 -141,-31 -80,-35 -93,-37 -213,-41 l -128,-5 -86,-87 c -47,-49 -98,-94 -113,-102 -24,-13 -29,-13 -40,3 -19,26 -46,14 -83,-37 -16,-23 -43,-59 -58,-81 -16,-21 -45,-45 -65,-53 -19,-8 -72,-38 -116,-67 -44,-28 -89,-51 -100,-51 -12,0 -20,-7 -20,-16 0,-9 -17,-35 -37,-57 -20,-23 -42,-59 -48,-81 -6,-22 -15,-43 -20,-46 -6,-4 -19,-24 -31,-46 -11,-22 -31,-44 -44,-49 -14,-5 -25,-14 -25,-19 0,-15 -108,-92 -115,-81 -19,30 -120,-2 -206,-66 -38,-28 -49,-32 -49,-19 0,25 -24,12 -30,-16 -5,-25 -56,-94 -98,-133 -129,-118 -168,-174 -177,-256 -3,-30 -12,-92 -20,-137 -8,-45 -20,-204 -26,-353 -13,-285 -4,-498 25,-620 8,-30 17,-103 20,-162 3,-59 12,-122 20,-140 8,-18 19,-80 25,-138 10,-104 28,-180 41,-180 4,0 1,24 -7,53 -8,28 -18,97 -23,152 -4,55 -15,117 -24,137 -10,24 -16,67 -16,120 0,49 -8,112 -19,154 -20,74 -24,161 -22,498 1,158 3,177 15,160 21,-28 31,-10 18,35 -21,68 -15,161 13,206 15,23 25,55 25,76 0,46 33,151 62,203 19,31 36,44 96,69 61,25 90,46 175,128 71,69 110,99 127,99 21,1 22,3 6,9 -16,6 -11,13 35,52 36,30 51,38 45,24 -4,-11 -10,-32 -13,-47 -5,-24 -2,-28 15,-28 15,0 20,5 16,15 -3,8 4,31 16,50 l 23,36 18,-41 c 31,-70 26,-98 -37,-182 -49,-67 -63,-79 -121,-103 -75,-32 -133,-85 -213,-196 l -54,-74 45,40 c 25,22 72,68 104,103 85,92 103,98 59,17 -31,-57 -33,-65 -17,-65 11,0 25,15 36,39 9,21 42,62 72,90 51,48 58,52 98,49 32,-2 42,1 42,12 0,8 -10,16 -23,18 -30,5 -28,12 18,78 33,47 40,66 40,103 -1,25 -7,57 -15,71 -33,58 -9,106 85,174 34,24 50,31 50,22 0,-31 21,-25 77,20 170,139 513,304 631,304 61,0 123,-38 148,-91 23,-47 36,-56 126,-89 31,-12 69,-30 83,-42 l 27,-21 -89,-32 c -50,-17 -102,-38 -116,-48 -36,-24 -96,-21 -202,9 -102,30 -354,49 -390,31 -39,-20 -163,-118 -199,-157 -37,-41 -44,-64 -26,-75 13,-8 42,14 35,25 -7,12 57,73 140,135 l 70,51 135,-7 c 107,-5 156,-13 240,-37 130,-39 150,-39 214,-3 28,16 79,38 114,50 123,42 135,24 57,-84 -53,-74 -125,-204 -125,-226 0,-28 -64,-169 -79,-172 -14,-4 -14,-5 2,-6 13,-1 17,-10 17,-46 0,-25 5,-45 11,-45 20,0 -3,-21 -51,-45 -59,-30 -56,-30 -63,-5 -8,31 -35,35 -83,12 -43,-21 -44,-21 -44,-2 0,29 -13,31 -55,9 -32,-17 -42,-19 -61,-9 -19,11 -27,9 -52,-9 l -30,-21 -5,21 c -5,18 -8,19 -28,9 -17,-10 -23,-9 -30,1 -7,12 -12,12 -29,1 -16,-10 -25,-10 -35,-2 -10,8 -19,8 -33,1 -17,-9 -20,-6 -26,27 -8,51 -8,64 3,57 5,-3 22,0 37,7 22,10 28,10 32,0 3,-10 8,-10 26,1 12,8 59,18 104,21 46,4 90,10 97,12 8,3 74,10 147,14 l 133,9 -140,-5 c -77,-2 -165,-6 -195,-10 -30,-3 -68,-7 -85,-8 -16,-1 -40,-7 -52,-14 -17,-9 -22,-9 -25,0 -4,10 -10,10 -32,0 -15,-6 -33,-12 -39,-12 -22,0 -39,65 -31,117 8,56 16,74 49,107 14,14 25,29 25,35 0,13 57,31 102,31 25,0 53,9 80,27 33,23 53,28 102,28 46,1 80,9 136,33 41,18 87,32 102,32 16,0 28,5 28,11 0,16 -48,5 -145,-33 -56,-21 -94,-30 -128,-29 -37,2 -59,-4 -95,-25 -26,-16 -58,-27 -72,-26 -50,4 -114,-27 -152,-75 -44,-56 -57,-128 -38,-219 8,-38 10,-89 6,-144 -6,-74 -12,-92 -41,-135 -35,-52 -46,-82 -67,-179 -15,-68 -38,-87 -38,-33 0,19 10,56 21,82 21,49 22,76 4,185 -6,33 -3,37 44,70 28,19 51,38 51,43 0,17 -39,5 -78,-24 l -42,-31 v 25 c 0,14 17,57 37,96 l 37,72 -13,67 c -15,75 -46,155 -67,173 -9,8 -14,8 -14,1 0,-6 5,-14 10,-17 16,-10 35,-63 54,-146 l 17,-75 -36,-68 c -19,-37 -35,-82 -35,-99 0,-26 -9,-41 -51,-78 -70,-61 -58,-84 14,-28 l 52,42 12,-49 c 16,-69 15,-98 -4,-145 l -16,-41 -108,7 -108,7 -7,-26 c -5,-22 -8,-24 -21,-11 -8,8 -18,15 -23,15 -17,0 -50,44 -50,67 0,36 30,102 50,108 11,3 21,20 25,43 9,47 22,72 39,72 21,0 67,96 131,275 6,19 6,19 -9,1 -8,-10 -25,-48 -36,-85 -27,-84 -79,-181 -96,-181 -17,0 -30,-25 -39,-73 -4,-20 -13,-37 -20,-37 -13,0 -55,-75 -55,-98 0,-15 5,-16 -62,11 -73,30 -118,77 -119,126 -1,35 -1,35 -12,-13 -11,-45 -15,-49 -60,-66 -56,-21 -63,-29 -117,-125 -29,-52 -41,-65 -46,-52 -3,9 -3,29 1,45 12,48 -8,14 -32,-55 -29,-84 -29,-96 2,-58 14,17 25,27 25,24 0,-9 -46,-121 -76,-184 -28,-59 -29,-64 -30,-235 -1,-96 -7,-209 -12,-250 -22,-149 -12,-530 13,-530 10,0 12,44 8,204 -5,184 7,412 24,440 3,4 17,-14 30,-40 19,-39 23,-59 19,-102 -2,-29 -10,-60 -17,-68 -18,-22 -35,-217 -27,-314 4,-57 2,-106 -7,-150 -8,-36 -16,-142 -18,-236 -5,-175 -7,-184 -56,-271 l -18,-31 -19,51 c -18,49 -19,50 -22,22 -2,-16 1,-52 8,-80 11,-47 10,-53 -15,-97 -15,-26 -31,-50 -36,-53 -5,-4 -9,-16 -9,-28 v -22 l 13,21 c 6,12 25,43 41,69 28,46 29,47 41,25 15,-28 -3,-81 -41,-125 -13,-16 -24,-38 -24,-49 0,-12 -6,-43 -13,-71 -10,-39 -10,-62 -1,-105 7,-30 13,-44 13,-30 1,30 44,124 61,135 9,6 10,-10 6,-66 -7,-78 3,-164 19,-164 6,0 13,30 17,66 6,64 31,136 62,180 14,21 15,20 42,-22 15,-24 31,-47 36,-50 13,-8 -1,-37 -22,-44 -13,-4 -23,-27 -35,-78 -10,-40 -24,-84 -31,-99 -16,-31 -17,-38 -6,-38 9,0 47,104 57,158 4,18 15,37 25,42 10,5 24,27 31,47 6,21 21,56 32,78 l 20,40 8,-30 c 10,-35 46,-62 62,-46 7,7 3,16 -13,29 -22,18 -23,22 -10,51 14,34 37,51 68,51 21,0 98,-78 87,-88 -3,-4 -15,4 -25,18 l -19,25 5,-36 c 6,-34 3,-38 -146,-187 -106,-106 -150,-157 -146,-168 4,-12 29,6 101,73 52,48 95,91 95,94 0,6 100,109 106,109 2,0 4,-9 4,-20 0,-30 22,-70 38,-70 10,0 12,6 7,23 -22,72 -24,92 -11,105 11,11 21,3 59,-51 25,-36 80,-107 123,-157 l 78,-93 -42,-38 c -59,-56 -101,-54 -183,6 -55,40 -67,45 -115,45 -87,0 -157,-38 -191,-103 -8,-16 -12,-36 -8,-45 4,-12 13,-6 35,28 41,63 82,85 155,85 55,0 64,-3 116,-43 48,-36 63,-42 104,-42 53,0 101,24 135,68 17,21 24,24 38,15 13,-8 17,-25 16,-82 0,-51 3,-71 12,-71 16,0 27,56 22,111 -3,32 -1,38 7,24 74,-125 95,-140 152,-110 19,11 42,34 51,52 9,18 18,33 21,33 6,0 20,-22 81,-127 14,-23 53,-74 88,-113 34,-39 62,-77 62,-84 0,-7 24,-36 54,-65 54,-51 168,-111 238,-126 18,-4 47,-14 63,-23 45,-23 90,-32 195,-42 136,-12 448,10 575,42 22,5 60,14 84,19 24,5 77,27 117,48 53,29 74,36 78,26 8,-21 98,-136 103,-132 2,3 -14,28 -35,57 -55,73 -50,95 41,188 40,41 106,98 148,128 42,30 105,88 140,129 l 64,75 53,-57 c 98,-106 212,-244 212,-257 0,-7 20,-34 44,-60 25,-25 46,-52 49,-59 2,-6 7,-9 11,-6 4,4 -16,33 -43,64 -28,32 -51,64 -51,71 0,10 -116,156 -139,174 -3,3 -33,35 -65,72 l -58,68 90,98 c 51,57 105,129 126,168 20,38 49,83 64,101 l 28,32 -4,-97 c -2,-85 0,-100 17,-122 20,-25 21,-25 21,-3 0,12 -4,25 -10,28 -11,7 -13,128 -4,187 4,23 12,38 20,38 11,0 12,4 3,19 -10,15 -6,29 22,80 18,33 36,61 40,61 3,0 27,-16 53,-35 45,-35 56,-57 36,-70 -5,-3 -10,-11 -10,-17 0,-6 9,-3 20,7 25,23 33,15 54,-50 32,-99 17,-334 -29,-464 -18,-51 -19,-61 -5,-61 15,0 60,107 60,141 0,16 9,70 20,120 11,50 20,105 18,123 -1,17 3,39 8,49 9,16 12,16 22,4 9,-11 10,-38 3,-106 -7,-61 -6,-110 1,-149 5,-31 12,-67 14,-79 6,-34 104,-147 116,-135 7,7 -5,31 -39,74 -76,97 -84,175 -43,448 6,41 10,121 9,178 -2,60 2,107 8,113 6,6 8,61 5,153 -6,177 3,282 23,266 24,-20 38,-1 21,26 -22,33 -20,44 21,116 20,34 58,102 85,150 27,47 55,92 63,98 20,17 19,27 -6,33 -12,3 -22,0 -25,-8 -3,-8 -19,-18 -35,-24 l -29,-10 15,29 c 8,16 18,64 21,107 6,82 61,253 94,296 9,12 23,39 29,60 7,20 13,37 15,37 1,0 1,-19 1,-41 0,-34 6,-46 32,-68 l 32,-27 -25,-99 c -14,-55 -32,-107 -40,-117 -10,-11 -12,-18 -5,-23 18,-10 13,-39 -19,-106 -16,-35 -33,-91 -36,-124 -4,-33 -14,-66 -21,-74 -10,-9 -12,-23 -8,-40 4,-14 10,-66 14,-116 8,-98 18,-124 54,-148 14,-9 44,-51 68,-94 38,-70 43,-86 47,-159 4,-74 -14,-180 -25,-147 -2,7 1,22 7,34 14,25 2,42 -20,29 -11,-7 -16,-34 -18,-105 -4,-89 -2,-98 19,-121 25,-27 40,-100 32,-155 -3,-22 -1,-39 6,-43 6,-4 9,-12 6,-17 -11,-16 5,-31 20,-19 10,9 16,6 25,-9 8,-17 17,-20 38,-15 27,6 86,54 66,54 -6,0 -19,-9 -29,-20 -25,-28 -59,-26 -73,5 -17,37 -15,58 4,51 73,-28 149,-12 230,50 24,19 47,34 50,34 3,0 18,-9 33,-19 54,-39 111,-38 132,1 10,19 9,19 -19,-2 -36,-27 -68,-22 -109,16 -20,18 -22,24 -10,20 88,-28 161,-12 221,47 38,39 107,162 105,190 0,7 -15,-20 -33,-58 -39,-83 -88,-143 -133,-161 -39,-17 -139,-18 -148,-3 -4,6 3,21 16,35 12,13 19,24 15,24 -4,0 -17,-12 -30,-27 l -23,-26 -32,19 c -24,14 -31,24 -27,39 3,12 -1,33 -9,48 -10,19 -11,36 -4,59 14,51 11,88 -12,124 -11,19 -27,63 -34,98 -20,93 -46,136 -125,207 -79,70 -83,80 -116,262 -15,84 -15,100 -4,107 18,11 6,24 -15,17 -21,-9 -19,-37 10,-183 28,-141 39,-161 119,-223 30,-23 62,-57 70,-76 25,-52 46,-115 46,-138 0,-11 12,-44 27,-73 26,-52 26,-55 14,-119 -7,-36 -15,-88 -17,-115 -3,-51 -18,-90 -34,-90 -4,0 -26,21 -49,46 -22,25 -45,43 -50,39 -6,-3 -15,-23 -21,-45 l -10,-38 -30,15 c -17,8 -30,21 -30,28 0,7 -11,27 -25,43 -31,38 -31,57 1,146 23,62 25,82 21,162 -4,85 -7,95 -47,164 -24,41 -59,88 -78,105 -29,27 -32,33 -17,39 15,5 16,14 10,69 -5,34 -8,114 -8,177 0,107 2,120 31,187 18,39 32,83 32,97 0,29 50,71 58,48 2,-8 8,-10 15,-4 7,6 26,13 44,16 l 32,7 -19,-58 c -41,-128 -68,-259 -56,-270 14,-14 25,15 35,92 6,44 15,83 20,88 5,5 15,-10 24,-35 25,-70 27,-92 12,-122 -19,-36 -19,-46 0,-46 11,0 15,-13 15,-55 0,-63 17,-148 37,-188 8,-17 34,-37 68,-53 31,-15 76,-50 107,-82 45,-47 59,-71 81,-138 l 27,-80 -20,-39 c -25,-49 -25,-65 0,-65 22,0 27,15 8,24 -7,4 -2,4 12,1 14,-2 36,-5 50,-5 19,0 12,-6 -29,-25 -30,-14 -51,-28 -48,-31 3,-3 24,4 47,16 23,12 82,27 131,35 51,7 104,22 124,34 20,12 42,21 48,21 7,0 18,12 24,28 7,15 22,39 35,55 15,19 19,30 11,38 -7,7 -16,4 -29,-13 -25,-31 -78,-68 -97,-68 -46,0 -104,131 -128,290 -6,41 -26,116 -43,165 -26,74 -31,97 -24,129 9,44 3,63 -8,22 -9,-39 -22,-31 -29,18 -7,46 -3,71 38,226 14,52 28,108 31,123 5,22 10,26 20,18 10,-9 16,-2 28,27 8,21 12,46 8,57 -6,18 -7,18 -13,0 -16,-39 -16,-3 -2,94 9,56 29,135 45,177 36,89 39,148 10,166 -30,19 -25,65 16,171 19,51 36,110 37,132 2,39 1,40 -32,41 -24,0 -36,6 -41,20 -4,10 -17,28 -29,38 -30,27 -27,86 9,171 60,139 51,163 -46,126 -31,-11 -57,-21 -59,-21 -8,0 -18,68 -25,180 -12,174 -18,191 -93,246 -53,40 -65,54 -83,105 -12,32 -33,74 -47,93 -42,54 -77,126 -98,195 -25,87 -41,109 -86,116 -88,15 -100,27 -138,145 -13,39 -32,69 -69,105 -28,28 -64,68 -79,88 l -29,38 -94,-3 -95,-3 -25,33 c -33,41 -65,58 -133,67 -47,6 -62,14 -105,55 -28,26 -61,52 -73,59 -13,6 -68,11 -135,10 -91,0 -126,-5 -178,-23 z m 286,-11 c 17,-7 57,-36 87,-63 45,-41 65,-52 104,-58 69,-10 86,-18 126,-61 32,-34 42,-38 84,-38 26,0 67,4 89,8 l 42,8 41,-58 c 23,-31 57,-70 76,-85 24,-20 40,-47 56,-96 12,-37 29,-77 37,-90 19,-29 63,-52 100,-52 39,0 59,-25 81,-101 11,-35 33,-90 50,-122 17,-32 31,-59 31,-60 0,-1 -27,0 -60,1 l -60,4 -62,76 c -35,43 -76,94 -91,114 -30,41 -73,58 -147,58 -58,0 -70,12 -70,71 0,26 -3,55 -6,64 -9,23 -108,67 -274,122 -108,37 -155,47 -235,52 -55,4 -106,10 -112,14 -6,4 -19,30 -28,58 -25,74 -42,77 -173,32 -83,-28 -128,-37 -199,-41 -76,-4 -93,-2 -93,10 0,18 158,137 225,171 58,28 162,64 226,76 50,10 109,5 155,-14 z M 2477,5702 c 36,-26 74,-28 133,-7 82,29 196,13 188,-26 -2,-7 7,-18 19,-23 12,-6 26,-21 32,-33 9,-20 18,-23 48,-22 49,3 75,-11 117,-66 l 34,-45 -17,-45 c -9,-24 -20,-47 -24,-51 -4,-4 -7,-30 -7,-57 0,-44 2,-49 20,-44 13,3 20,0 20,-9 0,-13 30,-34 49,-34 17,0 13,27 -4,34 -16,6 -21,41 -6,50 4,3 11,37 14,76 6,77 22,111 84,186 l 37,44 h 91 c 97,0 161,14 268,56 63,26 69,26 84,11 12,-11 17,-36 18,-82 1,-75 -10,-82 -53,-36 -15,15 -39,31 -54,35 -26,6 -24,3 21,-45 l 50,-52 76,6 c 87,6 114,-1 200,-53 48,-29 73,-38 126,-42 71,-6 100,-19 115,-52 6,-15 22,-23 55,-27 65,-10 85,-22 160,-100 44,-45 74,-69 89,-69 21,0 22,-3 16,-51 l -7,-51 54,-52 c 29,-28 72,-66 95,-84 38,-30 41,-36 44,-89 l 3,-57 59,-40 c 78,-54 170,-161 161,-190 -3,-12 -8,-44 -12,-72 -4,-39 -2,-54 11,-66 20,-20 20,-41 2,-76 -25,-50 -29,-72 -11,-72 8,0 20,11 25,24 5,13 13,27 19,30 22,14 161,-185 161,-230 0,-19 58,-142 98,-208 8,-14 11,-38 7,-71 -3,-27 -10,-124 -14,-215 -5,-112 -14,-191 -28,-245 -37,-142 -37,-132 -3,-127 17,2 30,9 30,15 0,6 2,8 5,6 5,-5 -30,-161 -65,-289 -22,-80 -20,-141 6,-192 8,-16 11,-28 7,-28 -5,0 -3,-4 3,-8 12,-8 57,-134 69,-192 l 7,-35 -28,26 c -16,14 -44,36 -61,48 -27,18 -33,29 -33,59 0,58 -30,215 -45,238 -8,12 -26,25 -42,28 -15,4 -36,17 -45,29 -16,20 -15,23 19,60 40,45 36,61 -7,28 -23,-17 -30,-18 -30,-7 0,33 27,74 93,143 67,71 77,95 44,101 -11,2 -14,-2 -10,-16 6,-25 -133,-167 -141,-145 -13,32 -6,121 10,133 8,8 23,30 33,49 10,20 30,58 44,85 33,59 35,116 8,177 -11,25 -26,76 -34,114 -14,67 -14,69 6,86 12,9 27,14 35,12 7,-3 15,3 18,13 3,11 23,29 44,42 26,15 37,27 34,37 -7,16 -23,10 -77,-28 -34,-23 -38,-19 -61,55 -9,32 -25,62 -35,67 -14,8 -18,24 -20,73 -3,135 -38,233 -112,313 -21,23 -39,50 -39,59 0,9 21,39 46,66 58,62 50,89 -10,32 -45,-44 -99,-75 -122,-70 -9,2 -29,35 -46,73 -35,80 -45,95 -64,95 -15,0 -20,-26 -6,-32 5,-1 20,-28 34,-60 l 26,-56 -52,18 c -75,25 -116,48 -116,64 0,27 -36,59 -76,65 -36,6 -39,9 -42,41 -5,45 13,137 44,224 41,117 34,130 -64,139 -34,3 -73,12 -85,20 -12,8 -39,54 -61,105 -21,50 -50,102 -65,115 -32,31 -100,50 -144,42 -38,-7 -93,12 -176,62 -31,18 -74,38 -96,43 -22,6 -63,22 -91,36 -61,32 -85,29 -161,-22 -39,-26 -58,-33 -80,-28 -37,7 -86,-28 -81,-60 5,-37 36,-29 131,31 51,33 102,62 114,65 13,4 38,-3 60,-15 21,-11 60,-26 87,-33 27,-7 75,-29 106,-48 81,-50 104,-58 203,-66 67,-5 92,-11 107,-26 10,-10 38,-64 63,-119 44,-99 45,-100 93,-117 27,-9 68,-17 92,-18 49,0 51,-6 22,-82 -26,-72 -50,-189 -50,-249 0,-53 0,-53 74,-75 16,-5 31,-14 33,-20 4,-11 -38,-16 -232,-30 -38,-3 -87,-10 -107,-15 -20,-5 -40,-8 -45,-7 -4,1 -33,-2 -63,-6 -30,-5 -93,-10 -140,-11 -47,-2 -106,-6 -132,-10 -30,-5 -53,-4 -61,3 -13,11 -184,0 -220,-14 -10,-3 -24,-1 -31,5 -9,7 -25,9 -43,5 -23,-6 -26,-5 -16,7 6,8 14,31 18,52 4,20 11,37 15,37 22,0 40,113 20,125 -5,3 -10,15 -10,26 0,11 -7,22 -15,25 -15,6 -46,67 -58,114 -8,34 -84,150 -97,150 -18,0 -11,-19 25,-72 19,-28 38,-62 41,-77 10,-39 51,-128 64,-136 16,-10 34,-56 31,-80 -2,-11 -9,-27 -17,-36 -8,-9 -18,-33 -21,-53 -6,-36 -16,-45 -28,-26 -4,6 -11,41 -16,77 -6,43 -17,75 -29,88 -11,12 -20,27 -20,33 0,38 -35,94 -70,112 -21,11 -40,24 -42,29 -5,14 -96,109 -108,113 -7,2 -5,20 4,52 16,54 7,96 -27,125 -23,18 -22,-2 1,-22 17,-16 17,-20 -3,-102 -12,-47 -24,-88 -28,-91 -12,-13 -90,42 -107,76 -24,47 -42,177 -34,245 9,75 2,94 -67,171 -33,38 -75,85 -92,106 -26,29 -47,41 -111,59 -43,12 -80,29 -83,36 -5,14 -35,18 -46,6 -16,-15 32,-45 108,-68 79,-24 85,-29 146,-97 110,-123 119,-137 119,-180 0,-23 -5,-41 -13,-44 -18,-6 -17,-106 1,-112 6,-2 12,-17 12,-33 0,-37 -16,-30 -25,11 -5,21 -12,30 -23,28 -11,-2 -19,9 -27,34 -5,20 -16,43 -23,50 -6,6 -12,27 -12,44 0,45 -11,70 -58,133 -23,30 -46,75 -52,102 -12,47 -22,60 -35,40 -11,-19 18,-104 50,-146 53,-68 58,-85 63,-188 l 5,-98 -38,-55 c -21,-30 -50,-61 -65,-69 -14,-7 -33,-21 -40,-30 -8,-9 -30,-23 -50,-31 -21,-9 -49,-32 -66,-56 -16,-22 -40,-52 -54,-67 l -25,-26 -3,23 c -5,33 -20,27 -39,-18 -10,-22 -23,-40 -30,-40 -7,0 -13,-5 -13,-11 0,-5 -15,-30 -32,-54 -18,-23 -39,-51 -45,-61 -25,-38 -2,39 34,115 47,97 130,221 149,221 4,0 15,-7 25,-16 10,-9 25,-14 32,-11 16,6 40,119 30,144 -4,9 1,19 10,25 9,4 14,15 11,23 -4,10 16,37 56,75 66,66 67,67 29,141 -11,23 -46,57 -88,87 -38,28 -96,79 -130,113 l -60,62 -63,-5 c -68,-6 -98,-16 -225,-73 -60,-26 -87,-34 -100,-27 -20,10 -83,-3 -83,-17 0,-13 55,-30 78,-24 14,3 21,-2 25,-16 7,-28 27,-27 27,2 0,20 17,30 118,75 88,39 129,52 165,52 46,0 51,-3 120,-72 40,-40 95,-89 122,-108 28,-19 59,-51 69,-71 l 20,-36 -54,-62 c -42,-49 -58,-60 -74,-55 -40,11 -97,55 -117,89 -23,39 -92,76 -135,74 -16,-1 -57,8 -92,20 -63,21 -223,39 -405,44 l -87,2 36,53 c 34,51 37,53 54,37 16,-15 21,-15 55,-1 21,9 78,56 128,106 l 90,90 56,2 c 31,1 88,2 126,3 57,1 82,7 135,33 57,28 73,32 135,29 54,-2 77,-7 102,-25 z m 1373,-132 c 71,-7 132,-23 240,-60 204,-71 234,-87 238,-127 4,-37 -1,-39 -51,-18 -20,8 -47,15 -61,15 -14,0 -30,10 -41,26 -22,34 -72,54 -134,54 -39,0 -62,8 -112,38 -79,47 -113,61 -175,71 -69,12 -17,12 96,1 z M 1975,5320 c 28,-5 82,-26 120,-45 78,-39 90,-42 81,-20 -7,19 -2,19 34,0 16,-9 36,-28 44,-44 16,-29 99,-91 123,-91 19,0 16,-10 -16,-59 -22,-32 -31,-40 -37,-29 -14,21 -80,67 -126,87 -24,10 -74,49 -113,86 -145,141 -217,141 -511,0 -127,-61 -248,-132 -308,-182 -22,-18 -31,-21 -42,-12 -10,9 -22,6 -49,-10 -19,-11 -35,-16 -35,-11 0,5 4,12 10,15 5,3 14,24 20,46 15,55 59,101 163,170 84,55 128,76 99,47 -7,-7 -12,-18 -12,-25 0,-26 27,-12 60,32 20,26 47,50 65,55 36,12 359,4 430,-10 z m 1062,-12 c -3,-8 -6,-5 -6,6 -1,11 2,17 5,13 3,-3 4,-12 1,-19 z m 1507,-91 c 17,-18 52,-60 78,-93 26,-32 56,-70 66,-84 17,-20 31,-26 83,-30 67,-5 67,-5 94,-82 12,-33 26,-52 51,-67 19,-11 34,-28 34,-38 0,-10 11,-38 24,-63 112,-214 106,-197 106,-280 0,-54 4,-81 14,-89 9,-8 16,-46 21,-115 5,-76 13,-118 32,-162 60,-139 98,-273 58,-204 -39,67 -95,187 -95,203 0,37 -63,136 -149,237 -17,19 -31,46 -31,59 0,13 -7,29 -17,36 -14,11 -15,19 -5,70 7,32 12,64 12,71 0,29 -138,177 -192,205 -35,18 -37,21 -40,76 l -3,57 -88,76 -89,75 6,56 c 6,58 -3,79 -35,79 -9,0 -27,9 -40,20 l -24,19 49,1 c 42,0 52,-4 80,-33 z M 2706,5108 c 9,-18 25,-43 37,-55 18,-20 19,-31 14,-104 -5,-64 -11,-87 -28,-105 -18,-19 -21,-34 -21,-111 1,-54 -4,-97 -12,-112 -12,-22 -14,-16 -21,65 -4,49 -13,101 -21,116 -8,15 -14,54 -14,88 0,47 -3,60 -15,60 -20,0 -21,-97 -1,-145 8,-19 18,-78 22,-130 4,-54 12,-102 19,-109 7,-7 16,-28 20,-47 12,-57 25,-69 18,-16 -4,32 -2,47 6,47 6,0 10,10 10,23 -1,12 3,35 10,50 6,16 11,42 11,59 0,17 7,40 16,50 16,16 16,18 0,24 -21,8 -21,52 0,75 10,11 20,51 27,104 5,47 13,85 17,85 3,0 16,-20 27,-44 28,-57 80,-85 157,-84 54,1 58,-1 111,-51 29,-28 59,-51 65,-51 14,0 40,-61 40,-94 0,-14 10,-30 25,-40 21,-14 25,-24 25,-70 0,-41 6,-62 25,-91 15,-20 24,-39 22,-41 -6,-6 -146,-15 -210,-14 l -57,1 -20,-46 c -26,-62 -27,-125 -2,-125 11,0 27,9 37,20 23,25 35,25 35,1 0,-10 12,-26 26,-36 25,-16 27,-16 56,12 28,26 30,26 24,6 -5,-17 -3,-23 8,-23 8,0 18,5 21,10 12,20 35,10 35,-15 0,-30 7,-31 33,-7 20,17 20,16 14,-15 -9,-44 9,-43 52,1 33,34 56,37 73,12 4,-7 19,-4 43,7 43,21 45,21 45,3 0,-7 7,-20 16,-27 14,-11 22,-10 54,8 25,15 40,19 47,12 7,-7 21,-1 42,16 23,20 35,24 44,17 9,-8 21,-6 42,8 36,24 52,26 35,5 -18,-22 7,-20 66,5 26,11 49,18 52,16 2,-3 14,0 26,6 11,6 37,15 58,18 28,5 35,4 31,-7 -8,-19 12,-16 67,12 43,22 50,23 50,9 0,-16 11,-16 54,2 16,6 18,4 14,-14 -7,-27 -7,-27 39,-2 21,11 47,20 59,20 12,0 46,11 76,25 29,14 61,25 70,25 20,0 38,-29 38,-59 0,-14 5,-19 15,-15 19,8 19,44 1,70 -10,13 -11,23 -4,31 8,10 6,13 -6,13 -9,0 -16,5 -16,10 0,13 -6,14 80,-19 70,-26 75,-31 83,-64 8,-31 4,-47 -22,-100 -38,-77 -39,-115 -5,-207 14,-40 24,-73 22,-75 -2,-1 -51,-6 -110,-9 -97,-7 -108,-6 -108,9 0,10 11,26 25,37 15,12 31,41 41,75 9,31 34,93 55,137 38,77 48,116 31,116 -11,0 -106,-203 -122,-259 -7,-28 -18,-45 -31,-48 -11,-3 -22,-19 -27,-37 -8,-29 -12,-31 -58,-34 -67,-5 -209,16 -269,41 -36,14 -81,21 -160,24 -80,3 -123,10 -159,25 -45,18 -62,19 -180,13 -86,-4 -166,-15 -231,-32 -101,-25 -153,-25 -182,-1 -14,11 -12,14 13,24 28,12 27,12 -31,19 -33,5 -128,5 -212,1 -98,-4 -154,-3 -158,4 -3,5 -18,11 -33,11 -20,1 -13,5 23,14 l 50,13 -77,1 c -42,1 -79,5 -82,10 -3,5 -25,7 -47,4 -40,-6 -41,-5 -30,16 16,29 4,47 -17,28 -29,-24 -50,-27 -103,-11 -41,12 -77,14 -169,9 -133,-8 -180,-2 -180,24 0,27 37,58 52,43 22,-22 28,-12 28,48 0,66 15,79 44,38 15,-21 16,-21 51,-5 43,21 45,21 45,2 0,-18 11,-19 45,-3 21,10 28,9 35,-2 7,-11 13,-10 34,4 24,15 26,15 26,0 0,-11 5,-14 18,-9 9,4 29,8 44,10 36,2 68,32 68,62 0,13 7,38 16,55 12,23 13,32 4,38 -7,4 -95,9 -196,12 -101,2 -186,7 -190,10 -3,4 17,33 45,64 42,47 53,68 62,116 6,32 15,58 20,58 5,0 16,14 25,32 20,39 66,86 105,107 60,34 118,77 135,103 10,15 28,29 39,30 17,3 20,12 23,61 2,31 5,57 7,57 3,0 12,-15 21,-32 z m -321,-125 c -5,-27 -9,-33 -18,-24 -9,9 -9,16 1,31 6,11 12,28 13,37 0,12 2,13 6,5 3,-7 2,-29 -2,-49 z m 2520,-24 c 9,-17 15,-38 13,-47 -3,-15 -5,-14 -15,3 -13,24 -25,75 -18,75 2,0 12,-14 20,-31 z m 165,-218 c 5,-20 12,-56 15,-81 l 7,-45 -42,74 c -23,40 -48,89 -56,108 l -15,34 41,-27 c 28,-19 43,-37 50,-63 z m -4280,-40 -105,-98 -12,41 c -7,23 -13,41 -13,42 0,1 26,19 58,42 67,47 117,70 152,71 21,1 8,-15 -80,-98 z m 1514,17 c -6,-41 -46,-122 -65,-133 -4,-3 0,18 10,47 19,55 52,128 58,128 2,0 0,-19 -3,-42 z M 644,4634 c 13,-33 6,-69 -15,-82 -18,-12 -24,-11 -40,7 -24,26 -24,31 6,64 29,31 40,34 49,11 z m 1553,-56 c -12,-39 -37,-65 -37,-38 0,13 38,80 45,80 2,0 -2,-19 -8,-42 z M 573,4509 c -5,-4 -18,-10 -31,-14 l -23,-7 17,33 c 16,31 17,32 30,14 8,-10 11,-22 7,-26 z m 1550,21 c -3,-12 -8,-19 -11,-16 -5,6 5,36 12,36 2,0 2,-9 -1,-20 z M 473,4485 c -10,-13 -22,-25 -27,-25 -5,0 1,11 14,25 30,32 36,32 13,0 z m 2120,-4 c 4,-4 -4,-33 -18,-64 -20,-47 -29,-57 -49,-57 -14,0 -28,-5 -32,-11 -5,-8 -10,-6 -16,5 -9,16 -12,16 -32,2 -15,-9 -27,-11 -33,-5 -6,6 -22,5 -43,-3 -26,-8 -35,-9 -38,0 -5,16 -31,15 -61,-2 -21,-12 -26,-11 -42,5 -11,11 -26,19 -34,19 -8,0 -15,3 -15,8 1,9 19,94 24,108 5,13 375,7 389,-5 z m 1707,5 c 0,-9 7,-16 15,-16 8,0 15,5 15,10 0,6 23,10 50,10 45,0 52,-3 60,-26 6,-14 10,-29 10,-34 0,-11 -130,-71 -141,-65 -5,3 -23,-2 -40,-11 -25,-12 -33,-13 -39,-3 -5,7 -19,10 -39,6 -18,-4 -31,-2 -31,3 0,16 -28,12 -70,-10 -44,-22 -54,-25 -45,-10 10,16 -62,12 -94,-5 -16,-8 -31,-12 -34,-9 -3,3 -28,-6 -57,-21 -49,-25 -51,-25 -45,-6 8,25 -5,27 -45,6 -16,-8 -36,-12 -44,-9 -8,3 -28,-3 -43,-14 -15,-10 -33,-17 -40,-15 -7,2 -33,-8 -58,-22 -34,-20 -46,-24 -49,-13 -16,52 -13,50 -53,33 -20,-9 -39,-11 -42,-7 -12,19 -72,5 -101,-23 l -30,-29 v 27 c 0,29 -18,35 -38,15 -9,-9 -12,-6 -12,15 0,27 -22,38 -35,17 -13,-21 -24,-9 -15,15 13,34 -1,32 -44,-6 -29,-25 -38,-28 -56,-19 -12,6 -20,21 -20,35 0,31 -5,31 -46,0 -18,-14 -35,-25 -38,-25 -12,0 -6,55 10,96 l 16,42 76,5 c 43,3 104,8 137,12 54,5 61,3 78,-17 l 18,-23 -6,23 c -5,19 -2,22 19,22 14,0 27,-4 30,-9 3,-5 32,-2 63,5 68,16 175,18 189,4 6,-6 29,-6 64,1 30,5 102,12 160,14 58,3 125,7 150,10 50,5 171,24 183,28 4,1 30,3 57,5 40,2 50,0 50,-12 z m -2146,-73 c -6,-45 -17,-62 -37,-63 -12,0 2,60 20,87 22,33 25,29 17,-24 z m 3096,-12 c 0,-5 -13,-42 -29,-83 -41,-101 -46,-139 -27,-177 9,-17 20,-31 25,-31 5,0 14,-13 21,-30 13,-32 37,-44 64,-34 14,6 16,2 10,-22 -23,-98 -64,-164 -64,-104 0,19 -25,90 -73,205 -18,43 -26,87 -30,155 l -6,96 42,16 c 51,19 67,21 67,9 z M 401,4363 c -8,-15 -10,-15 -11,-2 0,17 10,32 18,25 2,-3 -1,-13 -7,-23 z m 4304,15 c 22,-10 31,-32 27,-69 -2,-13 28,-181 37,-216 6,-21 11,-55 11,-75 v -38 h -45 c -35,0 -48,5 -60,23 -21,32 -55,135 -55,166 0,26 48,133 63,139 11,6 8,57 -5,70 -15,15 -6,15 27,0 z m -2876,-20 c -5,-38 2,-39 47,-14 58,32 70,32 78,1 8,-31 30,-32 75,-4 18,11 35,18 37,16 15,-15 18,-96 5,-129 -13,-36 -44,-52 -53,-28 -2,6 -26,2 -58,-9 -30,-11 -83,-27 -117,-37 -34,-9 -60,-21 -57,-25 3,-5 -27,-9 -66,-9 -47,0 -82,-6 -103,-17 -20,-10 -65,-18 -120,-21 -59,-3 -87,-8 -84,-16 6,-19 138,-19 188,0 26,10 100,20 184,26 131,9 172,19 160,38 -8,12 22,20 75,20 40,0 50,-4 64,-26 18,-26 43,-28 38,-2 -2,12 21,16 135,21 84,4 141,3 147,-3 7,-7 -13,-10 -56,-10 -46,0 -69,-4 -78,-15 -7,-8 -19,-15 -26,-15 -8,0 -14,-4 -14,-10 0,-5 15,-10 34,-10 22,0 36,-6 40,-16 3,-9 6,-64 6,-124 0,-95 -5,-124 -36,-232 -20,-67 -42,-159 -49,-203 -7,-44 -27,-111 -43,-149 -28,-65 -33,-71 -78,-88 -26,-11 -90,-25 -143,-33 -53,-7 -109,-18 -125,-24 -50,-20 -212,-37 -296,-32 -25,2 -82,0 -127,-4 -67,-6 -88,-5 -116,9 -19,9 -44,16 -55,16 -53,0 -81,13 -94,44 -7,17 -13,36 -14,41 0,13 -133,145 -145,145 -5,0 -9,11 -9,25 0,16 6,25 15,25 8,0 15,3 15,8 0,4 4,13 9,21 7,11 14,10 37,-6 57,-39 68,-34 26,12 -32,34 -42,53 -42,79 0,19 4,36 10,38 15,5 23,90 15,163 -9,90 -25,72 -32,-36 -6,-108 -12,-124 -28,-79 -8,21 -14,27 -14,16 -1,-10 -15,-59 -32,-109 -20,-60 -27,-92 -20,-96 6,-4 12,-33 14,-65 4,-64 3,-62 91,-124 31,-21 53,-46 65,-75 21,-48 52,-67 109,-67 21,0 48,-7 61,-16 19,-14 38,-15 115,-9 50,4 120,7 156,6 36,0 117,6 180,15 63,9 135,17 160,19 44,4 70,10 175,43 28,9 57,15 66,14 9,-2 19,4 23,13 3,9 10,14 16,10 22,-14 82,146 95,255 4,30 22,105 42,165 23,72 37,139 40,194 4,55 11,91 22,103 23,27 74,22 155,-16 39,-19 93,-37 119,-41 39,-6 47,-10 41,-24 -3,-9 -12,-34 -19,-57 -11,-35 -50,-119 -75,-164 -5,-8 -21,-40 -37,-70 -15,-30 -51,-92 -80,-138 -29,-46 -66,-109 -82,-140 -20,-40 -40,-63 -65,-76 -50,-26 -69,-50 -115,-141 -33,-64 -41,-90 -41,-133 0,-30 -6,-66 -14,-80 -8,-15 -17,-34 -19,-43 -4,-13 -15,-16 -50,-12 -91,11 -163,-42 -201,-147 -10,-28 -24,-54 -32,-57 -15,-6 -28,-58 -19,-74 4,-6 9,-34 11,-63 6,-72 24,-157 39,-181 9,-15 11,-63 7,-190 l -4,-170 43,-46 44,-45 73,6 c 40,4 83,5 96,3 23,-5 148,56 162,78 3,5 23,9 45,9 22,0 59,10 82,21 23,12 51,22 62,23 11,1 24,10 30,21 5,11 17,20 25,20 9,0 15,9 15,21 0,25 32,64 51,64 7,0 25,22 40,50 15,27 31,50 36,50 4,0 8,6 8,14 0,8 13,23 30,32 45,27 73,101 77,209 3,62 0,98 -9,115 -27,50 -123,75 -185,48 -70,-31 -133,-100 -133,-147 0,-30 19,-26 31,7 13,33 55,79 91,98 33,17 108,18 142,2 31,-13 41,-55 33,-136 -8,-90 -27,-136 -57,-140 -28,-4 -52,-22 -30,-22 13,0 13,-2 0,-10 -20,-13 -33,-13 -25,0 4,6 -1,7 -10,3 -19,-7 -55,-83 -55,-114 0,-29 -94,-113 -165,-148 -97,-48 -269,-110 -337,-121 -98,-16 -116,-13 -149,19 -28,29 -29,32 -29,133 1,159 32,326 78,417 21,42 56,118 78,170 21,52 52,108 69,125 16,17 28,37 27,44 -2,6 4,12 13,12 8,0 15,7 15,15 0,9 9,33 20,55 26,50 25,58 -1,34 l -22,-19 5,50 c 9,99 104,245 158,245 11,0 20,5 20,10 0,6 8,10 18,10 26,0 33,9 20,29 -12,19 16,75 111,221 31,47 67,110 80,140 64,143 103,218 128,248 l 28,34 83,-13 82,-13 v -119 c 0,-200 26,-297 130,-482 23,-40 100,-110 122,-110 25,0 15,22 -25,50 -23,17 -51,49 -63,70 -11,22 -37,69 -56,105 -26,47 -41,91 -52,158 -27,155 -24,179 39,305 30,60 55,117 55,126 0,9 -24,-32 -52,-91 -28,-60 -55,-108 -59,-108 -11,0 1,94 12,98 11,5 12,32 1,32 -5,0 -13,17 -18,38 -5,22 -15,37 -24,37 -11,0 -14,-9 -12,-37 4,-45 2,-45 -110,-24 -40,8 -85,12 -100,9 -39,-7 -122,13 -195,48 -50,24 -75,30 -115,28 -80,-5 -67,15 19,30 129,23 197,25 255,5 52,-17 155,-16 313,2 51,6 55,5 55,-14 0,-18 4,-21 30,-16 20,4 39,1 56,-11 36,-23 132,-22 231,4 107,28 238,29 291,2 31,-15 62,-19 185,-20 122,-1 156,-5 200,-22 67,-26 271,-62 275,-49 2,6 17,10 33,10 h 29 v -93 c 0,-62 7,-116 20,-165 26,-95 26,-105 -14,-198 -28,-65 -36,-102 -47,-208 -13,-131 -22,-156 -59,-156 -29,0 -47,-34 -97,-187 -26,-81 -60,-166 -79,-195 -51,-78 -58,-108 -50,-220 6,-92 5,-98 -13,-98 -24,0 -31,-19 -31,-89 0,-61 -39,-157 -98,-244 -16,-23 -46,-75 -67,-116 -20,-41 -54,-97 -75,-125 -20,-28 -48,-73 -61,-100 -13,-27 -65,-92 -115,-145 -50,-53 -120,-131 -156,-174 -36,-43 -87,-93 -114,-111 -54,-37 -191,-157 -211,-186 -16,-22 -138,-100 -203,-128 -100,-44 -292,-72 -545,-79 -214,-5 -238,-2 -390,51 -120,42 -185,75 -241,123 -39,34 -53,52 -48,65 3,12 -12,33 -54,73 -33,31 -71,73 -84,93 -61,92 -109,182 -103,192 4,6 1,19 -7,28 -8,9 -24,44 -36,77 -58,167 -105,265 -153,321 -64,72 -166,224 -175,258 -3,14 -12,30 -19,34 -15,9 -58,139 -81,247 -9,44 -23,94 -31,112 -7,18 -13,43 -13,55 0,22 1,22 25,-7 14,-16 53,-87 87,-157 34,-71 66,-128 70,-128 12,0 10,36 -6,77 -8,21 -17,58 -21,83 -3,24 -15,59 -26,77 -13,20 -23,61 -28,110 -5,46 -17,95 -29,119 -12,23 -28,73 -36,110 -9,38 -23,101 -31,139 -9,39 -32,101 -51,139 -32,61 -34,70 -20,78 31,17 64,53 71,76 9,31 -13,29 -55,-8 -19,-16 -38,-29 -42,-30 -10,0 -28,60 -28,94 0,119 74,408 136,528 10,19 13,40 8,61 -6,31 -6,32 13,15 11,-10 25,-18 31,-18 20,0 42,-42 32,-61 -7,-11 -6,-27 0,-45 11,-27 11,-26 43,40 l 32,66 65,-2 c 36,-2 75,1 88,5 20,8 22,6 22,-31 0,-22 -3,-54 -6,-71 -6,-29 -9,-31 -35,-26 -34,8 -38,-5 -9,-23 20,-12 19,-14 -20,-63 -21,-27 -42,-65 -46,-83 -6,-36 6,-109 36,-216 10,-36 21,-81 24,-101 9,-51 53,-114 100,-140 47,-26 164,-42 301,-39 157,2 321,54 409,128 30,26 57,53 60,60 3,7 8,74 12,150 3,75 12,161 19,191 13,49 12,59 -7,115 -32,96 -52,122 -101,134 -82,21 -116,22 -184,8 -121,-26 -412,-67 -456,-64 l -42,3 3,40 c 4,46 75,189 111,223 22,20 23,24 9,40 -25,28 -17,71 16,90 22,13 30,14 33,5 6,-18 23,-16 45,4 17,15 18,15 18,0 0,-19 21,-22 37,-6 8,8 13,5 18,-11 6,-20 8,-20 31,-5 18,11 24,12 25,3 0,-7 5,-2 10,11 9,22 11,23 27,8 17,-15 21,-15 53,3 40,22 61,25 58,8 z m 311,-43 c 0,-16 -6,-25 -15,-25 -15,0 -21,31 -8,43 13,14 23,6 23,-18 z m 2693,-63 c 34,-62 59,-159 52,-197 -12,-61 -26,-85 -51,-85 -22,0 -24,4 -24,48 0,26 -7,72 -15,102 -8,30 -18,91 -21,135 -7,79 -7,80 13,62 11,-9 32,-39 46,-65 z M 744,4051 c 0,-86 -4,-112 -17,-125 -8,-9 -19,-25 -22,-36 -3,-11 -13,-20 -21,-20 -17,0 -54,-57 -54,-85 0,-15 6,-11 27,18 46,64 60,46 36,-46 -11,-40 -23,-67 -33,-70 -17,-4 -49,-94 -74,-207 -10,-41 -22,-94 -29,-118 l -12,-43 -34,77 -34,76 15,82 c 11,55 13,87 6,99 -6,13 -5,36 3,70 7,29 13,63 15,77 8,86 137,332 183,349 46,17 46,16 45,-98 z m 63,87 c 7,-17 19,-23 46,-23 19,-1 47,-9 61,-19 43,-28 36,-92 -29,-263 -30,-80 -55,-151 -55,-159 0,-9 -11,-39 -24,-67 -18,-38 -26,-77 -31,-147 -8,-123 -31,-207 -59,-214 -46,-13 -64,7 -31,34 8,7 15,22 14,34 0,20 0,21 -9,1 -5,-11 -23,-35 -40,-54 -26,-29 -28,-36 -15,-43 13,-8 13,-12 0,-38 -8,-16 -15,-40 -15,-55 0,-14 -4,-25 -9,-25 -5,0 -12,-71 -16,-157 -4,-87 -11,-166 -16,-175 -6,-11 -3,-33 10,-65 16,-41 17,-61 11,-138 -5,-49 -13,-103 -20,-120 -6,-16 -10,-41 -9,-55 3,-30 -33,-140 -64,-195 -12,-22 -38,-50 -57,-63 -33,-22 -35,-22 -48,-5 -19,25 -9,90 18,118 27,29 40,125 40,290 -1,69 5,133 15,170 8,33 15,93 15,135 0,52 3,70 10,60 7,-11 10,-6 10,22 0,20 -5,40 -11,44 -6,3 -9,15 -6,25 3,10 1,19 -3,21 -4,2 -5,30 0,63 l 7,60 2,-47 c 2,-68 16,-60 16,9 1,75 13,147 25,151 6,2 10,14 10,27 0,13 5,36 11,52 5,15 17,59 25,98 23,110 67,245 81,245 6,0 24,39 39,88 23,75 28,84 35,64 5,-13 7,-28 4,-32 -3,-5 -1,-11 5,-15 13,-8 13,58 1,70 -6,6 -6,27 0,55 6,25 7,77 4,117 -11,107 23,185 52,121 z m 1217,-178 c 28,-14 37,-33 73,-142 3,-10 0,-31 -6,-48 -6,-18 -16,-102 -22,-188 -12,-173 -12,-174 -93,-233 -32,-24 -45,-28 -76,-23 -25,4 -48,1 -70,-11 -19,-10 -46,-15 -64,-12 -32,4 -76,-10 -76,-25 0,-5 9,-4 19,2 11,5 34,10 51,10 18,0 57,7 87,16 80,23 77,9 -4,-16 -127,-40 -397,-45 -483,-8 -47,20 -88,70 -95,116 -3,20 -14,69 -25,107 -31,117 -43,182 -37,206 4,13 28,51 55,84 32,39 49,69 48,85 -1,25 0,25 104,31 110,7 297,33 390,55 69,16 186,13 224,-6 z m 2539,-21 c -28,-5 -71,-15 -95,-24 -55,-19 -58,-19 -58,4 0,21 30,26 155,28 l 50,1 z m 207,2 c 0,-4 -11,-6 -25,-3 -14,2 -25,6 -25,8 0,2 11,4 25,4 14,0 25,-4 25,-9 z m 68,-31 c -8,-25 -13,-28 -24,-19 -24,19 -17,49 10,49 23,0 24,-2 14,-30 z m 66,-1 c 3,-17 6,-52 6,-77 0,-44 0,-45 -20,-27 -14,13 -20,31 -20,61 0,73 22,101 34,43 z M 735,3890 c -4,-12 -9,-19 -12,-17 -3,3 -2,15 2,27 4,12 9,19 12,17 3,-3 2,-15 -2,-27 z m 3925,21 c 0,-24 -33,-98 -50,-111 -14,-11 -22,-37 -30,-105 -7,-62 -22,-115 -45,-171 -19,-45 -35,-86 -35,-93 0,-6 -4,-11 -8,-11 -24,0 -99,-221 -106,-313 -7,-90 -16,-112 -51,-121 -15,-4 -25,-13 -25,-24 0,-10 -11,-55 -25,-100 -13,-45 -27,-110 -31,-143 -6,-54 -12,-67 -56,-118 -28,-31 -62,-76 -76,-100 -25,-43 -26,-43 -35,-20 -5,13 -7,58 -5,100 3,68 7,82 35,122 41,56 65,111 92,212 32,117 60,175 83,175 35,0 68,45 68,92 1,93 28,234 59,301 35,77 38,123 16,188 -24,67 -31,159 -14,170 8,4 14,14 14,20 0,14 60,36 130,48 69,12 95,12 95,2 z m 74,-1 c 30,-11 33,-37 11,-80 -8,-16 -18,-57 -22,-90 -5,-49 -10,-61 -27,-66 -12,-4 -39,-26 -62,-50 l -40,-44 13,91 c 10,69 20,99 37,120 13,15 30,51 37,79 14,54 15,55 53,40 z m 243,-125 c -1,0 -10,-7 -19,-14 -17,-13 -18,-9 -17,55 v 69 l 19,-55 c 10,-30 18,-55 17,-55 z m 252,-160 c -19,-110 -30,-97 -25,30 3,66 9,143 13,170 7,48 7,46 15,-45 4,-58 3,-119 -3,-155 z m -408,213 c 8,-15 9,-52 4,-122 -4,-56 -8,-141 -9,-191 0,-49 -6,-103 -13,-120 -6,-16 -17,-60 -23,-98 -15,-93 -25,-117 -50,-117 h -21 l 21,31 c 35,48 16,45 -38,-5 -27,-25 -58,-46 -70,-46 h -20 l 22,83 c 16,59 27,82 39,82 26,0 33,16 14,30 -18,13 -16,21 32,166 36,106 51,168 51,205 0,51 25,124 42,124 4,0 13,-10 19,-22 z m 79,-83 c 19,-21 22,-29 13,-43 -7,-11 -9,-68 -7,-157 2,-96 -1,-161 -11,-209 -8,-39 -15,-81 -15,-92 0,-16 -11,-26 -40,-38 -52,-21 -53,-21 -46,9 21,82 40,204 47,300 16,204 21,255 28,255 4,0 18,-11 31,-25 z M 476,3655 c -13,-65 -14,-67 -15,-27 0,24 5,64 11,90 18,68 21,21 4,-63 z m 4801,3 c -2,-13 -4,-5 -4,17 -1,22 1,32 4,23 2,-10 2,-28 0,-40 z m -294,-122 c 27,-61 21,-100 -24,-183 -23,-41 -43,-72 -46,-70 -2,3 1,25 8,48 8,28 13,94 11,179 -2,160 6,201 23,120 7,-30 19,-72 28,-94 z m -278,82 c -39,-129 -76,-223 -86,-223 -7,0 -20,12 -28,26 -20,36 -4,87 49,162 42,59 78,78 65,35 z m -3900,-109 -15,-84 4,77 c 4,71 12,105 22,95 2,-2 -2,-42 -11,-88 z m 186,14 c -11,-21 -20,-35 -21,-31 0,12 33,78 38,74 2,-2 -6,-21 -17,-43 z M 804,3348 c 7,-5 5,-8 -6,-8 -14,0 -18,8 -17,33 2,27 2,28 6,7 3,-14 10,-28 17,-32 z m 4393,0 c -3,-8 -6,-5 -6,6 -1,11 2,17 5,13 3,-3 4,-12 1,-19 z m -7,-48 c 0,-11 -4,-20 -9,-20 -5,0 -7,9 -4,20 3,11 7,20 9,20 2,0 4,-9 4,-20 z M 877,3200 c 32,-60 42,-97 73,-255 7,-33 23,-85 37,-115 16,-33 29,-85 34,-133 5,-50 15,-90 29,-112 12,-19 20,-45 18,-57 -3,-18 -7,-12 -21,26 -9,27 -32,67 -50,90 -46,55 -77,115 -77,147 0,47 -12,89 -25,89 -8,0 -15,-6 -17,-12 -3,-8 -10,-3 -18,12 -7,14 -21,35 -32,46 -13,14 -25,58 -38,130 -24,131 -25,174 -6,174 7,0 16,9 19,21 10,37 39,17 74,-51 z m -137,-24 c 0,-60 38,-226 59,-259 39,-60 91,-178 91,-206 0,-15 5,-53 11,-85 9,-43 9,-60 0,-69 -6,-6 -11,-19 -11,-29 0,-15 -4,-16 -27,-7 -34,13 -40,5 -84,-100 -53,-129 -87,-188 -109,-194 -23,-6 -60,-82 -80,-164 -10,-44 -16,-53 -34,-53 -16,0 -27,-11 -40,-37 l -18,-37 -34,59 c -18,33 -34,67 -34,76 0,8 15,23 34,32 40,19 71,67 116,181 17,43 46,108 65,144 34,64 44,115 25,127 -5,3 -14,-14 -21,-38 -6,-24 -24,-64 -40,-88 -33,-50 -35,-48 -15,9 8,23 18,80 22,127 l 7,85 56,-6 c 47,-6 54,-4 43,7 -7,8 -32,19 -55,25 l -42,10 -1,55 c -3,109 16,419 28,444 9,20 18,25 50,25 37,0 38,-1 38,-34 z m 4158,-103 c 13,-24 16,-83 5,-83 -20,-1 -52,-36 -44,-48 7,-12 12,-12 30,0 20,12 25,10 44,-13 12,-15 34,-29 49,-33 15,-3 32,-15 38,-26 15,-29 40,-163 40,-217 0,-36 5,-49 27,-66 14,-12 44,-39 66,-60 38,-36 39,-39 35,-90 -4,-52 -50,-168 -74,-187 -10,-9 -17,5 -36,62 -19,62 -32,82 -85,136 -34,34 -82,71 -106,82 -24,11 -49,26 -55,33 -21,25 -42,131 -42,208 0,88 6,110 26,102 16,-6 17,-2 8,21 -3,9 -12,16 -18,16 -7,0 -17,19 -23,43 -6,23 -17,56 -24,74 -10,25 -10,42 -1,85 12,53 13,53 65,68 l 52,15 6,-50 c 3,-28 11,-60 17,-72 z m -508,-158 c 0,-28 -87,-181 -97,-171 -2,2 4,31 13,65 13,46 22,61 36,61 23,0 24,28 1,37 -15,6 -15,7 3,14 30,12 44,10 44,-6 z M 2096,2795 c 0,-5 -14,-41 -31,-80 -18,-38 -36,-81 -40,-95 -14,-45 -65,-140 -76,-140 -5,0 -9,-6 -7,-12 1,-7 -2,-26 -9,-43 -6,-16 -15,-50 -20,-75 -9,-44 -9,-45 -22,-21 -16,29 -28,151 -15,151 5,0 9,30 9,68 1,80 36,166 91,222 29,30 41,36 77,35 23,0 42,-4 43,-10 z m 2112,-315 c -9,-89 -5,-295 8,-402 5,-43 4,-47 -18,-50 -17,-2 -24,-10 -26,-30 -3,-29 15,-39 24,-13 4,8 10,15 14,15 10,0 0,-37 -24,-95 l -17,-39 -19,29 c -11,17 -20,41 -20,53 0,13 -10,32 -21,41 -20,16 -21,19 -6,47 8,16 31,45 51,63 20,19 36,41 36,48 0,27 -30,11 -72,-37 l -43,-49 -27,26 c -23,22 -28,35 -28,75 0,41 5,54 36,88 25,28 34,45 29,59 -11,35 14,97 72,185 31,47 58,85 59,83 1,-1 -2,-45 -8,-97 z m -3337,20 c 6,0 9,-43 8,-104 -1,-71 3,-111 12,-127 13,-22 15,-12 19,96 8,189 21,118 23,-123 2,-213 2,-218 -23,-266 -37,-74 -49,-77 -99,-27 -38,38 -47,43 -82,39 -21,-2 -39,-2 -39,-1 0,2 20,34 45,71 28,42 50,91 60,132 9,36 25,78 37,93 25,36 17,47 -10,12 -11,-14 -25,-49 -32,-78 -15,-65 -54,-137 -137,-251 -35,-48 -69,-100 -74,-114 -11,-29 -16,-25 -49,35 l -23,41 20,34 c 10,18 29,34 41,36 16,3 24,14 32,45 23,91 55,162 79,172 24,11 66,85 121,218 24,57 36,77 47,73 8,-3 19,-6 24,-6 z m 154,-302 c 9,-33 21,-58 29,-58 7,0 35,-32 62,-72 27,-40 73,-99 102,-133 37,-43 61,-83 83,-140 16,-44 43,-109 59,-145 52,-117 46,-182 -22,-233 -36,-27 -58,-12 -102,72 -42,80 -47,85 -92,83 -30,-1 -42,7 -110,86 -42,48 -96,116 -120,152 -43,63 -44,65 -24,80 11,8 34,44 52,80 30,61 32,72 33,170 0,58 -3,134 -8,170 l -7,65 24,-60 c 14,-33 32,-86 41,-117 z m 4254,52 40,-57 -35,-16 c -19,-10 -58,-17 -87,-17 -46,0 -53,3 -64,26 -11,23 -8,35 25,100 l 37,75 22,-27 c 12,-15 39,-53 62,-84 z m -1049,-7 c 0,-24 -3,-33 -9,-25 -7,12 -4,62 5,62 2,0 4,-17 4,-37 z m -207,-170 c 37,-40 28,-43 -19,-7 -32,25 -43,52 -26,68 4,4 9,0 10,-11 2,-10 18,-33 35,-50 z m -3580,-103 33,-60 -34,-68 c -18,-38 -36,-88 -39,-111 -11,-78 -22,-20 -12,64 4,43 7,81 4,83 -14,14 -62,-37 -79,-83 -2,-5 -7,-7 -11,-3 -3,3 -2,33 5,65 17,85 19,90 40,96 11,3 27,21 37,41 9,20 18,36 19,36 2,0 18,-27 37,-60 z m 1752,-69 c -6,-5 -21,-12 -35,-15 l -25,-7 25,15 c 28,17 50,21 35,7 z m 2760,-11 c 17,-19 17,-20 -6,-40 -72,-62 -183,-90 -238,-60 -25,13 -23,37 3,32 24,-4 44,14 51,50 l 7,30 37,-36 c 50,-49 78,-48 99,4 20,46 23,47 47,20 z m -749,-48 c -12,-12 -18,8 -10,35 l 8,28 4,-28 c 2,-16 1,-31 -2,-35 z m -53,-7 c -7,-21 -13,-19 -13,6 0,11 4,18 10,14 5,-3 7,-12 3,-20 z"
       id="path1" />
    <path
       d="m 3177,5093 c -11,-18 44,-112 84,-143 26,-21 38,-38 34,-48 -3,-8 0,-21 7,-30 7,-8 13,-22 13,-31 0,-28 30,-18 33,12 3,27 4,28 27,13 21,-14 35,-14 107,-3 46,6 132,11 191,10 99,-2 111,-4 137,-27 16,-13 67,-38 112,-55 46,-17 106,-42 133,-56 59,-29 65,-30 65,-10 0,17 -66,52 -168,89 -86,31 -124,49 -141,69 -19,24 -187,31 -304,13 l -98,-15 -84,59 c -63,45 -86,68 -95,94 -12,37 -45,73 -53,59 z"
       id="path2" />
    <path
       d="m 3110,5051 c 0,-20 36,-48 47,-37 9,9 -5,34 -26,46 -18,9 -21,8 -21,-9 z"
       id="path3" />
    <path
       d="m 3545,4813 c -63,-10 -42,-20 66,-32 61,-6 114,-10 116,-7 3,2 -7,12 -22,22 -27,18 -105,26 -160,17 z"
       id="path4" />
    <path
       d="m 3905,4726 c -19,-14 -19,-15 -1,-22 20,-8 52,7 49,22 -3,15 -27,15 -48,0 z"
       id="path5" />
    <path
       d="m 4720,4658 c -22,-37 -27,-56 -38,-151 -5,-41 -5,-70 1,-74 15,-9 24,15 30,82 8,80 31,139 52,131 18,-7 19,3 1,27 -18,24 -23,22 -46,-15 z"
       id="path6" />
    <path
       d="m 4981,4165 c 0,-58 5,-91 18,-121 17,-37 53,-74 73,-74 11,0 -3,32 -25,57 -13,14 -22,44 -27,85 -3,35 -14,79 -22,98 l -16,35 z"
       id="path7" />
    <path
       d="m 2930,4405 c 0,-31 9,-90 20,-133 17,-61 27,-83 53,-104 17,-14 34,-24 37,-21 3,2 -10,17 -28,32 -27,22 -37,40 -50,96 -9,39 -15,96 -14,128 1,33 -2,57 -8,57 -5,0 -10,-25 -10,-55 z"
       id="path8" />
    <path
       d="m 2225,4260 c -3,-5 1,-10 9,-10 9,0 16,5 16,10 0,6 -4,10 -9,10 -6,0 -13,-4 -16,-10 z"
       id="path9" />
    <path
       d="m 2828,4133 c 6,-2 18,-2 25,0 6,3 1,5 -13,5 -14,0 -19,-2 -12,-5 z"
       id="path10" />
    <path
       d="m 3092,3928 c 7,-20 68,-23 68,-4 0,12 -10,16 -36,16 -24,0 -34,-4 -32,-12 z"
       id="path11" />
    <path
       d="m 3435,3893 c -44,-13 -95,-25 -112,-26 -25,-1 -33,-6 -33,-19 0,-26 47,-24 145,7 143,44 296,28 449,-46 97,-48 105,-54 127,-104 24,-51 23,-89 -1,-143 -25,-56 -131,-160 -195,-192 -54,-27 -75,-43 -75,-58 0,-17 -28,-33 -65,-38 -21,-2 -45,-9 -55,-14 -28,-15 -119,-20 -148,-8 -15,6 -30,11 -34,10 -25,-5 -168,33 -206,55 -109,63 -140,103 -129,166 21,115 41,176 86,265 54,108 63,146 34,140 -10,-2 -17,-10 -15,-16 1,-7 -20,-56 -48,-110 -28,-53 -57,-126 -65,-162 -8,-36 -20,-84 -27,-107 -22,-76 23,-139 152,-211 85,-47 359,-86 439,-62 19,5 36,8 38,6 6,-6 -187,-64 -254,-77 -53,-10 -68,-9 -106,6 -53,20 -111,17 -115,-7 -4,-22 56,-41 138,-42 105,-1 303,45 399,94 31,15 70,30 86,34 17,4 62,34 100,67 39,34 81,68 93,77 13,8 28,27 33,40 16,43 19,18 4,-33 -18,-59 -19,-97 -3,-113 10,-10 15,1 25,53 13,74 55,155 84,162 14,4 19,15 20,42 1,20 1,40 0,44 -1,4 28,51 65,103 60,86 74,124 45,124 -11,0 -11,0 -113,-147 -49,-72 -77,-103 -91,-103 -15,0 -18,-5 -14,-21 4,-15 -15,-40 -86,-111 -74,-75 -104,-97 -166,-125 -42,-18 -85,-39 -96,-45 -45,-24 55,67 125,114 113,75 198,189 200,266 0,49 -23,112 -55,144 -73,76 -290,149 -435,147 -38,-1 -99,-12 -145,-26 z"
       id="path12" />
    <path
       d="m 3486,3695 c -47,-17 -104,-61 -133,-105 -26,-37 -31,-104 -9,-117 16,-9 46,-66 46,-87 0,-8 19,-29 43,-46 42,-32 42,-32 131,-25 95,6 125,18 170,64 28,30 28,32 22,107 -10,110 -24,137 -98,184 -69,44 -105,49 -172,25 z m 119,-35 c 4,-6 -6,-10 -22,-10 -15,0 -45,-3 -65,-6 -38,-7 -56,10 -20,19 33,9 101,7 107,-3 z m 65,-64 c 0,-23 3,-27 10,-16 16,26 33,-5 38,-68 4,-58 4,-59 -27,-72 -17,-7 -31,-16 -31,-20 0,-4 -13,-10 -28,-13 -15,-3 -40,-17 -55,-31 -20,-19 -39,-26 -67,-26 -33,0 -46,7 -88,48 -76,74 -81,156 -14,212 36,30 36,30 57,10 12,-12 25,-16 31,-11 5,4 24,11 42,14 24,5 32,3 32,-8 0,-22 17,-18 37,9 25,33 63,16 63,-28 z m 48,-178 c -2,-15 -9,-22 -20,-22 -10,1 -20,-7 -23,-17 -4,-11 -10,-17 -14,-14 -5,2 -23,0 -41,-5 -19,-5 -36,-8 -38,-5 -7,7 41,44 58,45 8,0 26,9 40,20 33,26 42,25 38,-2 z"
       id="path13" />
    <path
       d="m 3508,3573 c -16,-2 -28,-10 -28,-18 0,-7 -6,-16 -12,-18 -9,-4 -8,-6 2,-6 10,-1 21,-19 29,-46 7,-25 18,-45 24,-45 22,0 67,54 67,81 0,58 -9,63 -82,52 z"
       id="path14" />
    <path
       d="m 2192,3555 c -15,-19 -19,-31 -12,-33 18,-6 42,23 38,44 -3,16 -6,14 -26,-11 z"
       id="path15" />
    <path
       d="m 3380,3322 c 0,-13 104,-43 150,-44 85,-1 95,5 20,12 -41,4 -96,14 -122,23 -27,9 -48,13 -48,9 z"
       id="path16" />
    <path
       d="m 3862,2898 c -24,-24 -9,-54 22,-42 19,7 21,28 3,43 -10,8 -17,7 -25,-1 z"
       id="path17" />
    <path
       d="m 3768,2673 c -53,-56 -78,-114 -89,-207 -18,-152 -25,-186 -48,-216 -26,-36 -19,-60 11,-33 40,36 43,48 67,249 11,93 33,144 85,193 20,19 36,39 36,43 0,19 -29,5 -62,-29 z"
       id="path18" />
    <path
       d="m 1350,2637 c 0,-44 34,-142 65,-188 23,-32 42,-103 61,-219 9,-55 13,-65 25,-53 7,7 5,40 -6,104 -20,120 -32,157 -61,192 -24,28 -50,105 -56,161 -4,43 -28,46 -28,3 z"
       id="path19" />
    <path
       d="m 2647,2378 c -49,-13 -88,-64 -95,-123 -6,-59 14,-60 22,-1 4,24 16,52 26,61 11,10 20,24 20,31 0,7 16,16 35,20 19,3 35,10 35,15 0,5 -1,9 -2,8 -2,-1 -20,-6 -41,-11 z"
       id="path20" />
    <path
       d="m 3357,2194 c -8,-8 3,-34 14,-34 11,0 12,27 0,34 -4,3 -11,3 -14,0 z"
       id="path21" />
    <path
       d="m 3686,2082 c -3,-6 -1,-14 5,-17 15,-10 25,3 12,16 -7,7 -13,7 -17,1 z"
       id="path22" />
    <path
       d="m 3475,1920 c -3,-5 1,-10 10,-10 9,0 13,5 10,10 -3,6 -8,10 -10,10 -2,0 -7,-4 -10,-10 z"
       id="path23" />
    <path
       d="m 2065,1789 c -11,-17 -2,-18 19,-3 17,12 17,14 4,14 -9,0 -20,-5 -23,-11 z"
       id="path24" />
    <path
       d="m 2213,1743 c -3,-10 -8,-21 -10,-25 -10,-19 6,-5 21,17 9,14 12,25 6,25 -6,0 -13,-8 -17,-17 z"
       id="path25" />
    <path
       d="m 2303,1748 c -17,-23 -25,-44 -9,-24 9,11 22,23 28,28 9,5 9,8 2,8 -6,0 -16,-6 -21,-12 z"
       id="path26" />
    <path
       d="m 3496,1751 c -4,-7 -5,-15 -2,-18 9,-9 19,4 14,18 -4,11 -6,11 -12,0 z"
       id="path27" />
    <path
       d="m 2475,1624 c -38,-14 -78,-28 -88,-31 -10,-3 -45,5 -79,17 -113,41 -241,12 -330,-76 l -38,-36 -32,19 c -18,11 -33,26 -33,35 0,9 -4,20 -8,24 -4,4 -7,-7 -7,-24 0,-23 7,-36 26,-48 33,-22 115,-35 132,-22 12,10 86,7 209,-8 34,-4 84,0 140,10 68,13 102,15 148,8 33,-5 64,-8 70,-6 6,3 67,8 137,12 102,7 131,12 148,27 25,23 26,39 1,25 -26,-14 -31,-13 -25,5 7,18 -9,19 -36,3 -16,-10 -25,-8 -62,20 -59,45 -122,72 -166,72 -20,0 -68,-12 -107,-26 z m 149,0 c 9,-3 16,-13 16,-21 0,-10 6,-12 20,-8 14,4 32,-3 58,-23 20,-16 46,-34 57,-40 17,-9 13,-11 -25,-11 -206,-2 -357,-9 -421,-21 -60,-11 -88,-11 -134,-2 -32,7 -92,12 -133,12 -75,0 -75,0 -57,20 31,34 120,71 182,76 45,4 73,0 126,-19 37,-14 77,-33 87,-42 18,-17 20,-17 20,-1 0,13 6,15 25,10 28,-7 35,10 8,20 -23,9 -7,22 52,39 54,17 94,20 119,11 z"
       id="path28" />
    <path
       d="m 1515,1559 c -10,-30 0,-33 13,-4 6,14 7,25 2,25 -5,0 -12,-9 -15,-21 z"
       id="path29" />
    <path
       d="m 1790,1565 c 33,-19 50,-18 26,0 -11,8 -27,15 -35,15 -10,-1 -7,-6 9,-15 z"
       id="path30" />
    <path
       d="m 1840,1511 c 0,-5 5,-13 10,-16 6,-3 10,-2 10,4 0,5 -4,13 -10,16 -5,3 -10,2 -10,-4 z"
       id="path31" />
    <path
       d="m 2705,1448 c -38,-17 -82,-39 -97,-49 -14,-11 -29,-19 -33,-19 -4,0 -25,-13 -48,-30 -23,-16 -57,-33 -74,-36 -29,-6 -33,-4 -33,15 0,11 -4,21 -10,21 -5,0 -10,-11 -10,-25 0,-24 -3,-25 -59,-25 -61,0 -179,23 -215,42 -12,6 -40,28 -63,49 -40,37 -93,53 -93,29 0,-5 9,-10 19,-10 11,0 39,-18 63,-40 97,-91 326,-122 446,-61 23,12 47,18 56,15 8,-3 17,2 20,13 9,26 48,52 134,88 42,17 78,37 80,43 5,17 -4,15 -83,-20 z"
       id="path32" />
    <path
       d="m 1897,1463 c -4,-3 2,-12 13,-20 11,-8 20,-21 20,-29 0,-8 5,-14 10,-14 13,0 13,6 -5,40 -15,30 -26,36 -38,23 z"
       id="path33" />
    <path
       d="m 2115,1019 c 56,-38 104,-59 135,-59 48,0 28,15 -66,49 -100,36 -109,38 -69,10 z"
       id="path34" />
    <path
       d="m 1705,3794 c -22,-8 -60,-22 -85,-30 -71,-23 -131,-92 -145,-166 -4,-21 -3,-38 2,-38 5,0 7,-16 5,-36 -3,-20 0,-46 5,-57 6,-12 17,-38 26,-58 13,-30 24,-39 77,-58 47,-17 75,-21 118,-18 102,9 125,15 214,55 49,22 97,76 124,141 32,76 4,183 -58,221 -79,49 -217,70 -283,44 z m 158,-34 c 9,-8 -34,-21 -83,-26 -14,-2 -41,-5 -60,-8 -19,-2 -46,-2 -59,1 -22,5 -22,6 -5,16 57,33 181,43 207,17 z m 116,-49 c 36,-33 41,-56 11,-46 -17,5 -20,2 -20,-25 0,-29 1,-30 16,-16 20,21 31,20 39,-3 14,-44 -33,-144 -78,-168 -85,-43 -260,-52 -357,-17 -56,20 -88,57 -69,81 11,13 10,17 -4,28 -15,11 -16,19 -8,55 13,57 34,79 61,62 13,-8 20,-8 20,-2 0,6 -7,13 -15,16 -8,4 -15,10 -15,15 0,13 50,43 58,35 3,-4 0,-11 -8,-16 -12,-8 -10,-10 7,-10 12,0 24,-4 27,-9 3,-4 17,-6 31,-3 19,3 25,0 25,-13 0,-9 6,-15 13,-12 6,2 12,10 12,17 0,7 9,16 20,21 29,11 75,11 75,-1 0,-5 5,-10 10,-10 6,0 10,7 10,15 0,8 12,17 28,21 15,3 32,7 37,9 26,9 45,3 74,-24 z m -439,-291 c 8,-16 8,-18 -4,-14 -17,6 -30,34 -16,34 5,0 14,-9 20,-20 z m 131,-10 c 76,-10 149,-8 204,5 29,6 29,6 10,-10 -20,-16 -30,-19 -97,-30 -21,-3 -38,-10 -38,-16 0,-5 -26,-8 -61,-7 -47,2 -63,6 -70,21 -6,10 -25,27 -42,39 -28,17 -29,19 -7,13 14,-3 59,-10 101,-15 z"
       id="path35" />
    <path
       d="m 1757,3623 c -14,-13 -6,-60 12,-77 41,-37 80,11 51,64 -10,19 -49,28 -63,13 z"
       id="path36" />
    <path
       d="m 4878,2836 c -21,-16 -23,-26 -5,-26 7,0 18,9 25,20 14,23 5,26 -20,6 z"
       id="path37" />
    <path
       d="m 1920,4555 c -10,-12 -10,-15 4,-15 9,0 16,7 16,15 0,8 -2,15 -4,15 -2,0 -9,-7 -16,-15 z"
       id="path38" />
    <path
       d="m 553,4383 c -22,-51 -32,-248 -12,-241 10,3 16,32 20,99 3,52 11,107 17,122 7,16 12,35 12,43 0,27 -21,14 -37,-23 z"
       id="path39" />
    <path
       d="m 5277,3024 c -7,-44 4,-110 22,-139 10,-16 11,-4 5,65 -7,100 -18,130 -27,74 z"
       id="path40" />
    <path
       d="m 4361,2607 c -16,-20 -6,-56 10,-40 6,6 9,21 7,33 -3,21 -4,22 -17,7 z"
       id="path41" />
    <path
       d="m 4358,2473 c -11,-32 -16,-40 -17,-25 -1,14 -5,21 -12,16 -7,-4 -10,-45 -8,-118 1,-61 -1,-150 -6,-198 -4,-48 -4,-107 -1,-130 7,-47 67,-161 74,-140 2,7 -9,34 -25,60 -27,45 -28,52 -27,170 0,72 5,127 11,133 6,6 9,27 6,47 -3,21 4,69 16,112 22,79 26,120 13,120 -5,0 -16,-21 -24,-47 z"
       id="path42" />
    <path
       d="m 4320,1859 c 0,-6 9,-13 20,-16 18,-5 20,-14 20,-90 0,-99 23,-212 51,-247 11,-13 32,-27 48,-31 17,-3 33,-16 40,-31 16,-35 14,-94 -4,-114 -14,-15 -20,-16 -53,-5 -61,21 -112,29 -112,16 0,-6 -11,-11 -25,-11 -14,0 -41,-6 -59,-14 -32,-13 -34,-13 -45,10 -13,29 -54,32 -89,8 -12,-8 -32,-14 -44,-12 -24,3 -32,-10 -18,-32 7,-12 16,-11 58,9 55,26 72,22 72,-15 0,-34 26,-41 55,-14 13,12 42,24 67,27 23,3 48,9 53,14 6,4 35,-1 65,-11 61,-21 85,-18 101,11 7,14 16,18 31,13 19,-6 21,-3 15,30 -5,29 -3,36 11,36 9,0 30,16 46,36 16,20 43,42 60,50 43,20 67,36 88,59 34,39 18,36 -31,-4 -27,-23 -54,-41 -60,-41 -6,0 -32,-21 -57,-46 -26,-25 -50,-42 -54,-37 -9,9 46,149 69,177 9,11 11,20 4,27 -15,15 -48,-29 -73,-98 -13,-35 -26,-63 -30,-63 -4,0 -15,10 -23,23 -8,13 -30,28 -49,33 -28,8 -36,17 -52,64 -12,35 -20,95 -24,165 -2,61 -9,116 -14,123 -13,15 -58,16 -58,1 z"
       id="path43" />
    <path
       d="m 4872,1716 c -42,-69 -58,-86 -87,-96 -29,-10 -35,-16 -34,-38 2,-23 2,-24 6,-5 2,12 14,25 26,29 12,3 32,15 44,27 26,24 108,155 101,162 -3,3 -28,-33 -56,-79 z"
       id="path44" />
    <path
       d="m 3697,1504 c -15,-31 -26,-59 -23,-61 7,-7 58,96 54,108 -2,6 -16,-16 -31,-47 z"
       id="path45" />
    <path
       d="m 3424,1349 c -3,-6 1,-18 10,-27 15,-15 16,-14 16,11 0,27 -13,36 -26,16 z"
       id="path46" />
    <path
       d="m 4033,1034 c -8,-22 7,-34 33,-28 26,7 244,-38 302,-63 108,-45 194,-128 301,-292 89,-137 129,-188 162,-211 52,-38 52,-11 1,44 -28,29 -85,106 -128,172 -93,142 -205,259 -284,297 -111,53 -376,109 -387,81 z"
       id="path47" />
    <path
       d="m 3874,992 c -17,-21 -39,-51 -47,-68 -19,-36 -86,-78 -143,-89 -55,-10 -85,-28 -121,-73 -22,-27 -44,-43 -65,-47 -114,-22 -168,-39 -168,-51 0,-19 13,-18 117,7 108,26 116,30 143,74 12,19 25,35 28,35 4,0 15,-26 25,-58 10,-31 20,-63 23,-69 3,-7 -1,-13 -8,-13 -14,0 -58,-79 -58,-105 0,-33 26,-11 49,40 13,30 30,55 37,55 19,0 18,15 -6,83 -28,78 -27,83 21,91 35,6 44,3 56,-13 25,-36 77,-65 128,-72 27,-4 70,-11 94,-15 35,-6 43,-4 39,7 -3,8 -37,21 -79,31 -41,10 -84,20 -96,23 -21,5 -73,52 -73,66 0,4 13,12 29,17 21,7 38,25 54,59 14,26 37,59 51,72 27,26 34,52 14,50 -7,0 -27,-17 -44,-37 z"
       id="path48" />
    <path
       d="m 4106,932 c -7,-12 26,-75 42,-80 16,-5 15,8 -3,52 -15,35 -28,45 -39,28 z"
       id="path49" />
    <path
       d="m 3191,896 c -68,-36 -76,-63 -40,-131 30,-56 79,-105 106,-105 13,0 23,-5 23,-10 0,-12 -5,-14 -68,-30 -52,-13 -104,-58 -132,-113 -11,-23 -26,-49 -32,-58 -23,-33 24,-211 48,-186 4,4 3,37 -3,72 -13,77 -3,133 33,188 27,41 90,76 136,77 16,0 33,9 41,20 14,20 15,20 39,-22 13,-24 30,-56 38,-72 8,-17 36,-52 61,-80 33,-36 49,-47 60,-40 8,4 22,7 32,6 12,-2 17,3 17,18 0,12 7,37 16,56 9,19 13,38 9,42 -11,11 -55,-47 -55,-74 0,-13 -4,-24 -8,-24 -13,0 -86,80 -142,157 -29,40 -60,73 -69,73 -13,0 -12,4 5,18 25,20 48,61 40,70 -3,3 -6,1 -6,-5 0,-5 -11,-22 -25,-37 -28,-30 -70,-34 -101,-8 -58,47 -85,162 -40,170 11,3 26,10 34,18 7,8 20,14 27,14 8,0 17,5 20,10 10,16 -17,10 -64,-14 z"
       id="path50" />
    <path
       d="m 3960,850 c 0,-5 13,-16 28,-24 37,-19 117,-86 103,-86 -5,0 -19,10 -31,22 -15,17 -23,19 -32,10 -9,-9 7,-50 70,-177 45,-91 82,-170 82,-175 0,-6 7,-10 15,-10 26,0 17,29 -51,162 -36,72 -63,132 -61,134 7,7 116,-82 149,-120 22,-26 29,-29 40,-18 11,12 2,24 -49,71 -50,47 -58,57 -38,53 20,-3 25,0 24,14 -2,37 -15,62 -57,109 -50,57 -70,53 -23,-5 57,-71 34,-76 -49,-10 -68,54 -120,76 -120,50 z"
       id="path51" />
    <path
       d="m 3570,442 c 0,-26 13,-67 40,-120 22,-44 40,-85 40,-91 0,-6 7,-11 15,-11 23,0 18,26 -21,103 -20,40 -39,90 -43,111 -8,54 -31,60 -31,8 z"
       id="path52" />
  </g>
</svg>
